STARTFONT 2.1
FONT -Fondu-Apple LiGothic Medium-Medium-R-Normal--24-230-75-75-P-127-MacRoman-1
SIZE 23 75 75
FONTBOUNDINGBOX 24 24 -1 -4
COMMENT Created by Fondu from a mac NFNT/FONT resource
STARTPROPERTIES 17
FOUNDRY "Fondu"
FAMILY_NAME "Apple LiGothic Medium"
WEIGHT_NAME "Medium"
SLANT "R"
SETWIDTH_NAME "Normal"
ADD_STYLE_NAME ""
PIXEL_SIZE 24
POINT_SIZE 230
RESOLUTION_X 75
RESOLUTION_Y 75
SPACING "P"
AVERAGE_WIDTH 127
CHARSET_REGISTRY "MacRoman"
CHARSET_ENCODING "1"
FONT_ASCENT 20
FONT_DESCENT 4
FACE_NAME "Apple LiGothic Medium"
ENDPROPERTIES
CHARS 229
STARTCHAR char0011
ENCODING 17
SWIDTH 500 0
DWIDTH 14 0
BBX 13 13 0 0
BITMAP
38E0
7DF0
CD98
CD98
FFF8
7FF0
0D80
7FF0
FFF8
CD98
CD98
7DF0
38E0
ENDCHAR
STARTCHAR char0012
ENCODING 18
SWIDTH 500 0
DWIDTH 12 0
BBX 11 22 0 -4
BITMAP
0060
0060
0060
0060
0060
0060
00C0
00C0
00C0
30C0
F0C0
78C0
1880
0D80
0D80
0F80
0780
0700
0700
0300
0300
0300
ENDCHAR
STARTCHAR char0013
ENCODING 19
SWIDTH 500 0
DWIDTH 12 0
BBX 9 17 1 -1
BITMAP
0800
1C00
1C00
3E00
3E00
3E00
7F00
7F00
FF80
7F00
7F00
3E00
3E00
3E00
1C00
1C00
0800
ENDCHAR
STARTCHAR char0014
ENCODING 20
SWIDTH 500 0
DWIDTH 12 0
BBX 11 16 0 0
BITMAP
0100
0300
0300
0200
3FC0
7FC0
7F80
FF80
FF80
FF80
FF80
7FE0
7FC0
7FC0
3FC0
1B80
ENDCHAR
STARTCHAR multiply
ENCODING 29
SWIDTH 500 0
DWIDTH 1 0
BBX 0 0 0 -4
BITMAP
ENDCHAR
STARTCHAR space
ENCODING 32
SWIDTH 500 0
DWIDTH 8 0
BBX 0 0 0 -4
BITMAP
ENDCHAR
STARTCHAR exclam
ENCODING 33
SWIDTH 313 0
DWIDTH 6 0
BBX 4 14 1 0
BITMAP
60
60
60
60
60
60
60
60
60
60
00
60
F0
60
ENDCHAR
STARTCHAR quotedbl
ENCODING 34
SWIDTH 383 0
DWIDTH 9 0
BBX 5 6 2 8
BITMAP
D8
D8
D8
D8
D8
D8
ENDCHAR
STARTCHAR numbersign
ENCODING 35
SWIDTH 470 0
DWIDTH 11 0
BBX 11 14 0 0
BITMAP
0CC0
0CC0
0CC0
0CC0
1980
7FE0
7FE0
1980
1980
FFC0
FFC0
3300
3300
3300
ENDCHAR
STARTCHAR dollar
ENCODING 36
SWIDTH 470 0
DWIDTH 11 0
BBX 9 18 1 -2
BITMAP
0400
0400
1E00
3F80
7100
6000
6000
7800
3E00
0F00
0380
0180
4180
E180
7F00
3E00
0400
0400
ENDCHAR
STARTCHAR percent
ENCODING 37
SWIDTH 782 0
DWIDTH 15 0
BBX 15 15 0 0
BITMAP
3830
7C30
EE60
C660
C6C0
E6C0
7D80
3980
0338
067C
06E6
0CC6
0CC6
187C
1838
ENDCHAR
STARTCHAR ampersand
ENCODING 38
SWIDTH 731 0
DWIDTH 14 0
BBX 12 15 1 0
BITMAP
0E00
1F00
3980
3180
3180
3B00
1F00
3E00
7F20
E760
C3E0
C1C0
E3C0
7F60
3C70
ENDCHAR
STARTCHAR quotesingle
ENCODING 39
SWIDTH 169 0
DWIDTH 6 0
BBX 2 6 2 8
BITMAP
C0
C0
C0
C0
C0
C0
ENDCHAR
STARTCHAR parenleft
ENCODING 40
SWIDTH 313 0
DWIDTH 5 0
BBX 4 20 1 -4
BITMAP
20
70
60
60
60
C0
C0
C0
C0
C0
C0
C0
C0
C0
C0
C0
60
60
60
20
ENDCHAR
STARTCHAR parenright
ENCODING 41
SWIDTH 313 0
DWIDTH 5 0
BBX 4 20 0 -4
BITMAP
40
E0
60
60
60
30
30
30
30
30
30
30
30
30
30
70
60
60
E0
40
ENDCHAR
STARTCHAR asterisk
ENCODING 42
SWIDTH 470 0
DWIDTH 8 0
BBX 6 6 1 8
BITMAP
30
F4
7C
7C
F4
30
ENDCHAR
STARTCHAR plus
ENCODING 43
SWIDTH 530 0
DWIDTH 11 0
BBX 10 9 0 0
BITMAP
0C00
0C00
0C00
FFC0
FFC0
0C00
0C00
0C00
0C00
ENDCHAR
STARTCHAR comma
ENCODING 44
SWIDTH 235 0
DWIDTH 6 0
BBX 5 7 0 -4
BITMAP
38
30
30
60
60
60
C0
ENDCHAR
STARTCHAR hyphen
ENCODING 45
SWIDTH 313 0
DWIDTH 6 0
BBX 5 2 1 5
BITMAP
F8
F8
ENDCHAR
STARTCHAR period
ENCODING 46
SWIDTH 235 0
DWIDTH 6 0
BBX 3 3 1 0
BITMAP
E0
E0
E0
ENDCHAR
STARTCHAR slash
ENCODING 47
SWIDTH 261 0
DWIDTH 10 0
BBX 9 20 0 -4
BITMAP
0180
0180
0180
0380
0300
0700
0700
0600
0E00
0C00
0C00
1C00
1800
1800
3800
3000
7000
6000
6000
E000
ENDCHAR
STARTCHAR zero
ENCODING 48
SWIDTH 470 0
DWIDTH 11 0
BBX 11 15 0 0
BITMAP
1E00
3F80
71C0
60C0
E0E0
C060
C060
C060
C060
C060
C060
60C0
71C0
3F80
1F00
ENDCHAR
STARTCHAR one
ENCODING 49
SWIDTH 470 0
DWIDTH 11 0
BBX 4 14 3 0
BITMAP
F0
F0
30
30
30
30
30
30
30
30
30
30
30
30
ENDCHAR
STARTCHAR two
ENCODING 50
SWIDTH 470 0
DWIDTH 11 0
BBX 9 15 1 0
BITMAP
1E00
7F00
7300
E180
E180
0180
0380
0300
0700
0E00
0C00
1C00
3800
7F80
FF80
ENDCHAR
STARTCHAR three
ENCODING 51
SWIDTH 470 0
DWIDTH 11 0
BBX 9 15 1 0
BITMAP
1E00
7F00
6380
E180
0180
0180
0F00
0F00
0380
0180
0180
C180
E380
7F00
3E00
ENDCHAR
STARTCHAR four
ENCODING 52
SWIDTH 470 0
DWIDTH 11 0
BBX 11 15 0 0
BITMAP
0180
0380
0380
0780
0D80
0D80
1980
1980
3180
7180
7FE0
FFE0
0180
0180
0180
ENDCHAR
STARTCHAR five
ENCODING 53
SWIDTH 470 0
DWIDTH 11 0
BBX 9 14 1 0
BITMAP
3F80
3F80
3000
3000
7000
7E00
7F00
4300
0180
0180
0180
C380
FF00
7E00
ENDCHAR
STARTCHAR six
ENCODING 54
SWIDTH 470 0
DWIDTH 11 0
BBX 11 15 0 0
BITMAP
0200
0700
0E00
1C00
3C00
3F00
7FC0
71C0
E0E0
C060
C060
C060
F1C0
7FC0
1F00
ENDCHAR
STARTCHAR seven
ENCODING 55
SWIDTH 470 0
DWIDTH 11 0
BBX 10 14 0 0
BITMAP
FFC0
FFC0
0180
0380
0300
0700
0E00
0C00
1C00
1800
3800
3000
7000
2000
ENDCHAR
STARTCHAR eight
ENCODING 56
SWIDTH 470 0
DWIDTH 11 0
BBX 9 15 1 0
BITMAP
3C00
7F00
E380
C180
C180
E380
7F00
7F00
E380
C180
C180
C180
E380
7F00
3E00
ENDCHAR
STARTCHAR nine
ENCODING 57
SWIDTH 470 0
DWIDTH 11 0
BBX 10 15 1 0
BITMAP
1E00
7F80
6180
E0C0
C0C0
C0C0
C0C0
E1C0
7F80
3F80
0700
0E00
0C00
3C00
0800
ENDCHAR
STARTCHAR colon
ENCODING 58
SWIDTH 261 0
DWIDTH 6 0
BBX 3 9 1 0
BITMAP
E0
E0
E0
00
00
00
E0
E0
E0
ENDCHAR
STARTCHAR semicolon
ENCODING 59
SWIDTH 261 0
DWIDTH 6 0
BBX 4 13 1 -4
BITMAP
70
70
70
00
00
00
00
60
60
60
C0
C0
80
ENDCHAR
STARTCHAR less
ENCODING 60
SWIDTH 530 0
DWIDTH 11 0
BBX 10 9 1 0
BITMAP
00C0
07C0
1F80
FC00
E000
FC00
3F80
07C0
00C0
ENDCHAR
STARTCHAR equal
ENCODING 61
SWIDTH 530 0
DWIDTH 11 0
BBX 11 6 0 2
BITMAP
FFE0
7FE0
0000
0000
FFE0
7FE0
ENDCHAR
STARTCHAR greater
ENCODING 62
SWIDTH 530 0
DWIDTH 11 0
BBX 10 9 0 0
BITMAP
C000
F800
7E00
0FC0
01C0
0FC0
7F00
F800
C000
ENDCHAR
STARTCHAR question
ENCODING 63
SWIDTH 417 0
DWIDTH 9 0
BBX 8 15 1 0
BITMAP
3C
7E
E7
C3
03
03
0E
3E
30
30
00
00
30
70
30
ENDCHAR
STARTCHAR at
ENCODING 64
SWIDTH 865 0
DWIDTH 19 0
BBX 15 15 2 0
BITMAP
03E0
0FF0
3C38
700C
63BE
C7E6
CE66
CC66
CC66
CCEC
67F8
7330
3810
1FF8
07E0
ENDCHAR
STARTCHAR A
ENCODING 65
SWIDTH 678 0
DWIDTH 13 0
BBX 14 15 -1 0
BITMAP
0300
0780
0780
0780
0FC0
0CC0
0CE0
1CE0
1860
3870
3FF0
3FF0
7038
7038
E01C
ENDCHAR
STARTCHAR B
ENCODING 66
SWIDTH 627 0
DWIDTH 11 0
BBX 9 14 1 0
BITMAP
FC00
FE00
C700
C300
C300
C700
FE00
FF00
C380
C180
C180
C380
FF00
FE00
ENDCHAR
STARTCHAR C
ENCODING 67
SWIDTH 627 0
DWIDTH 12 0
BBX 11 15 0 0
BITMAP
0FC0
1FC0
3840
7020
6000
C000
C000
C000
C000
C000
E000
7020
7840
3FC0
0FC0
ENDCHAR
STARTCHAR D
ENCODING 68
SWIDTH 678 0
DWIDTH 12 0
BBX 11 14 1 0
BITMAP
FE00
FF80
C3C0
C0C0
C0E0
C060
C060
C060
C060
C0E0
C0C0
C3C0
FF80
FE00
ENDCHAR
STARTCHAR E
ENCODING 69
SWIDTH 574 0
DWIDTH 9 0
BBX 7 14 1 0
BITMAP
FE
FE
C0
C0
C0
FE
FE
C0
C0
C0
C0
C0
FE
FE
ENDCHAR
STARTCHAR F
ENCODING 70
SWIDTH 522 0
DWIDTH 9 0
BBX 7 14 1 0
BITMAP
FE
FE
C0
C0
C0
FE
FE
C0
C0
C0
C0
C0
C0
C0
ENDCHAR
STARTCHAR G
ENCODING 71
SWIDTH 678 0
DWIDTH 14 0
BBX 14 15 0 0
BITMAP
07C0
1FF0
3878
7038
6000
C000
C000
C0FC
C0FC
C01C
E01C
7038
7878
3FF0
0FC0
ENDCHAR
STARTCHAR H
ENCODING 72
SWIDTH 678 0
DWIDTH 13 0
BBX 11 14 1 0
BITMAP
C060
C060
C060
C060
C060
FFE0
FFE0
C060
C060
C060
C060
C060
C060
C060
ENDCHAR
STARTCHAR I
ENCODING 73
SWIDTH 313 0
DWIDTH 5 0
BBX 2 14 1 0
BITMAP
C0
C0
C0
C0
C0
C0
C0
C0
C0
C0
C0
C0
C0
C0
ENDCHAR
STARTCHAR J
ENCODING 74
SWIDTH 365 0
DWIDTH 8 0
BBX 6 14 0 0
BITMAP
0C
0C
0C
0C
0C
0C
0C
0C
0C
0C
0C
4C
F8
F0
ENDCHAR
STARTCHAR K
ENCODING 75
SWIDTH 678 0
DWIDTH 12 0
BBX 11 14 1 0
BITMAP
C1E0
C3C0
C380
C700
CE00
DC00
F800
FC00
DE00
CF00
C700
C380
C1C0
C1E0
ENDCHAR
STARTCHAR L
ENCODING 76
SWIDTH 574 0
DWIDTH 8 0
BBX 7 14 1 0
BITMAP
C0
C0
C0
C0
C0
C0
C0
C0
C0
C0
C0
C0
FE
FE
ENDCHAR
STARTCHAR M
ENCODING 77
SWIDTH 835 0
DWIDTH 16 0
BBX 16 15 0 0
BITMAP
180C
181C
381C
3C1C
3C3C
363C
366C
366E
736E
73CE
63C6
61C6
6186
6186
E087
ENDCHAR
STARTCHAR N
ENCODING 78
SWIDTH 678 0
DWIDTH 15 0
BBX 12 15 1 0
BITMAP
C030
E030
F030
F030
F830
DC30
CE30
C630
C730
C3B0
C1F0
C0F0
C070
C070
C030
ENDCHAR
STARTCHAR O
ENCODING 79
SWIDTH 678 0
DWIDTH 15 0
BBX 15 15 0 0
BITMAP
07C0
1FF0
3838
701C
600C
C006
C006
C006
C006
C006
E00E
701C
3838
3FF8
0FE0
ENDCHAR
STARTCHAR P
ENCODING 80
SWIDTH 522 0
DWIDTH 10 0
BBX 9 14 1 0
BITMAP
FE00
FF00
C380
C180
C180
C180
C380
FF00
FE00
C000
C000
C000
C000
C000
ENDCHAR
STARTCHAR Q
ENCODING 81
SWIDTH 678 0
DWIDTH 15 0
BBX 15 15 0 0
BITMAP
07C0
1FF0
3838
701C
600C
C006
C006
C006
C006
C1C6
E0EE
707C
383C
3FFC
0FEE
ENDCHAR
STARTCHAR R
ENCODING 82
SWIDTH 627 0
DWIDTH 11 0
BBX 10 14 1 0
BITMAP
FE00
FF00
C380
C180
C180
C180
C780
FF00
DC00
DE00
CF00
C700
C380
C1C0
ENDCHAR
STARTCHAR S
ENCODING 83
SWIDTH 522 0
DWIDTH 10 0
BBX 9 15 1 0
BITMAP
3E00
7F00
E100
C000
C000
E000
7800
3E00
0700
0380
0180
8180
C380
FF00
7E00
ENDCHAR
STARTCHAR T
ENCODING 84
SWIDTH 574 0
DWIDTH 9 0
BBX 8 14 0 0
BITMAP
FF
FF
18
18
18
18
18
18
18
18
18
18
18
18
ENDCHAR
STARTCHAR U
ENCODING 85
SWIDTH 678 0
DWIDTH 13 0
BBX 11 14 1 0
BITMAP
C060
C060
C060
C060
C060
C060
C060
C060
C060
C060
E0E0
E0C0
7FC0
1F00
ENDCHAR
STARTCHAR V
ENCODING 86
SWIDTH 678 0
DWIDTH 12 0
BBX 12 14 0 0
BITMAP
C030
E070
E070
7060
70E0
30C0
39C0
3980
1980
1F80
0F00
0F00
0E00
0600
ENDCHAR
STARTCHAR W
ENCODING 87
SWIDTH 887 0
DWIDTH 19 0
BBX 20 15 -1 0
BITMAP
E06070
606060
7060E0
70F0E0
30F0C0
38F0C0
38B1C0
199980
199980
1D1B80
0F1F00
0F0F00
0F0F00
0E0E00
060600
ENDCHAR
STARTCHAR X
ENCODING 88
SWIDTH 678 0
DWIDTH 12 0
BBX 11 14 1 0
BITMAP
E0E0
71C0
39C0
3B80
1F00
1F00
0E00
0F00
1F00
3B80
3180
71C0
E0E0
E0E0
ENDCHAR
STARTCHAR Y
ENCODING 89
SWIDTH 678 0
DWIDTH 11 0
BBX 10 14 0 0
BITMAP
E1C0
E1C0
7380
3380
3F00
1E00
1E00
0C00
0C00
0C00
0C00
0C00
0C00
0C00
ENDCHAR
STARTCHAR Z
ENCODING 90
SWIDTH 574 0
DWIDTH 11 0
BBX 10 14 1 0
BITMAP
FF80
FF80
0300
0700
0600
0E00
1C00
1C00
3800
3800
7000
6000
FFC0
FFC0
ENDCHAR
STARTCHAR bracketleft
ENCODING 91
SWIDTH 313 0
DWIDTH 6 0
BBX 4 18 1 -2
BITMAP
F0
F0
C0
C0
C0
C0
C0
C0
C0
C0
C0
C0
C0
C0
C0
C0
F0
F0
ENDCHAR
STARTCHAR backslash
ENCODING 92
SWIDTH 261 0
DWIDTH 10 0
BBX 9 16 0 0
BITMAP
E000
6000
7000
3000
3800
1800
1800
0C00
0C00
0600
0600
0700
0300
0380
0180
0180
ENDCHAR
STARTCHAR bracketright
ENCODING 93
SWIDTH 313 0
DWIDTH 6 0
BBX 4 18 1 -2
BITMAP
F0
F0
30
30
30
30
30
30
30
30
30
30
30
30
30
30
F0
F0
ENDCHAR
STARTCHAR asciicircum
ENCODING 94
SWIDTH 441 0
DWIDTH 11 0
BBX 9 8 1 6
BITMAP
1C00
1C00
3E00
3600
7700
6300
E380
C180
ENDCHAR
STARTCHAR underscore
ENCODING 95
SWIDTH 470 0
DWIDTH 10 0
BBX 10 2 0 -4
BITMAP
FFC0
FFC0
ENDCHAR
STARTCHAR grave
ENCODING 96
SWIDTH 313 0
DWIDTH 7 0
BBX 3 4 2 11
BITMAP
40
C0
60
20
ENDCHAR
STARTCHAR a
ENCODING 97
SWIDTH 417 0
DWIDTH 11 0
BBX 10 9 0 0
BITMAP
3EC0
7FC0
E1C0
C0C0
C0C0
C0C0
E1C0
7FC0
3EC0
ENDCHAR
STARTCHAR b
ENCODING 98
SWIDTH 470 0
DWIDTH 11 0
BBX 10 16 1 0
BITMAP
C000
C000
C000
C000
C000
C000
C000
DF00
FF80
E180
C0C0
C0C0
C0C0
E1C0
FF80
DF00
ENDCHAR
STARTCHAR c
ENCODING 99
SWIDTH 417 0
DWIDTH 8 0
BBX 8 9 0 0
BITMAP
1E
7E
61
C0
C0
C0
E1
7E
3E
ENDCHAR
STARTCHAR d
ENCODING 100
SWIDTH 470 0
DWIDTH 11 0
BBX 10 16 0 0
BITMAP
00C0
00C0
00C0
00C0
00C0
00C0
00C0
3EC0
7FC0
E1C0
C0C0
C0C0
C0C0
E1C0
7FC0
3EC0
ENDCHAR
STARTCHAR e
ENCODING 101
SWIDTH 417 0
DWIDTH 10 0
BBX 9 9 0 0
BITMAP
3C00
7F00
E380
FF80
C000
C100
E380
7F00
3E00
ENDCHAR
STARTCHAR f
ENCODING 102
SWIDTH 313 0
DWIDTH 6 0
BBX 6 16 0 0
BITMAP
3C
3C
70
60
60
60
60
FC
FC
60
60
60
60
60
60
60
ENDCHAR
STARTCHAR g
ENCODING 103
SWIDTH 446 0
DWIDTH 11 0
BBX 10 13 0 -4
BITMAP
1EC0
7FC0
71C0
C0C0
C0C0
C0C0
E1C0
7FC0
3EC0
00C0
E1C0
7F80
3F00
ENDCHAR
STARTCHAR h
ENCODING 104
SWIDTH 470 0
DWIDTH 10 0
BBX 8 16 1 0
BITMAP
C0
C0
C0
C0
C0
C0
C0
DC
FE
E7
C3
C3
C3
C3
C3
C3
ENDCHAR
STARTCHAR i
ENCODING 105
SWIDTH 261 0
DWIDTH 5 0
BBX 2 15 1 0
BITMAP
C0
C0
C0
00
00
00
C0
C0
C0
C0
C0
C0
C0
C0
C0
ENDCHAR
STARTCHAR j
ENCODING 106
SWIDTH 261 0
DWIDTH 5 0
BBX 2 19 1 -4
BITMAP
C0
C0
C0
00
00
00
C0
C0
C0
C0
C0
C0
C0
C0
C0
C0
C0
C0
C0
ENDCHAR
STARTCHAR k
ENCODING 107
SWIDTH 470 0
DWIDTH 10 0
BBX 9 16 1 0
BITMAP
C000
C000
C000
C000
C000
C000
C380
C700
CE00
DC00
F800
FC00
DE00
CE00
C700
C380
ENDCHAR
STARTCHAR l
ENCODING 108
SWIDTH 261 0
DWIDTH 5 0
BBX 2 16 1 0
BITMAP
C0
C0
C0
C0
C0
C0
C0
C0
C0
C0
C0
C0
C0
C0
C0
C0
ENDCHAR
STARTCHAR m
ENCODING 109
SWIDTH 731 0
DWIDTH 16 0
BBX 13 9 1 0
BITMAP
DE70
FFF0
E7B8
C318
C318
C318
C318
C318
C318
ENDCHAR
STARTCHAR n
ENCODING 110
SWIDTH 470 0
DWIDTH 10 0
BBX 8 9 1 0
BITMAP
DE
FE
E7
C3
C3
C3
C3
C3
C3
ENDCHAR
STARTCHAR o
ENCODING 111
SWIDTH 470 0
DWIDTH 11 0
BBX 10 9 0 0
BITMAP
1E00
7F80
E180
C0C0
C0C0
C0C0
E1C0
7F80
3F00
ENDCHAR
STARTCHAR p
ENCODING 112
SWIDTH 470 0
DWIDTH 11 0
BBX 10 13 1 -4
BITMAP
DF00
FF80
E180
C0C0
C0C0
C0C0
E1C0
FF80
DF00
C000
C000
C000
C000
ENDCHAR
STARTCHAR q
ENCODING 113
SWIDTH 470 0
DWIDTH 11 0
BBX 10 13 0 -4
BITMAP
3EC0
7FC0
E1C0
C0C0
C0C0
C0C0
E1C0
7FC0
3EC0
00C0
00C0
00C0
00C0
ENDCHAR
STARTCHAR r
ENCODING 114
SWIDTH 313 0
DWIDTH 7 0
BBX 6 9 1 0
BITMAP
DC
FC
E0
C0
C0
C0
C0
C0
C0
ENDCHAR
STARTCHAR s
ENCODING 115
SWIDTH 365 0
DWIDTH 8 0
BBX 6 9 1 0
BITMAP
70
7C
C4
E0
78
0C
8C
F8
70
ENDCHAR
STARTCHAR t
ENCODING 116
SWIDTH 261 0
DWIDTH 5 0
BBX 5 13 1 0
BITMAP
60
60
60
60
F8
F8
60
60
60
60
60
60
60
ENDCHAR
STARTCHAR u
ENCODING 117
SWIDTH 470 0
DWIDTH 10 0
BBX 8 9 1 0
BITMAP
C3
C3
C3
C3
C3
C3
E7
7E
3C
ENDCHAR
STARTCHAR v
ENCODING 118
SWIDTH 470 0
DWIDTH 9 0
BBX 9 9 0 0
BITMAP
C180
E380
6300
7300
3600
3E00
1C00
1C00
0800
ENDCHAR
STARTCHAR w
ENCODING 119
SWIDTH 678 0
DWIDTH 15 0
BBX 16 9 -1 0
BITMAP
E187
6186
718E
33CC
3BDC
1E78
1E78
0C30
0C30
ENDCHAR
STARTCHAR x
ENCODING 120
SWIDTH 470 0
DWIDTH 11 0
BBX 10 9 1 0
BITMAP
F1C0
7380
3F00
1E00
1E00
3F00
3300
7380
E1C0
ENDCHAR
STARTCHAR y
ENCODING 121
SWIDTH 470 0
DWIDTH 10 0
BBX 9 13 1 -4
BITMAP
C180
E380
6300
7700
3600
3E00
1E00
1C00
1C00
3800
3800
3000
7000
ENDCHAR
STARTCHAR z
ENCODING 122
SWIDTH 417 0
DWIDTH 9 0
BBX 8 9 1 0
BITMAP
FF
FE
0E
0C
18
38
70
7F
FF
ENDCHAR
STARTCHAR braceleft
ENCODING 123
SWIDTH 451 0
DWIDTH 8 0
BBX 5 20 1 -4
BITMAP
18
38
30
30
30
30
30
30
30
60
E0
70
30
30
30
30
30
30
38
18
ENDCHAR
STARTCHAR bar
ENCODING 124
SWIDTH 188 0
DWIDTH 10 0
BBX 2 16 4 0
BITMAP
C0
C0
C0
C0
C0
C0
C0
C0
C0
C0
C0
C0
C0
C0
C0
C0
ENDCHAR
STARTCHAR braceright
ENCODING 125
SWIDTH 451 0
DWIDTH 8 0
BBX 5 20 1 -4
BITMAP
C0
E0
60
60
60
60
60
60
70
38
38
70
60
60
60
60
60
60
E0
C0
ENDCHAR
STARTCHAR asciitilde
ENCODING 126
SWIDTH 508 0
DWIDTH 11 0
BBX 10 4 0 3
BITMAP
3880
7FC0
FF80
4700
ENDCHAR
STARTCHAR char007f
ENCODING 127
SWIDTH 500 0
DWIDTH 12 0
BBX 0 0 3 -4
BITMAP
ENDCHAR
STARTCHAR Adieresis
ENCODING 128
SWIDTH 500 0
DWIDTH 12 0
BBX 9 22 2 -4
BITMAP
C000
4000
4000
2000
2000
2000
3000
1000
1000
1800
0800
0800
0C00
0400
0400
0600
0200
0200
0200
0100
0100
0180
ENDCHAR
STARTCHAR Aring
ENCODING 129
SWIDTH 42 0
DWIDTH 1 0
BBX 1 24 0 -4
BITMAP
80
80
80
80
80
80
80
80
80
80
80
80
80
80
80
80
80
80
80
80
80
80
80
80
ENDCHAR
STARTCHAR Ccedilla
ENCODING 130
SWIDTH 1000 0
DWIDTH 24 0
BBX 24 1 0 0
BITMAP
FFFFFF
ENDCHAR
STARTCHAR Eacute
ENCODING 131
SWIDTH 1000 0
DWIDTH 24 0
BBX 24 24 0 -4
BITMAP
FFFFFF
FFFFFF
FFFFFF
FFFFFF
FFFFFF
FFFFFF
FFFFFF
FFFFFF
FFFFFF
FFFFFF
FFFFFF
FFFFFF
FFFFFF
FFFFFF
FFFFFF
FFFFFF
FFFFFF
FFFFFF
FFFFFF
FFFFFF
FFFFFF
FFFFFF
FFFFFF
FFFFFF
ENDCHAR
STARTCHAR Ntilde
ENCODING 132
SWIDTH 1000 0
DWIDTH 24 0
BBX 24 24 0 -4
BITMAP
FFFFFF
FFFFFF
FFFFFF
FFFFFF
FFFFFF
FFFFFF
FFFFFF
FFFFFF
FFFFFF
FFFFFF
FFFFFF
FFFFFF
FFFFFF
FFFFFF
FFFFFF
FFFFFF
FFFFFF
FFFFFF
FFFFFF
FFFFFF
FFFFFF
FFFFFF
FFFFFF
FFFFFF
ENDCHAR
STARTCHAR Odieresis
ENCODING 133
SWIDTH 1000 0
DWIDTH 24 0
BBX 24 24 0 -4
BITMAP
FFFFFF
FFFFFF
FFFFFF
FFFFFF
FFFFFF
FFFFFF
FFFFFF
FFFFFF
FFFFFF
FFFFFF
FFFFFF
FFFFFF
FFFFFF
FFFFFF
FFFFFF
FFFFFF
FFFFFF
FFFFFF
FFFFFF
FFFFFF
FFFFFF
FFFFFF
FFFFFF
FFFFFF
ENDCHAR
STARTCHAR Udieresis
ENCODING 134
SWIDTH 1000 0
DWIDTH 24 0
BBX 24 24 0 -4
BITMAP
FFFFFF
FFFFFF
FFFFFF
FFFFFF
FFFFFF
FFFFFF
FFFFFF
FFFFFF
FFFFFF
FFFFFF
FFFFFF
FFFFFF
FFFFFF
FFFFFF
FFFFFF
FFFFFF
FFFFFF
FFFFFF
FFFFFF
FFFFFF
FFFFFF
FFFFFF
FFFFFF
FFFFFF
ENDCHAR
STARTCHAR aacute
ENCODING 135
SWIDTH 1000 0
DWIDTH 24 0
BBX 24 24 0 -4
BITMAP
FFFFFF
FFFFFF
FFFFFF
FFFFFF
FFFFFF
FFFFFF
FFFFFF
FFFFFF
FFFFFF
FFFFFF
FFFFFF
FFFFFF
FFFFFF
FFFFFF
FFFFFF
FFFFFF
FFFFFF
FFFFFF
FFFFFF
FFFFFF
FFFFFF
FFFFFF
FFFFFF
FFFFFF
ENDCHAR
STARTCHAR agrave
ENCODING 136
SWIDTH 1000 0
DWIDTH 24 0
BBX 24 24 0 -4
BITMAP
FFFFFF
FFFFFF
FFFFFF
FFFFFF
FFFFFF
FFFFFF
FFFFFF
FFFFFF
FFFFFF
FFFFFF
FFFFFF
FFFFFF
FFFFFF
FFFFFF
FFFFFF
FFFFFF
FFFFFF
FFFFFF
FFFFFF
FFFFFF
FFFFFF
FFFFFF
FFFFFF
FFFFFF
ENDCHAR
STARTCHAR acircumflex
ENCODING 137
SWIDTH 1000 0
DWIDTH 24 0
BBX 24 24 0 -4
BITMAP
FFFFFF
FFFFFF
FFFFFF
FFFFFF
FFFFFF
FFFFFF
FFFFFF
FFFFFF
FFFFFF
FFFFFF
FFFFFF
FFFFFF
FFFFFF
FFFFFF
FFFFFF
FFFFFF
FFFFFF
FFFFFF
FFFFFF
FFFFFF
FFFFFF
FFFFFF
FFFFFF
FFFFFF
ENDCHAR
STARTCHAR adieresis
ENCODING 138
SWIDTH 1000 0
DWIDTH 24 0
BBX 24 24 0 -4
BITMAP
FFFFFF
FFFFFF
FFFFFF
FFFFFF
FFFFFF
FFFFFF
FFFFFF
FFFFFF
FFFFFF
FFFFFF
FFFFFF
FFFFFF
FFFFFF
FFFFFF
FFFFFF
FFFFFF
FFFFFF
FFFFFF
FFFFFF
FFFFFF
FFFFFF
FFFFFF
FFFFFF
FFFFFF
ENDCHAR
STARTCHAR atilde
ENCODING 139
SWIDTH 1000 0
DWIDTH 24 0
BBX 24 24 0 -4
BITMAP
FFFFFF
FFFFFF
FFFFFF
FFFFFF
FFFFFF
FFFFFF
FFFFFF
FFFFFF
FFFFFF
FFFFFF
FFFFFF
FFFFFF
FFFFFF
FFFFFF
FFFFFF
FFFFFF
FFFFFF
FFFFFF
FFFFFF
FFFFFF
FFFFFF
FFFFFF
FFFFFF
FFFFFF
ENDCHAR
STARTCHAR aring
ENCODING 140
SWIDTH 1000 0
DWIDTH 24 0
BBX 24 24 0 -4
BITMAP
FFFFFF
FFFFFF
FFFFFF
FFFFFF
FFFFFF
FFFFFF
FFFFFF
FFFFFF
FFFFFF
FFFFFF
FFFFFF
FFFFFF
FFFFFF
FFFFFF
FFFFFF
FFFFFF
FFFFFF
FFFFFF
FFFFFF
FFFFFF
FFFFFF
FFFFFF
FFFFFF
FFFFFF
ENDCHAR
STARTCHAR ccedilla
ENCODING 141
SWIDTH 1000 0
DWIDTH 24 0
BBX 24 24 0 -4
BITMAP
FFFFFF
FFFFFF
FFFFFF
FFFFFF
FFFFFF
FFFFFF
FFFFFF
FFFFFF
FFFFFF
FFFFFF
FFFFFF
FFFFFF
FFFFFF
FFFFFF
FFFFFF
FFFFFF
FFFFFF
FFFFFF
FFFFFF
FFFFFF
FFFFFF
FFFFFF
FFFFFF
FFFFFF
ENDCHAR
STARTCHAR eacute
ENCODING 142
SWIDTH 1000 0
DWIDTH 24 0
BBX 24 24 0 -4
BITMAP
FFFFFF
FFFFFF
FFFFFF
FFFFFF
FFFFFF
FFFFFF
FFFFFF
FFFFFF
FFFFFF
FFFFFF
FFFFFF
FFFFFF
FFFFFF
FFFFFF
FFFFFF
FFFFFF
FFFFFF
FFFFFF
FFFFFF
FFFFFF
FFFFFF
FFFFFF
FFFFFF
FFFFFF
ENDCHAR
STARTCHAR egrave
ENCODING 143
SWIDTH 1000 0
DWIDTH 24 0
BBX 24 24 0 -4
BITMAP
FFFFFF
FFFFFF
FFFFFF
FFFFFF
FFFFFF
FFFFFF
FFFFFF
FFFFFF
FFFFFF
FFFFFF
FFFFFF
FFFFFF
FFFFFF
FFFFFF
FFFFFF
FFFFFF
FFFFFF
FFFFFF
FFFFFF
FFFFFF
FFFFFF
FFFFFF
FFFFFF
FFFFFF
ENDCHAR
STARTCHAR ecircumflex
ENCODING 144
SWIDTH 1000 0
DWIDTH 24 0
BBX 24 24 0 -4
BITMAP
FFFFFF
FFFFFF
FFFFFF
FFFFFF
FFFFFF
FFFFFF
FFFFFF
FFFFFF
FFFFFF
FFFFFF
FFFFFF
FFFFFF
FFFFFF
FFFFFF
FFFFFF
FFFFFF
FFFFFF
FFFFFF
FFFFFF
FFFFFF
FFFFFF
FFFFFF
FFFFFF
FFFFFF
ENDCHAR
STARTCHAR edieresis
ENCODING 145
SWIDTH 1000 0
DWIDTH 24 0
BBX 24 24 0 -4
BITMAP
FFFFFF
FFFFFF
FFFFFF
FFFFFF
FFFFFF
FFFFFF
FFFFFF
FFFFFF
FFFFFF
FFFFFF
FFFFFF
FFFFFF
FFFFFF
FFFFFF
FFFFFF
FFFFFF
FFFFFF
FFFFFF
FFFFFF
FFFFFF
FFFFFF
FFFFFF
FFFFFF
FFFFFF
ENDCHAR
STARTCHAR iacute
ENCODING 146
SWIDTH 1000 0
DWIDTH 24 0
BBX 24 24 0 -4
BITMAP
FFFFFF
FFFFFF
FFFFFF
FFFFFF
FFFFFF
FFFFFF
FFFFFF
FFFFFF
FFFFFF
FFFFFF
FFFFFF
FFFFFF
FFFFFF
FFFFFF
FFFFFF
FFFFFF
FFFFFF
FFFFFF
FFFFFF
FFFFFF
FFFFFF
FFFFFF
FFFFFF
FFFFFF
ENDCHAR
STARTCHAR igrave
ENCODING 147
SWIDTH 1000 0
DWIDTH 24 0
BBX 24 24 0 -4
BITMAP
FFFFFF
FFFFFF
FFFFFF
FFFFFF
FFFFFF
FFFFFF
FFFFFF
FFFFFF
FFFFFF
FFFFFF
FFFFFF
FFFFFF
FFFFFF
FFFFFF
FFFFFF
FFFFFF
FFFFFF
FFFFFF
FFFFFF
FFFFFF
FFFFFF
FFFFFF
FFFFFF
FFFFFF
ENDCHAR
STARTCHAR icircumflex
ENCODING 148
SWIDTH 1000 0
DWIDTH 24 0
BBX 24 24 0 -4
BITMAP
FFFFFF
FFFFFF
FFFFFF
FFFFFF
FFFFFF
FFFFFF
FFFFFF
FFFFFF
FFFFFF
FFFFFF
FFFFFF
FFFFFF
FFFFFF
FFFFFF
FFFFFF
FFFFFF
FFFFFF
FFFFFF
FFFFFF
FFFFFF
FFFFFF
FFFFFF
FFFFFF
FFFFFF
ENDCHAR
STARTCHAR idieresis
ENCODING 149
SWIDTH 1000 0
DWIDTH 24 0
BBX 24 24 0 -4
BITMAP
FFFFFF
FFFFFF
FFFFFF
FFFFFF
FFFFFF
FFFFFF
FFFFFF
FFFFFF
FFFFFF
FFFFFF
FFFFFF
FFFFFF
FFFFFF
FFFFFF
FFFFFF
FFFFFF
FFFFFF
FFFFFF
FFFFFF
FFFFFF
FFFFFF
FFFFFF
FFFFFF
FFFFFF
ENDCHAR
STARTCHAR ntilde
ENCODING 150
SWIDTH 1000 0
DWIDTH 24 0
BBX 24 24 0 -4
BITMAP
FFFFFF
FFFFFF
FFFFFF
FFFFFF
FFFFFF
FFFFFF
FFFFFF
FFFFFF
FFFFFF
FFFFFF
FFFFFF
FFFFFF
FFFFFF
FFFFFF
FFFFFF
FFFFFF
FFFFFF
FFFFFF
FFFFFF
FFFFFF
FFFFFF
FFFFFF
FFFFFF
FFFFFF
ENDCHAR
STARTCHAR oacute
ENCODING 151
SWIDTH 1000 0
DWIDTH 24 0
BBX 24 24 0 -4
BITMAP
FFFFFF
FFFFFF
FFFFFF
FFFFFF
FFFFFF
FFFFFF
FFFFFF
FFFFFF
FFFFFF
FFFFFF
FFFFFF
FFFFFF
FFFFFF
FFFFFF
FFFFFF
FFFFFF
FFFFFF
FFFFFF
FFFFFF
FFFFFF
FFFFFF
FFFFFF
FFFFFF
FFFFFF
ENDCHAR
STARTCHAR ograve
ENCODING 152
SWIDTH 1000 0
DWIDTH 24 0
BBX 24 24 0 -4
BITMAP
FFFFFF
FFFFFF
FFFFFF
FFFFFF
FFFFFF
FFFFFF
FFFFFF
FFFFFF
FFFFFF
FFFFFF
FFFFFF
FFFFFF
FFFFFF
FFFFFF
FFFFFF
FFFFFF
FFFFFF
FFFFFF
FFFFFF
FFFFFF
FFFFFF
FFFFFF
FFFFFF
FFFFFF
ENDCHAR
STARTCHAR ocircumflex
ENCODING 153
SWIDTH 1000 0
DWIDTH 24 0
BBX 24 24 0 -4
BITMAP
FFFFFF
FFFFFF
FFFFFF
FFFFFF
FFFFFF
FFFFFF
FFFFFF
FFFFFF
FFFFFF
FFFFFF
FFFFFF
FFFFFF
FFFFFF
FFFFFF
FFFFFF
FFFFFF
FFFFFF
FFFFFF
FFFFFF
FFFFFF
FFFFFF
FFFFFF
FFFFFF
FFFFFF
ENDCHAR
STARTCHAR odieresis
ENCODING 154
SWIDTH 1000 0
DWIDTH 24 0
BBX 24 24 0 -4
BITMAP
FFFFFF
FFFFFF
FFFFFF
FFFFFF
FFFFFF
FFFFFF
FFFFFF
FFFFFF
FFFFFF
FFFFFF
FFFFFF
FFFFFF
FFFFFF
FFFFFF
FFFFFF
FFFFFF
FFFFFF
FFFFFF
FFFFFF
FFFFFF
FFFFFF
FFFFFF
FFFFFF
FFFFFF
ENDCHAR
STARTCHAR otilde
ENCODING 155
SWIDTH 1000 0
DWIDTH 24 0
BBX 24 24 0 -4
BITMAP
FFFFFF
FFFFFF
FFFFFF
FFFFFF
FFFFFF
FFFFFF
FFFFFF
FFFFFF
FFFFFF
FFFFFF
FFFFFF
FFFFFF
FFFFFF
FFFFFF
FFFFFF
FFFFFF
FFFFFF
FFFFFF
FFFFFF
FFFFFF
FFFFFF
FFFFFF
FFFFFF
FFFFFF
ENDCHAR
STARTCHAR uacute
ENCODING 156
SWIDTH 1000 0
DWIDTH 24 0
BBX 24 24 0 -4
BITMAP
FFFFFF
FFFFFF
FFFFFF
FFFFFF
FFFFFF
FFFFFF
FFFFFF
FFFFFF
FFFFFF
FFFFFF
FFFFFF
FFFFFF
FFFFFF
FFFFFF
FFFFFF
FFFFFF
FFFFFF
FFFFFF
FFFFFF
FFFFFF
FFFFFF
FFFFFF
FFFFFF
FFFFFF
ENDCHAR
STARTCHAR ugrave
ENCODING 157
SWIDTH 1000 0
DWIDTH 24 0
BBX 24 24 0 -4
BITMAP
FFFFFF
FFFFFF
FFFFFF
FFFFFF
FFFFFF
FFFFFF
FFFFFF
FFFFFF
FFFFFF
FFFFFF
FFFFFF
FFFFFF
FFFFFF
FFFFFF
FFFFFF
FFFFFF
FFFFFF
FFFFFF
FFFFFF
FFFFFF
FFFFFF
FFFFFF
FFFFFF
FFFFFF
ENDCHAR
STARTCHAR ucircumflex
ENCODING 158
SWIDTH 1000 0
DWIDTH 24 0
BBX 24 24 0 -4
BITMAP
FFFFFF
FFFFFF
FFFFFF
FFFFFF
FFFFFF
FFFFFF
FFFFFF
FFFFFF
FFFFFF
FFFFFF
FFFFFF
FFFFFF
FFFFFF
FFFFFF
FFFFFF
FFFFFF
FFFFFF
FFFFFF
FFFFFF
FFFFFF
FFFFFF
FFFFFF
FFFFFF
FFFFFF
ENDCHAR
STARTCHAR udieresis
ENCODING 159
SWIDTH 1000 0
DWIDTH 24 0
BBX 24 24 0 -4
BITMAP
FFFFFF
FFFFFF
FFFFFF
FFFFFF
FFFFFF
FFFFFF
FFFFFF
FFFFFF
FFFFFF
FFFFFF
FFFFFF
FFFFFF
FFFFFF
FFFFFF
FFFFFF
FFFFFF
FFFFFF
FFFFFF
FFFFFF
FFFFFF
FFFFFF
FFFFFF
FFFFFF
FFFFFF
ENDCHAR
STARTCHAR dagger
ENCODING 160
SWIDTH 500 0
DWIDTH 12 0
BBX 0 0 3 -4
BITMAP
ENDCHAR
STARTCHAR degree
ENCODING 161
SWIDTH 500 0
DWIDTH 12 0
BBX 0 0 3 -4
BITMAP
ENDCHAR
STARTCHAR cent
ENCODING 162
SWIDTH 500 0
DWIDTH 12 0
BBX 0 0 3 -4
BITMAP
ENDCHAR
STARTCHAR sterling
ENCODING 163
SWIDTH 500 0
DWIDTH 12 0
BBX 0 0 3 -4
BITMAP
ENDCHAR
STARTCHAR section
ENCODING 164
SWIDTH 500 0
DWIDTH 12 0
BBX 0 0 3 -4
BITMAP
ENDCHAR
STARTCHAR bullet
ENCODING 165
SWIDTH 500 0
DWIDTH 12 0
BBX 0 0 3 -4
BITMAP
ENDCHAR
STARTCHAR paragraph
ENCODING 166
SWIDTH 500 0
DWIDTH 12 0
BBX 0 0 3 -4
BITMAP
ENDCHAR
STARTCHAR germandbls
ENCODING 167
SWIDTH 500 0
DWIDTH 12 0
BBX 0 0 3 -4
BITMAP
ENDCHAR
STARTCHAR registered
ENCODING 168
SWIDTH 500 0
DWIDTH 12 0
BBX 0 0 3 -4
BITMAP
ENDCHAR
STARTCHAR copyright
ENCODING 169
SWIDTH 500 0
DWIDTH 12 0
BBX 0 0 3 -4
BITMAP
ENDCHAR
STARTCHAR trademark
ENCODING 170
SWIDTH 500 0
DWIDTH 12 0
BBX 0 0 3 -4
BITMAP
ENDCHAR
STARTCHAR acute
ENCODING 171
SWIDTH 500 0
DWIDTH 12 0
BBX 0 0 3 -4
BITMAP
ENDCHAR
STARTCHAR dieresis
ENCODING 172
SWIDTH 500 0
DWIDTH 12 0
BBX 0 0 3 -4
BITMAP
ENDCHAR
STARTCHAR notequal
ENCODING 173
SWIDTH 500 0
DWIDTH 12 0
BBX 0 0 3 -4
BITMAP
ENDCHAR
STARTCHAR AE
ENCODING 174
SWIDTH 500 0
DWIDTH 12 0
BBX 0 0 3 -4
BITMAP
ENDCHAR
STARTCHAR Oslash
ENCODING 175
SWIDTH 500 0
DWIDTH 12 0
BBX 0 0 3 -4
BITMAP
ENDCHAR
STARTCHAR infinity
ENCODING 176
SWIDTH 500 0
DWIDTH 12 0
BBX 0 0 3 -4
BITMAP
ENDCHAR
STARTCHAR plusminus
ENCODING 177
SWIDTH 500 0
DWIDTH 12 0
BBX 0 0 3 -4
BITMAP
ENDCHAR
STARTCHAR lessequal
ENCODING 178
SWIDTH 500 0
DWIDTH 12 0
BBX 0 0 3 -4
BITMAP
ENDCHAR
STARTCHAR greaterequal
ENCODING 179
SWIDTH 500 0
DWIDTH 12 0
BBX 0 0 3 -4
BITMAP
ENDCHAR
STARTCHAR yen
ENCODING 180
SWIDTH 500 0
DWIDTH 12 0
BBX 0 0 3 -4
BITMAP
ENDCHAR
STARTCHAR mu
ENCODING 181
SWIDTH 500 0
DWIDTH 12 0
BBX 0 0 3 -4
BITMAP
ENDCHAR
STARTCHAR partialdiff
ENCODING 182
SWIDTH 500 0
DWIDTH 12 0
BBX 0 0 3 -4
BITMAP
ENDCHAR
STARTCHAR summation
ENCODING 183
SWIDTH 500 0
DWIDTH 12 0
BBX 0 0 3 -4
BITMAP
ENDCHAR
STARTCHAR product
ENCODING 184
SWIDTH 500 0
DWIDTH 12 0
BBX 0 0 3 -4
BITMAP
ENDCHAR
STARTCHAR pi
ENCODING 185
SWIDTH 500 0
DWIDTH 12 0
BBX 0 0 3 -4
BITMAP
ENDCHAR
STARTCHAR integral
ENCODING 186
SWIDTH 500 0
DWIDTH 12 0
BBX 0 0 3 -4
BITMAP
ENDCHAR
STARTCHAR ordfeminine
ENCODING 187
SWIDTH 500 0
DWIDTH 12 0
BBX 0 0 3 -4
BITMAP
ENDCHAR
STARTCHAR ordmasculine
ENCODING 188
SWIDTH 500 0
DWIDTH 12 0
BBX 0 0 3 -4
BITMAP
ENDCHAR
STARTCHAR Omega
ENCODING 189
SWIDTH 500 0
DWIDTH 12 0
BBX 0 0 3 -4
BITMAP
ENDCHAR
STARTCHAR ae
ENCODING 190
SWIDTH 500 0
DWIDTH 12 0
BBX 0 0 3 -4
BITMAP
ENDCHAR
STARTCHAR oslash
ENCODING 191
SWIDTH 500 0
DWIDTH 12 0
BBX 0 0 3 -4
BITMAP
ENDCHAR
STARTCHAR questiondown
ENCODING 192
SWIDTH 500 0
DWIDTH 12 0
BBX 0 0 3 -4
BITMAP
ENDCHAR
STARTCHAR exclamdown
ENCODING 193
SWIDTH 500 0
DWIDTH 12 0
BBX 0 0 3 -4
BITMAP
ENDCHAR
STARTCHAR logicalnot
ENCODING 194
SWIDTH 500 0
DWIDTH 12 0
BBX 0 0 3 -4
BITMAP
ENDCHAR
STARTCHAR radical
ENCODING 195
SWIDTH 500 0
DWIDTH 12 0
BBX 0 0 3 -4
BITMAP
ENDCHAR
STARTCHAR florin
ENCODING 196
SWIDTH 500 0
DWIDTH 12 0
BBX 0 0 3 -4
BITMAP
ENDCHAR
STARTCHAR approxequal
ENCODING 197
SWIDTH 500 0
DWIDTH 12 0
BBX 0 0 3 -4
BITMAP
ENDCHAR
STARTCHAR Delta
ENCODING 198
SWIDTH 500 0
DWIDTH 12 0
BBX 0 0 3 -4
BITMAP
ENDCHAR
STARTCHAR guillemotleft
ENCODING 199
SWIDTH 500 0
DWIDTH 12 0
BBX 0 0 3 -4
BITMAP
ENDCHAR
STARTCHAR guillemotright
ENCODING 200
SWIDTH 500 0
DWIDTH 12 0
BBX 0 0 3 -4
BITMAP
ENDCHAR
STARTCHAR ellipsis
ENCODING 201
SWIDTH 500 0
DWIDTH 12 0
BBX 0 0 3 -4
BITMAP
ENDCHAR
STARTCHAR nbspace
ENCODING 202
SWIDTH 500 0
DWIDTH 12 0
BBX 0 0 3 -4
BITMAP
ENDCHAR
STARTCHAR Agrave
ENCODING 203
SWIDTH 500 0
DWIDTH 12 0
BBX 0 0 3 -4
BITMAP
ENDCHAR
STARTCHAR Atilde
ENCODING 204
SWIDTH 500 0
DWIDTH 12 0
BBX 0 0 3 -4
BITMAP
ENDCHAR
STARTCHAR Otilde
ENCODING 205
SWIDTH 500 0
DWIDTH 12 0
BBX 0 0 3 -4
BITMAP
ENDCHAR
STARTCHAR OE
ENCODING 206
SWIDTH 500 0
DWIDTH 12 0
BBX 0 0 3 -4
BITMAP
ENDCHAR
STARTCHAR oe
ENCODING 207
SWIDTH 500 0
DWIDTH 12 0
BBX 0 0 3 -4
BITMAP
ENDCHAR
STARTCHAR endash
ENCODING 208
SWIDTH 500 0
DWIDTH 12 0
BBX 0 0 3 -4
BITMAP
ENDCHAR
STARTCHAR emdash
ENCODING 209
SWIDTH 500 0
DWIDTH 12 0
BBX 0 0 3 -4
BITMAP
ENDCHAR
STARTCHAR quotedblleft
ENCODING 210
SWIDTH 500 0
DWIDTH 12 0
BBX 0 0 3 -4
BITMAP
ENDCHAR
STARTCHAR quotedblright
ENCODING 211
SWIDTH 500 0
DWIDTH 12 0
BBX 0 0 3 -4
BITMAP
ENDCHAR
STARTCHAR quoteleft
ENCODING 212
SWIDTH 500 0
DWIDTH 12 0
BBX 0 0 3 -4
BITMAP
ENDCHAR
STARTCHAR quoteright
ENCODING 213
SWIDTH 500 0
DWIDTH 12 0
BBX 0 0 3 -4
BITMAP
ENDCHAR
STARTCHAR divide
ENCODING 214
SWIDTH 500 0
DWIDTH 12 0
BBX 0 0 3 -4
BITMAP
ENDCHAR
STARTCHAR lozenge
ENCODING 215
SWIDTH 500 0
DWIDTH 12 0
BBX 0 0 3 -4
BITMAP
ENDCHAR
STARTCHAR ydieresis
ENCODING 216
SWIDTH 500 0
DWIDTH 12 0
BBX 0 0 3 -4
BITMAP
ENDCHAR
STARTCHAR Ydieresis
ENCODING 217
SWIDTH 500 0
DWIDTH 12 0
BBX 0 0 3 -4
BITMAP
ENDCHAR
STARTCHAR fraction
ENCODING 218
SWIDTH 500 0
DWIDTH 12 0
BBX 0 0 3 -4
BITMAP
ENDCHAR
STARTCHAR currency
ENCODING 219
SWIDTH 500 0
DWIDTH 12 0
BBX 0 0 3 -4
BITMAP
ENDCHAR
STARTCHAR guilsinglleft
ENCODING 220
SWIDTH 500 0
DWIDTH 12 0
BBX 0 0 3 -4
BITMAP
ENDCHAR
STARTCHAR guilsinglright
ENCODING 221
SWIDTH 500 0
DWIDTH 12 0
BBX 0 0 3 -4
BITMAP
ENDCHAR
STARTCHAR fi
ENCODING 222
SWIDTH 500 0
DWIDTH 12 0
BBX 0 0 3 -4
BITMAP
ENDCHAR
STARTCHAR fl
ENCODING 223
SWIDTH 500 0
DWIDTH 12 0
BBX 0 0 3 -4
BITMAP
ENDCHAR
STARTCHAR daggerdbl
ENCODING 224
SWIDTH 500 0
DWIDTH 12 0
BBX 0 0 3 -4
BITMAP
ENDCHAR
STARTCHAR periodcentered
ENCODING 225
SWIDTH 500 0
DWIDTH 12 0
BBX 0 0 3 -4
BITMAP
ENDCHAR
STARTCHAR quotesinglbase
ENCODING 226
SWIDTH 500 0
DWIDTH 12 0
BBX 0 0 3 -4
BITMAP
ENDCHAR
STARTCHAR quotedblbase
ENCODING 227
SWIDTH 500 0
DWIDTH 12 0
BBX 0 0 3 -4
BITMAP
ENDCHAR
STARTCHAR perthousand
ENCODING 228
SWIDTH 500 0
DWIDTH 12 0
BBX 0 0 3 -4
BITMAP
ENDCHAR
STARTCHAR Acircumflex
ENCODING 229
SWIDTH 500 0
DWIDTH 12 0
BBX 0 0 3 -4
BITMAP
ENDCHAR
STARTCHAR Ecircumflex
ENCODING 230
SWIDTH 500 0
DWIDTH 12 0
BBX 0 0 3 -4
BITMAP
ENDCHAR
STARTCHAR Aacute
ENCODING 231
SWIDTH 500 0
DWIDTH 12 0
BBX 0 0 3 -4
BITMAP
ENDCHAR
STARTCHAR Edieresis
ENCODING 232
SWIDTH 500 0
DWIDTH 12 0
BBX 0 0 3 -4
BITMAP
ENDCHAR
STARTCHAR Egrave
ENCODING 233
SWIDTH 500 0
DWIDTH 12 0
BBX 0 0 3 -4
BITMAP
ENDCHAR
STARTCHAR Iacute
ENCODING 234
SWIDTH 500 0
DWIDTH 12 0
BBX 0 0 3 -4
BITMAP
ENDCHAR
STARTCHAR Icircumflex
ENCODING 235
SWIDTH 500 0
DWIDTH 12 0
BBX 0 0 3 -4
BITMAP
ENDCHAR
STARTCHAR Idieresis
ENCODING 236
SWIDTH 500 0
DWIDTH 12 0
BBX 0 0 3 -4
BITMAP
ENDCHAR
STARTCHAR Igrave
ENCODING 237
SWIDTH 500 0
DWIDTH 12 0
BBX 0 0 3 -4
BITMAP
ENDCHAR
STARTCHAR Oacute
ENCODING 238
SWIDTH 500 0
DWIDTH 12 0
BBX 0 0 3 -4
BITMAP
ENDCHAR
STARTCHAR Ocircumflex
ENCODING 239
SWIDTH 500 0
DWIDTH 12 0
BBX 0 0 3 -4
BITMAP
ENDCHAR
STARTCHAR apple
ENCODING 240
SWIDTH 500 0
DWIDTH 12 0
BBX 0 0 3 -4
BITMAP
ENDCHAR
STARTCHAR Ograve
ENCODING 241
SWIDTH 500 0
DWIDTH 12 0
BBX 0 0 3 -4
BITMAP
ENDCHAR
STARTCHAR Uacute
ENCODING 242
SWIDTH 500 0
DWIDTH 12 0
BBX 0 0 3 -4
BITMAP
ENDCHAR
STARTCHAR Ucircumflex
ENCODING 243
SWIDTH 500 0
DWIDTH 12 0
BBX 0 0 3 -4
BITMAP
ENDCHAR
STARTCHAR Ugrave
ENCODING 244
SWIDTH 500 0
DWIDTH 12 0
BBX 0 0 3 -4
BITMAP
ENDCHAR
STARTCHAR dotlessi
ENCODING 245
SWIDTH 500 0
DWIDTH 12 0
BBX 0 0 3 -4
BITMAP
ENDCHAR
STARTCHAR circumflex
ENCODING 246
SWIDTH 500 0
DWIDTH 12 0
BBX 0 0 3 -4
BITMAP
ENDCHAR
STARTCHAR tilde
ENCODING 247
SWIDTH 500 0
DWIDTH 12 0
BBX 0 0 3 -4
BITMAP
ENDCHAR
STARTCHAR macron
ENCODING 248
SWIDTH 500 0
DWIDTH 12 0
BBX 0 0 3 -4
BITMAP
ENDCHAR
STARTCHAR breve
ENCODING 249
SWIDTH 500 0
DWIDTH 12 0
BBX 0 0 3 -4
BITMAP
ENDCHAR
STARTCHAR dotaccent
ENCODING 250
SWIDTH 500 0
DWIDTH 12 0
BBX 0 0 3 -4
BITMAP
ENDCHAR
STARTCHAR ring
ENCODING 251
SWIDTH 500 0
DWIDTH 12 0
BBX 0 0 3 -4
BITMAP
ENDCHAR
STARTCHAR cedilla
ENCODING 252
SWIDTH 500 0
DWIDTH 12 0
BBX 0 0 3 -4
BITMAP
ENDCHAR
STARTCHAR hungarumlaut
ENCODING 253
SWIDTH 714 0
DWIDTH 15 0
BBX 15 15 0 0
BITMAP
07C0
1FE0
3838
7398
6FCC
CC6E
D806
D806
D806
DC66
6FCC
779C
3838
1FF0
0FC0
ENDCHAR
STARTCHAR ogonek
ENCODING 254
SWIDTH 920 0
DWIDTH 19 0
BBX 17 8 1 6
BITMAP
FCE380
FCE380
30F780
30F780
30D580
30DD80
30DD80
30C980
ENDCHAR
STARTCHAR caron
ENCODING 255
SWIDTH 939 0
DWIDTH 19 0
BBX 16 3 2 0
BITMAP
E387
E387
E387
ENDCHAR
ENDFONT
