STARTFONT 2.1
FONT -Fondu-Apple LiSung Light-Medium-R-Normal--24-230-75-75-P-134-MacRoman-1
SIZE 23 75 75
FONTBOUNDINGBOX 24 24 -1 -4
COMMENT Created by Fondu from a mac NFNT/FONT resource
STARTPROPERTIES 17
FOUNDRY "Fondu"
FAMILY_NAME "Apple LiSung Light"
WEIGHT_NAME "Medium"
SLANT "R"
SETWIDTH_NAME "Normal"
ADD_STYLE_NAME ""
PIXEL_SIZE 24
POINT_SIZE 230
RESOLUTION_X 75
RESOLUTION_Y 75
SPACING "P"
AVERAGE_WIDTH 134
CHARSET_REGISTRY "MacRoman"
CHARSET_ENCODING "1"
FONT_ASCENT 20
FONT_DESCENT 4
FACE_NAME "Apple LiSung Light"
ENDPROPERTIES
CHARS 228
STARTCHAR char0011
ENCODING 17
SWIDTH 500 0
DWIDTH 12 0
BBX 12 12 0 0
BITMAP
70E0
8910
8910
8910
7FE0
0900
0900
7FE0
8910
8910
8910
70E0
ENDCHAR
STARTCHAR char0012
ENCODING 18
SWIDTH 500 0
DWIDTH 12 0
BBX 10 22 1 -4
BITMAP
0040
0040
0040
0040
0040
0080
0080
0080
0080
2080
E080
5080
1080
0900
0900
0900
0500
0500
0300
0200
0200
0100
ENDCHAR
STARTCHAR char0013
ENCODING 19
SWIDTH 500 0
DWIDTH 12 0
BBX 9 17 1 -1
BITMAP
0800
1C00
1C00
3E00
3E00
3E00
7F00
7F00
FF80
7F00
7F00
3E00
3E00
3E00
1C00
1C00
0800
ENDCHAR
STARTCHAR char0014
ENCODING 20
SWIDTH 500 0
DWIDTH 12 0
BBX 11 16 0 0
BITMAP
0100
0300
0300
0200
3FC0
7FC0
7F80
FF80
FF80
FF80
FF80
7FE0
7FC0
7FC0
3FC0
1B80
ENDCHAR
STARTCHAR space
ENCODING 32
SWIDTH 500 0
DWIDTH 8 0
BBX 0 0 0 -4
BITMAP
ENDCHAR
STARTCHAR exclam
ENCODING 33
SWIDTH 313 0
DWIDTH 8 0
BBX 3 15 3 0
BITMAP
40
E0
E0
E0
E0
E0
40
40
40
40
40
00
00
E0
E0
ENDCHAR
STARTCHAR quotedbl
ENCODING 34
SWIDTH 383 0
DWIDTH 9 0
BBX 5 6 2 10
BITMAP
D8
D8
D8
D8
98
48
ENDCHAR
STARTCHAR numbersign
ENCODING 35
SWIDTH 470 0
DWIDTH 11 0
BBX 12 15 0 0
BITMAP
0C40
0C40
08C0
08C0
08C0
7FF0
1880
1880
1880
FFE0
1180
1100
1100
3100
3100
ENDCHAR
STARTCHAR dollar
ENCODING 36
SWIDTH 470 0
DWIDTH 11 0
BBX 9 18 1 -2
BITMAP
0800
1C00
6B00
C900
C880
C800
7800
3800
1E00
0F00
0B80
0980
8980
8980
CB00
3E00
0800
0800
ENDCHAR
STARTCHAR percent
ENCODING 37
SWIDTH 782 0
DWIDTH 19 0
BBX 16 15 1 0
BITMAP
1E18
31F0
6110
6120
C140
C240
C280
C48E
7919
0131
0261
0661
0462
0864
0838
ENDCHAR
STARTCHAR ampersand
ENCODING 38
SWIDTH 731 0
DWIDTH 18 0
BBX 16 15 1 0
BITMAP
0380
0640
0C40
0C40
0C80
073E
061C
1A08
3310
6110
41A0
40C0
C0C0
61E3
3E3C
ENDCHAR
STARTCHAR quotesingle
ENCODING 39
SWIDTH 169 0
DWIDTH 4 0
BBX 2 5 1 10
BITMAP
C0
C0
C0
C0
40
ENDCHAR
STARTCHAR parenleft
ENCODING 40
SWIDTH 313 0
DWIDTH 8 0
BBX 6 19 1 -4
BITMAP
04
08
10
20
60
40
C0
C0
C0
C0
C0
C0
C0
40
60
20
10
08
04
ENDCHAR
STARTCHAR parenright
ENCODING 41
SWIDTH 313 0
DWIDTH 8 0
BBX 6 19 0 -4
BITMAP
80
40
20
10
18
08
0C
0C
0C
0C
0C
0C
0C
08
18
10
30
60
C0
ENDCHAR
STARTCHAR asterisk
ENCODING 42
SWIDTH 470 0
DWIDTH 11 0
BBX 7 9 2 6
BITMAP
10
10
96
DE
30
7C
D6
10
10
ENDCHAR
STARTCHAR plus
ENCODING 43
SWIDTH 530 0
DWIDTH 13 0
BBX 12 11 0 0
BITMAP
0200
0200
0200
0200
0200
FFF0
0200
0200
0200
0200
0200
ENDCHAR
STARTCHAR comma
ENCODING 44
SWIDTH 235 0
DWIDTH 6 0
BBX 3 6 1 -4
BITMAP
C0
E0
20
20
40
80
ENDCHAR
STARTCHAR hyphen
ENCODING 45
SWIDTH 313 0
DWIDTH 8 0
BBX 6 1 1 4
BITMAP
FC
ENDCHAR
STARTCHAR period
ENCODING 46
SWIDTH 235 0
DWIDTH 6 0
BBX 3 2 2 0
BITMAP
E0
E0
ENDCHAR
STARTCHAR slash
ENCODING 47
SWIDTH 261 0
DWIDTH 6 0
BBX 7 15 -1 0
BITMAP
06
04
0C
0C
08
08
18
10
10
30
20
20
60
40
C0
ENDCHAR
STARTCHAR zero
ENCODING 48
SWIDTH 470 0
DWIDTH 11 0
BBX 10 15 1 0
BITMAP
1E00
3300
6180
6180
C0C0
C0C0
C0C0
C0C0
C0C0
C0C0
C0C0
6180
6180
3300
1E00
ENDCHAR
STARTCHAR one
ENCODING 49
SWIDTH 470 0
DWIDTH 11 0
BBX 6 15 3 0
BITMAP
10
F0
30
30
30
30
30
30
30
30
30
30
30
30
FC
ENDCHAR
STARTCHAR two
ENCODING 50
SWIDTH 470 0
DWIDTH 11 0
BBX 11 15 1 0
BITMAP
3C00
4700
8380
8180
0180
0180
0100
0300
0600
0400
0800
1000
2060
4040
FF80
ENDCHAR
STARTCHAR three
ENCODING 51
SWIDTH 470 0
DWIDTH 11 0
BBX 9 15 1 0
BITMAP
3C00
4700
C300
8300
0300
0600
0C00
3F00
0380
0180
0080
0080
0100
C600
F800
ENDCHAR
STARTCHAR four
ENCODING 52
SWIDTH 470 0
DWIDTH 11 0
BBX 11 15 0 0
BITMAP
0100
0300
0700
0700
0B00
1300
1300
2300
4300
4300
FFE0
0300
0300
0300
0300
ENDCHAR
STARTCHAR five
ENCODING 53
SWIDTH 470 0
DWIDTH 11 0
BBX 9 15 1 0
BITMAP
1F80
2000
2000
6000
7C00
3F00
0300
0180
0080
0080
0080
0080
0100
C200
FC00
ENDCHAR
STARTCHAR six
ENCODING 54
SWIDTH 470 0
DWIDTH 11 0
BBX 10 15 1 0
BITMAP
0380
0C00
1800
3000
6000
7E00
E380
C180
C0C0
C0C0
C0C0
40C0
6080
3180
1E00
ENDCHAR
STARTCHAR seven
ENCODING 55
SWIDTH 470 0
DWIDTH 11 0
BBX 10 15 0 0
BITMAP
7FC0
4080
C080
0080
0100
0100
0100
0200
0200
0200
0600
0400
0400
0C00
0800
ENDCHAR
STARTCHAR eight
ENCODING 56
SWIDTH 470 0
DWIDTH 11 0
BBX 9 15 1 0
BITMAP
1E00
2100
4080
4080
4080
6100
3E00
0E00
3700
6180
C080
C080
C080
6100
3E00
ENDCHAR
STARTCHAR nine
ENCODING 57
SWIDTH 470 0
DWIDTH 11 0
BBX 9 15 1 0
BITMAP
1C00
2600
4300
C100
C180
C180
C180
C180
6380
3D00
0300
0200
0600
0800
7000
ENDCHAR
STARTCHAR colon
ENCODING 58
SWIDTH 261 0
DWIDTH 6 0
BBX 3 10 2 0
BITMAP
E0
E0
00
00
00
00
00
00
E0
E0
ENDCHAR
STARTCHAR semicolon
ENCODING 59
SWIDTH 261 0
DWIDTH 6 0
BBX 3 14 2 -4
BITMAP
C0
E0
00
00
00
00
00
00
C0
E0
20
20
40
80
ENDCHAR
STARTCHAR less
ENCODING 60
SWIDTH 530 0
DWIDTH 13 0
BBX 12 12 0 0
BITMAP
0010
0070
03C0
0F00
3800
E000
E000
3800
0F00
03C0
00F0
0010
ENDCHAR
STARTCHAR equal
ENCODING 61
SWIDTH 530 0
DWIDTH 13 0
BBX 12 6 0 3
BITMAP
FFF0
0000
0000
0000
0000
FFF0
ENDCHAR
STARTCHAR greater
ENCODING 62
SWIDTH 530 0
DWIDTH 13 0
BBX 12 12 0 0
BITMAP
8000
F000
3C00
0F00
01C0
0070
0070
01C0
0700
3C00
F000
8000
ENDCHAR
STARTCHAR question
ENCODING 63
SWIDTH 417 0
DWIDTH 10 0
BBX 7 15 2 0
BITMAP
38
4C
86
C6
86
06
04
04
08
08
10
10
00
38
38
ENDCHAR
STARTCHAR at
ENCODING 64
SWIDTH 865 0
DWIDTH 21 0
BBX 15 15 3 0
BITMAP
07C0
1C30
3008
6004
61F4
C332
C622
CC22
CC62
CC64
CECC
6738
3000
1818
07E0
ENDCHAR
STARTCHAR A
ENCODING 65
SWIDTH 678 0
DWIDTH 16 0
BBX 16 15 0 0
BITMAP
0080
0180
0180
02C0
02C0
0440
0460
0420
0830
0FF0
1018
1018
200C
600C
F83F
ENDCHAR
STARTCHAR B
ENCODING 66
SWIDTH 627 0
DWIDTH 15 0
BBX 14 15 0 0
BITMAP
FFC0
1870
1830
1818
1818
1818
1830
1FC0
1870
1818
180C
180C
180C
1838
FFE0
ENDCHAR
STARTCHAR C
ENCODING 67
SWIDTH 627 0
DWIDTH 15 0
BBX 13 15 1 0
BITMAP
0788
1870
3010
6010
4008
C000
C000
C000
C000
C000
C000
6000
7018
3830
0FC0
ENDCHAR
STARTCHAR D
ENCODING 68
SWIDTH 678 0
DWIDTH 16 0
BBX 14 15 1 0
BITMAP
FF80
30E0
3030
3018
3018
300C
300C
300C
300C
300C
3018
3018
3030
30E0
FF80
ENDCHAR
STARTCHAR E
ENCODING 69
SWIDTH 574 0
DWIDTH 14 0
BBX 13 15 1 0
BITMAP
FFF0
3030
3010
3010
3000
3020
3040
3FC0
3040
3020
3000
3008
3010
3030
FFF0
ENDCHAR
STARTCHAR F
ENCODING 70
SWIDTH 522 0
DWIDTH 13 0
BBX 12 15 1 0
BITMAP
FFF0
3030
3010
3010
3000
3020
3040
3FC0
3040
3020
3000
3000
3000
3000
FC00
ENDCHAR
STARTCHAR G
ENCODING 71
SWIDTH 678 0
DWIDTH 16 0
BBX 15 15 1 0
BITMAP
0788
1C78
3018
6008
6008
C000
C000
C07E
C01C
C018
C018
6018
3018
1838
07E0
ENDCHAR
STARTCHAR H
ENCODING 72
SWIDTH 678 0
DWIDTH 16 0
BBX 15 15 1 0
BITMAP
FC7E
3018
3018
3018
3018
3018
3018
3FF8
3018
3018
3018
3018
3018
3018
FC7E
ENDCHAR
STARTCHAR I
ENCODING 73
SWIDTH 313 0
DWIDTH 8 0
BBX 7 15 0 0
BITMAP
FE
38
18
18
18
18
18
18
18
18
18
18
18
18
FE
ENDCHAR
STARTCHAR J
ENCODING 74
SWIDTH 365 0
DWIDTH 9 0
BBX 9 15 0 0
BITMAP
3F80
1E00
0C00
0C00
0C00
0C00
0C00
0C00
0C00
0C00
0C00
0C00
4C00
C800
7000
ENDCHAR
STARTCHAR K
ENCODING 75
SWIDTH 678 0
DWIDTH 16 0
BBX 15 15 1 0
BITMAP
FCFC
7070
3040
3080
3100
3200
3400
3E00
3300
3180
30C0
3060
3070
7038
FCFE
ENDCHAR
STARTCHAR L
ENCODING 76
SWIDTH 574 0
DWIDTH 14 0
BBX 13 15 1 0
BITMAP
FC00
7000
3000
3000
3000
3000
3000
3000
3000
3000
3000
3008
3010
3030
FFF0
ENDCHAR
STARTCHAR M
ENCODING 77
SWIDTH 835 0
DWIDTH 20 0
BBX 18 15 1 0
BITMAP
F003C0
380700
280700
2C0B00
2C0B00
240B00
261300
261300
232300
232300
212300
21C300
21C300
708300
F88FC0
ENDCHAR
STARTCHAR N
ENCODING 78
SWIDTH 678 0
DWIDTH 16 0
BBX 15 15 1 0
BITMAP
F03E
301C
3808
2C08
2608
2308
2308
2188
20C8
2068
2068
2038
2018
7008
F808
ENDCHAR
STARTCHAR O
ENCODING 79
SWIDTH 678 0
DWIDTH 16 0
BBX 14 15 1 0
BITMAP
0780
1860
3030
6018
6018
C00C
C00C
C00C
C00C
C00C
C008
6018
3030
1860
0FC0
ENDCHAR
STARTCHAR P
ENCODING 80
SWIDTH 522 0
DWIDTH 13 0
BBX 11 15 1 0
BITMAP
FF00
31C0
30C0
3060
3060
3060
30C0
3180
3F00
3000
3000
3000
3000
3000
FC00
ENDCHAR
STARTCHAR Q
ENCODING 81
SWIDTH 678 0
DWIDTH 16 0
BBX 14 19 1 -4
BITMAP
0780
1860
3030
6018
6018
C00C
C00C
C00C
C00C
C00C
C008
6018
3030
1860
0FC0
0300
0180
00E0
003C
ENDCHAR
STARTCHAR R
ENCODING 82
SWIDTH 627 0
DWIDTH 15 0
BBX 14 15 1 0
BITMAP
FF00
31C0
3060
3060
3060
3060
31C0
3E00
3300
3180
3180
30C0
30E0
3070
FC3C
ENDCHAR
STARTCHAR S
ENCODING 83
SWIDTH 522 0
DWIDTH 13 0
BBX 10 15 1 0
BITMAP
1C80
3380
6080
6080
6040
7000
3C00
0E00
0380
0180
80C0
40C0
40C0
7180
4F00
ENDCHAR
STARTCHAR T
ENCODING 84
SWIDTH 574 0
DWIDTH 14 0
BBX 13 15 1 0
BITMAP
FFF0
C630
8610
8608
0600
0600
0600
0600
0600
0600
0600
0600
0600
0600
1F80
ENDCHAR
STARTCHAR U
ENCODING 85
SWIDTH 678 0
DWIDTH 16 0
BBX 16 15 0 0
BITMAP
FE1F
380E
1804
1804
1804
1804
1804
1804
1804
1804
1804
1804
1C08
0E18
07E0
ENDCHAR
STARTCHAR V
ENCODING 86
SWIDTH 678 0
DWIDTH 16 0
BBX 16 15 0 0
BITMAP
FC1F
380E
3004
1804
1808
0C08
0C10
0610
0610
0320
0320
0140
01C0
0080
0080
ENDCHAR
STARTCHAR W
ENCODING 87
SWIDTH 887 0
DWIDTH 21 0
BBX 21 15 0 0
BITMAP
FDF8F8
706070
306020
103020
183040
183040
0C3840
0C5880
0C4880
064D00
068D00
038700
030600
030600
010200
ENDCHAR
STARTCHAR X
ENCODING 88
SWIDTH 678 0
DWIDTH 16 0
BBX 15 15 1 0
BITMAP
FE7C
3830
1820
0C60
06C0
0780
0200
0100
0300
0480
08C0
1060
1070
7078
F9FE
ENDCHAR
STARTCHAR Y
ENCODING 89
SWIDTH 678 0
DWIDTH 16 0
BBX 16 15 0 0
BITMAP
FC1F
380C
1808
0C08
0C10
0620
0340
01C0
0180
0180
0180
0180
0180
0180
0FF0
ENDCHAR
STARTCHAR Z
ENCODING 90
SWIDTH 574 0
DWIDTH 14 0
BBX 14 15 0 0
BITMAP
7FF8
6010
4030
4060
00C0
0180
0180
0300
0600
0C00
0800
1804
3008
6018
FFF8
ENDCHAR
STARTCHAR bracketleft
ENCODING 91
SWIDTH 313 0
DWIDTH 8 0
BBX 5 19 2 -4
BITMAP
F8
C0
C0
C0
C0
C0
C0
C0
C0
C0
C0
C0
C0
C0
C0
C0
C0
C0
F8
ENDCHAR
STARTCHAR backslash
ENCODING 92
SWIDTH 261 0
DWIDTH 6 0
BBX 7 15 -1 0
BITMAP
C0
40
60
60
20
30
30
10
18
18
08
0C
0C
04
06
ENDCHAR
STARTCHAR bracketright
ENCODING 93
SWIDTH 313 0
DWIDTH 8 0
BBX 5 19 1 -4
BITMAP
F8
18
18
18
18
18
18
18
18
18
18
18
18
18
18
18
18
18
F8
ENDCHAR
STARTCHAR asciicircum
ENCODING 94
SWIDTH 441 0
DWIDTH 11 0
BBX 9 8 0 7
BITMAP
0C00
0C00
1E00
1200
3300
2100
6180
C080
ENDCHAR
STARTCHAR underscore
ENCODING 95
SWIDTH 470 0
DWIDTH 11 0
BBX 12 1 0 -3
BITMAP
FFF0
ENDCHAR
STARTCHAR grave
ENCODING 96
SWIDTH 313 0
DWIDTH 8 0
BBX 4 4 1 11
BITMAP
80
C0
60
10
ENDCHAR
STARTCHAR a
ENCODING 97
SWIDTH 417 0
DWIDTH 10 0
BBX 9 10 1 0
BITMAP
3C00
4E00
C600
4600
1E00
2600
4600
C600
CE80
7700
ENDCHAR
STARTCHAR b
ENCODING 98
SWIDTH 470 0
DWIDTH 11 0
BBX 11 15 0 0
BITMAP
3000
F000
3000
3000
3000
3780
38C0
30C0
3060
3060
3060
3060
30C0
3880
0F00
ENDCHAR
STARTCHAR c
ENCODING 99
SWIDTH 417 0
DWIDTH 10 0
BBX 8 10 1 0
BITMAP
1C
32
63
C0
C0
C0
C0
E1
72
3C
ENDCHAR
STARTCHAR d
ENCODING 100
SWIDTH 470 0
DWIDTH 11 0
BBX 10 15 1 0
BITMAP
0180
0780
0180
0180
0180
1D80
3380
6180
C180
C180
C180
C180
C180
63C0
3D80
ENDCHAR
STARTCHAR e
ENCODING 101
SWIDTH 417 0
DWIDTH 10 0
BBX 9 10 1 0
BITMAP
3C00
4600
4300
FF00
8000
8000
8080
C180
6200
3C00
ENDCHAR
STARTCHAR f
ENCODING 102
SWIDTH 313 0
DWIDTH 8 0
BBX 8 15 1 0
BITMAP
0E
1B
30
30
30
FE
30
30
30
30
30
30
30
30
FC
ENDCHAR
STARTCHAR g
ENCODING 103
SWIDTH 446 0
DWIDTH 11 0
BBX 9 14 1 -4
BITMAP
1D80
6300
6100
6100
6100
3200
1C00
2000
6000
3F00
4080
C080
E100
7E00
ENDCHAR
STARTCHAR h
ENCODING 104
SWIDTH 470 0
DWIDTH 11 0
BBX 10 15 1 0
BITMAP
2000
E000
6000
6000
6000
6F00
7380
6180
6180
6180
6180
6180
6180
6180
F3C0
ENDCHAR
STARTCHAR i
ENCODING 105
SWIDTH 261 0
DWIDTH 6 0
BBX 5 15 0 0
BITMAP
30
30
00
00
00
F0
30
30
30
30
30
30
30
30
F8
ENDCHAR
STARTCHAR j
ENCODING 106
SWIDTH 261 0
DWIDTH 6 0
BBX 6 19 -1 -4
BITMAP
0C
0C
00
00
00
3C
0C
0C
0C
0C
0C
0C
0C
0C
0C
0C
0C
C8
F0
ENDCHAR
STARTCHAR k
ENCODING 107
SWIDTH 470 0
DWIDTH 11 0
BBX 11 15 0 0
BITMAP
3000
F000
3000
3000
3000
33E0
3100
3200
3400
3800
3400
3200
3300
3180
FBE0
ENDCHAR
STARTCHAR l
ENCODING 108
SWIDTH 261 0
DWIDTH 6 0
BBX 6 15 0 0
BITMAP
30
F0
30
30
30
30
30
30
30
30
30
30
30
30
FC
ENDCHAR
STARTCHAR m
ENCODING 109
SWIDTH 731 0
DWIDTH 18 0
BBX 17 10 0 0
BITMAP
E79E00
28E700
30C300
30C300
30C300
30C300
30C300
30C300
30C300
FDE780
ENDCHAR
STARTCHAR n
ENCODING 110
SWIDTH 470 0
DWIDTH 11 0
BBX 11 10 0 0
BITMAP
E780
39C0
30C0
30C0
30C0
30C0
30C0
30C0
30C0
F9E0
ENDCHAR
STARTCHAR o
ENCODING 111
SWIDTH 470 0
DWIDTH 11 0
BBX 10 10 1 0
BITMAP
1E00
2300
4180
C0C0
C0C0
C0C0
C0C0
6080
3100
1E00
ENDCHAR
STARTCHAR p
ENCODING 112
SWIDTH 470 0
DWIDTH 11 0
BBX 11 14 0 -4
BITMAP
EF80
71C0
60E0
6060
6060
6060
6060
60C0
7180
6F00
6000
6000
6000
F800
ENDCHAR
STARTCHAR q
ENCODING 113
SWIDTH 470 0
DWIDTH 11 0
BBX 10 14 1 -4
BITMAP
1D00
2700
6300
C300
C300
C300
C300
C700
7B00
0300
0300
0300
0300
0FC0
ENDCHAR
STARTCHAR r
ENCODING 114
SWIDTH 313 0
DWIDTH 8 0
BBX 7 10 0 0
BITMAP
26
EE
70
60
60
60
60
60
60
F8
ENDCHAR
STARTCHAR s
ENCODING 115
SWIDTH 365 0
DWIDTH 9 0
BBX 7 10 1 0
BITMAP
74
8C
84
C0
70
1C
86
86
8C
F8
ENDCHAR
STARTCHAR t
ENCODING 116
SWIDTH 261 0
DWIDTH 6 0
BBX 6 13 1 0
BITMAP
20
20
60
F8
60
60
60
60
60
60
60
64
38
ENDCHAR
STARTCHAR u
ENCODING 117
SWIDTH 470 0
DWIDTH 11 0
BBX 10 10 0 0
BITMAP
F380
3180
3180
3180
3180
3180
3180
3180
3380
1CC0
ENDCHAR
STARTCHAR v
ENCODING 118
SWIDTH 470 0
DWIDTH 11 0
BBX 11 10 0 0
BITMAP
F8E0
3040
3040
1080
1880
0900
0D00
0500
0600
0200
ENDCHAR
STARTCHAR w
ENCODING 119
SWIDTH 678 0
DWIDTH 16 0
BBX 15 10 1 0
BITMAP
FF8E
6204
2304
2308
2388
1490
14D0
18E0
0860
0840
ENDCHAR
STARTCHAR x
ENCODING 120
SWIDTH 470 0
DWIDTH 11 0
BBX 10 10 1 0
BITMAP
FF80
3200
1400
1C00
0800
0C00
1600
2200
2300
E7C0
ENDCHAR
STARTCHAR y
ENCODING 121
SWIDTH 470 0
DWIDTH 11 0
BBX 11 14 0 -4
BITMAP
F8E0
3040
3040
1880
1880
0C80
0500
0700
0200
0200
0400
0400
7800
7000
ENDCHAR
STARTCHAR z
ENCODING 122
SWIDTH 417 0
DWIDTH 10 0
BBX 10 10 0 0
BITMAP
7F80
4100
4300
0600
0400
0800
1800
3040
6080
FF80
ENDCHAR
STARTCHAR braceleft
ENCODING 123
SWIDTH 451 0
DWIDTH 11 0
BBX 6 19 2 -4
BITMAP
1C
30
30
30
30
30
30
30
30
C0
20
30
30
30
30
30
30
30
1C
ENDCHAR
STARTCHAR bar
ENCODING 124
SWIDTH 188 0
DWIDTH 5 0
BBX 2 15 2 0
BITMAP
C0
C0
C0
C0
C0
C0
C0
C0
C0
C0
C0
C0
C0
C0
C0
ENDCHAR
STARTCHAR braceright
ENCODING 125
SWIDTH 451 0
DWIDTH 11 0
BBX 6 19 3 -4
BITMAP
C0
30
30
30
30
30
30
30
30
0C
10
30
30
30
30
30
30
30
E0
ENDCHAR
STARTCHAR asciitilde
ENCODING 126
SWIDTH 508 0
DWIDTH 12 0
BBX 10 3 1 4
BITMAP
7C40
4E40
C380
ENDCHAR
STARTCHAR char007f
ENCODING 127
SWIDTH 500 0
DWIDTH 12 0
BBX 0 0 3 -4
BITMAP
ENDCHAR
STARTCHAR Adieresis
ENCODING 128
SWIDTH 500 0
DWIDTH 12 0
BBX 9 22 2 -4
BITMAP
C000
4000
4000
2000
2000
2000
3000
1000
1000
1800
0800
0800
0C00
0400
0400
0600
0200
0200
0200
0100
0100
0180
ENDCHAR
STARTCHAR Aring
ENCODING 129
SWIDTH 42 0
DWIDTH 1 0
BBX 1 24 0 -4
BITMAP
80
80
80
80
80
80
80
80
80
80
80
80
80
80
80
80
80
80
80
80
80
80
80
80
ENDCHAR
STARTCHAR Ccedilla
ENCODING 130
SWIDTH 1000 0
DWIDTH 24 0
BBX 24 1 0 0
BITMAP
FFFFFF
ENDCHAR
STARTCHAR Eacute
ENCODING 131
SWIDTH 1000 0
DWIDTH 24 0
BBX 24 24 0 -4
BITMAP
FFFFFF
FFFFFF
FFFFFF
FFFFFF
FFFFFF
FFFFFF
FFFFFF
FFFFFF
FFFFFF
FFFFFF
FFFFFF
FFFFFF
FFFFFF
FFFFFF
FFFFFF
FFFFFF
FFFFFF
FFFFFF
FFFFFF
FFFFFF
FFFFFF
FFFFFF
FFFFFF
FFFFFF
ENDCHAR
STARTCHAR Ntilde
ENCODING 132
SWIDTH 1000 0
DWIDTH 24 0
BBX 24 24 0 -4
BITMAP
FFFFFF
FFFFFF
FFFFFF
FFFFFF
FFFFFF
FFFFFF
FFFFFF
FFFFFF
FFFFFF
FFFFFF
FFFFFF
FFFFFF
FFFFFF
FFFFFF
FFFFFF
FFFFFF
FFFFFF
FFFFFF
FFFFFF
FFFFFF
FFFFFF
FFFFFF
FFFFFF
FFFFFF
ENDCHAR
STARTCHAR Odieresis
ENCODING 133
SWIDTH 1000 0
DWIDTH 24 0
BBX 24 24 0 -4
BITMAP
FFFFFF
FFFFFF
FFFFFF
FFFFFF
FFFFFF
FFFFFF
FFFFFF
FFFFFF
FFFFFF
FFFFFF
FFFFFF
FFFFFF
FFFFFF
FFFFFF
FFFFFF
FFFFFF
FFFFFF
FFFFFF
FFFFFF
FFFFFF
FFFFFF
FFFFFF
FFFFFF
FFFFFF
ENDCHAR
STARTCHAR Udieresis
ENCODING 134
SWIDTH 1000 0
DWIDTH 24 0
BBX 24 24 0 -4
BITMAP
FFFFFF
FFFFFF
FFFFFF
FFFFFF
FFFFFF
FFFFFF
FFFFFF
FFFFFF
FFFFFF
FFFFFF
FFFFFF
FFFFFF
FFFFFF
FFFFFF
FFFFFF
FFFFFF
FFFFFF
FFFFFF
FFFFFF
FFFFFF
FFFFFF
FFFFFF
FFFFFF
FFFFFF
ENDCHAR
STARTCHAR aacute
ENCODING 135
SWIDTH 1000 0
DWIDTH 24 0
BBX 24 24 0 -4
BITMAP
FFFFFF
FFFFFF
FFFFFF
FFFFFF
FFFFFF
FFFFFF
FFFFFF
FFFFFF
FFFFFF
FFFFFF
FFFFFF
FFFFFF
FFFFFF
FFFFFF
FFFFFF
FFFFFF
FFFFFF
FFFFFF
FFFFFF
FFFFFF
FFFFFF
FFFFFF
FFFFFF
FFFFFF
ENDCHAR
STARTCHAR agrave
ENCODING 136
SWIDTH 1000 0
DWIDTH 24 0
BBX 24 24 0 -4
BITMAP
FFFFFF
FFFFFF
FFFFFF
FFFFFF
FFFFFF
FFFFFF
FFFFFF
FFFFFF
FFFFFF
FFFFFF
FFFFFF
FFFFFF
FFFFFF
FFFFFF
FFFFFF
FFFFFF
FFFFFF
FFFFFF
FFFFFF
FFFFFF
FFFFFF
FFFFFF
FFFFFF
FFFFFF
ENDCHAR
STARTCHAR acircumflex
ENCODING 137
SWIDTH 1000 0
DWIDTH 24 0
BBX 24 24 0 -4
BITMAP
FFFFFF
FFFFFF
FFFFFF
FFFFFF
FFFFFF
FFFFFF
FFFFFF
FFFFFF
FFFFFF
FFFFFF
FFFFFF
FFFFFF
FFFFFF
FFFFFF
FFFFFF
FFFFFF
FFFFFF
FFFFFF
FFFFFF
FFFFFF
FFFFFF
FFFFFF
FFFFFF
FFFFFF
ENDCHAR
STARTCHAR adieresis
ENCODING 138
SWIDTH 1000 0
DWIDTH 24 0
BBX 24 24 0 -4
BITMAP
FFFFFF
FFFFFF
FFFFFF
FFFFFF
FFFFFF
FFFFFF
FFFFFF
FFFFFF
FFFFFF
FFFFFF
FFFFFF
FFFFFF
FFFFFF
FFFFFF
FFFFFF
FFFFFF
FFFFFF
FFFFFF
FFFFFF
FFFFFF
FFFFFF
FFFFFF
FFFFFF
FFFFFF
ENDCHAR
STARTCHAR atilde
ENCODING 139
SWIDTH 1000 0
DWIDTH 24 0
BBX 24 24 0 -4
BITMAP
FFFFFF
FFFFFF
FFFFFF
FFFFFF
FFFFFF
FFFFFF
FFFFFF
FFFFFF
FFFFFF
FFFFFF
FFFFFF
FFFFFF
FFFFFF
FFFFFF
FFFFFF
FFFFFF
FFFFFF
FFFFFF
FFFFFF
FFFFFF
FFFFFF
FFFFFF
FFFFFF
FFFFFF
ENDCHAR
STARTCHAR aring
ENCODING 140
SWIDTH 1000 0
DWIDTH 24 0
BBX 24 24 0 -4
BITMAP
FFFFFF
FFFFFF
FFFFFF
FFFFFF
FFFFFF
FFFFFF
FFFFFF
FFFFFF
FFFFFF
FFFFFF
FFFFFF
FFFFFF
FFFFFF
FFFFFF
FFFFFF
FFFFFF
FFFFFF
FFFFFF
FFFFFF
FFFFFF
FFFFFF
FFFFFF
FFFFFF
FFFFFF
ENDCHAR
STARTCHAR ccedilla
ENCODING 141
SWIDTH 1000 0
DWIDTH 24 0
BBX 24 24 0 -4
BITMAP
FFFFFF
FFFFFF
FFFFFF
FFFFFF
FFFFFF
FFFFFF
FFFFFF
FFFFFF
FFFFFF
FFFFFF
FFFFFF
FFFFFF
FFFFFF
FFFFFF
FFFFFF
FFFFFF
FFFFFF
FFFFFF
FFFFFF
FFFFFF
FFFFFF
FFFFFF
FFFFFF
FFFFFF
ENDCHAR
STARTCHAR eacute
ENCODING 142
SWIDTH 1000 0
DWIDTH 24 0
BBX 24 24 0 -4
BITMAP
FFFFFF
FFFFFF
FFFFFF
FFFFFF
FFFFFF
FFFFFF
FFFFFF
FFFFFF
FFFFFF
FFFFFF
FFFFFF
FFFFFF
FFFFFF
FFFFFF
FFFFFF
FFFFFF
FFFFFF
FFFFFF
FFFFFF
FFFFFF
FFFFFF
FFFFFF
FFFFFF
FFFFFF
ENDCHAR
STARTCHAR egrave
ENCODING 143
SWIDTH 1000 0
DWIDTH 24 0
BBX 24 24 0 -4
BITMAP
FFFFFF
FFFFFF
FFFFFF
FFFFFF
FFFFFF
FFFFFF
FFFFFF
FFFFFF
FFFFFF
FFFFFF
FFFFFF
FFFFFF
FFFFFF
FFFFFF
FFFFFF
FFFFFF
FFFFFF
FFFFFF
FFFFFF
FFFFFF
FFFFFF
FFFFFF
FFFFFF
FFFFFF
ENDCHAR
STARTCHAR ecircumflex
ENCODING 144
SWIDTH 1000 0
DWIDTH 24 0
BBX 24 24 0 -4
BITMAP
FFFFFF
FFFFFF
FFFFFF
FFFFFF
FFFFFF
FFFFFF
FFFFFF
FFFFFF
FFFFFF
FFFFFF
FFFFFF
FFFFFF
FFFFFF
FFFFFF
FFFFFF
FFFFFF
FFFFFF
FFFFFF
FFFFFF
FFFFFF
FFFFFF
FFFFFF
FFFFFF
FFFFFF
ENDCHAR
STARTCHAR edieresis
ENCODING 145
SWIDTH 1000 0
DWIDTH 24 0
BBX 24 24 0 -4
BITMAP
FFFFFF
FFFFFF
FFFFFF
FFFFFF
FFFFFF
FFFFFF
FFFFFF
FFFFFF
FFFFFF
FFFFFF
FFFFFF
FFFFFF
FFFFFF
FFFFFF
FFFFFF
FFFFFF
FFFFFF
FFFFFF
FFFFFF
FFFFFF
FFFFFF
FFFFFF
FFFFFF
FFFFFF
ENDCHAR
STARTCHAR iacute
ENCODING 146
SWIDTH 1000 0
DWIDTH 24 0
BBX 24 24 0 -4
BITMAP
FFFFFF
FFFFFF
FFFFFF
FFFFFF
FFFFFF
FFFFFF
FFFFFF
FFFFFF
FFFFFF
FFFFFF
FFFFFF
FFFFFF
FFFFFF
FFFFFF
FFFFFF
FFFFFF
FFFFFF
FFFFFF
FFFFFF
FFFFFF
FFFFFF
FFFFFF
FFFFFF
FFFFFF
ENDCHAR
STARTCHAR igrave
ENCODING 147
SWIDTH 1000 0
DWIDTH 24 0
BBX 24 24 0 -4
BITMAP
FFFFFF
FFFFFF
FFFFFF
FFFFFF
FFFFFF
FFFFFF
FFFFFF
FFFFFF
FFFFFF
FFFFFF
FFFFFF
FFFFFF
FFFFFF
FFFFFF
FFFFFF
FFFFFF
FFFFFF
FFFFFF
FFFFFF
FFFFFF
FFFFFF
FFFFFF
FFFFFF
FFFFFF
ENDCHAR
STARTCHAR icircumflex
ENCODING 148
SWIDTH 1000 0
DWIDTH 24 0
BBX 24 24 0 -4
BITMAP
FFFFFF
FFFFFF
FFFFFF
FFFFFF
FFFFFF
FFFFFF
FFFFFF
FFFFFF
FFFFFF
FFFFFF
FFFFFF
FFFFFF
FFFFFF
FFFFFF
FFFFFF
FFFFFF
FFFFFF
FFFFFF
FFFFFF
FFFFFF
FFFFFF
FFFFFF
FFFFFF
FFFFFF
ENDCHAR
STARTCHAR idieresis
ENCODING 149
SWIDTH 1000 0
DWIDTH 24 0
BBX 24 24 0 -4
BITMAP
FFFFFF
FFFFFF
FFFFFF
FFFFFF
FFFFFF
FFFFFF
FFFFFF
FFFFFF
FFFFFF
FFFFFF
FFFFFF
FFFFFF
FFFFFF
FFFFFF
FFFFFF
FFFFFF
FFFFFF
FFFFFF
FFFFFF
FFFFFF
FFFFFF
FFFFFF
FFFFFF
FFFFFF
ENDCHAR
STARTCHAR ntilde
ENCODING 150
SWIDTH 1000 0
DWIDTH 24 0
BBX 24 24 0 -4
BITMAP
FFFFFF
FFFFFF
FFFFFF
FFFFFF
FFFFFF
FFFFFF
FFFFFF
FFFFFF
FFFFFF
FFFFFF
FFFFFF
FFFFFF
FFFFFF
FFFFFF
FFFFFF
FFFFFF
FFFFFF
FFFFFF
FFFFFF
FFFFFF
FFFFFF
FFFFFF
FFFFFF
FFFFFF
ENDCHAR
STARTCHAR oacute
ENCODING 151
SWIDTH 1000 0
DWIDTH 24 0
BBX 24 24 0 -4
BITMAP
FFFFFF
FFFFFF
FFFFFF
FFFFFF
FFFFFF
FFFFFF
FFFFFF
FFFFFF
FFFFFF
FFFFFF
FFFFFF
FFFFFF
FFFFFF
FFFFFF
FFFFFF
FFFFFF
FFFFFF
FFFFFF
FFFFFF
FFFFFF
FFFFFF
FFFFFF
FFFFFF
FFFFFF
ENDCHAR
STARTCHAR ograve
ENCODING 152
SWIDTH 1000 0
DWIDTH 24 0
BBX 24 24 0 -4
BITMAP
FFFFFF
FFFFFF
FFFFFF
FFFFFF
FFFFFF
FFFFFF
FFFFFF
FFFFFF
FFFFFF
FFFFFF
FFFFFF
FFFFFF
FFFFFF
FFFFFF
FFFFFF
FFFFFF
FFFFFF
FFFFFF
FFFFFF
FFFFFF
FFFFFF
FFFFFF
FFFFFF
FFFFFF
ENDCHAR
STARTCHAR ocircumflex
ENCODING 153
SWIDTH 1000 0
DWIDTH 24 0
BBX 24 24 0 -4
BITMAP
FFFFFF
FFFFFF
FFFFFF
FFFFFF
FFFFFF
FFFFFF
FFFFFF
FFFFFF
FFFFFF
FFFFFF
FFFFFF
FFFFFF
FFFFFF
FFFFFF
FFFFFF
FFFFFF
FFFFFF
FFFFFF
FFFFFF
FFFFFF
FFFFFF
FFFFFF
FFFFFF
FFFFFF
ENDCHAR
STARTCHAR odieresis
ENCODING 154
SWIDTH 1000 0
DWIDTH 24 0
BBX 24 24 0 -4
BITMAP
FFFFFF
FFFFFF
FFFFFF
FFFFFF
FFFFFF
FFFFFF
FFFFFF
FFFFFF
FFFFFF
FFFFFF
FFFFFF
FFFFFF
FFFFFF
FFFFFF
FFFFFF
FFFFFF
FFFFFF
FFFFFF
FFFFFF
FFFFFF
FFFFFF
FFFFFF
FFFFFF
FFFFFF
ENDCHAR
STARTCHAR otilde
ENCODING 155
SWIDTH 1000 0
DWIDTH 24 0
BBX 24 24 0 -4
BITMAP
FFFFFF
FFFFFF
FFFFFF
FFFFFF
FFFFFF
FFFFFF
FFFFFF
FFFFFF
FFFFFF
FFFFFF
FFFFFF
FFFFFF
FFFFFF
FFFFFF
FFFFFF
FFFFFF
FFFFFF
FFFFFF
FFFFFF
FFFFFF
FFFFFF
FFFFFF
FFFFFF
FFFFFF
ENDCHAR
STARTCHAR uacute
ENCODING 156
SWIDTH 1000 0
DWIDTH 24 0
BBX 24 24 0 -4
BITMAP
FFFFFF
FFFFFF
FFFFFF
FFFFFF
FFFFFF
FFFFFF
FFFFFF
FFFFFF
FFFFFF
FFFFFF
FFFFFF
FFFFFF
FFFFFF
FFFFFF
FFFFFF
FFFFFF
FFFFFF
FFFFFF
FFFFFF
FFFFFF
FFFFFF
FFFFFF
FFFFFF
FFFFFF
ENDCHAR
STARTCHAR ugrave
ENCODING 157
SWIDTH 1000 0
DWIDTH 24 0
BBX 24 24 0 -4
BITMAP
FFFFFF
FFFFFF
FFFFFF
FFFFFF
FFFFFF
FFFFFF
FFFFFF
FFFFFF
FFFFFF
FFFFFF
FFFFFF
FFFFFF
FFFFFF
FFFFFF
FFFFFF
FFFFFF
FFFFFF
FFFFFF
FFFFFF
FFFFFF
FFFFFF
FFFFFF
FFFFFF
FFFFFF
ENDCHAR
STARTCHAR ucircumflex
ENCODING 158
SWIDTH 1000 0
DWIDTH 24 0
BBX 24 24 0 -4
BITMAP
FFFFFF
FFFFFF
FFFFFF
FFFFFF
FFFFFF
FFFFFF
FFFFFF
FFFFFF
FFFFFF
FFFFFF
FFFFFF
FFFFFF
FFFFFF
FFFFFF
FFFFFF
FFFFFF
FFFFFF
FFFFFF
FFFFFF
FFFFFF
FFFFFF
FFFFFF
FFFFFF
FFFFFF
ENDCHAR
STARTCHAR udieresis
ENCODING 159
SWIDTH 1000 0
DWIDTH 24 0
BBX 24 24 0 -4
BITMAP
FFFFFF
FFFFFF
FFFFFF
FFFFFF
FFFFFF
FFFFFF
FFFFFF
FFFFFF
FFFFFF
FFFFFF
FFFFFF
FFFFFF
FFFFFF
FFFFFF
FFFFFF
FFFFFF
FFFFFF
FFFFFF
FFFFFF
FFFFFF
FFFFFF
FFFFFF
FFFFFF
FFFFFF
ENDCHAR
STARTCHAR dagger
ENCODING 160
SWIDTH 500 0
DWIDTH 12 0
BBX 0 0 3 -4
BITMAP
ENDCHAR
STARTCHAR degree
ENCODING 161
SWIDTH 500 0
DWIDTH 12 0
BBX 0 0 3 -4
BITMAP
ENDCHAR
STARTCHAR cent
ENCODING 162
SWIDTH 500 0
DWIDTH 12 0
BBX 0 0 3 -4
BITMAP
ENDCHAR
STARTCHAR sterling
ENCODING 163
SWIDTH 500 0
DWIDTH 12 0
BBX 0 0 3 -4
BITMAP
ENDCHAR
STARTCHAR section
ENCODING 164
SWIDTH 500 0
DWIDTH 12 0
BBX 0 0 3 -4
BITMAP
ENDCHAR
STARTCHAR bullet
ENCODING 165
SWIDTH 500 0
DWIDTH 12 0
BBX 0 0 3 -4
BITMAP
ENDCHAR
STARTCHAR paragraph
ENCODING 166
SWIDTH 500 0
DWIDTH 12 0
BBX 0 0 3 -4
BITMAP
ENDCHAR
STARTCHAR germandbls
ENCODING 167
SWIDTH 500 0
DWIDTH 12 0
BBX 0 0 3 -4
BITMAP
ENDCHAR
STARTCHAR registered
ENCODING 168
SWIDTH 500 0
DWIDTH 12 0
BBX 0 0 3 -4
BITMAP
ENDCHAR
STARTCHAR copyright
ENCODING 169
SWIDTH 500 0
DWIDTH 12 0
BBX 0 0 3 -4
BITMAP
ENDCHAR
STARTCHAR trademark
ENCODING 170
SWIDTH 500 0
DWIDTH 12 0
BBX 0 0 3 -4
BITMAP
ENDCHAR
STARTCHAR acute
ENCODING 171
SWIDTH 500 0
DWIDTH 12 0
BBX 0 0 3 -4
BITMAP
ENDCHAR
STARTCHAR dieresis
ENCODING 172
SWIDTH 500 0
DWIDTH 12 0
BBX 0 0 3 -4
BITMAP
ENDCHAR
STARTCHAR notequal
ENCODING 173
SWIDTH 500 0
DWIDTH 12 0
BBX 0 0 3 -4
BITMAP
ENDCHAR
STARTCHAR AE
ENCODING 174
SWIDTH 500 0
DWIDTH 12 0
BBX 0 0 3 -4
BITMAP
ENDCHAR
STARTCHAR Oslash
ENCODING 175
SWIDTH 500 0
DWIDTH 12 0
BBX 0 0 3 -4
BITMAP
ENDCHAR
STARTCHAR infinity
ENCODING 176
SWIDTH 500 0
DWIDTH 12 0
BBX 0 0 3 -4
BITMAP
ENDCHAR
STARTCHAR plusminus
ENCODING 177
SWIDTH 500 0
DWIDTH 12 0
BBX 0 0 3 -4
BITMAP
ENDCHAR
STARTCHAR lessequal
ENCODING 178
SWIDTH 500 0
DWIDTH 12 0
BBX 0 0 3 -4
BITMAP
ENDCHAR
STARTCHAR greaterequal
ENCODING 179
SWIDTH 500 0
DWIDTH 12 0
BBX 0 0 3 -4
BITMAP
ENDCHAR
STARTCHAR yen
ENCODING 180
SWIDTH 500 0
DWIDTH 12 0
BBX 0 0 3 -4
BITMAP
ENDCHAR
STARTCHAR mu
ENCODING 181
SWIDTH 500 0
DWIDTH 12 0
BBX 0 0 3 -4
BITMAP
ENDCHAR
STARTCHAR partialdiff
ENCODING 182
SWIDTH 500 0
DWIDTH 12 0
BBX 0 0 3 -4
BITMAP
ENDCHAR
STARTCHAR summation
ENCODING 183
SWIDTH 500 0
DWIDTH 12 0
BBX 0 0 3 -4
BITMAP
ENDCHAR
STARTCHAR product
ENCODING 184
SWIDTH 500 0
DWIDTH 12 0
BBX 0 0 3 -4
BITMAP
ENDCHAR
STARTCHAR pi
ENCODING 185
SWIDTH 500 0
DWIDTH 12 0
BBX 0 0 3 -4
BITMAP
ENDCHAR
STARTCHAR integral
ENCODING 186
SWIDTH 500 0
DWIDTH 12 0
BBX 0 0 3 -4
BITMAP
ENDCHAR
STARTCHAR ordfeminine
ENCODING 187
SWIDTH 500 0
DWIDTH 12 0
BBX 0 0 3 -4
BITMAP
ENDCHAR
STARTCHAR ordmasculine
ENCODING 188
SWIDTH 500 0
DWIDTH 12 0
BBX 0 0 3 -4
BITMAP
ENDCHAR
STARTCHAR Omega
ENCODING 189
SWIDTH 500 0
DWIDTH 12 0
BBX 0 0 3 -4
BITMAP
ENDCHAR
STARTCHAR ae
ENCODING 190
SWIDTH 500 0
DWIDTH 12 0
BBX 0 0 3 -4
BITMAP
ENDCHAR
STARTCHAR oslash
ENCODING 191
SWIDTH 500 0
DWIDTH 12 0
BBX 0 0 3 -4
BITMAP
ENDCHAR
STARTCHAR questiondown
ENCODING 192
SWIDTH 500 0
DWIDTH 12 0
BBX 0 0 3 -4
BITMAP
ENDCHAR
STARTCHAR exclamdown
ENCODING 193
SWIDTH 500 0
DWIDTH 12 0
BBX 0 0 3 -4
BITMAP
ENDCHAR
STARTCHAR logicalnot
ENCODING 194
SWIDTH 500 0
DWIDTH 12 0
BBX 0 0 3 -4
BITMAP
ENDCHAR
STARTCHAR radical
ENCODING 195
SWIDTH 500 0
DWIDTH 12 0
BBX 0 0 3 -4
BITMAP
ENDCHAR
STARTCHAR florin
ENCODING 196
SWIDTH 500 0
DWIDTH 12 0
BBX 0 0 3 -4
BITMAP
ENDCHAR
STARTCHAR approxequal
ENCODING 197
SWIDTH 500 0
DWIDTH 12 0
BBX 0 0 3 -4
BITMAP
ENDCHAR
STARTCHAR Delta
ENCODING 198
SWIDTH 500 0
DWIDTH 12 0
BBX 0 0 3 -4
BITMAP
ENDCHAR
STARTCHAR guillemotleft
ENCODING 199
SWIDTH 500 0
DWIDTH 12 0
BBX 0 0 3 -4
BITMAP
ENDCHAR
STARTCHAR guillemotright
ENCODING 200
SWIDTH 500 0
DWIDTH 12 0
BBX 0 0 3 -4
BITMAP
ENDCHAR
STARTCHAR ellipsis
ENCODING 201
SWIDTH 500 0
DWIDTH 12 0
BBX 0 0 3 -4
BITMAP
ENDCHAR
STARTCHAR nbspace
ENCODING 202
SWIDTH 500 0
DWIDTH 12 0
BBX 0 0 3 -4
BITMAP
ENDCHAR
STARTCHAR Agrave
ENCODING 203
SWIDTH 500 0
DWIDTH 12 0
BBX 0 0 3 -4
BITMAP
ENDCHAR
STARTCHAR Atilde
ENCODING 204
SWIDTH 500 0
DWIDTH 12 0
BBX 0 0 3 -4
BITMAP
ENDCHAR
STARTCHAR Otilde
ENCODING 205
SWIDTH 500 0
DWIDTH 12 0
BBX 0 0 3 -4
BITMAP
ENDCHAR
STARTCHAR OE
ENCODING 206
SWIDTH 500 0
DWIDTH 12 0
BBX 0 0 3 -4
BITMAP
ENDCHAR
STARTCHAR oe
ENCODING 207
SWIDTH 500 0
DWIDTH 12 0
BBX 0 0 3 -4
BITMAP
ENDCHAR
STARTCHAR endash
ENCODING 208
SWIDTH 500 0
DWIDTH 12 0
BBX 0 0 3 -4
BITMAP
ENDCHAR
STARTCHAR emdash
ENCODING 209
SWIDTH 500 0
DWIDTH 12 0
BBX 0 0 3 -4
BITMAP
ENDCHAR
STARTCHAR quotedblleft
ENCODING 210
SWIDTH 500 0
DWIDTH 12 0
BBX 0 0 3 -4
BITMAP
ENDCHAR
STARTCHAR quotedblright
ENCODING 211
SWIDTH 500 0
DWIDTH 12 0
BBX 0 0 3 -4
BITMAP
ENDCHAR
STARTCHAR quoteleft
ENCODING 212
SWIDTH 500 0
DWIDTH 12 0
BBX 0 0 3 -4
BITMAP
ENDCHAR
STARTCHAR quoteright
ENCODING 213
SWIDTH 500 0
DWIDTH 12 0
BBX 0 0 3 -4
BITMAP
ENDCHAR
STARTCHAR divide
ENCODING 214
SWIDTH 500 0
DWIDTH 12 0
BBX 0 0 3 -4
BITMAP
ENDCHAR
STARTCHAR lozenge
ENCODING 215
SWIDTH 500 0
DWIDTH 12 0
BBX 0 0 3 -4
BITMAP
ENDCHAR
STARTCHAR ydieresis
ENCODING 216
SWIDTH 500 0
DWIDTH 12 0
BBX 0 0 3 -4
BITMAP
ENDCHAR
STARTCHAR Ydieresis
ENCODING 217
SWIDTH 500 0
DWIDTH 12 0
BBX 0 0 3 -4
BITMAP
ENDCHAR
STARTCHAR fraction
ENCODING 218
SWIDTH 500 0
DWIDTH 12 0
BBX 0 0 3 -4
BITMAP
ENDCHAR
STARTCHAR currency
ENCODING 219
SWIDTH 500 0
DWIDTH 12 0
BBX 0 0 3 -4
BITMAP
ENDCHAR
STARTCHAR guilsinglleft
ENCODING 220
SWIDTH 500 0
DWIDTH 12 0
BBX 0 0 3 -4
BITMAP
ENDCHAR
STARTCHAR guilsinglright
ENCODING 221
SWIDTH 500 0
DWIDTH 12 0
BBX 0 0 3 -4
BITMAP
ENDCHAR
STARTCHAR fi
ENCODING 222
SWIDTH 500 0
DWIDTH 12 0
BBX 0 0 3 -4
BITMAP
ENDCHAR
STARTCHAR fl
ENCODING 223
SWIDTH 500 0
DWIDTH 12 0
BBX 0 0 3 -4
BITMAP
ENDCHAR
STARTCHAR daggerdbl
ENCODING 224
SWIDTH 500 0
DWIDTH 12 0
BBX 0 0 3 -4
BITMAP
ENDCHAR
STARTCHAR periodcentered
ENCODING 225
SWIDTH 500 0
DWIDTH 12 0
BBX 0 0 3 -4
BITMAP
ENDCHAR
STARTCHAR quotesinglbase
ENCODING 226
SWIDTH 500 0
DWIDTH 12 0
BBX 0 0 3 -4
BITMAP
ENDCHAR
STARTCHAR quotedblbase
ENCODING 227
SWIDTH 500 0
DWIDTH 12 0
BBX 0 0 3 -4
BITMAP
ENDCHAR
STARTCHAR perthousand
ENCODING 228
SWIDTH 500 0
DWIDTH 12 0
BBX 0 0 3 -4
BITMAP
ENDCHAR
STARTCHAR Acircumflex
ENCODING 229
SWIDTH 500 0
DWIDTH 12 0
BBX 0 0 3 -4
BITMAP
ENDCHAR
STARTCHAR Ecircumflex
ENCODING 230
SWIDTH 500 0
DWIDTH 12 0
BBX 0 0 3 -4
BITMAP
ENDCHAR
STARTCHAR Aacute
ENCODING 231
SWIDTH 500 0
DWIDTH 12 0
BBX 0 0 3 -4
BITMAP
ENDCHAR
STARTCHAR Edieresis
ENCODING 232
SWIDTH 500 0
DWIDTH 12 0
BBX 0 0 3 -4
BITMAP
ENDCHAR
STARTCHAR Egrave
ENCODING 233
SWIDTH 500 0
DWIDTH 12 0
BBX 0 0 3 -4
BITMAP
ENDCHAR
STARTCHAR Iacute
ENCODING 234
SWIDTH 500 0
DWIDTH 12 0
BBX 0 0 3 -4
BITMAP
ENDCHAR
STARTCHAR Icircumflex
ENCODING 235
SWIDTH 500 0
DWIDTH 12 0
BBX 0 0 3 -4
BITMAP
ENDCHAR
STARTCHAR Idieresis
ENCODING 236
SWIDTH 500 0
DWIDTH 12 0
BBX 0 0 3 -4
BITMAP
ENDCHAR
STARTCHAR Igrave
ENCODING 237
SWIDTH 500 0
DWIDTH 12 0
BBX 0 0 3 -4
BITMAP
ENDCHAR
STARTCHAR Oacute
ENCODING 238
SWIDTH 500 0
DWIDTH 12 0
BBX 0 0 3 -4
BITMAP
ENDCHAR
STARTCHAR Ocircumflex
ENCODING 239
SWIDTH 500 0
DWIDTH 12 0
BBX 0 0 3 -4
BITMAP
ENDCHAR
STARTCHAR apple
ENCODING 240
SWIDTH 500 0
DWIDTH 12 0
BBX 0 0 3 -4
BITMAP
ENDCHAR
STARTCHAR Ograve
ENCODING 241
SWIDTH 500 0
DWIDTH 12 0
BBX 0 0 3 -4
BITMAP
ENDCHAR
STARTCHAR Uacute
ENCODING 242
SWIDTH 500 0
DWIDTH 12 0
BBX 0 0 3 -4
BITMAP
ENDCHAR
STARTCHAR Ucircumflex
ENCODING 243
SWIDTH 500 0
DWIDTH 12 0
BBX 0 0 3 -4
BITMAP
ENDCHAR
STARTCHAR Ugrave
ENCODING 244
SWIDTH 500 0
DWIDTH 12 0
BBX 0 0 3 -4
BITMAP
ENDCHAR
STARTCHAR dotlessi
ENCODING 245
SWIDTH 500 0
DWIDTH 12 0
BBX 0 0 3 -4
BITMAP
ENDCHAR
STARTCHAR circumflex
ENCODING 246
SWIDTH 500 0
DWIDTH 12 0
BBX 0 0 3 -4
BITMAP
ENDCHAR
STARTCHAR tilde
ENCODING 247
SWIDTH 500 0
DWIDTH 12 0
BBX 0 0 3 -4
BITMAP
ENDCHAR
STARTCHAR macron
ENCODING 248
SWIDTH 500 0
DWIDTH 12 0
BBX 0 0 3 -4
BITMAP
ENDCHAR
STARTCHAR breve
ENCODING 249
SWIDTH 500 0
DWIDTH 12 0
BBX 0 0 3 -4
BITMAP
ENDCHAR
STARTCHAR dotaccent
ENCODING 250
SWIDTH 500 0
DWIDTH 12 0
BBX 0 0 3 -4
BITMAP
ENDCHAR
STARTCHAR ring
ENCODING 251
SWIDTH 500 0
DWIDTH 12 0
BBX 0 0 3 -4
BITMAP
ENDCHAR
STARTCHAR cedilla
ENCODING 252
SWIDTH 500 0
DWIDTH 12 0
BBX 0 0 3 -4
BITMAP
ENDCHAR
STARTCHAR hungarumlaut
ENCODING 253
SWIDTH 714 0
DWIDTH 17 0
BBX 15 15 1 0
BITMAP
07C0
1870
3018
63CC
4C24
8C22
9802
9802
9802
9812
CC24
47C4
2008
1830
0FE0
ENDCHAR
STARTCHAR ogonek
ENCODING 254
SWIDTH 920 0
DWIDTH 22 0
BBX 22 9 0 6
BITMAP
FFB81C
889810
081830
081450
081450
081690
081290
081310
3E397C
ENDCHAR
STARTCHAR caron
ENCODING 255
SWIDTH 939 0
DWIDTH 23 0
BBX 17 2 3 0
BITMAP
E1C380
E1C380
ENDCHAR
ENDFONT
