STARTFONT 2.1
FONT -Fondu-Apple LiSung Light-Medium-R-Normal--16-150-75-75-P-89-MacRoman-1
SIZE 15 75 75
FONTBOUNDINGBOX 16 16 -1 -3
COMMENT Created by Fondu from a mac NFNT/FONT resource
STARTPROPERTIES 17
FOUNDRY "Fondu"
FAMILY_NAME "Apple LiSung Light"
WEIGHT_NAME "Medium"
SLANT "R"
SETWIDTH_NAME "Normal"
ADD_STYLE_NAME ""
PIXEL_SIZE 16
POINT_SIZE 150
RESOLUTION_X 75
RESOLUTION_Y 75
SPACING "P"
AVERAGE_WIDTH 89
CHARSET_REGISTRY "MacRoman"
CHARSET_ENCODING "1"
FONT_ASCENT 13
FONT_DESCENT 3
FACE_NAME "Apple LiSung Light"
ENDPROPERTIES
CHARS 239
STARTCHAR char0011
ENCODING 17
SWIDTH 500 0
DWIDTH 10 0
BBX 9 9 0 0
BITMAP
6300
9480
9480
7F00
1400
7F00
9480
9480
6300
ENDCHAR
STARTCHAR char0012
ENCODING 18
SWIDTH 500 0
DWIDTH 8 0
BBX 7 14 0 -2
BITMAP
02
02
02
02
02
02
44
C4
24
24
14
08
08
08
ENDCHAR
STARTCHAR char0013
ENCODING 19
SWIDTH 500 0
DWIDTH 8 0
BBX 6 10 1 0
BITMAP
30
30
78
78
FC
FC
78
78
30
30
ENDCHAR
STARTCHAR char0014
ENCODING 20
SWIDTH 500 0
DWIDTH 8 0
BBX 7 11 0 0
BITMAP
08
18
10
7C
FE
F8
F8
FC
FE
7C
28
ENDCHAR
STARTCHAR onehalf
ENCODING 21
SWIDTH 500 0
DWIDTH 8 0
BBX 0 0 0 -3
BITMAP
ENDCHAR
STARTCHAR onequarter
ENCODING 22
SWIDTH 500 0
DWIDTH 8 0
BBX 0 0 0 -3
BITMAP
ENDCHAR
STARTCHAR onesuperior
ENCODING 23
SWIDTH 500 0
DWIDTH 8 0
BBX 0 0 0 -3
BITMAP
ENDCHAR
STARTCHAR threequarters
ENCODING 24
SWIDTH 500 0
DWIDTH 8 0
BBX 0 0 0 -3
BITMAP
ENDCHAR
STARTCHAR threesuperior
ENCODING 25
SWIDTH 500 0
DWIDTH 8 0
BBX 0 0 0 -3
BITMAP
ENDCHAR
STARTCHAR twosuperior
ENCODING 26
SWIDTH 500 0
DWIDTH 8 0
BBX 0 0 0 -3
BITMAP
ENDCHAR
STARTCHAR brokenbar
ENCODING 27
SWIDTH 500 0
DWIDTH 8 0
BBX 0 0 0 -3
BITMAP
ENDCHAR
STARTCHAR minus
ENCODING 28
SWIDTH 500 0
DWIDTH 8 0
BBX 0 0 0 -3
BITMAP
ENDCHAR
STARTCHAR multiply
ENCODING 29
SWIDTH 500 0
DWIDTH 8 0
BBX 0 0 0 -3
BITMAP
ENDCHAR
STARTCHAR char001e
ENCODING 30
SWIDTH 500 0
DWIDTH 8 0
BBX 0 0 0 -3
BITMAP
ENDCHAR
STARTCHAR char001f
ENCODING 31
SWIDTH 500 0
DWIDTH 8 0
BBX 0 0 0 -3
BITMAP
ENDCHAR
STARTCHAR space
ENCODING 32
SWIDTH 500 0
DWIDTH 6 0
BBX 0 0 0 -3
BITMAP
ENDCHAR
STARTCHAR exclam
ENCODING 33
SWIDTH 313 0
DWIDTH 5 0
BBX 1 10 2 0
BITMAP
80
80
80
80
80
80
80
80
00
80
ENDCHAR
STARTCHAR quotedbl
ENCODING 34
SWIDTH 383 0
DWIDTH 6 0
BBX 4 3 1 7
BITMAP
90
90
90
ENDCHAR
STARTCHAR numbersign
ENCODING 35
SWIDTH 470 0
DWIDTH 8 0
BBX 8 10 0 0
BITMAP
12
12
12
7F
24
24
FE
48
48
48
ENDCHAR
STARTCHAR dollar
ENCODING 36
SWIDTH 470 0
DWIDTH 8 0
BBX 6 12 1 -1
BITMAP
20
78
A4
A0
60
30
28
24
A4
A4
78
20
ENDCHAR
STARTCHAR percent
ENCODING 37
SWIDTH 782 0
DWIDTH 13 0
BBX 11 10 1 0
BITMAP
3080
4F00
8A00
8A00
94C0
6520
0A20
1220
1240
2180
ENDCHAR
STARTCHAR ampersand
ENCODING 38
SWIDTH 731 0
DWIDTH 12 0
BBX 11 10 1 0
BITMAP
1800
2400
2400
19C0
3080
5100
8900
8600
8620
79C0
ENDCHAR
STARTCHAR quotesingle
ENCODING 39
SWIDTH 169 0
DWIDTH 3 0
BBX 1 3 1 7
BITMAP
80
80
80
ENDCHAR
STARTCHAR parenleft
ENCODING 40
SWIDTH 313 0
DWIDTH 5 0
BBX 4 13 1 -3
BITMAP
10
20
40
40
80
80
80
80
80
40
40
20
10
ENDCHAR
STARTCHAR parenright
ENCODING 41
SWIDTH 313 0
DWIDTH 5 0
BBX 4 13 0 -3
BITMAP
80
40
20
20
10
10
10
10
10
20
20
40
80
ENDCHAR
STARTCHAR asterisk
ENCODING 42
SWIDTH 470 0
DWIDTH 8 0
BBX 5 6 1 4
BITMAP
20
A8
70
70
A8
20
ENDCHAR
STARTCHAR plus
ENCODING 43
SWIDTH 530 0
DWIDTH 8 0
BBX 7 7 0 0
BITMAP
10
10
10
FE
10
10
10
ENDCHAR
STARTCHAR comma
ENCODING 44
SWIDTH 235 0
DWIDTH 4 0
BBX 2 4 1 -3
BITMAP
C0
C0
40
80
ENDCHAR
STARTCHAR hyphen
ENCODING 45
SWIDTH 313 0
DWIDTH 5 0
BBX 4 1 1 3
BITMAP
F0
ENDCHAR
STARTCHAR period
ENCODING 46
SWIDTH 235 0
DWIDTH 4 0
BBX 2 2 1 0
BITMAP
C0
C0
ENDCHAR
STARTCHAR slash
ENCODING 47
SWIDTH 261 0
DWIDTH 4 0
BBX 4 10 0 0
BITMAP
10
10
20
20
20
40
40
40
80
80
ENDCHAR
STARTCHAR zero
ENCODING 48
SWIDTH 470 0
DWIDTH 8 0
BBX 7 10 0 0
BITMAP
38
44
82
82
82
82
82
82
44
38
ENDCHAR
STARTCHAR one
ENCODING 49
SWIDTH 470 0
DWIDTH 8 0
BBX 3 10 2 0
BITMAP
40
C0
40
40
40
40
40
40
40
E0
ENDCHAR
STARTCHAR two
ENCODING 50
SWIDTH 470 0
DWIDTH 8 0
BBX 7 10 0 0
BITMAP
30
48
84
04
04
08
10
20
42
FE
ENDCHAR
STARTCHAR three
ENCODING 51
SWIDTH 470 0
DWIDTH 8 0
BBX 6 10 1 0
BITMAP
70
88
08
10
70
08
04
04
88
70
ENDCHAR
STARTCHAR four
ENCODING 52
SWIDTH 470 0
DWIDTH 8 0
BBX 7 10 0 0
BITMAP
04
0C
14
24
44
84
FE
04
04
04
ENDCHAR
STARTCHAR five
ENCODING 53
SWIDTH 470 0
DWIDTH 8 0
BBX 7 10 0 0
BITMAP
3E
20
40
70
0C
02
02
02
84
78
ENDCHAR
STARTCHAR six
ENCODING 54
SWIDTH 470 0
DWIDTH 8 0
BBX 7 11 0 0
BITMAP
0C
10
20
40
78
84
82
82
82
44
38
ENDCHAR
STARTCHAR seven
ENCODING 55
SWIDTH 470 0
DWIDTH 8 0
BBX 7 10 0 0
BITMAP
7E
82
02
04
04
08
08
08
10
10
ENDCHAR
STARTCHAR eight
ENCODING 56
SWIDTH 470 0
DWIDTH 8 0
BBX 6 10 1 0
BITMAP
78
84
84
48
30
48
84
84
84
78
ENDCHAR
STARTCHAR nine
ENCODING 57
SWIDTH 470 0
DWIDTH 8 0
BBX 7 10 0 0
BITMAP
38
44
82
82
82
46
3A
04
08
30
ENDCHAR
STARTCHAR colon
ENCODING 58
SWIDTH 261 0
DWIDTH 4 0
BBX 2 7 1 0
BITMAP
C0
C0
00
00
00
C0
C0
ENDCHAR
STARTCHAR semicolon
ENCODING 59
SWIDTH 261 0
DWIDTH 4 0
BBX 2 9 1 -2
BITMAP
C0
C0
00
00
00
C0
C0
40
80
ENDCHAR
STARTCHAR less
ENCODING 60
SWIDTH 530 0
DWIDTH 8 0
BBX 7 8 1 0
BITMAP
06
18
60
80
80
60
18
06
ENDCHAR
STARTCHAR equal
ENCODING 61
SWIDTH 530 0
DWIDTH 8 0
BBX 7 4 1 2
BITMAP
FE
00
00
FE
ENDCHAR
STARTCHAR greater
ENCODING 62
SWIDTH 530 0
DWIDTH 8 0
BBX 7 8 1 0
BITMAP
C0
30
0C
02
02
0C
30
C0
ENDCHAR
STARTCHAR question
ENCODING 63
SWIDTH 417 0
DWIDTH 7 0
BBX 5 10 1 0
BITMAP
70
88
88
08
10
10
20
20
00
20
ENDCHAR
STARTCHAR at
ENCODING 64
SWIDTH 865 0
DWIDTH 14 0
BBX 10 10 2 0
BITMAP
1E00
2100
4080
8D40
9240
9240
9280
4D00
2080
1F00
ENDCHAR
STARTCHAR A
ENCODING 65
SWIDTH 678 0
DWIDTH 11 0
BBX 11 10 0 0
BITMAP
0400
0400
0A00
0A00
1100
1100
1F00
2080
2080
F1E0
ENDCHAR
STARTCHAR B
ENCODING 66
SWIDTH 627 0
DWIDTH 10 0
BBX 9 10 0 0
BITMAP
FF00
2080
2080
2100
3E00
2100
2080
2080
2100
FE00
ENDCHAR
STARTCHAR C
ENCODING 67
SWIDTH 627 0
DWIDTH 10 0
BBX 9 10 0 0
BITMAP
1E80
2180
4080
8000
8000
8000
8000
4000
2080
1F00
ENDCHAR
STARTCHAR D
ENCODING 68
SWIDTH 678 0
DWIDTH 11 0
BBX 10 10 0 0
BITMAP
FE00
2100
2080
2040
2040
2040
2040
2080
2100
FE00
ENDCHAR
STARTCHAR E
ENCODING 69
SWIDTH 574 0
DWIDTH 9 0
BBX 9 10 0 0
BITMAP
FF80
2080
2000
2100
3F00
2100
2000
2080
2080
FF80
ENDCHAR
STARTCHAR F
ENCODING 70
SWIDTH 522 0
DWIDTH 8 0
BBX 8 10 0 0
BITMAP
FF
21
20
22
3E
22
20
20
20
F8
ENDCHAR
STARTCHAR G
ENCODING 71
SWIDTH 678 0
DWIDTH 11 0
BBX 10 10 1 0
BITMAP
1E80
2180
4080
8000
8000
83C0
8080
4080
2080
1F00
ENDCHAR
STARTCHAR H
ENCODING 72
SWIDTH 678 0
DWIDTH 11 0
BBX 11 10 0 0
BITMAP
FBE0
2080
2080
2080
3F80
2080
2080
2080
2080
FBE0
ENDCHAR
STARTCHAR I
ENCODING 73
SWIDTH 313 0
DWIDTH 5 0
BBX 5 10 0 0
BITMAP
F8
20
20
20
20
20
20
20
20
F8
ENDCHAR
STARTCHAR J
ENCODING 74
SWIDTH 365 0
DWIDTH 6 0
BBX 6 10 0 0
BITMAP
7C
10
10
10
10
10
10
10
90
60
ENDCHAR
STARTCHAR K
ENCODING 75
SWIDTH 678 0
DWIDTH 11 0
BBX 11 10 0 0
BITMAP
FBC0
2100
2200
2400
2800
3400
2200
2100
2080
FBE0
ENDCHAR
STARTCHAR L
ENCODING 76
SWIDTH 574 0
DWIDTH 9 0
BBX 9 10 0 0
BITMAP
F800
2000
2000
2000
2000
2000
2000
2080
2080
FF80
ENDCHAR
STARTCHAR M
ENCODING 77
SWIDTH 835 0
DWIDTH 13 0
BBX 13 10 0 0
BITMAP
F038
3060
3060
28A0
28A0
2520
2520
2220
2220
F278
ENDCHAR
STARTCHAR N
ENCODING 78
SWIDTH 678 0
DWIDTH 11 0
BBX 11 10 0 0
BITMAP
E1E0
3040
2840
2840
2440
2240
2140
2140
20C0
F040
ENDCHAR
STARTCHAR O
ENCODING 79
SWIDTH 678 0
DWIDTH 11 0
BBX 9 10 1 0
BITMAP
1C00
2200
4100
8080
8080
8080
8080
4100
2200
1C00
ENDCHAR
STARTCHAR P
ENCODING 80
SWIDTH 522 0
DWIDTH 8 0
BBX 8 10 0 0
BITMAP
FC
22
21
21
22
3C
20
20
20
F8
ENDCHAR
STARTCHAR Q
ENCODING 81
SWIDTH 678 0
DWIDTH 11 0
BBX 9 13 1 -3
BITMAP
1C00
2200
4100
8080
8080
8080
8080
4100
2200
1C00
0800
0600
0180
ENDCHAR
STARTCHAR R
ENCODING 82
SWIDTH 627 0
DWIDTH 10 0
BBX 10 10 0 0
BITMAP
FC00
2200
2100
2100
2200
3C00
2400
2200
2100
F9C0
ENDCHAR
STARTCHAR S
ENCODING 83
SWIDTH 522 0
DWIDTH 8 0
BBX 6 10 1 0
BITMAP
74
8C
84
40
30
08
04
84
C4
B8
ENDCHAR
STARTCHAR T
ENCODING 84
SWIDTH 574 0
DWIDTH 9 0
BBX 9 10 0 0
BITMAP
FF80
8880
8880
0800
0800
0800
0800
0800
0800
3E00
ENDCHAR
STARTCHAR U
ENCODING 85
SWIDTH 678 0
DWIDTH 11 0
BBX 11 10 0 0
BITMAP
70E0
2040
2040
2040
2040
2040
2040
2040
1080
0F00
ENDCHAR
STARTCHAR V
ENCODING 86
SWIDTH 678 0
DWIDTH 11 0
BBX 10 10 1 0
BITMAP
F1C0
4080
2100
2100
2200
1200
1400
1400
0800
0800
ENDCHAR
STARTCHAR W
ENCODING 87
SWIDTH 887 0
DWIDTH 14 0
BBX 14 10 0 0
BITMAP
F79C
2108
2108
1110
1290
0AA0
0AA0
0440
0440
0440
ENDCHAR
STARTCHAR X
ENCODING 88
SWIDTH 678 0
DWIDTH 11 0
BBX 11 10 0 0
BITMAP
F9E0
2080
1100
0A00
0400
0400
0A00
1100
2080
F3E0
ENDCHAR
STARTCHAR Y
ENCODING 89
SWIDTH 678 0
DWIDTH 11 0
BBX 11 10 0 0
BITMAP
F9E0
2080
1100
0A00
0400
0400
0400
0400
0400
1F00
ENDCHAR
STARTCHAR Z
ENCODING 90
SWIDTH 574 0
DWIDTH 9 0
BBX 9 10 0 0
BITMAP
7F80
4100
4200
0400
0800
0800
1000
2080
4080
FF80
ENDCHAR
STARTCHAR bracketleft
ENCODING 91
SWIDTH 313 0
DWIDTH 5 0
BBX 3 13 1 -3
BITMAP
E0
80
80
80
80
80
80
80
80
80
80
80
E0
ENDCHAR
STARTCHAR backslash
ENCODING 92
SWIDTH 261 0
DWIDTH 4 0
BBX 4 10 0 0
BITMAP
80
80
40
40
40
20
20
20
10
10
ENDCHAR
STARTCHAR bracketright
ENCODING 93
SWIDTH 313 0
DWIDTH 5 0
BBX 3 13 1 -3
BITMAP
E0
20
20
20
20
20
20
20
20
20
20
20
E0
ENDCHAR
STARTCHAR asciicircum
ENCODING 94
SWIDTH 441 0
DWIDTH 7 0
BBX 7 6 0 4
BITMAP
10
28
28
44
44
82
ENDCHAR
STARTCHAR underscore
ENCODING 95
SWIDTH 470 0
DWIDTH 8 0
BBX 8 1 0 -2
BITMAP
FF
ENDCHAR
STARTCHAR grave
ENCODING 96
SWIDTH 313 0
DWIDTH 5 0
BBX 4 3 0 7
BITMAP
C0
60
10
ENDCHAR
STARTCHAR a
ENCODING 97
SWIDTH 417 0
DWIDTH 7 0
BBX 6 7 1 0
BITMAP
60
90
10
70
90
94
68
ENDCHAR
STARTCHAR b
ENCODING 98
SWIDTH 470 0
DWIDTH 8 0
BBX 7 10 0 0
BITMAP
40
C0
40
58
64
42
42
42
44
38
ENDCHAR
STARTCHAR c
ENCODING 99
SWIDTH 417 0
DWIDTH 7 0
BBX 6 7 0 0
BITMAP
38
44
80
80
80
44
38
ENDCHAR
STARTCHAR d
ENCODING 100
SWIDTH 470 0
DWIDTH 8 0
BBX 7 10 0 0
BITMAP
04
0C
04
34
4C
84
84
84
4C
36
ENDCHAR
STARTCHAR e
ENCODING 101
SWIDTH 417 0
DWIDTH 7 0
BBX 7 7 0 0
BITMAP
38
44
FC
80
82
44
38
ENDCHAR
STARTCHAR f
ENCODING 102
SWIDTH 313 0
DWIDTH 5 0
BBX 6 10 0 0
BITMAP
18
24
20
F8
20
20
20
20
20
F8
ENDCHAR
STARTCHAR g
ENCODING 103
SWIDTH 446 0
DWIDTH 7 0
BBX 7 10 0 -3
BITMAP
3E
44
44
44
38
40
7C
82
82
7C
ENDCHAR
STARTCHAR h
ENCODING 104
SWIDTH 470 0
DWIDTH 8 0
BBX 7 10 0 0
BITMAP
40
C0
40
58
64
44
44
44
44
EE
ENDCHAR
STARTCHAR i
ENCODING 105
SWIDTH 261 0
DWIDTH 4 0
BBX 4 10 0 0
BITMAP
20
00
00
20
60
20
20
20
20
70
ENDCHAR
STARTCHAR j
ENCODING 106
SWIDTH 261 0
DWIDTH 4 0
BBX 4 13 -1 -3
BITMAP
10
00
00
10
30
10
10
10
10
10
10
90
60
ENDCHAR
STARTCHAR k
ENCODING 107
SWIDTH 470 0
DWIDTH 8 0
BBX 8 10 0 0
BITMAP
40
C0
40
4E
44
48
70
48
44
EF
ENDCHAR
STARTCHAR l
ENCODING 108
SWIDTH 261 0
DWIDTH 4 0
BBX 4 10 0 0
BITMAP
20
60
20
20
20
20
20
20
20
70
ENDCHAR
STARTCHAR m
ENCODING 109
SWIDTH 731 0
DWIDTH 12 0
BBX 12 7 0 0
BITMAP
5980
E640
4440
4440
4440
4440
EEE0
ENDCHAR
STARTCHAR n
ENCODING 110
SWIDTH 470 0
DWIDTH 8 0
BBX 7 7 0 0
BITMAP
58
E4
44
44
44
44
EE
ENDCHAR
STARTCHAR o
ENCODING 111
SWIDTH 470 0
DWIDTH 8 0
BBX 7 7 0 0
BITMAP
38
44
82
82
82
44
38
ENDCHAR
STARTCHAR p
ENCODING 112
SWIDTH 470 0
DWIDTH 8 0
BBX 7 10 0 -3
BITMAP
58
E4
42
42
42
64
58
40
40
E0
ENDCHAR
STARTCHAR q
ENCODING 113
SWIDTH 470 0
DWIDTH 8 0
BBX 7 10 0 -3
BITMAP
3A
44
84
84
84
4C
34
04
04
0E
ENDCHAR
STARTCHAR r
ENCODING 114
SWIDTH 313 0
DWIDTH 5 0
BBX 5 7 0 0
BITMAP
50
E8
40
40
40
40
E0
ENDCHAR
STARTCHAR s
ENCODING 115
SWIDTH 365 0
DWIDTH 6 0
BBX 4 7 1 0
BITMAP
70
90
80
60
10
90
E0
ENDCHAR
STARTCHAR t
ENCODING 116
SWIDTH 261 0
DWIDTH 4 0
BBX 4 9 0 0
BITMAP
40
40
F0
40
40
40
40
40
30
ENDCHAR
STARTCHAR u
ENCODING 117
SWIDTH 470 0
DWIDTH 8 0
BBX 7 7 0 0
BITMAP
CC
44
44
44
44
4C
36
ENDCHAR
STARTCHAR v
ENCODING 118
SWIDTH 470 0
DWIDTH 8 0
BBX 7 7 0 0
BITMAP
EE
44
44
28
28
10
10
ENDCHAR
STARTCHAR w
ENCODING 119
SWIDTH 678 0
DWIDTH 11 0
BBX 11 7 0 0
BITMAP
EEE0
4440
4440
2A80
2A80
1100
1100
ENDCHAR
STARTCHAR x
ENCODING 120
SWIDTH 470 0
DWIDTH 8 0
BBX 7 7 0 0
BITMAP
EE
44
28
10
28
44
EE
ENDCHAR
STARTCHAR y
ENCODING 121
SWIDTH 470 0
DWIDTH 8 0
BBX 8 10 0 -3
BITMAP
E7
42
22
24
14
08
08
10
90
60
ENDCHAR
STARTCHAR z
ENCODING 122
SWIDTH 417 0
DWIDTH 7 0
BBX 6 7 0 0
BITMAP
7C
44
08
10
20
44
FC
ENDCHAR
STARTCHAR braceleft
ENCODING 123
SWIDTH 451 0
DWIDTH 7 0
BBX 3 13 2 -3
BITMAP
20
40
40
40
40
40
80
40
40
40
40
40
20
ENDCHAR
STARTCHAR bar
ENCODING 124
SWIDTH 188 0
DWIDTH 3 0
BBX 1 10 1 0
BITMAP
80
80
80
80
80
80
80
80
80
80
ENDCHAR
STARTCHAR braceright
ENCODING 125
SWIDTH 451 0
DWIDTH 7 0
BBX 3 13 2 -3
BITMAP
80
40
40
40
40
40
20
40
40
40
40
40
80
ENDCHAR
STARTCHAR asciitilde
ENCODING 126
SWIDTH 508 0
DWIDTH 8 0
BBX 8 2 0 3
BITMAP
72
8C
ENDCHAR
STARTCHAR char007f
ENCODING 127
SWIDTH 500 0
DWIDTH 8 0
BBX 0 0 3 -3
BITMAP
ENDCHAR
STARTCHAR Adieresis
ENCODING 128
SWIDTH 500 0
DWIDTH 8 0
BBX 5 15 2 -3
BITMAP
80
80
80
40
40
40
20
20
20
10
10
10
08
08
08
ENDCHAR
STARTCHAR Aring
ENCODING 129
SWIDTH 42 0
DWIDTH 1 0
BBX 1 16 0 -3
BITMAP
80
80
80
80
80
80
80
80
80
80
80
80
80
80
80
80
ENDCHAR
STARTCHAR Ccedilla
ENCODING 130
SWIDTH 1000 0
DWIDTH 16 0
BBX 16 1 0 0
BITMAP
FFFF
ENDCHAR
STARTCHAR Eacute
ENCODING 131
SWIDTH 1000 0
DWIDTH 16 0
BBX 16 16 0 -3
BITMAP
FFFF
FFFF
FFFF
FFFF
FFFF
FFFF
FFFF
FFFF
FFFF
FFFF
FFFF
FFFF
FFFF
FFFF
FFFF
FFFF
ENDCHAR
STARTCHAR Ntilde
ENCODING 132
SWIDTH 1000 0
DWIDTH 16 0
BBX 16 16 0 -3
BITMAP
FFFF
FFFF
FFFF
FFFF
FFFF
FFFF
FFFF
FFFF
FFFF
FFFF
FFFF
FFFF
FFFF
FFFF
FFFF
FFFF
ENDCHAR
STARTCHAR Odieresis
ENCODING 133
SWIDTH 1000 0
DWIDTH 16 0
BBX 16 16 0 -3
BITMAP
FFFF
FFFF
FFFF
FFFF
FFFF
FFFF
FFFF
FFFF
FFFF
FFFF
FFFF
FFFF
FFFF
FFFF
FFFF
FFFF
ENDCHAR
STARTCHAR Udieresis
ENCODING 134
SWIDTH 1000 0
DWIDTH 16 0
BBX 16 16 0 -3
BITMAP
FFFF
FFFF
FFFF
FFFF
FFFF
FFFF
FFFF
FFFF
FFFF
FFFF
FFFF
FFFF
FFFF
FFFF
FFFF
FFFF
ENDCHAR
STARTCHAR aacute
ENCODING 135
SWIDTH 1000 0
DWIDTH 16 0
BBX 16 16 0 -3
BITMAP
FFFF
FFFF
FFFF
FFFF
FFFF
FFFF
FFFF
FFFF
FFFF
FFFF
FFFF
FFFF
FFFF
FFFF
FFFF
FFFF
ENDCHAR
STARTCHAR agrave
ENCODING 136
SWIDTH 1000 0
DWIDTH 16 0
BBX 16 16 0 -3
BITMAP
FFFF
FFFF
FFFF
FFFF
FFFF
FFFF
FFFF
FFFF
FFFF
FFFF
FFFF
FFFF
FFFF
FFFF
FFFF
FFFF
ENDCHAR
STARTCHAR acircumflex
ENCODING 137
SWIDTH 1000 0
DWIDTH 16 0
BBX 16 16 0 -3
BITMAP
FFFF
FFFF
FFFF
FFFF
FFFF
FFFF
FFFF
FFFF
FFFF
FFFF
FFFF
FFFF
FFFF
FFFF
FFFF
FFFF
ENDCHAR
STARTCHAR adieresis
ENCODING 138
SWIDTH 1000 0
DWIDTH 16 0
BBX 16 16 0 -3
BITMAP
FFFF
FFFF
FFFF
FFFF
FFFF
FFFF
FFFF
FFFF
FFFF
FFFF
FFFF
FFFF
FFFF
FFFF
FFFF
FFFF
ENDCHAR
STARTCHAR atilde
ENCODING 139
SWIDTH 1000 0
DWIDTH 16 0
BBX 16 16 0 -3
BITMAP
FFFF
FFFF
FFFF
FFFF
FFFF
FFFF
FFFF
FFFF
FFFF
FFFF
FFFF
FFFF
FFFF
FFFF
FFFF
FFFF
ENDCHAR
STARTCHAR aring
ENCODING 140
SWIDTH 1000 0
DWIDTH 16 0
BBX 16 16 0 -3
BITMAP
FFFF
FFFF
FFFF
FFFF
FFFF
FFFF
FFFF
FFFF
FFFF
FFFF
FFFF
FFFF
FFFF
FFFF
FFFF
FFFF
ENDCHAR
STARTCHAR ccedilla
ENCODING 141
SWIDTH 1000 0
DWIDTH 16 0
BBX 16 16 0 -3
BITMAP
FFFF
FFFF
FFFF
FFFF
FFFF
FFFF
FFFF
FFFF
FFFF
FFFF
FFFF
FFFF
FFFF
FFFF
FFFF
FFFF
ENDCHAR
STARTCHAR eacute
ENCODING 142
SWIDTH 1000 0
DWIDTH 16 0
BBX 16 16 0 -3
BITMAP
FFFF
FFFF
FFFF
FFFF
FFFF
FFFF
FFFF
FFFF
FFFF
FFFF
FFFF
FFFF
FFFF
FFFF
FFFF
FFFF
ENDCHAR
STARTCHAR egrave
ENCODING 143
SWIDTH 1000 0
DWIDTH 16 0
BBX 16 16 0 -3
BITMAP
FFFF
FFFF
FFFF
FFFF
FFFF
FFFF
FFFF
FFFF
FFFF
FFFF
FFFF
FFFF
FFFF
FFFF
FFFF
FFFF
ENDCHAR
STARTCHAR ecircumflex
ENCODING 144
SWIDTH 1000 0
DWIDTH 16 0
BBX 16 16 0 -3
BITMAP
FFFF
FFFF
FFFF
FFFF
FFFF
FFFF
FFFF
FFFF
FFFF
FFFF
FFFF
FFFF
FFFF
FFFF
FFFF
FFFF
ENDCHAR
STARTCHAR edieresis
ENCODING 145
SWIDTH 1000 0
DWIDTH 16 0
BBX 16 16 0 -3
BITMAP
FFFF
FFFF
FFFF
FFFF
FFFF
FFFF
FFFF
FFFF
FFFF
FFFF
FFFF
FFFF
FFFF
FFFF
FFFF
FFFF
ENDCHAR
STARTCHAR iacute
ENCODING 146
SWIDTH 1000 0
DWIDTH 16 0
BBX 16 16 0 -3
BITMAP
FFFF
FFFF
FFFF
FFFF
FFFF
FFFF
FFFF
FFFF
FFFF
FFFF
FFFF
FFFF
FFFF
FFFF
FFFF
FFFF
ENDCHAR
STARTCHAR igrave
ENCODING 147
SWIDTH 1000 0
DWIDTH 16 0
BBX 16 16 0 -3
BITMAP
FFFF
FFFF
FFFF
FFFF
FFFF
FFFF
FFFF
FFFF
FFFF
FFFF
FFFF
FFFF
FFFF
FFFF
FFFF
FFFF
ENDCHAR
STARTCHAR icircumflex
ENCODING 148
SWIDTH 1000 0
DWIDTH 16 0
BBX 16 16 0 -3
BITMAP
FFFF
FFFF
FFFF
FFFF
FFFF
FFFF
FFFF
FFFF
FFFF
FFFF
FFFF
FFFF
FFFF
FFFF
FFFF
FFFF
ENDCHAR
STARTCHAR idieresis
ENCODING 149
SWIDTH 1000 0
DWIDTH 16 0
BBX 16 16 0 -3
BITMAP
FFFF
FFFF
FFFF
FFFF
FFFF
FFFF
FFFF
FFFF
FFFF
FFFF
FFFF
FFFF
FFFF
FFFF
FFFF
FFFF
ENDCHAR
STARTCHAR ntilde
ENCODING 150
SWIDTH 1000 0
DWIDTH 16 0
BBX 16 16 0 -3
BITMAP
FFFF
FFFF
FFFF
FFFF
FFFF
FFFF
FFFF
FFFF
FFFF
FFFF
FFFF
FFFF
FFFF
FFFF
FFFF
FFFF
ENDCHAR
STARTCHAR oacute
ENCODING 151
SWIDTH 1000 0
DWIDTH 16 0
BBX 16 16 0 -3
BITMAP
FFFF
FFFF
FFFF
FFFF
FFFF
FFFF
FFFF
FFFF
FFFF
FFFF
FFFF
FFFF
FFFF
FFFF
FFFF
FFFF
ENDCHAR
STARTCHAR ograve
ENCODING 152
SWIDTH 1000 0
DWIDTH 16 0
BBX 16 16 0 -3
BITMAP
FFFF
FFFF
FFFF
FFFF
FFFF
FFFF
FFFF
FFFF
FFFF
FFFF
FFFF
FFFF
FFFF
FFFF
FFFF
FFFF
ENDCHAR
STARTCHAR ocircumflex
ENCODING 153
SWIDTH 1000 0
DWIDTH 16 0
BBX 16 16 0 -3
BITMAP
FFFF
FFFF
FFFF
FFFF
FFFF
FFFF
FFFF
FFFF
FFFF
FFFF
FFFF
FFFF
FFFF
FFFF
FFFF
FFFF
ENDCHAR
STARTCHAR odieresis
ENCODING 154
SWIDTH 1000 0
DWIDTH 16 0
BBX 16 16 0 -3
BITMAP
FFFF
FFFF
FFFF
FFFF
FFFF
FFFF
FFFF
FFFF
FFFF
FFFF
FFFF
FFFF
FFFF
FFFF
FFFF
FFFF
ENDCHAR
STARTCHAR otilde
ENCODING 155
SWIDTH 1000 0
DWIDTH 16 0
BBX 16 16 0 -3
BITMAP
FFFF
FFFF
FFFF
FFFF
FFFF
FFFF
FFFF
FFFF
FFFF
FFFF
FFFF
FFFF
FFFF
FFFF
FFFF
FFFF
ENDCHAR
STARTCHAR uacute
ENCODING 156
SWIDTH 1000 0
DWIDTH 16 0
BBX 16 16 0 -3
BITMAP
FFFF
FFFF
FFFF
FFFF
FFFF
FFFF
FFFF
FFFF
FFFF
FFFF
FFFF
FFFF
FFFF
FFFF
FFFF
FFFF
ENDCHAR
STARTCHAR ugrave
ENCODING 157
SWIDTH 1000 0
DWIDTH 16 0
BBX 16 16 0 -3
BITMAP
FFFF
FFFF
FFFF
FFFF
FFFF
FFFF
FFFF
FFFF
FFFF
FFFF
FFFF
FFFF
FFFF
FFFF
FFFF
FFFF
ENDCHAR
STARTCHAR ucircumflex
ENCODING 158
SWIDTH 1000 0
DWIDTH 16 0
BBX 16 16 0 -3
BITMAP
FFFF
FFFF
FFFF
FFFF
FFFF
FFFF
FFFF
FFFF
FFFF
FFFF
FFFF
FFFF
FFFF
FFFF
FFFF
FFFF
ENDCHAR
STARTCHAR udieresis
ENCODING 159
SWIDTH 1000 0
DWIDTH 16 0
BBX 16 16 0 -3
BITMAP
FFFF
FFFF
FFFF
FFFF
FFFF
FFFF
FFFF
FFFF
FFFF
FFFF
FFFF
FFFF
FFFF
FFFF
FFFF
FFFF
ENDCHAR
STARTCHAR dagger
ENCODING 160
SWIDTH 500 0
DWIDTH 8 0
BBX 0 0 3 -3
BITMAP
ENDCHAR
STARTCHAR degree
ENCODING 161
SWIDTH 500 0
DWIDTH 8 0
BBX 0 0 3 -3
BITMAP
ENDCHAR
STARTCHAR cent
ENCODING 162
SWIDTH 500 0
DWIDTH 8 0
BBX 0 0 3 -3
BITMAP
ENDCHAR
STARTCHAR sterling
ENCODING 163
SWIDTH 500 0
DWIDTH 8 0
BBX 0 0 3 -3
BITMAP
ENDCHAR
STARTCHAR section
ENCODING 164
SWIDTH 500 0
DWIDTH 8 0
BBX 0 0 3 -3
BITMAP
ENDCHAR
STARTCHAR bullet
ENCODING 165
SWIDTH 500 0
DWIDTH 8 0
BBX 0 0 3 -3
BITMAP
ENDCHAR
STARTCHAR paragraph
ENCODING 166
SWIDTH 500 0
DWIDTH 8 0
BBX 0 0 3 -3
BITMAP
ENDCHAR
STARTCHAR germandbls
ENCODING 167
SWIDTH 500 0
DWIDTH 8 0
BBX 0 0 3 -3
BITMAP
ENDCHAR
STARTCHAR registered
ENCODING 168
SWIDTH 500 0
DWIDTH 8 0
BBX 0 0 3 -3
BITMAP
ENDCHAR
STARTCHAR copyright
ENCODING 169
SWIDTH 500 0
DWIDTH 8 0
BBX 0 0 3 -3
BITMAP
ENDCHAR
STARTCHAR trademark
ENCODING 170
SWIDTH 500 0
DWIDTH 8 0
BBX 0 0 3 -3
BITMAP
ENDCHAR
STARTCHAR acute
ENCODING 171
SWIDTH 500 0
DWIDTH 8 0
BBX 0 0 3 -3
BITMAP
ENDCHAR
STARTCHAR dieresis
ENCODING 172
SWIDTH 500 0
DWIDTH 8 0
BBX 0 0 3 -3
BITMAP
ENDCHAR
STARTCHAR notequal
ENCODING 173
SWIDTH 500 0
DWIDTH 8 0
BBX 0 0 3 -3
BITMAP
ENDCHAR
STARTCHAR AE
ENCODING 174
SWIDTH 500 0
DWIDTH 8 0
BBX 0 0 3 -3
BITMAP
ENDCHAR
STARTCHAR Oslash
ENCODING 175
SWIDTH 500 0
DWIDTH 8 0
BBX 0 0 3 -3
BITMAP
ENDCHAR
STARTCHAR infinity
ENCODING 176
SWIDTH 500 0
DWIDTH 8 0
BBX 0 0 3 -3
BITMAP
ENDCHAR
STARTCHAR plusminus
ENCODING 177
SWIDTH 500 0
DWIDTH 8 0
BBX 0 0 3 -3
BITMAP
ENDCHAR
STARTCHAR lessequal
ENCODING 178
SWIDTH 500 0
DWIDTH 8 0
BBX 0 0 3 -3
BITMAP
ENDCHAR
STARTCHAR greaterequal
ENCODING 179
SWIDTH 500 0
DWIDTH 8 0
BBX 0 0 3 -3
BITMAP
ENDCHAR
STARTCHAR yen
ENCODING 180
SWIDTH 500 0
DWIDTH 8 0
BBX 0 0 3 -3
BITMAP
ENDCHAR
STARTCHAR mu
ENCODING 181
SWIDTH 500 0
DWIDTH 8 0
BBX 0 0 3 -3
BITMAP
ENDCHAR
STARTCHAR partialdiff
ENCODING 182
SWIDTH 500 0
DWIDTH 8 0
BBX 0 0 3 -3
BITMAP
ENDCHAR
STARTCHAR summation
ENCODING 183
SWIDTH 500 0
DWIDTH 8 0
BBX 0 0 3 -3
BITMAP
ENDCHAR
STARTCHAR product
ENCODING 184
SWIDTH 500 0
DWIDTH 8 0
BBX 0 0 3 -3
BITMAP
ENDCHAR
STARTCHAR pi
ENCODING 185
SWIDTH 500 0
DWIDTH 8 0
BBX 0 0 3 -3
BITMAP
ENDCHAR
STARTCHAR integral
ENCODING 186
SWIDTH 500 0
DWIDTH 8 0
BBX 0 0 3 -3
BITMAP
ENDCHAR
STARTCHAR ordfeminine
ENCODING 187
SWIDTH 500 0
DWIDTH 8 0
BBX 0 0 3 -3
BITMAP
ENDCHAR
STARTCHAR ordmasculine
ENCODING 188
SWIDTH 500 0
DWIDTH 8 0
BBX 0 0 3 -3
BITMAP
ENDCHAR
STARTCHAR Omega
ENCODING 189
SWIDTH 500 0
DWIDTH 8 0
BBX 0 0 3 -3
BITMAP
ENDCHAR
STARTCHAR ae
ENCODING 190
SWIDTH 500 0
DWIDTH 8 0
BBX 0 0 3 -3
BITMAP
ENDCHAR
STARTCHAR oslash
ENCODING 191
SWIDTH 500 0
DWIDTH 8 0
BBX 0 0 3 -3
BITMAP
ENDCHAR
STARTCHAR questiondown
ENCODING 192
SWIDTH 500 0
DWIDTH 8 0
BBX 0 0 3 -3
BITMAP
ENDCHAR
STARTCHAR exclamdown
ENCODING 193
SWIDTH 500 0
DWIDTH 8 0
BBX 0 0 3 -3
BITMAP
ENDCHAR
STARTCHAR logicalnot
ENCODING 194
SWIDTH 500 0
DWIDTH 8 0
BBX 0 0 3 -3
BITMAP
ENDCHAR
STARTCHAR radical
ENCODING 195
SWIDTH 500 0
DWIDTH 8 0
BBX 0 0 3 -3
BITMAP
ENDCHAR
STARTCHAR florin
ENCODING 196
SWIDTH 500 0
DWIDTH 8 0
BBX 0 0 3 -3
BITMAP
ENDCHAR
STARTCHAR approxequal
ENCODING 197
SWIDTH 500 0
DWIDTH 8 0
BBX 0 0 3 -3
BITMAP
ENDCHAR
STARTCHAR Delta
ENCODING 198
SWIDTH 500 0
DWIDTH 8 0
BBX 0 0 3 -3
BITMAP
ENDCHAR
STARTCHAR guillemotleft
ENCODING 199
SWIDTH 500 0
DWIDTH 8 0
BBX 0 0 3 -3
BITMAP
ENDCHAR
STARTCHAR guillemotright
ENCODING 200
SWIDTH 500 0
DWIDTH 8 0
BBX 0 0 3 -3
BITMAP
ENDCHAR
STARTCHAR ellipsis
ENCODING 201
SWIDTH 500 0
DWIDTH 8 0
BBX 0 0 3 -3
BITMAP
ENDCHAR
STARTCHAR nbspace
ENCODING 202
SWIDTH 500 0
DWIDTH 8 0
BBX 0 0 3 -3
BITMAP
ENDCHAR
STARTCHAR Agrave
ENCODING 203
SWIDTH 500 0
DWIDTH 8 0
BBX 0 0 3 -3
BITMAP
ENDCHAR
STARTCHAR Atilde
ENCODING 204
SWIDTH 500 0
DWIDTH 8 0
BBX 0 0 3 -3
BITMAP
ENDCHAR
STARTCHAR Otilde
ENCODING 205
SWIDTH 500 0
DWIDTH 8 0
BBX 0 0 3 -3
BITMAP
ENDCHAR
STARTCHAR OE
ENCODING 206
SWIDTH 500 0
DWIDTH 8 0
BBX 0 0 3 -3
BITMAP
ENDCHAR
STARTCHAR oe
ENCODING 207
SWIDTH 500 0
DWIDTH 8 0
BBX 0 0 3 -3
BITMAP
ENDCHAR
STARTCHAR endash
ENCODING 208
SWIDTH 500 0
DWIDTH 8 0
BBX 0 0 3 -3
BITMAP
ENDCHAR
STARTCHAR emdash
ENCODING 209
SWIDTH 500 0
DWIDTH 8 0
BBX 0 0 3 -3
BITMAP
ENDCHAR
STARTCHAR quotedblleft
ENCODING 210
SWIDTH 500 0
DWIDTH 8 0
BBX 0 0 3 -3
BITMAP
ENDCHAR
STARTCHAR quotedblright
ENCODING 211
SWIDTH 500 0
DWIDTH 8 0
BBX 0 0 3 -3
BITMAP
ENDCHAR
STARTCHAR quoteleft
ENCODING 212
SWIDTH 500 0
DWIDTH 8 0
BBX 0 0 3 -3
BITMAP
ENDCHAR
STARTCHAR quoteright
ENCODING 213
SWIDTH 500 0
DWIDTH 8 0
BBX 0 0 3 -3
BITMAP
ENDCHAR
STARTCHAR divide
ENCODING 214
SWIDTH 500 0
DWIDTH 8 0
BBX 0 0 3 -3
BITMAP
ENDCHAR
STARTCHAR lozenge
ENCODING 215
SWIDTH 500 0
DWIDTH 8 0
BBX 0 0 3 -3
BITMAP
ENDCHAR
STARTCHAR ydieresis
ENCODING 216
SWIDTH 500 0
DWIDTH 8 0
BBX 0 0 3 -3
BITMAP
ENDCHAR
STARTCHAR Ydieresis
ENCODING 217
SWIDTH 500 0
DWIDTH 8 0
BBX 0 0 3 -3
BITMAP
ENDCHAR
STARTCHAR fraction
ENCODING 218
SWIDTH 500 0
DWIDTH 8 0
BBX 0 0 3 -3
BITMAP
ENDCHAR
STARTCHAR currency
ENCODING 219
SWIDTH 500 0
DWIDTH 8 0
BBX 0 0 3 -3
BITMAP
ENDCHAR
STARTCHAR guilsinglleft
ENCODING 220
SWIDTH 500 0
DWIDTH 8 0
BBX 0 0 3 -3
BITMAP
ENDCHAR
STARTCHAR guilsinglright
ENCODING 221
SWIDTH 500 0
DWIDTH 8 0
BBX 0 0 3 -3
BITMAP
ENDCHAR
STARTCHAR fi
ENCODING 222
SWIDTH 500 0
DWIDTH 8 0
BBX 0 0 3 -3
BITMAP
ENDCHAR
STARTCHAR fl
ENCODING 223
SWIDTH 500 0
DWIDTH 8 0
BBX 0 0 3 -3
BITMAP
ENDCHAR
STARTCHAR daggerdbl
ENCODING 224
SWIDTH 500 0
DWIDTH 8 0
BBX 0 0 3 -3
BITMAP
ENDCHAR
STARTCHAR periodcentered
ENCODING 225
SWIDTH 500 0
DWIDTH 8 0
BBX 0 0 3 -3
BITMAP
ENDCHAR
STARTCHAR quotesinglbase
ENCODING 226
SWIDTH 500 0
DWIDTH 8 0
BBX 0 0 3 -3
BITMAP
ENDCHAR
STARTCHAR quotedblbase
ENCODING 227
SWIDTH 500 0
DWIDTH 8 0
BBX 0 0 3 -3
BITMAP
ENDCHAR
STARTCHAR perthousand
ENCODING 228
SWIDTH 500 0
DWIDTH 8 0
BBX 0 0 3 -3
BITMAP
ENDCHAR
STARTCHAR Acircumflex
ENCODING 229
SWIDTH 500 0
DWIDTH 8 0
BBX 0 0 3 -3
BITMAP
ENDCHAR
STARTCHAR Ecircumflex
ENCODING 230
SWIDTH 500 0
DWIDTH 8 0
BBX 0 0 3 -3
BITMAP
ENDCHAR
STARTCHAR Aacute
ENCODING 231
SWIDTH 500 0
DWIDTH 8 0
BBX 0 0 3 -3
BITMAP
ENDCHAR
STARTCHAR Edieresis
ENCODING 232
SWIDTH 500 0
DWIDTH 8 0
BBX 0 0 3 -3
BITMAP
ENDCHAR
STARTCHAR Egrave
ENCODING 233
SWIDTH 500 0
DWIDTH 8 0
BBX 0 0 3 -3
BITMAP
ENDCHAR
STARTCHAR Iacute
ENCODING 234
SWIDTH 500 0
DWIDTH 8 0
BBX 0 0 3 -3
BITMAP
ENDCHAR
STARTCHAR Icircumflex
ENCODING 235
SWIDTH 500 0
DWIDTH 8 0
BBX 0 0 3 -3
BITMAP
ENDCHAR
STARTCHAR Idieresis
ENCODING 236
SWIDTH 500 0
DWIDTH 8 0
BBX 0 0 3 -3
BITMAP
ENDCHAR
STARTCHAR Igrave
ENCODING 237
SWIDTH 500 0
DWIDTH 8 0
BBX 0 0 3 -3
BITMAP
ENDCHAR
STARTCHAR Oacute
ENCODING 238
SWIDTH 500 0
DWIDTH 8 0
BBX 0 0 3 -3
BITMAP
ENDCHAR
STARTCHAR Ocircumflex
ENCODING 239
SWIDTH 500 0
DWIDTH 8 0
BBX 0 0 3 -3
BITMAP
ENDCHAR
STARTCHAR apple
ENCODING 240
SWIDTH 500 0
DWIDTH 8 0
BBX 0 0 3 -3
BITMAP
ENDCHAR
STARTCHAR Ograve
ENCODING 241
SWIDTH 500 0
DWIDTH 8 0
BBX 0 0 3 -3
BITMAP
ENDCHAR
STARTCHAR Uacute
ENCODING 242
SWIDTH 500 0
DWIDTH 8 0
BBX 0 0 3 -3
BITMAP
ENDCHAR
STARTCHAR Ucircumflex
ENCODING 243
SWIDTH 500 0
DWIDTH 8 0
BBX 0 0 3 -3
BITMAP
ENDCHAR
STARTCHAR Ugrave
ENCODING 244
SWIDTH 500 0
DWIDTH 8 0
BBX 0 0 3 -3
BITMAP
ENDCHAR
STARTCHAR dotlessi
ENCODING 245
SWIDTH 500 0
DWIDTH 8 0
BBX 0 0 3 -3
BITMAP
ENDCHAR
STARTCHAR circumflex
ENCODING 246
SWIDTH 500 0
DWIDTH 8 0
BBX 0 0 3 -3
BITMAP
ENDCHAR
STARTCHAR tilde
ENCODING 247
SWIDTH 500 0
DWIDTH 8 0
BBX 0 0 3 -3
BITMAP
ENDCHAR
STARTCHAR macron
ENCODING 248
SWIDTH 500 0
DWIDTH 8 0
BBX 0 0 3 -3
BITMAP
ENDCHAR
STARTCHAR breve
ENCODING 249
SWIDTH 500 0
DWIDTH 8 0
BBX 0 0 3 -3
BITMAP
ENDCHAR
STARTCHAR dotaccent
ENCODING 250
SWIDTH 500 0
DWIDTH 8 0
BBX 0 0 3 -3
BITMAP
ENDCHAR
STARTCHAR ring
ENCODING 251
SWIDTH 500 0
DWIDTH 8 0
BBX 0 0 3 -3
BITMAP
ENDCHAR
STARTCHAR cedilla
ENCODING 252
SWIDTH 500 0
DWIDTH 8 0
BBX 0 0 3 -3
BITMAP
ENDCHAR
STARTCHAR hungarumlaut
ENCODING 253
SWIDTH 714 0
DWIDTH 11 0
BBX 10 10 1 0
BITMAP
1E00
2100
4C80
9240
A040
A040
9240
4C80
2100
1E00
ENDCHAR
STARTCHAR ogonek
ENCODING 254
SWIDTH 920 0
DWIDTH 15 0
BBX 14 6 1 4
BITMAP
FF1C
AB18
22A8
22A8
2248
775C
ENDCHAR
STARTCHAR caron
ENCODING 255
SWIDTH 939 0
DWIDTH 15 0
BBX 10 2 2 0
BITMAP
CCC0
CCC0
ENDCHAR
ENDFONT
