STARTFONT 2.1
FONT -Fondu-BiauKai-Medium-R-Normal--24-230-75-75-P-123-MacRoman-1
SIZE 23 75 75
FONTBOUNDINGBOX 24 25 0 -4
COMMENT Created by Fondu from a mac NFNT/FONT resource
STARTPROPERTIES 17
FOUNDRY "Fondu"
FAMILY_NAME "BiauKai"
WEIGHT_NAME "Medium"
SLANT "R"
SETWIDTH_NAME "Normal"
ADD_STYLE_NAME ""
PIXEL_SIZE 24
POINT_SIZE 230
RESOLUTION_X 75
RESOLUTION_Y 75
SPACING "P"
AVERAGE_WIDTH 123
CHARSET_REGISTRY "MacRoman"
CHARSET_ENCODING "1"
FONT_ASCENT 21
FONT_DESCENT 4
FACE_NAME "BiauKai"
ENDPROPERTIES
CHARS 252
STARTCHAR Eth
ENCODING 1
SWIDTH 0 0
DWIDTH 0 0
BBX 0 0 0 -4
BITMAP
ENDCHAR
STARTCHAR eth
ENCODING 2
SWIDTH 0 0
DWIDTH 0 0
BBX 0 0 0 -4
BITMAP
ENDCHAR
STARTCHAR Lslash
ENCODING 3
SWIDTH 0 0
DWIDTH 0 0
BBX 0 0 0 -4
BITMAP
ENDCHAR
STARTCHAR lslash
ENCODING 4
SWIDTH 0 0
DWIDTH 0 0
BBX 0 0 0 -4
BITMAP
ENDCHAR
STARTCHAR Scaron
ENCODING 5
SWIDTH 0 0
DWIDTH 0 0
BBX 0 0 0 -4
BITMAP
ENDCHAR
STARTCHAR scaron
ENCODING 6
SWIDTH 0 0
DWIDTH 0 0
BBX 0 0 0 -4
BITMAP
ENDCHAR
STARTCHAR Yacute
ENCODING 7
SWIDTH 0 0
DWIDTH 0 0
BBX 0 0 0 -4
BITMAP
ENDCHAR
STARTCHAR yacute
ENCODING 8
SWIDTH 0 0
DWIDTH 0 0
BBX 0 0 0 -4
BITMAP
ENDCHAR
STARTCHAR char000a
ENCODING 10
SWIDTH 0 0
DWIDTH 0 0
BBX 0 0 0 -4
BITMAP
ENDCHAR
STARTCHAR Thorn
ENCODING 11
SWIDTH 0 0
DWIDTH 0 0
BBX 0 0 0 -4
BITMAP
ENDCHAR
STARTCHAR thorn
ENCODING 12
SWIDTH 0 0
DWIDTH 0 0
BBX 0 0 0 -4
BITMAP
ENDCHAR
STARTCHAR Zcaron
ENCODING 14
SWIDTH 0 0
DWIDTH 0 0
BBX 0 0 0 -4
BITMAP
ENDCHAR
STARTCHAR zcaron
ENCODING 15
SWIDTH 0 0
DWIDTH 0 0
BBX 0 0 0 -4
BITMAP
ENDCHAR
STARTCHAR char0010
ENCODING 16
SWIDTH 0 0
DWIDTH 0 0
BBX 0 0 0 -4
BITMAP
ENDCHAR
STARTCHAR char0011
ENCODING 17
SWIDTH 500 0
DWIDTH 14 0
BBX 13 13 0 1
BITMAP
78F0
FDF8
CD98
CD98
7FF0
3FE0
0D80
3FE0
7FF0
CD98
CD98
FDF8
78F0
ENDCHAR
STARTCHAR char0012
ENCODING 18
SWIDTH 500 0
DWIDTH 12 0
BBX 10 22 1 -3
BITMAP
0040
0040
0040
0040
0040
0040
0040
0080
1080
3080
5080
9080
0880
0900
0900
0500
0500
0500
0500
0200
0200
0200
ENDCHAR
STARTCHAR char0013
ENCODING 19
SWIDTH 500 0
DWIDTH 11 0
BBX 8 16 2 0
BITMAP
18
18
3C
3C
7E
7E
FF
FF
FF
FF
7E
7E
3C
3C
18
18
ENDCHAR
STARTCHAR char0014
ENCODING 20
SWIDTH 500 0
DWIDTH 13 0
BBX 11 16 1 1
BITMAP
0300
0300
0200
0400
3BC0
7FE0
FFC0
FF80
FF80
FF80
FFC0
FFE0
7FE0
7FC0
3F80
1B00
ENDCHAR
STARTCHAR onehalf
ENCODING 21
SWIDTH 0 0
DWIDTH 0 0
BBX 0 0 0 -4
BITMAP
ENDCHAR
STARTCHAR onequarter
ENCODING 22
SWIDTH 0 0
DWIDTH 0 0
BBX 0 0 0 -4
BITMAP
ENDCHAR
STARTCHAR onesuperior
ENCODING 23
SWIDTH 0 0
DWIDTH 0 0
BBX 0 0 0 -4
BITMAP
ENDCHAR
STARTCHAR threequarters
ENCODING 24
SWIDTH 0 0
DWIDTH 0 0
BBX 0 0 0 -4
BITMAP
ENDCHAR
STARTCHAR threesuperior
ENCODING 25
SWIDTH 0 0
DWIDTH 0 0
BBX 0 0 0 -4
BITMAP
ENDCHAR
STARTCHAR twosuperior
ENCODING 26
SWIDTH 0 0
DWIDTH 0 0
BBX 0 0 0 -4
BITMAP
ENDCHAR
STARTCHAR brokenbar
ENCODING 27
SWIDTH 0 0
DWIDTH 0 0
BBX 0 0 0 -4
BITMAP
ENDCHAR
STARTCHAR minus
ENCODING 28
SWIDTH 0 0
DWIDTH 0 0
BBX 0 0 0 -4
BITMAP
ENDCHAR
STARTCHAR multiply
ENCODING 29
SWIDTH 0 0
DWIDTH 0 0
BBX 0 0 0 -4
BITMAP
ENDCHAR
STARTCHAR char001e
ENCODING 30
SWIDTH 0 0
DWIDTH 0 0
BBX 0 0 0 -4
BITMAP
ENDCHAR
STARTCHAR char001f
ENCODING 31
SWIDTH 0 0
DWIDTH 0 0
BBX 0 0 0 -4
BITMAP
ENDCHAR
STARTCHAR space
ENCODING 32
SWIDTH 235 0
DWIDTH 6 0
BBX 0 0 0 -4
BITMAP
ENDCHAR
STARTCHAR exclam
ENCODING 33
SWIDTH 208 0
DWIDTH 5 0
BBX 3 16 1 0
BITMAP
40
E0
E0
E0
E0
E0
E0
40
40
40
40
40
00
00
E0
E0
ENDCHAR
STARTCHAR quotedbl
ENCODING 34
SWIDTH 406 0
DWIDTH 10 0
BBX 6 6 2 10
BITMAP
CC
CC
CC
88
88
88
ENDCHAR
STARTCHAR numbersign
ENCODING 35
SWIDTH 667 0
DWIDTH 16 0
BBX 14 14 1 0
BITMAP
0410
0410
0410
0820
FFFC
0820
0820
1040
1040
FFF8
1040
2080
2080
2080
ENDCHAR
STARTCHAR dollar
ENCODING 36
SWIDTH 469 0
DWIDTH 11 0
BBX 10 20 1 -3
BITMAP
0800
3E00
6900
C880
C980
C980
C800
6800
3C00
0F00
0980
08C0
C8C0
C8C0
88C0
8980
4B80
3E00
0800
0800
ENDCHAR
STARTCHAR percent
ENCODING 37
SWIDTH 938 0
DWIDTH 23 0
BBX 16 16 3 0
BITMAP
3008
4808
CC10
8410
8420
CC40
4840
3080
010C
0112
0233
0421
0421
0833
1012
100C
ENDCHAR
STARTCHAR ampersand
ENCODING 38
SWIDTH 781 0
DWIDTH 19 0
BBX 17 16 1 0
BITMAP
078000
0CC000
186000
186000
18C000
0D8000
070000
1E1F00
330E00
630400
C18400
C18C00
C0D800
E07000
79F180
1F1F00
ENDCHAR
STARTCHAR quotesingle
ENCODING 39
SWIDTH 177 0
DWIDTH 4 0
BBX 2 6 1 10
BITMAP
C0
C0
C0
C0
C0
C0
ENDCHAR
STARTCHAR parenleft
ENCODING 40
SWIDTH 260 0
DWIDTH 6 0
BBX 5 20 0 -4
BITMAP
08
10
30
20
60
60
C0
C0
C0
C0
C0
C0
C0
C0
60
60
20
30
10
08
ENDCHAR
STARTCHAR parenright
ENCODING 41
SWIDTH 260 0
DWIDTH 6 0
BBX 5 20 0 -4
BITMAP
80
40
60
20
30
30
18
18
18
18
18
18
18
18
30
30
20
60
40
80
ENDCHAR
STARTCHAR asterisk
ENCODING 42
SWIDTH 469 0
DWIDTH 11 0
BBX 9 10 1 6
BITMAP
0800
0800
C980
6B00
1C00
1C00
6B00
C980
0800
0800
ENDCHAR
STARTCHAR plus
ENCODING 43
SWIDTH 667 0
DWIDTH 16 0
BBX 11 11 2 1
BITMAP
0400
0400
0400
0400
0400
FFE0
0400
0400
0400
0400
0400
ENDCHAR
STARTCHAR comma
ENCODING 44
SWIDTH 208 0
DWIDTH 5 0
BBX 3 5 1 -3
BITMAP
E0
E0
60
40
80
ENDCHAR
STARTCHAR hyphen
ENCODING 45
SWIDTH 260 0
DWIDTH 6 0
BBX 4 1 1 5
BITMAP
F0
ENDCHAR
STARTCHAR period
ENCODING 46
SWIDTH 208 0
DWIDTH 5 0
BBX 2 2 1 0
BITMAP
C0
C0
ENDCHAR
STARTCHAR slash
ENCODING 47
SWIDTH 281 0
DWIDTH 7 0
BBX 6 17 0 -1
BITMAP
04
04
04
08
08
08
10
10
10
20
20
20
40
40
40
80
80
ENDCHAR
STARTCHAR zero
ENCODING 48
SWIDTH 469 0
DWIDTH 11 0
BBX 10 16 0 0
BITMAP
1E00
3300
6180
6180
C0C0
C0C0
C0C0
C0C0
C0C0
C0C0
C0C0
C0C0
6180
6180
3300
1E00
ENDCHAR
STARTCHAR one
ENCODING 49
SWIDTH 469 0
DWIDTH 11 0
BBX 6 16 2 0
BITMAP
30
70
F0
30
30
30
30
30
30
30
30
30
30
30
30
FC
ENDCHAR
STARTCHAR two
ENCODING 50
SWIDTH 469 0
DWIDTH 11 0
BBX 10 16 0 0
BITMAP
3F00
6180
C0C0
C0C0
E0C0
60C0
0180
0300
0600
0C00
1800
2000
4000
4040
80C0
FF80
ENDCHAR
STARTCHAR three
ENCODING 51
SWIDTH 469 0
DWIDTH 11 0
BBX 10 16 0 0
BITMAP
3E00
6300
C180
E180
6180
0300
0600
1C00
0700
0180
00C0
00C0
C0C0
C1C0
6380
3E00
ENDCHAR
STARTCHAR four
ENCODING 52
SWIDTH 469 0
DWIDTH 11 0
BBX 10 16 0 0
BITMAP
0300
0700
0700
0F00
0B00
1B00
1300
3300
2300
6300
C300
FFC0
0300
0300
0300
0FC0
ENDCHAR
STARTCHAR five
ENCODING 53
SWIDTH 469 0
DWIDTH 11 0
BBX 10 16 0 0
BITMAP
FF80
FF00
C000
C000
C000
C000
FE00
C300
8180
00C0
00C0
00C0
C0C0
C180
6300
3E00
ENDCHAR
STARTCHAR six
ENCODING 54
SWIDTH 469 0
DWIDTH 11 0
BBX 10 16 0 0
BITMAP
0F00
1980
31C0
6180
6000
C000
DE00
F300
E180
C0C0
C0C0
C0C0
C0C0
6180
3300
1E00
ENDCHAR
STARTCHAR seven
ENCODING 55
SWIDTH 469 0
DWIDTH 11 0
BBX 10 16 0 0
BITMAP
7FC0
60C0
C180
C180
0100
0300
0200
0600
0C00
0C00
1800
1800
1800
3000
3000
3000
ENDCHAR
STARTCHAR eight
ENCODING 56
SWIDTH 469 0
DWIDTH 11 0
BBX 10 16 0 0
BITMAP
3E00
6300
C180
C180
C180
E300
7600
3C00
1F00
3380
61C0
C0C0
C0C0
C0C0
6180
3F00
ENDCHAR
STARTCHAR nine
ENCODING 57
SWIDTH 469 0
DWIDTH 11 0
BBX 10 16 0 0
BITMAP
1E00
3300
6180
C180
C0C0
C0C0
C0C0
C1C0
63C0
3EC0
00C0
00C0
0180
6180
6300
3E00
ENDCHAR
STARTCHAR colon
ENCODING 58
SWIDTH 208 0
DWIDTH 5 0
BBX 3 10 1 0
BITMAP
E0
E0
00
00
00
00
00
00
E0
E0
ENDCHAR
STARTCHAR semicolon
ENCODING 59
SWIDTH 208 0
DWIDTH 5 0
BBX 3 13 1 -3
BITMAP
E0
E0
00
00
00
00
00
00
E0
E0
60
40
80
ENDCHAR
STARTCHAR less
ENCODING 60
SWIDTH 667 0
DWIDTH 16 0
BBX 12 11 1 1
BITMAP
0030
00C0
0300
0C00
3000
C000
3000
0C00
0300
00C0
0030
ENDCHAR
STARTCHAR equal
ENCODING 61
SWIDTH 667 0
DWIDTH 16 0
BBX 13 6 1 4
BITMAP
FFF8
0000
0000
0000
0000
FFF8
ENDCHAR
STARTCHAR greater
ENCODING 62
SWIDTH 667 0
DWIDTH 16 0
BBX 12 11 2 1
BITMAP
C000
3000
0C00
0300
00C0
0030
00C0
0300
0C00
3000
C000
ENDCHAR
STARTCHAR question
ENCODING 63
SWIDTH 365 0
DWIDTH 9 0
BBX 8 16 0 0
BITMAP
7C
E6
C3
03
03
03
06
3C
30
30
30
30
00
00
30
30
ENDCHAR
STARTCHAR at
ENCODING 64
SWIDTH 917 0
DWIDTH 22 0
BBX 20 20 1 -4
BITMAP
01FE00
070380
0C00C0
180060
307120
60DB30
418E10
C30610
830610
860C30
860C20
861860
8638C0
C76D80
43C710
600020
3000C0
1C0380
071E00
01F000
ENDCHAR
STARTCHAR A
ENCODING 65
SWIDTH 729 0
DWIDTH 17 0
BBX 16 16 0 0
BITMAP
00C0
00C0
01C0
0160
0360
0260
0630
0430
0430
0FF0
0818
1818
1018
300C
200C
F83F
ENDCHAR
STARTCHAR B
ENCODING 66
SWIDTH 625 0
DWIDTH 15 0
BBX 14 16 0 0
BITMAP
FFE0
7038
301C
300C
300C
3018
3030
3FE0
3030
3018
300C
300C
300C
301C
7038
FFE0
ENDCHAR
STARTCHAR C
ENCODING 67
SWIDTH 573 0
DWIDTH 14 0
BBX 13 16 0 0
BITMAP
0FC8
1878
3018
6008
6000
C000
C000
C000
C000
C000
C000
6000
6000
3008
1830
0FE0
ENDCHAR
STARTCHAR D
ENCODING 68
SWIDTH 677 0
DWIDTH 16 0
BBX 15 16 0 0
BITMAP
FFC0
7070
3018
300C
300C
3006
3006
3006
3006
3006
3006
300C
300C
3018
7070
FFC0
ENDCHAR
STARTCHAR E
ENCODING 69
SWIDTH 625 0
DWIDTH 15 0
BBX 14 16 0 0
BITMAP
FFF8
7018
300C
3004
3000
3020
3060
3FE0
3060
3020
3000
3000
3004
300C
7018
FFF8
ENDCHAR
STARTCHAR F
ENCODING 70
SWIDTH 573 0
DWIDTH 14 0
BBX 13 16 0 0
BITMAP
FFE0
7030
3018
3008
3000
3020
3060
3FE0
3060
3020
3000
3000
3000
3000
7000
FC00
ENDCHAR
STARTCHAR G
ENCODING 71
SWIDTH 677 0
DWIDTH 16 0
BBX 15 16 0 0
BITMAP
07C0
1C70
3018
7008
6000
C000
C000
C000
C07E
C03C
C018
6018
6018
3018
1C30
07E0
ENDCHAR
STARTCHAR H
ENCODING 72
SWIDTH 677 0
DWIDTH 16 0
BBX 15 16 0 0
BITMAP
FC7E
783C
3018
3018
3018
3018
3018
3FF8
3018
3018
3018
3018
3018
3018
783C
FC7E
ENDCHAR
STARTCHAR I
ENCODING 73
SWIDTH 312 0
DWIDTH 7 0
BBX 6 16 0 0
BITMAP
FC
78
30
30
30
30
30
30
30
30
30
30
30
30
78
FC
ENDCHAR
STARTCHAR J
ENCODING 74
SWIDTH 313 0
DWIDTH 8 0
BBX 7 16 0 0
BITMAP
7E
3C
18
18
18
18
18
18
18
18
18
18
18
D8
F0
60
ENDCHAR
STARTCHAR K
ENCODING 75
SWIDTH 677 0
DWIDTH 16 0
BBX 15 16 0 0
BITMAP
FC3C
7818
3010
3020
3040
3080
3100
3380
3580
38C0
3060
3060
3030
3018
781C
FC3E
ENDCHAR
STARTCHAR L
ENCODING 76
SWIDTH 573 0
DWIDTH 14 0
BBX 13 16 0 0
BITMAP
FC00
7800
3000
3000
3000
3000
3000
3000
3000
3000
3000
3000
3008
3018
7830
FFF0
ENDCHAR
STARTCHAR M
ENCODING 77
SWIDTH 833 0
DWIDTH 20 0
BBX 19 16 0 0
BITMAP
F803E0
3C0380
3C0780
3C0580
360580
360D80
360980
330980
331980
331180
319180
31B180
31A180
30E180
78C3C0
FC47E0
ENDCHAR
STARTCHAR N
ENCODING 78
SWIDTH 677 0
DWIDTH 16 0
BBX 15 16 0 0
BITMAP
F03E
381C
3808
2C08
2608
2608
2308
2188
2188
20C8
2068
2068
2038
2018
7018
F808
ENDCHAR
STARTCHAR O
ENCODING 79
SWIDTH 677 0
DWIDTH 16 0
BBX 15 16 0 0
BITMAP
0FE0
1830
3018
600C
600C
C006
C006
C006
C006
C006
C006
600C
600C
3018
1830
0FE0
ENDCHAR
STARTCHAR P
ENCODING 80
SWIDTH 573 0
DWIDTH 14 0
BBX 13 16 0 0
BITMAP
FF80
70E0
3030
3018
3018
3018
3030
30E0
3F80
3000
3000
3000
3000
3000
7800
FC00
ENDCHAR
STARTCHAR Q
ENCODING 81
SWIDTH 677 0
DWIDTH 16 0
BBX 15 19 0 -3
BITMAP
0FE0
1830
3018
600C
600C
C006
C006
C006
C006
C006
C006
6786
6CCC
386C
1878
0FE0
0070
003A
001E
ENDCHAR
STARTCHAR R
ENCODING 82
SWIDTH 625 0
DWIDTH 15 0
BBX 14 16 0 0
BITMAP
FF80
70E0
3030
3018
3018
3018
3030
30E0
3F80
3300
3180
30C0
3060
3030
7818
FC3C
ENDCHAR
STARTCHAR S
ENCODING 83
SWIDTH 521 0
DWIDTH 13 0
BBX 12 16 0 0
BITMAP
3F80
61C0
C060
C020
C000
E000
7C00
1F00
03C0
00E0
0070
0030
8030
C070
F0E0
9F80
ENDCHAR
STARTCHAR T
ENCODING 84
SWIDTH 677 0
DWIDTH 16 0
BBX 14 16 1 0
BITMAP
FFFC
C30C
8304
0300
0300
0300
0300
0300
0300
0300
0300
0300
0300
0300
0780
0FC0
ENDCHAR
STARTCHAR U
ENCODING 85
SWIDTH 677 0
DWIDTH 16 0
BBX 15 16 0 0
BITMAP
FC3E
781C
3008
3008
3008
3008
3008
3008
3008
3008
3008
3008
3008
3008
1810
0FE0
ENDCHAR
STARTCHAR V
ENCODING 86
SWIDTH 677 0
DWIDTH 16 0
BBX 15 16 0 0
BITMAP
FC3E
781C
3008
3008
1818
1810
0C10
0C30
0C20
0620
0660
0340
0340
01C0
0180
0080
ENDCHAR
STARTCHAR W
ENCODING 87
SWIDTH 938 0
DWIDTH 23 0
BBX 22 16 0 0
BITMAP
FC7E7C
783C38
301810
301810
183C30
182C20
0C2C20
0C6C60
0C4640
064640
06C6C0
068680
038380
038380
030300
010100
ENDCHAR
STARTCHAR X
ENCODING 88
SWIDTH 677 0
DWIDTH 16 0
BBX 15 16 0 0
BITMAP
FC3C
3818
1810
0C20
0C20
0640
0740
0380
0380
06C0
04E0
0860
1030
2018
601C
F83E
ENDCHAR
STARTCHAR Y
ENCODING 89
SWIDTH 677 0
DWIDTH 16 0
BBX 14 16 1 0
BITMAP
F03C
6018
3010
3020
1820
0C40
0C40
0680
0780
0300
0300
0300
0300
0300
0780
0FC0
ENDCHAR
STARTCHAR Z
ENCODING 90
SWIDTH 573 0
DWIDTH 14 0
BBX 13 16 0 0
BITMAP
3FF8
3818
6030
4060
0060
00C0
0180
0300
0300
0600
0C00
1800
3008
6018
C030
FFF0
ENDCHAR
STARTCHAR bracketleft
ENCODING 91
SWIDTH 260 0
DWIDTH 6 0
BBX 4 20 1 -4
BITMAP
F0
C0
C0
C0
C0
C0
C0
C0
C0
C0
C0
C0
C0
C0
C0
C0
C0
C0
C0
F0
ENDCHAR
STARTCHAR backslash
ENCODING 92
SWIDTH 281 0
DWIDTH 7 0
BBX 5 15 1 1
BITMAP
80
80
80
40
40
40
20
20
20
10
10
10
08
08
08
ENDCHAR
STARTCHAR bracketright
ENCODING 93
SWIDTH 260 0
DWIDTH 6 0
BBX 4 20 1 -4
BITMAP
F0
30
30
30
30
30
30
30
30
30
30
30
30
30
30
30
30
30
30
F0
ENDCHAR
STARTCHAR asciicircum
ENCODING 94
SWIDTH 469 0
DWIDTH 11 0
BBX 9 9 1 8
BITMAP
0800
0800
1400
1400
2200
2200
4100
4100
8080
ENDCHAR
STARTCHAR underscore
ENCODING 95
SWIDTH 500 0
DWIDTH 12 0
BBX 10 1 1 -3
BITMAP
FFC0
ENDCHAR
STARTCHAR grave
ENCODING 96
SWIDTH 333 0
DWIDTH 8 0
BBX 4 3 2 12
BITMAP
C0
60
10
ENDCHAR
STARTCHAR a
ENCODING 97
SWIDTH 469 0
DWIDTH 11 0
BBX 9 10 1 0
BITMAP
7C00
C600
C300
0300
3F00
6300
C300
C300
E700
7D80
ENDCHAR
STARTCHAR b
ENCODING 98
SWIDTH 521 0
DWIDTH 13 0
BBX 11 16 1 0
BITMAP
6000
E000
6000
6000
6000
6000
6F00
7180
60C0
6060
6060
6060
6060
60C0
7180
5F00
ENDCHAR
STARTCHAR c
ENCODING 99
SWIDTH 417 0
DWIDTH 10 0
BBX 8 10 1 0
BITMAP
3E
63
C3
C0
C0
C0
C0
C0
61
3E
ENDCHAR
STARTCHAR d
ENCODING 100
SWIDTH 521 0
DWIDTH 13 0
BBX 11 16 1 0
BITMAP
00C0
01C0
00C0
00C0
00C0
00C0
3EC0
61C0
C0C0
C0C0
C0C0
C0C0
C0C0
C0C0
61C0
3EE0
ENDCHAR
STARTCHAR e
ENCODING 101
SWIDTH 417 0
DWIDTH 10 0
BBX 8 10 1 0
BITMAP
3C
66
C3
C3
FF
C0
C0
C0
63
3E
ENDCHAR
STARTCHAR f
ENCODING 102
SWIDTH 313 0
DWIDTH 8 0
BBX 6 16 1 0
BITMAP
0C
14
30
30
30
30
FC
30
30
30
30
30
30
30
30
78
ENDCHAR
STARTCHAR g
ENCODING 103
SWIDTH 521 0
DWIDTH 13 0
BBX 11 15 1 -4
BITMAP
0060
3EE0
6300
C180
C180
C180
6300
3E00
4000
6000
3F80
60C0
C040
C0C0
7F80
ENDCHAR
STARTCHAR h
ENCODING 104
SWIDTH 521 0
DWIDTH 13 0
BBX 11 16 1 0
BITMAP
6000
E000
6000
6000
6000
6000
6F00
7180
60C0
60C0
60C0
60C0
60C0
60C0
60C0
F1E0
ENDCHAR
STARTCHAR i
ENCODING 105
SWIDTH 260 0
DWIDTH 6 0
BBX 4 16 1 0
BITMAP
60
60
00
00
00
60
E0
60
60
60
60
60
60
60
60
F0
ENDCHAR
STARTCHAR j
ENCODING 106
SWIDTH 260 0
DWIDTH 6 0
BBX 4 20 0 -4
BITMAP
30
30
00
00
00
30
70
30
30
30
30
30
30
30
30
30
30
30
E0
C0
ENDCHAR
STARTCHAR k
ENCODING 107
SWIDTH 521 0
DWIDTH 13 0
BBX 11 16 1 0
BITMAP
6000
E000
6000
6000
6000
6000
63C0
6180
6200
6400
6C00
7600
6300
6180
60C0
F1E0
ENDCHAR
STARTCHAR l
ENCODING 108
SWIDTH 260 0
DWIDTH 6 0
BBX 4 16 1 0
BITMAP
60
E0
60
60
60
60
60
60
60
60
60
60
60
60
60
F0
ENDCHAR
STARTCHAR m
ENCODING 109
SWIDTH 781 0
DWIDTH 19 0
BBX 16 10 1 0
BITMAP
EF3C
73CE
6186
6186
6186
6186
6186
6186
6186
F3CF
ENDCHAR
STARTCHAR n
ENCODING 110
SWIDTH 521 0
DWIDTH 13 0
BBX 11 10 1 0
BITMAP
EF80
71C0
60C0
60C0
60C0
60C0
60C0
60C0
60C0
F1E0
ENDCHAR
STARTCHAR o
ENCODING 111
SWIDTH 469 0
DWIDTH 11 0
BBX 9 10 1 0
BITMAP
3E00
6300
C180
C180
C180
C180
C180
C180
6300
3E00
ENDCHAR
STARTCHAR p
ENCODING 112
SWIDTH 521 0
DWIDTH 13 0
BBX 11 14 1 -4
BITMAP
EF00
7180
60C0
6060
6060
6060
6060
60C0
7180
6F00
6000
6000
6000
F000
ENDCHAR
STARTCHAR q
ENCODING 113
SWIDTH 521 0
DWIDTH 13 0
BBX 11 14 1 -4
BITMAP
3EC0
61C0
C0C0
C0C0
C0C0
C0C0
C0C0
C0C0
61C0
3EC0
00C0
00C0
00C0
01E0
ENDCHAR
STARTCHAR r
ENCODING 114
SWIDTH 365 0
DWIDTH 9 0
BBX 7 10 1 0
BITMAP
DE
76
60
60
60
60
60
60
60
F0
ENDCHAR
STARTCHAR s
ENCODING 115
SWIDTH 417 0
DWIDTH 10 0
BBX 8 10 1 0
BITMAP
7E
C3
81
C0
78
0E
03
81
E3
BE
ENDCHAR
STARTCHAR t
ENCODING 116
SWIDTH 313 0
DWIDTH 8 0
BBX 6 14 1 0
BITMAP
60
60
60
60
F8
60
60
60
60
60
60
60
74
38
ENDCHAR
STARTCHAR u
ENCODING 117
SWIDTH 521 0
DWIDTH 13 0
BBX 11 10 1 0
BITMAP
E1C0
60C0
60C0
60C0
60C0
60C0
60C0
60C0
71C0
3EE0
ENDCHAR
STARTCHAR v
ENCODING 118
SWIDTH 521 0
DWIDTH 13 0
BBX 11 10 1 0
BITMAP
F1E0
60C0
6080
3180
3100
1B00
1A00
0E00
0C00
0400
ENDCHAR
STARTCHAR w
ENCODING 119
SWIDTH 729 0
DWIDTH 17 0
BBX 15 10 1 0
BITMAP
F3CE
6184
6184
638C
32C8
36D8
34D0
1C70
1860
0820
ENDCHAR
STARTCHAR x
ENCODING 120
SWIDTH 521 0
DWIDTH 13 0
BBX 11 10 1 0
BITMAP
F1E0
60C0
3180
1B00
0E00
0E00
1B00
3180
60C0
F1E0
ENDCHAR
STARTCHAR y
ENCODING 121
SWIDTH 521 0
DWIDTH 13 0
BBX 11 14 1 -4
BITMAP
F1E0
60C0
6080
3080
3100
1900
1A00
0E00
0C00
0400
0800
0800
D000
E000
ENDCHAR
STARTCHAR z
ENCODING 122
SWIDTH 417 0
DWIDTH 10 0
BBX 8 10 1 0
BITMAP
7F
C3
86
0C
18
30
30
61
C3
FE
ENDCHAR
STARTCHAR braceleft
ENCODING 123
SWIDTH 479 0
DWIDTH 11 0
BBX 6 20 3 -4
BITMAP
0C
18
30
30
30
30
30
30
60
C0
C0
60
30
30
30
30
30
30
18
0C
ENDCHAR
STARTCHAR bar
ENCODING 124
SWIDTH 510 0
DWIDTH 12 0
BBX 2 20 5 -4
BITMAP
C0
C0
C0
C0
C0
C0
C0
C0
C0
C0
C0
C0
C0
C0
C0
C0
C0
C0
C0
C0
ENDCHAR
STARTCHAR braceright
ENCODING 125
SWIDTH 479 0
DWIDTH 11 0
BBX 6 20 2 -4
BITMAP
C0
60
30
30
30
30
30
30
18
0C
0C
18
30
30
30
30
30
30
60
C0
ENDCHAR
STARTCHAR asciitilde
ENCODING 126
SWIDTH 667 0
DWIDTH 16 0
BBX 12 4 2 5
BITMAP
3800
7E10
87E0
01C0
ENDCHAR
STARTCHAR Adieresis
ENCODING 128
SWIDTH 281 0
DWIDTH 7 0
BBX 6 16 0 0
BITMAP
80
80
C0
40
40
60
20
30
10
10
18
08
0C
04
04
04
ENDCHAR
STARTCHAR Aring
ENCODING 129
SWIDTH 1000 0
DWIDTH 1 0
BBX 1 24 0 -3
BITMAP
80
80
80
80
80
80
80
80
80
80
80
80
80
80
80
80
80
80
80
80
80
80
80
80
ENDCHAR
STARTCHAR Ccedilla
ENCODING 130
SWIDTH 1000 0
DWIDTH 24 0
BBX 24 1 0 0
BITMAP
FFFFFF
ENDCHAR
STARTCHAR Eacute
ENCODING 131
SWIDTH 1000 0
DWIDTH 24 0
BBX 24 24 0 -3
BITMAP
FFFFFF
FFFFFF
FFFFFF
FFFFFF
FFFFFF
FFFFFF
FFFFFF
FFFFFF
FFFFFF
FFFFFF
FFFFFF
FFFFFF
FFFFFF
FFFFFF
FFFFFF
FFFFFF
FFFFFF
FFFFFF
FFFFFF
FFFFFF
FFFFFF
FFFFFF
FFFFFF
FFFFFF
ENDCHAR
STARTCHAR Ntilde
ENCODING 132
SWIDTH 1000 0
DWIDTH 24 0
BBX 24 24 0 -3
BITMAP
FFFFFF
FFFFFF
FFFFFF
FFFFFF
FFFFFF
FFFFFF
FFFFFF
FFFFFF
FFFFFF
FFFFFF
FFFFFF
FFFFFF
FFFFFF
FFFFFF
FFFFFF
FFFFFF
FFFFFF
FFFFFF
FFFFFF
FFFFFF
FFFFFF
FFFFFF
FFFFFF
FFFFFF
ENDCHAR
STARTCHAR Odieresis
ENCODING 133
SWIDTH 1000 0
DWIDTH 24 0
BBX 24 24 0 -3
BITMAP
FFFFFF
FFFFFF
FFFFFF
FFFFFF
FFFFFF
FFFFFF
FFFFFF
FFFFFF
FFFFFF
FFFFFF
FFFFFF
FFFFFF
FFFFFF
FFFFFF
FFFFFF
FFFFFF
FFFFFF
FFFFFF
FFFFFF
FFFFFF
FFFFFF
FFFFFF
FFFFFF
FFFFFF
ENDCHAR
STARTCHAR Udieresis
ENCODING 134
SWIDTH 1000 0
DWIDTH 24 0
BBX 24 24 0 -3
BITMAP
FFFFFF
FFFFFF
FFFFFF
FFFFFF
FFFFFF
FFFFFF
FFFFFF
FFFFFF
FFFFFF
FFFFFF
FFFFFF
FFFFFF
FFFFFF
FFFFFF
FFFFFF
FFFFFF
FFFFFF
FFFFFF
FFFFFF
FFFFFF
FFFFFF
FFFFFF
FFFFFF
FFFFFF
ENDCHAR
STARTCHAR aacute
ENCODING 135
SWIDTH 1000 0
DWIDTH 24 0
BBX 24 24 0 -3
BITMAP
FFFFFF
FFFFFF
FFFFFF
FFFFFF
FFFFFF
FFFFFF
FFFFFF
FFFFFF
FFFFFF
FFFFFF
FFFFFF
FFFFFF
FFFFFF
FFFFFF
FFFFFF
FFFFFF
FFFFFF
FFFFFF
FFFFFF
FFFFFF
FFFFFF
FFFFFF
FFFFFF
FFFFFF
ENDCHAR
STARTCHAR agrave
ENCODING 136
SWIDTH 1000 0
DWIDTH 24 0
BBX 24 24 0 -3
BITMAP
FFFFFF
FFFFFF
FFFFFF
FFFFFF
FFFFFF
FFFFFF
FFFFFF
FFFFFF
FFFFFF
FFFFFF
FFFFFF
FFFFFF
FFFFFF
FFFFFF
FFFFFF
FFFFFF
FFFFFF
FFFFFF
FFFFFF
FFFFFF
FFFFFF
FFFFFF
FFFFFF
FFFFFF
ENDCHAR
STARTCHAR acircumflex
ENCODING 137
SWIDTH 1000 0
DWIDTH 24 0
BBX 24 24 0 -3
BITMAP
FFFFFF
FFFFFF
FFFFFF
FFFFFF
FFFFFF
FFFFFF
FFFFFF
FFFFFF
FFFFFF
FFFFFF
FFFFFF
FFFFFF
FFFFFF
FFFFFF
FFFFFF
FFFFFF
FFFFFF
FFFFFF
FFFFFF
FFFFFF
FFFFFF
FFFFFF
FFFFFF
FFFFFF
ENDCHAR
STARTCHAR adieresis
ENCODING 138
SWIDTH 1000 0
DWIDTH 24 0
BBX 24 24 0 -3
BITMAP
FFFFFF
FFFFFF
FFFFFF
FFFFFF
FFFFFF
FFFFFF
FFFFFF
FFFFFF
FFFFFF
FFFFFF
FFFFFF
FFFFFF
FFFFFF
FFFFFF
FFFFFF
FFFFFF
FFFFFF
FFFFFF
FFFFFF
FFFFFF
FFFFFF
FFFFFF
FFFFFF
FFFFFF
ENDCHAR
STARTCHAR atilde
ENCODING 139
SWIDTH 1000 0
DWIDTH 24 0
BBX 24 24 0 -3
BITMAP
FFFFFF
FFFFFF
FFFFFF
FFFFFF
FFFFFF
FFFFFF
FFFFFF
FFFFFF
FFFFFF
FFFFFF
FFFFFF
FFFFFF
FFFFFF
FFFFFF
FFFFFF
FFFFFF
FFFFFF
FFFFFF
FFFFFF
FFFFFF
FFFFFF
FFFFFF
FFFFFF
FFFFFF
ENDCHAR
STARTCHAR aring
ENCODING 140
SWIDTH 1000 0
DWIDTH 24 0
BBX 24 24 0 -3
BITMAP
FFFFFF
FFFFFF
FFFFFF
FFFFFF
FFFFFF
FFFFFF
FFFFFF
FFFFFF
FFFFFF
FFFFFF
FFFFFF
FFFFFF
FFFFFF
FFFFFF
FFFFFF
FFFFFF
FFFFFF
FFFFFF
FFFFFF
FFFFFF
FFFFFF
FFFFFF
FFFFFF
FFFFFF
ENDCHAR
STARTCHAR ccedilla
ENCODING 141
SWIDTH 1000 0
DWIDTH 24 0
BBX 24 24 0 -3
BITMAP
FFFFFF
FFFFFF
FFFFFF
FFFFFF
FFFFFF
FFFFFF
FFFFFF
FFFFFF
FFFFFF
FFFFFF
FFFFFF
FFFFFF
FFFFFF
FFFFFF
FFFFFF
FFFFFF
FFFFFF
FFFFFF
FFFFFF
FFFFFF
FFFFFF
FFFFFF
FFFFFF
FFFFFF
ENDCHAR
STARTCHAR eacute
ENCODING 142
SWIDTH 1000 0
DWIDTH 24 0
BBX 24 24 0 -3
BITMAP
FFFFFF
FFFFFF
FFFFFF
FFFFFF
FFFFFF
FFFFFF
FFFFFF
FFFFFF
FFFFFF
FFFFFF
FFFFFF
FFFFFF
FFFFFF
FFFFFF
FFFFFF
FFFFFF
FFFFFF
FFFFFF
FFFFFF
FFFFFF
FFFFFF
FFFFFF
FFFFFF
FFFFFF
ENDCHAR
STARTCHAR egrave
ENCODING 143
SWIDTH 1000 0
DWIDTH 24 0
BBX 24 24 0 -3
BITMAP
FFFFFF
FFFFFF
FFFFFF
FFFFFF
FFFFFF
FFFFFF
FFFFFF
FFFFFF
FFFFFF
FFFFFF
FFFFFF
FFFFFF
FFFFFF
FFFFFF
FFFFFF
FFFFFF
FFFFFF
FFFFFF
FFFFFF
FFFFFF
FFFFFF
FFFFFF
FFFFFF
FFFFFF
ENDCHAR
STARTCHAR ecircumflex
ENCODING 144
SWIDTH 1000 0
DWIDTH 24 0
BBX 24 24 0 -3
BITMAP
FFFFFF
FFFFFF
FFFFFF
FFFFFF
FFFFFF
FFFFFF
FFFFFF
FFFFFF
FFFFFF
FFFFFF
FFFFFF
FFFFFF
FFFFFF
FFFFFF
FFFFFF
FFFFFF
FFFFFF
FFFFFF
FFFFFF
FFFFFF
FFFFFF
FFFFFF
FFFFFF
FFFFFF
ENDCHAR
STARTCHAR edieresis
ENCODING 145
SWIDTH 1000 0
DWIDTH 24 0
BBX 24 24 0 -3
BITMAP
FFFFFF
FFFFFF
FFFFFF
FFFFFF
FFFFFF
FFFFFF
FFFFFF
FFFFFF
FFFFFF
FFFFFF
FFFFFF
FFFFFF
FFFFFF
FFFFFF
FFFFFF
FFFFFF
FFFFFF
FFFFFF
FFFFFF
FFFFFF
FFFFFF
FFFFFF
FFFFFF
FFFFFF
ENDCHAR
STARTCHAR iacute
ENCODING 146
SWIDTH 1000 0
DWIDTH 24 0
BBX 24 24 0 -3
BITMAP
FFFFFF
FFFFFF
FFFFFF
FFFFFF
FFFFFF
FFFFFF
FFFFFF
FFFFFF
FFFFFF
FFFFFF
FFFFFF
FFFFFF
FFFFFF
FFFFFF
FFFFFF
FFFFFF
FFFFFF
FFFFFF
FFFFFF
FFFFFF
FFFFFF
FFFFFF
FFFFFF
FFFFFF
ENDCHAR
STARTCHAR igrave
ENCODING 147
SWIDTH 1000 0
DWIDTH 24 0
BBX 24 24 0 -3
BITMAP
FFFFFF
FFFFFF
FFFFFF
FFFFFF
FFFFFF
FFFFFF
FFFFFF
FFFFFF
FFFFFF
FFFFFF
FFFFFF
FFFFFF
FFFFFF
FFFFFF
FFFFFF
FFFFFF
FFFFFF
FFFFFF
FFFFFF
FFFFFF
FFFFFF
FFFFFF
FFFFFF
FFFFFF
ENDCHAR
STARTCHAR icircumflex
ENCODING 148
SWIDTH 1000 0
DWIDTH 24 0
BBX 24 24 0 -3
BITMAP
FFFFFF
FFFFFF
FFFFFF
FFFFFF
FFFFFF
FFFFFF
FFFFFF
FFFFFF
FFFFFF
FFFFFF
FFFFFF
FFFFFF
FFFFFF
FFFFFF
FFFFFF
FFFFFF
FFFFFF
FFFFFF
FFFFFF
FFFFFF
FFFFFF
FFFFFF
FFFFFF
FFFFFF
ENDCHAR
STARTCHAR idieresis
ENCODING 149
SWIDTH 1000 0
DWIDTH 24 0
BBX 24 24 0 -3
BITMAP
FFFFFF
FFFFFF
FFFFFF
FFFFFF
FFFFFF
FFFFFF
FFFFFF
FFFFFF
FFFFFF
FFFFFF
FFFFFF
FFFFFF
FFFFFF
FFFFFF
FFFFFF
FFFFFF
FFFFFF
FFFFFF
FFFFFF
FFFFFF
FFFFFF
FFFFFF
FFFFFF
FFFFFF
ENDCHAR
STARTCHAR ntilde
ENCODING 150
SWIDTH 1000 0
DWIDTH 24 0
BBX 24 24 0 -3
BITMAP
FFFFFF
FFFFFF
FFFFFF
FFFFFF
FFFFFF
FFFFFF
FFFFFF
FFFFFF
FFFFFF
FFFFFF
FFFFFF
FFFFFF
FFFFFF
FFFFFF
FFFFFF
FFFFFF
FFFFFF
FFFFFF
FFFFFF
FFFFFF
FFFFFF
FFFFFF
FFFFFF
FFFFFF
ENDCHAR
STARTCHAR oacute
ENCODING 151
SWIDTH 1000 0
DWIDTH 24 0
BBX 24 24 0 -3
BITMAP
FFFFFF
FFFFFF
FFFFFF
FFFFFF
FFFFFF
FFFFFF
FFFFFF
FFFFFF
FFFFFF
FFFFFF
FFFFFF
FFFFFF
FFFFFF
FFFFFF
FFFFFF
FFFFFF
FFFFFF
FFFFFF
FFFFFF
FFFFFF
FFFFFF
FFFFFF
FFFFFF
FFFFFF
ENDCHAR
STARTCHAR ograve
ENCODING 152
SWIDTH 1000 0
DWIDTH 24 0
BBX 24 24 0 -3
BITMAP
FFFFFF
FFFFFF
FFFFFF
FFFFFF
FFFFFF
FFFFFF
FFFFFF
FFFFFF
FFFFFF
FFFFFF
FFFFFF
FFFFFF
FFFFFF
FFFFFF
FFFFFF
FFFFFF
FFFFFF
FFFFFF
FFFFFF
FFFFFF
FFFFFF
FFFFFF
FFFFFF
FFFFFF
ENDCHAR
STARTCHAR ocircumflex
ENCODING 153
SWIDTH 1000 0
DWIDTH 24 0
BBX 24 24 0 -3
BITMAP
FFFFFF
FFFFFF
FFFFFF
FFFFFF
FFFFFF
FFFFFF
FFFFFF
FFFFFF
FFFFFF
FFFFFF
FFFFFF
FFFFFF
FFFFFF
FFFFFF
FFFFFF
FFFFFF
FFFFFF
FFFFFF
FFFFFF
FFFFFF
FFFFFF
FFFFFF
FFFFFF
FFFFFF
ENDCHAR
STARTCHAR odieresis
ENCODING 154
SWIDTH 1000 0
DWIDTH 24 0
BBX 24 24 0 -3
BITMAP
FFFFFF
FFFFFF
FFFFFF
FFFFFF
FFFFFF
FFFFFF
FFFFFF
FFFFFF
FFFFFF
FFFFFF
FFFFFF
FFFFFF
FFFFFF
FFFFFF
FFFFFF
FFFFFF
FFFFFF
FFFFFF
FFFFFF
FFFFFF
FFFFFF
FFFFFF
FFFFFF
FFFFFF
ENDCHAR
STARTCHAR otilde
ENCODING 155
SWIDTH 1000 0
DWIDTH 24 0
BBX 24 24 0 -3
BITMAP
FFFFFF
FFFFFF
FFFFFF
FFFFFF
FFFFFF
FFFFFF
FFFFFF
FFFFFF
FFFFFF
FFFFFF
FFFFFF
FFFFFF
FFFFFF
FFFFFF
FFFFFF
FFFFFF
FFFFFF
FFFFFF
FFFFFF
FFFFFF
FFFFFF
FFFFFF
FFFFFF
FFFFFF
ENDCHAR
STARTCHAR uacute
ENCODING 156
SWIDTH 1000 0
DWIDTH 24 0
BBX 24 24 0 -3
BITMAP
FFFFFF
FFFFFF
FFFFFF
FFFFFF
FFFFFF
FFFFFF
FFFFFF
FFFFFF
FFFFFF
FFFFFF
FFFFFF
FFFFFF
FFFFFF
FFFFFF
FFFFFF
FFFFFF
FFFFFF
FFFFFF
FFFFFF
FFFFFF
FFFFFF
FFFFFF
FFFFFF
FFFFFF
ENDCHAR
STARTCHAR ugrave
ENCODING 157
SWIDTH 1000 0
DWIDTH 24 0
BBX 24 24 0 -3
BITMAP
FFFFFF
FFFFFF
FFFFFF
FFFFFF
FFFFFF
FFFFFF
FFFFFF
FFFFFF
FFFFFF
FFFFFF
FFFFFF
FFFFFF
FFFFFF
FFFFFF
FFFFFF
FFFFFF
FFFFFF
FFFFFF
FFFFFF
FFFFFF
FFFFFF
FFFFFF
FFFFFF
FFFFFF
ENDCHAR
STARTCHAR ucircumflex
ENCODING 158
SWIDTH 1000 0
DWIDTH 24 0
BBX 24 24 0 -3
BITMAP
FFFFFF
FFFFFF
FFFFFF
FFFFFF
FFFFFF
FFFFFF
FFFFFF
FFFFFF
FFFFFF
FFFFFF
FFFFFF
FFFFFF
FFFFFF
FFFFFF
FFFFFF
FFFFFF
FFFFFF
FFFFFF
FFFFFF
FFFFFF
FFFFFF
FFFFFF
FFFFFF
FFFFFF
ENDCHAR
STARTCHAR udieresis
ENCODING 159
SWIDTH 1000 0
DWIDTH 24 0
BBX 24 24 0 -3
BITMAP
FFFFFF
FFFFFF
FFFFFF
FFFFFF
FFFFFF
FFFFFF
FFFFFF
FFFFFF
FFFFFF
FFFFFF
FFFFFF
FFFFFF
FFFFFF
FFFFFF
FFFFFF
FFFFFF
FFFFFF
FFFFFF
FFFFFF
FFFFFF
FFFFFF
FFFFFF
FFFFFF
FFFFFF
ENDCHAR
STARTCHAR dagger
ENCODING 160
SWIDTH 500 0
DWIDTH 12 0
BBX 0 0 0 -4
BITMAP
ENDCHAR
STARTCHAR degree
ENCODING 161
SWIDTH 500 0
DWIDTH 12 0
BBX 0 0 0 -4
BITMAP
ENDCHAR
STARTCHAR cent
ENCODING 162
SWIDTH 500 0
DWIDTH 12 0
BBX 0 0 0 -4
BITMAP
ENDCHAR
STARTCHAR sterling
ENCODING 163
SWIDTH 500 0
DWIDTH 12 0
BBX 0 0 0 -4
BITMAP
ENDCHAR
STARTCHAR section
ENCODING 164
SWIDTH 500 0
DWIDTH 12 0
BBX 0 0 0 -4
BITMAP
ENDCHAR
STARTCHAR bullet
ENCODING 165
SWIDTH 500 0
DWIDTH 12 0
BBX 0 0 0 -4
BITMAP
ENDCHAR
STARTCHAR paragraph
ENCODING 166
SWIDTH 500 0
DWIDTH 12 0
BBX 0 0 0 -4
BITMAP
ENDCHAR
STARTCHAR germandbls
ENCODING 167
SWIDTH 500 0
DWIDTH 12 0
BBX 0 0 0 -4
BITMAP
ENDCHAR
STARTCHAR registered
ENCODING 168
SWIDTH 500 0
DWIDTH 12 0
BBX 0 0 0 -4
BITMAP
ENDCHAR
STARTCHAR copyright
ENCODING 169
SWIDTH 500 0
DWIDTH 12 0
BBX 0 0 0 -4
BITMAP
ENDCHAR
STARTCHAR trademark
ENCODING 170
SWIDTH 500 0
DWIDTH 12 0
BBX 0 0 0 -4
BITMAP
ENDCHAR
STARTCHAR acute
ENCODING 171
SWIDTH 500 0
DWIDTH 12 0
BBX 0 0 0 -4
BITMAP
ENDCHAR
STARTCHAR dieresis
ENCODING 172
SWIDTH 500 0
DWIDTH 12 0
BBX 0 0 0 -4
BITMAP
ENDCHAR
STARTCHAR notequal
ENCODING 173
SWIDTH 500 0
DWIDTH 12 0
BBX 0 0 0 -4
BITMAP
ENDCHAR
STARTCHAR AE
ENCODING 174
SWIDTH 500 0
DWIDTH 12 0
BBX 0 0 0 -4
BITMAP
ENDCHAR
STARTCHAR Oslash
ENCODING 175
SWIDTH 500 0
DWIDTH 12 0
BBX 0 0 0 -4
BITMAP
ENDCHAR
STARTCHAR infinity
ENCODING 176
SWIDTH 500 0
DWIDTH 12 0
BBX 0 0 0 -4
BITMAP
ENDCHAR
STARTCHAR plusminus
ENCODING 177
SWIDTH 500 0
DWIDTH 12 0
BBX 0 0 0 -4
BITMAP
ENDCHAR
STARTCHAR lessequal
ENCODING 178
SWIDTH 500 0
DWIDTH 12 0
BBX 0 0 0 -4
BITMAP
ENDCHAR
STARTCHAR greaterequal
ENCODING 179
SWIDTH 500 0
DWIDTH 12 0
BBX 0 0 0 -4
BITMAP
ENDCHAR
STARTCHAR yen
ENCODING 180
SWIDTH 500 0
DWIDTH 12 0
BBX 0 0 0 -4
BITMAP
ENDCHAR
STARTCHAR mu
ENCODING 181
SWIDTH 500 0
DWIDTH 12 0
BBX 0 0 0 -4
BITMAP
ENDCHAR
STARTCHAR partialdiff
ENCODING 182
SWIDTH 500 0
DWIDTH 12 0
BBX 0 0 0 -4
BITMAP
ENDCHAR
STARTCHAR summation
ENCODING 183
SWIDTH 500 0
DWIDTH 12 0
BBX 0 0 0 -4
BITMAP
ENDCHAR
STARTCHAR product
ENCODING 184
SWIDTH 500 0
DWIDTH 12 0
BBX 0 0 0 -4
BITMAP
ENDCHAR
STARTCHAR pi
ENCODING 185
SWIDTH 500 0
DWIDTH 12 0
BBX 0 0 0 -4
BITMAP
ENDCHAR
STARTCHAR integral
ENCODING 186
SWIDTH 500 0
DWIDTH 12 0
BBX 0 0 0 -4
BITMAP
ENDCHAR
STARTCHAR ordfeminine
ENCODING 187
SWIDTH 500 0
DWIDTH 12 0
BBX 0 0 0 -4
BITMAP
ENDCHAR
STARTCHAR ordmasculine
ENCODING 188
SWIDTH 500 0
DWIDTH 12 0
BBX 0 0 0 -4
BITMAP
ENDCHAR
STARTCHAR Omega
ENCODING 189
SWIDTH 500 0
DWIDTH 12 0
BBX 0 0 0 -4
BITMAP
ENDCHAR
STARTCHAR ae
ENCODING 190
SWIDTH 500 0
DWIDTH 12 0
BBX 0 0 0 -4
BITMAP
ENDCHAR
STARTCHAR oslash
ENCODING 191
SWIDTH 500 0
DWIDTH 12 0
BBX 0 0 0 -4
BITMAP
ENDCHAR
STARTCHAR questiondown
ENCODING 192
SWIDTH 500 0
DWIDTH 12 0
BBX 0 0 0 -4
BITMAP
ENDCHAR
STARTCHAR exclamdown
ENCODING 193
SWIDTH 500 0
DWIDTH 12 0
BBX 0 0 0 -4
BITMAP
ENDCHAR
STARTCHAR logicalnot
ENCODING 194
SWIDTH 500 0
DWIDTH 12 0
BBX 0 0 0 -4
BITMAP
ENDCHAR
STARTCHAR radical
ENCODING 195
SWIDTH 500 0
DWIDTH 12 0
BBX 0 0 0 -4
BITMAP
ENDCHAR
STARTCHAR florin
ENCODING 196
SWIDTH 500 0
DWIDTH 12 0
BBX 0 0 0 -4
BITMAP
ENDCHAR
STARTCHAR approxequal
ENCODING 197
SWIDTH 500 0
DWIDTH 12 0
BBX 0 0 0 -4
BITMAP
ENDCHAR
STARTCHAR Delta
ENCODING 198
SWIDTH 500 0
DWIDTH 12 0
BBX 0 0 0 -4
BITMAP
ENDCHAR
STARTCHAR guillemotleft
ENCODING 199
SWIDTH 500 0
DWIDTH 12 0
BBX 0 0 0 -4
BITMAP
ENDCHAR
STARTCHAR guillemotright
ENCODING 200
SWIDTH 500 0
DWIDTH 12 0
BBX 0 0 0 -4
BITMAP
ENDCHAR
STARTCHAR ellipsis
ENCODING 201
SWIDTH 500 0
DWIDTH 12 0
BBX 0 0 0 -4
BITMAP
ENDCHAR
STARTCHAR nbspace
ENCODING 202
SWIDTH 500 0
DWIDTH 12 0
BBX 0 0 0 -4
BITMAP
ENDCHAR
STARTCHAR Agrave
ENCODING 203
SWIDTH 500 0
DWIDTH 12 0
BBX 0 0 0 -4
BITMAP
ENDCHAR
STARTCHAR Atilde
ENCODING 204
SWIDTH 500 0
DWIDTH 12 0
BBX 0 0 0 -4
BITMAP
ENDCHAR
STARTCHAR Otilde
ENCODING 205
SWIDTH 500 0
DWIDTH 12 0
BBX 0 0 0 -4
BITMAP
ENDCHAR
STARTCHAR OE
ENCODING 206
SWIDTH 500 0
DWIDTH 12 0
BBX 0 0 0 -4
BITMAP
ENDCHAR
STARTCHAR oe
ENCODING 207
SWIDTH 500 0
DWIDTH 12 0
BBX 0 0 0 -4
BITMAP
ENDCHAR
STARTCHAR endash
ENCODING 208
SWIDTH 500 0
DWIDTH 12 0
BBX 0 0 0 -4
BITMAP
ENDCHAR
STARTCHAR emdash
ENCODING 209
SWIDTH 500 0
DWIDTH 12 0
BBX 0 0 0 -4
BITMAP
ENDCHAR
STARTCHAR quotedblleft
ENCODING 210
SWIDTH 500 0
DWIDTH 12 0
BBX 0 0 0 -4
BITMAP
ENDCHAR
STARTCHAR quotedblright
ENCODING 211
SWIDTH 500 0
DWIDTH 12 0
BBX 0 0 0 -4
BITMAP
ENDCHAR
STARTCHAR quoteleft
ENCODING 212
SWIDTH 500 0
DWIDTH 12 0
BBX 0 0 0 -4
BITMAP
ENDCHAR
STARTCHAR quoteright
ENCODING 213
SWIDTH 500 0
DWIDTH 12 0
BBX 0 0 0 -4
BITMAP
ENDCHAR
STARTCHAR divide
ENCODING 214
SWIDTH 500 0
DWIDTH 12 0
BBX 0 0 0 -4
BITMAP
ENDCHAR
STARTCHAR lozenge
ENCODING 215
SWIDTH 500 0
DWIDTH 12 0
BBX 0 0 0 -4
BITMAP
ENDCHAR
STARTCHAR ydieresis
ENCODING 216
SWIDTH 500 0
DWIDTH 12 0
BBX 0 0 0 -4
BITMAP
ENDCHAR
STARTCHAR Ydieresis
ENCODING 217
SWIDTH 500 0
DWIDTH 12 0
BBX 0 0 0 -4
BITMAP
ENDCHAR
STARTCHAR fraction
ENCODING 218
SWIDTH 500 0
DWIDTH 12 0
BBX 0 0 0 -4
BITMAP
ENDCHAR
STARTCHAR currency
ENCODING 219
SWIDTH 500 0
DWIDTH 12 0
BBX 0 0 0 -4
BITMAP
ENDCHAR
STARTCHAR guilsinglleft
ENCODING 220
SWIDTH 500 0
DWIDTH 12 0
BBX 0 0 0 -4
BITMAP
ENDCHAR
STARTCHAR guilsinglright
ENCODING 221
SWIDTH 500 0
DWIDTH 12 0
BBX 0 0 0 -4
BITMAP
ENDCHAR
STARTCHAR fi
ENCODING 222
SWIDTH 500 0
DWIDTH 12 0
BBX 0 0 0 -4
BITMAP
ENDCHAR
STARTCHAR fl
ENCODING 223
SWIDTH 500 0
DWIDTH 12 0
BBX 0 0 0 -4
BITMAP
ENDCHAR
STARTCHAR daggerdbl
ENCODING 224
SWIDTH 500 0
DWIDTH 12 0
BBX 0 0 0 -4
BITMAP
ENDCHAR
STARTCHAR periodcentered
ENCODING 225
SWIDTH 500 0
DWIDTH 12 0
BBX 0 0 0 -4
BITMAP
ENDCHAR
STARTCHAR quotesinglbase
ENCODING 226
SWIDTH 500 0
DWIDTH 12 0
BBX 0 0 0 -4
BITMAP
ENDCHAR
STARTCHAR quotedblbase
ENCODING 227
SWIDTH 500 0
DWIDTH 12 0
BBX 0 0 0 -4
BITMAP
ENDCHAR
STARTCHAR perthousand
ENCODING 228
SWIDTH 500 0
DWIDTH 12 0
BBX 0 0 0 -4
BITMAP
ENDCHAR
STARTCHAR Acircumflex
ENCODING 229
SWIDTH 500 0
DWIDTH 12 0
BBX 0 0 0 -4
BITMAP
ENDCHAR
STARTCHAR Ecircumflex
ENCODING 230
SWIDTH 500 0
DWIDTH 12 0
BBX 0 0 0 -4
BITMAP
ENDCHAR
STARTCHAR Aacute
ENCODING 231
SWIDTH 500 0
DWIDTH 12 0
BBX 0 0 0 -4
BITMAP
ENDCHAR
STARTCHAR Edieresis
ENCODING 232
SWIDTH 500 0
DWIDTH 12 0
BBX 0 0 0 -4
BITMAP
ENDCHAR
STARTCHAR Egrave
ENCODING 233
SWIDTH 500 0
DWIDTH 12 0
BBX 0 0 0 -4
BITMAP
ENDCHAR
STARTCHAR Iacute
ENCODING 234
SWIDTH 500 0
DWIDTH 12 0
BBX 0 0 0 -4
BITMAP
ENDCHAR
STARTCHAR Icircumflex
ENCODING 235
SWIDTH 500 0
DWIDTH 12 0
BBX 0 0 0 -4
BITMAP
ENDCHAR
STARTCHAR Idieresis
ENCODING 236
SWIDTH 500 0
DWIDTH 12 0
BBX 0 0 0 -4
BITMAP
ENDCHAR
STARTCHAR Igrave
ENCODING 237
SWIDTH 500 0
DWIDTH 12 0
BBX 0 0 0 -4
BITMAP
ENDCHAR
STARTCHAR Oacute
ENCODING 238
SWIDTH 500 0
DWIDTH 12 0
BBX 0 0 0 -4
BITMAP
ENDCHAR
STARTCHAR Ocircumflex
ENCODING 239
SWIDTH 500 0
DWIDTH 12 0
BBX 0 0 0 -4
BITMAP
ENDCHAR
STARTCHAR apple
ENCODING 240
SWIDTH 500 0
DWIDTH 12 0
BBX 0 0 0 -4
BITMAP
ENDCHAR
STARTCHAR Ograve
ENCODING 241
SWIDTH 500 0
DWIDTH 12 0
BBX 0 0 0 -4
BITMAP
ENDCHAR
STARTCHAR Uacute
ENCODING 242
SWIDTH 500 0
DWIDTH 12 0
BBX 0 0 0 -4
BITMAP
ENDCHAR
STARTCHAR Ucircumflex
ENCODING 243
SWIDTH 500 0
DWIDTH 12 0
BBX 0 0 0 -4
BITMAP
ENDCHAR
STARTCHAR Ugrave
ENCODING 244
SWIDTH 500 0
DWIDTH 12 0
BBX 0 0 0 -4
BITMAP
ENDCHAR
STARTCHAR dotlessi
ENCODING 245
SWIDTH 500 0
DWIDTH 12 0
BBX 0 0 0 -4
BITMAP
ENDCHAR
STARTCHAR circumflex
ENCODING 246
SWIDTH 500 0
DWIDTH 12 0
BBX 0 0 0 -4
BITMAP
ENDCHAR
STARTCHAR tilde
ENCODING 247
SWIDTH 500 0
DWIDTH 12 0
BBX 0 0 0 -4
BITMAP
ENDCHAR
STARTCHAR macron
ENCODING 248
SWIDTH 500 0
DWIDTH 12 0
BBX 0 0 0 -4
BITMAP
ENDCHAR
STARTCHAR breve
ENCODING 249
SWIDTH 500 0
DWIDTH 12 0
BBX 0 0 0 -4
BITMAP
ENDCHAR
STARTCHAR dotaccent
ENCODING 250
SWIDTH 500 0
DWIDTH 12 0
BBX 0 0 0 -4
BITMAP
ENDCHAR
STARTCHAR ring
ENCODING 251
SWIDTH 500 0
DWIDTH 12 0
BBX 0 0 0 -4
BITMAP
ENDCHAR
STARTCHAR cedilla
ENCODING 252
SWIDTH 500 0
DWIDTH 12 0
BBX 0 0 0 -4
BITMAP
ENDCHAR
STARTCHAR hungarumlaut
ENCODING 253
SWIDTH 760 0
DWIDTH 18 0
BBX 16 15 1 1
BITMAP
07E0
1818
2004
47D2
4C32
9811
9801
9801
9801
9801
4C12
47E2
2004
1818
07E0
ENDCHAR
STARTCHAR ogonek
ENCODING 254
SWIDTH 979 0
DWIDTH 23 0
BBX 22 9 0 7
BITMAP
FF701C
993838
183838
182C58
182C58
182698
182698
182318
3C733C
ENDCHAR
STARTCHAR caron
ENCODING 255
SWIDTH 1000 0
DWIDTH 24 0
BBX 16 2 3 2
BITMAP
C183
C183
ENDCHAR
ENDFONT
