STARTFONT 2.1
FONT -Fondu-Song-Medium-R-Normal--24-230-75-75-P-138-MacRoman-1
SIZE 23 75 75
FONTBOUNDINGBOX 24 24 -1 -4
COMMENT Created by Fondu from a mac NFNT/FONT resource
STARTPROPERTIES 17
FOUNDRY "Fondu"
FAMILY_NAME "Song"
WEIGHT_NAME "Medium"
SLANT "R"
SETWIDTH_NAME "Normal"
ADD_STYLE_NAME ""
PIXEL_SIZE 24
POINT_SIZE 230
RESOLUTION_X 75
RESOLUTION_Y 75
SPACING "P"
AVERAGE_WIDTH 138
CHARSET_REGISTRY "MacRoman"
CHARSET_ENCODING "1"
FONT_ASCENT 20
FONT_DESCENT 4
FACE_NAME "Song"
ENDPROPERTIES
CHARS 227
STARTCHAR char0011
ENCODING 17
SWIDTH 688 0
DWIDTH 14 0
BBX 13 14 1 1
BITMAP
78F0
FDF8
CD98
CD98
FFF8
7FF0
0D80
0D80
7FF0
FFF8
CD98
CD98
FDF8
78F0
ENDCHAR
STARTCHAR char0012
ENCODING 18
SWIDTH 875 0
DWIDTH 16 0
BBX 14 16 2 0
BITMAP
007C
0078
00F0
00E0
01C0
01C0
0380
0300
2700
F600
7600
7C00
3C00
3C00
1800
1800
ENDCHAR
STARTCHAR char0013
ENCODING 19
SWIDTH 688 0
DWIDTH 16 0
BBX 13 19 2 -2
BITMAP
0200
0200
0700
0F80
0F80
1FC0
3FE0
3FE0
7FF0
FFF8
7FF0
3FE0
3FE0
1FC0
0F80
0F80
0700
0200
0200
ENDCHAR
STARTCHAR char0014
ENCODING 20
SWIDTH 813 0
DWIDTH 16 0
BBX 15 18 1 -1
BITMAP
0020
0060
00E0
00C0
3DB0
7FF8
7FFC
FFF8
FFF0
FFF0
FFF0
FFF0
FFF8
FFFE
7FFE
7FFC
3FF8
0E70
ENDCHAR
STARTCHAR space
ENCODING 32
SWIDTH 563 0
DWIDTH 8 0
BBX 0 0 0 -4
BITMAP
ENDCHAR
STARTCHAR exclam
ENCODING 33
SWIDTH 313 0
DWIDTH 7 0
BBX 2 16 3 0
BITMAP
C0
C0
C0
C0
C0
C0
C0
C0
C0
C0
C0
C0
00
00
C0
C0
ENDCHAR
STARTCHAR quotedbl
ENCODING 34
SWIDTH 500 0
DWIDTH 6 0
BBX 4 7 1 9
BITMAP
90
90
90
90
90
90
90
ENDCHAR
STARTCHAR numbersign
ENCODING 35
SWIDTH 688 0
DWIDTH 14 0
BBX 12 16 1 0
BITMAP
0840
0840
0840
0840
0840
7FF0
1080
1080
1080
1080
FFE0
2100
2100
2100
2100
2100
ENDCHAR
STARTCHAR dollar
ENCODING 36
SWIDTH 688 0
DWIDTH 12 0
BBX 9 20 2 -2
BITMAP
0800
0800
3E00
6B00
C900
C900
C900
E800
7800
3C00
1E00
0F00
0B80
8980
8980
8980
CB00
7E00
0800
0800
ENDCHAR
STARTCHAR percent
ENCODING 37
SWIDTH 875 0
DWIDTH 16 0
BBX 13 18 2 -1
BITMAP
0020
7020
8840
8840
8880
8880
8900
8900
7200
0270
0488
0488
0888
0888
1088
1088
2070
2000
ENDCHAR
STARTCHAR ampersand
ENCODING 38
SWIDTH 750 0
DWIDTH 17 0
BBX 15 16 1 0
BITMAP
0700
0880
18C0
18C0
18C0
1880
0D00
0E1E
3604
4708
C388
C190
C1D0
C0E0
6172
3E1C
ENDCHAR
STARTCHAR quotesingle
ENCODING 39
SWIDTH 313 0
DWIDTH 6 0
BBX 4 8 1 8
BITMAP
10
30
20
60
40
40
80
80
ENDCHAR
STARTCHAR parenleft
ENCODING 40
SWIDTH 438 0
DWIDTH 7 0
BBX 5 20 1 -2
BITMAP
08
10
30
20
60
40
C0
C0
C0
C0
C0
C0
C0
C0
40
60
20
30
10
08
ENDCHAR
STARTCHAR parenright
ENCODING 41
SWIDTH 438 0
DWIDTH 7 0
BBX 5 20 1 -2
BITMAP
80
40
60
20
30
10
18
18
18
18
18
18
18
18
10
30
20
60
40
80
ENDCHAR
STARTCHAR asterisk
ENCODING 42
SWIDTH 500 0
DWIDTH 10 0
BBX 7 8 2 4
BITMAP
10
92
54
38
38
54
92
10
ENDCHAR
STARTCHAR plus
ENCODING 43
SWIDTH 688 0
DWIDTH 12 0
BBX 11 11 1 3
BITMAP
0400
0400
0400
0400
0400
FFE0
0400
0400
0400
0400
0400
ENDCHAR
STARTCHAR comma
ENCODING 44
SWIDTH 313 0
DWIDTH 7 0
BBX 2 4 2 -2
BITMAP
C0
C0
40
80
ENDCHAR
STARTCHAR hyphen
ENCODING 45
SWIDTH 375 0
DWIDTH 12 0
BBX 10 1 1 8
BITMAP
FFC0
ENDCHAR
STARTCHAR period
ENCODING 46
SWIDTH 313 0
DWIDTH 7 0
BBX 2 2 2 0
BITMAP
C0
C0
ENDCHAR
STARTCHAR slash
ENCODING 47
SWIDTH 563 0
DWIDTH 13 0
BBX 10 20 1 -2
BITMAP
0040
0040
0080
0080
0100
0100
0200
0200
0400
0400
0800
0800
1000
1000
2000
2000
4000
4000
8000
8000
ENDCHAR
STARTCHAR zero
ENCODING 48
SWIDTH 688 0
DWIDTH 12 0
BBX 10 16 1 0
BITMAP
1E00
2100
4080
4080
C0C0
C0C0
C0C0
C0C0
C0C0
C0C0
C0C0
C0C0
4080
4080
2100
1E00
ENDCHAR
STARTCHAR one
ENCODING 49
SWIDTH 688 0
DWIDTH 12 0
BBX 8 16 2 0
BITMAP
18
F8
18
18
18
18
18
18
18
18
18
18
18
18
18
FF
ENDCHAR
STARTCHAR two
ENCODING 50
SWIDTH 688 0
DWIDTH 12 0
BBX 9 16 1 0
BITMAP
1E00
3F00
6380
4180
4180
0180
0180
0100
0300
0200
0400
0800
1080
2080
7F80
FF80
ENDCHAR
STARTCHAR three
ENCODING 51
SWIDTH 688 0
DWIDTH 12 0
BBX 8 16 2 0
BITMAP
38
7C
86
02
02
02
04
3E
07
03
01
01
01
02
C4
78
ENDCHAR
STARTCHAR four
ENCODING 52
SWIDTH 688 0
DWIDTH 12 0
BBX 11 16 0 0
BITMAP
0080
0180
0380
0580
0980
1180
2180
4180
8180
FFE0
FFE0
0180
0180
0180
0180
0180
ENDCHAR
STARTCHAR five
ENCODING 53
SWIDTH 688 0
DWIDTH 12 0
BBX 9 16 2 0
BITMAP
3F80
3F80
2000
4000
7000
7C00
1E00
0700
0300
0100
0100
0100
0100
0200
C400
7800
ENDCHAR
STARTCHAR six
ENCODING 54
SWIDTH 688 0
DWIDTH 12 0
BBX 9 16 1 0
BITMAP
0380
0C00
1800
3000
6000
6000
7C00
E300
C100
C180
C180
C180
C180
4100
6300
1C00
ENDCHAR
STARTCHAR seven
ENCODING 55
SWIDTH 688 0
DWIDTH 12 0
BBX 8 16 2 0
BITMAP
FF
FF
82
82
02
04
04
04
08
08
08
10
10
10
20
20
ENDCHAR
STARTCHAR eight
ENCODING 56
SWIDTH 688 0
DWIDTH 12 0
BBX 9 16 2 0
BITMAP
1C00
2200
4100
4100
4100
6200
3C00
1C00
2E00
4300
8180
8080
8080
8080
4100
3E00
ENDCHAR
STARTCHAR nine
ENCODING 57
SWIDTH 688 0
DWIDTH 12 0
BBX 9 16 2 0
BITMAP
1C00
6300
4100
C180
C180
C180
C180
4180
6380
1F00
0300
0300
0600
0C00
1800
E000
ENDCHAR
STARTCHAR colon
ENCODING 58
SWIDTH 313 0
DWIDTH 7 0
BBX 2 11 2 0
BITMAP
C0
C0
00
00
00
00
00
00
00
C0
C0
ENDCHAR
STARTCHAR semicolon
ENCODING 59
SWIDTH 313 0
DWIDTH 7 0
BBX 2 14 2 -4
BITMAP
C0
C0
00
00
00
00
00
00
00
C0
C0
40
40
80
ENDCHAR
STARTCHAR less
ENCODING 60
SWIDTH 688 0
DWIDTH 13 0
BBX 12 12 1 2
BITMAP
0030
00E0
0380
0E00
3800
E000
E000
3800
0E00
0380
00E0
0030
ENDCHAR
STARTCHAR equal
ENCODING 61
SWIDTH 688 0
DWIDTH 12 0
BBX 10 4 1 6
BITMAP
FFC0
0000
0000
FFC0
ENDCHAR
STARTCHAR greater
ENCODING 62
SWIDTH 688 0
DWIDTH 13 0
BBX 12 12 1 2
BITMAP
C000
7000
1C00
0700
01C0
0070
0070
01C0
0700
1C00
7000
C000
ENDCHAR
STARTCHAR question
ENCODING 63
SWIDTH 563 0
DWIDTH 10 0
BBX 7 16 2 0
BITMAP
38
4C
86
C6
C6
06
0C
08
10
10
10
00
00
10
38
10
ENDCHAR
STARTCHAR at
ENCODING 64
SWIDTH 875 0
DWIDTH 19 0
BBX 16 16 1 0
BITMAP
03E0
0C18
1004
2182
4251
4631
8431
8C31
8C31
8C61
8C62
4CA4
4718
2000
1818
07E0
ENDCHAR
STARTCHAR A
ENCODING 65
SWIDTH 750 0
DWIDTH 17 0
BBX 16 16 0 0
BITMAP
0180
0180
0180
02C0
02C0
0460
0460
0460
0830
0830
1FF8
1018
1018
200C
200C
F83F
ENDCHAR
STARTCHAR B
ENCODING 66
SWIDTH 625 0
DWIDTH 15 0
BBX 12 16 1 0
BITMAP
FF00
30C0
3060
3060
3060
3060
30C0
3F00
30C0
3060
3030
3030
3030
3030
3060
FF80
ENDCHAR
STARTCHAR C
ENCODING 67
SWIDTH 625 0
DWIDTH 16 0
BBX 13 16 1 0
BITMAP
07C8
1838
3018
6008
6008
C000
C000
C000
C000
C000
C000
6000
6000
3008
1830
07C0
ENDCHAR
STARTCHAR D
ENCODING 68
SWIDTH 688 0
DWIDTH 18 0
BBX 15 16 1 0
BITMAP
FFC0
3030
3018
300C
300C
3006
3006
3006
3006
3006
3006
300C
300C
3018
3030
FFC0
ENDCHAR
STARTCHAR E
ENCODING 69
SWIDTH 563 0
DWIDTH 15 0
BBX 13 16 1 0
BITMAP
FFF0
3010
3010
3010
3000
3020
3020
3FE0
3020
3020
3000
3000
3008
3008
3008
FFF8
ENDCHAR
STARTCHAR F
ENCODING 70
SWIDTH 563 0
DWIDTH 15 0
BBX 13 16 1 0
BITMAP
FFF8
3008
3008
3008
3000
3020
3020
3FE0
3020
3020
3000
3000
3000
3000
3000
FC00
ENDCHAR
STARTCHAR G
ENCODING 71
SWIDTH 688 0
DWIDTH 19 0
BBX 17 16 1 0
BITMAP
07F200
180E00
300600
600200
600200
C00000
C00000
C00000
C00000
C01F80
C00600
600600
600600
300600
180E00
07F800
ENDCHAR
STARTCHAR H
ENCODING 72
SWIDTH 688 0
DWIDTH 19 0
BBX 16 16 1 0
BITMAP
FC3F
300C
300C
300C
300C
300C
300C
300C
3FFC
300C
300C
300C
300C
300C
300C
FC3F
ENDCHAR
STARTCHAR I
ENCODING 73
SWIDTH 250 0
DWIDTH 8 0
BBX 6 16 1 0
BITMAP
FC
30
30
30
30
30
30
30
30
30
30
30
30
30
30
FC
ENDCHAR
STARTCHAR J
ENCODING 74
SWIDTH 500 0
DWIDTH 10 0
BBX 8 16 1 0
BITMAP
3F
0C
0C
0C
0C
0C
0C
0C
0C
0C
0C
0C
0C
CC
C8
70
ENDCHAR
STARTCHAR K
ENCODING 75
SWIDTH 688 0
DWIDTH 17 0
BBX 16 16 1 0
BITMAP
FC7E
3010
3020
3040
3080
3100
3200
3C00
3600
3700
3380
31C0
30E0
3070
3038
FC7F
ENDCHAR
STARTCHAR L
ENCODING 76
SWIDTH 563 0
DWIDTH 15 0
BBX 12 16 1 0
BITMAP
FC00
3000
3000
3000
3000
3000
3000
3000
3000
3000
3000
3000
3010
3010
3010
FFF0
ENDCHAR
STARTCHAR M
ENCODING 77
SWIDTH 813 0
DWIDTH 22 0
BBX 20 16 1 0
BITMAP
F000F0
3000C0
3801C0
3801C0
2C02C0
2C02C0
2604C0
2604C0
2308C0
2308C0
2190C0
2190C0
20E0C0
20E0C0
2040C0
F843F0
ENDCHAR
STARTCHAR N
ENCODING 78
SWIDTH 688 0
DWIDTH 18 0
BBX 16 16 1 0
BITMAP
F01F
3804
3C04
2C04
2604
2704
2384
2184
20C4
2064
2034
203C
201C
200C
2004
F804
ENDCHAR
STARTCHAR O
ENCODING 79
SWIDTH 750 0
DWIDTH 17 0
BBX 15 16 1 0
BITMAP
07C0
1830
3018
600C
600C
C006
C006
C006
C006
C006
C006
600C
600C
3018
1830
07C0
ENDCHAR
STARTCHAR P
ENCODING 80
SWIDTH 563 0
DWIDTH 14 0
BBX 12 16 1 0
BITMAP
FF80
3060
3030
3030
3030
3030
3030
3060
3F80
3000
3000
3000
3000
3000
3000
FC00
ENDCHAR
STARTCHAR Q
ENCODING 81
SWIDTH 750 0
DWIDTH 18 0
BBX 15 20 1 -4
BITMAP
07C0
1830
3018
600C
600C
C006
C006
C006
C006
C006
C006
600C
600C
3018
1830
07C0
0380
01C0
0070
000E
ENDCHAR
STARTCHAR R
ENCODING 82
SWIDTH 625 0
DWIDTH 17 0
BBX 15 16 1 0
BITMAP
FFC0
3060
3030
3030
3030
3030
3030
3060
3F80
31C0
30C0
30E0
3070
3030
3038
FC1E
ENDCHAR
STARTCHAR S
ENCODING 83
SWIDTH 625 0
DWIDTH 13 0
BBX 10 16 1 0
BITMAP
3C80
6380
C180
C080
C080
E000
7800
1C00
0F00
0380
01C0
80C0
80C0
C0C0
E180
9E00
ENDCHAR
STARTCHAR T
ENCODING 84
SWIDTH 625 0
DWIDTH 15 0
BBX 14 16 1 0
BITMAP
FFFC
8304
8304
8304
0300
0300
0300
0300
0300
0300
0300
0300
0300
0300
0300
1FE0
ENDCHAR
STARTCHAR U
ENCODING 85
SWIDTH 688 0
DWIDTH 18 0
BBX 16 16 1 0
BITMAP
FC1F
3004
3004
3004
3004
3004
3004
3004
3004
3004
3004
3004
3004
1808
0C30
03C0
ENDCHAR
STARTCHAR V
ENCODING 86
SWIDTH 750 0
DWIDTH 17 0
BBX 16 16 0 0
BITMAP
FC1F
3004
3004
1808
1808
1808
0C10
0C10
0620
0620
0620
0340
0340
0180
0180
0180
ENDCHAR
STARTCHAR W
ENCODING 87
SWIDTH 938 0
DWIDTH 23 0
BBX 22 16 0 0
BITMAP
FDF87C
306010
306010
183020
183020
183020
0C5840
0C5840
064C80
068C80
068C80
038700
038700
010200
010200
010200
ENDCHAR
STARTCHAR X
ENCODING 88
SWIDTH 625 0
DWIDTH 17 0
BBX 14 16 1 0
BITMAP
FC7C
3010
1820
1820
0C40
0C80
0680
0300
0300
0780
0580
08C0
1060
1060
2030
F8FC
ENDCHAR
STARTCHAR Y
ENCODING 89
SWIDTH 625 0
DWIDTH 16 0
BBX 16 16 0 0
BITMAP
FC1F
3004
1808
1808
0C10
0620
0620
0340
0180
0180
0180
0180
0180
0180
0180
07E0
ENDCHAR
STARTCHAR Z
ENCODING 90
SWIDTH 563 0
DWIDTH 16 0
BBX 12 16 2 0
BITMAP
FFF0
8030
8060
80C0
00C0
0180
0300
0600
0600
0C00
1800
3000
3010
6010
C010
FFF0
ENDCHAR
STARTCHAR bracketleft
ENCODING 91
SWIDTH 438 0
DWIDTH 7 0
BBX 4 20 2 -2
BITMAP
F0
80
80
80
80
80
80
80
80
80
80
80
80
80
80
80
80
80
80
F0
ENDCHAR
STARTCHAR backslash
ENCODING 92
SWIDTH 563 0
DWIDTH 13 0
BBX 10 20 2 -2
BITMAP
8000
8000
4000
4000
2000
2000
1000
1000
0800
0800
0400
0400
0200
0200
0100
0100
0080
0080
0040
0040
ENDCHAR
STARTCHAR bracketright
ENCODING 93
SWIDTH 438 0
DWIDTH 7 0
BBX 4 20 0 -2
BITMAP
F0
10
10
10
10
10
10
10
10
10
10
10
10
10
10
10
10
10
10
F0
ENDCHAR
STARTCHAR asciicircum
ENCODING 94
SWIDTH 688 0
DWIDTH 12 0
BBX 9 7 2 11
BITMAP
1C00
1400
3600
2200
6300
4100
C180
ENDCHAR
STARTCHAR underscore
ENCODING 95
SWIDTH 688 0
DWIDTH 12 0
BBX 12 1 0 -4
BITMAP
FFF0
ENDCHAR
STARTCHAR grave
ENCODING 96
SWIDTH 563 0
DWIDTH 6 0
BBX 4 8 1 8
BITMAP
80
C0
40
60
20
20
10
10
ENDCHAR
STARTCHAR a
ENCODING 97
SWIDTH 563 0
DWIDTH 11 0
BBX 10 11 1 0
BITMAP
3C00
6200
6300
0300
0F00
3300
4300
C300
C300
C740
7980
ENDCHAR
STARTCHAR b
ENCODING 98
SWIDTH 625 0
DWIDTH 12 0
BBX 11 16 0 0
BITMAP
3000
F000
3000
3000
3000
3700
3880
30C0
3060
3060
3060
3060
3060
30C0
1880
0700
ENDCHAR
STARTCHAR c
ENCODING 99
SWIDTH 563 0
DWIDTH 11 0
BBX 8 11 1 0
BITMAP
1E
23
63
C0
C0
C0
C0
C1
61
22
1C
ENDCHAR
STARTCHAR d
ENCODING 100
SWIDTH 625 0
DWIDTH 12 0
BBX 11 16 1 0
BITMAP
0180
0780
0180
0180
0180
1D80
2380
6180
C180
C180
C180
C180
C180
6180
23E0
1D80
ENDCHAR
STARTCHAR e
ENCODING 101
SWIDTH 563 0
DWIDTH 11 0
BBX 9 11 1 0
BITMAP
1C00
2200
4100
C180
FF80
C000
C000
C080
6080
2100
1E00
ENDCHAR
STARTCHAR f
ENCODING 102
SWIDTH 375 0
DWIDTH 8 0
BBX 9 17 1 0
BITMAP
0F00
1180
3180
3000
3000
3000
FE00
3000
3000
3000
3000
3000
3000
3000
3000
3000
FC00
ENDCHAR
STARTCHAR g
ENCODING 103
SWIDTH 625 0
DWIDTH 11 0
BBX 11 15 1 -4
BITMAP
1C00
33E0
6180
6180
6180
3300
1E00
2000
4000
3F80
40C0
C0C0
C0C0
6180
3E00
ENDCHAR
STARTCHAR h
ENCODING 104
SWIDTH 563 0
DWIDTH 13 0
BBX 13 16 0 0
BITMAP
3000
F000
3000
3000
3000
3380
34C0
3860
3060
3060
3060
3060
3060
3060
3060
FCF8
ENDCHAR
STARTCHAR i
ENCODING 105
SWIDTH 250 0
DWIDTH 6 0
BBX 6 16 0 0
BITMAP
30
30
00
00
00
30
F0
30
30
30
30
30
30
30
30
FC
ENDCHAR
STARTCHAR j
ENCODING 106
SWIDTH 250 0
DWIDTH 6 0
BBX 5 20 -1 -4
BITMAP
18
18
00
00
00
18
78
18
18
18
18
18
18
18
18
18
18
18
D0
E0
ENDCHAR
STARTCHAR k
ENCODING 107
SWIDTH 563 0
DWIDTH 12 0
BBX 12 16 1 0
BITMAP
3000
F000
3000
3000
3000
31E0
3080
3100
3200
3400
3C00
3600
3300
3180
30C0
FDF0
ENDCHAR
STARTCHAR l
ENCODING 108
SWIDTH 250 0
DWIDTH 6 0
BBX 6 16 0 0
BITMAP
30
F0
30
30
30
30
30
30
30
30
30
30
30
30
30
FC
ENDCHAR
STARTCHAR m
ENCODING 109
SWIDTH 875 0
DWIDTH 20 0
BBX 18 11 1 0
BITMAP
271C00
F9A600
30C300
30C300
30C300
30C300
30C300
30C300
30C300
30C300
F9E7C0
ENDCHAR
STARTCHAR n
ENCODING 110
SWIDTH 563 0
DWIDTH 13 0
BBX 12 11 0 0
BITMAP
3380
F4C0
3860
3060
3060
3060
3060
3060
3060
3060
F8F0
ENDCHAR
STARTCHAR o
ENCODING 111
SWIDTH 625 0
DWIDTH 12 0
BBX 10 11 1 0
BITMAP
1E00
2100
6180
C0C0
C0C0
C0C0
C0C0
C0C0
6180
2100
1E00
ENDCHAR
STARTCHAR p
ENCODING 112
SWIDTH 625 0
DWIDTH 12 0
BBX 11 15 0 -4
BITMAP
3700
F880
30C0
3060
3060
3060
3060
3060
30C0
3880
3700
3000
3000
3000
FC00
ENDCHAR
STARTCHAR q
ENCODING 113
SWIDTH 625 0
DWIDTH 13 0
BBX 11 15 1 -4
BITMAP
1C80
2380
6180
C180
C180
C180
C180
C180
6180
2380
1D80
0180
0180
0180
07E0
ENDCHAR
STARTCHAR r
ENCODING 114
SWIDTH 375 0
DWIDTH 8 0
BBX 8 11 0 0
BITMAP
2E
FB
33
30
30
30
30
30
30
30
FC
ENDCHAR
STARTCHAR s
ENCODING 115
SWIDTH 500 0
DWIDTH 9 0
BBX 7 11 1 0
BITMAP
74
8C
84
C4
70
38
0C
06
82
C6
BC
ENDCHAR
STARTCHAR t
ENCODING 116
SWIDTH 438 0
DWIDTH 7 0
BBX 7 15 0 0
BITMAP
30
30
30
30
FE
30
30
30
30
30
30
30
30
32
1C
ENDCHAR
STARTCHAR u
ENCODING 117
SWIDTH 563 0
DWIDTH 13 0
BBX 13 11 0 0
BITMAP
F1E0
3060
3060
3060
3060
3060
3060
3060
30E0
1978
0E60
ENDCHAR
STARTCHAR v
ENCODING 118
SWIDTH 563 0
DWIDTH 11 0
BBX 12 11 0 0
BITMAP
FDF0
3040
3040
1880
1880
1880
0D00
0D00
0600
0600
0600
ENDCHAR
STARTCHAR w
ENCODING 119
SWIDTH 750 0
DWIDTH 16 0
BBX 17 11 0 0
BITMAP
FBEF80
318200
308200
31C400
19C400
196400
0E6800
0E3800
0C3000
041000
041000
ENDCHAR
STARTCHAR x
ENCODING 120
SWIDTH 500 0
DWIDTH 12 0
BBX 13 11 0 0
BITMAP
F9F0
3040
1880
0D00
0600
0600
0700
0980
10C0
2060
F9F8
ENDCHAR
STARTCHAR y
ENCODING 121
SWIDTH 563 0
DWIDTH 11 0
BBX 13 15 -1 -4
BITMAP
FCF8
3020
3020
1840
1840
0C80
0C80
0700
0700
0200
0200
0400
0400
3800
3000
ENDCHAR
STARTCHAR z
ENCODING 122
SWIDTH 563 0
DWIDTH 11 0
BBX 9 11 1 0
BITMAP
7F80
4300
4300
0600
0C00
0C00
1800
3000
3080
6080
FF80
ENDCHAR
STARTCHAR braceleft
ENCODING 123
SWIDTH 438 0
DWIDTH 12 0
BBX 7 20 3 -2
BITMAP
1E
30
30
30
30
30
30
30
20
C0
20
30
30
30
30
30
30
30
30
1E
ENDCHAR
STARTCHAR bar
ENCODING 124
SWIDTH 250 0
DWIDTH 12 0
BBX 1 20 5 -2
BITMAP
80
80
80
80
80
80
80
80
80
80
80
80
80
80
80
80
80
80
80
80
ENDCHAR
STARTCHAR braceright
ENCODING 125
SWIDTH 438 0
DWIDTH 12 0
BBX 7 20 2 -2
BITMAP
F0
18
18
18
18
18
18
18
08
06
08
18
18
18
18
18
18
18
18
F0
ENDCHAR
STARTCHAR asciitilde
ENCODING 126
SWIDTH 688 0
DWIDTH 16 0
BBX 12 3 2 8
BITMAP
3C30
7FE0
C3C0
ENDCHAR
STARTCHAR Adieresis
ENCODING 128
SWIDTH 1000 0
DWIDTH 13 0
BBX 13 16 0 0
BITMAP
30C0
30C0
0000
0000
0000
F1E0
3060
3060
3060
3060
3060
3060
3060
30E0
1978
0E60
ENDCHAR
STARTCHAR Aring
ENCODING 129
SWIDTH 63 0
DWIDTH 1 0
BBX 1 24 0 -4
BITMAP
80
80
80
80
80
80
80
80
80
80
80
80
80
80
80
80
80
80
80
80
80
80
80
80
ENDCHAR
STARTCHAR Ccedilla
ENCODING 130
SWIDTH 1000 0
DWIDTH 24 0
BBX 24 1 0 0
BITMAP
FFFFFF
ENDCHAR
STARTCHAR Eacute
ENCODING 131
SWIDTH 1000 0
DWIDTH 24 0
BBX 24 24 0 -4
BITMAP
FFFFFF
FFFFFF
FFFFFF
FFFFFF
FFFFFF
FFFFFF
FFFFFF
FFFFFF
FFFFFF
FFFFFF
FFFFFF
FFFFFF
FFFFFF
FFFFFF
FFFFFF
FFFFFF
FFFFFF
FFFFFF
FFFFFF
FFFFFF
FFFFFF
FFFFFF
FFFFFF
FFFFFF
ENDCHAR
STARTCHAR Ntilde
ENCODING 132
SWIDTH 1000 0
DWIDTH 24 0
BBX 24 24 0 -4
BITMAP
FFFFFF
FFFFFF
FFFFFF
FFFFFF
FFFFFF
FFFFFF
FFFFFF
FFFFFF
FFFFFF
FFFFFF
FFFFFF
FFFFFF
FFFFFF
FFFFFF
FFFFFF
FFFFFF
FFFFFF
FFFFFF
FFFFFF
FFFFFF
FFFFFF
FFFFFF
FFFFFF
FFFFFF
ENDCHAR
STARTCHAR Odieresis
ENCODING 133
SWIDTH 1000 0
DWIDTH 24 0
BBX 24 24 0 -4
BITMAP
FFFFFF
FFFFFF
FFFFFF
FFFFFF
FFFFFF
FFFFFF
FFFFFF
FFFFFF
FFFFFF
FFFFFF
FFFFFF
FFFFFF
FFFFFF
FFFFFF
FFFFFF
FFFFFF
FFFFFF
FFFFFF
FFFFFF
FFFFFF
FFFFFF
FFFFFF
FFFFFF
FFFFFF
ENDCHAR
STARTCHAR Udieresis
ENCODING 134
SWIDTH 1000 0
DWIDTH 24 0
BBX 24 24 0 -4
BITMAP
FFFFFF
FFFFFF
FFFFFF
FFFFFF
FFFFFF
FFFFFF
FFFFFF
FFFFFF
FFFFFF
FFFFFF
FFFFFF
FFFFFF
FFFFFF
FFFFFF
FFFFFF
FFFFFF
FFFFFF
FFFFFF
FFFFFF
FFFFFF
FFFFFF
FFFFFF
FFFFFF
FFFFFF
ENDCHAR
STARTCHAR aacute
ENCODING 135
SWIDTH 1000 0
DWIDTH 24 0
BBX 24 24 0 -4
BITMAP
FFFFFF
FFFFFF
FFFFFF
FFFFFF
FFFFFF
FFFFFF
FFFFFF
FFFFFF
FFFFFF
FFFFFF
FFFFFF
FFFFFF
FFFFFF
FFFFFF
FFFFFF
FFFFFF
FFFFFF
FFFFFF
FFFFFF
FFFFFF
FFFFFF
FFFFFF
FFFFFF
FFFFFF
ENDCHAR
STARTCHAR agrave
ENCODING 136
SWIDTH 1000 0
DWIDTH 24 0
BBX 24 24 0 -4
BITMAP
FFFFFF
FFFFFF
FFFFFF
FFFFFF
FFFFFF
FFFFFF
FFFFFF
FFFFFF
FFFFFF
FFFFFF
FFFFFF
FFFFFF
FFFFFF
FFFFFF
FFFFFF
FFFFFF
FFFFFF
FFFFFF
FFFFFF
FFFFFF
FFFFFF
FFFFFF
FFFFFF
FFFFFF
ENDCHAR
STARTCHAR acircumflex
ENCODING 137
SWIDTH 1000 0
DWIDTH 24 0
BBX 24 24 0 -4
BITMAP
FFFFFF
FFFFFF
FFFFFF
FFFFFF
FFFFFF
FFFFFF
FFFFFF
FFFFFF
FFFFFF
FFFFFF
FFFFFF
FFFFFF
FFFFFF
FFFFFF
FFFFFF
FFFFFF
FFFFFF
FFFFFF
FFFFFF
FFFFFF
FFFFFF
FFFFFF
FFFFFF
FFFFFF
ENDCHAR
STARTCHAR adieresis
ENCODING 138
SWIDTH 1000 0
DWIDTH 24 0
BBX 24 24 0 -4
BITMAP
FFFFFF
FFFFFF
FFFFFF
FFFFFF
FFFFFF
FFFFFF
FFFFFF
FFFFFF
FFFFFF
FFFFFF
FFFFFF
FFFFFF
FFFFFF
FFFFFF
FFFFFF
FFFFFF
FFFFFF
FFFFFF
FFFFFF
FFFFFF
FFFFFF
FFFFFF
FFFFFF
FFFFFF
ENDCHAR
STARTCHAR atilde
ENCODING 139
SWIDTH 1000 0
DWIDTH 24 0
BBX 24 24 0 -4
BITMAP
FFFFFF
FFFFFF
FFFFFF
FFFFFF
FFFFFF
FFFFFF
FFFFFF
FFFFFF
FFFFFF
FFFFFF
FFFFFF
FFFFFF
FFFFFF
FFFFFF
FFFFFF
FFFFFF
FFFFFF
FFFFFF
FFFFFF
FFFFFF
FFFFFF
FFFFFF
FFFFFF
FFFFFF
ENDCHAR
STARTCHAR aring
ENCODING 140
SWIDTH 1000 0
DWIDTH 24 0
BBX 24 24 0 -4
BITMAP
FFFFFF
FFFFFF
FFFFFF
FFFFFF
FFFFFF
FFFFFF
FFFFFF
FFFFFF
FFFFFF
FFFFFF
FFFFFF
FFFFFF
FFFFFF
FFFFFF
FFFFFF
FFFFFF
FFFFFF
FFFFFF
FFFFFF
FFFFFF
FFFFFF
FFFFFF
FFFFFF
FFFFFF
ENDCHAR
STARTCHAR ccedilla
ENCODING 141
SWIDTH 1000 0
DWIDTH 24 0
BBX 24 24 0 -4
BITMAP
FFFFFF
FFFFFF
FFFFFF
FFFFFF
FFFFFF
FFFFFF
FFFFFF
FFFFFF
FFFFFF
FFFFFF
FFFFFF
FFFFFF
FFFFFF
FFFFFF
FFFFFF
FFFFFF
FFFFFF
FFFFFF
FFFFFF
FFFFFF
FFFFFF
FFFFFF
FFFFFF
FFFFFF
ENDCHAR
STARTCHAR eacute
ENCODING 142
SWIDTH 1000 0
DWIDTH 24 0
BBX 24 24 0 -4
BITMAP
FFFFFF
FFFFFF
FFFFFF
FFFFFF
FFFFFF
FFFFFF
FFFFFF
FFFFFF
FFFFFF
FFFFFF
FFFFFF
FFFFFF
FFFFFF
FFFFFF
FFFFFF
FFFFFF
FFFFFF
FFFFFF
FFFFFF
FFFFFF
FFFFFF
FFFFFF
FFFFFF
FFFFFF
ENDCHAR
STARTCHAR egrave
ENCODING 143
SWIDTH 1000 0
DWIDTH 24 0
BBX 24 24 0 -4
BITMAP
FFFFFF
FFFFFF
FFFFFF
FFFFFF
FFFFFF
FFFFFF
FFFFFF
FFFFFF
FFFFFF
FFFFFF
FFFFFF
FFFFFF
FFFFFF
FFFFFF
FFFFFF
FFFFFF
FFFFFF
FFFFFF
FFFFFF
FFFFFF
FFFFFF
FFFFFF
FFFFFF
FFFFFF
ENDCHAR
STARTCHAR ecircumflex
ENCODING 144
SWIDTH 1000 0
DWIDTH 24 0
BBX 24 24 0 -4
BITMAP
FFFFFF
FFFFFF
FFFFFF
FFFFFF
FFFFFF
FFFFFF
FFFFFF
FFFFFF
FFFFFF
FFFFFF
FFFFFF
FFFFFF
FFFFFF
FFFFFF
FFFFFF
FFFFFF
FFFFFF
FFFFFF
FFFFFF
FFFFFF
FFFFFF
FFFFFF
FFFFFF
FFFFFF
ENDCHAR
STARTCHAR edieresis
ENCODING 145
SWIDTH 1000 0
DWIDTH 24 0
BBX 24 24 0 -4
BITMAP
FFFFFF
FFFFFF
FFFFFF
FFFFFF
FFFFFF
FFFFFF
FFFFFF
FFFFFF
FFFFFF
FFFFFF
FFFFFF
FFFFFF
FFFFFF
FFFFFF
FFFFFF
FFFFFF
FFFFFF
FFFFFF
FFFFFF
FFFFFF
FFFFFF
FFFFFF
FFFFFF
FFFFFF
ENDCHAR
STARTCHAR iacute
ENCODING 146
SWIDTH 1000 0
DWIDTH 24 0
BBX 24 24 0 -4
BITMAP
FFFFFF
FFFFFF
FFFFFF
FFFFFF
FFFFFF
FFFFFF
FFFFFF
FFFFFF
FFFFFF
FFFFFF
FFFFFF
FFFFFF
FFFFFF
FFFFFF
FFFFFF
FFFFFF
FFFFFF
FFFFFF
FFFFFF
FFFFFF
FFFFFF
FFFFFF
FFFFFF
FFFFFF
ENDCHAR
STARTCHAR igrave
ENCODING 147
SWIDTH 1000 0
DWIDTH 24 0
BBX 24 24 0 -4
BITMAP
FFFFFF
FFFFFF
FFFFFF
FFFFFF
FFFFFF
FFFFFF
FFFFFF
FFFFFF
FFFFFF
FFFFFF
FFFFFF
FFFFFF
FFFFFF
FFFFFF
FFFFFF
FFFFFF
FFFFFF
FFFFFF
FFFFFF
FFFFFF
FFFFFF
FFFFFF
FFFFFF
FFFFFF
ENDCHAR
STARTCHAR icircumflex
ENCODING 148
SWIDTH 1000 0
DWIDTH 24 0
BBX 24 24 0 -4
BITMAP
FFFFFF
FFFFFF
FFFFFF
FFFFFF
FFFFFF
FFFFFF
FFFFFF
FFFFFF
FFFFFF
FFFFFF
FFFFFF
FFFFFF
FFFFFF
FFFFFF
FFFFFF
FFFFFF
FFFFFF
FFFFFF
FFFFFF
FFFFFF
FFFFFF
FFFFFF
FFFFFF
FFFFFF
ENDCHAR
STARTCHAR idieresis
ENCODING 149
SWIDTH 1000 0
DWIDTH 24 0
BBX 24 24 0 -4
BITMAP
FFFFFF
FFFFFF
FFFFFF
FFFFFF
FFFFFF
FFFFFF
FFFFFF
FFFFFF
FFFFFF
FFFFFF
FFFFFF
FFFFFF
FFFFFF
FFFFFF
FFFFFF
FFFFFF
FFFFFF
FFFFFF
FFFFFF
FFFFFF
FFFFFF
FFFFFF
FFFFFF
FFFFFF
ENDCHAR
STARTCHAR ntilde
ENCODING 150
SWIDTH 1000 0
DWIDTH 24 0
BBX 24 24 0 -4
BITMAP
FFFFFF
FFFFFF
FFFFFF
FFFFFF
FFFFFF
FFFFFF
FFFFFF
FFFFFF
FFFFFF
FFFFFF
FFFFFF
FFFFFF
FFFFFF
FFFFFF
FFFFFF
FFFFFF
FFFFFF
FFFFFF
FFFFFF
FFFFFF
FFFFFF
FFFFFF
FFFFFF
FFFFFF
ENDCHAR
STARTCHAR oacute
ENCODING 151
SWIDTH 1000 0
DWIDTH 24 0
BBX 24 24 0 -4
BITMAP
FFFFFF
FFFFFF
FFFFFF
FFFFFF
FFFFFF
FFFFFF
FFFFFF
FFFFFF
FFFFFF
FFFFFF
FFFFFF
FFFFFF
FFFFFF
FFFFFF
FFFFFF
FFFFFF
FFFFFF
FFFFFF
FFFFFF
FFFFFF
FFFFFF
FFFFFF
FFFFFF
FFFFFF
ENDCHAR
STARTCHAR ograve
ENCODING 152
SWIDTH 1000 0
DWIDTH 24 0
BBX 24 24 0 -4
BITMAP
FFFFFF
FFFFFF
FFFFFF
FFFFFF
FFFFFF
FFFFFF
FFFFFF
FFFFFF
FFFFFF
FFFFFF
FFFFFF
FFFFFF
FFFFFF
FFFFFF
FFFFFF
FFFFFF
FFFFFF
FFFFFF
FFFFFF
FFFFFF
FFFFFF
FFFFFF
FFFFFF
FFFFFF
ENDCHAR
STARTCHAR ocircumflex
ENCODING 153
SWIDTH 1000 0
DWIDTH 24 0
BBX 24 24 0 -4
BITMAP
FFFFFF
FFFFFF
FFFFFF
FFFFFF
FFFFFF
FFFFFF
FFFFFF
FFFFFF
FFFFFF
FFFFFF
FFFFFF
FFFFFF
FFFFFF
FFFFFF
FFFFFF
FFFFFF
FFFFFF
FFFFFF
FFFFFF
FFFFFF
FFFFFF
FFFFFF
FFFFFF
FFFFFF
ENDCHAR
STARTCHAR odieresis
ENCODING 154
SWIDTH 1000 0
DWIDTH 24 0
BBX 24 24 0 -4
BITMAP
FFFFFF
FFFFFF
FFFFFF
FFFFFF
FFFFFF
FFFFFF
FFFFFF
FFFFFF
FFFFFF
FFFFFF
FFFFFF
FFFFFF
FFFFFF
FFFFFF
FFFFFF
FFFFFF
FFFFFF
FFFFFF
FFFFFF
FFFFFF
FFFFFF
FFFFFF
FFFFFF
FFFFFF
ENDCHAR
STARTCHAR otilde
ENCODING 155
SWIDTH 1000 0
DWIDTH 24 0
BBX 24 24 0 -4
BITMAP
FFFFFF
FFFFFF
FFFFFF
FFFFFF
FFFFFF
FFFFFF
FFFFFF
FFFFFF
FFFFFF
FFFFFF
FFFFFF
FFFFFF
FFFFFF
FFFFFF
FFFFFF
FFFFFF
FFFFFF
FFFFFF
FFFFFF
FFFFFF
FFFFFF
FFFFFF
FFFFFF
FFFFFF
ENDCHAR
STARTCHAR uacute
ENCODING 156
SWIDTH 1000 0
DWIDTH 24 0
BBX 24 24 0 -4
BITMAP
FFFFFF
FFFFFF
FFFFFF
FFFFFF
FFFFFF
FFFFFF
FFFFFF
FFFFFF
FFFFFF
FFFFFF
FFFFFF
FFFFFF
FFFFFF
FFFFFF
FFFFFF
FFFFFF
FFFFFF
FFFFFF
FFFFFF
FFFFFF
FFFFFF
FFFFFF
FFFFFF
FFFFFF
ENDCHAR
STARTCHAR ugrave
ENCODING 157
SWIDTH 1000 0
DWIDTH 24 0
BBX 24 24 0 -4
BITMAP
FFFFFF
FFFFFF
FFFFFF
FFFFFF
FFFFFF
FFFFFF
FFFFFF
FFFFFF
FFFFFF
FFFFFF
FFFFFF
FFFFFF
FFFFFF
FFFFFF
FFFFFF
FFFFFF
FFFFFF
FFFFFF
FFFFFF
FFFFFF
FFFFFF
FFFFFF
FFFFFF
FFFFFF
ENDCHAR
STARTCHAR ucircumflex
ENCODING 158
SWIDTH 1000 0
DWIDTH 24 0
BBX 24 24 0 -4
BITMAP
FFFFFF
FFFFFF
FFFFFF
FFFFFF
FFFFFF
FFFFFF
FFFFFF
FFFFFF
FFFFFF
FFFFFF
FFFFFF
FFFFFF
FFFFFF
FFFFFF
FFFFFF
FFFFFF
FFFFFF
FFFFFF
FFFFFF
FFFFFF
FFFFFF
FFFFFF
FFFFFF
FFFFFF
ENDCHAR
STARTCHAR udieresis
ENCODING 159
SWIDTH 1000 0
DWIDTH 24 0
BBX 24 24 0 -4
BITMAP
FFFFFF
FFFFFF
FFFFFF
FFFFFF
FFFFFF
FFFFFF
FFFFFF
FFFFFF
FFFFFF
FFFFFF
FFFFFF
FFFFFF
FFFFFF
FFFFFF
FFFFFF
FFFFFF
FFFFFF
FFFFFF
FFFFFF
FFFFFF
FFFFFF
FFFFFF
FFFFFF
FFFFFF
ENDCHAR
STARTCHAR dagger
ENCODING 160
SWIDTH 625 0
DWIDTH 12 0
BBX 0 0 0 -4
BITMAP
ENDCHAR
STARTCHAR degree
ENCODING 161
SWIDTH 500 0
DWIDTH 12 0
BBX 12 24 0 -4
BITMAP
FFF0
FFF0
FFF0
FFF0
FFF0
FFF0
FFF0
FFF0
FFF0
FFF0
FFF0
FFF0
FFF0
FFF0
FFF0
FFF0
FFF0
FFF0
FFF0
FFF0
FFF0
FFF0
FFF0
FFF0
ENDCHAR
STARTCHAR cent
ENCODING 162
SWIDTH 500 0
DWIDTH 12 0
BBX 12 24 0 -4
BITMAP
FFF0
FFF0
FFF0
FFF0
FFF0
FFF0
FFF0
FFF0
FFF0
FFF0
FFF0
FFF0
FFF0
FFF0
FFF0
FFF0
FFF0
FFF0
FFF0
FFF0
FFF0
FFF0
FFF0
FFF0
ENDCHAR
STARTCHAR sterling
ENCODING 163
SWIDTH 500 0
DWIDTH 12 0
BBX 12 24 0 -4
BITMAP
FFF0
FFF0
FFF0
FFF0
FFF0
FFF0
FFF0
FFF0
FFF0
FFF0
FFF0
FFF0
FFF0
FFF0
FFF0
FFF0
FFF0
FFF0
FFF0
FFF0
FFF0
FFF0
FFF0
FFF0
ENDCHAR
STARTCHAR section
ENCODING 164
SWIDTH 500 0
DWIDTH 12 0
BBX 12 24 0 -4
BITMAP
FFF0
FFF0
FFF0
FFF0
FFF0
FFF0
FFF0
FFF0
FFF0
FFF0
FFF0
FFF0
FFF0
FFF0
FFF0
FFF0
FFF0
FFF0
FFF0
FFF0
FFF0
FFF0
FFF0
FFF0
ENDCHAR
STARTCHAR bullet
ENCODING 165
SWIDTH 500 0
DWIDTH 12 0
BBX 12 24 0 -4
BITMAP
FFF0
FFF0
FFF0
FFF0
FFF0
FFF0
FFF0
FFF0
FFF0
FFF0
FFF0
FFF0
FFF0
FFF0
FFF0
FFF0
FFF0
FFF0
FFF0
FFF0
FFF0
FFF0
FFF0
FFF0
ENDCHAR
STARTCHAR paragraph
ENCODING 166
SWIDTH 500 0
DWIDTH 12 0
BBX 12 24 0 -4
BITMAP
FFF0
FFF0
FFF0
FFF0
FFF0
FFF0
FFF0
FFF0
FFF0
FFF0
FFF0
FFF0
FFF0
FFF0
FFF0
FFF0
FFF0
FFF0
FFF0
FFF0
FFF0
FFF0
FFF0
FFF0
ENDCHAR
STARTCHAR germandbls
ENCODING 167
SWIDTH 500 0
DWIDTH 12 0
BBX 12 24 0 -4
BITMAP
FFF0
FFF0
FFF0
FFF0
FFF0
FFF0
FFF0
FFF0
FFF0
FFF0
FFF0
FFF0
FFF0
FFF0
FFF0
FFF0
FFF0
FFF0
FFF0
FFF0
FFF0
FFF0
FFF0
FFF0
ENDCHAR
STARTCHAR registered
ENCODING 168
SWIDTH 500 0
DWIDTH 12 0
BBX 12 24 0 -4
BITMAP
FFF0
FFF0
FFF0
FFF0
FFF0
FFF0
FFF0
FFF0
FFF0
FFF0
FFF0
FFF0
FFF0
FFF0
FFF0
FFF0
FFF0
FFF0
FFF0
FFF0
FFF0
FFF0
FFF0
FFF0
ENDCHAR
STARTCHAR copyright
ENCODING 169
SWIDTH 500 0
DWIDTH 12 0
BBX 12 24 0 -4
BITMAP
FFF0
FFF0
FFF0
FFF0
FFF0
FFF0
FFF0
FFF0
FFF0
FFF0
FFF0
FFF0
FFF0
FFF0
FFF0
FFF0
FFF0
FFF0
FFF0
FFF0
FFF0
FFF0
FFF0
FFF0
ENDCHAR
STARTCHAR trademark
ENCODING 170
SWIDTH 500 0
DWIDTH 12 0
BBX 12 24 0 -4
BITMAP
FFF0
FFF0
FFF0
FFF0
FFF0
FFF0
FFF0
FFF0
FFF0
FFF0
FFF0
FFF0
FFF0
FFF0
FFF0
FFF0
FFF0
FFF0
FFF0
FFF0
FFF0
FFF0
FFF0
FFF0
ENDCHAR
STARTCHAR acute
ENCODING 171
SWIDTH 500 0
DWIDTH 12 0
BBX 12 24 0 -4
BITMAP
FFF0
FFF0
FFF0
FFF0
FFF0
FFF0
FFF0
FFF0
FFF0
FFF0
FFF0
FFF0
FFF0
FFF0
FFF0
FFF0
FFF0
FFF0
FFF0
FFF0
FFF0
FFF0
FFF0
FFF0
ENDCHAR
STARTCHAR dieresis
ENCODING 172
SWIDTH 500 0
DWIDTH 12 0
BBX 12 24 0 -4
BITMAP
FFF0
FFF0
FFF0
FFF0
FFF0
FFF0
FFF0
FFF0
FFF0
FFF0
FFF0
FFF0
FFF0
FFF0
FFF0
FFF0
FFF0
FFF0
FFF0
FFF0
FFF0
FFF0
FFF0
FFF0
ENDCHAR
STARTCHAR notequal
ENCODING 173
SWIDTH 500 0
DWIDTH 12 0
BBX 12 24 0 -4
BITMAP
FFF0
FFF0
FFF0
FFF0
FFF0
FFF0
FFF0
FFF0
FFF0
FFF0
FFF0
FFF0
FFF0
FFF0
FFF0
FFF0
FFF0
FFF0
FFF0
FFF0
FFF0
FFF0
FFF0
FFF0
ENDCHAR
STARTCHAR AE
ENCODING 174
SWIDTH 500 0
DWIDTH 12 0
BBX 12 24 0 -4
BITMAP
FFF0
FFF0
FFF0
FFF0
FFF0
FFF0
FFF0
FFF0
FFF0
FFF0
FFF0
FFF0
FFF0
FFF0
FFF0
FFF0
FFF0
FFF0
FFF0
FFF0
FFF0
FFF0
FFF0
FFF0
ENDCHAR
STARTCHAR Oslash
ENCODING 175
SWIDTH 500 0
DWIDTH 12 0
BBX 12 24 0 -4
BITMAP
FFF0
FFF0
FFF0
FFF0
FFF0
FFF0
FFF0
FFF0
FFF0
FFF0
FFF0
FFF0
FFF0
FFF0
FFF0
FFF0
FFF0
FFF0
FFF0
FFF0
FFF0
FFF0
FFF0
FFF0
ENDCHAR
STARTCHAR infinity
ENCODING 176
SWIDTH 500 0
DWIDTH 12 0
BBX 12 24 0 -4
BITMAP
FFF0
FFF0
FFF0
FFF0
FFF0
FFF0
FFF0
FFF0
FFF0
FFF0
FFF0
FFF0
FFF0
FFF0
FFF0
FFF0
FFF0
FFF0
FFF0
FFF0
FFF0
FFF0
FFF0
FFF0
ENDCHAR
STARTCHAR plusminus
ENCODING 177
SWIDTH 500 0
DWIDTH 12 0
BBX 12 24 0 -4
BITMAP
FFF0
FFF0
FFF0
FFF0
FFF0
FFF0
FFF0
FFF0
FFF0
FFF0
FFF0
FFF0
FFF0
FFF0
FFF0
FFF0
FFF0
FFF0
FFF0
FFF0
FFF0
FFF0
FFF0
FFF0
ENDCHAR
STARTCHAR lessequal
ENCODING 178
SWIDTH 500 0
DWIDTH 12 0
BBX 12 24 0 -4
BITMAP
FFF0
FFF0
FFF0
FFF0
FFF0
FFF0
FFF0
FFF0
FFF0
FFF0
FFF0
FFF0
FFF0
FFF0
FFF0
FFF0
FFF0
FFF0
FFF0
FFF0
FFF0
FFF0
FFF0
FFF0
ENDCHAR
STARTCHAR greaterequal
ENCODING 179
SWIDTH 500 0
DWIDTH 12 0
BBX 12 24 0 -4
BITMAP
FFF0
FFF0
FFF0
FFF0
FFF0
FFF0
FFF0
FFF0
FFF0
FFF0
FFF0
FFF0
FFF0
FFF0
FFF0
FFF0
FFF0
FFF0
FFF0
FFF0
FFF0
FFF0
FFF0
FFF0
ENDCHAR
STARTCHAR yen
ENCODING 180
SWIDTH 500 0
DWIDTH 12 0
BBX 12 24 0 -4
BITMAP
FFF0
FFF0
FFF0
FFF0
FFF0
FFF0
FFF0
FFF0
FFF0
FFF0
FFF0
FFF0
FFF0
FFF0
FFF0
FFF0
FFF0
FFF0
FFF0
FFF0
FFF0
FFF0
FFF0
FFF0
ENDCHAR
STARTCHAR mu
ENCODING 181
SWIDTH 500 0
DWIDTH 12 0
BBX 12 24 0 -4
BITMAP
FFF0
FFF0
FFF0
FFF0
FFF0
FFF0
FFF0
FFF0
FFF0
FFF0
FFF0
FFF0
FFF0
FFF0
FFF0
FFF0
FFF0
FFF0
FFF0
FFF0
FFF0
FFF0
FFF0
FFF0
ENDCHAR
STARTCHAR partialdiff
ENCODING 182
SWIDTH 500 0
DWIDTH 12 0
BBX 12 24 0 -4
BITMAP
FFF0
FFF0
FFF0
FFF0
FFF0
FFF0
FFF0
FFF0
FFF0
FFF0
FFF0
FFF0
FFF0
FFF0
FFF0
FFF0
FFF0
FFF0
FFF0
FFF0
FFF0
FFF0
FFF0
FFF0
ENDCHAR
STARTCHAR summation
ENCODING 183
SWIDTH 500 0
DWIDTH 12 0
BBX 12 24 0 -4
BITMAP
FFF0
FFF0
FFF0
FFF0
FFF0
FFF0
FFF0
FFF0
FFF0
FFF0
FFF0
FFF0
FFF0
FFF0
FFF0
FFF0
FFF0
FFF0
FFF0
FFF0
FFF0
FFF0
FFF0
FFF0
ENDCHAR
STARTCHAR product
ENCODING 184
SWIDTH 500 0
DWIDTH 12 0
BBX 12 24 0 -4
BITMAP
FFF0
FFF0
FFF0
FFF0
FFF0
FFF0
FFF0
FFF0
FFF0
FFF0
FFF0
FFF0
FFF0
FFF0
FFF0
FFF0
FFF0
FFF0
FFF0
FFF0
FFF0
FFF0
FFF0
FFF0
ENDCHAR
STARTCHAR pi
ENCODING 185
SWIDTH 500 0
DWIDTH 12 0
BBX 12 24 0 -4
BITMAP
FFF0
FFF0
FFF0
FFF0
FFF0
FFF0
FFF0
FFF0
FFF0
FFF0
FFF0
FFF0
FFF0
FFF0
FFF0
FFF0
FFF0
FFF0
FFF0
FFF0
FFF0
FFF0
FFF0
FFF0
ENDCHAR
STARTCHAR integral
ENCODING 186
SWIDTH 500 0
DWIDTH 12 0
BBX 12 24 0 -4
BITMAP
FFF0
FFF0
FFF0
FFF0
FFF0
FFF0
FFF0
FFF0
FFF0
FFF0
FFF0
FFF0
FFF0
FFF0
FFF0
FFF0
FFF0
FFF0
FFF0
FFF0
FFF0
FFF0
FFF0
FFF0
ENDCHAR
STARTCHAR ordfeminine
ENCODING 187
SWIDTH 500 0
DWIDTH 12 0
BBX 12 24 0 -4
BITMAP
FFF0
FFF0
FFF0
FFF0
FFF0
FFF0
FFF0
FFF0
FFF0
FFF0
FFF0
FFF0
FFF0
FFF0
FFF0
FFF0
FFF0
FFF0
FFF0
FFF0
FFF0
FFF0
FFF0
FFF0
ENDCHAR
STARTCHAR ordmasculine
ENCODING 188
SWIDTH 500 0
DWIDTH 12 0
BBX 12 24 0 -4
BITMAP
FFF0
FFF0
FFF0
FFF0
FFF0
FFF0
FFF0
FFF0
FFF0
FFF0
FFF0
FFF0
FFF0
FFF0
FFF0
FFF0
FFF0
FFF0
FFF0
FFF0
FFF0
FFF0
FFF0
FFF0
ENDCHAR
STARTCHAR Omega
ENCODING 189
SWIDTH 500 0
DWIDTH 12 0
BBX 12 24 0 -4
BITMAP
FFF0
FFF0
FFF0
FFF0
FFF0
FFF0
FFF0
FFF0
FFF0
FFF0
FFF0
FFF0
FFF0
FFF0
FFF0
FFF0
FFF0
FFF0
FFF0
FFF0
FFF0
FFF0
FFF0
FFF0
ENDCHAR
STARTCHAR ae
ENCODING 190
SWIDTH 500 0
DWIDTH 12 0
BBX 12 24 0 -4
BITMAP
FFF0
FFF0
FFF0
FFF0
FFF0
FFF0
FFF0
FFF0
FFF0
FFF0
FFF0
FFF0
FFF0
FFF0
FFF0
FFF0
FFF0
FFF0
FFF0
FFF0
FFF0
FFF0
FFF0
FFF0
ENDCHAR
STARTCHAR oslash
ENCODING 191
SWIDTH 500 0
DWIDTH 12 0
BBX 12 24 0 -4
BITMAP
FFF0
FFF0
FFF0
FFF0
FFF0
FFF0
FFF0
FFF0
FFF0
FFF0
FFF0
FFF0
FFF0
FFF0
FFF0
FFF0
FFF0
FFF0
FFF0
FFF0
FFF0
FFF0
FFF0
FFF0
ENDCHAR
STARTCHAR questiondown
ENCODING 192
SWIDTH 500 0
DWIDTH 12 0
BBX 12 24 0 -4
BITMAP
FFF0
FFF0
FFF0
FFF0
FFF0
FFF0
FFF0
FFF0
FFF0
FFF0
FFF0
FFF0
FFF0
FFF0
FFF0
FFF0
FFF0
FFF0
FFF0
FFF0
FFF0
FFF0
FFF0
FFF0
ENDCHAR
STARTCHAR exclamdown
ENCODING 193
SWIDTH 500 0
DWIDTH 12 0
BBX 12 24 0 -4
BITMAP
FFF0
FFF0
FFF0
FFF0
FFF0
FFF0
FFF0
FFF0
FFF0
FFF0
FFF0
FFF0
FFF0
FFF0
FFF0
FFF0
FFF0
FFF0
FFF0
FFF0
FFF0
FFF0
FFF0
FFF0
ENDCHAR
STARTCHAR logicalnot
ENCODING 194
SWIDTH 500 0
DWIDTH 12 0
BBX 12 24 0 -4
BITMAP
FFF0
FFF0
FFF0
FFF0
FFF0
FFF0
FFF0
FFF0
FFF0
FFF0
FFF0
FFF0
FFF0
FFF0
FFF0
FFF0
FFF0
FFF0
FFF0
FFF0
FFF0
FFF0
FFF0
FFF0
ENDCHAR
STARTCHAR radical
ENCODING 195
SWIDTH 500 0
DWIDTH 12 0
BBX 12 24 0 -4
BITMAP
FFF0
FFF0
FFF0
FFF0
FFF0
FFF0
FFF0
FFF0
FFF0
FFF0
FFF0
FFF0
FFF0
FFF0
FFF0
FFF0
FFF0
FFF0
FFF0
FFF0
FFF0
FFF0
FFF0
FFF0
ENDCHAR
STARTCHAR florin
ENCODING 196
SWIDTH 500 0
DWIDTH 12 0
BBX 12 24 0 -4
BITMAP
FFF0
FFF0
FFF0
FFF0
FFF0
FFF0
FFF0
FFF0
FFF0
FFF0
FFF0
FFF0
FFF0
FFF0
FFF0
FFF0
FFF0
FFF0
FFF0
FFF0
FFF0
FFF0
FFF0
FFF0
ENDCHAR
STARTCHAR approxequal
ENCODING 197
SWIDTH 500 0
DWIDTH 12 0
BBX 12 24 0 -4
BITMAP
FFF0
FFF0
FFF0
FFF0
FFF0
FFF0
FFF0
FFF0
FFF0
FFF0
FFF0
FFF0
FFF0
FFF0
FFF0
FFF0
FFF0
FFF0
FFF0
FFF0
FFF0
FFF0
FFF0
FFF0
ENDCHAR
STARTCHAR Delta
ENCODING 198
SWIDTH 500 0
DWIDTH 12 0
BBX 12 24 0 -4
BITMAP
FFF0
FFF0
FFF0
FFF0
FFF0
FFF0
FFF0
FFF0
FFF0
FFF0
FFF0
FFF0
FFF0
FFF0
FFF0
FFF0
FFF0
FFF0
FFF0
FFF0
FFF0
FFF0
FFF0
FFF0
ENDCHAR
STARTCHAR guillemotleft
ENCODING 199
SWIDTH 500 0
DWIDTH 12 0
BBX 12 24 0 -4
BITMAP
FFF0
FFF0
FFF0
FFF0
FFF0
FFF0
FFF0
FFF0
FFF0
FFF0
FFF0
FFF0
FFF0
FFF0
FFF0
FFF0
FFF0
FFF0
FFF0
FFF0
FFF0
FFF0
FFF0
FFF0
ENDCHAR
STARTCHAR guillemotright
ENCODING 200
SWIDTH 500 0
DWIDTH 12 0
BBX 12 24 0 -4
BITMAP
FFF0
FFF0
FFF0
FFF0
FFF0
FFF0
FFF0
FFF0
FFF0
FFF0
FFF0
FFF0
FFF0
FFF0
FFF0
FFF0
FFF0
FFF0
FFF0
FFF0
FFF0
FFF0
FFF0
FFF0
ENDCHAR
STARTCHAR ellipsis
ENCODING 201
SWIDTH 500 0
DWIDTH 12 0
BBX 12 24 0 -4
BITMAP
FFF0
FFF0
FFF0
FFF0
FFF0
FFF0
FFF0
FFF0
FFF0
FFF0
FFF0
FFF0
FFF0
FFF0
FFF0
FFF0
FFF0
FFF0
FFF0
FFF0
FFF0
FFF0
FFF0
FFF0
ENDCHAR
STARTCHAR nbspace
ENCODING 202
SWIDTH 500 0
DWIDTH 12 0
BBX 12 24 0 -4
BITMAP
FFF0
FFF0
FFF0
FFF0
FFF0
FFF0
FFF0
FFF0
FFF0
FFF0
FFF0
FFF0
FFF0
FFF0
FFF0
FFF0
FFF0
FFF0
FFF0
FFF0
FFF0
FFF0
FFF0
FFF0
ENDCHAR
STARTCHAR Agrave
ENCODING 203
SWIDTH 500 0
DWIDTH 12 0
BBX 12 24 0 -4
BITMAP
FFF0
FFF0
FFF0
FFF0
FFF0
FFF0
FFF0
FFF0
FFF0
FFF0
FFF0
FFF0
FFF0
FFF0
FFF0
FFF0
FFF0
FFF0
FFF0
FFF0
FFF0
FFF0
FFF0
FFF0
ENDCHAR
STARTCHAR Atilde
ENCODING 204
SWIDTH 500 0
DWIDTH 12 0
BBX 12 24 0 -4
BITMAP
FFF0
FFF0
FFF0
FFF0
FFF0
FFF0
FFF0
FFF0
FFF0
FFF0
FFF0
FFF0
FFF0
FFF0
FFF0
FFF0
FFF0
FFF0
FFF0
FFF0
FFF0
FFF0
FFF0
FFF0
ENDCHAR
STARTCHAR Otilde
ENCODING 205
SWIDTH 500 0
DWIDTH 12 0
BBX 12 24 0 -4
BITMAP
FFF0
FFF0
FFF0
FFF0
FFF0
FFF0
FFF0
FFF0
FFF0
FFF0
FFF0
FFF0
FFF0
FFF0
FFF0
FFF0
FFF0
FFF0
FFF0
FFF0
FFF0
FFF0
FFF0
FFF0
ENDCHAR
STARTCHAR OE
ENCODING 206
SWIDTH 500 0
DWIDTH 12 0
BBX 12 24 0 -4
BITMAP
FFF0
FFF0
FFF0
FFF0
FFF0
FFF0
FFF0
FFF0
FFF0
FFF0
FFF0
FFF0
FFF0
FFF0
FFF0
FFF0
FFF0
FFF0
FFF0
FFF0
FFF0
FFF0
FFF0
FFF0
ENDCHAR
STARTCHAR oe
ENCODING 207
SWIDTH 500 0
DWIDTH 12 0
BBX 12 24 0 -4
BITMAP
FFF0
FFF0
FFF0
FFF0
FFF0
FFF0
FFF0
FFF0
FFF0
FFF0
FFF0
FFF0
FFF0
FFF0
FFF0
FFF0
FFF0
FFF0
FFF0
FFF0
FFF0
FFF0
FFF0
FFF0
ENDCHAR
STARTCHAR endash
ENCODING 208
SWIDTH 500 0
DWIDTH 12 0
BBX 12 24 0 -4
BITMAP
FFF0
FFF0
FFF0
FFF0
FFF0
FFF0
FFF0
FFF0
FFF0
FFF0
FFF0
FFF0
FFF0
FFF0
FFF0
FFF0
FFF0
FFF0
FFF0
FFF0
FFF0
FFF0
FFF0
FFF0
ENDCHAR
STARTCHAR emdash
ENCODING 209
SWIDTH 500 0
DWIDTH 12 0
BBX 12 24 0 -4
BITMAP
FFF0
FFF0
FFF0
FFF0
FFF0
FFF0
FFF0
FFF0
FFF0
FFF0
FFF0
FFF0
FFF0
FFF0
FFF0
FFF0
FFF0
FFF0
FFF0
FFF0
FFF0
FFF0
FFF0
FFF0
ENDCHAR
STARTCHAR quotedblleft
ENCODING 210
SWIDTH 500 0
DWIDTH 12 0
BBX 12 24 0 -4
BITMAP
FFF0
FFF0
FFF0
FFF0
FFF0
FFF0
FFF0
FFF0
FFF0
FFF0
FFF0
FFF0
FFF0
FFF0
FFF0
FFF0
FFF0
FFF0
FFF0
FFF0
FFF0
FFF0
FFF0
FFF0
ENDCHAR
STARTCHAR quotedblright
ENCODING 211
SWIDTH 500 0
DWIDTH 12 0
BBX 12 24 0 -4
BITMAP
FFF0
FFF0
FFF0
FFF0
FFF0
FFF0
FFF0
FFF0
FFF0
FFF0
FFF0
FFF0
FFF0
FFF0
FFF0
FFF0
FFF0
FFF0
FFF0
FFF0
FFF0
FFF0
FFF0
FFF0
ENDCHAR
STARTCHAR quoteleft
ENCODING 212
SWIDTH 500 0
DWIDTH 12 0
BBX 12 24 0 -4
BITMAP
FFF0
FFF0
FFF0
FFF0
FFF0
FFF0
FFF0
FFF0
FFF0
FFF0
FFF0
FFF0
FFF0
FFF0
FFF0
FFF0
FFF0
FFF0
FFF0
FFF0
FFF0
FFF0
FFF0
FFF0
ENDCHAR
STARTCHAR quoteright
ENCODING 213
SWIDTH 500 0
DWIDTH 12 0
BBX 12 24 0 -4
BITMAP
FFF0
FFF0
FFF0
FFF0
FFF0
FFF0
FFF0
FFF0
FFF0
FFF0
FFF0
FFF0
FFF0
FFF0
FFF0
FFF0
FFF0
FFF0
FFF0
FFF0
FFF0
FFF0
FFF0
FFF0
ENDCHAR
STARTCHAR divide
ENCODING 214
SWIDTH 500 0
DWIDTH 12 0
BBX 12 24 0 -4
BITMAP
FFF0
FFF0
FFF0
FFF0
FFF0
FFF0
FFF0
FFF0
FFF0
FFF0
FFF0
FFF0
FFF0
FFF0
FFF0
FFF0
FFF0
FFF0
FFF0
FFF0
FFF0
FFF0
FFF0
FFF0
ENDCHAR
STARTCHAR lozenge
ENCODING 215
SWIDTH 500 0
DWIDTH 12 0
BBX 12 24 0 -4
BITMAP
FFF0
FFF0
FFF0
FFF0
FFF0
FFF0
FFF0
FFF0
FFF0
FFF0
FFF0
FFF0
FFF0
FFF0
FFF0
FFF0
FFF0
FFF0
FFF0
FFF0
FFF0
FFF0
FFF0
FFF0
ENDCHAR
STARTCHAR ydieresis
ENCODING 216
SWIDTH 500 0
DWIDTH 12 0
BBX 12 24 0 -4
BITMAP
FFF0
FFF0
FFF0
FFF0
FFF0
FFF0
FFF0
FFF0
FFF0
FFF0
FFF0
FFF0
FFF0
FFF0
FFF0
FFF0
FFF0
FFF0
FFF0
FFF0
FFF0
FFF0
FFF0
FFF0
ENDCHAR
STARTCHAR Ydieresis
ENCODING 217
SWIDTH 500 0
DWIDTH 12 0
BBX 12 24 0 -4
BITMAP
FFF0
FFF0
FFF0
FFF0
FFF0
FFF0
FFF0
FFF0
FFF0
FFF0
FFF0
FFF0
FFF0
FFF0
FFF0
FFF0
FFF0
FFF0
FFF0
FFF0
FFF0
FFF0
FFF0
FFF0
ENDCHAR
STARTCHAR fraction
ENCODING 218
SWIDTH 500 0
DWIDTH 12 0
BBX 12 24 0 -4
BITMAP
FFF0
FFF0
FFF0
FFF0
FFF0
FFF0
FFF0
FFF0
FFF0
FFF0
FFF0
FFF0
FFF0
FFF0
FFF0
FFF0
FFF0
FFF0
FFF0
FFF0
FFF0
FFF0
FFF0
FFF0
ENDCHAR
STARTCHAR currency
ENCODING 219
SWIDTH 500 0
DWIDTH 12 0
BBX 12 24 0 -4
BITMAP
FFF0
FFF0
FFF0
FFF0
FFF0
FFF0
FFF0
FFF0
FFF0
FFF0
FFF0
FFF0
FFF0
FFF0
FFF0
FFF0
FFF0
FFF0
FFF0
FFF0
FFF0
FFF0
FFF0
FFF0
ENDCHAR
STARTCHAR guilsinglleft
ENCODING 220
SWIDTH 500 0
DWIDTH 12 0
BBX 12 24 0 -4
BITMAP
FFF0
FFF0
FFF0
FFF0
FFF0
FFF0
FFF0
FFF0
FFF0
FFF0
FFF0
FFF0
FFF0
FFF0
FFF0
FFF0
FFF0
FFF0
FFF0
FFF0
FFF0
FFF0
FFF0
FFF0
ENDCHAR
STARTCHAR guilsinglright
ENCODING 221
SWIDTH 500 0
DWIDTH 12 0
BBX 12 24 0 -4
BITMAP
FFF0
FFF0
FFF0
FFF0
FFF0
FFF0
FFF0
FFF0
FFF0
FFF0
FFF0
FFF0
FFF0
FFF0
FFF0
FFF0
FFF0
FFF0
FFF0
FFF0
FFF0
FFF0
FFF0
FFF0
ENDCHAR
STARTCHAR fi
ENCODING 222
SWIDTH 500 0
DWIDTH 12 0
BBX 12 24 0 -4
BITMAP
FFF0
FFF0
FFF0
FFF0
FFF0
FFF0
FFF0
FFF0
FFF0
FFF0
FFF0
FFF0
FFF0
FFF0
FFF0
FFF0
FFF0
FFF0
FFF0
FFF0
FFF0
FFF0
FFF0
FFF0
ENDCHAR
STARTCHAR fl
ENCODING 223
SWIDTH 500 0
DWIDTH 12 0
BBX 12 24 0 -4
BITMAP
FFF0
FFF0
FFF0
FFF0
FFF0
FFF0
FFF0
FFF0
FFF0
FFF0
FFF0
FFF0
FFF0
FFF0
FFF0
FFF0
FFF0
FFF0
FFF0
FFF0
FFF0
FFF0
FFF0
FFF0
ENDCHAR
STARTCHAR daggerdbl
ENCODING 224
SWIDTH 500 0
DWIDTH 12 0
BBX 12 24 0 -4
BITMAP
FFF0
FFF0
FFF0
FFF0
FFF0
FFF0
FFF0
FFF0
FFF0
FFF0
FFF0
FFF0
FFF0
FFF0
FFF0
FFF0
FFF0
FFF0
FFF0
FFF0
FFF0
FFF0
FFF0
FFF0
ENDCHAR
STARTCHAR periodcentered
ENCODING 225
SWIDTH 500 0
DWIDTH 12 0
BBX 12 24 0 -4
BITMAP
FFF0
FFF0
FFF0
FFF0
FFF0
FFF0
FFF0
FFF0
FFF0
FFF0
FFF0
FFF0
FFF0
FFF0
FFF0
FFF0
FFF0
FFF0
FFF0
FFF0
FFF0
FFF0
FFF0
FFF0
ENDCHAR
STARTCHAR quotesinglbase
ENCODING 226
SWIDTH 500 0
DWIDTH 12 0
BBX 12 24 0 -4
BITMAP
FFF0
FFF0
FFF0
FFF0
FFF0
FFF0
FFF0
FFF0
FFF0
FFF0
FFF0
FFF0
FFF0
FFF0
FFF0
FFF0
FFF0
FFF0
FFF0
FFF0
FFF0
FFF0
FFF0
FFF0
ENDCHAR
STARTCHAR quotedblbase
ENCODING 227
SWIDTH 500 0
DWIDTH 12 0
BBX 12 24 0 -4
BITMAP
FFF0
FFF0
FFF0
FFF0
FFF0
FFF0
FFF0
FFF0
FFF0
FFF0
FFF0
FFF0
FFF0
FFF0
FFF0
FFF0
FFF0
FFF0
FFF0
FFF0
FFF0
FFF0
FFF0
FFF0
ENDCHAR
STARTCHAR perthousand
ENCODING 228
SWIDTH 500 0
DWIDTH 12 0
BBX 12 24 0 -4
BITMAP
FFF0
FFF0
FFF0
FFF0
FFF0
FFF0
FFF0
FFF0
FFF0
FFF0
FFF0
FFF0
FFF0
FFF0
FFF0
FFF0
FFF0
FFF0
FFF0
FFF0
FFF0
FFF0
FFF0
FFF0
ENDCHAR
STARTCHAR Acircumflex
ENCODING 229
SWIDTH 500 0
DWIDTH 12 0
BBX 12 24 0 -4
BITMAP
FFF0
FFF0
FFF0
FFF0
FFF0
FFF0
FFF0
FFF0
FFF0
FFF0
FFF0
FFF0
FFF0
FFF0
FFF0
FFF0
FFF0
FFF0
FFF0
FFF0
FFF0
FFF0
FFF0
FFF0
ENDCHAR
STARTCHAR Ecircumflex
ENCODING 230
SWIDTH 500 0
DWIDTH 12 0
BBX 12 24 0 -4
BITMAP
FFF0
FFF0
FFF0
FFF0
FFF0
FFF0
FFF0
FFF0
FFF0
FFF0
FFF0
FFF0
FFF0
FFF0
FFF0
FFF0
FFF0
FFF0
FFF0
FFF0
FFF0
FFF0
FFF0
FFF0
ENDCHAR
STARTCHAR Aacute
ENCODING 231
SWIDTH 500 0
DWIDTH 12 0
BBX 12 24 0 -4
BITMAP
FFF0
FFF0
FFF0
FFF0
FFF0
FFF0
FFF0
FFF0
FFF0
FFF0
FFF0
FFF0
FFF0
FFF0
FFF0
FFF0
FFF0
FFF0
FFF0
FFF0
FFF0
FFF0
FFF0
FFF0
ENDCHAR
STARTCHAR Edieresis
ENCODING 232
SWIDTH 500 0
DWIDTH 12 0
BBX 12 24 0 -4
BITMAP
FFF0
FFF0
FFF0
FFF0
FFF0
FFF0
FFF0
FFF0
FFF0
FFF0
FFF0
FFF0
FFF0
FFF0
FFF0
FFF0
FFF0
FFF0
FFF0
FFF0
FFF0
FFF0
FFF0
FFF0
ENDCHAR
STARTCHAR Egrave
ENCODING 233
SWIDTH 500 0
DWIDTH 12 0
BBX 12 24 0 -4
BITMAP
FFF0
FFF0
FFF0
FFF0
FFF0
FFF0
FFF0
FFF0
FFF0
FFF0
FFF0
FFF0
FFF0
FFF0
FFF0
FFF0
FFF0
FFF0
FFF0
FFF0
FFF0
FFF0
FFF0
FFF0
ENDCHAR
STARTCHAR Iacute
ENCODING 234
SWIDTH 500 0
DWIDTH 12 0
BBX 12 24 0 -4
BITMAP
FFF0
FFF0
FFF0
FFF0
FFF0
FFF0
FFF0
FFF0
FFF0
FFF0
FFF0
FFF0
FFF0
FFF0
FFF0
FFF0
FFF0
FFF0
FFF0
FFF0
FFF0
FFF0
FFF0
FFF0
ENDCHAR
STARTCHAR Icircumflex
ENCODING 235
SWIDTH 500 0
DWIDTH 12 0
BBX 12 24 0 -4
BITMAP
FFF0
FFF0
FFF0
FFF0
FFF0
FFF0
FFF0
FFF0
FFF0
FFF0
FFF0
FFF0
FFF0
FFF0
FFF0
FFF0
FFF0
FFF0
FFF0
FFF0
FFF0
FFF0
FFF0
FFF0
ENDCHAR
STARTCHAR Idieresis
ENCODING 236
SWIDTH 500 0
DWIDTH 12 0
BBX 12 24 0 -4
BITMAP
FFF0
FFF0
FFF0
FFF0
FFF0
FFF0
FFF0
FFF0
FFF0
FFF0
FFF0
FFF0
FFF0
FFF0
FFF0
FFF0
FFF0
FFF0
FFF0
FFF0
FFF0
FFF0
FFF0
FFF0
ENDCHAR
STARTCHAR Igrave
ENCODING 237
SWIDTH 500 0
DWIDTH 12 0
BBX 12 24 0 -4
BITMAP
FFF0
FFF0
FFF0
FFF0
FFF0
FFF0
FFF0
FFF0
FFF0
FFF0
FFF0
FFF0
FFF0
FFF0
FFF0
FFF0
FFF0
FFF0
FFF0
FFF0
FFF0
FFF0
FFF0
FFF0
ENDCHAR
STARTCHAR Oacute
ENCODING 238
SWIDTH 500 0
DWIDTH 12 0
BBX 12 24 0 -4
BITMAP
FFF0
FFF0
FFF0
FFF0
FFF0
FFF0
FFF0
FFF0
FFF0
FFF0
FFF0
FFF0
FFF0
FFF0
FFF0
FFF0
FFF0
FFF0
FFF0
FFF0
FFF0
FFF0
FFF0
FFF0
ENDCHAR
STARTCHAR Ocircumflex
ENCODING 239
SWIDTH 500 0
DWIDTH 12 0
BBX 12 24 0 -4
BITMAP
FFF0
FFF0
FFF0
FFF0
FFF0
FFF0
FFF0
FFF0
FFF0
FFF0
FFF0
FFF0
FFF0
FFF0
FFF0
FFF0
FFF0
FFF0
FFF0
FFF0
FFF0
FFF0
FFF0
FFF0
ENDCHAR
STARTCHAR apple
ENCODING 240
SWIDTH 500 0
DWIDTH 12 0
BBX 12 24 0 -4
BITMAP
FFF0
FFF0
FFF0
FFF0
FFF0
FFF0
FFF0
FFF0
FFF0
FFF0
FFF0
FFF0
FFF0
FFF0
FFF0
FFF0
FFF0
FFF0
FFF0
FFF0
FFF0
FFF0
FFF0
FFF0
ENDCHAR
STARTCHAR Ograve
ENCODING 241
SWIDTH 500 0
DWIDTH 12 0
BBX 12 24 0 -4
BITMAP
FFF0
FFF0
FFF0
FFF0
FFF0
FFF0
FFF0
FFF0
FFF0
FFF0
FFF0
FFF0
FFF0
FFF0
FFF0
FFF0
FFF0
FFF0
FFF0
FFF0
FFF0
FFF0
FFF0
FFF0
ENDCHAR
STARTCHAR Uacute
ENCODING 242
SWIDTH 500 0
DWIDTH 12 0
BBX 12 24 0 -4
BITMAP
FFF0
FFF0
FFF0
FFF0
FFF0
FFF0
FFF0
FFF0
FFF0
FFF0
FFF0
FFF0
FFF0
FFF0
FFF0
FFF0
FFF0
FFF0
FFF0
FFF0
FFF0
FFF0
FFF0
FFF0
ENDCHAR
STARTCHAR Ucircumflex
ENCODING 243
SWIDTH 500 0
DWIDTH 12 0
BBX 12 24 0 -4
BITMAP
FFF0
FFF0
FFF0
FFF0
FFF0
FFF0
FFF0
FFF0
FFF0
FFF0
FFF0
FFF0
FFF0
FFF0
FFF0
FFF0
FFF0
FFF0
FFF0
FFF0
FFF0
FFF0
FFF0
FFF0
ENDCHAR
STARTCHAR Ugrave
ENCODING 244
SWIDTH 500 0
DWIDTH 12 0
BBX 12 24 0 -4
BITMAP
FFF0
FFF0
FFF0
FFF0
FFF0
FFF0
FFF0
FFF0
FFF0
FFF0
FFF0
FFF0
FFF0
FFF0
FFF0
FFF0
FFF0
FFF0
FFF0
FFF0
FFF0
FFF0
FFF0
FFF0
ENDCHAR
STARTCHAR dotlessi
ENCODING 245
SWIDTH 500 0
DWIDTH 12 0
BBX 12 24 0 -4
BITMAP
FFF0
FFF0
FFF0
FFF0
FFF0
FFF0
FFF0
FFF0
FFF0
FFF0
FFF0
FFF0
FFF0
FFF0
FFF0
FFF0
FFF0
FFF0
FFF0
FFF0
FFF0
FFF0
FFF0
FFF0
ENDCHAR
STARTCHAR circumflex
ENCODING 246
SWIDTH 500 0
DWIDTH 12 0
BBX 12 24 0 -4
BITMAP
FFF0
FFF0
FFF0
FFF0
FFF0
FFF0
FFF0
FFF0
FFF0
FFF0
FFF0
FFF0
FFF0
FFF0
FFF0
FFF0
FFF0
FFF0
FFF0
FFF0
FFF0
FFF0
FFF0
FFF0
ENDCHAR
STARTCHAR tilde
ENCODING 247
SWIDTH 500 0
DWIDTH 12 0
BBX 12 24 0 -4
BITMAP
FFF0
FFF0
FFF0
FFF0
FFF0
FFF0
FFF0
FFF0
FFF0
FFF0
FFF0
FFF0
FFF0
FFF0
FFF0
FFF0
FFF0
FFF0
FFF0
FFF0
FFF0
FFF0
FFF0
FFF0
ENDCHAR
STARTCHAR macron
ENCODING 248
SWIDTH 500 0
DWIDTH 12 0
BBX 12 24 0 -4
BITMAP
FFF0
FFF0
FFF0
FFF0
FFF0
FFF0
FFF0
FFF0
FFF0
FFF0
FFF0
FFF0
FFF0
FFF0
FFF0
FFF0
FFF0
FFF0
FFF0
FFF0
FFF0
FFF0
FFF0
FFF0
ENDCHAR
STARTCHAR breve
ENCODING 249
SWIDTH 500 0
DWIDTH 12 0
BBX 12 24 0 -4
BITMAP
FFF0
FFF0
FFF0
FFF0
FFF0
FFF0
FFF0
FFF0
FFF0
FFF0
FFF0
FFF0
FFF0
FFF0
FFF0
FFF0
FFF0
FFF0
FFF0
FFF0
FFF0
FFF0
FFF0
FFF0
ENDCHAR
STARTCHAR dotaccent
ENCODING 250
SWIDTH 500 0
DWIDTH 12 0
BBX 12 24 0 -4
BITMAP
FFF0
FFF0
FFF0
FFF0
FFF0
FFF0
FFF0
FFF0
FFF0
FFF0
FFF0
FFF0
FFF0
FFF0
FFF0
FFF0
FFF0
FFF0
FFF0
FFF0
FFF0
FFF0
FFF0
FFF0
ENDCHAR
STARTCHAR ring
ENCODING 251
SWIDTH 500 0
DWIDTH 12 0
BBX 12 24 0 -4
BITMAP
FFF0
FFF0
FFF0
FFF0
FFF0
FFF0
FFF0
FFF0
FFF0
FFF0
FFF0
FFF0
FFF0
FFF0
FFF0
FFF0
FFF0
FFF0
FFF0
FFF0
FFF0
FFF0
FFF0
FFF0
ENDCHAR
STARTCHAR cedilla
ENCODING 252
SWIDTH 500 0
DWIDTH 12 0
BBX 12 24 0 -4
BITMAP
FFF0
FFF0
FFF0
FFF0
FFF0
FFF0
FFF0
FFF0
FFF0
FFF0
FFF0
FFF0
FFF0
FFF0
FFF0
FFF0
FFF0
FFF0
FFF0
FFF0
FFF0
FFF0
FFF0
FFF0
ENDCHAR
STARTCHAR hungarumlaut
ENCODING 253
SWIDTH 875 0
DWIDTH 19 0
BBX 17 16 1 0
BITMAP
07F000
180C00
200200
41D100
423100
841080
841080
840080
840080
840080
841080
422100
41C100
200200
180C00
07F000
ENDCHAR
STARTCHAR ogonek
ENCODING 254
SWIDTH 750 0
DWIDTH 22 0
BBX 20 9 0 7
BITMAP
FF7070
9930E0
9938E0
182960
182D60
182D60
182660
182660
3C70F0
ENDCHAR
STARTCHAR caron
ENCODING 255
SWIDTH 1000 0
DWIDTH 17 0
BBX 14 2 1 0
BITMAP
C30C
C30C
ENDCHAR
ENDFONT
