STARTFONT 2.1
FONT -Fondu-Song-Medium-R-Normal--16-150-75-75-P-92-MacRoman-1
SIZE 15 75 75
FONTBOUNDINGBOX 16 16 -1 -3
COMMENT Created by Fondu from a mac NFNT/FONT resource
STARTPROPERTIES 17
FOUNDRY "Fondu"
FAMILY_NAME "Song"
WEIGHT_NAME "Medium"
SLANT "R"
SETWIDTH_NAME "Normal"
ADD_STYLE_NAME ""
PIXEL_SIZE 16
POINT_SIZE 150
RESOLUTION_X 75
RESOLUTION_Y 75
SPACING "P"
AVERAGE_WIDTH 92
CHARSET_REGISTRY "MacRoman"
CHARSET_ENCODING "1"
FONT_ASCENT 13
FONT_DESCENT 3
FACE_NAME "Song"
ENDPROPERTIES
CHARS 227
STARTCHAR char0011
ENCODING 17
SWIDTH 688 0
DWIDTH 10 0
BBX 8 7 1 2
BITMAP
E7
A5
FF
24
FF
A5
E7
ENDCHAR
STARTCHAR char0012
ENCODING 18
SWIDTH 875 0
DWIDTH 11 0
BBX 9 11 1 0
BITMAP
0180
0300
0600
0600
0C00
4800
D800
5000
7000
2000
2000
ENDCHAR
STARTCHAR char0013
ENCODING 19
SWIDTH 688 0
DWIDTH 11 0
BBX 9 11 1 0
BITMAP
0800
1C00
1C00
3E00
7F00
FF80
7F00
3E00
1C00
1C00
0800
ENDCHAR
STARTCHAR char0014
ENCODING 20
SWIDTH 813 0
DWIDTH 11 0
BBX 10 11 1 0
BITMAP
0200
0400
3580
7FC0
FF80
FF00
FF00
FF80
FFC0
7F80
3F00
ENDCHAR
STARTCHAR space
ENCODING 32
SWIDTH 563 0
DWIDTH 6 0
BBX 0 0 0 -3
BITMAP
ENDCHAR
STARTCHAR exclam
ENCODING 33
SWIDTH 313 0
DWIDTH 5 0
BBX 1 11 2 0
BITMAP
80
80
80
80
80
80
80
80
00
00
80
ENDCHAR
STARTCHAR quotedbl
ENCODING 34
SWIDTH 500 0
DWIDTH 4 0
BBX 3 5 1 6
BITMAP
A0
A0
A0
A0
A0
ENDCHAR
STARTCHAR numbersign
ENCODING 35
SWIDTH 688 0
DWIDTH 9 0
BBX 8 10 1 1
BITMAP
12
12
12
7F
24
24
FE
48
48
48
ENDCHAR
STARTCHAR dollar
ENCODING 36
SWIDTH 688 0
DWIDTH 8 0
BBX 7 13 1 -1
BITMAP
10
38
54
94
90
50
38
14
92
92
54
38
10
ENDCHAR
STARTCHAR percent
ENCODING 37
SWIDTH 875 0
DWIDTH 11 0
BBX 10 12 1 -1
BITMAP
6100
9200
9200
9400
9400
6980
0A40
1240
1240
2240
2180
4000
ENDCHAR
STARTCHAR ampersand
ENCODING 38
SWIDTH 750 0
DWIDTH 11 0
BBX 11 11 1 0
BITMAP
1C00
2200
2200
2200
1400
39C0
4880
8500
8500
8620
79C0
ENDCHAR
STARTCHAR quotesingle
ENCODING 39
SWIDTH 313 0
DWIDTH 4 0
BBX 3 5 1 6
BITMAP
20
60
40
80
80
ENDCHAR
STARTCHAR parenleft
ENCODING 40
SWIDTH 438 0
DWIDTH 4 0
BBX 4 13 1 -1
BITMAP
10
20
40
40
80
80
80
80
80
40
40
20
10
ENDCHAR
STARTCHAR parenright
ENCODING 41
SWIDTH 438 0
DWIDTH 4 0
BBX 4 13 0 -1
BITMAP
80
40
20
20
10
10
10
10
10
20
20
40
80
ENDCHAR
STARTCHAR asterisk
ENCODING 42
SWIDTH 500 0
DWIDTH 6 0
BBX 5 6 1 2
BITMAP
20
A8
70
70
A8
20
ENDCHAR
STARTCHAR plus
ENCODING 43
SWIDTH 688 0
DWIDTH 8 0
BBX 7 7 1 2
BITMAP
10
10
10
FE
10
10
10
ENDCHAR
STARTCHAR comma
ENCODING 44
SWIDTH 313 0
DWIDTH 4 0
BBX 2 4 1 -2
BITMAP
C0
C0
40
80
ENDCHAR
STARTCHAR hyphen
ENCODING 45
SWIDTH 375 0
DWIDTH 8 0
BBX 7 1 1 5
BITMAP
FE
ENDCHAR
STARTCHAR period
ENCODING 46
SWIDTH 313 0
DWIDTH 4 0
BBX 2 2 1 0
BITMAP
C0
C0
ENDCHAR
STARTCHAR slash
ENCODING 47
SWIDTH 563 0
DWIDTH 9 0
BBX 9 13 0 -1
BITMAP
0080
0100
0100
0200
0400
0400
0800
1000
1000
2000
4000
4000
8000
ENDCHAR
STARTCHAR zero
ENCODING 48
SWIDTH 688 0
DWIDTH 8 0
BBX 7 11 1 0
BITMAP
38
44
82
82
82
82
82
82
82
44
38
ENDCHAR
STARTCHAR one
ENCODING 49
SWIDTH 688 0
DWIDTH 8 0
BBX 5 11 2 0
BITMAP
20
E0
20
20
20
20
20
20
20
20
F8
ENDCHAR
STARTCHAR two
ENCODING 50
SWIDTH 688 0
DWIDTH 8 0
BBX 6 11 1 0
BITMAP
30
48
84
04
04
08
10
20
40
84
FC
ENDCHAR
STARTCHAR three
ENCODING 51
SWIDTH 688 0
DWIDTH 8 0
BBX 6 11 1 0
BITMAP
70
88
08
08
10
38
04
04
04
88
70
ENDCHAR
STARTCHAR four
ENCODING 52
SWIDTH 688 0
DWIDTH 8 0
BBX 7 11 1 0
BITMAP
08
18
18
28
48
48
88
FE
08
08
08
ENDCHAR
STARTCHAR five
ENCODING 53
SWIDTH 688 0
DWIDTH 8 0
BBX 6 11 1 0
BITMAP
F8
80
80
80
F0
08
04
04
04
88
70
ENDCHAR
STARTCHAR six
ENCODING 54
SWIDTH 688 0
DWIDTH 8 0
BBX 6 11 1 0
BITMAP
1C
20
40
80
B0
C8
84
84
84
48
30
ENDCHAR
STARTCHAR seven
ENCODING 55
SWIDTH 688 0
DWIDTH 8 0
BBX 6 11 1 0
BITMAP
FC
84
08
08
08
10
10
10
20
20
20
ENDCHAR
STARTCHAR eight
ENCODING 56
SWIDTH 688 0
DWIDTH 8 0
BBX 6 11 1 0
BITMAP
78
84
84
84
48
30
48
84
84
84
78
ENDCHAR
STARTCHAR nine
ENCODING 57
SWIDTH 688 0
DWIDTH 8 0
BBX 6 11 1 0
BITMAP
30
48
84
84
84
4C
34
04
08
10
E0
ENDCHAR
STARTCHAR colon
ENCODING 58
SWIDTH 313 0
DWIDTH 4 0
BBX 2 7 1 0
BITMAP
C0
C0
00
00
00
C0
C0
ENDCHAR
STARTCHAR semicolon
ENCODING 59
SWIDTH 313 0
DWIDTH 4 0
BBX 2 9 1 -2
BITMAP
C0
C0
00
00
00
C0
C0
40
80
ENDCHAR
STARTCHAR less
ENCODING 60
SWIDTH 688 0
DWIDTH 9 0
BBX 8 9 0 1
BITMAP
01
06
18
60
80
60
18
06
01
ENDCHAR
STARTCHAR equal
ENCODING 61
SWIDTH 688 0
DWIDTH 8 0
BBX 7 3 1 4
BITMAP
FE
00
FE
ENDCHAR
STARTCHAR greater
ENCODING 62
SWIDTH 688 0
DWIDTH 9 0
BBX 8 9 0 1
BITMAP
80
60
18
06
01
06
18
60
80
ENDCHAR
STARTCHAR question
ENCODING 63
SWIDTH 563 0
DWIDTH 7 0
BBX 5 11 1 0
BITMAP
70
88
88
08
10
10
20
20
00
00
20
ENDCHAR
STARTCHAR at
ENCODING 64
SWIDTH 875 0
DWIDTH 12 0
BBX 11 11 1 0
BITMAP
1F00
2080
4040
8720
8920
9120
9120
9340
4D80
2000
1F00
ENDCHAR
STARTCHAR A
ENCODING 65
SWIDTH 750 0
DWIDTH 11 0
BBX 11 11 0 0
BITMAP
0400
0400
0A00
0A00
0A00
1100
1100
3F80
2080
2080
F1E0
ENDCHAR
STARTCHAR B
ENCODING 66
SWIDTH 625 0
DWIDTH 10 0
BBX 9 11 1 0
BITMAP
FC00
2200
2100
2100
2200
3E00
2100
2080
2080
2100
FE00
ENDCHAR
STARTCHAR C
ENCODING 67
SWIDTH 625 0
DWIDTH 11 0
BBX 9 11 1 0
BITMAP
1E80
2180
4080
8080
8000
8000
8000
8000
4080
2100
1E00
ENDCHAR
STARTCHAR D
ENCODING 68
SWIDTH 688 0
DWIDTH 12 0
BBX 11 11 1 0
BITMAP
FF00
2080
2040
2020
2020
2020
2020
2020
2040
2080
FF00
ENDCHAR
STARTCHAR E
ENCODING 69
SWIDTH 563 0
DWIDTH 10 0
BBX 8 11 1 0
BITMAP
FF
21
21
20
22
3E
22
20
21
21
FF
ENDCHAR
STARTCHAR F
ENCODING 70
SWIDTH 563 0
DWIDTH 10 0
BBX 8 11 1 0
BITMAP
FF
21
21
20
22
3E
22
20
20
20
F8
ENDCHAR
STARTCHAR G
ENCODING 71
SWIDTH 688 0
DWIDTH 12 0
BBX 11 11 1 0
BITMAP
1E80
2180
4080
8080
8000
8000
83E0
8080
4080
2080
1F00
ENDCHAR
STARTCHAR H
ENCODING 72
SWIDTH 688 0
DWIDTH 12 0
BBX 11 11 1 0
BITMAP
FBE0
2080
2080
2080
2080
3F80
2080
2080
2080
2080
FBE0
ENDCHAR
STARTCHAR I
ENCODING 73
SWIDTH 250 0
DWIDTH 6 0
BBX 5 11 1 0
BITMAP
F8
20
20
20
20
20
20
20
20
20
F8
ENDCHAR
STARTCHAR J
ENCODING 74
SWIDTH 500 0
DWIDTH 6 0
BBX 6 11 0 0
BITMAP
7C
10
10
10
10
10
10
10
10
90
60
ENDCHAR
STARTCHAR K
ENCODING 75
SWIDTH 688 0
DWIDTH 11 0
BBX 10 11 1 0
BITMAP
FBC0
2100
2200
2400
2800
3000
2800
2400
2200
2100
FBC0
ENDCHAR
STARTCHAR L
ENCODING 76
SWIDTH 563 0
DWIDTH 10 0
BBX 8 11 1 0
BITMAP
F8
20
20
20
20
20
20
20
21
21
FF
ENDCHAR
STARTCHAR M
ENCODING 77
SWIDTH 813 0
DWIDTH 15 0
BBX 14 11 1 0
BITMAP
F03C
3030
2850
2850
2850
2490
2490
2490
2310
2310
F87C
ENDCHAR
STARTCHAR N
ENCODING 78
SWIDTH 688 0
DWIDTH 12 0
BBX 12 11 0 0
BITMAP
F1F0
3040
2840
2840
2440
2240
2240
2140
20C0
20C0
F840
ENDCHAR
STARTCHAR O
ENCODING 79
SWIDTH 750 0
DWIDTH 12 0
BBX 10 11 1 0
BITMAP
1E00
2100
4080
8040
8040
8040
8040
8040
4080
2100
1E00
ENDCHAR
STARTCHAR P
ENCODING 80
SWIDTH 563 0
DWIDTH 9 0
BBX 8 11 1 0
BITMAP
FE
21
21
21
21
3E
20
20
20
20
F8
ENDCHAR
STARTCHAR Q
ENCODING 81
SWIDTH 750 0
DWIDTH 12 0
BBX 10 13 1 -2
BITMAP
1E00
2100
4080
8040
8040
8040
8040
8040
4080
2100
1E00
0C00
03C0
ENDCHAR
STARTCHAR R
ENCODING 82
SWIDTH 625 0
DWIDTH 11 0
BBX 10 11 1 0
BITMAP
FE00
2100
2100
2100
2100
3E00
2400
2200
2200
2100
F9C0
ENDCHAR
STARTCHAR S
ENCODING 83
SWIDTH 625 0
DWIDTH 9 0
BBX 7 11 1 0
BITMAP
7C
84
84
80
60
10
0C
02
82
82
FC
ENDCHAR
STARTCHAR T
ENCODING 84
SWIDTH 625 0
DWIDTH 10 0
BBX 9 11 1 0
BITMAP
FF80
8880
8880
0800
0800
0800
0800
0800
0800
0800
3E00
ENDCHAR
STARTCHAR U
ENCODING 85
SWIDTH 688 0
DWIDTH 12 0
BBX 12 11 1 0
BITMAP
F9F0
2040
2040
2040
2040
2040
2040
2040
2040
1080
0F00
ENDCHAR
STARTCHAR V
ENCODING 86
SWIDTH 750 0
DWIDTH 11 0
BBX 11 11 0 0
BITMAP
E0E0
4040
4040
2080
2080
1100
1100
0A00
0A00
0400
0400
ENDCHAR
STARTCHAR W
ENCODING 87
SWIDTH 938 0
DWIDTH 15 0
BBX 15 11 0 0
BITMAP
F39E
2108
2108
2108
1290
1290
1450
1450
0C60
0820
0820
ENDCHAR
STARTCHAR X
ENCODING 88
SWIDTH 625 0
DWIDTH 11 0
BBX 11 11 0 0
BITMAP
F1E0
2080
1100
0A00
0A00
0400
0A00
1100
1100
2080
F1E0
ENDCHAR
STARTCHAR Y
ENCODING 89
SWIDTH 625 0
DWIDTH 11 0
BBX 11 11 0 0
BITMAP
F1E0
2080
1100
1100
0A00
0400
0400
0400
0400
0400
1F00
ENDCHAR
STARTCHAR Z
ENCODING 90
SWIDTH 563 0
DWIDTH 10 0
BBX 9 11 1 0
BITMAP
7F80
4100
4200
0400
0400
0800
1000
2000
2080
4080
FF80
ENDCHAR
STARTCHAR bracketleft
ENCODING 91
SWIDTH 438 0
DWIDTH 4 0
BBX 3 13 1 -1
BITMAP
E0
80
80
80
80
80
80
80
80
80
80
80
E0
ENDCHAR
STARTCHAR backslash
ENCODING 92
SWIDTH 563 0
DWIDTH 9 0
BBX 8 13 0 -1
BITMAP
80
40
40
20
10
10
08
08
04
02
02
01
01
ENDCHAR
STARTCHAR bracketright
ENCODING 93
SWIDTH 438 0
DWIDTH 4 0
BBX 3 13 0 -1
BITMAP
E0
20
20
20
20
20
20
20
20
20
20
20
E0
ENDCHAR
STARTCHAR asciicircum
ENCODING 94
SWIDTH 688 0
DWIDTH 8 0
BBX 6 5 1 7
BITMAP
30
30
48
48
84
ENDCHAR
STARTCHAR underscore
ENCODING 95
SWIDTH 688 0
DWIDTH 8 0
BBX 8 1 0 -3
BITMAP
FF
ENDCHAR
STARTCHAR grave
ENCODING 96
SWIDTH 563 0
DWIDTH 4 0
BBX 3 5 0 6
BITMAP
80
C0
40
20
20
ENDCHAR
STARTCHAR a
ENCODING 97
SWIDTH 563 0
DWIDTH 7 0
BBX 6 7 1 0
BITMAP
70
88
18
68
88
98
6C
ENDCHAR
STARTCHAR b
ENCODING 98
SWIDTH 625 0
DWIDTH 8 0
BBX 7 11 1 0
BITMAP
40
C0
40
40
78
44
42
42
42
44
78
ENDCHAR
STARTCHAR c
ENCODING 99
SWIDTH 563 0
DWIDTH 7 0
BBX 6 7 1 0
BITMAP
38
44
80
80
80
44
38
ENDCHAR
STARTCHAR d
ENCODING 100
SWIDTH 625 0
DWIDTH 8 0
BBX 7 11 1 0
BITMAP
04
0C
04
04
3C
44
84
84
84
4C
36
ENDCHAR
STARTCHAR e
ENCODING 101
SWIDTH 563 0
DWIDTH 7 0
BBX 6 7 1 0
BITMAP
30
48
84
FC
80
44
38
ENDCHAR
STARTCHAR f
ENCODING 102
SWIDTH 375 0
DWIDTH 5 0
BBX 6 11 0 0
BITMAP
38
44
40
40
F0
40
40
40
40
40
E0
ENDCHAR
STARTCHAR g
ENCODING 103
SWIDTH 625 0
DWIDTH 7 0
BBX 6 9 1 -2
BITMAP
74
88
88
70
80
78
84
84
78
ENDCHAR
STARTCHAR h
ENCODING 104
SWIDTH 563 0
DWIDTH 9 0
BBX 8 11 1 0
BITMAP
40
C0
40
40
5C
62
42
42
42
42
E7
ENDCHAR
STARTCHAR i
ENCODING 105
SWIDTH 250 0
DWIDTH 4 0
BBX 3 10 1 0
BITMAP
40
00
00
40
C0
40
40
40
40
E0
ENDCHAR
STARTCHAR j
ENCODING 106
SWIDTH 250 0
DWIDTH 4 0
BBX 4 11 -1 -1
BITMAP
10
00
00
10
30
10
10
10
10
90
60
ENDCHAR
STARTCHAR k
ENCODING 107
SWIDTH 563 0
DWIDTH 8 0
BBX 7 11 1 0
BITMAP
40
C0
40
40
5E
48
50
60
50
48
EE
ENDCHAR
STARTCHAR l
ENCODING 108
SWIDTH 250 0
DWIDTH 4 0
BBX 3 11 1 0
BITMAP
40
C0
40
40
40
40
40
40
40
40
E0
ENDCHAR
STARTCHAR m
ENCODING 109
SWIDTH 875 0
DWIDTH 13 0
BBX 13 7 0 0
BITMAP
DDE0
6210
4210
4210
4210
4210
E738
ENDCHAR
STARTCHAR n
ENCODING 110
SWIDTH 563 0
DWIDTH 9 0
BBX 8 7 1 0
BITMAP
DC
62
42
42
42
42
E7
ENDCHAR
STARTCHAR o
ENCODING 111
SWIDTH 625 0
DWIDTH 8 0
BBX 7 7 1 0
BITMAP
38
44
82
82
82
44
38
ENDCHAR
STARTCHAR p
ENCODING 112
SWIDTH 625 0
DWIDTH 8 0
BBX 7 10 1 -3
BITMAP
D8
64
42
42
42
64
58
40
40
E0
ENDCHAR
STARTCHAR q
ENCODING 113
SWIDTH 625 0
DWIDTH 8 0
BBX 7 10 1 -3
BITMAP
34
4C
84
84
84
4C
34
04
04
0E
ENDCHAR
STARTCHAR r
ENCODING 114
SWIDTH 375 0
DWIDTH 5 0
BBX 5 7 0 0
BITMAP
D0
68
40
40
40
40
E0
ENDCHAR
STARTCHAR s
ENCODING 115
SWIDTH 500 0
DWIDTH 6 0
BBX 4 7 1 0
BITMAP
70
90
80
60
10
90
E0
ENDCHAR
STARTCHAR t
ENCODING 116
SWIDTH 438 0
DWIDTH 5 0
BBX 5 9 0 0
BITMAP
40
40
F0
40
40
40
40
40
38
ENDCHAR
STARTCHAR u
ENCODING 117
SWIDTH 563 0
DWIDTH 9 0
BBX 8 7 1 0
BITMAP
C6
42
42
42
42
46
3B
ENDCHAR
STARTCHAR v
ENCODING 118
SWIDTH 563 0
DWIDTH 7 0
BBX 7 7 0 0
BITMAP
EE
44
44
28
28
10
10
ENDCHAR
STARTCHAR w
ENCODING 119
SWIDTH 750 0
DWIDTH 11 0
BBX 11 7 0 0
BITMAP
EEE0
4440
4440
2A80
2A80
1100
1100
ENDCHAR
STARTCHAR x
ENCODING 120
SWIDTH 500 0
DWIDTH 8 0
BBX 7 7 1 0
BITMAP
EE
44
28
10
28
44
EE
ENDCHAR
STARTCHAR y
ENCODING 121
SWIDTH 563 0
DWIDTH 7 0
BBX 7 10 0 -3
BITMAP
EE
44
44
28
28
10
10
20
A0
C0
ENDCHAR
STARTCHAR z
ENCODING 122
SWIDTH 563 0
DWIDTH 7 0
BBX 6 7 1 0
BITMAP
FC
88
10
20
40
84
FC
ENDCHAR
STARTCHAR braceleft
ENCODING 123
SWIDTH 438 0
DWIDTH 8 0
BBX 4 13 3 -1
BITMAP
30
40
40
40
40
40
80
40
40
40
40
40
30
ENDCHAR
STARTCHAR bar
ENCODING 124
SWIDTH 250 0
DWIDTH 8 0
BBX 1 13 4 -1
BITMAP
80
80
80
80
80
80
80
80
80
80
80
80
80
ENDCHAR
STARTCHAR braceright
ENCODING 125
SWIDTH 438 0
DWIDTH 8 0
BBX 5 13 2 -1
BITMAP
C0
20
20
20
20
20
18
20
20
20
20
20
C0
ENDCHAR
STARTCHAR asciitilde
ENCODING 126
SWIDTH 688 0
DWIDTH 11 0
BBX 8 2 1 5
BITMAP
71
8E
ENDCHAR
STARTCHAR Adieresis
ENCODING 128
SWIDTH 1000 0
DWIDTH 9 0
BBX 8 11 0 0
BITMAP
24
00
00
00
C6
42
42
42
42
46
3B
ENDCHAR
STARTCHAR Aring
ENCODING 129
SWIDTH 63 0
DWIDTH 1 0
BBX 1 16 0 -3
BITMAP
80
80
80
80
80
80
80
80
80
80
80
80
80
80
80
80
ENDCHAR
STARTCHAR Ccedilla
ENCODING 130
SWIDTH 1000 0
DWIDTH 16 0
BBX 16 1 0 0
BITMAP
FFFF
ENDCHAR
STARTCHAR Eacute
ENCODING 131
SWIDTH 1000 0
DWIDTH 16 0
BBX 16 16 0 -3
BITMAP
FFFF
FFFF
FFFF
FFFF
FFFF
FFFF
FFFF
FFFF
FFFF
FFFF
FFFF
FFFF
FFFF
FFFF
FFFF
FFFF
ENDCHAR
STARTCHAR Ntilde
ENCODING 132
SWIDTH 1000 0
DWIDTH 16 0
BBX 16 16 0 -3
BITMAP
FFFF
FFFF
FFFF
FFFF
FFFF
FFFF
FFFF
FFFF
FFFF
FFFF
FFFF
FFFF
FFFF
FFFF
FFFF
FFFF
ENDCHAR
STARTCHAR Odieresis
ENCODING 133
SWIDTH 1000 0
DWIDTH 16 0
BBX 16 16 0 -3
BITMAP
FFFF
FFFF
FFFF
FFFF
FFFF
FFFF
FFFF
FFFF
FFFF
FFFF
FFFF
FFFF
FFFF
FFFF
FFFF
FFFF
ENDCHAR
STARTCHAR Udieresis
ENCODING 134
SWIDTH 1000 0
DWIDTH 16 0
BBX 16 16 0 -3
BITMAP
FFFF
FFFF
FFFF
FFFF
FFFF
FFFF
FFFF
FFFF
FFFF
FFFF
FFFF
FFFF
FFFF
FFFF
FFFF
FFFF
ENDCHAR
STARTCHAR aacute
ENCODING 135
SWIDTH 1000 0
DWIDTH 16 0
BBX 16 16 0 -3
BITMAP
FFFF
FFFF
FFFF
FFFF
FFFF
FFFF
FFFF
FFFF
FFFF
FFFF
FFFF
FFFF
FFFF
FFFF
FFFF
FFFF
ENDCHAR
STARTCHAR agrave
ENCODING 136
SWIDTH 1000 0
DWIDTH 16 0
BBX 16 16 0 -3
BITMAP
FFFF
FFFF
FFFF
FFFF
FFFF
FFFF
FFFF
FFFF
FFFF
FFFF
FFFF
FFFF
FFFF
FFFF
FFFF
FFFF
ENDCHAR
STARTCHAR acircumflex
ENCODING 137
SWIDTH 1000 0
DWIDTH 16 0
BBX 16 16 0 -3
BITMAP
FFFF
FFFF
FFFF
FFFF
FFFF
FFFF
FFFF
FFFF
FFFF
FFFF
FFFF
FFFF
FFFF
FFFF
FFFF
FFFF
ENDCHAR
STARTCHAR adieresis
ENCODING 138
SWIDTH 1000 0
DWIDTH 16 0
BBX 16 16 0 -3
BITMAP
FFFF
FFFF
FFFF
FFFF
FFFF
FFFF
FFFF
FFFF
FFFF
FFFF
FFFF
FFFF
FFFF
FFFF
FFFF
FFFF
ENDCHAR
STARTCHAR atilde
ENCODING 139
SWIDTH 1000 0
DWIDTH 16 0
BBX 16 16 0 -3
BITMAP
FFFF
FFFF
FFFF
FFFF
FFFF
FFFF
FFFF
FFFF
FFFF
FFFF
FFFF
FFFF
FFFF
FFFF
FFFF
FFFF
ENDCHAR
STARTCHAR aring
ENCODING 140
SWIDTH 1000 0
DWIDTH 16 0
BBX 16 16 0 -3
BITMAP
FFFF
FFFF
FFFF
FFFF
FFFF
FFFF
FFFF
FFFF
FFFF
FFFF
FFFF
FFFF
FFFF
FFFF
FFFF
FFFF
ENDCHAR
STARTCHAR ccedilla
ENCODING 141
SWIDTH 1000 0
DWIDTH 16 0
BBX 16 16 0 -3
BITMAP
FFFF
FFFF
FFFF
FFFF
FFFF
FFFF
FFFF
FFFF
FFFF
FFFF
FFFF
FFFF
FFFF
FFFF
FFFF
FFFF
ENDCHAR
STARTCHAR eacute
ENCODING 142
SWIDTH 1000 0
DWIDTH 16 0
BBX 16 16 0 -3
BITMAP
FFFF
FFFF
FFFF
FFFF
FFFF
FFFF
FFFF
FFFF
FFFF
FFFF
FFFF
FFFF
FFFF
FFFF
FFFF
FFFF
ENDCHAR
STARTCHAR egrave
ENCODING 143
SWIDTH 1000 0
DWIDTH 16 0
BBX 16 16 0 -3
BITMAP
FFFF
FFFF
FFFF
FFFF
FFFF
FFFF
FFFF
FFFF
FFFF
FFFF
FFFF
FFFF
FFFF
FFFF
FFFF
FFFF
ENDCHAR
STARTCHAR ecircumflex
ENCODING 144
SWIDTH 1000 0
DWIDTH 16 0
BBX 16 16 0 -3
BITMAP
FFFF
FFFF
FFFF
FFFF
FFFF
FFFF
FFFF
FFFF
FFFF
FFFF
FFFF
FFFF
FFFF
FFFF
FFFF
FFFF
ENDCHAR
STARTCHAR edieresis
ENCODING 145
SWIDTH 1000 0
DWIDTH 16 0
BBX 16 16 0 -3
BITMAP
FFFF
FFFF
FFFF
FFFF
FFFF
FFFF
FFFF
FFFF
FFFF
FFFF
FFFF
FFFF
FFFF
FFFF
FFFF
FFFF
ENDCHAR
STARTCHAR iacute
ENCODING 146
SWIDTH 1000 0
DWIDTH 16 0
BBX 16 16 0 -3
BITMAP
FFFF
FFFF
FFFF
FFFF
FFFF
FFFF
FFFF
FFFF
FFFF
FFFF
FFFF
FFFF
FFFF
FFFF
FFFF
FFFF
ENDCHAR
STARTCHAR igrave
ENCODING 147
SWIDTH 1000 0
DWIDTH 16 0
BBX 16 16 0 -3
BITMAP
FFFF
FFFF
FFFF
FFFF
FFFF
FFFF
FFFF
FFFF
FFFF
FFFF
FFFF
FFFF
FFFF
FFFF
FFFF
FFFF
ENDCHAR
STARTCHAR icircumflex
ENCODING 148
SWIDTH 1000 0
DWIDTH 16 0
BBX 16 16 0 -3
BITMAP
FFFF
FFFF
FFFF
FFFF
FFFF
FFFF
FFFF
FFFF
FFFF
FFFF
FFFF
FFFF
FFFF
FFFF
FFFF
FFFF
ENDCHAR
STARTCHAR idieresis
ENCODING 149
SWIDTH 1000 0
DWIDTH 16 0
BBX 16 16 0 -3
BITMAP
FFFF
FFFF
FFFF
FFFF
FFFF
FFFF
FFFF
FFFF
FFFF
FFFF
FFFF
FFFF
FFFF
FFFF
FFFF
FFFF
ENDCHAR
STARTCHAR ntilde
ENCODING 150
SWIDTH 1000 0
DWIDTH 16 0
BBX 16 16 0 -3
BITMAP
FFFF
FFFF
FFFF
FFFF
FFFF
FFFF
FFFF
FFFF
FFFF
FFFF
FFFF
FFFF
FFFF
FFFF
FFFF
FFFF
ENDCHAR
STARTCHAR oacute
ENCODING 151
SWIDTH 1000 0
DWIDTH 16 0
BBX 16 16 0 -3
BITMAP
FFFF
FFFF
FFFF
FFFF
FFFF
FFFF
FFFF
FFFF
FFFF
FFFF
FFFF
FFFF
FFFF
FFFF
FFFF
FFFF
ENDCHAR
STARTCHAR ograve
ENCODING 152
SWIDTH 1000 0
DWIDTH 16 0
BBX 16 16 0 -3
BITMAP
FFFF
FFFF
FFFF
FFFF
FFFF
FFFF
FFFF
FFFF
FFFF
FFFF
FFFF
FFFF
FFFF
FFFF
FFFF
FFFF
ENDCHAR
STARTCHAR ocircumflex
ENCODING 153
SWIDTH 1000 0
DWIDTH 16 0
BBX 16 16 0 -3
BITMAP
FFFF
FFFF
FFFF
FFFF
FFFF
FFFF
FFFF
FFFF
FFFF
FFFF
FFFF
FFFF
FFFF
FFFF
FFFF
FFFF
ENDCHAR
STARTCHAR odieresis
ENCODING 154
SWIDTH 1000 0
DWIDTH 16 0
BBX 16 16 0 -3
BITMAP
FFFF
FFFF
FFFF
FFFF
FFFF
FFFF
FFFF
FFFF
FFFF
FFFF
FFFF
FFFF
FFFF
FFFF
FFFF
FFFF
ENDCHAR
STARTCHAR otilde
ENCODING 155
SWIDTH 1000 0
DWIDTH 16 0
BBX 16 16 0 -3
BITMAP
FFFF
FFFF
FFFF
FFFF
FFFF
FFFF
FFFF
FFFF
FFFF
FFFF
FFFF
FFFF
FFFF
FFFF
FFFF
FFFF
ENDCHAR
STARTCHAR uacute
ENCODING 156
SWIDTH 1000 0
DWIDTH 16 0
BBX 16 16 0 -3
BITMAP
FFFF
FFFF
FFFF
FFFF
FFFF
FFFF
FFFF
FFFF
FFFF
FFFF
FFFF
FFFF
FFFF
FFFF
FFFF
FFFF
ENDCHAR
STARTCHAR ugrave
ENCODING 157
SWIDTH 1000 0
DWIDTH 16 0
BBX 16 16 0 -3
BITMAP
FFFF
FFFF
FFFF
FFFF
FFFF
FFFF
FFFF
FFFF
FFFF
FFFF
FFFF
FFFF
FFFF
FFFF
FFFF
FFFF
ENDCHAR
STARTCHAR ucircumflex
ENCODING 158
SWIDTH 1000 0
DWIDTH 16 0
BBX 16 16 0 -3
BITMAP
FFFF
FFFF
FFFF
FFFF
FFFF
FFFF
FFFF
FFFF
FFFF
FFFF
FFFF
FFFF
FFFF
FFFF
FFFF
FFFF
ENDCHAR
STARTCHAR udieresis
ENCODING 159
SWIDTH 1000 0
DWIDTH 16 0
BBX 16 16 0 -3
BITMAP
FFFF
FFFF
FFFF
FFFF
FFFF
FFFF
FFFF
FFFF
FFFF
FFFF
FFFF
FFFF
FFFF
FFFF
FFFF
FFFF
ENDCHAR
STARTCHAR dagger
ENCODING 160
SWIDTH 625 0
DWIDTH 8 0
BBX 0 0 0 -3
BITMAP
ENDCHAR
STARTCHAR degree
ENCODING 161
SWIDTH 500 0
DWIDTH 8 0
BBX 8 15 0 -2
BITMAP
FF
FF
FF
FF
FF
FF
FF
FF
FF
FF
FF
FF
FF
FF
FF
ENDCHAR
STARTCHAR cent
ENCODING 162
SWIDTH 500 0
DWIDTH 8 0
BBX 8 15 0 -2
BITMAP
FF
FF
FF
FF
FF
FF
FF
FF
FF
FF
FF
FF
FF
FF
FF
ENDCHAR
STARTCHAR sterling
ENCODING 163
SWIDTH 500 0
DWIDTH 8 0
BBX 8 15 0 -2
BITMAP
FF
FF
FF
FF
FF
FF
FF
FF
FF
FF
FF
FF
FF
FF
FF
ENDCHAR
STARTCHAR section
ENCODING 164
SWIDTH 500 0
DWIDTH 8 0
BBX 8 15 0 -2
BITMAP
FF
FF
FF
FF
FF
FF
FF
FF
FF
FF
FF
FF
FF
FF
FF
ENDCHAR
STARTCHAR bullet
ENCODING 165
SWIDTH 500 0
DWIDTH 8 0
BBX 8 15 0 -2
BITMAP
FF
FF
FF
FF
FF
FF
FF
FF
FF
FF
FF
FF
FF
FF
FF
ENDCHAR
STARTCHAR paragraph
ENCODING 166
SWIDTH 500 0
DWIDTH 8 0
BBX 8 15 0 -2
BITMAP
FF
FF
FF
FF
FF
FF
FF
FF
FF
FF
FF
FF
FF
FF
FF
ENDCHAR
STARTCHAR germandbls
ENCODING 167
SWIDTH 500 0
DWIDTH 8 0
BBX 8 15 0 -2
BITMAP
FF
FF
FF
FF
FF
FF
FF
FF
FF
FF
FF
FF
FF
FF
FF
ENDCHAR
STARTCHAR registered
ENCODING 168
SWIDTH 500 0
DWIDTH 8 0
BBX 8 15 0 -2
BITMAP
FF
FF
FF
FF
FF
FF
FF
FF
FF
FF
FF
FF
FF
FF
FF
ENDCHAR
STARTCHAR copyright
ENCODING 169
SWIDTH 500 0
DWIDTH 8 0
BBX 8 15 0 -2
BITMAP
FF
FF
FF
FF
FF
FF
FF
FF
FF
FF
FF
FF
FF
FF
FF
ENDCHAR
STARTCHAR trademark
ENCODING 170
SWIDTH 500 0
DWIDTH 8 0
BBX 8 15 0 -2
BITMAP
FF
FF
FF
FF
FF
FF
FF
FF
FF
FF
FF
FF
FF
FF
FF
ENDCHAR
STARTCHAR acute
ENCODING 171
SWIDTH 500 0
DWIDTH 8 0
BBX 8 15 0 -2
BITMAP
FF
FF
FF
FF
FF
FF
FF
FF
FF
FF
FF
FF
FF
FF
FF
ENDCHAR
STARTCHAR dieresis
ENCODING 172
SWIDTH 500 0
DWIDTH 8 0
BBX 8 15 0 -2
BITMAP
FF
FF
FF
FF
FF
FF
FF
FF
FF
FF
FF
FF
FF
FF
FF
ENDCHAR
STARTCHAR notequal
ENCODING 173
SWIDTH 500 0
DWIDTH 8 0
BBX 8 15 0 -2
BITMAP
FF
FF
FF
FF
FF
FF
FF
FF
FF
FF
FF
FF
FF
FF
FF
ENDCHAR
STARTCHAR AE
ENCODING 174
SWIDTH 500 0
DWIDTH 8 0
BBX 8 15 0 -2
BITMAP
FF
FF
FF
FF
FF
FF
FF
FF
FF
FF
FF
FF
FF
FF
FF
ENDCHAR
STARTCHAR Oslash
ENCODING 175
SWIDTH 500 0
DWIDTH 8 0
BBX 8 15 0 -2
BITMAP
FF
FF
FF
FF
FF
FF
FF
FF
FF
FF
FF
FF
FF
FF
FF
ENDCHAR
STARTCHAR infinity
ENCODING 176
SWIDTH 500 0
DWIDTH 8 0
BBX 8 15 0 -2
BITMAP
FF
FF
FF
FF
FF
FF
FF
FF
FF
FF
FF
FF
FF
FF
FF
ENDCHAR
STARTCHAR plusminus
ENCODING 177
SWIDTH 500 0
DWIDTH 8 0
BBX 8 15 0 -2
BITMAP
FF
FF
FF
FF
FF
FF
FF
FF
FF
FF
FF
FF
FF
FF
FF
ENDCHAR
STARTCHAR lessequal
ENCODING 178
SWIDTH 500 0
DWIDTH 8 0
BBX 8 15 0 -2
BITMAP
FF
FF
FF
FF
FF
FF
FF
FF
FF
FF
FF
FF
FF
FF
FF
ENDCHAR
STARTCHAR greaterequal
ENCODING 179
SWIDTH 500 0
DWIDTH 8 0
BBX 8 15 0 -2
BITMAP
FF
FF
FF
FF
FF
FF
FF
FF
FF
FF
FF
FF
FF
FF
FF
ENDCHAR
STARTCHAR yen
ENCODING 180
SWIDTH 500 0
DWIDTH 8 0
BBX 8 15 0 -2
BITMAP
FF
FF
FF
FF
FF
FF
FF
FF
FF
FF
FF
FF
FF
FF
FF
ENDCHAR
STARTCHAR mu
ENCODING 181
SWIDTH 500 0
DWIDTH 8 0
BBX 8 15 0 -2
BITMAP
FF
FF
FF
FF
FF
FF
FF
FF
FF
FF
FF
FF
FF
FF
FF
ENDCHAR
STARTCHAR partialdiff
ENCODING 182
SWIDTH 500 0
DWIDTH 8 0
BBX 8 15 0 -2
BITMAP
FF
FF
FF
FF
FF
FF
FF
FF
FF
FF
FF
FF
FF
FF
FF
ENDCHAR
STARTCHAR summation
ENCODING 183
SWIDTH 500 0
DWIDTH 8 0
BBX 8 15 0 -2
BITMAP
FF
FF
FF
FF
FF
FF
FF
FF
FF
FF
FF
FF
FF
FF
FF
ENDCHAR
STARTCHAR product
ENCODING 184
SWIDTH 500 0
DWIDTH 8 0
BBX 8 15 0 -2
BITMAP
FF
FF
FF
FF
FF
FF
FF
FF
FF
FF
FF
FF
FF
FF
FF
ENDCHAR
STARTCHAR pi
ENCODING 185
SWIDTH 500 0
DWIDTH 8 0
BBX 8 15 0 -2
BITMAP
FF
FF
FF
FF
FF
FF
FF
FF
FF
FF
FF
FF
FF
FF
FF
ENDCHAR
STARTCHAR integral
ENCODING 186
SWIDTH 500 0
DWIDTH 8 0
BBX 8 15 0 -2
BITMAP
FF
FF
FF
FF
FF
FF
FF
FF
FF
FF
FF
FF
FF
FF
FF
ENDCHAR
STARTCHAR ordfeminine
ENCODING 187
SWIDTH 500 0
DWIDTH 8 0
BBX 8 15 0 -2
BITMAP
FF
FF
FF
FF
FF
FF
FF
FF
FF
FF
FF
FF
FF
FF
FF
ENDCHAR
STARTCHAR ordmasculine
ENCODING 188
SWIDTH 500 0
DWIDTH 8 0
BBX 8 15 0 -2
BITMAP
FF
FF
FF
FF
FF
FF
FF
FF
FF
FF
FF
FF
FF
FF
FF
ENDCHAR
STARTCHAR Omega
ENCODING 189
SWIDTH 500 0
DWIDTH 8 0
BBX 8 15 0 -2
BITMAP
FF
FF
FF
FF
FF
FF
FF
FF
FF
FF
FF
FF
FF
FF
FF
ENDCHAR
STARTCHAR ae
ENCODING 190
SWIDTH 500 0
DWIDTH 8 0
BBX 8 15 0 -2
BITMAP
FF
FF
FF
FF
FF
FF
FF
FF
FF
FF
FF
FF
FF
FF
FF
ENDCHAR
STARTCHAR oslash
ENCODING 191
SWIDTH 500 0
DWIDTH 8 0
BBX 8 15 0 -2
BITMAP
FF
FF
FF
FF
FF
FF
FF
FF
FF
FF
FF
FF
FF
FF
FF
ENDCHAR
STARTCHAR questiondown
ENCODING 192
SWIDTH 500 0
DWIDTH 8 0
BBX 8 15 0 -2
BITMAP
FF
FF
FF
FF
FF
FF
FF
FF
FF
FF
FF
FF
FF
FF
FF
ENDCHAR
STARTCHAR exclamdown
ENCODING 193
SWIDTH 500 0
DWIDTH 8 0
BBX 8 15 0 -2
BITMAP
FF
FF
FF
FF
FF
FF
FF
FF
FF
FF
FF
FF
FF
FF
FF
ENDCHAR
STARTCHAR logicalnot
ENCODING 194
SWIDTH 500 0
DWIDTH 8 0
BBX 8 15 0 -2
BITMAP
FF
FF
FF
FF
FF
FF
FF
FF
FF
FF
FF
FF
FF
FF
FF
ENDCHAR
STARTCHAR radical
ENCODING 195
SWIDTH 500 0
DWIDTH 8 0
BBX 8 15 0 -2
BITMAP
FF
FF
FF
FF
FF
FF
FF
FF
FF
FF
FF
FF
FF
FF
FF
ENDCHAR
STARTCHAR florin
ENCODING 196
SWIDTH 500 0
DWIDTH 8 0
BBX 8 15 0 -2
BITMAP
FF
FF
FF
FF
FF
FF
FF
FF
FF
FF
FF
FF
FF
FF
FF
ENDCHAR
STARTCHAR approxequal
ENCODING 197
SWIDTH 500 0
DWIDTH 8 0
BBX 8 15 0 -2
BITMAP
FF
FF
FF
FF
FF
FF
FF
FF
FF
FF
FF
FF
FF
FF
FF
ENDCHAR
STARTCHAR Delta
ENCODING 198
SWIDTH 500 0
DWIDTH 8 0
BBX 8 15 0 -2
BITMAP
FF
FF
FF
FF
FF
FF
FF
FF
FF
FF
FF
FF
FF
FF
FF
ENDCHAR
STARTCHAR guillemotleft
ENCODING 199
SWIDTH 500 0
DWIDTH 8 0
BBX 8 15 0 -2
BITMAP
FF
FF
FF
FF
FF
FF
FF
FF
FF
FF
FF
FF
FF
FF
FF
ENDCHAR
STARTCHAR guillemotright
ENCODING 200
SWIDTH 500 0
DWIDTH 8 0
BBX 8 15 0 -2
BITMAP
FF
FF
FF
FF
FF
FF
FF
FF
FF
FF
FF
FF
FF
FF
FF
ENDCHAR
STARTCHAR ellipsis
ENCODING 201
SWIDTH 500 0
DWIDTH 8 0
BBX 8 15 0 -2
BITMAP
FF
FF
FF
FF
FF
FF
FF
FF
FF
FF
FF
FF
FF
FF
FF
ENDCHAR
STARTCHAR nbspace
ENCODING 202
SWIDTH 500 0
DWIDTH 8 0
BBX 8 15 0 -2
BITMAP
FF
FF
FF
FF
FF
FF
FF
FF
FF
FF
FF
FF
FF
FF
FF
ENDCHAR
STARTCHAR Agrave
ENCODING 203
SWIDTH 500 0
DWIDTH 8 0
BBX 8 15 0 -2
BITMAP
FF
FF
FF
FF
FF
FF
FF
FF
FF
FF
FF
FF
FF
FF
FF
ENDCHAR
STARTCHAR Atilde
ENCODING 204
SWIDTH 500 0
DWIDTH 8 0
BBX 8 15 0 -2
BITMAP
FF
FF
FF
FF
FF
FF
FF
FF
FF
FF
FF
FF
FF
FF
FF
ENDCHAR
STARTCHAR Otilde
ENCODING 205
SWIDTH 500 0
DWIDTH 8 0
BBX 8 15 0 -2
BITMAP
FF
FF
FF
FF
FF
FF
FF
FF
FF
FF
FF
FF
FF
FF
FF
ENDCHAR
STARTCHAR OE
ENCODING 206
SWIDTH 500 0
DWIDTH 8 0
BBX 8 15 0 -2
BITMAP
FF
FF
FF
FF
FF
FF
FF
FF
FF
FF
FF
FF
FF
FF
FF
ENDCHAR
STARTCHAR oe
ENCODING 207
SWIDTH 500 0
DWIDTH 8 0
BBX 8 15 0 -2
BITMAP
FF
FF
FF
FF
FF
FF
FF
FF
FF
FF
FF
FF
FF
FF
FF
ENDCHAR
STARTCHAR endash
ENCODING 208
SWIDTH 500 0
DWIDTH 8 0
BBX 8 15 0 -2
BITMAP
FF
FF
FF
FF
FF
FF
FF
FF
FF
FF
FF
FF
FF
FF
FF
ENDCHAR
STARTCHAR emdash
ENCODING 209
SWIDTH 500 0
DWIDTH 8 0
BBX 8 15 0 -2
BITMAP
FF
FF
FF
FF
FF
FF
FF
FF
FF
FF
FF
FF
FF
FF
FF
ENDCHAR
STARTCHAR quotedblleft
ENCODING 210
SWIDTH 500 0
DWIDTH 8 0
BBX 8 15 0 -2
BITMAP
FF
FF
FF
FF
FF
FF
FF
FF
FF
FF
FF
FF
FF
FF
FF
ENDCHAR
STARTCHAR quotedblright
ENCODING 211
SWIDTH 500 0
DWIDTH 8 0
BBX 8 15 0 -2
BITMAP
FF
FF
FF
FF
FF
FF
FF
FF
FF
FF
FF
FF
FF
FF
FF
ENDCHAR
STARTCHAR quoteleft
ENCODING 212
SWIDTH 500 0
DWIDTH 8 0
BBX 8 15 0 -2
BITMAP
FF
FF
FF
FF
FF
FF
FF
FF
FF
FF
FF
FF
FF
FF
FF
ENDCHAR
STARTCHAR quoteright
ENCODING 213
SWIDTH 500 0
DWIDTH 8 0
BBX 8 15 0 -2
BITMAP
FF
FF
FF
FF
FF
FF
FF
FF
FF
FF
FF
FF
FF
FF
FF
ENDCHAR
STARTCHAR divide
ENCODING 214
SWIDTH 500 0
DWIDTH 8 0
BBX 8 15 0 -2
BITMAP
FF
FF
FF
FF
FF
FF
FF
FF
FF
FF
FF
FF
FF
FF
FF
ENDCHAR
STARTCHAR lozenge
ENCODING 215
SWIDTH 500 0
DWIDTH 8 0
BBX 8 15 0 -2
BITMAP
FF
FF
FF
FF
FF
FF
FF
FF
FF
FF
FF
FF
FF
FF
FF
ENDCHAR
STARTCHAR ydieresis
ENCODING 216
SWIDTH 500 0
DWIDTH 8 0
BBX 8 15 0 -2
BITMAP
FF
FF
FF
FF
FF
FF
FF
FF
FF
FF
FF
FF
FF
FF
FF
ENDCHAR
STARTCHAR Ydieresis
ENCODING 217
SWIDTH 500 0
DWIDTH 8 0
BBX 8 15 0 -2
BITMAP
FF
FF
FF
FF
FF
FF
FF
FF
FF
FF
FF
FF
FF
FF
FF
ENDCHAR
STARTCHAR fraction
ENCODING 218
SWIDTH 500 0
DWIDTH 8 0
BBX 8 15 0 -2
BITMAP
FF
FF
FF
FF
FF
FF
FF
FF
FF
FF
FF
FF
FF
FF
FF
ENDCHAR
STARTCHAR currency
ENCODING 219
SWIDTH 500 0
DWIDTH 8 0
BBX 8 15 0 -2
BITMAP
FF
FF
FF
FF
FF
FF
FF
FF
FF
FF
FF
FF
FF
FF
FF
ENDCHAR
STARTCHAR guilsinglleft
ENCODING 220
SWIDTH 500 0
DWIDTH 8 0
BBX 8 15 0 -2
BITMAP
FF
FF
FF
FF
FF
FF
FF
FF
FF
FF
FF
FF
FF
FF
FF
ENDCHAR
STARTCHAR guilsinglright
ENCODING 221
SWIDTH 500 0
DWIDTH 8 0
BBX 8 15 0 -2
BITMAP
FF
FF
FF
FF
FF
FF
FF
FF
FF
FF
FF
FF
FF
FF
FF
ENDCHAR
STARTCHAR fi
ENCODING 222
SWIDTH 500 0
DWIDTH 8 0
BBX 8 15 0 -2
BITMAP
FF
FF
FF
FF
FF
FF
FF
FF
FF
FF
FF
FF
FF
FF
FF
ENDCHAR
STARTCHAR fl
ENCODING 223
SWIDTH 500 0
DWIDTH 8 0
BBX 8 15 0 -2
BITMAP
FF
FF
FF
FF
FF
FF
FF
FF
FF
FF
FF
FF
FF
FF
FF
ENDCHAR
STARTCHAR daggerdbl
ENCODING 224
SWIDTH 500 0
DWIDTH 8 0
BBX 8 15 0 -2
BITMAP
FF
FF
FF
FF
FF
FF
FF
FF
FF
FF
FF
FF
FF
FF
FF
ENDCHAR
STARTCHAR periodcentered
ENCODING 225
SWIDTH 500 0
DWIDTH 8 0
BBX 8 15 0 -2
BITMAP
FF
FF
FF
FF
FF
FF
FF
FF
FF
FF
FF
FF
FF
FF
FF
ENDCHAR
STARTCHAR quotesinglbase
ENCODING 226
SWIDTH 500 0
DWIDTH 8 0
BBX 8 15 0 -2
BITMAP
FF
FF
FF
FF
FF
FF
FF
FF
FF
FF
FF
FF
FF
FF
FF
ENDCHAR
STARTCHAR quotedblbase
ENCODING 227
SWIDTH 500 0
DWIDTH 8 0
BBX 8 15 0 -2
BITMAP
FF
FF
FF
FF
FF
FF
FF
FF
FF
FF
FF
FF
FF
FF
FF
ENDCHAR
STARTCHAR perthousand
ENCODING 228
SWIDTH 500 0
DWIDTH 8 0
BBX 8 15 0 -2
BITMAP
FF
FF
FF
FF
FF
FF
FF
FF
FF
FF
FF
FF
FF
FF
FF
ENDCHAR
STARTCHAR Acircumflex
ENCODING 229
SWIDTH 500 0
DWIDTH 8 0
BBX 8 15 0 -2
BITMAP
FF
FF
FF
FF
FF
FF
FF
FF
FF
FF
FF
FF
FF
FF
FF
ENDCHAR
STARTCHAR Ecircumflex
ENCODING 230
SWIDTH 500 0
DWIDTH 8 0
BBX 8 15 0 -2
BITMAP
FF
FF
FF
FF
FF
FF
FF
FF
FF
FF
FF
FF
FF
FF
FF
ENDCHAR
STARTCHAR Aacute
ENCODING 231
SWIDTH 500 0
DWIDTH 8 0
BBX 8 15 0 -2
BITMAP
FF
FF
FF
FF
FF
FF
FF
FF
FF
FF
FF
FF
FF
FF
FF
ENDCHAR
STARTCHAR Edieresis
ENCODING 232
SWIDTH 500 0
DWIDTH 8 0
BBX 8 15 0 -2
BITMAP
FF
FF
FF
FF
FF
FF
FF
FF
FF
FF
FF
FF
FF
FF
FF
ENDCHAR
STARTCHAR Egrave
ENCODING 233
SWIDTH 500 0
DWIDTH 8 0
BBX 8 15 0 -2
BITMAP
FF
FF
FF
FF
FF
FF
FF
FF
FF
FF
FF
FF
FF
FF
FF
ENDCHAR
STARTCHAR Iacute
ENCODING 234
SWIDTH 500 0
DWIDTH 8 0
BBX 8 15 0 -2
BITMAP
FF
FF
FF
FF
FF
FF
FF
FF
FF
FF
FF
FF
FF
FF
FF
ENDCHAR
STARTCHAR Icircumflex
ENCODING 235
SWIDTH 500 0
DWIDTH 8 0
BBX 8 15 0 -2
BITMAP
FF
FF
FF
FF
FF
FF
FF
FF
FF
FF
FF
FF
FF
FF
FF
ENDCHAR
STARTCHAR Idieresis
ENCODING 236
SWIDTH 500 0
DWIDTH 8 0
BBX 8 15 0 -2
BITMAP
FF
FF
FF
FF
FF
FF
FF
FF
FF
FF
FF
FF
FF
FF
FF
ENDCHAR
STARTCHAR Igrave
ENCODING 237
SWIDTH 500 0
DWIDTH 8 0
BBX 8 15 0 -2
BITMAP
FF
FF
FF
FF
FF
FF
FF
FF
FF
FF
FF
FF
FF
FF
FF
ENDCHAR
STARTCHAR Oacute
ENCODING 238
SWIDTH 500 0
DWIDTH 8 0
BBX 8 15 0 -2
BITMAP
FF
FF
FF
FF
FF
FF
FF
FF
FF
FF
FF
FF
FF
FF
FF
ENDCHAR
STARTCHAR Ocircumflex
ENCODING 239
SWIDTH 500 0
DWIDTH 8 0
BBX 8 15 0 -2
BITMAP
FF
FF
FF
FF
FF
FF
FF
FF
FF
FF
FF
FF
FF
FF
FF
ENDCHAR
STARTCHAR apple
ENCODING 240
SWIDTH 500 0
DWIDTH 8 0
BBX 8 15 0 -2
BITMAP
FF
FF
FF
FF
FF
FF
FF
FF
FF
FF
FF
FF
FF
FF
FF
ENDCHAR
STARTCHAR Ograve
ENCODING 241
SWIDTH 500 0
DWIDTH 8 0
BBX 8 15 0 -2
BITMAP
FF
FF
FF
FF
FF
FF
FF
FF
FF
FF
FF
FF
FF
FF
FF
ENDCHAR
STARTCHAR Uacute
ENCODING 242
SWIDTH 500 0
DWIDTH 8 0
BBX 8 15 0 -2
BITMAP
FF
FF
FF
FF
FF
FF
FF
FF
FF
FF
FF
FF
FF
FF
FF
ENDCHAR
STARTCHAR Ucircumflex
ENCODING 243
SWIDTH 500 0
DWIDTH 8 0
BBX 8 15 0 -2
BITMAP
FF
FF
FF
FF
FF
FF
FF
FF
FF
FF
FF
FF
FF
FF
FF
ENDCHAR
STARTCHAR Ugrave
ENCODING 244
SWIDTH 500 0
DWIDTH 8 0
BBX 8 15 0 -2
BITMAP
FF
FF
FF
FF
FF
FF
FF
FF
FF
FF
FF
FF
FF
FF
FF
ENDCHAR
STARTCHAR dotlessi
ENCODING 245
SWIDTH 500 0
DWIDTH 8 0
BBX 8 15 0 -2
BITMAP
FF
FF
FF
FF
FF
FF
FF
FF
FF
FF
FF
FF
FF
FF
FF
ENDCHAR
STARTCHAR circumflex
ENCODING 246
SWIDTH 500 0
DWIDTH 8 0
BBX 8 15 0 -2
BITMAP
FF
FF
FF
FF
FF
FF
FF
FF
FF
FF
FF
FF
FF
FF
FF
ENDCHAR
STARTCHAR tilde
ENCODING 247
SWIDTH 500 0
DWIDTH 8 0
BBX 8 15 0 -2
BITMAP
FF
FF
FF
FF
FF
FF
FF
FF
FF
FF
FF
FF
FF
FF
FF
ENDCHAR
STARTCHAR macron
ENCODING 248
SWIDTH 500 0
DWIDTH 8 0
BBX 8 15 0 -2
BITMAP
FF
FF
FF
FF
FF
FF
FF
FF
FF
FF
FF
FF
FF
FF
FF
ENDCHAR
STARTCHAR breve
ENCODING 249
SWIDTH 500 0
DWIDTH 8 0
BBX 8 15 0 -2
BITMAP
FF
FF
FF
FF
FF
FF
FF
FF
FF
FF
FF
FF
FF
FF
FF
ENDCHAR
STARTCHAR dotaccent
ENCODING 250
SWIDTH 500 0
DWIDTH 8 0
BBX 8 15 0 -2
BITMAP
FF
FF
FF
FF
FF
FF
FF
FF
FF
FF
FF
FF
FF
FF
FF
ENDCHAR
STARTCHAR ring
ENCODING 251
SWIDTH 500 0
DWIDTH 8 0
BBX 8 15 0 -2
BITMAP
FF
FF
FF
FF
FF
FF
FF
FF
FF
FF
FF
FF
FF
FF
FF
ENDCHAR
STARTCHAR cedilla
ENCODING 252
SWIDTH 500 0
DWIDTH 8 0
BBX 8 15 0 -2
BITMAP
FF
FF
FF
FF
FF
FF
FF
FF
FF
FF
FF
FF
FF
FF
FF
ENDCHAR
STARTCHAR hungarumlaut
ENCODING 253
SWIDTH 875 0
DWIDTH 12 0
BBX 11 11 1 0
BITMAP
1F00
2080
4E40
9120
A020
A020
A020
9120
4E40
2080
1F00
ENDCHAR
STARTCHAR ogonek
ENCODING 254
SWIDTH 750 0
DWIDTH 14 0
BBX 14 6 0 5
BITMAP
FB9C
A968
2168
2108
2108
739C
ENDCHAR
STARTCHAR caron
ENCODING 255
SWIDTH 1000 0
DWIDTH 11 0
BBX 10 2 1 0
BITMAP
CCC0
CCC0
ENDCHAR
ENDFONT
