STARTFONT 2.1
FONT -Fondu-#헤드라인A-Medium-R-Normal--18-170-75-75-P-97-MacRoman-1
SIZE 17 75 75
FONTBOUNDINGBOX 18 18 0 -4
COMMENT Created by Fondu from a mac NFNT/FONT resource
STARTPROPERTIES 17
FOUNDRY "Fondu"
FAMILY_NAME "#헤드라인A"
WEIGHT_NAME "Medium"
SLANT "R"
SETWIDTH_NAME "Normal"
ADD_STYLE_NAME ""
PIXEL_SIZE 18
POINT_SIZE 170
RESOLUTION_X 75
RESOLUTION_Y 75
SPACING "P"
AVERAGE_WIDTH 97
CHARSET_REGISTRY "MacRoman"
CHARSET_ENCODING "1"
FONT_ASCENT 14
FONT_DESCENT 4
FACE_NAME "#헤드라인A"
ENDPROPERTIES
CHARS 229
STARTCHAR char0011
ENCODING 17
SWIDTH 992 0
DWIDTH 18 0
BBX 13 11 3 0
BITMAP
78F0
CD98
CD98
CD98
7FF0
0D80
7FF0
CD98
CD98
CD98
78F0
ENDCHAR
STARTCHAR char0012
ENCODING 18
SWIDTH 594 0
DWIDTH 11 0
BBX 9 11 1 0
BITMAP
0180
0180
0300
0300
0600
0600
0C00
CC00
7800
3800
1000
ENDCHAR
STARTCHAR char0013
ENCODING 19
SWIDTH 815 0
DWIDTH 15 0
BBX 11 11 2 1
BITMAP
0400
0E00
1F00
3F80
7FC0
FFE0
7FC0
3F80
1F00
0E00
0400
ENDCHAR
STARTCHAR char0014
ENCODING 20
SWIDTH 855 0
DWIDTH 15 0
BBX 12 14 2 0
BITMAP
0080
0180
0300
1AC0
3FE0
7FF0
7FF0
FFE0
FFE0
FFE0
7FF0
7FF0
3FE0
1DC0
ENDCHAR
STARTCHAR onehalf
ENCODING 21
SWIDTH 500 0
DWIDTH 9 0
BBX 7 13 1 0
BITMAP
7E
FA
FA
FA
FA
7A
1A
1A
1A
1A
1A
1A
1A
ENDCHAR
STARTCHAR space
ENCODING 32
SWIDTH 500 0
DWIDTH 9 0
BBX 0 0 0 -4
BITMAP
ENDCHAR
STARTCHAR exclam
ENCODING 33
SWIDTH 229 0
DWIDTH 4 0
BBX 2 12 1 0
BITMAP
C0
C0
C0
C0
C0
C0
C0
C0
00
00
C0
C0
ENDCHAR
STARTCHAR quotedbl
ENCODING 34
SWIDTH 417 0
DWIDTH 8 0
BBX 6 3 1 10
BITMAP
6C
6C
D8
ENDCHAR
STARTCHAR numbersign
ENCODING 35
SWIDTH 625 0
DWIDTH 11 0
BBX 10 11 0 0
BITMAP
1980
1980
1980
7FC0
3300
3300
3300
FF80
6600
6600
6600
ENDCHAR
STARTCHAR dollar
ENCODING 36
SWIDTH 375 0
DWIDTH 7 0
BBX 7 12 0 0
BITMAP
10
7C
D6
D6
D0
70
1C
16
D6
D6
7C
10
ENDCHAR
STARTCHAR percent
ENCODING 37
SWIDTH 688 0
DWIDTH 12 0
BBX 11 12 1 0
BITMAP
7000
D860
D8C0
D980
DB00
7600
0DC0
1B60
3360
6360
C360
01C0
ENDCHAR
STARTCHAR ampersand
ENCODING 38
SWIDTH 594 0
DWIDTH 11 0
BBX 11 12 0 0
BITMAP
1C00
3600
6600
6600
6C00
38C0
7CC0
CEC0
C780
C380
63C0
3CE0
ENDCHAR
STARTCHAR quotesingle
ENCODING 39
SWIDTH 188 0
DWIDTH 3 0
BBX 3 3 0 10
BITMAP
60
60
C0
ENDCHAR
STARTCHAR parenleft
ENCODING 40
SWIDTH 260 0
DWIDTH 5 0
BBX 5 15 0 -2
BITMAP
18
30
60
60
C0
C0
C0
C0
C0
C0
C0
60
60
30
18
ENDCHAR
STARTCHAR parenright
ENCODING 41
SWIDTH 260 0
DWIDTH 5 0
BBX 5 15 0 -2
BITMAP
C0
60
30
30
18
18
18
18
18
18
18
30
30
60
C0
ENDCHAR
STARTCHAR asterisk
ENCODING 42
SWIDTH 323 0
DWIDTH 6 0
BBX 5 4 1 9
BITMAP
A8
70
70
A8
ENDCHAR
STARTCHAR plus
ENCODING 43
SWIDTH 990 0
DWIDTH 18 0
BBX 10 10 4 0
BITMAP
0C00
0C00
0C00
0C00
FFC0
FFC0
0C00
0C00
0C00
0C00
ENDCHAR
STARTCHAR comma
ENCODING 44
SWIDTH 188 0
DWIDTH 3 0
BBX 3 3 0 -2
BITMAP
60
60
C0
ENDCHAR
STARTCHAR hyphen
ENCODING 45
SWIDTH 302 0
DWIDTH 5 0
BBX 5 2 0 4
BITMAP
F8
F8
ENDCHAR
STARTCHAR period
ENCODING 46
SWIDTH 188 0
DWIDTH 3 0
BBX 2 2 0 -1
BITMAP
C0
C0
ENDCHAR
STARTCHAR slash
ENCODING 47
SWIDTH 500 0
DWIDTH 9 0
BBX 8 14 1 -1
BITMAP
03
03
06
06
0C
0C
18
18
30
30
60
60
C0
C0
ENDCHAR
STARTCHAR zero
ENCODING 48
SWIDTH 406 0
DWIDTH 7 0
BBX 6 12 0 0
BITMAP
78
FC
CC
CC
CC
CC
CC
CC
CC
CC
FC
78
ENDCHAR
STARTCHAR one
ENCODING 49
SWIDTH 406 0
DWIDTH 7 0
BBX 3 12 2 0
BITMAP
60
E0
60
60
60
60
60
60
60
60
60
60
ENDCHAR
STARTCHAR two
ENCODING 50
SWIDTH 406 0
DWIDTH 7 0
BBX 6 12 1 0
BITMAP
78
FC
CC
CC
0C
18
18
30
60
C0
FC
FC
ENDCHAR
STARTCHAR three
ENCODING 51
SWIDTH 406 0
DWIDTH 7 0
BBX 6 12 1 0
BITMAP
78
FC
CC
CC
0C
38
38
0C
CC
CC
FC
78
ENDCHAR
STARTCHAR four
ENCODING 52
SWIDTH 406 0
DWIDTH 7 0
BBX 7 12 0 0
BITMAP
0C
0C
1C
1C
3C
3C
6C
6C
FE
FE
0C
0C
ENDCHAR
STARTCHAR five
ENCODING 53
SWIDTH 406 0
DWIDTH 7 0
BBX 6 12 1 0
BITMAP
FC
FC
C0
C0
F8
FC
CC
0C
0C
CC
FC
78
ENDCHAR
STARTCHAR six
ENCODING 54
SWIDTH 406 0
DWIDTH 7 0
BBX 6 12 1 0
BITMAP
78
FC
CC
C0
F8
FC
CC
CC
CC
CC
FC
78
ENDCHAR
STARTCHAR seven
ENCODING 55
SWIDTH 406 0
DWIDTH 7 0
BBX 6 12 1 0
BITMAP
FC
FC
0C
0C
18
18
18
30
30
30
30
30
ENDCHAR
STARTCHAR eight
ENCODING 56
SWIDTH 406 0
DWIDTH 7 0
BBX 6 12 1 0
BITMAP
78
FC
CC
CC
CC
78
78
CC
CC
CC
FC
78
ENDCHAR
STARTCHAR nine
ENCODING 57
SWIDTH 406 0
DWIDTH 7 0
BBX 6 12 1 0
BITMAP
78
FC
CC
CC
CC
CC
FC
7C
0C
CC
FC
78
ENDCHAR
STARTCHAR colon
ENCODING 58
SWIDTH 188 0
DWIDTH 3 0
BBX 2 9 1 1
BITMAP
C0
C0
00
00
00
00
00
C0
C0
ENDCHAR
STARTCHAR semicolon
ENCODING 59
SWIDTH 188 0
DWIDTH 3 0
BBX 3 10 0 0
BITMAP
60
60
00
00
00
00
00
60
60
C0
ENDCHAR
STARTCHAR less
ENCODING 60
SWIDTH 500 0
DWIDTH 9 0
BBX 5 15 3 -2
BITMAP
18
18
30
30
60
60
C0
C0
C0
60
60
30
30
18
18
ENDCHAR
STARTCHAR equal
ENCODING 61
SWIDTH 750 0
DWIDTH 14 0
BBX 8 6 3 3
BITMAP
FF
FF
00
00
FF
FF
ENDCHAR
STARTCHAR greater
ENCODING 62
SWIDTH 500 0
DWIDTH 9 0
BBX 5 15 1 -2
BITMAP
C0
C0
60
60
30
30
18
18
18
30
30
60
60
C0
C0
ENDCHAR
STARTCHAR question
ENCODING 63
SWIDTH 417 0
DWIDTH 8 0
BBX 6 12 1 0
BITMAP
78
CC
CC
0C
18
30
30
30
00
00
30
30
ENDCHAR
STARTCHAR at
ENCODING 64
SWIDTH 990 0
DWIDTH 18 0
BBX 13 12 3 0
BITMAP
0780
1860
3030
67D8
CCD8
CCD8
D998
D998
CF70
6000
3030
0FC0
ENDCHAR
STARTCHAR A
ENCODING 65
SWIDTH 459 0
DWIDTH 8 0
BBX 8 12 0 0
BITMAP
18
18
3C
3C
3C
66
66
7E
7E
C3
C3
C3
ENDCHAR
STARTCHAR B
ENCODING 66
SWIDTH 458 0
DWIDTH 8 0
BBX 7 12 1 0
BITMAP
FC
FE
C6
C6
C6
FC
FC
C6
C6
C6
FE
FC
ENDCHAR
STARTCHAR C
ENCODING 67
SWIDTH 437 0
DWIDTH 8 0
BBX 7 12 1 0
BITMAP
7C
FE
C6
C6
C0
C0
C0
C0
C6
C6
FE
7C
ENDCHAR
STARTCHAR D
ENCODING 68
SWIDTH 469 0
DWIDTH 8 0
BBX 7 12 1 0
BITMAP
FC
FE
C6
C6
C6
C6
C6
C6
C6
C6
FE
FC
ENDCHAR
STARTCHAR E
ENCODING 69
SWIDTH 364 0
DWIDTH 7 0
BBX 6 12 1 0
BITMAP
FC
FC
C0
C0
C0
F8
F8
C0
C0
C0
FC
FC
ENDCHAR
STARTCHAR F
ENCODING 70
SWIDTH 364 0
DWIDTH 7 0
BBX 6 12 1 0
BITMAP
FC
FC
C0
C0
C0
F8
F8
C0
C0
C0
C0
C0
ENDCHAR
STARTCHAR G
ENCODING 71
SWIDTH 469 0
DWIDTH 8 0
BBX 7 12 1 0
BITMAP
7C
FE
C6
C6
C0
DE
DE
C6
C6
C6
FE
7C
ENDCHAR
STARTCHAR H
ENCODING 72
SWIDTH 479 0
DWIDTH 9 0
BBX 7 12 1 0
BITMAP
C6
C6
C6
C6
C6
FE
FE
C6
C6
C6
C6
C6
ENDCHAR
STARTCHAR I
ENCODING 73
SWIDTH 239 0
DWIDTH 4 0
BBX 2 12 1 0
BITMAP
C0
C0
C0
C0
C0
C0
C0
C0
C0
C0
C0
C0
ENDCHAR
STARTCHAR J
ENCODING 74
SWIDTH 417 0
DWIDTH 8 0
BBX 6 12 1 0
BITMAP
0C
0C
0C
0C
0C
0C
0C
0C
CC
CC
FC
78
ENDCHAR
STARTCHAR K
ENCODING 75
SWIDTH 458 0
DWIDTH 8 0
BBX 6 12 1 0
BITMAP
CC
CC
D8
D8
F0
F0
F0
F0
D8
D8
CC
CC
ENDCHAR
STARTCHAR L
ENCODING 76
SWIDTH 375 0
DWIDTH 7 0
BBX 5 12 1 0
BITMAP
C0
C0
C0
C0
C0
C0
C0
C0
C0
C0
F8
F8
ENDCHAR
STARTCHAR M
ENCODING 77
SWIDTH 625 0
DWIDTH 11 0
BBX 10 12 1 0
BITMAP
C0C0
C0C0
E1C0
E1C0
E1C0
F3C0
F3C0
FFC0
DEC0
DEC0
CCC0
CCC0
ENDCHAR
STARTCHAR N
ENCODING 78
SWIDTH 490 0
DWIDTH 9 0
BBX 7 12 1 0
BITMAP
C6
C6
E6
E6
F6
F6
DE
DE
CE
CE
C6
C6
ENDCHAR
STARTCHAR O
ENCODING 79
SWIDTH 479 0
DWIDTH 9 0
BBX 7 12 1 0
BITMAP
7C
FE
C6
C6
C6
C6
C6
C6
C6
C6
FE
7C
ENDCHAR
STARTCHAR P
ENCODING 80
SWIDTH 437 0
DWIDTH 8 0
BBX 7 12 1 0
BITMAP
FC
FE
C6
C6
C6
C6
FE
FC
C0
C0
C0
C0
ENDCHAR
STARTCHAR Q
ENCODING 81
SWIDTH 490 0
DWIDTH 9 0
BBX 8 12 1 0
BITMAP
7C
FE
C6
C6
C6
C6
C6
C6
C6
C6
FF
7F
ENDCHAR
STARTCHAR R
ENCODING 82
SWIDTH 459 0
DWIDTH 8 0
BBX 7 12 1 0
BITMAP
FC
FE
C6
C6
C6
FE
FC
C6
C6
C6
C6
C6
ENDCHAR
STARTCHAR S
ENCODING 83
SWIDTH 406 0
DWIDTH 7 0
BBX 6 12 1 0
BITMAP
78
FC
CC
CC
E0
70
38
1C
CC
CC
FC
78
ENDCHAR
STARTCHAR T
ENCODING 84
SWIDTH 400 0
DWIDTH 7 0
BBX 6 12 1 0
BITMAP
FC
FC
30
30
30
30
30
30
30
30
30
30
ENDCHAR
STARTCHAR U
ENCODING 85
SWIDTH 479 0
DWIDTH 9 0
BBX 7 12 1 0
BITMAP
C6
C6
C6
C6
C6
C6
C6
C6
C6
C6
FE
7C
ENDCHAR
STARTCHAR V
ENCODING 86
SWIDTH 427 0
DWIDTH 8 0
BBX 7 12 1 0
BITMAP
C6
C6
C6
C6
6C
6C
6C
6C
38
38
38
38
ENDCHAR
STARTCHAR W
ENCODING 87
SWIDTH 667 0
DWIDTH 12 0
BBX 12 12 0 0
BITMAP
C630
C630
C630
6F60
6F60
6F60
3FC0
3FC0
3FC0
1980
1980
1980
ENDCHAR
STARTCHAR X
ENCODING 88
SWIDTH 448 0
DWIDTH 8 0
BBX 7 12 1 0
BITMAP
C6
C6
C6
6C
6C
38
38
38
6C
6C
C6
C6
ENDCHAR
STARTCHAR Y
ENCODING 89
SWIDTH 437 0
DWIDTH 8 0
BBX 8 12 0 0
BITMAP
C3
C3
C3
66
66
3C
3C
18
18
18
18
18
ENDCHAR
STARTCHAR Z
ENCODING 90
SWIDTH 375 0
DWIDTH 7 0
BBX 6 12 1 0
BITMAP
FC
FC
0C
18
18
30
30
60
60
C0
FC
FC
ENDCHAR
STARTCHAR bracketleft
ENCODING 91
SWIDTH 292 0
DWIDTH 5 0
BBX 3 15 1 -2
BITMAP
E0
C0
C0
C0
C0
C0
C0
C0
C0
C0
C0
C0
C0
C0
E0
ENDCHAR
STARTCHAR backslash
ENCODING 92
SWIDTH 500 0
DWIDTH 9 0
BBX 8 14 0 -1
BITMAP
C0
C0
60
60
30
30
18
18
0C
0C
06
06
03
03
ENDCHAR
STARTCHAR bracketright
ENCODING 93
SWIDTH 292 0
DWIDTH 5 0
BBX 3 15 1 -2
BITMAP
E0
60
60
60
60
60
60
60
60
60
60
60
60
60
E0
ENDCHAR
STARTCHAR asciicircum
ENCODING 94
SWIDTH 427 0
DWIDTH 8 0
BBX 8 4 0 10
BITMAP
18
3C
7E
E7
ENDCHAR
STARTCHAR underscore
ENCODING 95
SWIDTH 900 0
DWIDTH 16 0
BBX 16 2 0 -4
BITMAP
FFFF
FFFF
ENDCHAR
STARTCHAR grave
ENCODING 96
SWIDTH 188 0
DWIDTH 3 0
BBX 3 3 0 10
BITMAP
60
C0
C0
ENDCHAR
STARTCHAR a
ENCODING 97
SWIDTH 395 0
DWIDTH 7 0
BBX 6 8 1 0
BITMAP
78
FC
CC
7C
FC
CC
FC
7C
ENDCHAR
STARTCHAR b
ENCODING 98
SWIDTH 407 0
DWIDTH 7 0
BBX 6 12 1 0
BITMAP
C0
C0
C0
C0
F8
FC
CC
CC
CC
CC
FC
F8
ENDCHAR
STARTCHAR c
ENCODING 99
SWIDTH 375 0
DWIDTH 7 0
BBX 6 8 1 0
BITMAP
78
FC
CC
C0
C0
CC
FC
78
ENDCHAR
STARTCHAR d
ENCODING 100
SWIDTH 407 0
DWIDTH 7 0
BBX 6 12 1 0
BITMAP
0C
0C
0C
0C
7C
FC
CC
CC
CC
CC
FC
7C
ENDCHAR
STARTCHAR e
ENCODING 101
SWIDTH 385 0
DWIDTH 7 0
BBX 6 8 1 0
BITMAP
78
FC
CC
FC
FC
C0
FC
7C
ENDCHAR
STARTCHAR f
ENCODING 102
SWIDTH 245 0
DWIDTH 4 0
BBX 4 12 0 0
BITMAP
30
70
60
60
F0
F0
60
60
60
60
60
60
ENDCHAR
STARTCHAR g
ENCODING 103
SWIDTH 396 0
DWIDTH 7 0
BBX 6 12 1 -4
BITMAP
7C
FC
CC
CC
CC
CC
FC
7C
0C
CC
FC
78
ENDCHAR
STARTCHAR h
ENCODING 104
SWIDTH 396 0
DWIDTH 7 0
BBX 6 12 1 0
BITMAP
C0
C0
C0
C0
F8
FC
CC
CC
CC
CC
CC
CC
ENDCHAR
STARTCHAR i
ENCODING 105
SWIDTH 218 0
DWIDTH 4 0
BBX 2 12 1 0
BITMAP
C0
C0
C0
00
C0
C0
C0
C0
C0
C0
C0
C0
ENDCHAR
STARTCHAR j
ENCODING 106
SWIDTH 229 0
DWIDTH 4 0
BBX 4 16 0 -4
BITMAP
30
30
30
00
30
30
30
30
30
30
30
30
30
30
F0
E0
ENDCHAR
STARTCHAR k
ENCODING 107
SWIDTH 396 0
DWIDTH 7 0
BBX 6 12 1 0
BITMAP
C0
C0
C0
C0
CC
D8
F0
E0
E0
F0
D8
CC
ENDCHAR
STARTCHAR l
ENCODING 108
SWIDTH 219 0
DWIDTH 4 0
BBX 2 12 1 0
BITMAP
C0
C0
C0
C0
C0
C0
C0
C0
C0
C0
C0
C0
ENDCHAR
STARTCHAR m
ENCODING 109
SWIDTH 594 0
DWIDTH 11 0
BBX 10 8 1 0
BITMAP
F780
FFC0
CCC0
CCC0
CCC0
CCC0
CCC0
CCC0
ENDCHAR
STARTCHAR n
ENCODING 110
SWIDTH 396 0
DWIDTH 7 0
BBX 6 8 1 0
BITMAP
F8
FC
CC
CC
CC
CC
CC
CC
ENDCHAR
STARTCHAR o
ENCODING 111
SWIDTH 395 0
DWIDTH 7 0
BBX 6 8 1 0
BITMAP
78
FC
CC
CC
CC
CC
FC
78
ENDCHAR
STARTCHAR p
ENCODING 112
SWIDTH 407 0
DWIDTH 7 0
BBX 6 12 1 -4
BITMAP
F8
FC
CC
CC
CC
CC
FC
F8
C0
C0
C0
C0
ENDCHAR
STARTCHAR q
ENCODING 113
SWIDTH 407 0
DWIDTH 7 0
BBX 6 12 1 -4
BITMAP
7C
FC
CC
CC
CC
CC
FC
7C
0C
0C
0C
0C
ENDCHAR
STARTCHAR r
ENCODING 114
SWIDTH 292 0
DWIDTH 5 0
BBX 4 8 1 0
BITMAP
F0
F0
C0
C0
C0
C0
C0
C0
ENDCHAR
STARTCHAR s
ENCODING 115
SWIDTH 375 0
DWIDTH 7 0
BBX 5 8 1 0
BITMAP
70
D8
C0
F0
78
18
D8
70
ENDCHAR
STARTCHAR t
ENCODING 116
SWIDTH 281 0
DWIDTH 5 0
BBX 5 12 0 0
BITMAP
60
60
60
60
F8
F8
60
60
60
60
78
38
ENDCHAR
STARTCHAR u
ENCODING 117
SWIDTH 395 0
DWIDTH 7 0
BBX 6 8 1 0
BITMAP
CC
CC
CC
CC
CC
CC
FC
78
ENDCHAR
STARTCHAR v
ENCODING 118
SWIDTH 374 0
DWIDTH 7 0
BBX 6 8 1 0
BITMAP
CC
CC
CC
78
78
78
30
30
ENDCHAR
STARTCHAR w
ENCODING 119
SWIDTH 614 0
DWIDTH 11 0
BBX 10 8 1 0
BITMAP
CCC0
CCC0
CCC0
6D80
6D80
7F80
3300
3300
ENDCHAR
STARTCHAR x
ENCODING 120
SWIDTH 374 0
DWIDTH 7 0
BBX 6 8 1 0
BITMAP
CC
CC
78
30
30
78
CC
CC
ENDCHAR
STARTCHAR y
ENCODING 121
SWIDTH 374 0
DWIDTH 7 0
BBX 6 12 1 -4
BITMAP
CC
CC
CC
CC
6C
6C
78
38
30
30
60
60
ENDCHAR
STARTCHAR z
ENCODING 122
SWIDTH 285 0
DWIDTH 5 0
BBX 5 8 0 0
BITMAP
F8
F8
18
30
60
C0
F8
F8
ENDCHAR
STARTCHAR braceleft
ENCODING 123
SWIDTH 333 0
DWIDTH 6 0
BBX 5 15 1 -2
BITMAP
18
30
30
30
30
30
20
C0
20
30
30
30
30
30
18
ENDCHAR
STARTCHAR bar
ENCODING 124
SWIDTH 271 0
DWIDTH 5 0
BBX 2 18 2 -4
BITMAP
C0
C0
C0
C0
C0
C0
C0
C0
C0
C0
C0
C0
C0
C0
C0
C0
C0
C0
ENDCHAR
STARTCHAR braceright
ENCODING 125
SWIDTH 333 0
DWIDTH 6 0
BBX 5 15 0 -2
BITMAP
C0
60
60
60
60
60
20
18
20
60
60
60
60
60
C0
ENDCHAR
STARTCHAR asciitilde
ENCODING 126
SWIDTH 990 0
DWIDTH 18 0
BBX 15 3 2 5
BITMAP
1F06
7FFC
C0F8
ENDCHAR
STARTCHAR char007f
ENCODING 127
SWIDTH 500 0
DWIDTH 9 0
BBX 0 0 0 -4
BITMAP
ENDCHAR
STARTCHAR Adieresis
ENCODING 128
SWIDTH 500 0
DWIDTH 4 0
BBX 0 0 0 -4
BITMAP
ENDCHAR
STARTCHAR Aring
ENCODING 129
SWIDTH 1000 0
DWIDTH 18 0
BBX 16 12 1 0
BITMAP
318C
318C
318C
FFFF
FFFF
1BD8
1BD8
1BD8
0E70
0E70
0E70
0E70
ENDCHAR
STARTCHAR Ccedilla
ENCODING 130
SWIDTH 542 0
DWIDTH 10 0
BBX 10 2 0 4
BITMAP
FFC0
FFC0
ENDCHAR
STARTCHAR Eacute
ENCODING 131
SWIDTH 1000 0
DWIDTH 18 0
BBX 13 12 3 0
BITMAP
0F80
3060
6730
C998
D998
D818
D818
D998
C998
6730
3060
0F80
ENDCHAR
STARTCHAR Ntilde
ENCODING 132
SWIDTH 1000 0
DWIDTH 18 0
BBX 18 2 0 -4
BITMAP
FFFFC0
FFFFC0
ENDCHAR
STARTCHAR Odieresis
ENCODING 133
SWIDTH 900 0
DWIDTH 18 0
BBX 18 18 0 -4
BITMAP
FFFFC0
FFFFC0
FFFFC0
FFFFC0
FFFFC0
FFFFC0
FFFFC0
FFFFC0
FFFFC0
FFFFC0
FFFFC0
FFFFC0
FFFFC0
FFFFC0
FFFFC0
FFFFC0
FFFFC0
FFFFC0
ENDCHAR
STARTCHAR Udieresis
ENCODING 134
SWIDTH 900 0
DWIDTH 18 0
BBX 18 18 0 -4
BITMAP
FFFFC0
FFFFC0
FFFFC0
FFFFC0
FFFFC0
FFFFC0
FFFFC0
FFFFC0
FFFFC0
FFFFC0
FFFFC0
FFFFC0
FFFFC0
FFFFC0
FFFFC0
FFFFC0
FFFFC0
FFFFC0
ENDCHAR
STARTCHAR aacute
ENCODING 135
SWIDTH 900 0
DWIDTH 18 0
BBX 18 18 0 -4
BITMAP
FFFFC0
FFFFC0
FFFFC0
FFFFC0
FFFFC0
FFFFC0
FFFFC0
FFFFC0
FFFFC0
FFFFC0
FFFFC0
FFFFC0
FFFFC0
FFFFC0
FFFFC0
FFFFC0
FFFFC0
FFFFC0
ENDCHAR
STARTCHAR agrave
ENCODING 136
SWIDTH 900 0
DWIDTH 18 0
BBX 18 18 0 -4
BITMAP
FFFFC0
FFFFC0
FFFFC0
FFFFC0
FFFFC0
FFFFC0
FFFFC0
FFFFC0
FFFFC0
FFFFC0
FFFFC0
FFFFC0
FFFFC0
FFFFC0
FFFFC0
FFFFC0
FFFFC0
FFFFC0
ENDCHAR
STARTCHAR acircumflex
ENCODING 137
SWIDTH 900 0
DWIDTH 18 0
BBX 18 18 0 -4
BITMAP
FFFFC0
FFFFC0
FFFFC0
FFFFC0
FFFFC0
FFFFC0
FFFFC0
FFFFC0
FFFFC0
FFFFC0
FFFFC0
FFFFC0
FFFFC0
FFFFC0
FFFFC0
FFFFC0
FFFFC0
FFFFC0
ENDCHAR
STARTCHAR adieresis
ENCODING 138
SWIDTH 900 0
DWIDTH 18 0
BBX 18 18 0 -4
BITMAP
FFFFC0
FFFFC0
FFFFC0
FFFFC0
FFFFC0
FFFFC0
FFFFC0
FFFFC0
FFFFC0
FFFFC0
FFFFC0
FFFFC0
FFFFC0
FFFFC0
FFFFC0
FFFFC0
FFFFC0
FFFFC0
ENDCHAR
STARTCHAR atilde
ENCODING 139
SWIDTH 900 0
DWIDTH 18 0
BBX 18 18 0 -4
BITMAP
FFFFC0
FFFFC0
FFFFC0
FFFFC0
FFFFC0
FFFFC0
FFFFC0
FFFFC0
FFFFC0
FFFFC0
FFFFC0
FFFFC0
FFFFC0
FFFFC0
FFFFC0
FFFFC0
FFFFC0
FFFFC0
ENDCHAR
STARTCHAR aring
ENCODING 140
SWIDTH 900 0
DWIDTH 18 0
BBX 18 18 0 -4
BITMAP
FFFFC0
FFFFC0
FFFFC0
FFFFC0
FFFFC0
FFFFC0
FFFFC0
FFFFC0
FFFFC0
FFFFC0
FFFFC0
FFFFC0
FFFFC0
FFFFC0
FFFFC0
FFFFC0
FFFFC0
FFFFC0
ENDCHAR
STARTCHAR ccedilla
ENCODING 141
SWIDTH 900 0
DWIDTH 18 0
BBX 18 18 0 -4
BITMAP
FFFFC0
FFFFC0
FFFFC0
FFFFC0
FFFFC0
FFFFC0
FFFFC0
FFFFC0
FFFFC0
FFFFC0
FFFFC0
FFFFC0
FFFFC0
FFFFC0
FFFFC0
FFFFC0
FFFFC0
FFFFC0
ENDCHAR
STARTCHAR eacute
ENCODING 142
SWIDTH 900 0
DWIDTH 18 0
BBX 18 18 0 -4
BITMAP
FFFFC0
FFFFC0
FFFFC0
FFFFC0
FFFFC0
FFFFC0
FFFFC0
FFFFC0
FFFFC0
FFFFC0
FFFFC0
FFFFC0
FFFFC0
FFFFC0
FFFFC0
FFFFC0
FFFFC0
FFFFC0
ENDCHAR
STARTCHAR egrave
ENCODING 143
SWIDTH 900 0
DWIDTH 18 0
BBX 18 18 0 -4
BITMAP
FFFFC0
FFFFC0
FFFFC0
FFFFC0
FFFFC0
FFFFC0
FFFFC0
FFFFC0
FFFFC0
FFFFC0
FFFFC0
FFFFC0
FFFFC0
FFFFC0
FFFFC0
FFFFC0
FFFFC0
FFFFC0
ENDCHAR
STARTCHAR ecircumflex
ENCODING 144
SWIDTH 900 0
DWIDTH 18 0
BBX 18 18 0 -4
BITMAP
FFFFC0
FFFFC0
FFFFC0
FFFFC0
FFFFC0
FFFFC0
FFFFC0
FFFFC0
FFFFC0
FFFFC0
FFFFC0
FFFFC0
FFFFC0
FFFFC0
FFFFC0
FFFFC0
FFFFC0
FFFFC0
ENDCHAR
STARTCHAR edieresis
ENCODING 145
SWIDTH 900 0
DWIDTH 18 0
BBX 18 18 0 -4
BITMAP
FFFFC0
FFFFC0
FFFFC0
FFFFC0
FFFFC0
FFFFC0
FFFFC0
FFFFC0
FFFFC0
FFFFC0
FFFFC0
FFFFC0
FFFFC0
FFFFC0
FFFFC0
FFFFC0
FFFFC0
FFFFC0
ENDCHAR
STARTCHAR iacute
ENCODING 146
SWIDTH 900 0
DWIDTH 18 0
BBX 18 18 0 -4
BITMAP
FFFFC0
FFFFC0
FFFFC0
FFFFC0
FFFFC0
FFFFC0
FFFFC0
FFFFC0
FFFFC0
FFFFC0
FFFFC0
FFFFC0
FFFFC0
FFFFC0
FFFFC0
FFFFC0
FFFFC0
FFFFC0
ENDCHAR
STARTCHAR igrave
ENCODING 147
SWIDTH 900 0
DWIDTH 18 0
BBX 18 18 0 -4
BITMAP
FFFFC0
FFFFC0
FFFFC0
FFFFC0
FFFFC0
FFFFC0
FFFFC0
FFFFC0
FFFFC0
FFFFC0
FFFFC0
FFFFC0
FFFFC0
FFFFC0
FFFFC0
FFFFC0
FFFFC0
FFFFC0
ENDCHAR
STARTCHAR icircumflex
ENCODING 148
SWIDTH 900 0
DWIDTH 18 0
BBX 18 18 0 -4
BITMAP
FFFFC0
FFFFC0
FFFFC0
FFFFC0
FFFFC0
FFFFC0
FFFFC0
FFFFC0
FFFFC0
FFFFC0
FFFFC0
FFFFC0
FFFFC0
FFFFC0
FFFFC0
FFFFC0
FFFFC0
FFFFC0
ENDCHAR
STARTCHAR idieresis
ENCODING 149
SWIDTH 900 0
DWIDTH 18 0
BBX 18 18 0 -4
BITMAP
FFFFC0
FFFFC0
FFFFC0
FFFFC0
FFFFC0
FFFFC0
FFFFC0
FFFFC0
FFFFC0
FFFFC0
FFFFC0
FFFFC0
FFFFC0
FFFFC0
FFFFC0
FFFFC0
FFFFC0
FFFFC0
ENDCHAR
STARTCHAR ntilde
ENCODING 150
SWIDTH 900 0
DWIDTH 18 0
BBX 18 18 0 -4
BITMAP
FFFFC0
FFFFC0
FFFFC0
FFFFC0
FFFFC0
FFFFC0
FFFFC0
FFFFC0
FFFFC0
FFFFC0
FFFFC0
FFFFC0
FFFFC0
FFFFC0
FFFFC0
FFFFC0
FFFFC0
FFFFC0
ENDCHAR
STARTCHAR oacute
ENCODING 151
SWIDTH 900 0
DWIDTH 18 0
BBX 18 18 0 -4
BITMAP
FFFFC0
FFFFC0
FFFFC0
FFFFC0
FFFFC0
FFFFC0
FFFFC0
FFFFC0
FFFFC0
FFFFC0
FFFFC0
FFFFC0
FFFFC0
FFFFC0
FFFFC0
FFFFC0
FFFFC0
FFFFC0
ENDCHAR
STARTCHAR ograve
ENCODING 152
SWIDTH 900 0
DWIDTH 18 0
BBX 18 18 0 -4
BITMAP
FFFFC0
FFFFC0
FFFFC0
FFFFC0
FFFFC0
FFFFC0
FFFFC0
FFFFC0
FFFFC0
FFFFC0
FFFFC0
FFFFC0
FFFFC0
FFFFC0
FFFFC0
FFFFC0
FFFFC0
FFFFC0
ENDCHAR
STARTCHAR ocircumflex
ENCODING 153
SWIDTH 900 0
DWIDTH 18 0
BBX 18 18 0 -4
BITMAP
FFFFC0
FFFFC0
FFFFC0
FFFFC0
FFFFC0
FFFFC0
FFFFC0
FFFFC0
FFFFC0
FFFFC0
FFFFC0
FFFFC0
FFFFC0
FFFFC0
FFFFC0
FFFFC0
FFFFC0
FFFFC0
ENDCHAR
STARTCHAR odieresis
ENCODING 154
SWIDTH 900 0
DWIDTH 18 0
BBX 18 18 0 -4
BITMAP
FFFFC0
FFFFC0
FFFFC0
FFFFC0
FFFFC0
FFFFC0
FFFFC0
FFFFC0
FFFFC0
FFFFC0
FFFFC0
FFFFC0
FFFFC0
FFFFC0
FFFFC0
FFFFC0
FFFFC0
FFFFC0
ENDCHAR
STARTCHAR otilde
ENCODING 155
SWIDTH 900 0
DWIDTH 18 0
BBX 18 18 0 -4
BITMAP
FFFFC0
FFFFC0
FFFFC0
FFFFC0
FFFFC0
FFFFC0
FFFFC0
FFFFC0
FFFFC0
FFFFC0
FFFFC0
FFFFC0
FFFFC0
FFFFC0
FFFFC0
FFFFC0
FFFFC0
FFFFC0
ENDCHAR
STARTCHAR uacute
ENCODING 156
SWIDTH 900 0
DWIDTH 18 0
BBX 18 18 0 -4
BITMAP
FFFFC0
FFFFC0
FFFFC0
FFFFC0
FFFFC0
FFFFC0
FFFFC0
FFFFC0
FFFFC0
FFFFC0
FFFFC0
FFFFC0
FFFFC0
FFFFC0
FFFFC0
FFFFC0
FFFFC0
FFFFC0
ENDCHAR
STARTCHAR ugrave
ENCODING 157
SWIDTH 900 0
DWIDTH 18 0
BBX 18 18 0 -4
BITMAP
FFFFC0
FFFFC0
FFFFC0
FFFFC0
FFFFC0
FFFFC0
FFFFC0
FFFFC0
FFFFC0
FFFFC0
FFFFC0
FFFFC0
FFFFC0
FFFFC0
FFFFC0
FFFFC0
FFFFC0
FFFFC0
ENDCHAR
STARTCHAR ucircumflex
ENCODING 158
SWIDTH 900 0
DWIDTH 18 0
BBX 18 18 0 -4
BITMAP
FFFFC0
FFFFC0
FFFFC0
FFFFC0
FFFFC0
FFFFC0
FFFFC0
FFFFC0
FFFFC0
FFFFC0
FFFFC0
FFFFC0
FFFFC0
FFFFC0
FFFFC0
FFFFC0
FFFFC0
FFFFC0
ENDCHAR
STARTCHAR udieresis
ENCODING 159
SWIDTH 900 0
DWIDTH 18 0
BBX 18 18 0 -4
BITMAP
FFFFC0
FFFFC0
FFFFC0
FFFFC0
FFFFC0
FFFFC0
FFFFC0
FFFFC0
FFFFC0
FFFFC0
FFFFC0
FFFFC0
FFFFC0
FFFFC0
FFFFC0
FFFFC0
FFFFC0
FFFFC0
ENDCHAR
STARTCHAR dagger
ENCODING 160
SWIDTH 900 0
DWIDTH 18 0
BBX 18 18 0 -4
BITMAP
FFFFC0
FFFFC0
FFFFC0
FFFFC0
FFFFC0
FFFFC0
FFFFC0
FFFFC0
FFFFC0
FFFFC0
FFFFC0
FFFFC0
FFFFC0
FFFFC0
FFFFC0
FFFFC0
FFFFC0
FFFFC0
ENDCHAR
STARTCHAR degree
ENCODING 161
SWIDTH 450 0
DWIDTH 9 0
BBX 0 0 0 -4
BITMAP
ENDCHAR
STARTCHAR cent
ENCODING 162
SWIDTH 450 0
DWIDTH 9 0
BBX 0 0 0 -4
BITMAP
ENDCHAR
STARTCHAR sterling
ENCODING 163
SWIDTH 450 0
DWIDTH 9 0
BBX 0 0 0 -4
BITMAP
ENDCHAR
STARTCHAR section
ENCODING 164
SWIDTH 450 0
DWIDTH 9 0
BBX 0 0 0 -4
BITMAP
ENDCHAR
STARTCHAR bullet
ENCODING 165
SWIDTH 450 0
DWIDTH 9 0
BBX 0 0 0 -4
BITMAP
ENDCHAR
STARTCHAR paragraph
ENCODING 166
SWIDTH 450 0
DWIDTH 9 0
BBX 0 0 0 -4
BITMAP
ENDCHAR
STARTCHAR germandbls
ENCODING 167
SWIDTH 450 0
DWIDTH 9 0
BBX 0 0 0 -4
BITMAP
ENDCHAR
STARTCHAR registered
ENCODING 168
SWIDTH 450 0
DWIDTH 9 0
BBX 0 0 0 -4
BITMAP
ENDCHAR
STARTCHAR copyright
ENCODING 169
SWIDTH 450 0
DWIDTH 9 0
BBX 0 0 0 -4
BITMAP
ENDCHAR
STARTCHAR trademark
ENCODING 170
SWIDTH 450 0
DWIDTH 9 0
BBX 0 0 0 -4
BITMAP
ENDCHAR
STARTCHAR acute
ENCODING 171
SWIDTH 450 0
DWIDTH 9 0
BBX 0 0 0 -4
BITMAP
ENDCHAR
STARTCHAR dieresis
ENCODING 172
SWIDTH 450 0
DWIDTH 9 0
BBX 0 0 0 -4
BITMAP
ENDCHAR
STARTCHAR notequal
ENCODING 173
SWIDTH 450 0
DWIDTH 9 0
BBX 0 0 0 -4
BITMAP
ENDCHAR
STARTCHAR AE
ENCODING 174
SWIDTH 450 0
DWIDTH 9 0
BBX 0 0 0 -4
BITMAP
ENDCHAR
STARTCHAR Oslash
ENCODING 175
SWIDTH 450 0
DWIDTH 9 0
BBX 0 0 0 -4
BITMAP
ENDCHAR
STARTCHAR infinity
ENCODING 176
SWIDTH 450 0
DWIDTH 9 0
BBX 0 0 0 -4
BITMAP
ENDCHAR
STARTCHAR plusminus
ENCODING 177
SWIDTH 450 0
DWIDTH 9 0
BBX 0 0 0 -4
BITMAP
ENDCHAR
STARTCHAR lessequal
ENCODING 178
SWIDTH 450 0
DWIDTH 9 0
BBX 0 0 0 -4
BITMAP
ENDCHAR
STARTCHAR greaterequal
ENCODING 179
SWIDTH 450 0
DWIDTH 9 0
BBX 0 0 0 -4
BITMAP
ENDCHAR
STARTCHAR yen
ENCODING 180
SWIDTH 450 0
DWIDTH 9 0
BBX 0 0 0 -4
BITMAP
ENDCHAR
STARTCHAR mu
ENCODING 181
SWIDTH 450 0
DWIDTH 9 0
BBX 0 0 0 -4
BITMAP
ENDCHAR
STARTCHAR partialdiff
ENCODING 182
SWIDTH 450 0
DWIDTH 9 0
BBX 0 0 0 -4
BITMAP
ENDCHAR
STARTCHAR summation
ENCODING 183
SWIDTH 450 0
DWIDTH 9 0
BBX 0 0 0 -4
BITMAP
ENDCHAR
STARTCHAR product
ENCODING 184
SWIDTH 450 0
DWIDTH 9 0
BBX 0 0 0 -4
BITMAP
ENDCHAR
STARTCHAR pi
ENCODING 185
SWIDTH 450 0
DWIDTH 9 0
BBX 0 0 0 -4
BITMAP
ENDCHAR
STARTCHAR integral
ENCODING 186
SWIDTH 450 0
DWIDTH 9 0
BBX 0 0 0 -4
BITMAP
ENDCHAR
STARTCHAR ordfeminine
ENCODING 187
SWIDTH 450 0
DWIDTH 9 0
BBX 0 0 0 -4
BITMAP
ENDCHAR
STARTCHAR ordmasculine
ENCODING 188
SWIDTH 450 0
DWIDTH 9 0
BBX 0 0 0 -4
BITMAP
ENDCHAR
STARTCHAR Omega
ENCODING 189
SWIDTH 450 0
DWIDTH 9 0
BBX 0 0 0 -4
BITMAP
ENDCHAR
STARTCHAR ae
ENCODING 190
SWIDTH 450 0
DWIDTH 9 0
BBX 0 0 0 -4
BITMAP
ENDCHAR
STARTCHAR oslash
ENCODING 191
SWIDTH 450 0
DWIDTH 9 0
BBX 0 0 0 -4
BITMAP
ENDCHAR
STARTCHAR questiondown
ENCODING 192
SWIDTH 450 0
DWIDTH 9 0
BBX 0 0 0 -4
BITMAP
ENDCHAR
STARTCHAR exclamdown
ENCODING 193
SWIDTH 450 0
DWIDTH 9 0
BBX 0 0 0 -4
BITMAP
ENDCHAR
STARTCHAR logicalnot
ENCODING 194
SWIDTH 450 0
DWIDTH 9 0
BBX 0 0 0 -4
BITMAP
ENDCHAR
STARTCHAR radical
ENCODING 195
SWIDTH 450 0
DWIDTH 9 0
BBX 0 0 0 -4
BITMAP
ENDCHAR
STARTCHAR florin
ENCODING 196
SWIDTH 450 0
DWIDTH 9 0
BBX 0 0 0 -4
BITMAP
ENDCHAR
STARTCHAR approxequal
ENCODING 197
SWIDTH 450 0
DWIDTH 9 0
BBX 0 0 0 -4
BITMAP
ENDCHAR
STARTCHAR Delta
ENCODING 198
SWIDTH 450 0
DWIDTH 9 0
BBX 0 0 0 -4
BITMAP
ENDCHAR
STARTCHAR guillemotleft
ENCODING 199
SWIDTH 450 0
DWIDTH 9 0
BBX 0 0 0 -4
BITMAP
ENDCHAR
STARTCHAR guillemotright
ENCODING 200
SWIDTH 450 0
DWIDTH 9 0
BBX 0 0 0 -4
BITMAP
ENDCHAR
STARTCHAR ellipsis
ENCODING 201
SWIDTH 450 0
DWIDTH 9 0
BBX 0 0 0 -4
BITMAP
ENDCHAR
STARTCHAR nbspace
ENCODING 202
SWIDTH 450 0
DWIDTH 9 0
BBX 0 0 0 -4
BITMAP
ENDCHAR
STARTCHAR Agrave
ENCODING 203
SWIDTH 450 0
DWIDTH 9 0
BBX 0 0 0 -4
BITMAP
ENDCHAR
STARTCHAR Atilde
ENCODING 204
SWIDTH 450 0
DWIDTH 9 0
BBX 0 0 0 -4
BITMAP
ENDCHAR
STARTCHAR Otilde
ENCODING 205
SWIDTH 450 0
DWIDTH 9 0
BBX 0 0 0 -4
BITMAP
ENDCHAR
STARTCHAR OE
ENCODING 206
SWIDTH 450 0
DWIDTH 9 0
BBX 0 0 0 -4
BITMAP
ENDCHAR
STARTCHAR oe
ENCODING 207
SWIDTH 450 0
DWIDTH 9 0
BBX 0 0 0 -4
BITMAP
ENDCHAR
STARTCHAR endash
ENCODING 208
SWIDTH 450 0
DWIDTH 9 0
BBX 0 0 0 -4
BITMAP
ENDCHAR
STARTCHAR emdash
ENCODING 209
SWIDTH 450 0
DWIDTH 9 0
BBX 0 0 0 -4
BITMAP
ENDCHAR
STARTCHAR quotedblleft
ENCODING 210
SWIDTH 450 0
DWIDTH 9 0
BBX 0 0 0 -4
BITMAP
ENDCHAR
STARTCHAR quotedblright
ENCODING 211
SWIDTH 450 0
DWIDTH 9 0
BBX 0 0 0 -4
BITMAP
ENDCHAR
STARTCHAR quoteleft
ENCODING 212
SWIDTH 450 0
DWIDTH 9 0
BBX 0 0 0 -4
BITMAP
ENDCHAR
STARTCHAR quoteright
ENCODING 213
SWIDTH 450 0
DWIDTH 9 0
BBX 0 0 0 -4
BITMAP
ENDCHAR
STARTCHAR divide
ENCODING 214
SWIDTH 450 0
DWIDTH 9 0
BBX 0 0 0 -4
BITMAP
ENDCHAR
STARTCHAR lozenge
ENCODING 215
SWIDTH 450 0
DWIDTH 9 0
BBX 0 0 0 -4
BITMAP
ENDCHAR
STARTCHAR ydieresis
ENCODING 216
SWIDTH 450 0
DWIDTH 9 0
BBX 0 0 0 -4
BITMAP
ENDCHAR
STARTCHAR Ydieresis
ENCODING 217
SWIDTH 450 0
DWIDTH 9 0
BBX 0 0 0 -4
BITMAP
ENDCHAR
STARTCHAR fraction
ENCODING 218
SWIDTH 450 0
DWIDTH 9 0
BBX 0 0 0 -4
BITMAP
ENDCHAR
STARTCHAR currency
ENCODING 219
SWIDTH 450 0
DWIDTH 9 0
BBX 0 0 0 -4
BITMAP
ENDCHAR
STARTCHAR guilsinglleft
ENCODING 220
SWIDTH 450 0
DWIDTH 9 0
BBX 0 0 0 -4
BITMAP
ENDCHAR
STARTCHAR guilsinglright
ENCODING 221
SWIDTH 450 0
DWIDTH 9 0
BBX 0 0 0 -4
BITMAP
ENDCHAR
STARTCHAR fi
ENCODING 222
SWIDTH 450 0
DWIDTH 9 0
BBX 0 0 0 -4
BITMAP
ENDCHAR
STARTCHAR fl
ENCODING 223
SWIDTH 450 0
DWIDTH 9 0
BBX 0 0 0 -4
BITMAP
ENDCHAR
STARTCHAR daggerdbl
ENCODING 224
SWIDTH 450 0
DWIDTH 9 0
BBX 0 0 0 -4
BITMAP
ENDCHAR
STARTCHAR periodcentered
ENCODING 225
SWIDTH 450 0
DWIDTH 9 0
BBX 0 0 0 -4
BITMAP
ENDCHAR
STARTCHAR quotesinglbase
ENCODING 226
SWIDTH 450 0
DWIDTH 9 0
BBX 0 0 0 -4
BITMAP
ENDCHAR
STARTCHAR quotedblbase
ENCODING 227
SWIDTH 450 0
DWIDTH 9 0
BBX 0 0 0 -4
BITMAP
ENDCHAR
STARTCHAR perthousand
ENCODING 228
SWIDTH 450 0
DWIDTH 9 0
BBX 0 0 0 -4
BITMAP
ENDCHAR
STARTCHAR Acircumflex
ENCODING 229
SWIDTH 450 0
DWIDTH 9 0
BBX 0 0 0 -4
BITMAP
ENDCHAR
STARTCHAR Ecircumflex
ENCODING 230
SWIDTH 450 0
DWIDTH 9 0
BBX 0 0 0 -4
BITMAP
ENDCHAR
STARTCHAR Aacute
ENCODING 231
SWIDTH 450 0
DWIDTH 9 0
BBX 0 0 0 -4
BITMAP
ENDCHAR
STARTCHAR Edieresis
ENCODING 232
SWIDTH 450 0
DWIDTH 9 0
BBX 0 0 0 -4
BITMAP
ENDCHAR
STARTCHAR Egrave
ENCODING 233
SWIDTH 450 0
DWIDTH 9 0
BBX 0 0 0 -4
BITMAP
ENDCHAR
STARTCHAR Iacute
ENCODING 234
SWIDTH 450 0
DWIDTH 9 0
BBX 0 0 0 -4
BITMAP
ENDCHAR
STARTCHAR Icircumflex
ENCODING 235
SWIDTH 450 0
DWIDTH 9 0
BBX 0 0 0 -4
BITMAP
ENDCHAR
STARTCHAR Idieresis
ENCODING 236
SWIDTH 450 0
DWIDTH 9 0
BBX 0 0 0 -4
BITMAP
ENDCHAR
STARTCHAR Igrave
ENCODING 237
SWIDTH 450 0
DWIDTH 9 0
BBX 0 0 0 -4
BITMAP
ENDCHAR
STARTCHAR Oacute
ENCODING 238
SWIDTH 450 0
DWIDTH 9 0
BBX 0 0 0 -4
BITMAP
ENDCHAR
STARTCHAR Ocircumflex
ENCODING 239
SWIDTH 450 0
DWIDTH 9 0
BBX 0 0 0 -4
BITMAP
ENDCHAR
STARTCHAR apple
ENCODING 240
SWIDTH 450 0
DWIDTH 9 0
BBX 0 0 0 -4
BITMAP
ENDCHAR
STARTCHAR Ograve
ENCODING 241
SWIDTH 450 0
DWIDTH 9 0
BBX 0 0 0 -4
BITMAP
ENDCHAR
STARTCHAR Uacute
ENCODING 242
SWIDTH 450 0
DWIDTH 9 0
BBX 0 0 0 -4
BITMAP
ENDCHAR
STARTCHAR Ucircumflex
ENCODING 243
SWIDTH 450 0
DWIDTH 9 0
BBX 0 0 0 -4
BITMAP
ENDCHAR
STARTCHAR Ugrave
ENCODING 244
SWIDTH 450 0
DWIDTH 9 0
BBX 0 0 0 -4
BITMAP
ENDCHAR
STARTCHAR dotlessi
ENCODING 245
SWIDTH 450 0
DWIDTH 9 0
BBX 0 0 0 -4
BITMAP
ENDCHAR
STARTCHAR circumflex
ENCODING 246
SWIDTH 450 0
DWIDTH 9 0
BBX 0 0 0 -4
BITMAP
ENDCHAR
STARTCHAR tilde
ENCODING 247
SWIDTH 450 0
DWIDTH 9 0
BBX 0 0 0 -4
BITMAP
ENDCHAR
STARTCHAR macron
ENCODING 248
SWIDTH 450 0
DWIDTH 9 0
BBX 0 0 0 -4
BITMAP
ENDCHAR
STARTCHAR breve
ENCODING 249
SWIDTH 450 0
DWIDTH 9 0
BBX 0 0 0 -4
BITMAP
ENDCHAR
STARTCHAR dotaccent
ENCODING 250
SWIDTH 450 0
DWIDTH 9 0
BBX 0 0 0 -4
BITMAP
ENDCHAR
STARTCHAR ring
ENCODING 251
SWIDTH 450 0
DWIDTH 9 0
BBX 0 0 0 -4
BITMAP
ENDCHAR
STARTCHAR cedilla
ENCODING 252
SWIDTH 450 0
DWIDTH 9 0
BBX 0 0 0 -4
BITMAP
ENDCHAR
STARTCHAR hungarumlaut
ENCODING 253
SWIDTH 450 0
DWIDTH 9 0
BBX 0 0 0 -4
BITMAP
ENDCHAR
STARTCHAR ogonek
ENCODING 254
SWIDTH 450 0
DWIDTH 9 0
BBX 0 0 0 -4
BITMAP
ENDCHAR
STARTCHAR caron
ENCODING 255
SWIDTH 900 0
DWIDTH 18 0
BBX 12 2 3 4
BITMAP
C630
C630
ENDCHAR
ENDFONT
