STARTFONT 2.1
FONT -Fondu-#헤드라인A-Medium-R-Normal--20-190-75-75-P-108-MacRoman-1
SIZE 19 75 75
FONTBOUNDINGBOX 20 20 0 -4
COMMENT Created by Fondu from a mac NFNT/FONT resource
STARTPROPERTIES 17
FOUNDRY "Fondu"
FAMILY_NAME "#헤드라인A"
WEIGHT_NAME "Medium"
SLANT "R"
SETWIDTH_NAME "Normal"
ADD_STYLE_NAME ""
PIXEL_SIZE 20
POINT_SIZE 190
RESOLUTION_X 75
RESOLUTION_Y 75
SPACING "P"
AVERAGE_WIDTH 108
CHARSET_REGISTRY "MacRoman"
CHARSET_ENCODING "1"
FONT_ASCENT 16
FONT_DESCENT 4
FACE_NAME "#헤드라인A"
ENDPROPERTIES
CHARS 229
STARTCHAR char0011
ENCODING 17
SWIDTH 992 0
DWIDTH 20 0
BBX 15 13 2 0
BITMAP
7C7C
EEEE
EEEE
EEEE
EEEE
7FFC
0EE0
7FFC
EEEE
EEEE
EEEE
EEEE
7C7C
ENDCHAR
STARTCHAR char0012
ENCODING 18
SWIDTH 594 0
DWIDTH 12 0
BBX 12 13 0 0
BITMAP
0070
0070
00E0
00E0
01C0
01C0
0380
0380
E700
7700
3E00
1E00
0C00
ENDCHAR
STARTCHAR char0013
ENCODING 19
SWIDTH 815 0
DWIDTH 16 0
BBX 11 11 3 2
BITMAP
0400
0E00
1F00
3F80
7FC0
FFE0
7FC0
3F80
1F00
0E00
0400
ENDCHAR
STARTCHAR char0014
ENCODING 20
SWIDTH 855 0
DWIDTH 17 0
BBX 13 16 2 0
BITMAP
00C0
01C0
0180
1B60
3FF0
7FF8
7FF8
FFF0
FFF0
FFF0
FFF0
FFF0
7FF8
7FF8
3FF0
1CE0
ENDCHAR
STARTCHAR onehalf
ENCODING 21
SWIDTH 500 0
DWIDTH 10 0
BBX 8 15 1 0
BITMAP
3F
7D
FD
FD
FD
FD
7D
3D
0D
0D
0D
0D
0D
0D
0D
ENDCHAR
STARTCHAR space
ENCODING 32
SWIDTH 500 0
DWIDTH 10 0
BBX 0 0 0 -4
BITMAP
ENDCHAR
STARTCHAR exclam
ENCODING 33
SWIDTH 229 0
DWIDTH 5 0
BBX 3 14 1 0
BITMAP
E0
E0
E0
E0
E0
E0
E0
E0
E0
E0
00
E0
E0
E0
ENDCHAR
STARTCHAR quotedbl
ENCODING 34
SWIDTH 417 0
DWIDTH 8 0
BBX 8 4 0 11
BITMAP
77
77
77
EE
ENDCHAR
STARTCHAR numbersign
ENCODING 35
SWIDTH 625 0
DWIDTH 13 0
BBX 11 13 1 0
BITMAP
1DC0
1DC0
1DC0
7FE0
7FE0
3B80
3B80
3B80
FFC0
FFC0
7700
7700
7700
ENDCHAR
STARTCHAR dollar
ENCODING 36
SWIDTH 375 0
DWIDTH 8 0
BBX 8 16 0 -1
BITMAP
18
18
7E
FF
DB
DB
F8
7E
1F
1B
DB
DB
FF
7E
18
18
ENDCHAR
STARTCHAR percent
ENCODING 37
SWIDTH 688 0
DWIDTH 14 0
BBX 13 13 1 0
BITMAP
7810
FC38
CC70
CCE0
FDC0
7B80
0700
0EF0
1DF8
3998
7198
E1F8
40F0
ENDCHAR
STARTCHAR ampersand
ENCODING 38
SWIDTH 594 0
DWIDTH 12 0
BBX 12 14 0 0
BITMAP
1E00
3F00
7300
6300
6700
3E00
3C60
7E60
C760
C3E0
C1C0
E1E0
7FF0
3F30
ENDCHAR
STARTCHAR quotesingle
ENCODING 39
SWIDTH 188 0
DWIDTH 4 0
BBX 4 4 0 11
BITMAP
70
70
70
E0
ENDCHAR
STARTCHAR parenleft
ENCODING 40
SWIDTH 260 0
DWIDTH 5 0
BBX 5 18 0 -2
BITMAP
38
38
70
70
70
E0
E0
E0
E0
E0
E0
E0
E0
70
70
70
38
38
ENDCHAR
STARTCHAR parenright
ENCODING 41
SWIDTH 260 0
DWIDTH 5 0
BBX 5 18 0 -2
BITMAP
E0
E0
70
70
70
38
38
38
38
38
38
38
38
70
70
70
E0
E0
ENDCHAR
STARTCHAR asterisk
ENCODING 42
SWIDTH 323 0
DWIDTH 6 0
BBX 5 5 1 10
BITMAP
D8
70
F8
70
D8
ENDCHAR
STARTCHAR plus
ENCODING 43
SWIDTH 990 0
DWIDTH 20 0
BBX 13 12 3 0
BITMAP
0700
0700
0700
0700
0700
FFF8
FFF8
0700
0700
0700
0700
0700
ENDCHAR
STARTCHAR comma
ENCODING 44
SWIDTH 188 0
DWIDTH 4 0
BBX 4 4 0 -1
BITMAP
70
70
70
E0
ENDCHAR
STARTCHAR hyphen
ENCODING 45
SWIDTH 302 0
DWIDTH 6 0
BBX 6 2 0 5
BITMAP
FC
FC
ENDCHAR
STARTCHAR period
ENCODING 46
SWIDTH 188 0
DWIDTH 4 0
BBX 3 3 1 -1
BITMAP
E0
E0
E0
ENDCHAR
STARTCHAR slash
ENCODING 47
SWIDTH 500 0
DWIDTH 10 0
BBX 6 16 2 -1
BITMAP
1C
1C
1C
1C
38
38
38
38
70
70
70
70
E0
E0
E0
E0
ENDCHAR
STARTCHAR zero
ENCODING 48
SWIDTH 406 0
DWIDTH 8 0
BBX 7 14 1 0
BITMAP
7C
FE
EE
EE
EE
EE
EE
EE
EE
EE
EE
EE
FE
7C
ENDCHAR
STARTCHAR one
ENCODING 49
SWIDTH 406 0
DWIDTH 8 0
BBX 4 14 2 0
BITMAP
70
F0
F0
70
70
70
70
70
70
70
70
70
70
70
ENDCHAR
STARTCHAR two
ENCODING 50
SWIDTH 406 0
DWIDTH 8 0
BBX 7 14 1 0
BITMAP
7C
FE
EE
EE
0E
0E
1C
1C
38
70
70
E0
FE
FE
ENDCHAR
STARTCHAR three
ENCODING 51
SWIDTH 406 0
DWIDTH 8 0
BBX 7 14 1 0
BITMAP
7C
FE
EE
EE
0E
0E
3C
3C
0E
0E
EE
EE
FE
7C
ENDCHAR
STARTCHAR four
ENCODING 52
SWIDTH 406 0
DWIDTH 8 0
BBX 8 14 0 0
BITMAP
06
06
0E
0E
1E
1E
3E
3E
6E
6E
FF
FF
0E
0E
ENDCHAR
STARTCHAR five
ENCODING 53
SWIDTH 406 0
DWIDTH 8 0
BBX 7 14 1 0
BITMAP
FE
FE
E0
E0
E0
FC
FE
EE
0E
0E
EE
EE
FE
7C
ENDCHAR
STARTCHAR six
ENCODING 54
SWIDTH 406 0
DWIDTH 8 0
BBX 7 14 1 0
BITMAP
7C
FE
EE
EE
E0
FC
FE
EE
EE
EE
EE
EE
FE
7C
ENDCHAR
STARTCHAR seven
ENCODING 55
SWIDTH 406 0
DWIDTH 8 0
BBX 7 14 1 0
BITMAP
FE
FE
0E
0E
0E
1C
1C
1C
38
38
38
38
38
38
ENDCHAR
STARTCHAR eight
ENCODING 56
SWIDTH 406 0
DWIDTH 8 0
BBX 7 14 1 0
BITMAP
7C
FE
EE
EE
EE
EE
7C
EE
EE
EE
EE
EE
FE
7C
ENDCHAR
STARTCHAR nine
ENCODING 57
SWIDTH 406 0
DWIDTH 8 0
BBX 7 14 1 0
BITMAP
7C
FE
EE
EE
EE
EE
EE
FE
7E
0E
EE
EE
FE
7C
ENDCHAR
STARTCHAR colon
ENCODING 58
SWIDTH 188 0
DWIDTH 4 0
BBX 3 11 1 1
BITMAP
E0
E0
E0
00
00
00
00
00
E0
E0
E0
ENDCHAR
STARTCHAR semicolon
ENCODING 59
SWIDTH 188 0
DWIDTH 4 0
BBX 4 12 0 0
BITMAP
70
70
70
00
00
00
00
00
70
70
70
E0
ENDCHAR
STARTCHAR less
ENCODING 60
SWIDTH 500 0
DWIDTH 10 0
BBX 7 18 3 -2
BITMAP
0E
0E
1C
1C
38
38
70
70
E0
E0
70
70
38
38
1C
1C
0E
0E
ENDCHAR
STARTCHAR equal
ENCODING 61
SWIDTH 750 0
DWIDTH 15 0
BBX 11 7 2 3
BITMAP
FFE0
FFE0
0000
0000
0000
FFE0
FFE0
ENDCHAR
STARTCHAR greater
ENCODING 62
SWIDTH 500 0
DWIDTH 10 0
BBX 7 18 0 -2
BITMAP
E0
E0
70
70
38
38
1C
1C
0E
0E
1C
1C
38
38
70
70
E0
E0
ENDCHAR
STARTCHAR question
ENCODING 63
SWIDTH 417 0
DWIDTH 8 0
BBX 7 14 1 0
BITMAP
7C
FE
EE
EE
0E
1C
38
38
38
38
00
38
38
38
ENDCHAR
STARTCHAR at
ENCODING 64
SWIDTH 990 0
DWIDTH 20 0
BBX 17 14 2 0
BITMAP
07F800
1E0E00
380700
70FB80
719B80
E31B80
E63380
E63380
E66380
E66700
73DC00
380000
1E1C00
07F000
ENDCHAR
STARTCHAR A
ENCODING 65
SWIDTH 459 0
DWIDTH 9 0
BBX 9 14 0 0
BITMAP
1C00
1C00
1C00
3E00
3E00
3E00
7700
7700
7700
7F00
FF80
E380
E380
E380
ENDCHAR
STARTCHAR B
ENCODING 66
SWIDTH 458 0
DWIDTH 9 0
BBX 8 14 1 0
BITMAP
FE
FF
E7
E7
E7
E7
FE
FE
E7
E7
E7
E7
FF
FE
ENDCHAR
STARTCHAR C
ENCODING 67
SWIDTH 437 0
DWIDTH 9 0
BBX 8 14 1 0
BITMAP
7E
FF
E7
E7
E7
E0
E0
E0
E0
E7
E7
E7
FF
7E
ENDCHAR
STARTCHAR D
ENCODING 68
SWIDTH 469 0
DWIDTH 9 0
BBX 8 14 1 0
BITMAP
FE
FF
E7
E7
E7
E7
E7
E7
E7
E7
E7
E7
FF
FE
ENDCHAR
STARTCHAR E
ENCODING 69
SWIDTH 364 0
DWIDTH 7 0
BBX 6 14 1 0
BITMAP
FC
FC
E0
E0
E0
E0
FC
FC
E0
E0
E0
E0
FC
FC
ENDCHAR
STARTCHAR F
ENCODING 70
SWIDTH 364 0
DWIDTH 7 0
BBX 6 14 1 0
BITMAP
FC
FC
E0
E0
E0
E0
FC
FC
E0
E0
E0
E0
E0
E0
ENDCHAR
STARTCHAR G
ENCODING 71
SWIDTH 469 0
DWIDTH 9 0
BBX 8 14 1 0
BITMAP
7E
FF
E7
E7
E0
E0
E0
EF
EF
E7
E7
E7
FF
7E
ENDCHAR
STARTCHAR H
ENCODING 72
SWIDTH 479 0
DWIDTH 10 0
BBX 8 14 1 0
BITMAP
E7
E7
E7
E7
E7
E7
FF
FF
E7
E7
E7
E7
E7
E7
ENDCHAR
STARTCHAR I
ENCODING 73
SWIDTH 239 0
DWIDTH 5 0
BBX 3 14 1 0
BITMAP
E0
E0
E0
E0
E0
E0
E0
E0
E0
E0
E0
E0
E0
E0
ENDCHAR
STARTCHAR J
ENCODING 74
SWIDTH 417 0
DWIDTH 8 0
BBX 7 14 1 0
BITMAP
0E
0E
0E
0E
0E
0E
0E
0E
0E
0E
EE
EE
FE
7C
ENDCHAR
STARTCHAR K
ENCODING 75
SWIDTH 458 0
DWIDTH 9 0
BBX 8 14 1 0
BITMAP
E7
E7
EE
EE
FC
FC
F8
F8
FC
FC
EE
EE
E7
E7
ENDCHAR
STARTCHAR L
ENCODING 76
SWIDTH 375 0
DWIDTH 8 0
BBX 7 14 1 0
BITMAP
E0
E0
E0
E0
E0
E0
E0
E0
E0
E0
E0
E0
FE
FE
ENDCHAR
STARTCHAR M
ENCODING 77
SWIDTH 625 0
DWIDTH 13 0
BBX 11 14 1 0
BITMAP
E0E0
E0E0
E0E0
F1E0
F1E0
F1E0
FBE0
FBE0
FBE0
FFE0
EEE0
EEE0
EEE0
EEE0
ENDCHAR
STARTCHAR N
ENCODING 78
SWIDTH 490 0
DWIDTH 10 0
BBX 8 14 1 0
BITMAP
E7
E7
E7
F7
F7
FF
FF
FF
FF
EF
EF
E7
E7
E7
ENDCHAR
STARTCHAR O
ENCODING 79
SWIDTH 479 0
DWIDTH 10 0
BBX 8 14 1 0
BITMAP
7E
FF
E7
E7
E7
E7
E7
E7
E7
E7
E7
E7
FF
7E
ENDCHAR
STARTCHAR P
ENCODING 80
SWIDTH 437 0
DWIDTH 9 0
BBX 8 14 1 0
BITMAP
FE
FF
E7
E7
E7
E7
E7
FF
FE
E0
E0
E0
E0
E0
ENDCHAR
STARTCHAR Q
ENCODING 81
SWIDTH 490 0
DWIDTH 10 0
BBX 9 14 1 0
BITMAP
7E00
FF00
E700
E700
E700
E700
E700
E700
E700
E700
E700
E700
FF80
7F80
ENDCHAR
STARTCHAR R
ENCODING 82
SWIDTH 459 0
DWIDTH 9 0
BBX 8 14 1 0
BITMAP
FE
FF
E7
E7
E7
E7
FE
FE
E7
E7
E7
E7
E7
E7
ENDCHAR
STARTCHAR S
ENCODING 83
SWIDTH 406 0
DWIDTH 8 0
BBX 8 14 0 0
BITMAP
7E
FF
E7
E7
E0
F0
7C
3E
0F
07
E7
E7
FF
7E
ENDCHAR
STARTCHAR T
ENCODING 84
SWIDTH 400 0
DWIDTH 8 0
BBX 7 14 1 0
BITMAP
FE
FE
38
38
38
38
38
38
38
38
38
38
38
38
ENDCHAR
STARTCHAR U
ENCODING 85
SWIDTH 479 0
DWIDTH 10 0
BBX 8 14 1 0
BITMAP
E7
E7
E7
E7
E7
E7
E7
E7
E7
E7
E7
E7
FF
7E
ENDCHAR
STARTCHAR V
ENCODING 86
SWIDTH 427 0
DWIDTH 9 0
BBX 8 14 1 0
BITMAP
E7
E7
E7
E7
E7
E7
7E
7E
7E
7E
3C
3C
3C
3C
ENDCHAR
STARTCHAR W
ENCODING 87
SWIDTH 667 0
DWIDTH 13 0
BBX 13 14 0 0
BITMAP
E738
E738
E738
E738
E738
7FF0
7FF0
7FF0
3DE0
3DE0
3DE0
18C0
18C0
18C0
ENDCHAR
STARTCHAR X
ENCODING 88
SWIDTH 448 0
DWIDTH 9 0
BBX 8 14 1 0
BITMAP
E7
E7
E7
7E
7E
7E
3C
3C
7E
7E
7E
E7
E7
E7
ENDCHAR
STARTCHAR Y
ENCODING 89
SWIDTH 437 0
DWIDTH 9 0
BBX 9 14 0 0
BITMAP
E380
E380
E380
7700
7700
3E00
3E00
1C00
1C00
1C00
1C00
1C00
1C00
1C00
ENDCHAR
STARTCHAR Z
ENCODING 90
SWIDTH 375 0
DWIDTH 8 0
BBX 7 14 1 0
BITMAP
FE
FE
0E
0E
1C
1C
38
38
70
70
E0
E0
FE
FE
ENDCHAR
STARTCHAR bracketleft
ENCODING 91
SWIDTH 292 0
DWIDTH 6 0
BBX 5 18 1 -2
BITMAP
F8
F8
E0
E0
E0
E0
E0
E0
E0
E0
E0
E0
E0
E0
E0
E0
F8
F8
ENDCHAR
STARTCHAR backslash
ENCODING 92
SWIDTH 500 0
DWIDTH 10 0
BBX 6 16 2 -1
BITMAP
E0
E0
E0
E0
70
70
70
70
38
38
38
38
1C
1C
1C
1C
ENDCHAR
STARTCHAR bracketright
ENCODING 93
SWIDTH 292 0
DWIDTH 6 0
BBX 5 18 0 -2
BITMAP
F8
F8
38
38
38
38
38
38
38
38
38
38
38
38
38
38
F8
F8
ENDCHAR
STARTCHAR asciicircum
ENCODING 94
SWIDTH 427 0
DWIDTH 9 0
BBX 9 4 0 12
BITMAP
1C00
3E00
7700
E380
ENDCHAR
STARTCHAR underscore
ENCODING 95
SWIDTH 900 0
DWIDTH 18 0
BBX 18 2 0 -4
BITMAP
FFFFC0
FFFFC0
ENDCHAR
STARTCHAR grave
ENCODING 96
SWIDTH 188 0
DWIDTH 4 0
BBX 4 4 0 11
BITMAP
E0
E0
E0
70
ENDCHAR
STARTCHAR a
ENCODING 97
SWIDTH 395 0
DWIDTH 8 0
BBX 7 10 0 0
BITMAP
7C
FE
EE
0E
7E
FE
EE
EE
FE
7E
ENDCHAR
STARTCHAR b
ENCODING 98
SWIDTH 407 0
DWIDTH 8 0
BBX 7 14 0 0
BITMAP
E0
E0
E0
E0
FC
FE
EE
EE
EE
EE
EE
EE
FE
FC
ENDCHAR
STARTCHAR c
ENCODING 99
SWIDTH 375 0
DWIDTH 8 0
BBX 7 10 0 0
BITMAP
7C
FE
EE
EE
E0
E0
EE
EE
FE
7C
ENDCHAR
STARTCHAR d
ENCODING 100
SWIDTH 407 0
DWIDTH 8 0
BBX 7 14 0 0
BITMAP
0E
0E
0E
0E
7E
FE
EE
EE
EE
EE
EE
EE
FE
7E
ENDCHAR
STARTCHAR e
ENCODING 101
SWIDTH 385 0
DWIDTH 8 0
BBX 7 10 0 0
BITMAP
7C
FE
EE
EE
FE
FE
E0
EE
FE
7C
ENDCHAR
STARTCHAR f
ENCODING 102
SWIDTH 245 0
DWIDTH 5 0
BBX 5 14 0 0
BITMAP
38
78
70
70
F8
F8
70
70
70
70
70
70
70
70
ENDCHAR
STARTCHAR g
ENCODING 103
SWIDTH 396 0
DWIDTH 8 0
BBX 7 14 1 -4
BITMAP
7E
FE
EE
EE
EE
EE
EE
EE
FE
7E
0E
EE
FE
7C
ENDCHAR
STARTCHAR h
ENCODING 104
SWIDTH 396 0
DWIDTH 8 0
BBX 7 14 1 0
BITMAP
E0
E0
E0
E0
FC
FE
EE
EE
EE
EE
EE
EE
EE
EE
ENDCHAR
STARTCHAR i
ENCODING 105
SWIDTH 218 0
DWIDTH 4 0
BBX 3 14 1 0
BITMAP
E0
E0
E0
00
E0
E0
E0
E0
E0
E0
E0
E0
E0
E0
ENDCHAR
STARTCHAR j
ENCODING 106
SWIDTH 229 0
DWIDTH 5 0
BBX 4 18 0 -4
BITMAP
70
70
70
00
70
70
70
70
70
70
70
70
70
70
70
70
70
E0
ENDCHAR
STARTCHAR k
ENCODING 107
SWIDTH 396 0
DWIDTH 8 0
BBX 8 14 0 0
BITMAP
E0
E0
E0
E0
E7
E7
EE
EE
FC
FC
EE
EE
E7
E7
ENDCHAR
STARTCHAR l
ENCODING 108
SWIDTH 219 0
DWIDTH 4 0
BBX 4 14 0 0
BITMAP
F0
F0
70
70
70
70
70
70
70
70
70
70
70
70
ENDCHAR
STARTCHAR m
ENCODING 109
SWIDTH 594 0
DWIDTH 12 0
BBX 11 10 0 0
BITMAP
FBC0
FFE0
EEE0
EEE0
EEE0
EEE0
EEE0
EEE0
EEE0
EEE0
ENDCHAR
STARTCHAR n
ENCODING 110
SWIDTH 396 0
DWIDTH 8 0
BBX 7 10 0 0
BITMAP
FC
FE
EE
EE
EE
EE
EE
EE
EE
EE
ENDCHAR
STARTCHAR o
ENCODING 111
SWIDTH 395 0
DWIDTH 8 0
BBX 7 10 0 0
BITMAP
7C
FE
EE
EE
EE
EE
EE
EE
FE
7C
ENDCHAR
STARTCHAR p
ENCODING 112
SWIDTH 407 0
DWIDTH 8 0
BBX 7 14 0 -4
BITMAP
FC
FE
EE
EE
EE
EE
EE
EE
FE
FC
E0
E0
E0
E0
ENDCHAR
STARTCHAR q
ENCODING 113
SWIDTH 407 0
DWIDTH 8 0
BBX 7 14 0 -4
BITMAP
7E
FE
EE
EE
EE
EE
EE
EE
FE
7E
0E
0E
0E
0E
ENDCHAR
STARTCHAR r
ENCODING 114
SWIDTH 292 0
DWIDTH 6 0
BBX 6 10 0 0
BITMAP
EC
FC
F0
E0
E0
E0
E0
E0
E0
E0
ENDCHAR
STARTCHAR s
ENCODING 115
SWIDTH 375 0
DWIDTH 8 0
BBX 7 10 1 0
BITMAP
7C
FE
E6
E0
FC
7E
0E
CE
FE
7C
ENDCHAR
STARTCHAR t
ENCODING 116
SWIDTH 281 0
DWIDTH 6 0
BBX 6 14 0 0
BITMAP
30
70
70
70
FC
FC
70
70
70
70
70
70
7C
3C
ENDCHAR
STARTCHAR u
ENCODING 117
SWIDTH 395 0
DWIDTH 8 0
BBX 7 10 1 0
BITMAP
EE
EE
EE
EE
EE
EE
EE
EE
FE
7E
ENDCHAR
STARTCHAR v
ENCODING 118
SWIDTH 374 0
DWIDTH 7 0
BBX 7 10 0 0
BITMAP
EE
EE
EE
EE
7C
7C
7C
38
38
38
ENDCHAR
STARTCHAR w
ENCODING 119
SWIDTH 614 0
DWIDTH 12 0
BBX 11 10 1 0
BITMAP
EEE0
EEE0
EEE0
EEE0
7FC0
7BC0
7BC0
3180
3180
3180
ENDCHAR
STARTCHAR x
ENCODING 120
SWIDTH 374 0
DWIDTH 7 0
BBX 7 10 0 0
BITMAP
EE
EE
7C
7C
38
38
7C
7C
EE
EE
ENDCHAR
STARTCHAR y
ENCODING 121
SWIDTH 374 0
DWIDTH 7 0
BBX 7 14 0 -4
BITMAP
EE
EE
EE
EE
EE
EE
6E
7C
3C
3C
38
38
70
70
ENDCHAR
STARTCHAR z
ENCODING 122
SWIDTH 285 0
DWIDTH 6 0
BBX 6 10 0 0
BITMAP
FC
FC
0C
1C
38
70
E0
C0
FC
FC
ENDCHAR
STARTCHAR braceleft
ENCODING 123
SWIDTH 333 0
DWIDTH 7 0
BBX 7 17 0 -2
BITMAP
0E
18
38
38
38
38
38
70
E0
70
38
38
38
38
38
18
0E
ENDCHAR
STARTCHAR bar
ENCODING 124
SWIDTH 271 0
DWIDTH 5 0
BBX 3 20 1 -4
BITMAP
E0
E0
E0
E0
E0
E0
E0
E0
E0
E0
E0
E0
E0
E0
E0
E0
E0
E0
E0
E0
ENDCHAR
STARTCHAR braceright
ENCODING 125
SWIDTH 333 0
DWIDTH 7 0
BBX 7 17 0 -2
BITMAP
E0
30
38
38
38
38
38
1C
0E
1C
38
38
38
38
38
30
E0
ENDCHAR
STARTCHAR asciitilde
ENCODING 126
SWIDTH 990 0
DWIDTH 20 0
BBX 18 6 1 4
BITMAP
000040
0F81C0
3FFF80
7FFF00
E07C00
800000
ENDCHAR
STARTCHAR char007f
ENCODING 127
SWIDTH 500 0
DWIDTH 10 0
BBX 0 0 0 -4
BITMAP
ENDCHAR
STARTCHAR Adieresis
ENCODING 128
SWIDTH 500 0
DWIDTH 4 0
BBX 0 0 0 -4
BITMAP
ENDCHAR
STARTCHAR Aring
ENCODING 129
SWIDTH 1000 0
DWIDTH 20 0
BBX 19 14 0 0
BITMAP
38E380
38E380
38E380
38E380
FFFFE0
FFFFE0
1DF700
1DF700
0FBE00
0FBE00
0FBE00
071C00
071C00
071C00
ENDCHAR
STARTCHAR Ccedilla
ENCODING 130
SWIDTH 542 0
DWIDTH 11 0
BBX 11 2 0 5
BITMAP
FFE0
FFE0
ENDCHAR
STARTCHAR Eacute
ENCODING 131
SWIDTH 1000 0
DWIDTH 20 0
BBX 18 14 1 0
BITMAP
07F800
1C0E00
380700
71F380
739B80
E719C0
E701C0
E701C0
E719C0
739B80
71F380
380700
1C0E00
07F800
ENDCHAR
STARTCHAR Ntilde
ENCODING 132
SWIDTH 1000 0
DWIDTH 20 0
BBX 20 2 0 -4
BITMAP
FFFFF0
FFFFF0
ENDCHAR
STARTCHAR Odieresis
ENCODING 133
SWIDTH 900 0
DWIDTH 20 0
BBX 20 20 0 -4
BITMAP
FFFFF0
FFFFF0
FFFFF0
FFFFF0
FFFFF0
FFFFF0
FFFFF0
FFFFF0
FFFFF0
FFFFF0
FFFFF0
FFFFF0
FFFFF0
FFFFF0
FFFFF0
FFFFF0
FFFFF0
FFFFF0
FFFFF0
FFFFF0
ENDCHAR
STARTCHAR Udieresis
ENCODING 134
SWIDTH 900 0
DWIDTH 20 0
BBX 20 20 0 -4
BITMAP
FFFFF0
FFFFF0
FFFFF0
FFFFF0
FFFFF0
FFFFF0
FFFFF0
FFFFF0
FFFFF0
FFFFF0
FFFFF0
FFFFF0
FFFFF0
FFFFF0
FFFFF0
FFFFF0
FFFFF0
FFFFF0
FFFFF0
FFFFF0
ENDCHAR
STARTCHAR aacute
ENCODING 135
SWIDTH 900 0
DWIDTH 20 0
BBX 20 20 0 -4
BITMAP
FFFFF0
FFFFF0
FFFFF0
FFFFF0
FFFFF0
FFFFF0
FFFFF0
FFFFF0
FFFFF0
FFFFF0
FFFFF0
FFFFF0
FFFFF0
FFFFF0
FFFFF0
FFFFF0
FFFFF0
FFFFF0
FFFFF0
FFFFF0
ENDCHAR
STARTCHAR agrave
ENCODING 136
SWIDTH 900 0
DWIDTH 20 0
BBX 20 20 0 -4
BITMAP
FFFFF0
FFFFF0
FFFFF0
FFFFF0
FFFFF0
FFFFF0
FFFFF0
FFFFF0
FFFFF0
FFFFF0
FFFFF0
FFFFF0
FFFFF0
FFFFF0
FFFFF0
FFFFF0
FFFFF0
FFFFF0
FFFFF0
FFFFF0
ENDCHAR
STARTCHAR acircumflex
ENCODING 137
SWIDTH 900 0
DWIDTH 20 0
BBX 20 20 0 -4
BITMAP
FFFFF0
FFFFF0
FFFFF0
FFFFF0
FFFFF0
FFFFF0
FFFFF0
FFFFF0
FFFFF0
FFFFF0
FFFFF0
FFFFF0
FFFFF0
FFFFF0
FFFFF0
FFFFF0
FFFFF0
FFFFF0
FFFFF0
FFFFF0
ENDCHAR
STARTCHAR adieresis
ENCODING 138
SWIDTH 900 0
DWIDTH 20 0
BBX 20 20 0 -4
BITMAP
FFFFF0
FFFFF0
FFFFF0
FFFFF0
FFFFF0
FFFFF0
FFFFF0
FFFFF0
FFFFF0
FFFFF0
FFFFF0
FFFFF0
FFFFF0
FFFFF0
FFFFF0
FFFFF0
FFFFF0
FFFFF0
FFFFF0
FFFFF0
ENDCHAR
STARTCHAR atilde
ENCODING 139
SWIDTH 900 0
DWIDTH 20 0
BBX 20 20 0 -4
BITMAP
FFFFF0
FFFFF0
FFFFF0
FFFFF0
FFFFF0
FFFFF0
FFFFF0
FFFFF0
FFFFF0
FFFFF0
FFFFF0
FFFFF0
FFFFF0
FFFFF0
FFFFF0
FFFFF0
FFFFF0
FFFFF0
FFFFF0
FFFFF0
ENDCHAR
STARTCHAR aring
ENCODING 140
SWIDTH 900 0
DWIDTH 20 0
BBX 20 20 0 -4
BITMAP
FFFFF0
FFFFF0
FFFFF0
FFFFF0
FFFFF0
FFFFF0
FFFFF0
FFFFF0
FFFFF0
FFFFF0
FFFFF0
FFFFF0
FFFFF0
FFFFF0
FFFFF0
FFFFF0
FFFFF0
FFFFF0
FFFFF0
FFFFF0
ENDCHAR
STARTCHAR ccedilla
ENCODING 141
SWIDTH 900 0
DWIDTH 20 0
BBX 20 20 0 -4
BITMAP
FFFFF0
FFFFF0
FFFFF0
FFFFF0
FFFFF0
FFFFF0
FFFFF0
FFFFF0
FFFFF0
FFFFF0
FFFFF0
FFFFF0
FFFFF0
FFFFF0
FFFFF0
FFFFF0
FFFFF0
FFFFF0
FFFFF0
FFFFF0
ENDCHAR
STARTCHAR eacute
ENCODING 142
SWIDTH 900 0
DWIDTH 20 0
BBX 20 20 0 -4
BITMAP
FFFFF0
FFFFF0
FFFFF0
FFFFF0
FFFFF0
FFFFF0
FFFFF0
FFFFF0
FFFFF0
FFFFF0
FFFFF0
FFFFF0
FFFFF0
FFFFF0
FFFFF0
FFFFF0
FFFFF0
FFFFF0
FFFFF0
FFFFF0
ENDCHAR
STARTCHAR egrave
ENCODING 143
SWIDTH 900 0
DWIDTH 20 0
BBX 20 20 0 -4
BITMAP
FFFFF0
FFFFF0
FFFFF0
FFFFF0
FFFFF0
FFFFF0
FFFFF0
FFFFF0
FFFFF0
FFFFF0
FFFFF0
FFFFF0
FFFFF0
FFFFF0
FFFFF0
FFFFF0
FFFFF0
FFFFF0
FFFFF0
FFFFF0
ENDCHAR
STARTCHAR ecircumflex
ENCODING 144
SWIDTH 900 0
DWIDTH 20 0
BBX 20 20 0 -4
BITMAP
FFFFF0
FFFFF0
FFFFF0
FFFFF0
FFFFF0
FFFFF0
FFFFF0
FFFFF0
FFFFF0
FFFFF0
FFFFF0
FFFFF0
FFFFF0
FFFFF0
FFFFF0
FFFFF0
FFFFF0
FFFFF0
FFFFF0
FFFFF0
ENDCHAR
STARTCHAR edieresis
ENCODING 145
SWIDTH 900 0
DWIDTH 20 0
BBX 20 20 0 -4
BITMAP
FFFFF0
FFFFF0
FFFFF0
FFFFF0
FFFFF0
FFFFF0
FFFFF0
FFFFF0
FFFFF0
FFFFF0
FFFFF0
FFFFF0
FFFFF0
FFFFF0
FFFFF0
FFFFF0
FFFFF0
FFFFF0
FFFFF0
FFFFF0
ENDCHAR
STARTCHAR iacute
ENCODING 146
SWIDTH 900 0
DWIDTH 20 0
BBX 20 20 0 -4
BITMAP
FFFFF0
FFFFF0
FFFFF0
FFFFF0
FFFFF0
FFFFF0
FFFFF0
FFFFF0
FFFFF0
FFFFF0
FFFFF0
FFFFF0
FFFFF0
FFFFF0
FFFFF0
FFFFF0
FFFFF0
FFFFF0
FFFFF0
FFFFF0
ENDCHAR
STARTCHAR igrave
ENCODING 147
SWIDTH 900 0
DWIDTH 20 0
BBX 20 20 0 -4
BITMAP
FFFFF0
FFFFF0
FFFFF0
FFFFF0
FFFFF0
FFFFF0
FFFFF0
FFFFF0
FFFFF0
FFFFF0
FFFFF0
FFFFF0
FFFFF0
FFFFF0
FFFFF0
FFFFF0
FFFFF0
FFFFF0
FFFFF0
FFFFF0
ENDCHAR
STARTCHAR icircumflex
ENCODING 148
SWIDTH 900 0
DWIDTH 20 0
BBX 20 20 0 -4
BITMAP
FFFFF0
FFFFF0
FFFFF0
FFFFF0
FFFFF0
FFFFF0
FFFFF0
FFFFF0
FFFFF0
FFFFF0
FFFFF0
FFFFF0
FFFFF0
FFFFF0
FFFFF0
FFFFF0
FFFFF0
FFFFF0
FFFFF0
FFFFF0
ENDCHAR
STARTCHAR idieresis
ENCODING 149
SWIDTH 900 0
DWIDTH 20 0
BBX 20 20 0 -4
BITMAP
FFFFF0
FFFFF0
FFFFF0
FFFFF0
FFFFF0
FFFFF0
FFFFF0
FFFFF0
FFFFF0
FFFFF0
FFFFF0
FFFFF0
FFFFF0
FFFFF0
FFFFF0
FFFFF0
FFFFF0
FFFFF0
FFFFF0
FFFFF0
ENDCHAR
STARTCHAR ntilde
ENCODING 150
SWIDTH 900 0
DWIDTH 20 0
BBX 20 20 0 -4
BITMAP
FFFFF0
FFFFF0
FFFFF0
FFFFF0
FFFFF0
FFFFF0
FFFFF0
FFFFF0
FFFFF0
FFFFF0
FFFFF0
FFFFF0
FFFFF0
FFFFF0
FFFFF0
FFFFF0
FFFFF0
FFFFF0
FFFFF0
FFFFF0
ENDCHAR
STARTCHAR oacute
ENCODING 151
SWIDTH 900 0
DWIDTH 20 0
BBX 20 20 0 -4
BITMAP
FFFFF0
FFFFF0
FFFFF0
FFFFF0
FFFFF0
FFFFF0
FFFFF0
FFFFF0
FFFFF0
FFFFF0
FFFFF0
FFFFF0
FFFFF0
FFFFF0
FFFFF0
FFFFF0
FFFFF0
FFFFF0
FFFFF0
FFFFF0
ENDCHAR
STARTCHAR ograve
ENCODING 152
SWIDTH 900 0
DWIDTH 20 0
BBX 20 20 0 -4
BITMAP
FFFFF0
FFFFF0
FFFFF0
FFFFF0
FFFFF0
FFFFF0
FFFFF0
FFFFF0
FFFFF0
FFFFF0
FFFFF0
FFFFF0
FFFFF0
FFFFF0
FFFFF0
FFFFF0
FFFFF0
FFFFF0
FFFFF0
FFFFF0
ENDCHAR
STARTCHAR ocircumflex
ENCODING 153
SWIDTH 900 0
DWIDTH 20 0
BBX 20 20 0 -4
BITMAP
FFFFF0
FFFFF0
FFFFF0
FFFFF0
FFFFF0
FFFFF0
FFFFF0
FFFFF0
FFFFF0
FFFFF0
FFFFF0
FFFFF0
FFFFF0
FFFFF0
FFFFF0
FFFFF0
FFFFF0
FFFFF0
FFFFF0
FFFFF0
ENDCHAR
STARTCHAR odieresis
ENCODING 154
SWIDTH 900 0
DWIDTH 20 0
BBX 20 20 0 -4
BITMAP
FFFFF0
FFFFF0
FFFFF0
FFFFF0
FFFFF0
FFFFF0
FFFFF0
FFFFF0
FFFFF0
FFFFF0
FFFFF0
FFFFF0
FFFFF0
FFFFF0
FFFFF0
FFFFF0
FFFFF0
FFFFF0
FFFFF0
FFFFF0
ENDCHAR
STARTCHAR otilde
ENCODING 155
SWIDTH 900 0
DWIDTH 20 0
BBX 20 20 0 -4
BITMAP
FFFFF0
FFFFF0
FFFFF0
FFFFF0
FFFFF0
FFFFF0
FFFFF0
FFFFF0
FFFFF0
FFFFF0
FFFFF0
FFFFF0
FFFFF0
FFFFF0
FFFFF0
FFFFF0
FFFFF0
FFFFF0
FFFFF0
FFFFF0
ENDCHAR
STARTCHAR uacute
ENCODING 156
SWIDTH 900 0
DWIDTH 20 0
BBX 20 20 0 -4
BITMAP
FFFFF0
FFFFF0
FFFFF0
FFFFF0
FFFFF0
FFFFF0
FFFFF0
FFFFF0
FFFFF0
FFFFF0
FFFFF0
FFFFF0
FFFFF0
FFFFF0
FFFFF0
FFFFF0
FFFFF0
FFFFF0
FFFFF0
FFFFF0
ENDCHAR
STARTCHAR ugrave
ENCODING 157
SWIDTH 900 0
DWIDTH 20 0
BBX 20 20 0 -4
BITMAP
FFFFF0
FFFFF0
FFFFF0
FFFFF0
FFFFF0
FFFFF0
FFFFF0
FFFFF0
FFFFF0
FFFFF0
FFFFF0
FFFFF0
FFFFF0
FFFFF0
FFFFF0
FFFFF0
FFFFF0
FFFFF0
FFFFF0
FFFFF0
ENDCHAR
STARTCHAR ucircumflex
ENCODING 158
SWIDTH 900 0
DWIDTH 20 0
BBX 20 20 0 -4
BITMAP
FFFFF0
FFFFF0
FFFFF0
FFFFF0
FFFFF0
FFFFF0
FFFFF0
FFFFF0
FFFFF0
FFFFF0
FFFFF0
FFFFF0
FFFFF0
FFFFF0
FFFFF0
FFFFF0
FFFFF0
FFFFF0
FFFFF0
FFFFF0
ENDCHAR
STARTCHAR udieresis
ENCODING 159
SWIDTH 900 0
DWIDTH 20 0
BBX 20 20 0 -4
BITMAP
FFFFF0
FFFFF0
FFFFF0
FFFFF0
FFFFF0
FFFFF0
FFFFF0
FFFFF0
FFFFF0
FFFFF0
FFFFF0
FFFFF0
FFFFF0
FFFFF0
FFFFF0
FFFFF0
FFFFF0
FFFFF0
FFFFF0
FFFFF0
ENDCHAR
STARTCHAR dagger
ENCODING 160
SWIDTH 900 0
DWIDTH 20 0
BBX 20 20 0 -4
BITMAP
FFFFF0
FFFFF0
FFFFF0
FFFFF0
FFFFF0
FFFFF0
FFFFF0
FFFFF0
FFFFF0
FFFFF0
FFFFF0
FFFFF0
FFFFF0
FFFFF0
FFFFF0
FFFFF0
FFFFF0
FFFFF0
FFFFF0
FFFFF0
ENDCHAR
STARTCHAR degree
ENCODING 161
SWIDTH 450 0
DWIDTH 10 0
BBX 0 0 0 -4
BITMAP
ENDCHAR
STARTCHAR cent
ENCODING 162
SWIDTH 450 0
DWIDTH 10 0
BBX 0 0 0 -4
BITMAP
ENDCHAR
STARTCHAR sterling
ENCODING 163
SWIDTH 450 0
DWIDTH 10 0
BBX 0 0 0 -4
BITMAP
ENDCHAR
STARTCHAR section
ENCODING 164
SWIDTH 450 0
DWIDTH 10 0
BBX 0 0 0 -4
BITMAP
ENDCHAR
STARTCHAR bullet
ENCODING 165
SWIDTH 450 0
DWIDTH 10 0
BBX 0 0 0 -4
BITMAP
ENDCHAR
STARTCHAR paragraph
ENCODING 166
SWIDTH 450 0
DWIDTH 10 0
BBX 0 0 0 -4
BITMAP
ENDCHAR
STARTCHAR germandbls
ENCODING 167
SWIDTH 450 0
DWIDTH 10 0
BBX 0 0 0 -4
BITMAP
ENDCHAR
STARTCHAR registered
ENCODING 168
SWIDTH 450 0
DWIDTH 10 0
BBX 0 0 0 -4
BITMAP
ENDCHAR
STARTCHAR copyright
ENCODING 169
SWIDTH 450 0
DWIDTH 10 0
BBX 0 0 0 -4
BITMAP
ENDCHAR
STARTCHAR trademark
ENCODING 170
SWIDTH 450 0
DWIDTH 10 0
BBX 0 0 0 -4
BITMAP
ENDCHAR
STARTCHAR acute
ENCODING 171
SWIDTH 450 0
DWIDTH 10 0
BBX 0 0 0 -4
BITMAP
ENDCHAR
STARTCHAR dieresis
ENCODING 172
SWIDTH 450 0
DWIDTH 10 0
BBX 0 0 0 -4
BITMAP
ENDCHAR
STARTCHAR notequal
ENCODING 173
SWIDTH 450 0
DWIDTH 10 0
BBX 0 0 0 -4
BITMAP
ENDCHAR
STARTCHAR AE
ENCODING 174
SWIDTH 450 0
DWIDTH 10 0
BBX 0 0 0 -4
BITMAP
ENDCHAR
STARTCHAR Oslash
ENCODING 175
SWIDTH 450 0
DWIDTH 10 0
BBX 0 0 0 -4
BITMAP
ENDCHAR
STARTCHAR infinity
ENCODING 176
SWIDTH 450 0
DWIDTH 10 0
BBX 0 0 0 -4
BITMAP
ENDCHAR
STARTCHAR plusminus
ENCODING 177
SWIDTH 450 0
DWIDTH 10 0
BBX 0 0 0 -4
BITMAP
ENDCHAR
STARTCHAR lessequal
ENCODING 178
SWIDTH 450 0
DWIDTH 10 0
BBX 0 0 0 -4
BITMAP
ENDCHAR
STARTCHAR greaterequal
ENCODING 179
SWIDTH 450 0
DWIDTH 10 0
BBX 0 0 0 -4
BITMAP
ENDCHAR
STARTCHAR yen
ENCODING 180
SWIDTH 450 0
DWIDTH 10 0
BBX 0 0 0 -4
BITMAP
ENDCHAR
STARTCHAR mu
ENCODING 181
SWIDTH 450 0
DWIDTH 10 0
BBX 0 0 0 -4
BITMAP
ENDCHAR
STARTCHAR partialdiff
ENCODING 182
SWIDTH 450 0
DWIDTH 10 0
BBX 0 0 0 -4
BITMAP
ENDCHAR
STARTCHAR summation
ENCODING 183
SWIDTH 450 0
DWIDTH 10 0
BBX 0 0 0 -4
BITMAP
ENDCHAR
STARTCHAR product
ENCODING 184
SWIDTH 450 0
DWIDTH 10 0
BBX 0 0 0 -4
BITMAP
ENDCHAR
STARTCHAR pi
ENCODING 185
SWIDTH 450 0
DWIDTH 10 0
BBX 0 0 0 -4
BITMAP
ENDCHAR
STARTCHAR integral
ENCODING 186
SWIDTH 450 0
DWIDTH 10 0
BBX 0 0 0 -4
BITMAP
ENDCHAR
STARTCHAR ordfeminine
ENCODING 187
SWIDTH 450 0
DWIDTH 10 0
BBX 0 0 0 -4
BITMAP
ENDCHAR
STARTCHAR ordmasculine
ENCODING 188
SWIDTH 450 0
DWIDTH 10 0
BBX 0 0 0 -4
BITMAP
ENDCHAR
STARTCHAR Omega
ENCODING 189
SWIDTH 450 0
DWIDTH 10 0
BBX 0 0 0 -4
BITMAP
ENDCHAR
STARTCHAR ae
ENCODING 190
SWIDTH 450 0
DWIDTH 10 0
BBX 0 0 0 -4
BITMAP
ENDCHAR
STARTCHAR oslash
ENCODING 191
SWIDTH 450 0
DWIDTH 10 0
BBX 0 0 0 -4
BITMAP
ENDCHAR
STARTCHAR questiondown
ENCODING 192
SWIDTH 450 0
DWIDTH 10 0
BBX 0 0 0 -4
BITMAP
ENDCHAR
STARTCHAR exclamdown
ENCODING 193
SWIDTH 450 0
DWIDTH 10 0
BBX 0 0 0 -4
BITMAP
ENDCHAR
STARTCHAR logicalnot
ENCODING 194
SWIDTH 450 0
DWIDTH 10 0
BBX 0 0 0 -4
BITMAP
ENDCHAR
STARTCHAR radical
ENCODING 195
SWIDTH 450 0
DWIDTH 10 0
BBX 0 0 0 -4
BITMAP
ENDCHAR
STARTCHAR florin
ENCODING 196
SWIDTH 450 0
DWIDTH 10 0
BBX 0 0 0 -4
BITMAP
ENDCHAR
STARTCHAR approxequal
ENCODING 197
SWIDTH 450 0
DWIDTH 10 0
BBX 0 0 0 -4
BITMAP
ENDCHAR
STARTCHAR Delta
ENCODING 198
SWIDTH 450 0
DWIDTH 10 0
BBX 0 0 0 -4
BITMAP
ENDCHAR
STARTCHAR guillemotleft
ENCODING 199
SWIDTH 450 0
DWIDTH 10 0
BBX 0 0 0 -4
BITMAP
ENDCHAR
STARTCHAR guillemotright
ENCODING 200
SWIDTH 450 0
DWIDTH 10 0
BBX 0 0 0 -4
BITMAP
ENDCHAR
STARTCHAR ellipsis
ENCODING 201
SWIDTH 450 0
DWIDTH 10 0
BBX 0 0 0 -4
BITMAP
ENDCHAR
STARTCHAR nbspace
ENCODING 202
SWIDTH 450 0
DWIDTH 10 0
BBX 0 0 0 -4
BITMAP
ENDCHAR
STARTCHAR Agrave
ENCODING 203
SWIDTH 450 0
DWIDTH 10 0
BBX 0 0 0 -4
BITMAP
ENDCHAR
STARTCHAR Atilde
ENCODING 204
SWIDTH 450 0
DWIDTH 10 0
BBX 0 0 0 -4
BITMAP
ENDCHAR
STARTCHAR Otilde
ENCODING 205
SWIDTH 450 0
DWIDTH 10 0
BBX 0 0 0 -4
BITMAP
ENDCHAR
STARTCHAR OE
ENCODING 206
SWIDTH 450 0
DWIDTH 10 0
BBX 0 0 0 -4
BITMAP
ENDCHAR
STARTCHAR oe
ENCODING 207
SWIDTH 450 0
DWIDTH 10 0
BBX 0 0 0 -4
BITMAP
ENDCHAR
STARTCHAR endash
ENCODING 208
SWIDTH 450 0
DWIDTH 10 0
BBX 0 0 0 -4
BITMAP
ENDCHAR
STARTCHAR emdash
ENCODING 209
SWIDTH 450 0
DWIDTH 10 0
BBX 0 0 0 -4
BITMAP
ENDCHAR
STARTCHAR quotedblleft
ENCODING 210
SWIDTH 450 0
DWIDTH 10 0
BBX 0 0 0 -4
BITMAP
ENDCHAR
STARTCHAR quotedblright
ENCODING 211
SWIDTH 450 0
DWIDTH 10 0
BBX 0 0 0 -4
BITMAP
ENDCHAR
STARTCHAR quoteleft
ENCODING 212
SWIDTH 450 0
DWIDTH 10 0
BBX 0 0 0 -4
BITMAP
ENDCHAR
STARTCHAR quoteright
ENCODING 213
SWIDTH 450 0
DWIDTH 10 0
BBX 0 0 0 -4
BITMAP
ENDCHAR
STARTCHAR divide
ENCODING 214
SWIDTH 450 0
DWIDTH 10 0
BBX 0 0 0 -4
BITMAP
ENDCHAR
STARTCHAR lozenge
ENCODING 215
SWIDTH 450 0
DWIDTH 10 0
BBX 0 0 0 -4
BITMAP
ENDCHAR
STARTCHAR ydieresis
ENCODING 216
SWIDTH 450 0
DWIDTH 10 0
BBX 0 0 0 -4
BITMAP
ENDCHAR
STARTCHAR Ydieresis
ENCODING 217
SWIDTH 450 0
DWIDTH 10 0
BBX 0 0 0 -4
BITMAP
ENDCHAR
STARTCHAR fraction
ENCODING 218
SWIDTH 450 0
DWIDTH 10 0
BBX 0 0 0 -4
BITMAP
ENDCHAR
STARTCHAR currency
ENCODING 219
SWIDTH 450 0
DWIDTH 10 0
BBX 0 0 0 -4
BITMAP
ENDCHAR
STARTCHAR guilsinglleft
ENCODING 220
SWIDTH 450 0
DWIDTH 10 0
BBX 0 0 0 -4
BITMAP
ENDCHAR
STARTCHAR guilsinglright
ENCODING 221
SWIDTH 450 0
DWIDTH 10 0
BBX 0 0 0 -4
BITMAP
ENDCHAR
STARTCHAR fi
ENCODING 222
SWIDTH 450 0
DWIDTH 10 0
BBX 0 0 0 -4
BITMAP
ENDCHAR
STARTCHAR fl
ENCODING 223
SWIDTH 450 0
DWIDTH 10 0
BBX 0 0 0 -4
BITMAP
ENDCHAR
STARTCHAR daggerdbl
ENCODING 224
SWIDTH 450 0
DWIDTH 10 0
BBX 0 0 0 -4
BITMAP
ENDCHAR
STARTCHAR periodcentered
ENCODING 225
SWIDTH 450 0
DWIDTH 10 0
BBX 0 0 0 -4
BITMAP
ENDCHAR
STARTCHAR quotesinglbase
ENCODING 226
SWIDTH 450 0
DWIDTH 10 0
BBX 0 0 0 -4
BITMAP
ENDCHAR
STARTCHAR quotedblbase
ENCODING 227
SWIDTH 450 0
DWIDTH 10 0
BBX 0 0 0 -4
BITMAP
ENDCHAR
STARTCHAR perthousand
ENCODING 228
SWIDTH 450 0
DWIDTH 10 0
BBX 0 0 0 -4
BITMAP
ENDCHAR
STARTCHAR Acircumflex
ENCODING 229
SWIDTH 450 0
DWIDTH 10 0
BBX 0 0 0 -4
BITMAP
ENDCHAR
STARTCHAR Ecircumflex
ENCODING 230
SWIDTH 450 0
DWIDTH 10 0
BBX 0 0 0 -4
BITMAP
ENDCHAR
STARTCHAR Aacute
ENCODING 231
SWIDTH 450 0
DWIDTH 10 0
BBX 0 0 0 -4
BITMAP
ENDCHAR
STARTCHAR Edieresis
ENCODING 232
SWIDTH 450 0
DWIDTH 10 0
BBX 0 0 0 -4
BITMAP
ENDCHAR
STARTCHAR Egrave
ENCODING 233
SWIDTH 450 0
DWIDTH 10 0
BBX 0 0 0 -4
BITMAP
ENDCHAR
STARTCHAR Iacute
ENCODING 234
SWIDTH 450 0
DWIDTH 10 0
BBX 0 0 0 -4
BITMAP
ENDCHAR
STARTCHAR Icircumflex
ENCODING 235
SWIDTH 450 0
DWIDTH 10 0
BBX 0 0 0 -4
BITMAP
ENDCHAR
STARTCHAR Idieresis
ENCODING 236
SWIDTH 450 0
DWIDTH 10 0
BBX 0 0 0 -4
BITMAP
ENDCHAR
STARTCHAR Igrave
ENCODING 237
SWIDTH 450 0
DWIDTH 10 0
BBX 0 0 0 -4
BITMAP
ENDCHAR
STARTCHAR Oacute
ENCODING 238
SWIDTH 450 0
DWIDTH 10 0
BBX 0 0 0 -4
BITMAP
ENDCHAR
STARTCHAR Ocircumflex
ENCODING 239
SWIDTH 450 0
DWIDTH 10 0
BBX 0 0 0 -4
BITMAP
ENDCHAR
STARTCHAR apple
ENCODING 240
SWIDTH 450 0
DWIDTH 10 0
BBX 0 0 0 -4
BITMAP
ENDCHAR
STARTCHAR Ograve
ENCODING 241
SWIDTH 450 0
DWIDTH 10 0
BBX 0 0 0 -4
BITMAP
ENDCHAR
STARTCHAR Uacute
ENCODING 242
SWIDTH 450 0
DWIDTH 10 0
BBX 0 0 0 -4
BITMAP
ENDCHAR
STARTCHAR Ucircumflex
ENCODING 243
SWIDTH 450 0
DWIDTH 10 0
BBX 0 0 0 -4
BITMAP
ENDCHAR
STARTCHAR Ugrave
ENCODING 244
SWIDTH 450 0
DWIDTH 10 0
BBX 0 0 0 -4
BITMAP
ENDCHAR
STARTCHAR dotlessi
ENCODING 245
SWIDTH 450 0
DWIDTH 10 0
BBX 0 0 0 -4
BITMAP
ENDCHAR
STARTCHAR circumflex
ENCODING 246
SWIDTH 450 0
DWIDTH 10 0
BBX 0 0 0 -4
BITMAP
ENDCHAR
STARTCHAR tilde
ENCODING 247
SWIDTH 450 0
DWIDTH 10 0
BBX 0 0 0 -4
BITMAP
ENDCHAR
STARTCHAR macron
ENCODING 248
SWIDTH 450 0
DWIDTH 10 0
BBX 0 0 0 -4
BITMAP
ENDCHAR
STARTCHAR breve
ENCODING 249
SWIDTH 450 0
DWIDTH 10 0
BBX 0 0 0 -4
BITMAP
ENDCHAR
STARTCHAR dotaccent
ENCODING 250
SWIDTH 450 0
DWIDTH 10 0
BBX 0 0 0 -4
BITMAP
ENDCHAR
STARTCHAR ring
ENCODING 251
SWIDTH 450 0
DWIDTH 10 0
BBX 0 0 0 -4
BITMAP
ENDCHAR
STARTCHAR cedilla
ENCODING 252
SWIDTH 450 0
DWIDTH 10 0
BBX 0 0 0 -4
BITMAP
ENDCHAR
STARTCHAR hungarumlaut
ENCODING 253
SWIDTH 450 0
DWIDTH 10 0
BBX 0 0 0 -4
BITMAP
ENDCHAR
STARTCHAR ogonek
ENCODING 254
SWIDTH 450 0
DWIDTH 10 0
BBX 0 0 0 -4
BITMAP
ENDCHAR
STARTCHAR caron
ENCODING 255
SWIDTH 900 0
DWIDTH 20 0
BBX 15 3 2 4
BITMAP
E38E
E38E
E38E
ENDCHAR
ENDFONT
