STARTFONT 2.1
FONT -Fondu-#PC명조-Medium-R-Normal--20-190-75-75-P-113-MacRoman-1
SIZE 19 75 75
FONTBOUNDINGBOX 20 20 0 -4
COMMENT Created by Fondu from a mac NFNT/FONT resource
STARTPROPERTIES 17
FOUNDRY "Fondu"
FAMILY_NAME "#PC명조"
WEIGHT_NAME "Medium"
SLANT "R"
SETWIDTH_NAME "Normal"
ADD_STYLE_NAME ""
PIXEL_SIZE 20
POINT_SIZE 190
RESOLUTION_X 75
RESOLUTION_Y 75
SPACING "P"
AVERAGE_WIDTH 113
CHARSET_REGISTRY "MacRoman"
CHARSET_ENCODING "1"
FONT_ASCENT 16
FONT_DESCENT 4
FACE_NAME "#PC명조"
ENDPROPERTIES
CHARS 229
STARTCHAR char0011
ENCODING 17
SWIDTH 500 0
DWIDTH 10 0
BBX 9 13 1 0
BITMAP
7700
B680
B680
B680
B680
7F00
3600
7F00
B680
B680
B680
B680
7700
ENDCHAR
STARTCHAR char0012
ENCODING 18
SWIDTH 500 0
DWIDTH 10 0
BBX 10 12 0 0
BITMAP
00C0
00C0
0180
0180
0300
0300
0600
0600
CC00
6C00
3800
1800
ENDCHAR
STARTCHAR char0013
ENCODING 19
SWIDTH 500 0
DWIDTH 10 0
BBX 9 13 0 0
BITMAP
ED80
6D00
6D00
6D00
6D00
FF80
6D00
6D00
6D00
3600
3600
3600
3600
ENDCHAR
STARTCHAR char0014
ENCODING 20
SWIDTH 500 0
DWIDTH 10 0
BBX 10 14 0 0
BITMAP
0300
0600
0400
3B80
7FC0
FFC0
FF80
FF80
FF80
FF80
FFC0
FFC0
7FC0
3B80
ENDCHAR
STARTCHAR onehalf
ENCODING 21
SWIDTH 500 0
DWIDTH 10 0
BBX 7 13 1 0
BITMAP
7E
FA
FA
FA
FA
FA
7A
0A
0A
0A
0A
0A
0A
ENDCHAR
STARTCHAR space
ENCODING 32
SWIDTH 500 0
DWIDTH 10 0
BBX 0 0 0 -4
BITMAP
ENDCHAR
STARTCHAR exclam
ENCODING 33
SWIDTH 500 0
DWIDTH 10 0
BBX 3 15 4 -1
BITMAP
40
E0
E0
E0
E0
E0
E0
40
40
40
00
00
40
E0
40
ENDCHAR
STARTCHAR quotedbl
ENCODING 34
SWIDTH 500 0
DWIDTH 10 0
BBX 7 6 1 8
BITMAP
44
EE
EE
66
44
88
ENDCHAR
STARTCHAR numbersign
ENCODING 35
SWIDTH 500 0
DWIDTH 10 0
BBX 10 11 0 1
BITMAP
1980
1980
1980
7FC0
3300
3300
3300
FF80
6600
6600
6600
ENDCHAR
STARTCHAR dollar
ENCODING 36
SWIDTH 500 0
DWIDTH 10 0
BBX 9 17 1 -2
BITMAP
0800
0800
3D00
6B00
C980
C880
E800
7800
3E00
0F00
8B80
8980
C980
EB00
BE00
0800
0800
ENDCHAR
STARTCHAR percent
ENCODING 37
SWIDTH 500 0
DWIDTH 10 0
BBX 10 13 0 0
BITMAP
7000
D800
D8C0
D980
DB00
7600
0C00
1B80
36C0
66C0
C6C0
06C0
0380
ENDCHAR
STARTCHAR ampersand
ENCODING 38
SWIDTH 500 0
DWIDTH 10 0
BBX 10 13 0 0
BITMAP
3C00
6600
4600
4600
4C00
3800
39C0
6480
C280
C180
C180
6380
3E40
ENDCHAR
STARTCHAR quotesingle
ENCODING 39
SWIDTH 500 0
DWIDTH 10 0
BBX 3 6 3 8
BITMAP
40
E0
E0
60
40
80
ENDCHAR
STARTCHAR parenleft
ENCODING 40
SWIDTH 500 0
DWIDTH 10 0
BBX 4 17 5 -2
BITMAP
10
20
60
60
40
C0
C0
C0
C0
C0
C0
C0
40
60
60
20
10
ENDCHAR
STARTCHAR parenright
ENCODING 41
SWIDTH 500 0
DWIDTH 10 0
BBX 4 17 1 -2
BITMAP
80
40
60
60
20
30
30
30
30
30
30
30
20
60
60
40
80
ENDCHAR
STARTCHAR asterisk
ENCODING 42
SWIDTH 500 0
DWIDTH 10 0
BBX 7 7 1 9
BITMAP
10
D6
7C
38
7C
D6
10
ENDCHAR
STARTCHAR plus
ENCODING 43
SWIDTH 500 0
DWIDTH 10 0
BBX 10 9 0 2
BITMAP
0C00
0C00
0C00
0C00
FFC0
0C00
0C00
0C00
0C00
ENDCHAR
STARTCHAR comma
ENCODING 44
SWIDTH 500 0
DWIDTH 10 0
BBX 3 6 2 -3
BITMAP
40
E0
E0
60
40
80
ENDCHAR
STARTCHAR hyphen
ENCODING 45
SWIDTH 500 0
DWIDTH 10 0
BBX 8 1 1 6
BITMAP
FF
ENDCHAR
STARTCHAR period
ENCODING 46
SWIDTH 500 0
DWIDTH 10 0
BBX 4 3 1 -1
BITMAP
60
F0
60
ENDCHAR
STARTCHAR slash
ENCODING 47
SWIDTH 500 0
DWIDTH 10 0
BBX 9 16 1 -1
BITMAP
0180
0180
0300
0300
0600
0600
0C00
0C00
1800
1800
3000
3000
6000
6000
C000
C000
ENDCHAR
STARTCHAR zero
ENCODING 48
SWIDTH 500 0
DWIDTH 10 0
BBX 9 13 1 0
BITMAP
1C00
6300
C180
C180
C380
C780
CD80
D980
F180
E180
C180
6300
1C00
ENDCHAR
STARTCHAR one
ENCODING 49
SWIDTH 500 0
DWIDTH 10 0
BBX 4 13 2 0
BITMAP
20
E0
60
60
60
60
60
60
60
60
60
60
F0
ENDCHAR
STARTCHAR two
ENCODING 50
SWIDTH 500 0
DWIDTH 10 0
BBX 10 13 0 0
BITMAP
3E00
6300
C180
C180
4180
0300
0300
0600
0C00
1800
30C0
6180
FF80
ENDCHAR
STARTCHAR three
ENCODING 51
SWIDTH 500 0
DWIDTH 10 0
BBX 10 13 0 0
BITMAP
3E00
6300
C180
C180
4180
0300
1E00
0180
00C0
C0C0
C0C0
6180
3F00
ENDCHAR
STARTCHAR four
ENCODING 52
SWIDTH 500 0
DWIDTH 10 0
BBX 10 13 0 0
BITMAP
0100
0300
0700
0F00
0B00
1300
2300
4300
8300
FFC0
0300
0300
0780
ENDCHAR
STARTCHAR five
ENCODING 53
SWIDTH 500 0
DWIDTH 10 0
BBX 10 14 0 0
BITMAP
0040
1F80
3F00
2000
6000
7C00
C300
0180
0180
0180
C180
C180
6300
3C00
ENDCHAR
STARTCHAR six
ENCODING 54
SWIDTH 500 0
DWIDTH 10 0
BBX 9 13 0 0
BITMAP
0F00
3000
6000
4000
DC00
E300
C180
C180
C180
C180
C180
6300
1C00
ENDCHAR
STARTCHAR seven
ENCODING 55
SWIDTH 500 0
DWIDTH 10 0
BBX 9 13 0 0
BITMAP
7F80
6180
C180
C300
0300
0300
0600
0600
0600
0C00
0C00
0C00
0C00
ENDCHAR
STARTCHAR eight
ENCODING 56
SWIDTH 500 0
DWIDTH 10 0
BBX 9 13 1 0
BITMAP
3C00
6600
C300
C300
6600
3C00
6300
C180
C180
C180
C180
6300
3E00
ENDCHAR
STARTCHAR nine
ENCODING 57
SWIDTH 500 0
DWIDTH 10 0
BBX 9 13 1 0
BITMAP
1C00
6300
C180
C180
C180
C180
C180
6380
1D80
0100
0300
0600
7800
ENDCHAR
STARTCHAR colon
ENCODING 58
SWIDTH 500 0
DWIDTH 10 0
BBX 4 12 3 0
BITMAP
60
F0
60
00
00
00
00
00
00
60
F0
60
ENDCHAR
STARTCHAR semicolon
ENCODING 59
SWIDTH 500 0
DWIDTH 10 0
BBX 4 13 3 -1
BITMAP
60
F0
60
00
00
00
00
00
60
F0
70
20
C0
ENDCHAR
STARTCHAR less
ENCODING 60
SWIDTH 500 0
DWIDTH 10 0
BBX 10 17 0 -2
BITMAP
00C0
0180
0300
0600
0C00
1800
3000
6000
C000
6000
3000
1800
0C00
0600
0300
0180
00C0
ENDCHAR
STARTCHAR equal
ENCODING 61
SWIDTH 500 0
DWIDTH 10 0
BBX 8 5 1 3
BITMAP
FF
00
00
00
FF
ENDCHAR
STARTCHAR greater
ENCODING 62
SWIDTH 500 0
DWIDTH 10 0
BBX 10 17 0 -2
BITMAP
C000
6000
3000
1800
0C00
0600
0300
0180
00C0
0180
0300
0600
0C00
1800
3000
6000
C000
ENDCHAR
STARTCHAR question
ENCODING 63
SWIDTH 500 0
DWIDTH 10 0
BBX 8 13 1 0
BITMAP
3C
66
C3
C3
46
0C
18
18
18
00
18
3C
18
ENDCHAR
STARTCHAR at
ENCODING 64
SWIDTH 500 0
DWIDTH 10 0
BBX 10 12 0 0
BITMAP
0E00
3180
60C0
CEC0
D2C0
D2C0
D2C0
D2C0
CF80
6000
30C0
0F00
ENDCHAR
STARTCHAR A
ENCODING 65
SWIDTH 500 0
DWIDTH 10 0
BBX 10 13 0 0
BITMAP
0C00
0C00
0C00
1600
1600
1600
2300
2300
3F00
4180
4180
4180
E3C0
ENDCHAR
STARTCHAR B
ENCODING 66
SWIDTH 500 0
DWIDTH 10 0
BBX 10 13 0 0
BITMAP
FE00
6300
6180
6180
6180
6300
7E00
6180
60C0
60C0
60C0
6180
FF00
ENDCHAR
STARTCHAR C
ENCODING 67
SWIDTH 500 0
DWIDTH 10 0
BBX 9 13 1 0
BITMAP
3C80
6380
C180
C080
C000
C000
C000
C000
C000
C000
C080
6100
3E00
ENDCHAR
STARTCHAR D
ENCODING 68
SWIDTH 500 0
DWIDTH 10 0
BBX 9 13 1 0
BITMAP
FE00
6300
6180
6180
6180
6180
6180
6180
6180
6180
6180
6300
FE00
ENDCHAR
STARTCHAR E
ENCODING 69
SWIDTH 500 0
DWIDTH 10 0
BBX 9 13 1 0
BITMAP
FF00
6180
6080
6000
6000
6100
7F00
6100
6000
6000
6080
6180
FF00
ENDCHAR
STARTCHAR F
ENCODING 70
SWIDTH 500 0
DWIDTH 10 0
BBX 9 13 1 0
BITMAP
FF00
6180
6080
6000
6000
6100
7F00
6100
6000
6000
6000
6000
F000
ENDCHAR
STARTCHAR G
ENCODING 71
SWIDTH 500 0
DWIDTH 10 0
BBX 9 13 1 0
BITMAP
3C80
6380
C180
C080
C000
C000
C000
C780
C180
C180
C180
6300
3E00
ENDCHAR
STARTCHAR H
ENCODING 72
SWIDTH 500 0
DWIDTH 10 0
BBX 10 13 0 0
BITMAP
F3C0
6180
6180
6180
6180
6180
7F80
6180
6180
6180
6180
6180
F3C0
ENDCHAR
STARTCHAR I
ENCODING 73
SWIDTH 500 0
DWIDTH 10 0
BBX 4 13 3 0
BITMAP
F0
60
60
60
60
60
60
60
60
60
60
60
F0
ENDCHAR
STARTCHAR J
ENCODING 74
SWIDTH 500 0
DWIDTH 10 0
BBX 7 13 1 0
BITMAP
1E
0C
0C
0C
0C
0C
0C
0C
0C
CC
CC
CC
78
ENDCHAR
STARTCHAR K
ENCODING 75
SWIDTH 500 0
DWIDTH 10 0
BBX 10 13 0 0
BITMAP
F3C0
6180
6300
6600
6C00
7800
7000
7800
6C00
6600
6300
6180
F3C0
ENDCHAR
STARTCHAR L
ENCODING 76
SWIDTH 500 0
DWIDTH 10 0
BBX 9 13 1 0
BITMAP
F000
6000
6000
6000
6000
6000
6000
6000
6000
6000
6080
6180
FF00
ENDCHAR
STARTCHAR M
ENCODING 77
SWIDTH 500 0
DWIDTH 10 0
BBX 10 13 0 0
BITMAP
E1C0
6180
6380
6380
6380
7780
7780
5580
5D80
5D80
4980
4980
EBC0
ENDCHAR
STARTCHAR N
ENCODING 78
SWIDTH 500 0
DWIDTH 10 0
BBX 10 13 0 0
BITMAP
E3C0
6180
7180
5180
5980
4980
4D80
4580
4780
4380
4380
4180
E180
ENDCHAR
STARTCHAR O
ENCODING 79
SWIDTH 500 0
DWIDTH 10 0
BBX 9 13 1 0
BITMAP
1C00
6300
C180
C180
C180
C180
C180
C180
C180
C180
C180
6300
1C00
ENDCHAR
STARTCHAR P
ENCODING 80
SWIDTH 500 0
DWIDTH 10 0
BBX 9 13 1 0
BITMAP
FE00
6300
6180
6180
6180
6180
6180
6300
7E00
6000
6000
6000
F000
ENDCHAR
STARTCHAR Q
ENCODING 81
SWIDTH 500 0
DWIDTH 10 0
BBX 9 15 1 -2
BITMAP
1C00
6300
C180
C180
C180
C180
C180
C180
C180
C180
C180
6300
1C00
0E00
0380
ENDCHAR
STARTCHAR R
ENCODING 82
SWIDTH 500 0
DWIDTH 10 0
BBX 9 13 1 0
BITMAP
FE00
6300
6180
6180
6180
6180
6300
7E00
6300
6300
6180
6180
F180
ENDCHAR
STARTCHAR S
ENCODING 83
SWIDTH 500 0
DWIDTH 10 0
BBX 9 13 1 0
BITMAP
3D00
6300
C180
C080
E000
7800
1E00
0700
8380
8180
C180
E300
BE00
ENDCHAR
STARTCHAR T
ENCODING 84
SWIDTH 500 0
DWIDTH 10 0
BBX 10 13 0 0
BITMAP
7F80
4C80
8C40
0C00
0C00
0C00
0C00
0C00
0C00
0C00
0C00
0C00
3F00
ENDCHAR
STARTCHAR U
ENCODING 85
SWIDTH 500 0
DWIDTH 10 0
BBX 10 13 0 0
BITMAP
F1C0
6080
6080
6080
6080
6080
6080
6080
6080
6080
6080
3100
1E00
ENDCHAR
STARTCHAR V
ENCODING 86
SWIDTH 500 0
DWIDTH 10 0
BBX 10 13 0 0
BITMAP
F1C0
6080
6080
6100
3100
3100
3200
1A00
1A00
1C00
0C00
0800
0800
ENDCHAR
STARTCHAR W
ENCODING 87
SWIDTH 500 0
DWIDTH 10 0
BBX 10 13 0 0
BITMAP
EEC0
6C40
6C40
6C40
6C40
3680
3680
3680
3680
1B00
1B00
1B00
1B00
ENDCHAR
STARTCHAR X
ENCODING 88
SWIDTH 500 0
DWIDTH 10 0
BBX 9 13 1 0
BITMAP
F380
6100
6100
3200
3200
1C00
0C00
0C00
1600
2600
2300
4300
E780
ENDCHAR
STARTCHAR Y
ENCODING 89
SWIDTH 500 0
DWIDTH 10 0
BBX 8 13 1 0
BITMAP
F7
62
62
62
34
34
34
18
18
18
18
18
3C
ENDCHAR
STARTCHAR Z
ENCODING 90
SWIDTH 500 0
DWIDTH 10 0
BBX 8 13 1 0
BITMAP
7F
C6
86
0C
0C
18
18
30
30
60
61
C3
FE
ENDCHAR
STARTCHAR bracketleft
ENCODING 91
SWIDTH 500 0
DWIDTH 10 0
BBX 5 16 5 -1
BITMAP
F8
C0
C0
C0
C0
C0
C0
C0
C0
C0
C0
C0
C0
C0
C0
F8
ENDCHAR
STARTCHAR backslash
ENCODING 92
SWIDTH 500 0
DWIDTH 10 0
BBX 9 16 0 -1
BITMAP
C000
C000
6000
6000
3000
3000
1800
1800
0C00
0C00
0600
0600
0300
0300
0180
0180
ENDCHAR
STARTCHAR bracketright
ENCODING 93
SWIDTH 500 0
DWIDTH 10 0
BBX 5 16 0 -1
BITMAP
F8
18
18
18
18
18
18
18
18
18
18
18
18
18
18
F8
ENDCHAR
STARTCHAR asciicircum
ENCODING 94
SWIDTH 500 0
DWIDTH 10 0
BBX 7 4 1 11
BITMAP
10
38
6C
C6
ENDCHAR
STARTCHAR underscore
ENCODING 95
SWIDTH 500 0
DWIDTH 10 0
BBX 10 1 0 -4
BITMAP
FFC0
ENDCHAR
STARTCHAR grave
ENCODING 96
SWIDTH 500 0
DWIDTH 10 0
BBX 3 6 4 8
BITMAP
20
40
C0
E0
E0
40
ENDCHAR
STARTCHAR a
ENCODING 97
SWIDTH 500 0
DWIDTH 10 0
BBX 9 9 1 0
BITMAP
7C00
C600
8300
7B00
C700
C300
C300
6700
3980
ENDCHAR
STARTCHAR b
ENCODING 98
SWIDTH 500 0
DWIDTH 10 0
BBX 9 13 1 0
BITMAP
E000
6000
6000
6000
6E00
7300
6180
6180
6180
6180
6180
6300
DE00
ENDCHAR
STARTCHAR c
ENCODING 99
SWIDTH 500 0
DWIDTH 10 0
BBX 8 9 1 0
BITMAP
3C
63
C1
C0
C0
C0
C1
63
3E
ENDCHAR
STARTCHAR d
ENCODING 100
SWIDTH 500 0
DWIDTH 10 0
BBX 9 13 1 0
BITMAP
0700
0300
0300
0300
3B00
6700
C300
C300
C300
C300
C300
6300
3D80
ENDCHAR
STARTCHAR e
ENCODING 101
SWIDTH 500 0
DWIDTH 10 0
BBX 9 9 1 0
BITMAP
3E00
6300
C180
C180
FF80
C000
C080
6180
3E00
ENDCHAR
STARTCHAR f
ENCODING 102
SWIDTH 500 0
DWIDTH 10 0
BBX 8 13 1 0
BITMAP
1E
33
33
30
FC
30
30
30
30
30
30
30
78
ENDCHAR
STARTCHAR g
ENCODING 103
SWIDTH 500 0
DWIDTH 10 0
BBX 9 13 1 -4
BITMAP
3D80
6600
C300
C300
6600
3C00
4000
3E00
6300
C180
C180
6300
3E00
ENDCHAR
STARTCHAR h
ENCODING 104
SWIDTH 500 0
DWIDTH 10 0
BBX 10 13 0 0
BITMAP
E000
6000
6000
6000
6E00
7300
6180
6180
6180
6180
6180
6180
F3C0
ENDCHAR
STARTCHAR i
ENCODING 105
SWIDTH 500 0
DWIDTH 10 0
BBX 4 13 3 0
BITMAP
60
F0
60
00
60
E0
60
60
60
60
60
60
F0
ENDCHAR
STARTCHAR j
ENCODING 106
SWIDTH 500 0
DWIDTH 10 0
BBX 7 17 1 -4
BITMAP
0C
1E
0C
00
0C
1C
0C
0C
0C
0C
0C
0C
0C
CC
CC
C8
70
ENDCHAR
STARTCHAR k
ENCODING 107
SWIDTH 500 0
DWIDTH 10 0
BBX 10 13 0 0
BITMAP
E000
6000
6000
6000
6780
6300
6200
6400
6C00
7600
6300
6180
F3C0
ENDCHAR
STARTCHAR l
ENCODING 108
SWIDTH 500 0
DWIDTH 10 0
BBX 4 13 3 0
BITMAP
E0
60
60
60
60
60
60
60
60
60
60
60
F0
ENDCHAR
STARTCHAR m
ENCODING 109
SWIDTH 500 0
DWIDTH 10 0
BBX 10 9 0 0
BITMAP
B700
6D80
6D80
6D80
6D80
6D80
6D80
6D80
EDC0
ENDCHAR
STARTCHAR n
ENCODING 110
SWIDTH 500 0
DWIDTH 10 0
BBX 9 9 1 0
BITMAP
DC00
6200
6300
6300
6300
6300
6300
6300
F780
ENDCHAR
STARTCHAR o
ENCODING 111
SWIDTH 500 0
DWIDTH 10 0
BBX 9 9 1 0
BITMAP
1C00
6300
C180
C180
C180
C180
C180
6300
1C00
ENDCHAR
STARTCHAR p
ENCODING 112
SWIDTH 500 0
DWIDTH 10 0
BBX 9 13 1 -4
BITMAP
DE00
6300
6180
6180
6180
6180
6180
7300
6E00
6000
6000
6000
F000
ENDCHAR
STARTCHAR q
ENCODING 113
SWIDTH 500 0
DWIDTH 10 0
BBX 9 13 1 -4
BITMAP
3D80
6700
C300
C300
C300
C300
C300
6700
3B00
0300
0300
0300
0780
ENDCHAR
STARTCHAR r
ENCODING 114
SWIDTH 500 0
DWIDTH 10 0
BBX 7 9 2 0
BITMAP
DC
72
60
60
60
60
60
60
F0
ENDCHAR
STARTCHAR s
ENCODING 115
SWIDTH 500 0
DWIDTH 10 0
BBX 8 9 1 0
BITMAP
7C
C6
C2
70
3C
0E
83
C3
7E
ENDCHAR
STARTCHAR t
ENCODING 116
SWIDTH 500 0
DWIDTH 10 0
BBX 7 13 1 0
BITMAP
10
30
30
FC
30
30
30
30
30
30
36
36
1C
ENDCHAR
STARTCHAR u
ENCODING 117
SWIDTH 500 0
DWIDTH 10 0
BBX 9 9 1 0
BITMAP
E700
6300
6300
6300
6300
6300
6300
2300
1D80
ENDCHAR
STARTCHAR v
ENCODING 118
SWIDTH 500 0
DWIDTH 10 0
BBX 9 9 1 0
BITMAP
F380
6100
6100
3200
3200
1C00
1C00
0C00
0800
ENDCHAR
STARTCHAR w
ENCODING 119
SWIDTH 500 0
DWIDTH 10 0
BBX 10 9 0 0
BITMAP
EEC0
6C40
6C40
3680
3680
3680
1B00
1B00
1B00
ENDCHAR
STARTCHAR x
ENCODING 120
SWIDTH 500 0
DWIDTH 10 0
BBX 9 9 1 0
BITMAP
F380
6100
3200
1C00
0800
1C00
2600
4300
E780
ENDCHAR
STARTCHAR y
ENCODING 121
SWIDTH 500 0
DWIDTH 10 0
BBX 9 12 1 -3
BITMAP
F380
6100
6100
3200
3200
1C00
1C00
0C00
0800
D800
D000
6000
ENDCHAR
STARTCHAR z
ENCODING 122
SWIDTH 500 0
DWIDTH 10 0
BBX 8 9 1 0
BITMAP
7F
C3
86
0C
18
30
61
C3
FE
ENDCHAR
STARTCHAR braceleft
ENCODING 123
SWIDTH 500 0
DWIDTH 10 0
BBX 5 17 4 -2
BITMAP
08
10
10
30
30
30
30
20
C0
20
30
30
30
30
10
10
08
ENDCHAR
STARTCHAR bar
ENCODING 124
SWIDTH 500 0
DWIDTH 10 0
BBX 2 20 5 -4
BITMAP
C0
C0
C0
C0
C0
C0
C0
C0
C0
C0
C0
C0
C0
C0
C0
C0
C0
C0
C0
C0
ENDCHAR
STARTCHAR braceright
ENCODING 125
SWIDTH 500 0
DWIDTH 10 0
BBX 5 17 1 -2
BITMAP
80
40
40
60
60
60
60
20
18
20
60
60
60
60
40
40
80
ENDCHAR
STARTCHAR asciitilde
ENCODING 126
SWIDTH 500 0
DWIDTH 10 0
BBX 10 2 0 7
BITMAP
78C0
C780
ENDCHAR
STARTCHAR char007f
ENCODING 127
SWIDTH 500 0
DWIDTH 10 0
BBX 0 0 0 -4
BITMAP
ENDCHAR
STARTCHAR Adieresis
ENCODING 128
SWIDTH 500 0
DWIDTH 10 0
BBX 0 0 0 -4
BITMAP
ENDCHAR
STARTCHAR Aring
ENCODING 129
SWIDTH 500 0
DWIDTH 10 0
BBX 4 3 3 5
BITMAP
60
F0
60
ENDCHAR
STARTCHAR Ccedilla
ENCODING 130
SWIDTH 500 0
DWIDTH 10 0
BBX 10 1 0 6
BITMAP
FFC0
ENDCHAR
STARTCHAR Eacute
ENCODING 131
SWIDTH 500 0
DWIDTH 10 0
BBX 0 0 0 -4
BITMAP
ENDCHAR
STARTCHAR Ntilde
ENCODING 132
SWIDTH 1000 0
DWIDTH 20 0
BBX 20 1 0 -4
BITMAP
FFFFF0
ENDCHAR
STARTCHAR Odieresis
ENCODING 133
SWIDTH 1000 0
DWIDTH 20 0
BBX 20 20 0 -4
BITMAP
FFFFF0
FFFFF0
FFFFF0
FFFFF0
FFFFF0
FFFFF0
FFFFF0
FFFFF0
FFFFF0
FFFFF0
FFFFF0
FFFFF0
FFFFF0
FFFFF0
FFFFF0
FFFFF0
FFFFF0
FFFFF0
FFFFF0
FFFFF0
ENDCHAR
STARTCHAR Udieresis
ENCODING 134
SWIDTH 1000 0
DWIDTH 20 0
BBX 20 20 0 -4
BITMAP
FFFFF0
FFFFF0
FFFFF0
FFFFF0
FFFFF0
FFFFF0
FFFFF0
FFFFF0
FFFFF0
FFFFF0
FFFFF0
FFFFF0
FFFFF0
FFFFF0
FFFFF0
FFFFF0
FFFFF0
FFFFF0
FFFFF0
FFFFF0
ENDCHAR
STARTCHAR aacute
ENCODING 135
SWIDTH 1000 0
DWIDTH 20 0
BBX 20 20 0 -4
BITMAP
FFFFF0
FFFFF0
FFFFF0
FFFFF0
FFFFF0
FFFFF0
FFFFF0
FFFFF0
FFFFF0
FFFFF0
FFFFF0
FFFFF0
FFFFF0
FFFFF0
FFFFF0
FFFFF0
FFFFF0
FFFFF0
FFFFF0
FFFFF0
ENDCHAR
STARTCHAR agrave
ENCODING 136
SWIDTH 1000 0
DWIDTH 20 0
BBX 20 20 0 -4
BITMAP
FFFFF0
FFFFF0
FFFFF0
FFFFF0
FFFFF0
FFFFF0
FFFFF0
FFFFF0
FFFFF0
FFFFF0
FFFFF0
FFFFF0
FFFFF0
FFFFF0
FFFFF0
FFFFF0
FFFFF0
FFFFF0
FFFFF0
FFFFF0
ENDCHAR
STARTCHAR acircumflex
ENCODING 137
SWIDTH 1000 0
DWIDTH 20 0
BBX 20 20 0 -4
BITMAP
FFFFF0
FFFFF0
FFFFF0
FFFFF0
FFFFF0
FFFFF0
FFFFF0
FFFFF0
FFFFF0
FFFFF0
FFFFF0
FFFFF0
FFFFF0
FFFFF0
FFFFF0
FFFFF0
FFFFF0
FFFFF0
FFFFF0
FFFFF0
ENDCHAR
STARTCHAR adieresis
ENCODING 138
SWIDTH 1000 0
DWIDTH 20 0
BBX 20 20 0 -4
BITMAP
FFFFF0
FFFFF0
FFFFF0
FFFFF0
FFFFF0
FFFFF0
FFFFF0
FFFFF0
FFFFF0
FFFFF0
FFFFF0
FFFFF0
FFFFF0
FFFFF0
FFFFF0
FFFFF0
FFFFF0
FFFFF0
FFFFF0
FFFFF0
ENDCHAR
STARTCHAR atilde
ENCODING 139
SWIDTH 1000 0
DWIDTH 20 0
BBX 20 20 0 -4
BITMAP
FFFFF0
FFFFF0
FFFFF0
FFFFF0
FFFFF0
FFFFF0
FFFFF0
FFFFF0
FFFFF0
FFFFF0
FFFFF0
FFFFF0
FFFFF0
FFFFF0
FFFFF0
FFFFF0
FFFFF0
FFFFF0
FFFFF0
FFFFF0
ENDCHAR
STARTCHAR aring
ENCODING 140
SWIDTH 1000 0
DWIDTH 20 0
BBX 20 20 0 -4
BITMAP
FFFFF0
FFFFF0
FFFFF0
FFFFF0
FFFFF0
FFFFF0
FFFFF0
FFFFF0
FFFFF0
FFFFF0
FFFFF0
FFFFF0
FFFFF0
FFFFF0
FFFFF0
FFFFF0
FFFFF0
FFFFF0
FFFFF0
FFFFF0
ENDCHAR
STARTCHAR ccedilla
ENCODING 141
SWIDTH 1000 0
DWIDTH 20 0
BBX 20 20 0 -4
BITMAP
FFFFF0
FFFFF0
FFFFF0
FFFFF0
FFFFF0
FFFFF0
FFFFF0
FFFFF0
FFFFF0
FFFFF0
FFFFF0
FFFFF0
FFFFF0
FFFFF0
FFFFF0
FFFFF0
FFFFF0
FFFFF0
FFFFF0
FFFFF0
ENDCHAR
STARTCHAR eacute
ENCODING 142
SWIDTH 1000 0
DWIDTH 20 0
BBX 20 20 0 -4
BITMAP
FFFFF0
FFFFF0
FFFFF0
FFFFF0
FFFFF0
FFFFF0
FFFFF0
FFFFF0
FFFFF0
FFFFF0
FFFFF0
FFFFF0
FFFFF0
FFFFF0
FFFFF0
FFFFF0
FFFFF0
FFFFF0
FFFFF0
FFFFF0
ENDCHAR
STARTCHAR egrave
ENCODING 143
SWIDTH 1000 0
DWIDTH 20 0
BBX 20 20 0 -4
BITMAP
FFFFF0
FFFFF0
FFFFF0
FFFFF0
FFFFF0
FFFFF0
FFFFF0
FFFFF0
FFFFF0
FFFFF0
FFFFF0
FFFFF0
FFFFF0
FFFFF0
FFFFF0
FFFFF0
FFFFF0
FFFFF0
FFFFF0
FFFFF0
ENDCHAR
STARTCHAR ecircumflex
ENCODING 144
SWIDTH 1000 0
DWIDTH 20 0
BBX 20 20 0 -4
BITMAP
FFFFF0
FFFFF0
FFFFF0
FFFFF0
FFFFF0
FFFFF0
FFFFF0
FFFFF0
FFFFF0
FFFFF0
FFFFF0
FFFFF0
FFFFF0
FFFFF0
FFFFF0
FFFFF0
FFFFF0
FFFFF0
FFFFF0
FFFFF0
ENDCHAR
STARTCHAR edieresis
ENCODING 145
SWIDTH 1000 0
DWIDTH 20 0
BBX 20 20 0 -4
BITMAP
FFFFF0
FFFFF0
FFFFF0
FFFFF0
FFFFF0
FFFFF0
FFFFF0
FFFFF0
FFFFF0
FFFFF0
FFFFF0
FFFFF0
FFFFF0
FFFFF0
FFFFF0
FFFFF0
FFFFF0
FFFFF0
FFFFF0
FFFFF0
ENDCHAR
STARTCHAR iacute
ENCODING 146
SWIDTH 1000 0
DWIDTH 20 0
BBX 20 20 0 -4
BITMAP
FFFFF0
FFFFF0
FFFFF0
FFFFF0
FFFFF0
FFFFF0
FFFFF0
FFFFF0
FFFFF0
FFFFF0
FFFFF0
FFFFF0
FFFFF0
FFFFF0
FFFFF0
FFFFF0
FFFFF0
FFFFF0
FFFFF0
FFFFF0
ENDCHAR
STARTCHAR igrave
ENCODING 147
SWIDTH 1000 0
DWIDTH 20 0
BBX 20 20 0 -4
BITMAP
FFFFF0
FFFFF0
FFFFF0
FFFFF0
FFFFF0
FFFFF0
FFFFF0
FFFFF0
FFFFF0
FFFFF0
FFFFF0
FFFFF0
FFFFF0
FFFFF0
FFFFF0
FFFFF0
FFFFF0
FFFFF0
FFFFF0
FFFFF0
ENDCHAR
STARTCHAR icircumflex
ENCODING 148
SWIDTH 1000 0
DWIDTH 20 0
BBX 20 20 0 -4
BITMAP
FFFFF0
FFFFF0
FFFFF0
FFFFF0
FFFFF0
FFFFF0
FFFFF0
FFFFF0
FFFFF0
FFFFF0
FFFFF0
FFFFF0
FFFFF0
FFFFF0
FFFFF0
FFFFF0
FFFFF0
FFFFF0
FFFFF0
FFFFF0
ENDCHAR
STARTCHAR idieresis
ENCODING 149
SWIDTH 1000 0
DWIDTH 20 0
BBX 20 20 0 -4
BITMAP
FFFFF0
FFFFF0
FFFFF0
FFFFF0
FFFFF0
FFFFF0
FFFFF0
FFFFF0
FFFFF0
FFFFF0
FFFFF0
FFFFF0
FFFFF0
FFFFF0
FFFFF0
FFFFF0
FFFFF0
FFFFF0
FFFFF0
FFFFF0
ENDCHAR
STARTCHAR ntilde
ENCODING 150
SWIDTH 1000 0
DWIDTH 20 0
BBX 20 20 0 -4
BITMAP
FFFFF0
FFFFF0
FFFFF0
FFFFF0
FFFFF0
FFFFF0
FFFFF0
FFFFF0
FFFFF0
FFFFF0
FFFFF0
FFFFF0
FFFFF0
FFFFF0
FFFFF0
FFFFF0
FFFFF0
FFFFF0
FFFFF0
FFFFF0
ENDCHAR
STARTCHAR oacute
ENCODING 151
SWIDTH 1000 0
DWIDTH 20 0
BBX 20 20 0 -4
BITMAP
FFFFF0
FFFFF0
FFFFF0
FFFFF0
FFFFF0
FFFFF0
FFFFF0
FFFFF0
FFFFF0
FFFFF0
FFFFF0
FFFFF0
FFFFF0
FFFFF0
FFFFF0
FFFFF0
FFFFF0
FFFFF0
FFFFF0
FFFFF0
ENDCHAR
STARTCHAR ograve
ENCODING 152
SWIDTH 1000 0
DWIDTH 20 0
BBX 20 20 0 -4
BITMAP
FFFFF0
FFFFF0
FFFFF0
FFFFF0
FFFFF0
FFFFF0
FFFFF0
FFFFF0
FFFFF0
FFFFF0
FFFFF0
FFFFF0
FFFFF0
FFFFF0
FFFFF0
FFFFF0
FFFFF0
FFFFF0
FFFFF0
FFFFF0
ENDCHAR
STARTCHAR ocircumflex
ENCODING 153
SWIDTH 1000 0
DWIDTH 20 0
BBX 20 20 0 -4
BITMAP
FFFFF0
FFFFF0
FFFFF0
FFFFF0
FFFFF0
FFFFF0
FFFFF0
FFFFF0
FFFFF0
FFFFF0
FFFFF0
FFFFF0
FFFFF0
FFFFF0
FFFFF0
FFFFF0
FFFFF0
FFFFF0
FFFFF0
FFFFF0
ENDCHAR
STARTCHAR odieresis
ENCODING 154
SWIDTH 1000 0
DWIDTH 20 0
BBX 20 20 0 -4
BITMAP
FFFFF0
FFFFF0
FFFFF0
FFFFF0
FFFFF0
FFFFF0
FFFFF0
FFFFF0
FFFFF0
FFFFF0
FFFFF0
FFFFF0
FFFFF0
FFFFF0
FFFFF0
FFFFF0
FFFFF0
FFFFF0
FFFFF0
FFFFF0
ENDCHAR
STARTCHAR otilde
ENCODING 155
SWIDTH 1000 0
DWIDTH 20 0
BBX 20 20 0 -4
BITMAP
FFFFF0
FFFFF0
FFFFF0
FFFFF0
FFFFF0
FFFFF0
FFFFF0
FFFFF0
FFFFF0
FFFFF0
FFFFF0
FFFFF0
FFFFF0
FFFFF0
FFFFF0
FFFFF0
FFFFF0
FFFFF0
FFFFF0
FFFFF0
ENDCHAR
STARTCHAR uacute
ENCODING 156
SWIDTH 1000 0
DWIDTH 20 0
BBX 20 20 0 -4
BITMAP
FFFFF0
FFFFF0
FFFFF0
FFFFF0
FFFFF0
FFFFF0
FFFFF0
FFFFF0
FFFFF0
FFFFF0
FFFFF0
FFFFF0
FFFFF0
FFFFF0
FFFFF0
FFFFF0
FFFFF0
FFFFF0
FFFFF0
FFFFF0
ENDCHAR
STARTCHAR ugrave
ENCODING 157
SWIDTH 1000 0
DWIDTH 20 0
BBX 20 20 0 -4
BITMAP
FFFFF0
FFFFF0
FFFFF0
FFFFF0
FFFFF0
FFFFF0
FFFFF0
FFFFF0
FFFFF0
FFFFF0
FFFFF0
FFFFF0
FFFFF0
FFFFF0
FFFFF0
FFFFF0
FFFFF0
FFFFF0
FFFFF0
FFFFF0
ENDCHAR
STARTCHAR ucircumflex
ENCODING 158
SWIDTH 1000 0
DWIDTH 20 0
BBX 20 20 0 -4
BITMAP
FFFFF0
FFFFF0
FFFFF0
FFFFF0
FFFFF0
FFFFF0
FFFFF0
FFFFF0
FFFFF0
FFFFF0
FFFFF0
FFFFF0
FFFFF0
FFFFF0
FFFFF0
FFFFF0
FFFFF0
FFFFF0
FFFFF0
FFFFF0
ENDCHAR
STARTCHAR udieresis
ENCODING 159
SWIDTH 1000 0
DWIDTH 20 0
BBX 20 20 0 -4
BITMAP
FFFFF0
FFFFF0
FFFFF0
FFFFF0
FFFFF0
FFFFF0
FFFFF0
FFFFF0
FFFFF0
FFFFF0
FFFFF0
FFFFF0
FFFFF0
FFFFF0
FFFFF0
FFFFF0
FFFFF0
FFFFF0
FFFFF0
FFFFF0
ENDCHAR
STARTCHAR dagger
ENCODING 160
SWIDTH 1000 0
DWIDTH 20 0
BBX 20 20 0 -4
BITMAP
FFFFF0
FFFFF0
FFFFF0
FFFFF0
FFFFF0
FFFFF0
FFFFF0
FFFFF0
FFFFF0
FFFFF0
FFFFF0
FFFFF0
FFFFF0
FFFFF0
FFFFF0
FFFFF0
FFFFF0
FFFFF0
FFFFF0
FFFFF0
ENDCHAR
STARTCHAR degree
ENCODING 161
SWIDTH 500 0
DWIDTH 10 0
BBX 0 0 0 -4
BITMAP
ENDCHAR
STARTCHAR cent
ENCODING 162
SWIDTH 500 0
DWIDTH 10 0
BBX 0 0 0 -4
BITMAP
ENDCHAR
STARTCHAR sterling
ENCODING 163
SWIDTH 500 0
DWIDTH 10 0
BBX 0 0 0 -4
BITMAP
ENDCHAR
STARTCHAR section
ENCODING 164
SWIDTH 500 0
DWIDTH 10 0
BBX 0 0 0 -4
BITMAP
ENDCHAR
STARTCHAR bullet
ENCODING 165
SWIDTH 500 0
DWIDTH 10 0
BBX 4 0 2 -4
BITMAP
ENDCHAR
STARTCHAR paragraph
ENCODING 166
SWIDTH 500 0
DWIDTH 10 0
BBX 4 0 2 -4
BITMAP
ENDCHAR
STARTCHAR germandbls
ENCODING 167
SWIDTH 500 0
DWIDTH 10 0
BBX 4 0 2 -4
BITMAP
ENDCHAR
STARTCHAR registered
ENCODING 168
SWIDTH 500 0
DWIDTH 10 0
BBX 4 0 2 -4
BITMAP
ENDCHAR
STARTCHAR copyright
ENCODING 169
SWIDTH 500 0
DWIDTH 10 0
BBX 4 0 2 -4
BITMAP
ENDCHAR
STARTCHAR trademark
ENCODING 170
SWIDTH 500 0
DWIDTH 10 0
BBX 4 0 2 -4
BITMAP
ENDCHAR
STARTCHAR acute
ENCODING 171
SWIDTH 500 0
DWIDTH 10 0
BBX 4 0 2 -4
BITMAP
ENDCHAR
STARTCHAR dieresis
ENCODING 172
SWIDTH 500 0
DWIDTH 10 0
BBX 4 0 2 -4
BITMAP
ENDCHAR
STARTCHAR notequal
ENCODING 173
SWIDTH 500 0
DWIDTH 10 0
BBX 4 0 2 -4
BITMAP
ENDCHAR
STARTCHAR AE
ENCODING 174
SWIDTH 500 0
DWIDTH 10 0
BBX 4 0 2 -4
BITMAP
ENDCHAR
STARTCHAR Oslash
ENCODING 175
SWIDTH 500 0
DWIDTH 10 0
BBX 4 0 2 -4
BITMAP
ENDCHAR
STARTCHAR infinity
ENCODING 176
SWIDTH 500 0
DWIDTH 10 0
BBX 4 0 2 -4
BITMAP
ENDCHAR
STARTCHAR plusminus
ENCODING 177
SWIDTH 500 0
DWIDTH 10 0
BBX 4 0 2 -4
BITMAP
ENDCHAR
STARTCHAR lessequal
ENCODING 178
SWIDTH 500 0
DWIDTH 10 0
BBX 4 0 2 -4
BITMAP
ENDCHAR
STARTCHAR greaterequal
ENCODING 179
SWIDTH 500 0
DWIDTH 10 0
BBX 4 0 2 -4
BITMAP
ENDCHAR
STARTCHAR yen
ENCODING 180
SWIDTH 500 0
DWIDTH 10 0
BBX 4 0 2 -4
BITMAP
ENDCHAR
STARTCHAR mu
ENCODING 181
SWIDTH 500 0
DWIDTH 10 0
BBX 4 0 2 -4
BITMAP
ENDCHAR
STARTCHAR partialdiff
ENCODING 182
SWIDTH 500 0
DWIDTH 10 0
BBX 4 0 2 -4
BITMAP
ENDCHAR
STARTCHAR summation
ENCODING 183
SWIDTH 500 0
DWIDTH 10 0
BBX 4 0 2 -4
BITMAP
ENDCHAR
STARTCHAR product
ENCODING 184
SWIDTH 500 0
DWIDTH 10 0
BBX 4 0 2 -4
BITMAP
ENDCHAR
STARTCHAR pi
ENCODING 185
SWIDTH 500 0
DWIDTH 10 0
BBX 4 0 2 -4
BITMAP
ENDCHAR
STARTCHAR integral
ENCODING 186
SWIDTH 500 0
DWIDTH 10 0
BBX 4 0 2 -4
BITMAP
ENDCHAR
STARTCHAR ordfeminine
ENCODING 187
SWIDTH 500 0
DWIDTH 10 0
BBX 4 0 2 -4
BITMAP
ENDCHAR
STARTCHAR ordmasculine
ENCODING 188
SWIDTH 500 0
DWIDTH 10 0
BBX 4 0 2 -4
BITMAP
ENDCHAR
STARTCHAR Omega
ENCODING 189
SWIDTH 500 0
DWIDTH 10 0
BBX 4 0 2 -4
BITMAP
ENDCHAR
STARTCHAR ae
ENCODING 190
SWIDTH 500 0
DWIDTH 10 0
BBX 4 0 2 -4
BITMAP
ENDCHAR
STARTCHAR oslash
ENCODING 191
SWIDTH 500 0
DWIDTH 10 0
BBX 4 0 2 -4
BITMAP
ENDCHAR
STARTCHAR questiondown
ENCODING 192
SWIDTH 500 0
DWIDTH 10 0
BBX 4 0 2 -4
BITMAP
ENDCHAR
STARTCHAR exclamdown
ENCODING 193
SWIDTH 500 0
DWIDTH 10 0
BBX 4 0 2 -4
BITMAP
ENDCHAR
STARTCHAR logicalnot
ENCODING 194
SWIDTH 500 0
DWIDTH 10 0
BBX 4 0 2 -4
BITMAP
ENDCHAR
STARTCHAR radical
ENCODING 195
SWIDTH 500 0
DWIDTH 10 0
BBX 4 0 2 -4
BITMAP
ENDCHAR
STARTCHAR florin
ENCODING 196
SWIDTH 500 0
DWIDTH 10 0
BBX 4 0 2 -4
BITMAP
ENDCHAR
STARTCHAR approxequal
ENCODING 197
SWIDTH 500 0
DWIDTH 10 0
BBX 4 0 2 -4
BITMAP
ENDCHAR
STARTCHAR Delta
ENCODING 198
SWIDTH 500 0
DWIDTH 10 0
BBX 4 0 2 -4
BITMAP
ENDCHAR
STARTCHAR guillemotleft
ENCODING 199
SWIDTH 500 0
DWIDTH 10 0
BBX 4 0 2 -4
BITMAP
ENDCHAR
STARTCHAR guillemotright
ENCODING 200
SWIDTH 500 0
DWIDTH 10 0
BBX 4 0 2 -4
BITMAP
ENDCHAR
STARTCHAR ellipsis
ENCODING 201
SWIDTH 500 0
DWIDTH 10 0
BBX 4 0 2 -4
BITMAP
ENDCHAR
STARTCHAR nbspace
ENCODING 202
SWIDTH 500 0
DWIDTH 10 0
BBX 4 0 2 -4
BITMAP
ENDCHAR
STARTCHAR Agrave
ENCODING 203
SWIDTH 500 0
DWIDTH 10 0
BBX 4 0 2 -4
BITMAP
ENDCHAR
STARTCHAR Atilde
ENCODING 204
SWIDTH 500 0
DWIDTH 10 0
BBX 4 0 2 -4
BITMAP
ENDCHAR
STARTCHAR Otilde
ENCODING 205
SWIDTH 500 0
DWIDTH 10 0
BBX 4 0 2 -4
BITMAP
ENDCHAR
STARTCHAR OE
ENCODING 206
SWIDTH 500 0
DWIDTH 10 0
BBX 4 0 2 -4
BITMAP
ENDCHAR
STARTCHAR oe
ENCODING 207
SWIDTH 500 0
DWIDTH 10 0
BBX 4 0 2 -4
BITMAP
ENDCHAR
STARTCHAR endash
ENCODING 208
SWIDTH 500 0
DWIDTH 10 0
BBX 4 0 2 -4
BITMAP
ENDCHAR
STARTCHAR emdash
ENCODING 209
SWIDTH 500 0
DWIDTH 10 0
BBX 4 0 2 -4
BITMAP
ENDCHAR
STARTCHAR quotedblleft
ENCODING 210
SWIDTH 500 0
DWIDTH 10 0
BBX 4 0 2 -4
BITMAP
ENDCHAR
STARTCHAR quotedblright
ENCODING 211
SWIDTH 500 0
DWIDTH 10 0
BBX 4 0 2 -4
BITMAP
ENDCHAR
STARTCHAR quoteleft
ENCODING 212
SWIDTH 500 0
DWIDTH 10 0
BBX 4 0 2 -4
BITMAP
ENDCHAR
STARTCHAR quoteright
ENCODING 213
SWIDTH 500 0
DWIDTH 10 0
BBX 4 0 2 -4
BITMAP
ENDCHAR
STARTCHAR divide
ENCODING 214
SWIDTH 500 0
DWIDTH 10 0
BBX 4 0 2 -4
BITMAP
ENDCHAR
STARTCHAR lozenge
ENCODING 215
SWIDTH 500 0
DWIDTH 10 0
BBX 4 0 2 -4
BITMAP
ENDCHAR
STARTCHAR ydieresis
ENCODING 216
SWIDTH 500 0
DWIDTH 10 0
BBX 4 0 2 -4
BITMAP
ENDCHAR
STARTCHAR Ydieresis
ENCODING 217
SWIDTH 500 0
DWIDTH 10 0
BBX 4 0 2 -4
BITMAP
ENDCHAR
STARTCHAR fraction
ENCODING 218
SWIDTH 500 0
DWIDTH 10 0
BBX 4 0 2 -4
BITMAP
ENDCHAR
STARTCHAR currency
ENCODING 219
SWIDTH 500 0
DWIDTH 10 0
BBX 4 0 2 -4
BITMAP
ENDCHAR
STARTCHAR guilsinglleft
ENCODING 220
SWIDTH 500 0
DWIDTH 10 0
BBX 4 0 2 -4
BITMAP
ENDCHAR
STARTCHAR guilsinglright
ENCODING 221
SWIDTH 500 0
DWIDTH 10 0
BBX 4 0 2 -4
BITMAP
ENDCHAR
STARTCHAR fi
ENCODING 222
SWIDTH 500 0
DWIDTH 10 0
BBX 4 0 2 -4
BITMAP
ENDCHAR
STARTCHAR fl
ENCODING 223
SWIDTH 500 0
DWIDTH 10 0
BBX 4 0 2 -4
BITMAP
ENDCHAR
STARTCHAR daggerdbl
ENCODING 224
SWIDTH 500 0
DWIDTH 10 0
BBX 4 0 2 -4
BITMAP
ENDCHAR
STARTCHAR periodcentered
ENCODING 225
SWIDTH 500 0
DWIDTH 10 0
BBX 4 0 2 -4
BITMAP
ENDCHAR
STARTCHAR quotesinglbase
ENCODING 226
SWIDTH 500 0
DWIDTH 10 0
BBX 4 0 2 -4
BITMAP
ENDCHAR
STARTCHAR quotedblbase
ENCODING 227
SWIDTH 500 0
DWIDTH 10 0
BBX 4 0 2 -4
BITMAP
ENDCHAR
STARTCHAR perthousand
ENCODING 228
SWIDTH 500 0
DWIDTH 10 0
BBX 4 0 2 -4
BITMAP
ENDCHAR
STARTCHAR Acircumflex
ENCODING 229
SWIDTH 500 0
DWIDTH 10 0
BBX 4 0 2 -4
BITMAP
ENDCHAR
STARTCHAR Ecircumflex
ENCODING 230
SWIDTH 500 0
DWIDTH 10 0
BBX 4 0 2 -4
BITMAP
ENDCHAR
STARTCHAR Aacute
ENCODING 231
SWIDTH 500 0
DWIDTH 10 0
BBX 4 0 2 -4
BITMAP
ENDCHAR
STARTCHAR Edieresis
ENCODING 232
SWIDTH 500 0
DWIDTH 10 0
BBX 4 0 2 -4
BITMAP
ENDCHAR
STARTCHAR Egrave
ENCODING 233
SWIDTH 500 0
DWIDTH 10 0
BBX 4 0 2 -4
BITMAP
ENDCHAR
STARTCHAR Iacute
ENCODING 234
SWIDTH 500 0
DWIDTH 10 0
BBX 4 0 2 -4
BITMAP
ENDCHAR
STARTCHAR Icircumflex
ENCODING 235
SWIDTH 500 0
DWIDTH 10 0
BBX 4 0 2 -4
BITMAP
ENDCHAR
STARTCHAR Idieresis
ENCODING 236
SWIDTH 500 0
DWIDTH 10 0
BBX 4 0 2 -4
BITMAP
ENDCHAR
STARTCHAR Igrave
ENCODING 237
SWIDTH 500 0
DWIDTH 10 0
BBX 4 0 2 -4
BITMAP
ENDCHAR
STARTCHAR Oacute
ENCODING 238
SWIDTH 500 0
DWIDTH 10 0
BBX 4 0 2 -4
BITMAP
ENDCHAR
STARTCHAR Ocircumflex
ENCODING 239
SWIDTH 500 0
DWIDTH 10 0
BBX 4 0 2 -4
BITMAP
ENDCHAR
STARTCHAR apple
ENCODING 240
SWIDTH 500 0
DWIDTH 10 0
BBX 4 0 2 -4
BITMAP
ENDCHAR
STARTCHAR Ograve
ENCODING 241
SWIDTH 500 0
DWIDTH 10 0
BBX 4 0 2 -4
BITMAP
ENDCHAR
STARTCHAR Uacute
ENCODING 242
SWIDTH 500 0
DWIDTH 10 0
BBX 4 0 2 -4
BITMAP
ENDCHAR
STARTCHAR Ucircumflex
ENCODING 243
SWIDTH 500 0
DWIDTH 10 0
BBX 4 0 2 -4
BITMAP
ENDCHAR
STARTCHAR Ugrave
ENCODING 244
SWIDTH 500 0
DWIDTH 10 0
BBX 4 0 2 -4
BITMAP
ENDCHAR
STARTCHAR dotlessi
ENCODING 245
SWIDTH 500 0
DWIDTH 10 0
BBX 0 0 9 -4
BITMAP
ENDCHAR
STARTCHAR circumflex
ENCODING 246
SWIDTH 500 0
DWIDTH 10 0
BBX 0 0 9 -4
BITMAP
ENDCHAR
STARTCHAR tilde
ENCODING 247
SWIDTH 500 0
DWIDTH 10 0
BBX 0 0 9 -4
BITMAP
ENDCHAR
STARTCHAR macron
ENCODING 248
SWIDTH 500 0
DWIDTH 10 0
BBX 0 0 9 -4
BITMAP
ENDCHAR
STARTCHAR breve
ENCODING 249
SWIDTH 500 0
DWIDTH 10 0
BBX 0 0 9 -4
BITMAP
ENDCHAR
STARTCHAR dotaccent
ENCODING 250
SWIDTH 500 0
DWIDTH 10 0
BBX 0 0 9 -4
BITMAP
ENDCHAR
STARTCHAR ring
ENCODING 251
SWIDTH 500 0
DWIDTH 10 0
BBX 0 0 9 -4
BITMAP
ENDCHAR
STARTCHAR cedilla
ENCODING 252
SWIDTH 500 0
DWIDTH 10 0
BBX 0 0 0 -4
BITMAP
ENDCHAR
STARTCHAR hungarumlaut
ENCODING 253
SWIDTH 500 0
DWIDTH 10 0
BBX 0 0 0 -4
BITMAP
ENDCHAR
STARTCHAR ogonek
ENCODING 254
SWIDTH 500 0
DWIDTH 10 0
BBX 0 0 0 -4
BITMAP
ENDCHAR
STARTCHAR caron
ENCODING 255
SWIDTH 1000 0
DWIDTH 20 0
BBX 18 3 1 3
BITMAP
60C180
F1E3C0
60C180
ENDCHAR
ENDFONT
