STARTFONT 2.1
FONT -Fondu-#PC명조-Medium-R-Normal--24-230-75-75-P-135-MacRoman-1
SIZE 23 75 75
FONTBOUNDINGBOX 24 24 0 -5
COMMENT Created by Fondu from a mac NFNT/FONT resource
STARTPROPERTIES 17
FOUNDRY "Fondu"
FAMILY_NAME "#PC명조"
WEIGHT_NAME "Medium"
SLANT "R"
SETWIDTH_NAME "Normal"
ADD_STYLE_NAME ""
PIXEL_SIZE 24
POINT_SIZE 230
RESOLUTION_X 75
RESOLUTION_Y 75
SPACING "P"
AVERAGE_WIDTH 135
CHARSET_REGISTRY "MacRoman"
CHARSET_ENCODING "1"
FONT_ASCENT 19
FONT_DESCENT 5
FACE_NAME "#PC명조"
ENDPROPERTIES
CHARS 229
STARTCHAR char0011
ENCODING 17
SWIDTH 500 0
DWIDTH 12 0
BBX 11 17 0 0
BITMAP
71C0
FBE0
DB60
DB60
DB60
DB60
FFE0
7FC0
1B00
7FC0
FFE0
DB60
DB60
DB60
DB60
FBE0
71C0
ENDCHAR
STARTCHAR char0012
ENCODING 18
SWIDTH 500 0
DWIDTH 12 0
BBX 12 14 0 0
BITMAP
0070
0060
00E0
00C0
01C0
0180
0380
0300
0700
C600
6E00
3C00
1C00
0800
ENDCHAR
STARTCHAR char0013
ENCODING 19
SWIDTH 500 0
DWIDTH 12 0
BBX 12 16 0 0
BITMAP
F770
6620
6620
6620
6620
6620
FFF0
FFF0
3740
3740
3740
3B40
1980
1980
1980
1980
ENDCHAR
STARTCHAR char0014
ENCODING 20
SWIDTH 500 0
DWIDTH 12 0
BBX 12 19 0 -1
BITMAP
0180
0300
0300
1A60
3FF0
7FF0
7FE0
FFC0
FFC0
FFC0
FFC0
FFE0
FFF0
FFF0
FFF0
7FF0
7FF0
3FE0
19C0
ENDCHAR
STARTCHAR onehalf
ENCODING 21
SWIDTH 500 0
DWIDTH 12 0
BBX 9 19 2 -3
BITMAP
3F80
7C80
FC80
FC80
FC80
FC80
FC80
FC80
7C80
3C80
0480
0480
0480
0480
0480
0480
0480
0480
0480
ENDCHAR
STARTCHAR space
ENCODING 32
SWIDTH 500 0
DWIDTH 12 0
BBX 0 0 0 -5
BITMAP
ENDCHAR
STARTCHAR exclam
ENCODING 33
SWIDTH 500 0
DWIDTH 12 0
BBX 3 17 4 -1
BITMAP
40
E0
E0
E0
E0
E0
E0
E0
40
40
40
40
00
00
40
E0
40
ENDCHAR
STARTCHAR quotedbl
ENCODING 34
SWIDTH 500 0
DWIDTH 12 0
BBX 7 6 2 12
BITMAP
44
EE
EE
66
44
88
ENDCHAR
STARTCHAR numbersign
ENCODING 35
SWIDTH 500 0
DWIDTH 12 0
BBX 12 14 0 1
BITMAP
0CC0
0CC0
0CC0
0CC0
7FF0
1980
1980
1980
1980
FFE0
3300
3300
3300
3300
ENDCHAR
STARTCHAR dollar
ENCODING 36
SWIDTH 500 0
DWIDTH 12 0
BBX 10 20 1 -2
BITMAP
0400
0400
1E80
3580
64C0
6440
6440
7400
3C00
1E00
0700
0780
05C0
84C0
84C0
C4C0
E580
9F00
0400
0400
ENDCHAR
STARTCHAR percent
ENCODING 37
SWIDTH 500 0
DWIDTH 12 0
BBX 12 15 0 0
BITMAP
3800
6C10
CC30
CC60
D8C0
7180
0300
0600
0C00
18E0
31B0
6330
C330
8360
01C0
ENDCHAR
STARTCHAR ampersand
ENCODING 38
SWIDTH 500 0
DWIDTH 12 0
BBX 12 17 0 0
BITMAP
0E00
1B00
3180
2180
2180
2300
1600
1C70
3420
6620
6620
C320
C340
C1C0
C0D0
61F0
1E60
ENDCHAR
STARTCHAR quotesingle
ENCODING 39
SWIDTH 500 0
DWIDTH 12 0
BBX 3 6 4 12
BITMAP
40
E0
E0
60
40
80
ENDCHAR
STARTCHAR parenleft
ENCODING 40
SWIDTH 500 0
DWIDTH 12 0
BBX 5 22 6 -4
BITMAP
08
10
30
20
60
60
40
C0
C0
C0
C0
C0
C0
C0
C0
40
60
60
20
30
10
08
ENDCHAR
STARTCHAR parenright
ENCODING 41
SWIDTH 500 0
DWIDTH 12 0
BBX 5 22 1 -4
BITMAP
80
40
60
20
30
30
10
18
18
18
18
18
18
18
18
10
30
30
20
60
40
80
ENDCHAR
STARTCHAR asterisk
ENCODING 42
SWIDTH 500 0
DWIDTH 12 0
BBX 7 7 3 9
BITMAP
10
D6
7C
38
7C
D6
10
ENDCHAR
STARTCHAR plus
ENCODING 43
SWIDTH 500 0
DWIDTH 12 0
BBX 9 9 2 3
BITMAP
0800
0800
0800
0800
FF80
0800
0800
0800
0800
ENDCHAR
STARTCHAR comma
ENCODING 44
SWIDTH 500 0
DWIDTH 12 0
BBX 3 6 2 -4
BITMAP
40
E0
E0
60
40
80
ENDCHAR
STARTCHAR hyphen
ENCODING 45
SWIDTH 500 0
DWIDTH 12 0
BBX 8 1 2 7
BITMAP
FF
ENDCHAR
STARTCHAR period
ENCODING 46
SWIDTH 500 0
DWIDTH 12 0
BBX 4 3 1 -2
BITMAP
60
F0
60
ENDCHAR
STARTCHAR slash
ENCODING 47
SWIDTH 500 0
DWIDTH 12 0
BBX 11 22 1 -4
BITMAP
0020
0020
0040
0040
0080
0080
0100
0100
0200
0200
0400
0400
0800
0800
1000
1000
2000
2000
4000
4000
8000
8000
ENDCHAR
STARTCHAR zero
ENCODING 48
SWIDTH 500 0
DWIDTH 12 0
BBX 10 16 1 0
BITMAP
1E00
3300
6180
4080
C0C0
C1C0
C2C0
C4C0
C8C0
D0C0
E0C0
C0C0
4080
6180
3300
1E00
ENDCHAR
STARTCHAR one
ENCODING 49
SWIDTH 500 0
DWIDTH 12 0
BBX 4 16 4 0
BITMAP
60
E0
60
60
60
60
60
60
60
60
60
60
60
60
60
F0
ENDCHAR
STARTCHAR two
ENCODING 50
SWIDTH 500 0
DWIDTH 12 0
BBX 11 16 0 0
BITMAP
1F00
3180
60C0
60C0
60C0
00C0
0180
0180
0300
0600
0600
0C00
1800
3060
60C0
FFC0
ENDCHAR
STARTCHAR three
ENCODING 51
SWIDTH 500 0
DWIDTH 12 0
BBX 10 16 1 0
BITMAP
3E00
6300
C180
C180
0180
0180
0300
1E00
0180
00C0
00C0
C0C0
C0C0
C0C0
6180
3F00
ENDCHAR
STARTCHAR four
ENCODING 52
SWIDTH 500 0
DWIDTH 12 0
BBX 10 16 1 0
BITMAP
0100
0300
0300
0700
0B00
0B00
1300
2300
2300
4300
8300
FFC0
0300
0300
0300
0780
ENDCHAR
STARTCHAR five
ENCODING 53
SWIDTH 500 0
DWIDTH 12 0
BBX 10 17 1 0
BITMAP
0040
1F80
3F00
2000
6000
4000
7800
C600
8300
0180
0180
0180
C180
C180
C180
6300
3E00
ENDCHAR
STARTCHAR six
ENCODING 54
SWIDTH 500 0
DWIDTH 12 0
BBX 10 16 1 0
BITMAP
0780
1C00
3000
6000
4000
C000
DE00
E180
C0C0
C0C0
C0C0
C0C0
C0C0
C0C0
6180
1E00
ENDCHAR
STARTCHAR seven
ENCODING 55
SWIDTH 500 0
DWIDTH 12 0
BBX 11 16 1 0
BITMAP
7FE0
6060
C0C0
C0C0
C0C0
0180
0180
0300
0300
0300
0600
0600
0600
0C00
0C00
0C00
ENDCHAR
STARTCHAR eight
ENCODING 56
SWIDTH 500 0
DWIDTH 12 0
BBX 10 16 1 0
BITMAP
1E00
3300
6180
6180
6180
6180
3300
1E00
6180
C0C0
C0C0
C0C0
C0C0
C0C0
6180
3F00
ENDCHAR
STARTCHAR nine
ENCODING 57
SWIDTH 500 0
DWIDTH 12 0
BBX 10 16 1 0
BITMAP
3F00
6180
C0C0
C0C0
C0C0
C0C0
C0C0
C0C0
61C0
3EC0
00C0
0180
0100
0300
0E00
7800
ENDCHAR
STARTCHAR colon
ENCODING 58
SWIDTH 500 0
DWIDTH 12 0
BBX 4 13 4 1
BITMAP
60
F0
60
00
00
00
00
00
00
00
60
F0
60
ENDCHAR
STARTCHAR semicolon
ENCODING 59
SWIDTH 500 0
DWIDTH 12 0
BBX 4 15 4 -1
BITMAP
60
F0
60
00
00
00
00
00
00
40
E0
E0
60
40
80
ENDCHAR
STARTCHAR less
ENCODING 60
SWIDTH 500 0
DWIDTH 12 0
BBX 12 11 0 3
BITMAP
0070
01C0
0700
1C00
7000
C000
7000
1C00
0700
01C0
0070
ENDCHAR
STARTCHAR equal
ENCODING 61
SWIDTH 500 0
DWIDTH 12 0
BBX 10 5 1 5
BITMAP
FFC0
0000
0000
0000
FFC0
ENDCHAR
STARTCHAR greater
ENCODING 62
SWIDTH 500 0
DWIDTH 12 0
BBX 12 11 0 3
BITMAP
E000
3800
0E00
0380
00E0
0030
00E0
0380
0E00
3800
E000
ENDCHAR
STARTCHAR question
ENCODING 63
SWIDTH 500 0
DWIDTH 12 0
BBX 9 17 1 -1
BITMAP
3E00
6300
C180
C180
C180
0300
0300
0600
0C00
0C00
0C00
0C00
0000
0000
0C00
1E00
0C00
ENDCHAR
STARTCHAR at
ENCODING 64
SWIDTH 500 0
DWIDTH 12 0
BBX 12 15 0 -1
BITMAP
0700
18C0
3060
6060
6330
CCB0
C8B0
D0B0
D130
D360
CEC0
6000
6020
30C0
0F00
ENDCHAR
STARTCHAR A
ENCODING 65
SWIDTH 500 0
DWIDTH 12 0
BBX 12 16 0 0
BITMAP
0600
0600
0600
0600
0B00
0B00
0B00
1180
1180
1F80
20C0
20C0
20C0
4060
4060
E0F0
ENDCHAR
STARTCHAR B
ENCODING 66
SWIDTH 500 0
DWIDTH 12 0
BBX 11 16 0 0
BITMAP
FE00
6180
60C0
60C0
60C0
60C0
6180
7F00
60C0
6060
6060
6060
6060
6060
60C0
FF00
ENDCHAR
STARTCHAR C
ENCODING 67
SWIDTH 500 0
DWIDTH 12 0
BBX 11 16 0 0
BITMAP
0E00
31A0
6060
6060
C020
C020
C000
C000
C000
C000
C000
C000
6020
6060
30C0
0F00
ENDCHAR
STARTCHAR D
ENCODING 68
SWIDTH 500 0
DWIDTH 12 0
BBX 11 16 0 0
BITMAP
FE00
6180
60C0
60C0
6060
6060
6060
6060
6060
6060
6060
6060
60C0
60C0
6180
FE00
ENDCHAR
STARTCHAR E
ENCODING 69
SWIDTH 500 0
DWIDTH 12 0
BBX 11 16 0 0
BITMAP
FF80
60C0
6040
6000
6080
6080
6180
7F80
6180
6080
6080
6000
6020
6040
60C0
FF80
ENDCHAR
STARTCHAR F
ENCODING 70
SWIDTH 500 0
DWIDTH 12 0
BBX 11 16 0 0
BITMAP
FFE0
3060
3020
3000
3040
3040
30C0
3FC0
30C0
3040
3040
3000
3000
3000
3000
FC00
ENDCHAR
STARTCHAR G
ENCODING 71
SWIDTH 500 0
DWIDTH 12 0
BBX 12 16 0 0
BITMAP
0F20
30E0
6060
6020
C020
C000
C000
C000
C000
C1F0
C060
C060
6060
6040
30C0
0F00
ENDCHAR
STARTCHAR H
ENCODING 72
SWIDTH 500 0
DWIDTH 12 0
BBX 11 16 0 0
BITMAP
F1E0
60C0
60C0
60C0
60C0
60C0
60C0
7FC0
60C0
60C0
60C0
60C0
60C0
60C0
60C0
F1E0
ENDCHAR
STARTCHAR I
ENCODING 73
SWIDTH 500 0
DWIDTH 12 0
BBX 6 16 3 0
BITMAP
FC
30
30
30
30
30
30
30
30
30
30
30
30
30
30
FC
ENDCHAR
STARTCHAR J
ENCODING 74
SWIDTH 500 0
DWIDTH 12 0
BBX 9 16 1 0
BITMAP
1F80
0600
0600
0600
0600
0600
0600
0600
0600
0600
0600
0600
C600
C600
4400
3800
ENDCHAR
STARTCHAR K
ENCODING 75
SWIDTH 500 0
DWIDTH 12 0
BBX 12 16 0 0
BITMAP
F1E0
60C0
6180
6300
6600
6C00
7800
7000
7000
7800
6C00
6600
6300
6180
60C0
F1F0
ENDCHAR
STARTCHAR L
ENCODING 76
SWIDTH 500 0
DWIDTH 12 0
BBX 11 16 0 0
BITMAP
F000
6000
6000
6000
6000
6000
6000
6000
6000
6000
6000
6000
6020
6040
60C0
FF80
ENDCHAR
STARTCHAR M
ENCODING 77
SWIDTH 500 0
DWIDTH 12 0
BBX 12 16 0 0
BITMAP
E0F0
60E0
60E0
60E0
71E0
71E0
5160
5160
5B60
5B60
4A60
4A60
4E60
4E60
4460
E4F0
ENDCHAR
STARTCHAR N
ENCODING 78
SWIDTH 500 0
DWIDTH 12 0
BBX 11 16 0 0
BITMAP
E1E0
60C0
70C0
70C0
50C0
58C0
48C0
48C0
4CC0
44C0
46C0
42C0
43C0
41C0
41C0
E0C0
ENDCHAR
STARTCHAR O
ENCODING 79
SWIDTH 500 0
DWIDTH 12 0
BBX 11 16 0 0
BITMAP
0E00
3180
60C0
C060
C060
C060
C060
C060
C060
C060
C060
C060
C060
60C0
3180
0E00
ENDCHAR
STARTCHAR P
ENCODING 80
SWIDTH 500 0
DWIDTH 12 0
BBX 11 16 0 0
BITMAP
FF00
60C0
6060
6060
6060
6060
6060
60C0
7F00
6000
6000
6000
6000
6000
6000
F000
ENDCHAR
STARTCHAR Q
ENCODING 81
SWIDTH 500 0
DWIDTH 12 0
BBX 11 19 0 -3
BITMAP
0E00
3180
60C0
C060
C060
C060
C060
C060
C060
C060
C060
C060
C060
60C0
3180
0E00
0600
0380
00E0
ENDCHAR
STARTCHAR R
ENCODING 82
SWIDTH 500 0
DWIDTH 12 0
BBX 11 16 0 0
BITMAP
FE00
6180
60C0
60C0
60C0
60C0
60C0
6180
7E00
6200
6100
6100
6080
6080
6040
F0E0
ENDCHAR
STARTCHAR S
ENCODING 83
SWIDTH 500 0
DWIDTH 12 0
BBX 10 16 1 0
BITMAP
1E80
3180
60C0
60C0
6040
7000
3800
1E00
0700
0380
01C0
80C0
80C0
C0C0
E180
9E00
ENDCHAR
STARTCHAR T
ENCODING 84
SWIDTH 500 0
DWIDTH 12 0
BBX 12 16 0 0
BITMAP
7FE0
4620
8610
8610
0600
0600
0600
0600
0600
0600
0600
0600
0600
0600
0600
0F00
ENDCHAR
STARTCHAR U
ENCODING 85
SWIDTH 500 0
DWIDTH 12 0
BBX 11 16 0 0
BITMAP
F0E0
6040
6040
6040
6040
6040
6040
6040
6040
6040
6040
6040
6040
6040
3080
0F00
ENDCHAR
STARTCHAR V
ENCODING 86
SWIDTH 500 0
DWIDTH 12 0
BBX 12 16 0 0
BITMAP
F070
6020
6020
6040
3040
3040
3080
1880
1880
1900
0D00
0D00
0E00
0600
0400
0400
ENDCHAR
STARTCHAR W
ENCODING 87
SWIDTH 500 0
DWIDTH 12 0
BBX 12 16 0 0
BITMAP
EF70
C620
C620
C620
C620
C620
6B40
6B40
6B40
6B40
6B40
6B40
3180
3180
3180
3180
ENDCHAR
STARTCHAR X
ENCODING 88
SWIDTH 500 0
DWIDTH 12 0
BBX 11 16 0 0
BITMAP
F1C0
6080
6080
3100
3100
1A00
1A00
0C00
0C00
1600
1600
2300
2300
4180
4180
E3E0
ENDCHAR
STARTCHAR Y
ENCODING 89
SWIDTH 500 0
DWIDTH 12 0
BBX 11 16 0 0
BITMAP
FBE0
6080
6080
3100
3100
3100
1A00
1A00
1C00
0C00
0C00
0C00
0C00
0C00
0C00
3F00
ENDCHAR
STARTCHAR Z
ENCODING 90
SWIDTH 500 0
DWIDTH 12 0
BBX 10 16 1 0
BITMAP
7FC0
C180
8180
0300
0300
0600
0600
0C00
0C00
1800
1800
3000
3000
6040
60C0
FF80
ENDCHAR
STARTCHAR bracketleft
ENCODING 91
SWIDTH 500 0
DWIDTH 12 0
BBX 5 21 6 -3
BITMAP
F8
C0
C0
C0
C0
C0
C0
C0
C0
C0
C0
C0
C0
C0
C0
C0
C0
C0
C0
C0
F8
ENDCHAR
STARTCHAR backslash
ENCODING 92
SWIDTH 500 0
DWIDTH 12 0
BBX 11 22 1 -4
BITMAP
8000
8000
4000
4000
2000
2000
1000
1000
0800
0800
0400
0400
0200
0200
0100
0100
0080
0080
0040
0040
0020
0020
ENDCHAR
STARTCHAR bracketright
ENCODING 93
SWIDTH 500 0
DWIDTH 12 0
BBX 5 21 1 -3
BITMAP
F8
18
18
18
18
18
18
18
18
18
18
18
18
18
18
18
18
18
18
18
F8
ENDCHAR
STARTCHAR asciicircum
ENCODING 94
SWIDTH 500 0
DWIDTH 12 0
BBX 7 8 2 10
BITMAP
10
10
28
28
44
44
82
82
ENDCHAR
STARTCHAR underscore
ENCODING 95
SWIDTH 500 0
DWIDTH 12 0
BBX 12 1 0 -5
BITMAP
FFF0
ENDCHAR
STARTCHAR grave
ENCODING 96
SWIDTH 500 0
DWIDTH 12 0
BBX 3 6 4 12
BITMAP
20
40
C0
E0
E0
40
ENDCHAR
STARTCHAR a
ENCODING 97
SWIDTH 500 0
DWIDTH 12 0
BBX 10 11 1 0
BITMAP
3C00
6600
C300
C300
3B00
6700
C300
C300
C300
6740
3D80
ENDCHAR
STARTCHAR b
ENCODING 98
SWIDTH 500 0
DWIDTH 12 0
BBX 10 16 1 0
BITMAP
6000
E000
6000
6000
6000
6F00
7180
60C0
60C0
60C0
60C0
60C0
60C0
60C0
7180
EF00
ENDCHAR
STARTCHAR c
ENCODING 99
SWIDTH 500 0
DWIDTH 12 0
BBX 8 11 2 0
BITMAP
3C
63
C1
C0
C0
C0
C0
C0
C1
63
3E
ENDCHAR
STARTCHAR d
ENCODING 100
SWIDTH 500 0
DWIDTH 12 0
BBX 10 16 1 0
BITMAP
0180
0380
0180
0180
0180
3D80
6380
C180
C180
C180
C180
C180
C180
C180
6380
3DC0
ENDCHAR
STARTCHAR e
ENCODING 101
SWIDTH 500 0
DWIDTH 12 0
BBX 9 11 1 0
BITMAP
3E00
6300
C180
C180
C180
FF80
C000
C000
C080
6180
3F00
ENDCHAR
STARTCHAR f
ENCODING 102
SWIDTH 500 0
DWIDTH 12 0
BBX 8 16 2 0
BITMAP
1E
33
33
30
30
FC
30
30
30
30
30
30
30
30
30
78
ENDCHAR
STARTCHAR g
ENCODING 103
SWIDTH 500 0
DWIDTH 12 0
BBX 11 16 0 -5
BITMAP
1CE0
6320
C180
C180
C180
6300
3C00
4000
7E00
6180
C0C0
C0C0
C0C0
C0C0
6180
1E00
ENDCHAR
STARTCHAR h
ENCODING 104
SWIDTH 500 0
DWIDTH 12 0
BBX 10 16 1 0
BITMAP
6000
E000
6000
6000
6000
6E00
7300
6180
6180
6180
6180
6180
6180
6180
6180
F3C0
ENDCHAR
STARTCHAR i
ENCODING 105
SWIDTH 500 0
DWIDTH 12 0
BBX 4 16 4 0
BITMAP
60
F0
60
00
00
60
E0
60
60
60
60
60
60
60
60
F0
ENDCHAR
STARTCHAR j
ENCODING 106
SWIDTH 500 0
DWIDTH 12 0
BBX 7 20 2 -4
BITMAP
0C
1E
0C
00
00
0C
1C
0C
0C
0C
0C
0C
0C
0C
0C
0C
CC
CC
CC
78
ENDCHAR
STARTCHAR k
ENCODING 107
SWIDTH 500 0
DWIDTH 12 0
BBX 10 16 1 0
BITMAP
6000
E000
6000
6000
6000
6780
6300
6200
6400
6800
7800
6C00
6600
6300
6180
F3C0
ENDCHAR
STARTCHAR l
ENCODING 108
SWIDTH 500 0
DWIDTH 12 0
BBX 4 16 4 0
BITMAP
E0
60
60
60
60
60
60
60
60
60
60
60
60
60
60
F0
ENDCHAR
STARTCHAR m
ENCODING 109
SWIDTH 500 0
DWIDTH 12 0
BBX 12 11 0 0
BITMAP
B9E0
C630
C630
C630
C630
C630
C630
C630
C630
C630
C630
ENDCHAR
STARTCHAR n
ENCODING 110
SWIDTH 500 0
DWIDTH 12 0
BBX 10 11 1 0
BITMAP
DF00
6180
6180
6180
6180
6180
6180
6180
6180
6180
F3C0
ENDCHAR
STARTCHAR o
ENCODING 111
SWIDTH 500 0
DWIDTH 12 0
BBX 9 11 1 0
BITMAP
1C00
6300
C180
C180
C180
C180
C180
C180
C180
6300
1C00
ENDCHAR
STARTCHAR p
ENCODING 112
SWIDTH 500 0
DWIDTH 12 0
BBX 10 16 1 -5
BITMAP
CF00
7180
60C0
60C0
60C0
60C0
60C0
60C0
60C0
7180
6F00
6000
6000
6000
6000
F000
ENDCHAR
STARTCHAR q
ENCODING 113
SWIDTH 500 0
DWIDTH 12 0
BBX 10 16 1 -5
BITMAP
3CC0
6380
C180
C180
C180
C180
C180
C180
C180
6380
3D80
0180
0180
0180
0180
03C0
ENDCHAR
STARTCHAR r
ENCODING 114
SWIDTH 500 0
DWIDTH 12 0
BBX 7 11 3 0
BITMAP
DC
72
60
60
60
60
60
60
60
60
F0
ENDCHAR
STARTCHAR s
ENCODING 115
SWIDTH 500 0
DWIDTH 12 0
BBX 9 11 1 0
BITMAP
7E00
C300
C100
E000
7C00
1F00
0380
8180
C180
E300
3E00
ENDCHAR
STARTCHAR t
ENCODING 116
SWIDTH 500 0
DWIDTH 12 0
BBX 6 14 3 0
BITMAP
20
60
60
F8
60
60
60
60
60
60
60
6C
6C
38
ENDCHAR
STARTCHAR u
ENCODING 117
SWIDTH 500 0
DWIDTH 12 0
BBX 10 11 1 0
BITMAP
E380
6180
6180
6180
6180
6180
6180
6180
6180
3380
1EC0
ENDCHAR
STARTCHAR v
ENCODING 118
SWIDTH 500 0
DWIDTH 12 0
BBX 11 11 0 0
BITMAP
F0E0
6040
6040
3080
3080
1900
1900
0E00
0E00
0400
0400
ENDCHAR
STARTCHAR w
ENCODING 119
SWIDTH 500 0
DWIDTH 12 0
BBX 11 11 0 0
BITMAP
EEE0
6C40
6C40
6C40
3680
3680
3680
3680
1B00
1B00
1B00
ENDCHAR
STARTCHAR x
ENCODING 120
SWIDTH 500 0
DWIDTH 12 0
BBX 11 11 0 0
BITMAP
F9E0
3080
1900
1A00
0C00
0600
0B00
1300
2180
40C0
E1E0
ENDCHAR
STARTCHAR y
ENCODING 121
SWIDTH 500 0
DWIDTH 12 0
BBX 11 15 0 -4
BITMAP
F0E0
6040
6040
3080
3080
3100
1900
1A00
0E00
0C00
0400
C400
C800
C800
7000
ENDCHAR
STARTCHAR z
ENCODING 122
SWIDTH 500 0
DWIDTH 12 0
BBX 9 11 1 0
BITMAP
7F80
C180
8300
0600
0600
0C00
1800
1800
3080
6180
FF00
ENDCHAR
STARTCHAR braceleft
ENCODING 123
SWIDTH 500 0
DWIDTH 12 0
BBX 5 22 5 -3
BITMAP
08
10
10
30
30
30
30
30
30
20
C0
20
30
30
30
30
30
30
30
10
10
08
ENDCHAR
STARTCHAR bar
ENCODING 124
SWIDTH 500 0
DWIDTH 12 0
BBX 2 24 5 -5
BITMAP
C0
C0
C0
C0
C0
C0
C0
C0
C0
C0
C0
C0
C0
C0
C0
C0
C0
C0
C0
C0
C0
C0
C0
C0
ENDCHAR
STARTCHAR braceright
ENCODING 125
SWIDTH 500 0
DWIDTH 12 0
BBX 5 22 1 -3
BITMAP
80
40
40
60
60
60
60
60
60
20
18
20
60
60
60
60
60
60
60
40
40
80
ENDCHAR
STARTCHAR asciitilde
ENCODING 126
SWIDTH 500 0
DWIDTH 12 0
BBX 12 4 0 5
BITMAP
3800
7E10
87E0
01C0
ENDCHAR
STARTCHAR char007f
ENCODING 127
SWIDTH 500 0
DWIDTH 12 0
BBX 0 0 0 -5
BITMAP
ENDCHAR
STARTCHAR Adieresis
ENCODING 128
SWIDTH 500 0
DWIDTH 12 0
BBX 0 0 0 -5
BITMAP
ENDCHAR
STARTCHAR Aring
ENCODING 129
SWIDTH 500 0
DWIDTH 12 0
BBX 3 3 4 4
BITMAP
40
E0
40
ENDCHAR
STARTCHAR Ccedilla
ENCODING 130
SWIDTH 500 0
DWIDTH 12 0
BBX 12 1 0 5
BITMAP
FFF0
ENDCHAR
STARTCHAR Eacute
ENCODING 131
SWIDTH 500 0
DWIDTH 12 0
BBX 0 0 0 -5
BITMAP
ENDCHAR
STARTCHAR Ntilde
ENCODING 132
SWIDTH 1000 0
DWIDTH 24 0
BBX 24 1 0 -5
BITMAP
FFFFFF
ENDCHAR
STARTCHAR Odieresis
ENCODING 133
SWIDTH 1000 0
DWIDTH 24 0
BBX 24 24 0 -5
BITMAP
FFFFFF
FFFFFF
FFFFFF
FFFFFF
FFFFFF
FFFFFF
FFFFFF
FFFFFF
FFFFFF
FFFFFF
FFFFFF
FFFFFF
FFFFFF
FFFFFF
FFFFFF
FFFFFF
FFFFFF
FFFFFF
FFFFFF
FFFFFF
FFFFFF
FFFFFF
FFFFFF
FFFFFF
ENDCHAR
STARTCHAR Udieresis
ENCODING 134
SWIDTH 1000 0
DWIDTH 24 0
BBX 24 24 0 -5
BITMAP
FFFFFF
FFFFFF
FFFFFF
FFFFFF
FFFFFF
FFFFFF
FFFFFF
FFFFFF
FFFFFF
FFFFFF
FFFFFF
FFFFFF
FFFFFF
FFFFFF
FFFFFF
FFFFFF
FFFFFF
FFFFFF
FFFFFF
FFFFFF
FFFFFF
FFFFFF
FFFFFF
FFFFFF
ENDCHAR
STARTCHAR aacute
ENCODING 135
SWIDTH 1000 0
DWIDTH 24 0
BBX 24 24 0 -5
BITMAP
FFFFFF
FFFFFF
FFFFFF
FFFFFF
FFFFFF
FFFFFF
FFFFFF
FFFFFF
FFFFFF
FFFFFF
FFFFFF
FFFFFF
FFFFFF
FFFFFF
FFFFFF
FFFFFF
FFFFFF
FFFFFF
FFFFFF
FFFFFF
FFFFFF
FFFFFF
FFFFFF
FFFFFF
ENDCHAR
STARTCHAR agrave
ENCODING 136
SWIDTH 1000 0
DWIDTH 24 0
BBX 24 24 0 -5
BITMAP
FFFFFF
FFFFFF
FFFFFF
FFFFFF
FFFFFF
FFFFFF
FFFFFF
FFFFFF
FFFFFF
FFFFFF
FFFFFF
FFFFFF
FFFFFF
FFFFFF
FFFFFF
FFFFFF
FFFFFF
FFFFFF
FFFFFF
FFFFFF
FFFFFF
FFFFFF
FFFFFF
FFFFFF
ENDCHAR
STARTCHAR acircumflex
ENCODING 137
SWIDTH 1000 0
DWIDTH 24 0
BBX 24 24 0 -5
BITMAP
FFFFFF
FFFFFF
FFFFFF
FFFFFF
FFFFFF
FFFFFF
FFFFFF
FFFFFF
FFFFFF
FFFFFF
FFFFFF
FFFFFF
FFFFFF
FFFFFF
FFFFFF
FFFFFF
FFFFFF
FFFFFF
FFFFFF
FFFFFF
FFFFFF
FFFFFF
FFFFFF
FFFFFF
ENDCHAR
STARTCHAR adieresis
ENCODING 138
SWIDTH 1000 0
DWIDTH 24 0
BBX 24 24 0 -5
BITMAP
FFFFFF
FFFFFF
FFFFFF
FFFFFF
FFFFFF
FFFFFF
FFFFFF
FFFFFF
FFFFFF
FFFFFF
FFFFFF
FFFFFF
FFFFFF
FFFFFF
FFFFFF
FFFFFF
FFFFFF
FFFFFF
FFFFFF
FFFFFF
FFFFFF
FFFFFF
FFFFFF
FFFFFF
ENDCHAR
STARTCHAR atilde
ENCODING 139
SWIDTH 1000 0
DWIDTH 24 0
BBX 24 24 0 -5
BITMAP
FFFFFF
FFFFFF
FFFFFF
FFFFFF
FFFFFF
FFFFFF
FFFFFF
FFFFFF
FFFFFF
FFFFFF
FFFFFF
FFFFFF
FFFFFF
FFFFFF
FFFFFF
FFFFFF
FFFFFF
FFFFFF
FFFFFF
FFFFFF
FFFFFF
FFFFFF
FFFFFF
FFFFFF
ENDCHAR
STARTCHAR aring
ENCODING 140
SWIDTH 1000 0
DWIDTH 24 0
BBX 24 24 0 -5
BITMAP
FFFFFF
FFFFFF
FFFFFF
FFFFFF
FFFFFF
FFFFFF
FFFFFF
FFFFFF
FFFFFF
FFFFFF
FFFFFF
FFFFFF
FFFFFF
FFFFFF
FFFFFF
FFFFFF
FFFFFF
FFFFFF
FFFFFF
FFFFFF
FFFFFF
FFFFFF
FFFFFF
FFFFFF
ENDCHAR
STARTCHAR ccedilla
ENCODING 141
SWIDTH 1000 0
DWIDTH 24 0
BBX 24 24 0 -5
BITMAP
FFFFFF
FFFFFF
FFFFFF
FFFFFF
FFFFFF
FFFFFF
FFFFFF
FFFFFF
FFFFFF
FFFFFF
FFFFFF
FFFFFF
FFFFFF
FFFFFF
FFFFFF
FFFFFF
FFFFFF
FFFFFF
FFFFFF
FFFFFF
FFFFFF
FFFFFF
FFFFFF
FFFFFF
ENDCHAR
STARTCHAR eacute
ENCODING 142
SWIDTH 1000 0
DWIDTH 24 0
BBX 24 24 0 -5
BITMAP
FFFFFF
FFFFFF
FFFFFF
FFFFFF
FFFFFF
FFFFFF
FFFFFF
FFFFFF
FFFFFF
FFFFFF
FFFFFF
FFFFFF
FFFFFF
FFFFFF
FFFFFF
FFFFFF
FFFFFF
FFFFFF
FFFFFF
FFFFFF
FFFFFF
FFFFFF
FFFFFF
FFFFFF
ENDCHAR
STARTCHAR egrave
ENCODING 143
SWIDTH 1000 0
DWIDTH 24 0
BBX 24 24 0 -5
BITMAP
FFFFFF
FFFFFF
FFFFFF
FFFFFF
FFFFFF
FFFFFF
FFFFFF
FFFFFF
FFFFFF
FFFFFF
FFFFFF
FFFFFF
FFFFFF
FFFFFF
FFFFFF
FFFFFF
FFFFFF
FFFFFF
FFFFFF
FFFFFF
FFFFFF
FFFFFF
FFFFFF
FFFFFF
ENDCHAR
STARTCHAR ecircumflex
ENCODING 144
SWIDTH 1000 0
DWIDTH 24 0
BBX 24 24 0 -5
BITMAP
FFFFFF
FFFFFF
FFFFFF
FFFFFF
FFFFFF
FFFFFF
FFFFFF
FFFFFF
FFFFFF
FFFFFF
FFFFFF
FFFFFF
FFFFFF
FFFFFF
FFFFFF
FFFFFF
FFFFFF
FFFFFF
FFFFFF
FFFFFF
FFFFFF
FFFFFF
FFFFFF
FFFFFF
ENDCHAR
STARTCHAR edieresis
ENCODING 145
SWIDTH 1000 0
DWIDTH 24 0
BBX 24 24 0 -5
BITMAP
FFFFFF
FFFFFF
FFFFFF
FFFFFF
FFFFFF
FFFFFF
FFFFFF
FFFFFF
FFFFFF
FFFFFF
FFFFFF
FFFFFF
FFFFFF
FFFFFF
FFFFFF
FFFFFF
FFFFFF
FFFFFF
FFFFFF
FFFFFF
FFFFFF
FFFFFF
FFFFFF
FFFFFF
ENDCHAR
STARTCHAR iacute
ENCODING 146
SWIDTH 1000 0
DWIDTH 24 0
BBX 24 24 0 -5
BITMAP
FFFFFF
FFFFFF
FFFFFF
FFFFFF
FFFFFF
FFFFFF
FFFFFF
FFFFFF
FFFFFF
FFFFFF
FFFFFF
FFFFFF
FFFFFF
FFFFFF
FFFFFF
FFFFFF
FFFFFF
FFFFFF
FFFFFF
FFFFFF
FFFFFF
FFFFFF
FFFFFF
FFFFFF
ENDCHAR
STARTCHAR igrave
ENCODING 147
SWIDTH 1000 0
DWIDTH 24 0
BBX 24 24 0 -5
BITMAP
FFFFFF
FFFFFF
FFFFFF
FFFFFF
FFFFFF
FFFFFF
FFFFFF
FFFFFF
FFFFFF
FFFFFF
FFFFFF
FFFFFF
FFFFFF
FFFFFF
FFFFFF
FFFFFF
FFFFFF
FFFFFF
FFFFFF
FFFFFF
FFFFFF
FFFFFF
FFFFFF
FFFFFF
ENDCHAR
STARTCHAR icircumflex
ENCODING 148
SWIDTH 1000 0
DWIDTH 24 0
BBX 24 24 0 -5
BITMAP
FFFFFF
FFFFFF
FFFFFF
FFFFFF
FFFFFF
FFFFFF
FFFFFF
FFFFFF
FFFFFF
FFFFFF
FFFFFF
FFFFFF
FFFFFF
FFFFFF
FFFFFF
FFFFFF
FFFFFF
FFFFFF
FFFFFF
FFFFFF
FFFFFF
FFFFFF
FFFFFF
FFFFFF
ENDCHAR
STARTCHAR idieresis
ENCODING 149
SWIDTH 1000 0
DWIDTH 24 0
BBX 24 24 0 -5
BITMAP
FFFFFF
FFFFFF
FFFFFF
FFFFFF
FFFFFF
FFFFFF
FFFFFF
FFFFFF
FFFFFF
FFFFFF
FFFFFF
FFFFFF
FFFFFF
FFFFFF
FFFFFF
FFFFFF
FFFFFF
FFFFFF
FFFFFF
FFFFFF
FFFFFF
FFFFFF
FFFFFF
FFFFFF
ENDCHAR
STARTCHAR ntilde
ENCODING 150
SWIDTH 1000 0
DWIDTH 24 0
BBX 24 24 0 -5
BITMAP
FFFFFF
FFFFFF
FFFFFF
FFFFFF
FFFFFF
FFFFFF
FFFFFF
FFFFFF
FFFFFF
FFFFFF
FFFFFF
FFFFFF
FFFFFF
FFFFFF
FFFFFF
FFFFFF
FFFFFF
FFFFFF
FFFFFF
FFFFFF
FFFFFF
FFFFFF
FFFFFF
FFFFFF
ENDCHAR
STARTCHAR oacute
ENCODING 151
SWIDTH 1000 0
DWIDTH 24 0
BBX 24 24 0 -5
BITMAP
FFFFFF
FFFFFF
FFFFFF
FFFFFF
FFFFFF
FFFFFF
FFFFFF
FFFFFF
FFFFFF
FFFFFF
FFFFFF
FFFFFF
FFFFFF
FFFFFF
FFFFFF
FFFFFF
FFFFFF
FFFFFF
FFFFFF
FFFFFF
FFFFFF
FFFFFF
FFFFFF
FFFFFF
ENDCHAR
STARTCHAR ograve
ENCODING 152
SWIDTH 1000 0
DWIDTH 24 0
BBX 24 24 0 -5
BITMAP
FFFFFF
FFFFFF
FFFFFF
FFFFFF
FFFFFF
FFFFFF
FFFFFF
FFFFFF
FFFFFF
FFFFFF
FFFFFF
FFFFFF
FFFFFF
FFFFFF
FFFFFF
FFFFFF
FFFFFF
FFFFFF
FFFFFF
FFFFFF
FFFFFF
FFFFFF
FFFFFF
FFFFFF
ENDCHAR
STARTCHAR ocircumflex
ENCODING 153
SWIDTH 1000 0
DWIDTH 24 0
BBX 24 24 0 -5
BITMAP
FFFFFF
FFFFFF
FFFFFF
FFFFFF
FFFFFF
FFFFFF
FFFFFF
FFFFFF
FFFFFF
FFFFFF
FFFFFF
FFFFFF
FFFFFF
FFFFFF
FFFFFF
FFFFFF
FFFFFF
FFFFFF
FFFFFF
FFFFFF
FFFFFF
FFFFFF
FFFFFF
FFFFFF
ENDCHAR
STARTCHAR odieresis
ENCODING 154
SWIDTH 1000 0
DWIDTH 24 0
BBX 24 24 0 -5
BITMAP
FFFFFF
FFFFFF
FFFFFF
FFFFFF
FFFFFF
FFFFFF
FFFFFF
FFFFFF
FFFFFF
FFFFFF
FFFFFF
FFFFFF
FFFFFF
FFFFFF
FFFFFF
FFFFFF
FFFFFF
FFFFFF
FFFFFF
FFFFFF
FFFFFF
FFFFFF
FFFFFF
FFFFFF
ENDCHAR
STARTCHAR otilde
ENCODING 155
SWIDTH 1000 0
DWIDTH 24 0
BBX 24 24 0 -5
BITMAP
FFFFFF
FFFFFF
FFFFFF
FFFFFF
FFFFFF
FFFFFF
FFFFFF
FFFFFF
FFFFFF
FFFFFF
FFFFFF
FFFFFF
FFFFFF
FFFFFF
FFFFFF
FFFFFF
FFFFFF
FFFFFF
FFFFFF
FFFFFF
FFFFFF
FFFFFF
FFFFFF
FFFFFF
ENDCHAR
STARTCHAR uacute
ENCODING 156
SWIDTH 1000 0
DWIDTH 24 0
BBX 24 24 0 -5
BITMAP
FFFFFF
FFFFFF
FFFFFF
FFFFFF
FFFFFF
FFFFFF
FFFFFF
FFFFFF
FFFFFF
FFFFFF
FFFFFF
FFFFFF
FFFFFF
FFFFFF
FFFFFF
FFFFFF
FFFFFF
FFFFFF
FFFFFF
FFFFFF
FFFFFF
FFFFFF
FFFFFF
FFFFFF
ENDCHAR
STARTCHAR ugrave
ENCODING 157
SWIDTH 1000 0
DWIDTH 24 0
BBX 24 24 0 -5
BITMAP
FFFFFF
FFFFFF
FFFFFF
FFFFFF
FFFFFF
FFFFFF
FFFFFF
FFFFFF
FFFFFF
FFFFFF
FFFFFF
FFFFFF
FFFFFF
FFFFFF
FFFFFF
FFFFFF
FFFFFF
FFFFFF
FFFFFF
FFFFFF
FFFFFF
FFFFFF
FFFFFF
FFFFFF
ENDCHAR
STARTCHAR ucircumflex
ENCODING 158
SWIDTH 1000 0
DWIDTH 24 0
BBX 24 24 0 -5
BITMAP
FFFFFF
FFFFFF
FFFFFF
FFFFFF
FFFFFF
FFFFFF
FFFFFF
FFFFFF
FFFFFF
FFFFFF
FFFFFF
FFFFFF
FFFFFF
FFFFFF
FFFFFF
FFFFFF
FFFFFF
FFFFFF
FFFFFF
FFFFFF
FFFFFF
FFFFFF
FFFFFF
FFFFFF
ENDCHAR
STARTCHAR udieresis
ENCODING 159
SWIDTH 1000 0
DWIDTH 24 0
BBX 24 24 0 -5
BITMAP
FFFFFF
FFFFFF
FFFFFF
FFFFFF
FFFFFF
FFFFFF
FFFFFF
FFFFFF
FFFFFF
FFFFFF
FFFFFF
FFFFFF
FFFFFF
FFFFFF
FFFFFF
FFFFFF
FFFFFF
FFFFFF
FFFFFF
FFFFFF
FFFFFF
FFFFFF
FFFFFF
FFFFFF
ENDCHAR
STARTCHAR dagger
ENCODING 160
SWIDTH 1000 0
DWIDTH 24 0
BBX 24 24 0 -5
BITMAP
FFFFFF
FFFFFF
FFFFFF
FFFFFF
FFFFFF
FFFFFF
FFFFFF
FFFFFF
FFFFFF
FFFFFF
FFFFFF
FFFFFF
FFFFFF
FFFFFF
FFFFFF
FFFFFF
FFFFFF
FFFFFF
FFFFFF
FFFFFF
FFFFFF
FFFFFF
FFFFFF
FFFFFF
ENDCHAR
STARTCHAR degree
ENCODING 161
SWIDTH 500 0
DWIDTH 12 0
BBX 0 0 0 -5
BITMAP
ENDCHAR
STARTCHAR cent
ENCODING 162
SWIDTH 500 0
DWIDTH 12 0
BBX 0 0 0 -5
BITMAP
ENDCHAR
STARTCHAR sterling
ENCODING 163
SWIDTH 500 0
DWIDTH 12 0
BBX 0 0 0 -5
BITMAP
ENDCHAR
STARTCHAR section
ENCODING 164
SWIDTH 500 0
DWIDTH 12 0
BBX 0 0 0 -5
BITMAP
ENDCHAR
STARTCHAR bullet
ENCODING 165
SWIDTH 500 0
DWIDTH 12 0
BBX 0 0 0 -5
BITMAP
ENDCHAR
STARTCHAR paragraph
ENCODING 166
SWIDTH 500 0
DWIDTH 12 0
BBX 0 0 0 -5
BITMAP
ENDCHAR
STARTCHAR germandbls
ENCODING 167
SWIDTH 500 0
DWIDTH 12 0
BBX 0 0 0 -5
BITMAP
ENDCHAR
STARTCHAR registered
ENCODING 168
SWIDTH 500 0
DWIDTH 12 0
BBX 0 0 0 -5
BITMAP
ENDCHAR
STARTCHAR copyright
ENCODING 169
SWIDTH 500 0
DWIDTH 12 0
BBX 0 0 0 -5
BITMAP
ENDCHAR
STARTCHAR trademark
ENCODING 170
SWIDTH 500 0
DWIDTH 12 0
BBX 0 0 0 -5
BITMAP
ENDCHAR
STARTCHAR acute
ENCODING 171
SWIDTH 500 0
DWIDTH 12 0
BBX 0 0 0 -5
BITMAP
ENDCHAR
STARTCHAR dieresis
ENCODING 172
SWIDTH 500 0
DWIDTH 12 0
BBX 0 0 0 -5
BITMAP
ENDCHAR
STARTCHAR notequal
ENCODING 173
SWIDTH 500 0
DWIDTH 12 0
BBX 0 0 0 -5
BITMAP
ENDCHAR
STARTCHAR AE
ENCODING 174
SWIDTH 500 0
DWIDTH 12 0
BBX 0 0 0 -5
BITMAP
ENDCHAR
STARTCHAR Oslash
ENCODING 175
SWIDTH 500 0
DWIDTH 12 0
BBX 0 0 0 -5
BITMAP
ENDCHAR
STARTCHAR infinity
ENCODING 176
SWIDTH 500 0
DWIDTH 12 0
BBX 0 0 0 -5
BITMAP
ENDCHAR
STARTCHAR plusminus
ENCODING 177
SWIDTH 500 0
DWIDTH 12 0
BBX 0 0 0 -5
BITMAP
ENDCHAR
STARTCHAR lessequal
ENCODING 178
SWIDTH 500 0
DWIDTH 12 0
BBX 0 0 0 -5
BITMAP
ENDCHAR
STARTCHAR greaterequal
ENCODING 179
SWIDTH 500 0
DWIDTH 12 0
BBX 0 0 0 -5
BITMAP
ENDCHAR
STARTCHAR yen
ENCODING 180
SWIDTH 500 0
DWIDTH 12 0
BBX 0 0 0 -5
BITMAP
ENDCHAR
STARTCHAR mu
ENCODING 181
SWIDTH 500 0
DWIDTH 12 0
BBX 0 0 0 -5
BITMAP
ENDCHAR
STARTCHAR partialdiff
ENCODING 182
SWIDTH 500 0
DWIDTH 12 0
BBX 0 0 0 -5
BITMAP
ENDCHAR
STARTCHAR summation
ENCODING 183
SWIDTH 500 0
DWIDTH 12 0
BBX 0 0 0 -5
BITMAP
ENDCHAR
STARTCHAR product
ENCODING 184
SWIDTH 500 0
DWIDTH 12 0
BBX 0 0 0 -5
BITMAP
ENDCHAR
STARTCHAR pi
ENCODING 185
SWIDTH 500 0
DWIDTH 12 0
BBX 0 0 0 -5
BITMAP
ENDCHAR
STARTCHAR integral
ENCODING 186
SWIDTH 500 0
DWIDTH 12 0
BBX 0 0 0 -5
BITMAP
ENDCHAR
STARTCHAR ordfeminine
ENCODING 187
SWIDTH 500 0
DWIDTH 12 0
BBX 0 0 0 -5
BITMAP
ENDCHAR
STARTCHAR ordmasculine
ENCODING 188
SWIDTH 500 0
DWIDTH 12 0
BBX 0 0 0 -5
BITMAP
ENDCHAR
STARTCHAR Omega
ENCODING 189
SWIDTH 500 0
DWIDTH 12 0
BBX 0 0 0 -5
BITMAP
ENDCHAR
STARTCHAR ae
ENCODING 190
SWIDTH 500 0
DWIDTH 12 0
BBX 0 0 0 -5
BITMAP
ENDCHAR
STARTCHAR oslash
ENCODING 191
SWIDTH 500 0
DWIDTH 12 0
BBX 0 0 0 -5
BITMAP
ENDCHAR
STARTCHAR questiondown
ENCODING 192
SWIDTH 500 0
DWIDTH 12 0
BBX 0 0 0 -5
BITMAP
ENDCHAR
STARTCHAR exclamdown
ENCODING 193
SWIDTH 500 0
DWIDTH 12 0
BBX 0 0 0 -5
BITMAP
ENDCHAR
STARTCHAR logicalnot
ENCODING 194
SWIDTH 500 0
DWIDTH 12 0
BBX 0 0 0 -5
BITMAP
ENDCHAR
STARTCHAR radical
ENCODING 195
SWIDTH 500 0
DWIDTH 12 0
BBX 0 0 0 -5
BITMAP
ENDCHAR
STARTCHAR florin
ENCODING 196
SWIDTH 500 0
DWIDTH 12 0
BBX 0 0 0 -5
BITMAP
ENDCHAR
STARTCHAR approxequal
ENCODING 197
SWIDTH 500 0
DWIDTH 12 0
BBX 0 0 0 -5
BITMAP
ENDCHAR
STARTCHAR Delta
ENCODING 198
SWIDTH 500 0
DWIDTH 12 0
BBX 0 0 0 -5
BITMAP
ENDCHAR
STARTCHAR guillemotleft
ENCODING 199
SWIDTH 500 0
DWIDTH 12 0
BBX 0 0 0 -5
BITMAP
ENDCHAR
STARTCHAR guillemotright
ENCODING 200
SWIDTH 500 0
DWIDTH 12 0
BBX 0 0 0 -5
BITMAP
ENDCHAR
STARTCHAR ellipsis
ENCODING 201
SWIDTH 500 0
DWIDTH 12 0
BBX 0 0 0 -5
BITMAP
ENDCHAR
STARTCHAR nbspace
ENCODING 202
SWIDTH 500 0
DWIDTH 12 0
BBX 0 0 0 -5
BITMAP
ENDCHAR
STARTCHAR Agrave
ENCODING 203
SWIDTH 500 0
DWIDTH 12 0
BBX 0 0 0 -5
BITMAP
ENDCHAR
STARTCHAR Atilde
ENCODING 204
SWIDTH 500 0
DWIDTH 12 0
BBX 0 0 0 -5
BITMAP
ENDCHAR
STARTCHAR Otilde
ENCODING 205
SWIDTH 500 0
DWIDTH 12 0
BBX 0 0 0 -5
BITMAP
ENDCHAR
STARTCHAR OE
ENCODING 206
SWIDTH 500 0
DWIDTH 12 0
BBX 0 0 0 -5
BITMAP
ENDCHAR
STARTCHAR oe
ENCODING 207
SWIDTH 500 0
DWIDTH 12 0
BBX 0 0 0 -5
BITMAP
ENDCHAR
STARTCHAR endash
ENCODING 208
SWIDTH 500 0
DWIDTH 12 0
BBX 0 0 0 -5
BITMAP
ENDCHAR
STARTCHAR emdash
ENCODING 209
SWIDTH 500 0
DWIDTH 12 0
BBX 0 0 0 -5
BITMAP
ENDCHAR
STARTCHAR quotedblleft
ENCODING 210
SWIDTH 500 0
DWIDTH 12 0
BBX 0 0 0 -5
BITMAP
ENDCHAR
STARTCHAR quotedblright
ENCODING 211
SWIDTH 500 0
DWIDTH 12 0
BBX 0 0 0 -5
BITMAP
ENDCHAR
STARTCHAR quoteleft
ENCODING 212
SWIDTH 500 0
DWIDTH 12 0
BBX 0 0 0 -5
BITMAP
ENDCHAR
STARTCHAR quoteright
ENCODING 213
SWIDTH 500 0
DWIDTH 12 0
BBX 0 0 0 -5
BITMAP
ENDCHAR
STARTCHAR divide
ENCODING 214
SWIDTH 500 0
DWIDTH 12 0
BBX 0 0 0 -5
BITMAP
ENDCHAR
STARTCHAR lozenge
ENCODING 215
SWIDTH 500 0
DWIDTH 12 0
BBX 0 0 0 -5
BITMAP
ENDCHAR
STARTCHAR ydieresis
ENCODING 216
SWIDTH 500 0
DWIDTH 12 0
BBX 0 0 0 -5
BITMAP
ENDCHAR
STARTCHAR Ydieresis
ENCODING 217
SWIDTH 500 0
DWIDTH 12 0
BBX 0 0 0 -5
BITMAP
ENDCHAR
STARTCHAR fraction
ENCODING 218
SWIDTH 500 0
DWIDTH 12 0
BBX 0 0 0 -5
BITMAP
ENDCHAR
STARTCHAR currency
ENCODING 219
SWIDTH 500 0
DWIDTH 12 0
BBX 0 0 0 -5
BITMAP
ENDCHAR
STARTCHAR guilsinglleft
ENCODING 220
SWIDTH 500 0
DWIDTH 12 0
BBX 0 0 0 -5
BITMAP
ENDCHAR
STARTCHAR guilsinglright
ENCODING 221
SWIDTH 500 0
DWIDTH 12 0
BBX 0 0 0 -5
BITMAP
ENDCHAR
STARTCHAR fi
ENCODING 222
SWIDTH 500 0
DWIDTH 12 0
BBX 0 0 0 -5
BITMAP
ENDCHAR
STARTCHAR fl
ENCODING 223
SWIDTH 500 0
DWIDTH 12 0
BBX 0 0 0 -5
BITMAP
ENDCHAR
STARTCHAR daggerdbl
ENCODING 224
SWIDTH 500 0
DWIDTH 12 0
BBX 0 0 0 -5
BITMAP
ENDCHAR
STARTCHAR periodcentered
ENCODING 225
SWIDTH 500 0
DWIDTH 12 0
BBX 0 0 0 -5
BITMAP
ENDCHAR
STARTCHAR quotesinglbase
ENCODING 226
SWIDTH 500 0
DWIDTH 12 0
BBX 0 0 0 -5
BITMAP
ENDCHAR
STARTCHAR quotedblbase
ENCODING 227
SWIDTH 500 0
DWIDTH 12 0
BBX 0 0 0 -5
BITMAP
ENDCHAR
STARTCHAR perthousand
ENCODING 228
SWIDTH 500 0
DWIDTH 12 0
BBX 0 0 0 -5
BITMAP
ENDCHAR
STARTCHAR Acircumflex
ENCODING 229
SWIDTH 500 0
DWIDTH 12 0
BBX 0 0 0 -5
BITMAP
ENDCHAR
STARTCHAR Ecircumflex
ENCODING 230
SWIDTH 500 0
DWIDTH 12 0
BBX 0 0 0 -5
BITMAP
ENDCHAR
STARTCHAR Aacute
ENCODING 231
SWIDTH 500 0
DWIDTH 12 0
BBX 0 0 0 -5
BITMAP
ENDCHAR
STARTCHAR Edieresis
ENCODING 232
SWIDTH 500 0
DWIDTH 12 0
BBX 0 0 0 -5
BITMAP
ENDCHAR
STARTCHAR Egrave
ENCODING 233
SWIDTH 500 0
DWIDTH 12 0
BBX 0 0 0 -5
BITMAP
ENDCHAR
STARTCHAR Iacute
ENCODING 234
SWIDTH 500 0
DWIDTH 12 0
BBX 0 0 0 -5
BITMAP
ENDCHAR
STARTCHAR Icircumflex
ENCODING 235
SWIDTH 500 0
DWIDTH 12 0
BBX 0 0 0 -5
BITMAP
ENDCHAR
STARTCHAR Idieresis
ENCODING 236
SWIDTH 500 0
DWIDTH 12 0
BBX 0 0 0 -5
BITMAP
ENDCHAR
STARTCHAR Igrave
ENCODING 237
SWIDTH 500 0
DWIDTH 12 0
BBX 0 0 0 -5
BITMAP
ENDCHAR
STARTCHAR Oacute
ENCODING 238
SWIDTH 500 0
DWIDTH 12 0
BBX 0 0 0 -5
BITMAP
ENDCHAR
STARTCHAR Ocircumflex
ENCODING 239
SWIDTH 500 0
DWIDTH 12 0
BBX 0 0 0 -5
BITMAP
ENDCHAR
STARTCHAR apple
ENCODING 240
SWIDTH 500 0
DWIDTH 12 0
BBX 0 0 0 -5
BITMAP
ENDCHAR
STARTCHAR Ograve
ENCODING 241
SWIDTH 500 0
DWIDTH 12 0
BBX 0 0 0 -5
BITMAP
ENDCHAR
STARTCHAR Uacute
ENCODING 242
SWIDTH 500 0
DWIDTH 12 0
BBX 0 0 0 -5
BITMAP
ENDCHAR
STARTCHAR Ucircumflex
ENCODING 243
SWIDTH 500 0
DWIDTH 12 0
BBX 0 0 0 -5
BITMAP
ENDCHAR
STARTCHAR Ugrave
ENCODING 244
SWIDTH 500 0
DWIDTH 12 0
BBX 0 0 0 -5
BITMAP
ENDCHAR
STARTCHAR dotlessi
ENCODING 245
SWIDTH 500 0
DWIDTH 12 0
BBX 0 0 0 -5
BITMAP
ENDCHAR
STARTCHAR circumflex
ENCODING 246
SWIDTH 500 0
DWIDTH 12 0
BBX 0 0 0 -5
BITMAP
ENDCHAR
STARTCHAR tilde
ENCODING 247
SWIDTH 500 0
DWIDTH 12 0
BBX 0 0 0 -5
BITMAP
ENDCHAR
STARTCHAR macron
ENCODING 248
SWIDTH 500 0
DWIDTH 12 0
BBX 0 0 0 -5
BITMAP
ENDCHAR
STARTCHAR breve
ENCODING 249
SWIDTH 500 0
DWIDTH 12 0
BBX 0 0 0 -5
BITMAP
ENDCHAR
STARTCHAR dotaccent
ENCODING 250
SWIDTH 500 0
DWIDTH 12 0
BBX 0 0 0 -5
BITMAP
ENDCHAR
STARTCHAR ring
ENCODING 251
SWIDTH 500 0
DWIDTH 12 0
BBX 0 0 0 -5
BITMAP
ENDCHAR
STARTCHAR cedilla
ENCODING 252
SWIDTH 500 0
DWIDTH 12 0
BBX 0 0 0 -5
BITMAP
ENDCHAR
STARTCHAR hungarumlaut
ENCODING 253
SWIDTH 500 0
DWIDTH 12 0
BBX 0 0 0 -5
BITMAP
ENDCHAR
STARTCHAR ogonek
ENCODING 254
SWIDTH 500 0
DWIDTH 12 0
BBX 0 0 0 -5
BITMAP
ENDCHAR
STARTCHAR caron
ENCODING 255
SWIDTH 1000 0
DWIDTH 24 0
BBX 20 3 2 5
BITMAP
606060
F0F0F0
606060
ENDCHAR
ENDFONT
