STARTFONT 2.1
FONT -Fondu-AppleMyungjo-Medium-R-Normal--20-190-75-75-P-126-MacRoman-1
SIZE 19 75 75
FONTBOUNDINGBOX 20 21 0 -4
COMMENT Created by Fondu from a mac NFNT/FONT resource
STARTPROPERTIES 17
FOUNDRY "Fondu"
FAMILY_NAME "AppleMyungjo"
WEIGHT_NAME "Medium"
SLANT "R"
SETWIDTH_NAME "Normal"
ADD_STYLE_NAME ""
PIXEL_SIZE 20
POINT_SIZE 190
RESOLUTION_X 75
RESOLUTION_Y 75
SPACING "P"
AVERAGE_WIDTH 126
CHARSET_REGISTRY "MacRoman"
CHARSET_ENCODING "1"
FONT_ASCENT 17
FONT_DESCENT 4
FACE_NAME "AppleMyungjo"
ENDPROPERTIES
CHARS 229
STARTCHAR char0011
ENCODING 17
SWIDTH 992 0
DWIDTH 20 0
BBX 17 15 2 0
BITMAP
1E3C00
636300
C36180
C36180
C36180
636300
1FFC00
036000
1FFC00
636300
C36180
C36180
C36180
636300
1E3C00
ENDCHAR
STARTCHAR char0012
ENCODING 18
SWIDTH 594 0
DWIDTH 12 0
BBX 12 15 0 0
BITMAP
0030
0020
0060
0040
00C0
0080
0180
0100
0300
0200
0600
C400
6C00
3800
1800
ENDCHAR
STARTCHAR char0013
ENCODING 19
SWIDTH 815 0
DWIDTH 16 0
BBX 11 11 3 2
BITMAP
0400
0E00
1F00
3F80
7FC0
FFE0
7FC0
3F80
1F00
0E00
0400
ENDCHAR
STARTCHAR char0014
ENCODING 20
SWIDTH 855 0
DWIDTH 17 0
BBX 15 17 1 0
BITMAP
0030
0070
00E0
0080
1E78
3FFC
7FFE
7FFC
FFF8
FFF8
FFF8
FFF8
FFF8
7FFC
7FFE
3FFC
1E78
ENDCHAR
STARTCHAR onehalf
ENCODING 21
SWIDTH 500 0
DWIDTH 10 0
BBX 9 16 0 0
BITMAP
3F80
7D80
FD80
FD80
FD80
FD80
7D80
3D80
0D80
0D80
0D80
0D80
0D80
0D80
0D80
0D80
ENDCHAR
STARTCHAR space
ENCODING 32
SWIDTH 400 0
DWIDTH 8 0
BBX 0 0 0 -4
BITMAP
ENDCHAR
STARTCHAR exclam
ENCODING 33
SWIDTH 500 0
DWIDTH 10 0
BBX 3 17 3 -1
BITMAP
40
E0
E0
E0
E0
E0
E0
E0
E0
40
40
40
40
00
40
E0
40
ENDCHAR
STARTCHAR quotedbl
ENCODING 34
SWIDTH 400 0
DWIDTH 8 0
BBX 7 6 1 11
BITMAP
44
EE
EE
66
44
88
ENDCHAR
STARTCHAR numbersign
ENCODING 35
SWIDTH 640 0
DWIDTH 13 0
BBX 9 15 2 0
BITMAP
1100
1100
1100
1100
7F80
7F80
2200
2200
2200
FF00
FF00
4400
4400
4400
4400
ENDCHAR
STARTCHAR dollar
ENCODING 36
SWIDTH 640 0
DWIDTH 13 0
BBX 11 19 1 -2
BITMAP
0400
0400
1F20
64E0
C460
C420
E420
7C00
3E00
0F80
07C0
04E0
8460
8460
C460
F4C0
8F00
0400
0400
ENDCHAR
STARTCHAR percent
ENCODING 37
SWIDTH 1000 0
DWIDTH 20 0
BBX 16 15 2 0
BITMAP
1C03
2E06
460C
C618
C430
E860
70C0
0180
030E
0617
0C23
1863
3062
6074
C038
ENDCHAR
STARTCHAR ampersand
ENCODING 38
SWIDTH 1000 0
DWIDTH 20 0
BBX 16 17 2 -1
BITMAP
0700
1980
30C0
30C0
30C0
3180
1B00
1E3E
360C
630C
C30C
C198
C0D8
C070
60F1
3F9E
000C
ENDCHAR
STARTCHAR quotesingle
ENCODING 39
SWIDTH 400 0
DWIDTH 8 0
BBX 3 6 2 11
BITMAP
40
E0
E0
60
40
80
ENDCHAR
STARTCHAR parenleft
ENCODING 40
SWIDTH 500 0
DWIDTH 10 0
BBX 5 19 4 -2
BITMAP
08
10
30
20
60
40
C0
C0
C0
C0
C0
C0
C0
40
60
20
30
10
08
ENDCHAR
STARTCHAR parenright
ENCODING 41
SWIDTH 500 0
DWIDTH 10 0
BBX 5 19 1 -2
BITMAP
80
40
60
20
30
30
10
18
18
18
18
18
10
30
30
20
60
40
80
ENDCHAR
STARTCHAR asterisk
ENCODING 42
SWIDTH 500 0
DWIDTH 10 0
BBX 7 7 2 10
BITMAP
10
92
D6
38
D6
92
10
ENDCHAR
STARTCHAR plus
ENCODING 43
SWIDTH 1000 0
DWIDTH 20 0
BBX 12 12 4 1
BITMAP
0600
0600
0600
0600
0600
FFF0
FFF0
0600
0600
0600
0600
0600
ENDCHAR
STARTCHAR comma
ENCODING 44
SWIDTH 400 0
DWIDTH 8 0
BBX 3 6 2 -4
BITMAP
40
E0
E0
60
40
80
ENDCHAR
STARTCHAR hyphen
ENCODING 45
SWIDTH 500 0
DWIDTH 10 0
BBX 8 2 1 6
BITMAP
FF
FF
ENDCHAR
STARTCHAR period
ENCODING 46
SWIDTH 400 0
DWIDTH 8 0
BBX 3 4 2 -2
BITMAP
40
E0
E0
40
ENDCHAR
STARTCHAR slash
ENCODING 47
SWIDTH 500 0
DWIDTH 10 0
BBX 10 17 0 -1
BITMAP
00C0
0080
0180
0100
0300
0200
0600
0400
0C00
0800
1800
1000
3000
2000
6000
4000
C000
ENDCHAR
STARTCHAR zero
ENCODING 48
SWIDTH 640 0
DWIDTH 13 0
BBX 10 15 2 0
BITMAP
1E00
6180
4080
C0C0
C0C0
C0C0
C0C0
C0C0
C0C0
C0C0
C0C0
C0C0
4080
6180
1E00
ENDCHAR
STARTCHAR one
ENCODING 49
SWIDTH 640 0
DWIDTH 13 0
BBX 6 15 4 0
BITMAP
30
F0
30
30
30
30
30
30
30
30
30
30
30
30
FC
ENDCHAR
STARTCHAR two
ENCODING 50
SWIDTH 640 0
DWIDTH 13 0
BBX 10 15 2 0
BITMAP
1E00
6180
C0C0
E0C0
E0C0
4180
0180
0300
0600
0C00
1800
3040
6040
FFC0
FFC0
ENDCHAR
STARTCHAR three
ENCODING 51
SWIDTH 640 0
DWIDTH 13 0
BBX 10 15 2 0
BITMAP
1E00
6180
E0C0
E0C0
40C0
0180
0F00
0180
00C0
00C0
40C0
E0C0
E0C0
6180
1E00
ENDCHAR
STARTCHAR four
ENCODING 52
SWIDTH 640 0
DWIDTH 13 0
BBX 11 15 1 0
BITMAP
0180
0180
0380
0780
0D80
0D80
1980
3180
3180
6180
C180
FFE0
0180
0180
03C0
ENDCHAR
STARTCHAR five
ENCODING 53
SWIDTH 640 0
DWIDTH 13 0
BBX 10 16 2 0
BITMAP
0040
3F80
3F00
2000
2000
4000
5E00
6180
4080
00C0
40C0
E0C0
E0C0
C080
6180
1E00
ENDCHAR
STARTCHAR six
ENCODING 54
SWIDTH 640 0
DWIDTH 13 0
BBX 10 15 2 0
BITMAP
1E00
6180
41C0
C1C0
C080
DE00
E180
C080
C0C0
C0C0
C0C0
C0C0
4080
6180
1E00
ENDCHAR
STARTCHAR seven
ENCODING 55
SWIDTH 640 0
DWIDTH 13 0
BBX 10 15 1 0
BITMAP
3FC0
3FC0
6080
4180
8100
0100
0300
0200
0600
0600
0600
0E00
0E00
0E00
0400
ENDCHAR
STARTCHAR eight
ENCODING 56
SWIDTH 640 0
DWIDTH 13 0
BBX 10 15 2 0
BITMAP
0E00
3100
6080
6080
6080
7100
3E00
3F00
4780
81C0
80C0
80C0
40C0
6180
1E00
ENDCHAR
STARTCHAR nine
ENCODING 57
SWIDTH 640 0
DWIDTH 13 0
BBX 10 15 2 0
BITMAP
1E00
6180
4080
C0C0
C0C0
C0C0
C0C0
40C0
61C0
1EC0
40C0
E0C0
E080
6180
1E00
ENDCHAR
STARTCHAR colon
ENCODING 58
SWIDTH 500 0
DWIDTH 10 0
BBX 3 13 3 1
BITMAP
40
E0
E0
40
00
00
00
00
00
40
E0
E0
40
ENDCHAR
STARTCHAR semicolon
ENCODING 59
SWIDTH 500 0
DWIDTH 10 0
BBX 3 13 3 0
BITMAP
40
E0
40
00
00
00
00
00
40
E0
60
40
80
ENDCHAR
STARTCHAR less
ENCODING 60
SWIDTH 500 0
DWIDTH 10 0
BBX 10 19 0 -2
BITMAP
0040
00C0
0180
0300
0600
0C00
1800
3000
6000
C000
6000
3000
1800
0C00
0600
0300
0180
00C0
0040
ENDCHAR
STARTCHAR equal
ENCODING 61
SWIDTH 1000 0
DWIDTH 20 0
BBX 12 7 4 4
BITMAP
FFF0
FFF0
0000
0000
0000
FFF0
FFF0
ENDCHAR
STARTCHAR greater
ENCODING 62
SWIDTH 500 0
DWIDTH 10 0
BBX 10 19 0 -2
BITMAP
8000
C000
6000
3000
1800
0C00
0600
0300
0180
00C0
0180
0300
0600
0C00
1800
3000
6000
C000
8000
ENDCHAR
STARTCHAR question
ENCODING 63
SWIDTH 640 0
DWIDTH 13 0
BBX 9 17 2 -1
BITMAP
1E00
6300
C180
E180
6180
0300
0300
0600
0400
0800
0800
0800
0800
0000
0800
1C00
0800
ENDCHAR
STARTCHAR at
ENCODING 64
SWIDTH 1000 0
DWIDTH 20 0
BBX 16 14 2 0
BITMAP
07F0
1C0C
3006
61DE
6633
CC33
CC33
D863
D863
D8E6
6F38
6006
381C
0FE0
ENDCHAR
STARTCHAR A
ENCODING 65
SWIDTH 778 0
DWIDTH 16 0
BBX 14 16 1 0
BITMAP
0300
0300
0300
0580
0580
0580
08C0
08C0
08C0
1060
1FE0
1060
2030
2030
6038
F07C
ENDCHAR
STARTCHAR B
ENCODING 66
SWIDTH 780 0
DWIDTH 16 0
BBX 13 15 1 0
BITMAP
FF80
3060
3030
3030
3030
3030
3060
3FC0
3030
3018
3018
3018
3018
3030
FFC0
ENDCHAR
STARTCHAR C
ENCODING 67
SWIDTH 783 0
DWIDTH 16 0
BBX 12 15 2 0
BITMAP
0F90
3070
6030
6030
C010
C010
C000
C000
C000
C000
C010
6010
6030
3060
0F80
ENDCHAR
STARTCHAR D
ENCODING 68
SWIDTH 836 0
DWIDTH 17 0
BBX 13 15 2 0
BITMAP
FF80
6060
6030
6030
6018
6018
6018
6018
6018
6018
6018
6030
6030
6060
FF80
ENDCHAR
STARTCHAR E
ENCODING 69
SWIDTH 781 0
DWIDTH 16 0
BBX 13 15 2 0
BITMAP
FFF0
3030
3010
3090
3090
3180
3F80
3180
3080
3080
3008
3008
3018
3030
FFF0
ENDCHAR
STARTCHAR F
ENCODING 70
SWIDTH 751 0
DWIDTH 15 0
BBX 13 15 1 0
BITMAP
FFF8
3018
3018
3048
3048
30C0
3FC0
30C0
3040
3040
3000
3000
3000
3000
FE00
ENDCHAR
STARTCHAR G
ENCODING 71
SWIDTH 836 0
DWIDTH 17 0
BBX 14 15 2 0
BITMAP
0F90
3070
6030
6010
C010
C000
C000
C000
C0FC
C030
C030
6030
6070
30F0
0F10
ENDCHAR
STARTCHAR H
ENCODING 72
SWIDTH 894 0
DWIDTH 18 0
BBX 15 15 2 0
BITMAP
FC7E
3018
3018
3018
3018
3018
3018
3FF8
3018
3018
3018
3018
3018
3018
FC7E
ENDCHAR
STARTCHAR I
ENCODING 73
SWIDTH 434 0
DWIDTH 9 0
BBX 6 15 2 0
BITMAP
FC
30
30
30
30
30
30
30
30
30
30
30
30
30
FC
ENDCHAR
STARTCHAR J
ENCODING 74
SWIDTH 611 0
DWIDTH 12 0
BBX 11 15 1 0
BITMAP
07E0
0180
0180
0180
0180
0180
0180
0180
0180
4180
E180
E180
C180
6300
1C00
ENDCHAR
STARTCHAR K
ENCODING 75
SWIDTH 818 0
DWIDTH 16 0
BBX 15 15 1 0
BITMAP
FC7C
3030
3060
30C0
3180
3300
3700
3D80
38C0
30C0
3060
3030
3030
3018
FC3E
ENDCHAR
STARTCHAR L
ENCODING 76
SWIDTH 729 0
DWIDTH 15 0
BBX 13 15 1 0
BITMAP
FC00
3000
3000
3000
3000
3000
3000
3000
3000
3000
3008
3008
3018
3030
FFF0
ENDCHAR
STARTCHAR M
ENCODING 77
SWIDTH 1008 0
DWIDTH 20 0
BBX 18 15 1 0
BITMAP
F807C0
380700
380700
2C0700
2C0B00
260B00
260B00
261300
231300
231300
21A300
21A300
21C300
20C300
F8CFC0
ENDCHAR
STARTCHAR N
ENCODING 78
SWIDTH 876 0
DWIDTH 18 0
BBX 15 15 1 0
BITMAP
F03E
3008
3808
2C08
2C08
2608
2308
2308
2188
20C8
20C8
2068
2038
2038
F818
ENDCHAR
STARTCHAR O
ENCODING 79
SWIDTH 840 0
DWIDTH 17 0
BBX 13 15 2 0
BITMAP
0F80
3060
6030
6030
C018
C018
C018
C018
C018
C018
C018
6030
6030
3060
0F80
ENDCHAR
STARTCHAR P
ENCODING 80
SWIDTH 731 0
DWIDTH 15 0
BBX 13 15 1 0
BITMAP
FFC0
3030
3018
3018
3018
3018
3018
3030
3FC0
3000
3000
3000
3000
3000
FC00
ENDCHAR
STARTCHAR Q
ENCODING 81
SWIDTH 842 0
DWIDTH 17 0
BBX 15 18 2 -3
BITMAP
0F80
3060
6030
6030
C018
C018
C018
C018
C018
CE18
D318
61B0
61B0
30E0
0FC0
00C2
0066
003C
ENDCHAR
STARTCHAR R
ENCODING 82
SWIDTH 788 0
DWIDTH 16 0
BBX 15 15 1 0
BITMAP
FFC0
3030
3018
3018
3018
3018
3030
3FE0
3060
3030
3030
3030
3032
3036
FC1C
ENDCHAR
STARTCHAR S
ENCODING 83
SWIDTH 691 0
DWIDTH 14 0
BBX 11 15 2 0
BITMAP
1F20
60E0
C060
C020
E020
7800
3E00
0F80
03C0
00E0
8060
8060
C060
F0C0
8F00
ENDCHAR
STARTCHAR T
ENCODING 84
SWIDTH 726 0
DWIDTH 15 0
BBX 14 15 1 0
BITMAP
7FF8
6318
4308
8304
8304
0300
0300
0300
0300
0300
0300
0300
0300
0300
0FC0
ENDCHAR
STARTCHAR U
ENCODING 85
SWIDTH 874 0
DWIDTH 17 0
BBX 15 15 1 0
BITMAP
FC3E
3008
3008
3008
3008
3008
3008
3008
3008
3008
3008
1810
1810
0C20
03C0
ENDCHAR
STARTCHAR V
ENCODING 86
SWIDTH 779 0
DWIDTH 16 0
BBX 14 15 2 0
BITMAP
FC7C
3010
3010
1820
1820
1820
0C40
0C40
0C40
0680
0680
0680
0300
0300
0300
ENDCHAR
STARTCHAR W
ENCODING 87
SWIDTH 1034 0
DWIDTH 21 0
BBX 17 15 2 0
BITMAP
F1E380
60C100
60C100
60C100
30C200
316200
316200
316400
1A3400
1A3400
1A3400
0C1800
0C1800
0C1800
0C1800
ENDCHAR
STARTCHAR X
ENCODING 88
SWIDTH 764 0
DWIDTH 15 0
BBX 14 15 1 0
BITMAP
FCF8
3020
1820
1840
0C80
0680
0700
0300
0380
04C0
08C0
0860
1030
2030
F8FC
ENDCHAR
STARTCHAR Y
ENCODING 89
SWIDTH 763 0
DWIDTH 15 0
BBX 14 15 1 0
BITMAP
FC7C
3010
3010
1820
1820
0C40
0C40
0680
0680
0300
0300
0300
0300
0300
0FC0
ENDCHAR
STARTCHAR Z
ENCODING 90
SWIDTH 670 0
DWIDTH 13 0
BBX 10 15 2 0
BITMAP
FFC0
C0C0
8180
8180
0300
0600
0600
0C00
1800
1800
3000
6040
6040
C0C0
FFC0
ENDCHAR
STARTCHAR bracketleft
ENCODING 91
SWIDTH 500 0
DWIDTH 10 0
BBX 5 19 5 -2
BITMAP
F8
C0
C0
C0
C0
C0
C0
C0
C0
C0
C0
C0
C0
C0
C0
C0
C0
C0
F8
ENDCHAR
STARTCHAR backslash
ENCODING 92
SWIDTH 500 0
DWIDTH 10 0
BBX 10 17 0 -1
BITMAP
C000
4000
6000
2000
3000
1000
1800
0800
0C00
0400
0600
0200
0300
0100
0180
0080
00C0
ENDCHAR
STARTCHAR bracketright
ENCODING 93
SWIDTH 500 0
DWIDTH 10 0
BBX 5 19 0 -2
BITMAP
F8
18
18
18
18
18
18
18
18
18
18
18
18
18
18
18
18
18
F8
ENDCHAR
STARTCHAR asciicircum
ENCODING 94
SWIDTH 500 0
DWIDTH 10 0
BBX 10 5 0 12
BITMAP
0C00
1E00
3F00
6180
8040
ENDCHAR
STARTCHAR underscore
ENCODING 95
SWIDTH 500 0
DWIDTH 10 0
BBX 10 1 0 -4
BITMAP
FFC0
ENDCHAR
STARTCHAR grave
ENCODING 96
SWIDTH 250 0
DWIDTH 5 0
BBX 3 6 1 11
BITMAP
20
40
C0
E0
E0
40
ENDCHAR
STARTCHAR a
ENCODING 97
SWIDTH 618 0
DWIDTH 12 0
BBX 10 10 1 0
BITMAP
3E00
6300
6300
0300
3F00
6300
C300
C300
E340
7D80
ENDCHAR
STARTCHAR b
ENCODING 98
SWIDTH 619 0
DWIDTH 12 0
BBX 10 15 1 0
BITMAP
E000
6000
6000
6000
6000
6E00
7180
60C0
60C0
60C0
60C0
60C0
60C0
7180
6E00
ENDCHAR
STARTCHAR c
ENCODING 99
SWIDTH 508 0
DWIDTH 10 0
BBX 9 10 1 0
BITMAP
1C00
6300
C180
C180
C000
C000
C000
C080
6180
1E00
ENDCHAR
STARTCHAR d
ENCODING 100
SWIDTH 639 0
DWIDTH 13 0
BBX 10 15 2 0
BITMAP
0380
0180
0180
0180
0180
1D80
6380
C180
C180
C180
C180
C180
C180
6380
1DC0
ENDCHAR
STARTCHAR e
ENCODING 101
SWIDTH 561 0
DWIDTH 11 0
BBX 9 10 1 0
BITMAP
1E00
6300
C180
C180
FF80
C000
C000
C080
6180
1E00
ENDCHAR
STARTCHAR f
ENCODING 102
SWIDTH 374 0
DWIDTH 7 0
BBX 7 15 0 0
BITMAP
3C
66
66
64
60
F8
60
60
60
60
60
60
60
60
F0
ENDCHAR
STARTCHAR g
ENCODING 103
SWIDTH 581 0
DWIDTH 12 0
BBX 11 14 0 -4
BITMAP
0DC0
3320
6180
6180
6180
3300
7C00
6000
3E00
6180
C0C0
C0C0
6180
1E00
ENDCHAR
STARTCHAR h
ENCODING 104
SWIDTH 672 0
DWIDTH 13 0
BBX 11 15 1 0
BITMAP
E000
6000
6000
6000
6000
6F00
7180
60C0
60C0
60C0
60C0
60C0
60C0
60C0
F1E0
ENDCHAR
STARTCHAR i
ENCODING 105
SWIDTH 354 0
DWIDTH 7 0
BBX 4 15 2 0
BITMAP
60
F0
60
00
00
E0
60
60
60
60
60
60
60
60
F0
ENDCHAR
STARTCHAR j
ENCODING 106
SWIDTH 337 0
DWIDTH 7 0
BBX 7 19 0 -4
BITMAP
0C
1E
0C
00
00
1C
0C
0C
0C
0C
0C
0C
0C
0C
0C
0C
CC
C8
70
ENDCHAR
STARTCHAR k
ENCODING 107
SWIDTH 659 0
DWIDTH 13 0
BBX 12 15 1 0
BITMAP
E000
6000
6000
6000
6000
63E0
6180
6300
6600
6E00
7B00
7180
6180
60C0
F1F0
ENDCHAR
STARTCHAR l
ENCODING 108
SWIDTH 356 0
DWIDTH 7 0
BBX 4 15 2 0
BITMAP
E0
60
60
60
60
60
60
60
60
60
60
60
60
60
F0
ENDCHAR
STARTCHAR m
ENCODING 109
SWIDTH 947 0
DWIDTH 19 0
BBX 16 10 2 0
BITMAP
CE30
73CC
6186
6186
6186
6186
6186
6186
6186
F3CF
ENDCHAR
STARTCHAR n
ENCODING 110
SWIDTH 673 0
DWIDTH 13 0
BBX 11 10 1 0
BITMAP
EE00
7180
60C0
60C0
60C0
60C0
60C0
60C0
60C0
F1E0
ENDCHAR
STARTCHAR o
ENCODING 111
SWIDTH 563 0
DWIDTH 11 0
BBX 9 10 1 0
BITMAP
1C00
6300
C180
C180
C180
C180
C180
C180
6300
1C00
ENDCHAR
STARTCHAR p
ENCODING 112
SWIDTH 640 0
DWIDTH 13 0
BBX 11 14 1 -4
BITMAP
EF00
70C0
6060
6060
6060
6060
6060
6060
70C0
6F00
6000
6000
6000
F000
ENDCHAR
STARTCHAR q
ENCODING 113
SWIDTH 612 0
DWIDTH 12 0
BBX 11 14 1 -4
BITMAP
1E60
61C0
C0C0
C0C0
C0C0
C0C0
C0C0
C0C0
61C0
1EC0
00C0
00C0
00C0
01E0
ENDCHAR
STARTCHAR r
ENCODING 114
SWIDTH 483 0
DWIDTH 10 0
BBX 8 10 1 0
BITMAP
EE
73
63
60
60
60
60
60
60
F0
ENDCHAR
STARTCHAR s
ENCODING 115
SWIDTH 528 0
DWIDTH 11 0
BBX 8 10 2 0
BITMAP
79
C7
C3
E1
78
1E
87
C3
E3
9E
ENDCHAR
STARTCHAR t
ENCODING 116
SWIDTH 456 0
DWIDTH 9 0
BBX 8 14 1 0
BITMAP
10
30
30
30
FC
30
30
30
30
30
32
33
33
1E
ENDCHAR
STARTCHAR u
ENCODING 117
SWIDTH 673 0
DWIDTH 13 0
BBX 10 10 2 0
BITMAP
E380
6180
6180
6180
6180
6180
6180
6180
6180
3EC0
ENDCHAR
STARTCHAR v
ENCODING 118
SWIDTH 603 0
DWIDTH 12 0
BBX 10 10 1 0
BITMAP
F1C0
6080
6080
3100
3100
1A00
1A00
0C00
0C00
0C00
ENDCHAR
STARTCHAR w
ENCODING 119
SWIDTH 835 0
DWIDTH 17 0
BBX 15 10 1 0
BITMAP
F78E
6304
6304
3188
3188
1AD0
1AD0
0C60
0C60
0C60
ENDCHAR
STARTCHAR x
ENCODING 120
SWIDTH 600 0
DWIDTH 12 0
BBX 10 10 1 0
BITMAP
F1C0
6080
3100
1A00
0C00
0C00
1600
2300
4180
E3C0
ENDCHAR
STARTCHAR y
ENCODING 121
SWIDTH 600 0
DWIDTH 12 0
BBX 11 14 1 -4
BITMAP
F8E0
7040
3040
3080
1880
1880
0D00
0D00
0600
0600
4600
C400
C800
7000
ENDCHAR
STARTCHAR z
ENCODING 122
SWIDTH 548 0
DWIDTH 11 0
BBX 8 10 2 0
BITMAP
FF
C3
86
0C
18
18
30
61
C3
FF
ENDCHAR
STARTCHAR braceleft
ENCODING 123
SWIDTH 500 0
DWIDTH 10 0
BBX 4 19 5 -2
BITMAP
10
20
60
60
60
60
60
20
20
C0
20
20
60
60
60
60
60
20
10
ENDCHAR
STARTCHAR bar
ENCODING 124
SWIDTH 500 0
DWIDTH 10 0
BBX 2 20 4 -4
BITMAP
C0
C0
C0
C0
C0
C0
C0
C0
C0
C0
C0
C0
C0
C0
C0
C0
C0
C0
C0
C0
ENDCHAR
STARTCHAR braceright
ENCODING 125
SWIDTH 500 0
DWIDTH 10 0
BBX 4 19 1 -2
BITMAP
80
40
60
60
60
60
60
40
40
30
40
40
60
60
60
60
60
40
80
ENDCHAR
STARTCHAR asciitilde
ENCODING 126
SWIDTH 1000 0
DWIDTH 20 0
BBX 16 3 2 6
BITMAP
1F01
7FFE
80F8
ENDCHAR
STARTCHAR char007f
ENCODING 127
SWIDTH 400 0
DWIDTH 8 0
BBX 0 0 0 -4
BITMAP
ENDCHAR
STARTCHAR Adieresis
ENCODING 128
SWIDTH 400 0
DWIDTH 8 0
BBX 0 0 0 -4
BITMAP
ENDCHAR
STARTCHAR Aring
ENCODING 129
SWIDTH 1000 0
DWIDTH 20 0
BBX 19 15 0 0
BITMAP
78F1C0
306080
306080
306080
186100
FFFFE0
18B100
18B200
0D1A00
0D1A00
0D1A00
060C00
060C00
060C00
060C00
ENDCHAR
STARTCHAR Ccedilla
ENCODING 130
SWIDTH 542 0
DWIDTH 11 0
BBX 11 1 0 5
BITMAP
FFE0
ENDCHAR
STARTCHAR Eacute
ENCODING 131
SWIDTH 1000 0
DWIDTH 20 0
BBX 16 15 2 0
BITMAP
07E0
1818
300C
61A6
6666
CC23
CC23
CC03
CC03
CC03
6626
61C6
300C
1818
07E0
ENDCHAR
STARTCHAR Ntilde
ENCODING 132
SWIDTH 1000 0
DWIDTH 20 0
BBX 20 1 0 -4
BITMAP
FFFFF0
ENDCHAR
STARTCHAR Odieresis
ENCODING 133
SWIDTH 1000 0
DWIDTH 20 0
BBX 20 20 0 -4
BITMAP
FFFFF0
FFFFF0
FFFFF0
FFFFF0
FFFFF0
FFFFF0
FFFFF0
FFFFF0
FFFFF0
FFFFF0
FFFFF0
FFFFF0
FFFFF0
FFFFF0
FFFFF0
FFFFF0
FFFFF0
FFFFF0
FFFFF0
FFFFF0
ENDCHAR
STARTCHAR Udieresis
ENCODING 134
SWIDTH 1000 0
DWIDTH 20 0
BBX 20 20 0 -4
BITMAP
FFFFF0
FFFFF0
FFFFF0
FFFFF0
FFFFF0
FFFFF0
FFFFF0
FFFFF0
FFFFF0
FFFFF0
FFFFF0
FFFFF0
FFFFF0
FFFFF0
FFFFF0
FFFFF0
FFFFF0
FFFFF0
FFFFF0
FFFFF0
ENDCHAR
STARTCHAR aacute
ENCODING 135
SWIDTH 1000 0
DWIDTH 20 0
BBX 20 20 0 -4
BITMAP
FFFFF0
FFFFF0
FFFFF0
FFFFF0
FFFFF0
FFFFF0
FFFFF0
FFFFF0
FFFFF0
FFFFF0
FFFFF0
FFFFF0
FFFFF0
FFFFF0
FFFFF0
FFFFF0
FFFFF0
FFFFF0
FFFFF0
FFFFF0
ENDCHAR
STARTCHAR agrave
ENCODING 136
SWIDTH 1000 0
DWIDTH 20 0
BBX 20 20 0 -4
BITMAP
FFFFF0
FFFFF0
FFFFF0
FFFFF0
FFFFF0
FFFFF0
FFFFF0
FFFFF0
FFFFF0
FFFFF0
FFFFF0
FFFFF0
FFFFF0
FFFFF0
FFFFF0
FFFFF0
FFFFF0
FFFFF0
FFFFF0
FFFFF0
ENDCHAR
STARTCHAR acircumflex
ENCODING 137
SWIDTH 1000 0
DWIDTH 20 0
BBX 20 20 0 -4
BITMAP
FFFFF0
FFFFF0
FFFFF0
FFFFF0
FFFFF0
FFFFF0
FFFFF0
FFFFF0
FFFFF0
FFFFF0
FFFFF0
FFFFF0
FFFFF0
FFFFF0
FFFFF0
FFFFF0
FFFFF0
FFFFF0
FFFFF0
FFFFF0
ENDCHAR
STARTCHAR adieresis
ENCODING 138
SWIDTH 1000 0
DWIDTH 20 0
BBX 20 20 0 -4
BITMAP
FFFFF0
FFFFF0
FFFFF0
FFFFF0
FFFFF0
FFFFF0
FFFFF0
FFFFF0
FFFFF0
FFFFF0
FFFFF0
FFFFF0
FFFFF0
FFFFF0
FFFFF0
FFFFF0
FFFFF0
FFFFF0
FFFFF0
FFFFF0
ENDCHAR
STARTCHAR atilde
ENCODING 139
SWIDTH 1000 0
DWIDTH 20 0
BBX 20 20 0 -4
BITMAP
FFFFF0
FFFFF0
FFFFF0
FFFFF0
FFFFF0
FFFFF0
FFFFF0
FFFFF0
FFFFF0
FFFFF0
FFFFF0
FFFFF0
FFFFF0
FFFFF0
FFFFF0
FFFFF0
FFFFF0
FFFFF0
FFFFF0
FFFFF0
ENDCHAR
STARTCHAR aring
ENCODING 140
SWIDTH 1000 0
DWIDTH 20 0
BBX 20 20 0 -4
BITMAP
FFFFF0
FFFFF0
FFFFF0
FFFFF0
FFFFF0
FFFFF0
FFFFF0
FFFFF0
FFFFF0
FFFFF0
FFFFF0
FFFFF0
FFFFF0
FFFFF0
FFFFF0
FFFFF0
FFFFF0
FFFFF0
FFFFF0
FFFFF0
ENDCHAR
STARTCHAR ccedilla
ENCODING 141
SWIDTH 1000 0
DWIDTH 20 0
BBX 20 20 0 -4
BITMAP
FFFFF0
FFFFF0
FFFFF0
FFFFF0
FFFFF0
FFFFF0
FFFFF0
FFFFF0
FFFFF0
FFFFF0
FFFFF0
FFFFF0
FFFFF0
FFFFF0
FFFFF0
FFFFF0
FFFFF0
FFFFF0
FFFFF0
FFFFF0
ENDCHAR
STARTCHAR eacute
ENCODING 142
SWIDTH 1000 0
DWIDTH 20 0
BBX 20 20 0 -4
BITMAP
FFFFF0
FFFFF0
FFFFF0
FFFFF0
FFFFF0
FFFFF0
FFFFF0
FFFFF0
FFFFF0
FFFFF0
FFFFF0
FFFFF0
FFFFF0
FFFFF0
FFFFF0
FFFFF0
FFFFF0
FFFFF0
FFFFF0
FFFFF0
ENDCHAR
STARTCHAR egrave
ENCODING 143
SWIDTH 1000 0
DWIDTH 20 0
BBX 20 20 0 -4
BITMAP
FFFFF0
FFFFF0
FFFFF0
FFFFF0
FFFFF0
FFFFF0
FFFFF0
FFFFF0
FFFFF0
FFFFF0
FFFFF0
FFFFF0
FFFFF0
FFFFF0
FFFFF0
FFFFF0
FFFFF0
FFFFF0
FFFFF0
FFFFF0
ENDCHAR
STARTCHAR ecircumflex
ENCODING 144
SWIDTH 1000 0
DWIDTH 20 0
BBX 20 20 0 -4
BITMAP
FFFFF0
FFFFF0
FFFFF0
FFFFF0
FFFFF0
FFFFF0
FFFFF0
FFFFF0
FFFFF0
FFFFF0
FFFFF0
FFFFF0
FFFFF0
FFFFF0
FFFFF0
FFFFF0
FFFFF0
FFFFF0
FFFFF0
FFFFF0
ENDCHAR
STARTCHAR edieresis
ENCODING 145
SWIDTH 1000 0
DWIDTH 20 0
BBX 20 20 0 -4
BITMAP
FFFFF0
FFFFF0
FFFFF0
FFFFF0
FFFFF0
FFFFF0
FFFFF0
FFFFF0
FFFFF0
FFFFF0
FFFFF0
FFFFF0
FFFFF0
FFFFF0
FFFFF0
FFFFF0
FFFFF0
FFFFF0
FFFFF0
FFFFF0
ENDCHAR
STARTCHAR iacute
ENCODING 146
SWIDTH 1000 0
DWIDTH 20 0
BBX 20 20 0 -4
BITMAP
FFFFF0
FFFFF0
FFFFF0
FFFFF0
FFFFF0
FFFFF0
FFFFF0
FFFFF0
FFFFF0
FFFFF0
FFFFF0
FFFFF0
FFFFF0
FFFFF0
FFFFF0
FFFFF0
FFFFF0
FFFFF0
FFFFF0
FFFFF0
ENDCHAR
STARTCHAR igrave
ENCODING 147
SWIDTH 1000 0
DWIDTH 20 0
BBX 20 20 0 -4
BITMAP
FFFFF0
FFFFF0
FFFFF0
FFFFF0
FFFFF0
FFFFF0
FFFFF0
FFFFF0
FFFFF0
FFFFF0
FFFFF0
FFFFF0
FFFFF0
FFFFF0
FFFFF0
FFFFF0
FFFFF0
FFFFF0
FFFFF0
FFFFF0
ENDCHAR
STARTCHAR icircumflex
ENCODING 148
SWIDTH 1000 0
DWIDTH 20 0
BBX 20 20 0 -4
BITMAP
FFFFF0
FFFFF0
FFFFF0
FFFFF0
FFFFF0
FFFFF0
FFFFF0
FFFFF0
FFFFF0
FFFFF0
FFFFF0
FFFFF0
FFFFF0
FFFFF0
FFFFF0
FFFFF0
FFFFF0
FFFFF0
FFFFF0
FFFFF0
ENDCHAR
STARTCHAR idieresis
ENCODING 149
SWIDTH 1000 0
DWIDTH 20 0
BBX 20 20 0 -4
BITMAP
FFFFF0
FFFFF0
FFFFF0
FFFFF0
FFFFF0
FFFFF0
FFFFF0
FFFFF0
FFFFF0
FFFFF0
FFFFF0
FFFFF0
FFFFF0
FFFFF0
FFFFF0
FFFFF0
FFFFF0
FFFFF0
FFFFF0
FFFFF0
ENDCHAR
STARTCHAR ntilde
ENCODING 150
SWIDTH 1000 0
DWIDTH 20 0
BBX 20 20 0 -4
BITMAP
FFFFF0
FFFFF0
FFFFF0
FFFFF0
FFFFF0
FFFFF0
FFFFF0
FFFFF0
FFFFF0
FFFFF0
FFFFF0
FFFFF0
FFFFF0
FFFFF0
FFFFF0
FFFFF0
FFFFF0
FFFFF0
FFFFF0
FFFFF0
ENDCHAR
STARTCHAR oacute
ENCODING 151
SWIDTH 1000 0
DWIDTH 20 0
BBX 20 20 0 -4
BITMAP
FFFFF0
FFFFF0
FFFFF0
FFFFF0
FFFFF0
FFFFF0
FFFFF0
FFFFF0
FFFFF0
FFFFF0
FFFFF0
FFFFF0
FFFFF0
FFFFF0
FFFFF0
FFFFF0
FFFFF0
FFFFF0
FFFFF0
FFFFF0
ENDCHAR
STARTCHAR ograve
ENCODING 152
SWIDTH 1000 0
DWIDTH 20 0
BBX 20 20 0 -4
BITMAP
FFFFF0
FFFFF0
FFFFF0
FFFFF0
FFFFF0
FFFFF0
FFFFF0
FFFFF0
FFFFF0
FFFFF0
FFFFF0
FFFFF0
FFFFF0
FFFFF0
FFFFF0
FFFFF0
FFFFF0
FFFFF0
FFFFF0
FFFFF0
ENDCHAR
STARTCHAR ocircumflex
ENCODING 153
SWIDTH 1000 0
DWIDTH 20 0
BBX 20 20 0 -4
BITMAP
FFFFF0
FFFFF0
FFFFF0
FFFFF0
FFFFF0
FFFFF0
FFFFF0
FFFFF0
FFFFF0
FFFFF0
FFFFF0
FFFFF0
FFFFF0
FFFFF0
FFFFF0
FFFFF0
FFFFF0
FFFFF0
FFFFF0
FFFFF0
ENDCHAR
STARTCHAR odieresis
ENCODING 154
SWIDTH 1000 0
DWIDTH 20 0
BBX 20 20 0 -4
BITMAP
FFFFF0
FFFFF0
FFFFF0
FFFFF0
FFFFF0
FFFFF0
FFFFF0
FFFFF0
FFFFF0
FFFFF0
FFFFF0
FFFFF0
FFFFF0
FFFFF0
FFFFF0
FFFFF0
FFFFF0
FFFFF0
FFFFF0
FFFFF0
ENDCHAR
STARTCHAR otilde
ENCODING 155
SWIDTH 1000 0
DWIDTH 20 0
BBX 20 20 0 -4
BITMAP
FFFFF0
FFFFF0
FFFFF0
FFFFF0
FFFFF0
FFFFF0
FFFFF0
FFFFF0
FFFFF0
FFFFF0
FFFFF0
FFFFF0
FFFFF0
FFFFF0
FFFFF0
FFFFF0
FFFFF0
FFFFF0
FFFFF0
FFFFF0
ENDCHAR
STARTCHAR uacute
ENCODING 156
SWIDTH 1000 0
DWIDTH 20 0
BBX 20 20 0 -4
BITMAP
FFFFF0
FFFFF0
FFFFF0
FFFFF0
FFFFF0
FFFFF0
FFFFF0
FFFFF0
FFFFF0
FFFFF0
FFFFF0
FFFFF0
FFFFF0
FFFFF0
FFFFF0
FFFFF0
FFFFF0
FFFFF0
FFFFF0
FFFFF0
ENDCHAR
STARTCHAR ugrave
ENCODING 157
SWIDTH 1000 0
DWIDTH 20 0
BBX 20 20 0 -4
BITMAP
FFFFF0
FFFFF0
FFFFF0
FFFFF0
FFFFF0
FFFFF0
FFFFF0
FFFFF0
FFFFF0
FFFFF0
FFFFF0
FFFFF0
FFFFF0
FFFFF0
FFFFF0
FFFFF0
FFFFF0
FFFFF0
FFFFF0
FFFFF0
ENDCHAR
STARTCHAR ucircumflex
ENCODING 158
SWIDTH 1000 0
DWIDTH 20 0
BBX 20 20 0 -4
BITMAP
FFFFF0
FFFFF0
FFFFF0
FFFFF0
FFFFF0
FFFFF0
FFFFF0
FFFFF0
FFFFF0
FFFFF0
FFFFF0
FFFFF0
FFFFF0
FFFFF0
FFFFF0
FFFFF0
FFFFF0
FFFFF0
FFFFF0
FFFFF0
ENDCHAR
STARTCHAR udieresis
ENCODING 159
SWIDTH 1000 0
DWIDTH 20 0
BBX 20 20 0 -4
BITMAP
FFFFF0
FFFFF0
FFFFF0
FFFFF0
FFFFF0
FFFFF0
FFFFF0
FFFFF0
FFFFF0
FFFFF0
FFFFF0
FFFFF0
FFFFF0
FFFFF0
FFFFF0
FFFFF0
FFFFF0
FFFFF0
FFFFF0
FFFFF0
ENDCHAR
STARTCHAR dagger
ENCODING 160
SWIDTH 1000 0
DWIDTH 20 0
BBX 20 20 0 -4
BITMAP
FFFFF0
FFFFF0
FFFFF0
FFFFF0
FFFFF0
FFFFF0
FFFFF0
FFFFF0
FFFFF0
FFFFF0
FFFFF0
FFFFF0
FFFFF0
FFFFF0
FFFFF0
FFFFF0
FFFFF0
FFFFF0
FFFFF0
FFFFF0
ENDCHAR
STARTCHAR degree
ENCODING 161
SWIDTH 500 0
DWIDTH 10 0
BBX 0 0 0 -4
BITMAP
ENDCHAR
STARTCHAR cent
ENCODING 162
SWIDTH 500 0
DWIDTH 10 0
BBX 0 0 0 -4
BITMAP
ENDCHAR
STARTCHAR sterling
ENCODING 163
SWIDTH 500 0
DWIDTH 10 0
BBX 0 0 0 -4
BITMAP
ENDCHAR
STARTCHAR section
ENCODING 164
SWIDTH 500 0
DWIDTH 10 0
BBX 0 0 0 -4
BITMAP
ENDCHAR
STARTCHAR bullet
ENCODING 165
SWIDTH 500 0
DWIDTH 10 0
BBX 0 0 0 -4
BITMAP
ENDCHAR
STARTCHAR paragraph
ENCODING 166
SWIDTH 500 0
DWIDTH 10 0
BBX 0 0 0 -4
BITMAP
ENDCHAR
STARTCHAR germandbls
ENCODING 167
SWIDTH 500 0
DWIDTH 10 0
BBX 0 0 0 -4
BITMAP
ENDCHAR
STARTCHAR registered
ENCODING 168
SWIDTH 500 0
DWIDTH 10 0
BBX 0 0 0 -4
BITMAP
ENDCHAR
STARTCHAR copyright
ENCODING 169
SWIDTH 500 0
DWIDTH 10 0
BBX 0 0 0 -4
BITMAP
ENDCHAR
STARTCHAR trademark
ENCODING 170
SWIDTH 500 0
DWIDTH 10 0
BBX 0 0 0 -4
BITMAP
ENDCHAR
STARTCHAR acute
ENCODING 171
SWIDTH 500 0
DWIDTH 10 0
BBX 0 0 0 -4
BITMAP
ENDCHAR
STARTCHAR dieresis
ENCODING 172
SWIDTH 500 0
DWIDTH 10 0
BBX 0 0 0 -4
BITMAP
ENDCHAR
STARTCHAR notequal
ENCODING 173
SWIDTH 500 0
DWIDTH 10 0
BBX 0 0 0 -4
BITMAP
ENDCHAR
STARTCHAR AE
ENCODING 174
SWIDTH 500 0
DWIDTH 10 0
BBX 0 0 0 -4
BITMAP
ENDCHAR
STARTCHAR Oslash
ENCODING 175
SWIDTH 500 0
DWIDTH 10 0
BBX 0 0 0 -4
BITMAP
ENDCHAR
STARTCHAR infinity
ENCODING 176
SWIDTH 500 0
DWIDTH 10 0
BBX 0 0 0 -4
BITMAP
ENDCHAR
STARTCHAR plusminus
ENCODING 177
SWIDTH 500 0
DWIDTH 10 0
BBX 0 0 0 -4
BITMAP
ENDCHAR
STARTCHAR lessequal
ENCODING 178
SWIDTH 500 0
DWIDTH 10 0
BBX 0 0 0 -4
BITMAP
ENDCHAR
STARTCHAR greaterequal
ENCODING 179
SWIDTH 500 0
DWIDTH 10 0
BBX 0 0 0 -4
BITMAP
ENDCHAR
STARTCHAR yen
ENCODING 180
SWIDTH 500 0
DWIDTH 10 0
BBX 0 0 0 -4
BITMAP
ENDCHAR
STARTCHAR mu
ENCODING 181
SWIDTH 500 0
DWIDTH 10 0
BBX 0 0 0 -4
BITMAP
ENDCHAR
STARTCHAR partialdiff
ENCODING 182
SWIDTH 500 0
DWIDTH 10 0
BBX 0 0 0 -4
BITMAP
ENDCHAR
STARTCHAR summation
ENCODING 183
SWIDTH 500 0
DWIDTH 10 0
BBX 0 0 0 -4
BITMAP
ENDCHAR
STARTCHAR product
ENCODING 184
SWIDTH 500 0
DWIDTH 10 0
BBX 0 0 0 -4
BITMAP
ENDCHAR
STARTCHAR pi
ENCODING 185
SWIDTH 500 0
DWIDTH 10 0
BBX 0 0 0 -4
BITMAP
ENDCHAR
STARTCHAR integral
ENCODING 186
SWIDTH 500 0
DWIDTH 10 0
BBX 0 0 0 -4
BITMAP
ENDCHAR
STARTCHAR ordfeminine
ENCODING 187
SWIDTH 500 0
DWIDTH 10 0
BBX 0 0 0 -4
BITMAP
ENDCHAR
STARTCHAR ordmasculine
ENCODING 188
SWIDTH 500 0
DWIDTH 10 0
BBX 0 0 0 -4
BITMAP
ENDCHAR
STARTCHAR Omega
ENCODING 189
SWIDTH 500 0
DWIDTH 10 0
BBX 0 0 0 -4
BITMAP
ENDCHAR
STARTCHAR ae
ENCODING 190
SWIDTH 500 0
DWIDTH 10 0
BBX 0 0 0 -4
BITMAP
ENDCHAR
STARTCHAR oslash
ENCODING 191
SWIDTH 500 0
DWIDTH 10 0
BBX 0 0 0 -4
BITMAP
ENDCHAR
STARTCHAR questiondown
ENCODING 192
SWIDTH 500 0
DWIDTH 10 0
BBX 0 0 0 -4
BITMAP
ENDCHAR
STARTCHAR exclamdown
ENCODING 193
SWIDTH 500 0
DWIDTH 10 0
BBX 0 0 0 -4
BITMAP
ENDCHAR
STARTCHAR logicalnot
ENCODING 194
SWIDTH 500 0
DWIDTH 10 0
BBX 0 0 0 -4
BITMAP
ENDCHAR
STARTCHAR radical
ENCODING 195
SWIDTH 500 0
DWIDTH 10 0
BBX 0 0 0 -4
BITMAP
ENDCHAR
STARTCHAR florin
ENCODING 196
SWIDTH 500 0
DWIDTH 10 0
BBX 0 0 0 -4
BITMAP
ENDCHAR
STARTCHAR approxequal
ENCODING 197
SWIDTH 500 0
DWIDTH 10 0
BBX 0 0 0 -4
BITMAP
ENDCHAR
STARTCHAR Delta
ENCODING 198
SWIDTH 500 0
DWIDTH 10 0
BBX 0 0 0 -4
BITMAP
ENDCHAR
STARTCHAR guillemotleft
ENCODING 199
SWIDTH 500 0
DWIDTH 10 0
BBX 0 0 0 -4
BITMAP
ENDCHAR
STARTCHAR guillemotright
ENCODING 200
SWIDTH 500 0
DWIDTH 10 0
BBX 0 0 0 -4
BITMAP
ENDCHAR
STARTCHAR ellipsis
ENCODING 201
SWIDTH 500 0
DWIDTH 10 0
BBX 0 0 0 -4
BITMAP
ENDCHAR
STARTCHAR nbspace
ENCODING 202
SWIDTH 500 0
DWIDTH 10 0
BBX 0 0 0 -4
BITMAP
ENDCHAR
STARTCHAR Agrave
ENCODING 203
SWIDTH 500 0
DWIDTH 10 0
BBX 0 0 0 -4
BITMAP
ENDCHAR
STARTCHAR Atilde
ENCODING 204
SWIDTH 500 0
DWIDTH 10 0
BBX 0 0 0 -4
BITMAP
ENDCHAR
STARTCHAR Otilde
ENCODING 205
SWIDTH 500 0
DWIDTH 10 0
BBX 0 0 0 -4
BITMAP
ENDCHAR
STARTCHAR OE
ENCODING 206
SWIDTH 500 0
DWIDTH 10 0
BBX 0 0 0 -4
BITMAP
ENDCHAR
STARTCHAR oe
ENCODING 207
SWIDTH 500 0
DWIDTH 10 0
BBX 0 0 0 -4
BITMAP
ENDCHAR
STARTCHAR endash
ENCODING 208
SWIDTH 500 0
DWIDTH 10 0
BBX 0 0 0 -4
BITMAP
ENDCHAR
STARTCHAR emdash
ENCODING 209
SWIDTH 500 0
DWIDTH 10 0
BBX 0 0 0 -4
BITMAP
ENDCHAR
STARTCHAR quotedblleft
ENCODING 210
SWIDTH 500 0
DWIDTH 10 0
BBX 0 0 0 -4
BITMAP
ENDCHAR
STARTCHAR quotedblright
ENCODING 211
SWIDTH 500 0
DWIDTH 10 0
BBX 0 0 0 -4
BITMAP
ENDCHAR
STARTCHAR quoteleft
ENCODING 212
SWIDTH 500 0
DWIDTH 10 0
BBX 0 0 0 -4
BITMAP
ENDCHAR
STARTCHAR quoteright
ENCODING 213
SWIDTH 500 0
DWIDTH 10 0
BBX 0 0 0 -4
BITMAP
ENDCHAR
STARTCHAR divide
ENCODING 214
SWIDTH 500 0
DWIDTH 10 0
BBX 0 0 0 -4
BITMAP
ENDCHAR
STARTCHAR lozenge
ENCODING 215
SWIDTH 500 0
DWIDTH 10 0
BBX 0 0 0 -4
BITMAP
ENDCHAR
STARTCHAR ydieresis
ENCODING 216
SWIDTH 500 0
DWIDTH 10 0
BBX 0 0 0 -4
BITMAP
ENDCHAR
STARTCHAR Ydieresis
ENCODING 217
SWIDTH 500 0
DWIDTH 10 0
BBX 0 0 0 -4
BITMAP
ENDCHAR
STARTCHAR fraction
ENCODING 218
SWIDTH 500 0
DWIDTH 10 0
BBX 0 0 0 -4
BITMAP
ENDCHAR
STARTCHAR currency
ENCODING 219
SWIDTH 500 0
DWIDTH 10 0
BBX 0 0 0 -4
BITMAP
ENDCHAR
STARTCHAR guilsinglleft
ENCODING 220
SWIDTH 500 0
DWIDTH 10 0
BBX 0 0 0 -4
BITMAP
ENDCHAR
STARTCHAR guilsinglright
ENCODING 221
SWIDTH 500 0
DWIDTH 10 0
BBX 0 0 0 -4
BITMAP
ENDCHAR
STARTCHAR fi
ENCODING 222
SWIDTH 500 0
DWIDTH 10 0
BBX 0 0 0 -4
BITMAP
ENDCHAR
STARTCHAR fl
ENCODING 223
SWIDTH 500 0
DWIDTH 10 0
BBX 0 0 0 -4
BITMAP
ENDCHAR
STARTCHAR daggerdbl
ENCODING 224
SWIDTH 500 0
DWIDTH 10 0
BBX 0 0 0 -4
BITMAP
ENDCHAR
STARTCHAR periodcentered
ENCODING 225
SWIDTH 500 0
DWIDTH 10 0
BBX 0 0 0 -4
BITMAP
ENDCHAR
STARTCHAR quotesinglbase
ENCODING 226
SWIDTH 500 0
DWIDTH 10 0
BBX 0 0 0 -4
BITMAP
ENDCHAR
STARTCHAR quotedblbase
ENCODING 227
SWIDTH 500 0
DWIDTH 10 0
BBX 0 0 0 -4
BITMAP
ENDCHAR
STARTCHAR perthousand
ENCODING 228
SWIDTH 500 0
DWIDTH 10 0
BBX 0 0 0 -4
BITMAP
ENDCHAR
STARTCHAR Acircumflex
ENCODING 229
SWIDTH 500 0
DWIDTH 10 0
BBX 0 0 0 -4
BITMAP
ENDCHAR
STARTCHAR Ecircumflex
ENCODING 230
SWIDTH 500 0
DWIDTH 10 0
BBX 0 0 0 -4
BITMAP
ENDCHAR
STARTCHAR Aacute
ENCODING 231
SWIDTH 500 0
DWIDTH 10 0
BBX 0 0 0 -4
BITMAP
ENDCHAR
STARTCHAR Edieresis
ENCODING 232
SWIDTH 500 0
DWIDTH 10 0
BBX 0 0 0 -4
BITMAP
ENDCHAR
STARTCHAR Egrave
ENCODING 233
SWIDTH 500 0
DWIDTH 10 0
BBX 0 0 0 -4
BITMAP
ENDCHAR
STARTCHAR Iacute
ENCODING 234
SWIDTH 500 0
DWIDTH 10 0
BBX 0 0 0 -4
BITMAP
ENDCHAR
STARTCHAR Icircumflex
ENCODING 235
SWIDTH 500 0
DWIDTH 10 0
BBX 0 0 0 -4
BITMAP
ENDCHAR
STARTCHAR Idieresis
ENCODING 236
SWIDTH 500 0
DWIDTH 10 0
BBX 0 0 0 -4
BITMAP
ENDCHAR
STARTCHAR Igrave
ENCODING 237
SWIDTH 500 0
DWIDTH 10 0
BBX 0 0 0 -4
BITMAP
ENDCHAR
STARTCHAR Oacute
ENCODING 238
SWIDTH 500 0
DWIDTH 10 0
BBX 0 0 0 -4
BITMAP
ENDCHAR
STARTCHAR Ocircumflex
ENCODING 239
SWIDTH 500 0
DWIDTH 10 0
BBX 0 0 0 -4
BITMAP
ENDCHAR
STARTCHAR apple
ENCODING 240
SWIDTH 500 0
DWIDTH 10 0
BBX 0 0 0 -4
BITMAP
ENDCHAR
STARTCHAR Ograve
ENCODING 241
SWIDTH 500 0
DWIDTH 10 0
BBX 0 0 0 -4
BITMAP
ENDCHAR
STARTCHAR Uacute
ENCODING 242
SWIDTH 500 0
DWIDTH 10 0
BBX 0 0 0 -4
BITMAP
ENDCHAR
STARTCHAR Ucircumflex
ENCODING 243
SWIDTH 500 0
DWIDTH 10 0
BBX 0 0 0 -4
BITMAP
ENDCHAR
STARTCHAR Ugrave
ENCODING 244
SWIDTH 500 0
DWIDTH 10 0
BBX 0 0 0 -4
BITMAP
ENDCHAR
STARTCHAR dotlessi
ENCODING 245
SWIDTH 500 0
DWIDTH 10 0
BBX 0 0 0 -4
BITMAP
ENDCHAR
STARTCHAR circumflex
ENCODING 246
SWIDTH 500 0
DWIDTH 10 0
BBX 0 0 0 -4
BITMAP
ENDCHAR
STARTCHAR tilde
ENCODING 247
SWIDTH 500 0
DWIDTH 10 0
BBX 0 0 0 -4
BITMAP
ENDCHAR
STARTCHAR macron
ENCODING 248
SWIDTH 500 0
DWIDTH 10 0
BBX 0 0 0 -4
BITMAP
ENDCHAR
STARTCHAR breve
ENCODING 249
SWIDTH 500 0
DWIDTH 10 0
BBX 0 0 0 -4
BITMAP
ENDCHAR
STARTCHAR dotaccent
ENCODING 250
SWIDTH 500 0
DWIDTH 10 0
BBX 0 0 0 -4
BITMAP
ENDCHAR
STARTCHAR ring
ENCODING 251
SWIDTH 500 0
DWIDTH 10 0
BBX 0 0 0 -4
BITMAP
ENDCHAR
STARTCHAR cedilla
ENCODING 252
SWIDTH 500 0
DWIDTH 10 0
BBX 0 0 0 -4
BITMAP
ENDCHAR
STARTCHAR hungarumlaut
ENCODING 253
SWIDTH 500 0
DWIDTH 10 0
BBX 0 0 0 -4
BITMAP
ENDCHAR
STARTCHAR ogonek
ENCODING 254
SWIDTH 500 0
DWIDTH 10 0
BBX 0 0 0 -4
BITMAP
ENDCHAR
STARTCHAR caron
ENCODING 255
SWIDTH 1000 0
DWIDTH 20 0
BBX 15 4 3 5
BITMAP
4104
E38E
E38E
4104
ENDCHAR
ENDFONT
