STARTFONT 2.1
FONT -Fondu-AppleGothic-Medium-R-Normal--24-230-75-75-P-152-MacRoman-1
SIZE 23 75 75
FONTBOUNDINGBOX 26 29 0 -8
COMMENT Created by Fondu from a mac NFNT/FONT resource
STARTPROPERTIES 17
FOUNDRY "Fondu"
FAMILY_NAME "AppleGothic"
WEIGHT_NAME "Medium"
SLANT "R"
SETWIDTH_NAME "Normal"
ADD_STYLE_NAME ""
PIXEL_SIZE 24
POINT_SIZE 230
RESOLUTION_X 75
RESOLUTION_Y 75
SPACING "P"
AVERAGE_WIDTH 152
CHARSET_REGISTRY "MacRoman"
CHARSET_ENCODING "1"
FONT_ASCENT 21
FONT_DESCENT 8
FACE_NAME "AppleGothic"
ENDPROPERTIES
CHARS 230
STARTCHAR char0011
ENCODING 17
SWIDTH 913 0
DWIDTH 22 0
BBX 17 17 2 0
BITMAP
3E3E00
7F7F00
E36380
C36180
C36180
E36380
7FFF00
3FFE00
036000
3FFC00
7FFF00
E36380
C36180
C36180
E36380
7F7F00
3E3E00
ENDCHAR
STARTCHAR char0012
ENCODING 18
SWIDTH 581 0
DWIDTH 14 0
BBX 14 17 0 0
BITMAP
000C
000C
0018
0018
0030
0030
0060
0060
00C0
00C0
0180
C180
6300
3300
1E00
0E00
0400
ENDCHAR
STARTCHAR char0013
ENCODING 19
SWIDTH 744 0
DWIDTH 18 0
BBX 13 13 2 1
BITMAP
0200
0700
0F80
1FC0
3FE0
7FF0
FFF8
7FF0
3FE0
1FC0
0F80
0700
0200
ENDCHAR
STARTCHAR char0014
ENCODING 20
SWIDTH 744 0
DWIDTH 18 0
BBX 15 18 1 0
BITMAP
0030
0070
00E0
0080
0E78
3FFC
7FFE
7FFE
FFFC
FFF8
FFF8
FFF8
FFF8
FFFC
7FFE
7FFE
3FFC
0E78
ENDCHAR
STARTCHAR onehalf
ENCODING 21
SWIDTH 500 0
DWIDTH 12 0
BBX 9 19 1 0
BITMAP
3F80
7D80
FD80
FD80
FD80
FD80
FD80
FD80
7D80
3D80
0D80
0D80
0D80
0D80
0D80
0D80
0D80
0D80
0D80
ENDCHAR
STARTCHAR char001f
ENCODING 31
SWIDTH 1000 0
DWIDTH 12 0
BBX 0 0 0 -8
BITMAP
ENDCHAR
STARTCHAR space
ENCODING 32
SWIDTH 400 0
DWIDTH 10 0
BBX 0 0 0 -8
BITMAP
ENDCHAR
STARTCHAR exclam
ENCODING 33
SWIDTH 500 0
DWIDTH 12 0
BBX 2 20 5 -1
BITMAP
C0
C0
C0
C0
C0
C0
C0
C0
C0
C0
C0
C0
C0
C0
C0
00
00
00
C0
C0
ENDCHAR
STARTCHAR quotedbl
ENCODING 34
SWIDTH 400 0
DWIDTH 10 0
BBX 7 5 2 14
BITMAP
EE
EE
EE
22
CC
ENDCHAR
STARTCHAR numbersign
ENCODING 35
SWIDTH 680 0
DWIDTH 16 0
BBX 12 18 2 0
BITMAP
0CC0
0CC0
0CC0
0CC0
0CC0
7FF0
7FF0
1980
1980
1980
1980
FFE0
FFE0
3300
3300
3300
3300
3300
ENDCHAR
STARTCHAR dollar
ENCODING 36
SWIDTH 680 0
DWIDTH 16 0
BBX 14 22 1 -2
BITMAP
0300
0300
0FC0
3FF0
7B38
E31C
C30C
C30C
E300
7F00
3F80
07F0
03F8
031C
C30C
C30C
E31C
7B78
3FF0
0FC0
0300
0300
ENDCHAR
STARTCHAR percent
ENCODING 37
SWIDTH 1000 0
DWIDTH 24 0
BBX 18 18 3 0
BITMAP
1C0080
3E01C0
670380
C30700
C30E00
C31C00
E63800
7C7000
38E000
01C700
038F80
0719C0
0E30C0
1C30C0
3830C0
703980
E01F00
400E00
ENDCHAR
STARTCHAR ampersand
ENCODING 38
SWIDTH 1000 0
DWIDTH 24 0
BBX 15 18 5 0
BITMAP
1E00
3F00
7380
6180
6180
6180
3300
1E00
3C18
7E18
6718
C398
C1D8
C0F0
C070
60F8
7FDE
1F0E
ENDCHAR
STARTCHAR quotesingle
ENCODING 39
SWIDTH 400 0
DWIDTH 10 0
BBX 3 5 4 15
BITMAP
E0
E0
E0
20
C0
ENDCHAR
STARTCHAR parenleft
ENCODING 40
SWIDTH 500 0
DWIDTH 12 0
BBX 8 22 4 -2
BITMAP
07
0E
1C
38
30
70
60
E0
C0
C0
C0
C0
C0
C0
E0
60
70
30
38
1C
0E
07
ENDCHAR
STARTCHAR parenright
ENCODING 41
SWIDTH 500 0
DWIDTH 12 0
BBX 8 22 0 -2
BITMAP
E0
70
38
1C
0C
0E
06
07
03
03
03
03
03
03
07
06
0E
0C
1C
38
70
E0
ENDCHAR
STARTCHAR asterisk
ENCODING 42
SWIDTH 500 0
DWIDTH 12 0
BBX 10 9 1 11
BITMAP
0C00
CCC0
6D80
3F00
1E00
3F00
6D80
CCC0
0C00
ENDCHAR
STARTCHAR plus
ENCODING 43
SWIDTH 1000 0
DWIDTH 24 0
BBX 14 14 5 2
BITMAP
0300
0300
0300
0300
0300
0300
FFFC
FFFC
0300
0300
0300
0300
0300
0300
ENDCHAR
STARTCHAR comma
ENCODING 44
SWIDTH 400 0
DWIDTH 10 0
BBX 3 5 3 -2
BITMAP
E0
E0
E0
20
C0
ENDCHAR
STARTCHAR hyphen
ENCODING 45
SWIDTH 500 0
DWIDTH 12 0
BBX 10 2 1 8
BITMAP
FFC0
FFC0
ENDCHAR
STARTCHAR period
ENCODING 46
SWIDTH 400 0
DWIDTH 10 0
BBX 3 3 3 0
BITMAP
E0
E0
E0
ENDCHAR
STARTCHAR slash
ENCODING 47
SWIDTH 500 0
DWIDTH 12 0
BBX 11 20 0 -1
BITMAP
0060
0060
00C0
00C0
0180
0180
0300
0300
0600
0600
0C00
0C00
1800
1800
3000
3000
6000
6000
C000
C000
ENDCHAR
STARTCHAR zero
ENCODING 48
SWIDTH 680 0
DWIDTH 16 0
BBX 12 19 2 0
BITMAP
0F00
3FC0
70E0
6060
C030
C030
C030
C030
C030
C030
C030
C030
C030
C030
C030
6060
70E0
3FC0
0F00
ENDCHAR
STARTCHAR one
ENCODING 49
SWIDTH 680 0
DWIDTH 16 0
BBX 5 19 6 0
BITMAP
18
38
F8
F8
18
18
18
18
18
18
18
18
18
18
18
18
18
18
18
ENDCHAR
STARTCHAR two
ENCODING 50
SWIDTH 680 0
DWIDTH 16 0
BBX 13 19 2 0
BITMAP
0F80
3FE0
7070
6030
C030
C030
0070
0060
00E0
01C0
0380
0700
0E00
1C00
3800
7000
E000
FFF8
FFF8
ENDCHAR
STARTCHAR three
ENCODING 51
SWIDTH 680 0
DWIDTH 16 0
BBX 12 19 2 0
BITMAP
1F80
7FE0
6060
C030
C030
C030
0030
0060
0FC0
0FC0
0060
0030
0030
C030
C030
C030
6060
7FE0
1F80
ENDCHAR
STARTCHAR four
ENCODING 52
SWIDTH 680 0
DWIDTH 16 0
BBX 14 19 1 0
BITMAP
0060
00E0
00E0
01E0
03E0
0360
0660
0E60
0C60
1860
3860
3060
6060
FFFC
FFFC
0060
0060
0060
0060
ENDCHAR
STARTCHAR five
ENCODING 53
SWIDTH 680 0
DWIDTH 16 0
BBX 12 19 2 0
BITMAP
FFE0
FFE0
C000
C000
C000
C000
DF00
FFC0
E0E0
C060
C030
0030
0030
0030
C030
C060
E0E0
7FC0
1F00
ENDCHAR
STARTCHAR six
ENCODING 54
SWIDTH 680 0
DWIDTH 16 0
BBX 12 19 2 0
BITMAP
0F80
3FE0
7060
6030
C030
C000
C000
DF00
FFC0
F0E0
E060
C030
C030
C030
C030
6060
70E0
3FC0
0F00
ENDCHAR
STARTCHAR seven
ENCODING 55
SWIDTH 680 0
DWIDTH 16 0
BBX 12 19 2 0
BITMAP
FFF0
FFF0
0030
0030
0060
0060
00C0
00C0
0180
0180
0180
0300
0300
0300
0600
0600
0600
0600
0600
ENDCHAR
STARTCHAR eight
ENCODING 56
SWIDTH 680 0
DWIDTH 16 0
BBX 12 19 2 0
BITMAP
1F80
7FE0
6060
C030
C030
C030
C030
6060
3FC0
7FE0
6060
C030
C030
C030
C030
C030
6060
7FE0
1F80
ENDCHAR
STARTCHAR nine
ENCODING 57
SWIDTH 680 0
DWIDTH 16 0
BBX 12 19 2 0
BITMAP
0F00
3FC0
70E0
6060
C030
C030
C030
C030
6070
70F0
3FB0
0F30
0030
0030
C030
C060
60E0
7FC0
1F00
ENDCHAR
STARTCHAR colon
ENCODING 58
SWIDTH 500 0
DWIDTH 12 0
BBX 3 13 4 3
BITMAP
E0
E0
E0
00
00
00
00
00
00
00
E0
E0
E0
ENDCHAR
STARTCHAR semicolon
ENCODING 59
SWIDTH 500 0
DWIDTH 12 0
BBX 3 16 4 0
BITMAP
E0
E0
E0
00
00
00
00
00
00
00
00
E0
E0
E0
20
C0
ENDCHAR
STARTCHAR less
ENCODING 60
SWIDTH 500 0
DWIDTH 12 0
BBX 12 21 0 -1
BITMAP
0030
0070
00E0
01C0
0380
0700
0E00
1C00
3800
7000
E000
7000
3800
1C00
0E00
0700
0380
01C0
00E0
0070
0030
ENDCHAR
STARTCHAR equal
ENCODING 61
SWIDTH 1000 0
DWIDTH 24 0
BBX 14 7 5 6
BITMAP
FFFC
FFFC
0000
0000
0000
FFFC
FFFC
ENDCHAR
STARTCHAR greater
ENCODING 62
SWIDTH 500 0
DWIDTH 12 0
BBX 12 21 0 -1
BITMAP
C000
E000
7000
3800
1C00
0E00
0700
0380
01C0
00E0
0070
00E0
01C0
0380
0700
0E00
1C00
3800
7000
E000
C000
ENDCHAR
STARTCHAR question
ENCODING 63
SWIDTH 680 0
DWIDTH 16 0
BBX 10 20 3 -1
BITMAP
1E00
7F80
6180
C0C0
C0C0
00C0
0180
0180
0300
0600
0600
0C00
0C00
0C00
0C00
0000
0000
0000
0C00
0C00
ENDCHAR
STARTCHAR at
ENCODING 64
SWIDTH 1000 0
DWIDTH 24 0
BBX 16 17 4 1
BITMAP
07E0
1FF8
381C
6006
60EE
C3FB
C71B
C61B
CC33
CC33
CC76
CFF6
679D
6003
380E
1FFC
07F0
ENDCHAR
STARTCHAR A
ENCODING 65
SWIDTH 816 0
DWIDTH 20 0
BBX 14 19 3 0
BITMAP
0300
0300
0780
0780
0CC0
0CC0
0CC0
1860
1860
1860
3030
3030
3FF0
7FF8
6018
6018
C00C
C00C
C00C
ENDCHAR
STARTCHAR B
ENCODING 66
SWIDTH 772 0
DWIDTH 19 0
BBX 13 19 3 0
BITMAP
FFE0
FFF0
C038
C018
C018
C018
C018
C030
FFE0
FFF0
C038
C018
C018
C018
C018
C018
C038
FFF0
FFE0
ENDCHAR
STARTCHAR C
ENCODING 67
SWIDTH 775 0
DWIDTH 19 0
BBX 15 19 2 0
BITMAP
07E0
1FF8
3C3C
700E
6006
E006
C000
C000
C000
C000
C000
C000
C000
E006
6006
700E
3C3C
1FF8
07E0
ENDCHAR
STARTCHAR D
ENCODING 68
SWIDTH 785 0
DWIDTH 19 0
BBX 14 19 3 0
BITMAP
FFC0
FFF0
C078
C018
C01C
C00C
C00C
C00C
C00C
C00C
C00C
C00C
C00C
C00C
C01C
C018
C078
FFF0
FFC0
ENDCHAR
STARTCHAR E
ENCODING 69
SWIDTH 714 0
DWIDTH 17 0
BBX 11 19 3 0
BITMAP
FFE0
FFE0
C000
C000
C000
C000
C000
C000
FFE0
FFE0
C000
C000
C000
C000
C000
C000
C000
FFE0
FFE0
ENDCHAR
STARTCHAR F
ENCODING 70
SWIDTH 678 0
DWIDTH 16 0
BBX 11 19 3 0
BITMAP
FFE0
FFE0
C000
C000
C000
C000
C000
C000
FFE0
FFE0
C000
C000
C000
C000
C000
C000
C000
C000
C000
ENDCHAR
STARTCHAR G
ENCODING 71
SWIDTH 889 0
DWIDTH 21 0
BBX 15 19 3 0
BITMAP
07E0
1FF8
3C1C
700E
6006
E006
C000
C000
C000
C0FE
C0FE
C006
C006
E006
6006
700E
3C1C
1FF8
07E0
ENDCHAR
STARTCHAR H
ENCODING 72
SWIDTH 831 0
DWIDTH 20 0
BBX 14 19 3 0
BITMAP
C00C
C00C
C00C
C00C
C00C
C00C
C00C
C00C
FFFC
FFFC
C00C
C00C
C00C
C00C
C00C
C00C
C00C
C00C
C00C
ENDCHAR
STARTCHAR I
ENCODING 73
SWIDTH 319 0
DWIDTH 8 0
BBX 2 19 3 0
BITMAP
C0
C0
C0
C0
C0
C0
C0
C0
C0
C0
C0
C0
C0
C0
C0
C0
C0
C0
C0
ENDCHAR
STARTCHAR J
ENCODING 74
SWIDTH 653 0
DWIDTH 16 0
BBX 12 19 1 0
BITMAP
0030
0030
0030
0030
0030
0030
0030
0030
0030
0030
0030
0030
0030
0030
C070
C060
E0E0
7FC0
1F00
ENDCHAR
STARTCHAR K
ENCODING 75
SWIDTH 786 0
DWIDTH 19 0
BBX 14 19 3 0
BITMAP
C038
C070
C0E0
C1C0
C380
C700
CE00
DC00
F800
F800
DC00
CE00
C700
C380
C1C0
C0E0
C070
C038
C01C
ENDCHAR
STARTCHAR L
ENCODING 76
SWIDTH 653 0
DWIDTH 16 0
BBX 11 19 3 0
BITMAP
C000
C000
C000
C000
C000
C000
C000
C000
C000
C000
C000
C000
C000
C000
C000
C000
C000
FFE0
FFE0
ENDCHAR
STARTCHAR M
ENCODING 77
SWIDTH 1066 0
DWIDTH 26 0
BBX 20 19 3 0
BITMAP
C00030
E00070
E00070
F000F0
F000F0
D801B0
D801B0
CC0330
CC0330
C60630
C60630
C30C30
C30C30
C19830
C19830
C0F030
C0F030
C06030
C06030
ENDCHAR
STARTCHAR N
ENCODING 78
SWIDTH 895 0
DWIDTH 21 0
BBX 15 19 3 0
BITMAP
E006
F006
F006
D806
DC06
CC06
C606
C706
C306
C186
C1C6
C0C6
C066
C076
C036
C01E
C01E
C00E
C006
ENDCHAR
STARTCHAR O
ENCODING 79
SWIDTH 888 0
DWIDTH 21 0
BBX 17 19 2 0
BITMAP
07F000
1FFC00
3C1E00
700700
600300
E00380
C00180
C00180
C00180
C00180
C00180
C00180
C00180
E00380
600300
700700
3C1E00
1FFC00
07F000
ENDCHAR
STARTCHAR P
ENCODING 80
SWIDTH 714 0
DWIDTH 17 0
BBX 13 19 3 0
BITMAP
FF80
FFE0
C070
C030
C018
C018
C018
C018
C030
C070
FFE0
FF80
C000
C000
C000
C000
C000
C000
C000
ENDCHAR
STARTCHAR Q
ENCODING 81
SWIDTH 854 0
DWIDTH 20 0
BBX 17 20 2 -1
BITMAP
07F000
1FFC00
3C1E00
700700
600300
E00380
C00180
C00180
C00180
C00180
C00180
C00180
C02180
E07380
603B00
701F00
3C1E00
1FFF00
07F380
000100
ENDCHAR
STARTCHAR R
ENCODING 82
SWIDTH 775 0
DWIDTH 19 0
BBX 15 19 3 0
BITMAP
FFE0
FFF0
C038
C018
C018
C018
C018
C018
C038
FFF0
FFE0
C070
C030
C038
C018
C018
C018
C01E
C00E
ENDCHAR
STARTCHAR S
ENCODING 83
SWIDTH 769 0
DWIDTH 18 0
BBX 14 19 2 0
BITMAP
0FC0
3FF0
7838
E01C
C00C
C00C
E000
7C00
3F80
07F0
00F8
001C
000C
C00C
C00C
E01C
7878
3FF0
0FC0
ENDCHAR
STARTCHAR T
ENCODING 84
SWIDTH 719 0
DWIDTH 17 0
BBX 14 19 2 0
BITMAP
FFFC
FFFC
0300
0300
0300
0300
0300
0300
0300
0300
0300
0300
0300
0300
0300
0300
0300
0300
0300
ENDCHAR
STARTCHAR U
ENCODING 85
SWIDTH 889 0
DWIDTH 21 0
BBX 15 19 3 0
BITMAP
C006
C006
C006
C006
C006
C006
C006
C006
C006
C006
C006
C006
C006
C006
E00E
600C
701C
3FF8
0FE0
ENDCHAR
STARTCHAR V
ENCODING 86
SWIDTH 779 0
DWIDTH 19 0
BBX 17 19 1 0
BITMAP
C00180
C00180
600300
600300
600300
300600
300600
180C00
180C00
180C00
0C1800
0C1800
063000
063000
063000
036000
036000
01C000
01C000
ENDCHAR
STARTCHAR W
ENCODING 87
SWIDTH 1149 0
DWIDTH 28 0
BBX 26 19 1 0
BITMAP
C00C00C0
C00C00C0
601E0180
601E0180
601E0180
30330300
30330300
30330300
18330600
18618600
18618600
0C618C00
0C618C00
0CC0CC00
06C0D800
06C0D800
07C0F800
03807000
03807000
ENDCHAR
STARTCHAR X
ENCODING 88
SWIDTH 847 0
DWIDTH 20 0
BBX 18 19 1 0
BITMAP
400080
E001C0
700380
380700
1C0E00
0E1C00
073800
03F000
01E000
00C000
01E000
03F000
073800
0E1C00
1C0E00
380700
700380
E001C0
400080
ENDCHAR
STARTCHAR Y
ENCODING 89
SWIDTH 731 0
DWIDTH 18 0
BBX 16 19 1 0
BITMAP
4002
E007
700E
381C
1C38
0E70
07E0
03C0
0180
0180
0180
0180
0180
0180
0180
0180
0180
0180
0180
ENDCHAR
STARTCHAR Z
ENCODING 90
SWIDTH 697 0
DWIDTH 17 0
BBX 14 19 2 0
BITMAP
FFFC
FFFC
000C
001C
0038
0070
00E0
01C0
0380
0700
0700
0E00
1C00
3800
7000
E000
E000
FFFC
FFFC
ENDCHAR
STARTCHAR bracketleft
ENCODING 91
SWIDTH 500 0
DWIDTH 12 0
BBX 5 21 6 -1
BITMAP
F8
F8
C0
C0
C0
C0
C0
C0
C0
C0
C0
C0
C0
C0
C0
C0
C0
C0
C0
F8
F8
ENDCHAR
STARTCHAR backslash
ENCODING 92
SWIDTH 500 0
DWIDTH 12 0
BBX 11 20 0 -1
BITMAP
C000
C000
6000
6000
3000
3000
1800
1800
0C00
0C00
0600
0600
0300
0300
0180
0180
00C0
00C0
0060
0060
ENDCHAR
STARTCHAR bracketright
ENCODING 93
SWIDTH 500 0
DWIDTH 12 0
BBX 5 21 1 -1
BITMAP
F8
F8
18
18
18
18
18
18
18
18
18
18
18
18
18
18
18
18
18
F8
F8
ENDCHAR
STARTCHAR asciicircum
ENCODING 94
SWIDTH 500 0
DWIDTH 12 0
BBX 11 7 1 14
BITMAP
0400
0E00
1F00
3B80
71C0
E0E0
C060
ENDCHAR
STARTCHAR underscore
ENCODING 95
SWIDTH 500 0
DWIDTH 12 0
BBX 12 2 0 -8
BITMAP
FFF0
FFF0
ENDCHAR
STARTCHAR grave
ENCODING 96
SWIDTH 250 0
DWIDTH 6 0
BBX 3 5 1 15
BITMAP
60
80
E0
E0
E0
ENDCHAR
STARTCHAR a
ENCODING 97
SWIDTH 644 0
DWIDTH 15 0
BBX 11 13 2 0
BITMAP
1F00
7FC0
E0C0
C060
0060
1FE0
7FE0
E060
C060
C060
E0E0
7FE0
3F60
ENDCHAR
STARTCHAR b
ENCODING 98
SWIDTH 694 0
DWIDTH 17 0
BBX 12 19 3 0
BITMAP
C000
C000
C000
C000
C000
C000
DF00
FFC0
E0E0
C060
C070
C030
C030
C030
C070
C060
E0E0
FFC0
DF00
ENDCHAR
STARTCHAR c
ENCODING 99
SWIDTH 584 0
DWIDTH 14 0
BBX 11 13 1 0
BITMAP
0F00
3FC0
70E0
6060
C000
C000
C000
C000
C000
6060
70E0
3FC0
0F00
ENDCHAR
STARTCHAR d
ENCODING 100
SWIDTH 696 0
DWIDTH 17 0
BBX 12 19 2 0
BITMAP
0030
0030
0030
0030
0030
0030
0FB0
3FF0
7070
6030
E030
C030
C030
C030
E030
6030
7070
3FF0
0FB0
ENDCHAR
STARTCHAR e
ENCODING 101
SWIDTH 643 0
DWIDTH 15 0
BBX 12 13 1 0
BITMAP
0F00
3FC0
70E0
6060
C030
FFF0
FFF0
C000
C000
6030
7070
3FE0
0F80
ENDCHAR
STARTCHAR f
ENCODING 102
SWIDTH 457 0
DWIDTH 11 0
BBX 8 19 1 0
BITMAP
0F
1F
18
18
18
18
FF
FF
18
18
18
18
18
18
18
18
18
18
18
ENDCHAR
STARTCHAR g
ENCODING 103
SWIDTH 699 0
DWIDTH 17 0
BBX 12 18 2 -5
BITMAP
1FB0
3FF0
7070
6030
C030
C030
C030
C030
C030
6030
7070
3FF0
0FB0
C030
C030
E070
7FE0
3FC0
ENDCHAR
STARTCHAR h
ENCODING 104
SWIDTH 703 0
DWIDTH 17 0
BBX 11 19 3 0
BITMAP
C000
C000
C000
C000
C000
C000
DF80
FFC0
E0E0
C060
C060
C060
C060
C060
C060
C060
C060
C060
C060
ENDCHAR
STARTCHAR i
ENCODING 105
SWIDTH 323 0
DWIDTH 8 0
BBX 2 18 3 0
BITMAP
C0
C0
00
00
00
C0
C0
C0
C0
C0
C0
C0
C0
C0
C0
C0
C0
C0
ENDCHAR
STARTCHAR j
ENCODING 106
SWIDTH 322 0
DWIDTH 8 0
BBX 4 23 1 -5
BITMAP
30
30
00
00
00
30
30
30
30
30
30
30
30
30
30
30
30
30
30
30
30
F0
E0
ENDCHAR
STARTCHAR k
ENCODING 107
SWIDTH 598 0
DWIDTH 14 0
BBX 10 19 3 0
BITMAP
C000
C000
C000
C000
C000
C000
C1C0
C380
C700
CE00
DC00
F800
F800
DC00
CE00
C700
C380
C1C0
C0C0
ENDCHAR
STARTCHAR l
ENCODING 108
SWIDTH 323 0
DWIDTH 8 0
BBX 3 19 2 0
BITMAP
E0
60
60
60
60
60
60
60
60
60
60
60
60
60
60
60
60
60
60
ENDCHAR
STARTCHAR m
ENCODING 109
SWIDTH 1050 0
DWIDTH 25 0
BBX 20 13 3 0
BITMAP
CF0F80
DFDFE0
F0F060
E06030
C06030
C06030
C06030
C06030
C06030
C06030
C06030
C06030
C06030
ENDCHAR
STARTCHAR n
ENCODING 110
SWIDTH 700 0
DWIDTH 17 0
BBX 11 13 3 0
BITMAP
DF80
FFC0
E0E0
C060
C060
C060
C060
C060
C060
C060
C060
C060
C060
ENDCHAR
STARTCHAR o
ENCODING 111
SWIDTH 697 0
DWIDTH 17 0
BBX 13 13 2 0
BITMAP
0F80
3FE0
7070
6030
E038
C018
C018
C018
E038
6030
7070
3FE0
0F80
ENDCHAR
STARTCHAR p
ENCODING 112
SWIDTH 693 0
DWIDTH 17 0
BBX 12 18 3 -5
BITMAP
DF00
FFC0
E0E0
C060
C030
C030
C030
C030
C030
C060
E0E0
FFC0
DF00
C000
C000
C000
C000
C000
ENDCHAR
STARTCHAR q
ENCODING 113
SWIDTH 694 0
DWIDTH 17 0
BBX 12 18 2 -5
BITMAP
0FB0
3FF0
7070
6030
C030
C030
C030
C030
C030
6030
7070
3FF0
0FB0
0030
0030
0030
0030
0030
ENDCHAR
STARTCHAR r
ENCODING 114
SWIDTH 458 0
DWIDTH 11 0
BBX 7 13 3 0
BITMAP
DE
FE
E0
C0
C0
C0
C0
C0
C0
C0
C0
C0
C0
ENDCHAR
STARTCHAR s
ENCODING 115
SWIDTH 583 0
DWIDTH 14 0
BBX 10 13 2 0
BITMAP
3F00
7F80
E1C0
C0C0
E000
7E00
1F80
01C0
00C0
C0C0
E1C0
7F80
3F00
ENDCHAR
STARTCHAR t
ENCODING 116
SWIDTH 382 0
DWIDTH 9 0
BBX 7 16 1 0
BITMAP
30
30
30
FE
FE
30
30
30
30
30
30
30
30
30
3E
1E
ENDCHAR
STARTCHAR u
ENCODING 117
SWIDTH 705 0
DWIDTH 17 0
BBX 11 13 3 0
BITMAP
C060
C060
C060
C060
C060
C060
C060
C060
C060
C060
E0E0
7FE0
3F60
ENDCHAR
STARTCHAR v
ENCODING 118
SWIDTH 634 0
DWIDTH 15 0
BBX 11 13 2 0
BITMAP
C060
C060
C060
60C0
60C0
60C0
3180
3180
3180
1B00
1B00
0E00
0E00
ENDCHAR
STARTCHAR w
ENCODING 119
SWIDTH 929 0
DWIDTH 22 0
BBX 21 13 1 0
BITMAP
C07018
C07018
60D830
60D830
60D830
318C60
318C60
318C60
1B06C0
1B06C0
1B06C0
0E0380
0E0380
ENDCHAR
STARTCHAR x
ENCODING 120
SWIDTH 651 0
DWIDTH 16 0
BBX 12 13 2 0
BITMAP
4020
E070
70E0
39C0
1F80
0F00
0600
0F00
1F80
39C0
70E0
E070
4020
ENDCHAR
STARTCHAR y
ENCODING 121
SWIDTH 635 0
DWIDTH 15 0
BBX 11 18 3 -5
BITMAP
C060
C060
C060
60C0
60C0
60C0
3180
3180
3300
1B00
1E00
1E00
0C00
0C00
1800
1800
3000
3000
ENDCHAR
STARTCHAR z
ENCODING 122
SWIDTH 527 0
DWIDTH 13 0
BBX 9 13 2 0
BITMAP
FF80
FF80
0300
0700
0600
0C00
1C00
1800
3000
7000
6000
FF80
FF80
ENDCHAR
STARTCHAR braceleft
ENCODING 123
SWIDTH 500 0
DWIDTH 12 0
BBX 6 22 6 -2
BITMAP
0C
10
30
30
30
30
30
30
30
20
C0
20
30
30
30
30
30
30
30
30
10
0C
ENDCHAR
STARTCHAR bar
ENCODING 124
SWIDTH 500 0
DWIDTH 12 0
BBX 2 26 5 -5
BITMAP
C0
C0
C0
C0
C0
C0
C0
C0
C0
C0
C0
C0
C0
C0
C0
C0
C0
C0
C0
C0
C0
C0
C0
C0
C0
C0
ENDCHAR
STARTCHAR braceright
ENCODING 125
SWIDTH 500 0
DWIDTH 12 0
BBX 6 22 0 -2
BITMAP
C0
20
30
30
30
30
30
30
30
10
0C
10
30
30
30
30
30
30
30
30
20
C0
ENDCHAR
STARTCHAR asciitilde
ENCODING 126
SWIDTH 1000 0
DWIDTH 24 0
BBX 21 5 2 7
BITMAP
0F8010
3FE038
78F8F0
E03FE0
400F80
ENDCHAR
STARTCHAR char007f
ENCODING 127
SWIDTH 400 0
DWIDTH 10 0
BBX 0 0 0 -8
BITMAP
ENDCHAR
STARTCHAR Adieresis
ENCODING 128
SWIDTH 400 0
DWIDTH 10 0
BBX 0 0 0 -8
BITMAP
ENDCHAR
STARTCHAR Aring
ENCODING 129
SWIDTH 913 0
DWIDTH 22 0
BBX 20 18 0 0
BITMAP
3060C0
3060C0
3060C0
3060C0
3060C0
3060C0
FFFFF0
FFFFF0
18F180
18F180
18F180
0D9B00
0D9B00
0D9B00
070E00
070E00
070E00
070E00
ENDCHAR
STARTCHAR Ccedilla
ENCODING 130
SWIDTH 498 0
DWIDTH 12 0
BBX 12 2 0 4
BITMAP
FFF0
FFF0
ENDCHAR
STARTCHAR Eacute
ENCODING 131
SWIDTH 1000 0
DWIDTH 24 0
BBX 17 17 4 0
BITMAP
07F000
1FFC00
3C1E00
700700
63E300
E7F380
CE3180
CC0180
CC0180
CC0180
CE3180
E7F380
63E300
700700
3C1E00
1FFC00
07F000
ENDCHAR
STARTCHAR Ntilde
ENCODING 132
SWIDTH 747 0
DWIDTH 18 0
BBX 18 2 0 -8
BITMAP
FFFFC0
FFFFC0
ENDCHAR
STARTCHAR Odieresis
ENCODING 133
SWIDTH 1000 0
DWIDTH 24 0
BBX 24 24 0 -5
BITMAP
FFFFFF
FFFFFF
FFFFFF
FFFFFF
FFFFFF
FFFFFF
FFFFFF
FFFFFF
FFFFFF
FFFFFF
FFFFFF
FFFFFF
FFFFFF
FFFFFF
FFFFFF
FFFFFF
FFFFFF
FFFFFF
FFFFFF
FFFFFF
FFFFFF
FFFFFF
FFFFFF
FFFFFF
ENDCHAR
STARTCHAR Udieresis
ENCODING 134
SWIDTH 1000 0
DWIDTH 24 0
BBX 24 24 0 -5
BITMAP
FFFFFF
FFFFFF
FFFFFF
FFFFFF
FFFFFF
FFFFFF
FFFFFF
FFFFFF
FFFFFF
FFFFFF
FFFFFF
FFFFFF
FFFFFF
FFFFFF
FFFFFF
FFFFFF
FFFFFF
FFFFFF
FFFFFF
FFFFFF
FFFFFF
FFFFFF
FFFFFF
FFFFFF
ENDCHAR
STARTCHAR aacute
ENCODING 135
SWIDTH 1000 0
DWIDTH 24 0
BBX 24 24 0 -5
BITMAP
FFFFFF
FFFFFF
FFFFFF
FFFFFF
FFFFFF
FFFFFF
FFFFFF
FFFFFF
FFFFFF
FFFFFF
FFFFFF
FFFFFF
FFFFFF
FFFFFF
FFFFFF
FFFFFF
FFFFFF
FFFFFF
FFFFFF
FFFFFF
FFFFFF
FFFFFF
FFFFFF
FFFFFF
ENDCHAR
STARTCHAR agrave
ENCODING 136
SWIDTH 1000 0
DWIDTH 24 0
BBX 24 24 0 -5
BITMAP
FFFFFF
FFFFFF
FFFFFF
FFFFFF
FFFFFF
FFFFFF
FFFFFF
FFFFFF
FFFFFF
FFFFFF
FFFFFF
FFFFFF
FFFFFF
FFFFFF
FFFFFF
FFFFFF
FFFFFF
FFFFFF
FFFFFF
FFFFFF
FFFFFF
FFFFFF
FFFFFF
FFFFFF
ENDCHAR
STARTCHAR acircumflex
ENCODING 137
SWIDTH 1000 0
DWIDTH 24 0
BBX 24 24 0 -5
BITMAP
FFFFFF
FFFFFF
FFFFFF
FFFFFF
FFFFFF
FFFFFF
FFFFFF
FFFFFF
FFFFFF
FFFFFF
FFFFFF
FFFFFF
FFFFFF
FFFFFF
FFFFFF
FFFFFF
FFFFFF
FFFFFF
FFFFFF
FFFFFF
FFFFFF
FFFFFF
FFFFFF
FFFFFF
ENDCHAR
STARTCHAR adieresis
ENCODING 138
SWIDTH 1000 0
DWIDTH 24 0
BBX 24 24 0 -5
BITMAP
FFFFFF
FFFFFF
FFFFFF
FFFFFF
FFFFFF
FFFFFF
FFFFFF
FFFFFF
FFFFFF
FFFFFF
FFFFFF
FFFFFF
FFFFFF
FFFFFF
FFFFFF
FFFFFF
FFFFFF
FFFFFF
FFFFFF
FFFFFF
FFFFFF
FFFFFF
FFFFFF
FFFFFF
ENDCHAR
STARTCHAR atilde
ENCODING 139
SWIDTH 1000 0
DWIDTH 24 0
BBX 24 24 0 -5
BITMAP
FFFFFF
FFFFFF
FFFFFF
FFFFFF
FFFFFF
FFFFFF
FFFFFF
FFFFFF
FFFFFF
FFFFFF
FFFFFF
FFFFFF
FFFFFF
FFFFFF
FFFFFF
FFFFFF
FFFFFF
FFFFFF
FFFFFF
FFFFFF
FFFFFF
FFFFFF
FFFFFF
FFFFFF
ENDCHAR
STARTCHAR aring
ENCODING 140
SWIDTH 1000 0
DWIDTH 24 0
BBX 24 24 0 -5
BITMAP
FFFFFF
FFFFFF
FFFFFF
FFFFFF
FFFFFF
FFFFFF
FFFFFF
FFFFFF
FFFFFF
FFFFFF
FFFFFF
FFFFFF
FFFFFF
FFFFFF
FFFFFF
FFFFFF
FFFFFF
FFFFFF
FFFFFF
FFFFFF
FFFFFF
FFFFFF
FFFFFF
FFFFFF
ENDCHAR
STARTCHAR ccedilla
ENCODING 141
SWIDTH 1000 0
DWIDTH 24 0
BBX 24 24 0 -5
BITMAP
FFFFFF
FFFFFF
FFFFFF
FFFFFF
FFFFFF
FFFFFF
FFFFFF
FFFFFF
FFFFFF
FFFFFF
FFFFFF
FFFFFF
FFFFFF
FFFFFF
FFFFFF
FFFFFF
FFFFFF
FFFFFF
FFFFFF
FFFFFF
FFFFFF
FFFFFF
FFFFFF
FFFFFF
ENDCHAR
STARTCHAR eacute
ENCODING 142
SWIDTH 1000 0
DWIDTH 24 0
BBX 24 24 0 -5
BITMAP
FFFFFF
FFFFFF
FFFFFF
FFFFFF
FFFFFF
FFFFFF
FFFFFF
FFFFFF
FFFFFF
FFFFFF
FFFFFF
FFFFFF
FFFFFF
FFFFFF
FFFFFF
FFFFFF
FFFFFF
FFFFFF
FFFFFF
FFFFFF
FFFFFF
FFFFFF
FFFFFF
FFFFFF
ENDCHAR
STARTCHAR egrave
ENCODING 143
SWIDTH 1000 0
DWIDTH 24 0
BBX 24 24 0 -5
BITMAP
FFFFFF
FFFFFF
FFFFFF
FFFFFF
FFFFFF
FFFFFF
FFFFFF
FFFFFF
FFFFFF
FFFFFF
FFFFFF
FFFFFF
FFFFFF
FFFFFF
FFFFFF
FFFFFF
FFFFFF
FFFFFF
FFFFFF
FFFFFF
FFFFFF
FFFFFF
FFFFFF
FFFFFF
ENDCHAR
STARTCHAR ecircumflex
ENCODING 144
SWIDTH 1000 0
DWIDTH 24 0
BBX 24 24 0 -5
BITMAP
FFFFFF
FFFFFF
FFFFFF
FFFFFF
FFFFFF
FFFFFF
FFFFFF
FFFFFF
FFFFFF
FFFFFF
FFFFFF
FFFFFF
FFFFFF
FFFFFF
FFFFFF
FFFFFF
FFFFFF
FFFFFF
FFFFFF
FFFFFF
FFFFFF
FFFFFF
FFFFFF
FFFFFF
ENDCHAR
STARTCHAR edieresis
ENCODING 145
SWIDTH 1000 0
DWIDTH 24 0
BBX 24 24 0 -5
BITMAP
FFFFFF
FFFFFF
FFFFFF
FFFFFF
FFFFFF
FFFFFF
FFFFFF
FFFFFF
FFFFFF
FFFFFF
FFFFFF
FFFFFF
FFFFFF
FFFFFF
FFFFFF
FFFFFF
FFFFFF
FFFFFF
FFFFFF
FFFFFF
FFFFFF
FFFFFF
FFFFFF
FFFFFF
ENDCHAR
STARTCHAR iacute
ENCODING 146
SWIDTH 1000 0
DWIDTH 24 0
BBX 24 24 0 -5
BITMAP
FFFFFF
FFFFFF
FFFFFF
FFFFFF
FFFFFF
FFFFFF
FFFFFF
FFFFFF
FFFFFF
FFFFFF
FFFFFF
FFFFFF
FFFFFF
FFFFFF
FFFFFF
FFFFFF
FFFFFF
FFFFFF
FFFFFF
FFFFFF
FFFFFF
FFFFFF
FFFFFF
FFFFFF
ENDCHAR
STARTCHAR igrave
ENCODING 147
SWIDTH 1000 0
DWIDTH 24 0
BBX 24 24 0 -5
BITMAP
FFFFFF
FFFFFF
FFFFFF
FFFFFF
FFFFFF
FFFFFF
FFFFFF
FFFFFF
FFFFFF
FFFFFF
FFFFFF
FFFFFF
FFFFFF
FFFFFF
FFFFFF
FFFFFF
FFFFFF
FFFFFF
FFFFFF
FFFFFF
FFFFFF
FFFFFF
FFFFFF
FFFFFF
ENDCHAR
STARTCHAR icircumflex
ENCODING 148
SWIDTH 1000 0
DWIDTH 24 0
BBX 24 24 0 -5
BITMAP
FFFFFF
FFFFFF
FFFFFF
FFFFFF
FFFFFF
FFFFFF
FFFFFF
FFFFFF
FFFFFF
FFFFFF
FFFFFF
FFFFFF
FFFFFF
FFFFFF
FFFFFF
FFFFFF
FFFFFF
FFFFFF
FFFFFF
FFFFFF
FFFFFF
FFFFFF
FFFFFF
FFFFFF
ENDCHAR
STARTCHAR idieresis
ENCODING 149
SWIDTH 1000 0
DWIDTH 24 0
BBX 24 24 0 -5
BITMAP
FFFFFF
FFFFFF
FFFFFF
FFFFFF
FFFFFF
FFFFFF
FFFFFF
FFFFFF
FFFFFF
FFFFFF
FFFFFF
FFFFFF
FFFFFF
FFFFFF
FFFFFF
FFFFFF
FFFFFF
FFFFFF
FFFFFF
FFFFFF
FFFFFF
FFFFFF
FFFFFF
FFFFFF
ENDCHAR
STARTCHAR ntilde
ENCODING 150
SWIDTH 1000 0
DWIDTH 24 0
BBX 24 24 0 -5
BITMAP
FFFFFF
FFFFFF
FFFFFF
FFFFFF
FFFFFF
FFFFFF
FFFFFF
FFFFFF
FFFFFF
FFFFFF
FFFFFF
FFFFFF
FFFFFF
FFFFFF
FFFFFF
FFFFFF
FFFFFF
FFFFFF
FFFFFF
FFFFFF
FFFFFF
FFFFFF
FFFFFF
FFFFFF
ENDCHAR
STARTCHAR oacute
ENCODING 151
SWIDTH 1000 0
DWIDTH 24 0
BBX 24 24 0 -5
BITMAP
FFFFFF
FFFFFF
FFFFFF
FFFFFF
FFFFFF
FFFFFF
FFFFFF
FFFFFF
FFFFFF
FFFFFF
FFFFFF
FFFFFF
FFFFFF
FFFFFF
FFFFFF
FFFFFF
FFFFFF
FFFFFF
FFFFFF
FFFFFF
FFFFFF
FFFFFF
FFFFFF
FFFFFF
ENDCHAR
STARTCHAR ograve
ENCODING 152
SWIDTH 1000 0
DWIDTH 24 0
BBX 24 24 0 -5
BITMAP
FFFFFF
FFFFFF
FFFFFF
FFFFFF
FFFFFF
FFFFFF
FFFFFF
FFFFFF
FFFFFF
FFFFFF
FFFFFF
FFFFFF
FFFFFF
FFFFFF
FFFFFF
FFFFFF
FFFFFF
FFFFFF
FFFFFF
FFFFFF
FFFFFF
FFFFFF
FFFFFF
FFFFFF
ENDCHAR
STARTCHAR ocircumflex
ENCODING 153
SWIDTH 1000 0
DWIDTH 24 0
BBX 24 24 0 -5
BITMAP
FFFFFF
FFFFFF
FFFFFF
FFFFFF
FFFFFF
FFFFFF
FFFFFF
FFFFFF
FFFFFF
FFFFFF
FFFFFF
FFFFFF
FFFFFF
FFFFFF
FFFFFF
FFFFFF
FFFFFF
FFFFFF
FFFFFF
FFFFFF
FFFFFF
FFFFFF
FFFFFF
FFFFFF
ENDCHAR
STARTCHAR odieresis
ENCODING 154
SWIDTH 1000 0
DWIDTH 24 0
BBX 24 24 0 -5
BITMAP
FFFFFF
FFFFFF
FFFFFF
FFFFFF
FFFFFF
FFFFFF
FFFFFF
FFFFFF
FFFFFF
FFFFFF
FFFFFF
FFFFFF
FFFFFF
FFFFFF
FFFFFF
FFFFFF
FFFFFF
FFFFFF
FFFFFF
FFFFFF
FFFFFF
FFFFFF
FFFFFF
FFFFFF
ENDCHAR
STARTCHAR otilde
ENCODING 155
SWIDTH 1000 0
DWIDTH 24 0
BBX 24 24 0 -5
BITMAP
FFFFFF
FFFFFF
FFFFFF
FFFFFF
FFFFFF
FFFFFF
FFFFFF
FFFFFF
FFFFFF
FFFFFF
FFFFFF
FFFFFF
FFFFFF
FFFFFF
FFFFFF
FFFFFF
FFFFFF
FFFFFF
FFFFFF
FFFFFF
FFFFFF
FFFFFF
FFFFFF
FFFFFF
ENDCHAR
STARTCHAR uacute
ENCODING 156
SWIDTH 1000 0
DWIDTH 24 0
BBX 24 24 0 -5
BITMAP
FFFFFF
FFFFFF
FFFFFF
FFFFFF
FFFFFF
FFFFFF
FFFFFF
FFFFFF
FFFFFF
FFFFFF
FFFFFF
FFFFFF
FFFFFF
FFFFFF
FFFFFF
FFFFFF
FFFFFF
FFFFFF
FFFFFF
FFFFFF
FFFFFF
FFFFFF
FFFFFF
FFFFFF
ENDCHAR
STARTCHAR ugrave
ENCODING 157
SWIDTH 1000 0
DWIDTH 24 0
BBX 24 24 0 -5
BITMAP
FFFFFF
FFFFFF
FFFFFF
FFFFFF
FFFFFF
FFFFFF
FFFFFF
FFFFFF
FFFFFF
FFFFFF
FFFFFF
FFFFFF
FFFFFF
FFFFFF
FFFFFF
FFFFFF
FFFFFF
FFFFFF
FFFFFF
FFFFFF
FFFFFF
FFFFFF
FFFFFF
FFFFFF
ENDCHAR
STARTCHAR ucircumflex
ENCODING 158
SWIDTH 1000 0
DWIDTH 24 0
BBX 24 24 0 -5
BITMAP
FFFFFF
FFFFFF
FFFFFF
FFFFFF
FFFFFF
FFFFFF
FFFFFF
FFFFFF
FFFFFF
FFFFFF
FFFFFF
FFFFFF
FFFFFF
FFFFFF
FFFFFF
FFFFFF
FFFFFF
FFFFFF
FFFFFF
FFFFFF
FFFFFF
FFFFFF
FFFFFF
FFFFFF
ENDCHAR
STARTCHAR udieresis
ENCODING 159
SWIDTH 1000 0
DWIDTH 24 0
BBX 24 24 0 -5
BITMAP
FFFFFF
FFFFFF
FFFFFF
FFFFFF
FFFFFF
FFFFFF
FFFFFF
FFFFFF
FFFFFF
FFFFFF
FFFFFF
FFFFFF
FFFFFF
FFFFFF
FFFFFF
FFFFFF
FFFFFF
FFFFFF
FFFFFF
FFFFFF
FFFFFF
FFFFFF
FFFFFF
FFFFFF
ENDCHAR
STARTCHAR dagger
ENCODING 160
SWIDTH 1000 0
DWIDTH 24 0
BBX 24 24 0 -5
BITMAP
FFFFFF
FFFFFF
FFFFFF
FFFFFF
FFFFFF
FFFFFF
FFFFFF
FFFFFF
FFFFFF
FFFFFF
FFFFFF
FFFFFF
FFFFFF
FFFFFF
FFFFFF
FFFFFF
FFFFFF
FFFFFF
FFFFFF
FFFFFF
FFFFFF
FFFFFF
FFFFFF
FFFFFF
ENDCHAR
STARTCHAR degree
ENCODING 161
SWIDTH 500 0
DWIDTH 12 0
BBX 0 0 7 -8
BITMAP
ENDCHAR
STARTCHAR cent
ENCODING 162
SWIDTH 500 0
DWIDTH 12 0
BBX 0 0 7 -8
BITMAP
ENDCHAR
STARTCHAR sterling
ENCODING 163
SWIDTH 500 0
DWIDTH 12 0
BBX 0 0 7 -8
BITMAP
ENDCHAR
STARTCHAR section
ENCODING 164
SWIDTH 500 0
DWIDTH 12 0
BBX 0 0 7 -8
BITMAP
ENDCHAR
STARTCHAR bullet
ENCODING 165
SWIDTH 500 0
DWIDTH 12 0
BBX 0 0 7 -8
BITMAP
ENDCHAR
STARTCHAR paragraph
ENCODING 166
SWIDTH 500 0
DWIDTH 12 0
BBX 0 0 7 -8
BITMAP
ENDCHAR
STARTCHAR germandbls
ENCODING 167
SWIDTH 500 0
DWIDTH 12 0
BBX 0 0 7 -8
BITMAP
ENDCHAR
STARTCHAR registered
ENCODING 168
SWIDTH 500 0
DWIDTH 12 0
BBX 0 0 7 -8
BITMAP
ENDCHAR
STARTCHAR copyright
ENCODING 169
SWIDTH 500 0
DWIDTH 12 0
BBX 0 0 7 -8
BITMAP
ENDCHAR
STARTCHAR trademark
ENCODING 170
SWIDTH 500 0
DWIDTH 12 0
BBX 0 0 7 -8
BITMAP
ENDCHAR
STARTCHAR acute
ENCODING 171
SWIDTH 500 0
DWIDTH 12 0
BBX 0 0 7 -8
BITMAP
ENDCHAR
STARTCHAR dieresis
ENCODING 172
SWIDTH 500 0
DWIDTH 12 0
BBX 0 0 7 -8
BITMAP
ENDCHAR
STARTCHAR notequal
ENCODING 173
SWIDTH 500 0
DWIDTH 12 0
BBX 0 0 7 -8
BITMAP
ENDCHAR
STARTCHAR AE
ENCODING 174
SWIDTH 500 0
DWIDTH 12 0
BBX 0 0 7 -8
BITMAP
ENDCHAR
STARTCHAR Oslash
ENCODING 175
SWIDTH 500 0
DWIDTH 12 0
BBX 0 0 7 -8
BITMAP
ENDCHAR
STARTCHAR infinity
ENCODING 176
SWIDTH 500 0
DWIDTH 12 0
BBX 0 0 7 -8
BITMAP
ENDCHAR
STARTCHAR plusminus
ENCODING 177
SWIDTH 500 0
DWIDTH 12 0
BBX 0 0 7 -8
BITMAP
ENDCHAR
STARTCHAR lessequal
ENCODING 178
SWIDTH 500 0
DWIDTH 12 0
BBX 0 0 7 -8
BITMAP
ENDCHAR
STARTCHAR greaterequal
ENCODING 179
SWIDTH 500 0
DWIDTH 12 0
BBX 0 0 7 -8
BITMAP
ENDCHAR
STARTCHAR yen
ENCODING 180
SWIDTH 500 0
DWIDTH 12 0
BBX 0 0 7 -8
BITMAP
ENDCHAR
STARTCHAR mu
ENCODING 181
SWIDTH 500 0
DWIDTH 12 0
BBX 0 0 7 -8
BITMAP
ENDCHAR
STARTCHAR partialdiff
ENCODING 182
SWIDTH 500 0
DWIDTH 12 0
BBX 0 0 7 -8
BITMAP
ENDCHAR
STARTCHAR summation
ENCODING 183
SWIDTH 500 0
DWIDTH 12 0
BBX 0 0 7 -8
BITMAP
ENDCHAR
STARTCHAR product
ENCODING 184
SWIDTH 500 0
DWIDTH 12 0
BBX 0 0 7 -8
BITMAP
ENDCHAR
STARTCHAR pi
ENCODING 185
SWIDTH 500 0
DWIDTH 12 0
BBX 0 0 7 -8
BITMAP
ENDCHAR
STARTCHAR integral
ENCODING 186
SWIDTH 500 0
DWIDTH 12 0
BBX 0 0 7 -8
BITMAP
ENDCHAR
STARTCHAR ordfeminine
ENCODING 187
SWIDTH 500 0
DWIDTH 12 0
BBX 0 0 7 -8
BITMAP
ENDCHAR
STARTCHAR ordmasculine
ENCODING 188
SWIDTH 500 0
DWIDTH 12 0
BBX 0 0 7 -8
BITMAP
ENDCHAR
STARTCHAR Omega
ENCODING 189
SWIDTH 500 0
DWIDTH 12 0
BBX 0 0 7 -8
BITMAP
ENDCHAR
STARTCHAR ae
ENCODING 190
SWIDTH 500 0
DWIDTH 12 0
BBX 0 0 7 -8
BITMAP
ENDCHAR
STARTCHAR oslash
ENCODING 191
SWIDTH 500 0
DWIDTH 12 0
BBX 0 0 7 -8
BITMAP
ENDCHAR
STARTCHAR questiondown
ENCODING 192
SWIDTH 500 0
DWIDTH 12 0
BBX 0 0 7 -8
BITMAP
ENDCHAR
STARTCHAR exclamdown
ENCODING 193
SWIDTH 500 0
DWIDTH 12 0
BBX 0 0 7 -8
BITMAP
ENDCHAR
STARTCHAR logicalnot
ENCODING 194
SWIDTH 500 0
DWIDTH 12 0
BBX 0 0 7 -8
BITMAP
ENDCHAR
STARTCHAR radical
ENCODING 195
SWIDTH 500 0
DWIDTH 12 0
BBX 0 0 7 -8
BITMAP
ENDCHAR
STARTCHAR florin
ENCODING 196
SWIDTH 500 0
DWIDTH 12 0
BBX 0 0 7 -8
BITMAP
ENDCHAR
STARTCHAR approxequal
ENCODING 197
SWIDTH 500 0
DWIDTH 12 0
BBX 0 0 7 -8
BITMAP
ENDCHAR
STARTCHAR Delta
ENCODING 198
SWIDTH 500 0
DWIDTH 12 0
BBX 0 0 7 -8
BITMAP
ENDCHAR
STARTCHAR guillemotleft
ENCODING 199
SWIDTH 500 0
DWIDTH 12 0
BBX 0 0 7 -8
BITMAP
ENDCHAR
STARTCHAR guillemotright
ENCODING 200
SWIDTH 500 0
DWIDTH 12 0
BBX 0 0 7 -8
BITMAP
ENDCHAR
STARTCHAR ellipsis
ENCODING 201
SWIDTH 500 0
DWIDTH 12 0
BBX 0 0 7 -8
BITMAP
ENDCHAR
STARTCHAR nbspace
ENCODING 202
SWIDTH 500 0
DWIDTH 12 0
BBX 0 0 7 -8
BITMAP
ENDCHAR
STARTCHAR Agrave
ENCODING 203
SWIDTH 500 0
DWIDTH 12 0
BBX 0 0 7 -8
BITMAP
ENDCHAR
STARTCHAR Atilde
ENCODING 204
SWIDTH 500 0
DWIDTH 12 0
BBX 0 0 7 -8
BITMAP
ENDCHAR
STARTCHAR Otilde
ENCODING 205
SWIDTH 500 0
DWIDTH 12 0
BBX 0 0 7 -8
BITMAP
ENDCHAR
STARTCHAR OE
ENCODING 206
SWIDTH 500 0
DWIDTH 12 0
BBX 0 0 7 -8
BITMAP
ENDCHAR
STARTCHAR oe
ENCODING 207
SWIDTH 500 0
DWIDTH 12 0
BBX 0 0 7 -8
BITMAP
ENDCHAR
STARTCHAR endash
ENCODING 208
SWIDTH 500 0
DWIDTH 12 0
BBX 0 0 7 -8
BITMAP
ENDCHAR
STARTCHAR emdash
ENCODING 209
SWIDTH 500 0
DWIDTH 12 0
BBX 0 0 7 -8
BITMAP
ENDCHAR
STARTCHAR quotedblleft
ENCODING 210
SWIDTH 500 0
DWIDTH 12 0
BBX 0 0 7 -8
BITMAP
ENDCHAR
STARTCHAR quotedblright
ENCODING 211
SWIDTH 500 0
DWIDTH 12 0
BBX 0 0 7 -8
BITMAP
ENDCHAR
STARTCHAR quoteleft
ENCODING 212
SWIDTH 500 0
DWIDTH 12 0
BBX 0 0 7 -8
BITMAP
ENDCHAR
STARTCHAR quoteright
ENCODING 213
SWIDTH 500 0
DWIDTH 12 0
BBX 0 0 7 -8
BITMAP
ENDCHAR
STARTCHAR divide
ENCODING 214
SWIDTH 500 0
DWIDTH 12 0
BBX 0 0 7 -8
BITMAP
ENDCHAR
STARTCHAR lozenge
ENCODING 215
SWIDTH 500 0
DWIDTH 12 0
BBX 0 0 7 -8
BITMAP
ENDCHAR
STARTCHAR ydieresis
ENCODING 216
SWIDTH 500 0
DWIDTH 12 0
BBX 0 0 7 -8
BITMAP
ENDCHAR
STARTCHAR Ydieresis
ENCODING 217
SWIDTH 500 0
DWIDTH 12 0
BBX 0 0 7 -8
BITMAP
ENDCHAR
STARTCHAR fraction
ENCODING 218
SWIDTH 500 0
DWIDTH 12 0
BBX 0 0 7 -8
BITMAP
ENDCHAR
STARTCHAR currency
ENCODING 219
SWIDTH 500 0
DWIDTH 12 0
BBX 0 0 7 -8
BITMAP
ENDCHAR
STARTCHAR guilsinglleft
ENCODING 220
SWIDTH 500 0
DWIDTH 12 0
BBX 0 0 7 -8
BITMAP
ENDCHAR
STARTCHAR guilsinglright
ENCODING 221
SWIDTH 500 0
DWIDTH 12 0
BBX 0 0 7 -8
BITMAP
ENDCHAR
STARTCHAR fi
ENCODING 222
SWIDTH 500 0
DWIDTH 12 0
BBX 0 0 7 -8
BITMAP
ENDCHAR
STARTCHAR fl
ENCODING 223
SWIDTH 500 0
DWIDTH 12 0
BBX 0 0 7 -8
BITMAP
ENDCHAR
STARTCHAR daggerdbl
ENCODING 224
SWIDTH 500 0
DWIDTH 12 0
BBX 0 0 7 -8
BITMAP
ENDCHAR
STARTCHAR periodcentered
ENCODING 225
SWIDTH 500 0
DWIDTH 12 0
BBX 0 0 7 -8
BITMAP
ENDCHAR
STARTCHAR quotesinglbase
ENCODING 226
SWIDTH 500 0
DWIDTH 12 0
BBX 0 0 7 -8
BITMAP
ENDCHAR
STARTCHAR quotedblbase
ENCODING 227
SWIDTH 500 0
DWIDTH 12 0
BBX 0 0 7 -8
BITMAP
ENDCHAR
STARTCHAR perthousand
ENCODING 228
SWIDTH 500 0
DWIDTH 12 0
BBX 0 0 7 -8
BITMAP
ENDCHAR
STARTCHAR Acircumflex
ENCODING 229
SWIDTH 500 0
DWIDTH 12 0
BBX 0 0 7 -8
BITMAP
ENDCHAR
STARTCHAR Ecircumflex
ENCODING 230
SWIDTH 500 0
DWIDTH 12 0
BBX 0 0 7 -8
BITMAP
ENDCHAR
STARTCHAR Aacute
ENCODING 231
SWIDTH 500 0
DWIDTH 12 0
BBX 0 0 7 -8
BITMAP
ENDCHAR
STARTCHAR Edieresis
ENCODING 232
SWIDTH 500 0
DWIDTH 12 0
BBX 0 0 7 -8
BITMAP
ENDCHAR
STARTCHAR Egrave
ENCODING 233
SWIDTH 500 0
DWIDTH 12 0
BBX 0 0 7 -8
BITMAP
ENDCHAR
STARTCHAR Iacute
ENCODING 234
SWIDTH 500 0
DWIDTH 12 0
BBX 0 0 7 -8
BITMAP
ENDCHAR
STARTCHAR Icircumflex
ENCODING 235
SWIDTH 500 0
DWIDTH 12 0
BBX 0 0 7 -8
BITMAP
ENDCHAR
STARTCHAR Idieresis
ENCODING 236
SWIDTH 500 0
DWIDTH 12 0
BBX 0 0 7 -8
BITMAP
ENDCHAR
STARTCHAR Igrave
ENCODING 237
SWIDTH 500 0
DWIDTH 12 0
BBX 0 0 7 -8
BITMAP
ENDCHAR
STARTCHAR Oacute
ENCODING 238
SWIDTH 500 0
DWIDTH 12 0
BBX 0 0 7 -8
BITMAP
ENDCHAR
STARTCHAR Ocircumflex
ENCODING 239
SWIDTH 500 0
DWIDTH 12 0
BBX 0 0 7 -8
BITMAP
ENDCHAR
STARTCHAR apple
ENCODING 240
SWIDTH 500 0
DWIDTH 12 0
BBX 0 0 7 -8
BITMAP
ENDCHAR
STARTCHAR Ograve
ENCODING 241
SWIDTH 500 0
DWIDTH 12 0
BBX 0 0 7 -8
BITMAP
ENDCHAR
STARTCHAR Uacute
ENCODING 242
SWIDTH 500 0
DWIDTH 12 0
BBX 0 0 7 -8
BITMAP
ENDCHAR
STARTCHAR Ucircumflex
ENCODING 243
SWIDTH 500 0
DWIDTH 12 0
BBX 0 0 7 -8
BITMAP
ENDCHAR
STARTCHAR Ugrave
ENCODING 244
SWIDTH 500 0
DWIDTH 12 0
BBX 0 0 7 -8
BITMAP
ENDCHAR
STARTCHAR dotlessi
ENCODING 245
SWIDTH 500 0
DWIDTH 12 0
BBX 0 0 7 -8
BITMAP
ENDCHAR
STARTCHAR circumflex
ENCODING 246
SWIDTH 500 0
DWIDTH 12 0
BBX 0 0 7 -8
BITMAP
ENDCHAR
STARTCHAR tilde
ENCODING 247
SWIDTH 500 0
DWIDTH 12 0
BBX 0 0 7 -8
BITMAP
ENDCHAR
STARTCHAR macron
ENCODING 248
SWIDTH 500 0
DWIDTH 12 0
BBX 0 0 7 -8
BITMAP
ENDCHAR
STARTCHAR breve
ENCODING 249
SWIDTH 500 0
DWIDTH 12 0
BBX 0 0 7 -8
BITMAP
ENDCHAR
STARTCHAR dotaccent
ENCODING 250
SWIDTH 500 0
DWIDTH 12 0
BBX 0 0 7 -8
BITMAP
ENDCHAR
STARTCHAR ring
ENCODING 251
SWIDTH 500 0
DWIDTH 12 0
BBX 0 0 7 -8
BITMAP
ENDCHAR
STARTCHAR cedilla
ENCODING 252
SWIDTH 500 0
DWIDTH 12 0
BBX 0 0 7 -8
BITMAP
ENDCHAR
STARTCHAR hungarumlaut
ENCODING 253
SWIDTH 500 0
DWIDTH 12 0
BBX 0 0 7 -8
BITMAP
ENDCHAR
STARTCHAR ogonek
ENCODING 254
SWIDTH 500 0
DWIDTH 12 0
BBX 0 0 7 -8
BITMAP
ENDCHAR
STARTCHAR caron
ENCODING 255
SWIDTH 1000 0
DWIDTH 24 0
BBX 19 3 3 5
BITMAP
E0E0E0
E0E0E0
E0E0E0
ENDCHAR
ENDFONT
