STARTFONT 2.1
FONT -Fondu-AppleMyungjo-Medium-R-Normal--16-150-75-75-P-101-MacRoman-1
SIZE 15 75 75
FONTBOUNDINGBOX 16 17 0 -3
COMMENT Created by Fondu from a mac NFNT/FONT resource
STARTPROPERTIES 17
FOUNDRY "Fondu"
FAMILY_NAME "AppleMyungjo"
WEIGHT_NAME "Medium"
SLANT "R"
SETWIDTH_NAME "Normal"
ADD_STYLE_NAME ""
PIXEL_SIZE 16
POINT_SIZE 150
RESOLUTION_X 75
RESOLUTION_Y 75
SPACING "P"
AVERAGE_WIDTH 101
CHARSET_REGISTRY "MacRoman"
CHARSET_ENCODING "1"
FONT_ASCENT 14
FONT_DESCENT 3
FACE_NAME "AppleMyungjo"
ENDPROPERTIES
CHARS 229
STARTCHAR char0011
ENCODING 17
SWIDTH 992 0
DWIDTH 16 0
BBX 11 11 2 0
BITMAP
71C0
8A20
8A20
8A20
7FC0
0A00
7FC0
8A20
8A20
8A20
71C0
ENDCHAR
STARTCHAR char0012
ENCODING 18
SWIDTH 594 0
DWIDTH 10 0
BBX 7 9 1 0
BITMAP
02
02
04
04
08
08
90
50
20
ENDCHAR
STARTCHAR char0013
ENCODING 19
SWIDTH 815 0
DWIDTH 13 0
BBX 9 9 2 1
BITMAP
0800
1C00
3E00
7F00
FF80
7F00
3E00
1C00
0800
ENDCHAR
STARTCHAR char0014
ENCODING 20
SWIDTH 855 0
DWIDTH 14 0
BBX 10 12 1 0
BITMAP
0300
0600
0400
3B80
7FC0
FFC0
FF80
FF80
FF80
FFC0
7FC0
3B80
ENDCHAR
STARTCHAR onehalf
ENCODING 21
SWIDTH 500 0
DWIDTH 8 0
BBX 6 12 1 0
BITMAP
7C
F4
F4
F4
F4
74
14
14
14
14
14
14
ENDCHAR
STARTCHAR space
ENCODING 32
SWIDTH 400 0
DWIDTH 6 0
BBX 0 0 0 -3
BITMAP
ENDCHAR
STARTCHAR exclam
ENCODING 33
SWIDTH 500 0
DWIDTH 8 0
BBX 1 12 4 0
BITMAP
80
80
80
80
80
80
80
80
00
00
80
80
ENDCHAR
STARTCHAR quotedbl
ENCODING 34
SWIDTH 400 0
DWIDTH 6 0
BBX 5 4 0 8
BITMAP
50
F8
50
A0
ENDCHAR
STARTCHAR numbersign
ENCODING 35
SWIDTH 640 0
DWIDTH 10 0
BBX 8 11 1 1
BITMAP
12
12
12
7F
24
24
24
FE
48
48
48
ENDCHAR
STARTCHAR dollar
ENCODING 36
SWIDTH 640 0
DWIDTH 10 0
BBX 7 14 1 -1
BITMAP
10
3A
56
92
92
90
70
1C
12
92
92
D4
B8
10
ENDCHAR
STARTCHAR percent
ENCODING 37
SWIDTH 1000 0
DWIDTH 16 0
BBX 13 11 1 0
BITMAP
3810
4420
8440
8480
8900
7270
0488
0908
1108
2110
40E0
ENDCHAR
STARTCHAR ampersand
ENCODING 38
SWIDTH 1000 0
DWIDTH 16 0
BBX 12 12 2 0
BITMAP
3800
4400
4400
4400
4800
31C0
4880
8480
8280
8100
4290
3C60
ENDCHAR
STARTCHAR quotesingle
ENCODING 39
SWIDTH 400 0
DWIDTH 6 0
BBX 3 4 1 9
BITMAP
40
E0
40
80
ENDCHAR
STARTCHAR parenleft
ENCODING 40
SWIDTH 500 0
DWIDTH 8 0
BBX 3 14 4 -1
BITMAP
20
40
40
80
80
80
80
80
80
80
80
40
40
20
ENDCHAR
STARTCHAR parenright
ENCODING 41
SWIDTH 500 0
DWIDTH 8 0
BBX 3 14 1 -1
BITMAP
80
40
40
20
20
20
20
20
20
20
20
40
40
80
ENDCHAR
STARTCHAR asterisk
ENCODING 42
SWIDTH 500 0
DWIDTH 8 0
BBX 5 4 2 9
BITMAP
A8
70
70
A8
ENDCHAR
STARTCHAR plus
ENCODING 43
SWIDTH 1000 0
DWIDTH 16 0
BBX 11 11 2 1
BITMAP
0400
0400
0400
0400
0400
FFE0
0400
0400
0400
0400
0400
ENDCHAR
STARTCHAR comma
ENCODING 44
SWIDTH 400 0
DWIDTH 6 0
BBX 3 4 1 -2
BITMAP
40
E0
40
80
ENDCHAR
STARTCHAR hyphen
ENCODING 45
SWIDTH 500 0
DWIDTH 8 0
BBX 6 1 1 6
BITMAP
FC
ENDCHAR
STARTCHAR period
ENCODING 46
SWIDTH 400 0
DWIDTH 6 0
BBX 3 3 1 -1
BITMAP
40
E0
40
ENDCHAR
STARTCHAR slash
ENCODING 47
SWIDTH 500 0
DWIDTH 8 0
BBX 6 12 1 0
BITMAP
04
04
08
08
10
10
20
20
40
40
80
80
ENDCHAR
STARTCHAR zero
ENCODING 48
SWIDTH 640 0
DWIDTH 10 0
BBX 8 12 1 0
BITMAP
3C
42
81
81
81
81
81
81
81
81
42
3C
ENDCHAR
STARTCHAR one
ENCODING 49
SWIDTH 640 0
DWIDTH 10 0
BBX 3 12 4 0
BITMAP
40
C0
40
40
40
40
40
40
40
40
40
E0
ENDCHAR
STARTCHAR two
ENCODING 50
SWIDTH 640 0
DWIDTH 10 0
BBX 7 12 1 0
BITMAP
38
44
82
82
C2
04
08
10
20
42
82
FE
ENDCHAR
STARTCHAR three
ENCODING 51
SWIDTH 640 0
DWIDTH 10 0
BBX 8 12 1 0
BITMAP
7C
82
C1
01
02
3C
02
01
01
C1
82
7C
ENDCHAR
STARTCHAR four
ENCODING 52
SWIDTH 640 0
DWIDTH 10 0
BBX 9 12 1 0
BITMAP
0200
0600
0A00
1200
1200
2200
4200
8200
FF80
0200
0200
0700
ENDCHAR
STARTCHAR five
ENCODING 53
SWIDTH 640 0
DWIDTH 10 0
BBX 7 12 2 0
BITMAP
FE
80
80
80
F8
84
02
02
02
C2
84
78
ENDCHAR
STARTCHAR six
ENCODING 54
SWIDTH 640 0
DWIDTH 10 0
BBX 8 12 1 0
BITMAP
3C
43
81
80
BC
C2
81
81
81
81
42
3C
ENDCHAR
STARTCHAR seven
ENCODING 55
SWIDTH 640 0
DWIDTH 10 0
BBX 8 12 1 0
BITMAP
FF
81
82
02
04
04
08
08
08
10
10
10
ENDCHAR
STARTCHAR eight
ENCODING 56
SWIDTH 640 0
DWIDTH 10 0
BBX 8 12 1 0
BITMAP
3C
42
81
81
42
3C
42
81
81
81
42
3C
ENDCHAR
STARTCHAR nine
ENCODING 57
SWIDTH 640 0
DWIDTH 10 0
BBX 8 12 1 0
BITMAP
3C
42
81
81
81
81
43
3D
01
81
C2
3C
ENDCHAR
STARTCHAR colon
ENCODING 58
SWIDTH 500 0
DWIDTH 8 0
BBX 3 10 2 1
BITMAP
40
E0
40
00
00
00
00
40
E0
40
ENDCHAR
STARTCHAR semicolon
ENCODING 59
SWIDTH 500 0
DWIDTH 8 0
BBX 3 11 2 0
BITMAP
40
E0
40
00
00
00
00
40
E0
40
80
ENDCHAR
STARTCHAR less
ENCODING 60
SWIDTH 500 0
DWIDTH 8 0
BBX 8 15 0 -2
BITMAP
01
02
04
08
10
20
40
80
40
20
10
08
04
02
01
ENDCHAR
STARTCHAR equal
ENCODING 61
SWIDTH 1000 0
DWIDTH 16 0
BBX 9 5 3 3
BITMAP
FF80
0000
0000
0000
FF80
ENDCHAR
STARTCHAR greater
ENCODING 62
SWIDTH 500 0
DWIDTH 8 0
BBX 8 15 0 -2
BITMAP
80
40
20
10
08
04
02
01
02
04
08
10
20
40
80
ENDCHAR
STARTCHAR question
ENCODING 63
SWIDTH 640 0
DWIDTH 10 0
BBX 6 12 2 0
BITMAP
78
84
84
C4
08
10
10
10
10
00
10
10
ENDCHAR
STARTCHAR at
ENCODING 64
SWIDTH 1000 0
DWIDTH 16 0
BBX 11 12 2 0
BITMAP
1F00
60C0
4040
8F20
9120
9120
9120
9120
8EC0
4000
6020
1FC0
ENDCHAR
STARTCHAR A
ENCODING 65
SWIDTH 778 0
DWIDTH 12 0
BBX 11 12 1 0
BITMAP
0400
0400
0A00
0A00
1100
1100
2080
2080
3F80
4040
4040
E0E0
ENDCHAR
STARTCHAR B
ENCODING 66
SWIDTH 780 0
DWIDTH 12 0
BBX 9 12 2 0
BITMAP
FE00
4100
4080
4080
4100
7E00
4100
4080
4080
4080
4100
FE00
ENDCHAR
STARTCHAR C
ENCODING 67
SWIDTH 783 0
DWIDTH 13 0
BBX 9 12 2 0
BITMAP
1E80
6180
4080
8080
8000
8000
8000
8000
8080
4080
6100
1E00
ENDCHAR
STARTCHAR D
ENCODING 68
SWIDTH 836 0
DWIDTH 13 0
BBX 10 12 2 0
BITMAP
FE00
4180
4080
4040
4040
4040
4040
4040
4040
4080
4180
FE00
ENDCHAR
STARTCHAR E
ENCODING 69
SWIDTH 781 0
DWIDTH 12 0
BBX 9 12 2 0
BITMAP
FF80
4080
4080
4000
4200
7E00
4200
4000
4000
4080
4080
FF80
ENDCHAR
STARTCHAR F
ENCODING 70
SWIDTH 751 0
DWIDTH 12 0
BBX 9 12 2 0
BITMAP
FF80
4080
4080
4000
4200
7E00
4200
4000
4000
4000
4000
E000
ENDCHAR
STARTCHAR G
ENCODING 71
SWIDTH 836 0
DWIDTH 13 0
BBX 10 12 2 0
BITMAP
1E80
6180
4080
8000
8000
8000
83C0
8080
8080
4080
6180
1E80
ENDCHAR
STARTCHAR H
ENCODING 72
SWIDTH 894 0
DWIDTH 14 0
BBX 11 12 2 0
BITMAP
E0E0
4040
4040
4040
4040
7FC0
4040
4040
4040
4040
4040
F0E0
ENDCHAR
STARTCHAR I
ENCODING 73
SWIDTH 434 0
DWIDTH 7 0
BBX 3 12 2 0
BITMAP
E0
40
40
40
40
40
40
40
40
40
40
E0
ENDCHAR
STARTCHAR J
ENCODING 74
SWIDTH 611 0
DWIDTH 10 0
BBX 7 12 1 0
BITMAP
0E
04
04
04
04
04
04
04
04
C4
88
70
ENDCHAR
STARTCHAR K
ENCODING 75
SWIDTH 818 0
DWIDTH 13 0
BBX 10 12 1 0
BITMAP
E380
4100
4200
4400
4800
5000
6800
4400
4200
4100
4080
E1C0
ENDCHAR
STARTCHAR L
ENCODING 76
SWIDTH 729 0
DWIDTH 12 0
BBX 9 12 1 0
BITMAP
E000
4000
4000
4000
4000
4000
4000
4000
4000
4080
4080
FF80
ENDCHAR
STARTCHAR M
ENCODING 77
SWIDTH 1008 0
DWIDTH 16 0
BBX 13 12 1 0
BITMAP
E038
6030
5050
5050
5050
4890
4890
4510
4510
4510
4210
E238
ENDCHAR
STARTCHAR N
ENCODING 78
SWIDTH 876 0
DWIDTH 14 0
BBX 10 12 2 0
BITMAP
E1C0
6080
5080
5080
4880
4880
4480
4480
4280
4280
4180
E180
ENDCHAR
STARTCHAR O
ENCODING 79
SWIDTH 840 0
DWIDTH 13 0
BBX 10 12 1 0
BITMAP
1E00
6180
4080
8040
8040
8040
8040
8040
8040
4080
6180
1E00
ENDCHAR
STARTCHAR P
ENCODING 80
SWIDTH 731 0
DWIDTH 12 0
BBX 9 12 1 0
BITMAP
FE00
4100
4080
4080
4080
4080
4100
7E00
4000
4000
4000
E000
ENDCHAR
STARTCHAR Q
ENCODING 81
SWIDTH 842 0
DWIDTH 13 0
BBX 11 14 1 -2
BITMAP
1E00
6180
4080
8040
8040
8040
8040
9C40
A240
4180
6180
1F00
0120
00C0
ENDCHAR
STARTCHAR R
ENCODING 82
SWIDTH 788 0
DWIDTH 13 0
BBX 10 12 1 0
BITMAP
FE00
4100
4080
4080
4080
4100
7E00
4100
4080
4080
4080
E1C0
ENDCHAR
STARTCHAR S
ENCODING 83
SWIDTH 691 0
DWIDTH 11 0
BBX 8 12 1 0
BITMAP
3D
43
81
81
40
30
0C
02
81
81
C2
BC
ENDCHAR
STARTCHAR T
ENCODING 84
SWIDTH 726 0
DWIDTH 12 0
BBX 9 12 1 0
BITMAP
FF80
8880
8880
0800
0800
0800
0800
0800
0800
0800
0800
1C00
ENDCHAR
STARTCHAR U
ENCODING 85
SWIDTH 874 0
DWIDTH 14 0
BBX 11 12 1 0
BITMAP
E0E0
4040
4040
4040
4040
4040
4040
4040
4040
4040
2080
1F00
ENDCHAR
STARTCHAR V
ENCODING 86
SWIDTH 779 0
DWIDTH 12 0
BBX 9 12 1 0
BITMAP
E380
4100
4100
2200
2200
2200
1400
1400
1400
0800
0800
0800
ENDCHAR
STARTCHAR W
ENCODING 87
SWIDTH 1034 0
DWIDTH 17 0
BBX 14 12 1 0
BITMAP
E71C
4208
4208
2310
2310
2310
14A0
14A0
14A0
0840
0840
0840
ENDCHAR
STARTCHAR X
ENCODING 88
SWIDTH 764 0
DWIDTH 12 0
BBX 11 12 1 0
BITMAP
E0E0
4040
2080
1100
0A00
0400
0400
0A00
1100
2080
4040
E0E0
ENDCHAR
STARTCHAR Y
ENCODING 89
SWIDTH 763 0
DWIDTH 12 0
BBX 9 12 2 0
BITMAP
E380
4100
4100
2200
2200
1400
1400
0800
0800
0800
0800
1C00
ENDCHAR
STARTCHAR Z
ENCODING 90
SWIDTH 670 0
DWIDTH 11 0
BBX 8 12 1 0
BITMAP
FF
81
82
04
04
08
10
10
20
41
81
FF
ENDCHAR
STARTCHAR bracketleft
ENCODING 91
SWIDTH 500 0
DWIDTH 8 0
BBX 3 14 4 -1
BITMAP
E0
80
80
80
80
80
80
80
80
80
80
80
80
E0
ENDCHAR
STARTCHAR backslash
ENCODING 92
SWIDTH 500 0
DWIDTH 8 0
BBX 6 12 0 0
BITMAP
80
80
40
40
20
20
10
10
08
08
04
04
ENDCHAR
STARTCHAR bracketright
ENCODING 93
SWIDTH 500 0
DWIDTH 8 0
BBX 3 14 1 -1
BITMAP
E0
20
20
20
20
20
20
20
20
20
20
20
20
E0
ENDCHAR
STARTCHAR asciicircum
ENCODING 94
SWIDTH 500 0
DWIDTH 8 0
BBX 7 4 1 9
BITMAP
10
28
44
82
ENDCHAR
STARTCHAR underscore
ENCODING 95
SWIDTH 500 0
DWIDTH 8 0
BBX 8 1 0 -3
BITMAP
FF
ENDCHAR
STARTCHAR grave
ENCODING 96
SWIDTH 250 0
DWIDTH 4 0
BBX 3 4 0 9
BITMAP
20
40
E0
40
ENDCHAR
STARTCHAR a
ENCODING 97
SWIDTH 618 0
DWIDTH 10 0
BBX 8 8 1 0
BITMAP
7C
82
02
7E
82
82
82
7D
ENDCHAR
STARTCHAR b
ENCODING 98
SWIDTH 619 0
DWIDTH 10 0
BBX 8 12 1 0
BITMAP
C0
40
40
40
7C
42
41
41
41
41
42
7C
ENDCHAR
STARTCHAR c
ENCODING 99
SWIDTH 508 0
DWIDTH 8 0
BBX 7 8 1 0
BITMAP
3C
42
82
80
80
80
42
3C
ENDCHAR
STARTCHAR d
ENCODING 100
SWIDTH 639 0
DWIDTH 10 0
BBX 8 12 1 0
BITMAP
06
02
02
02
3E
42
82
82
82
82
42
3D
ENDCHAR
STARTCHAR e
ENCODING 101
SWIDTH 561 0
DWIDTH 9 0
BBX 7 8 1 0
BITMAP
38
44
82
FE
80
80
42
3C
ENDCHAR
STARTCHAR f
ENCODING 102
SWIDTH 374 0
DWIDTH 6 0
BBX 5 12 1 0
BITMAP
30
48
48
40
E0
40
40
40
40
40
40
E0
ENDCHAR
STARTCHAR g
ENCODING 103
SWIDTH 581 0
DWIDTH 9 0
BBX 8 11 1 -3
BITMAP
7B
84
84
84
78
80
7C
82
82
82
7C
ENDCHAR
STARTCHAR h
ENCODING 104
SWIDTH 672 0
DWIDTH 11 0
BBX 8 12 1 0
BITMAP
C0
40
40
40
7C
42
42
42
42
42
42
E7
ENDCHAR
STARTCHAR i
ENCODING 105
SWIDTH 354 0
DWIDTH 6 0
BBX 3 12 2 0
BITMAP
40
40
00
00
C0
40
40
40
40
40
40
E0
ENDCHAR
STARTCHAR j
ENCODING 106
SWIDTH 337 0
DWIDTH 5 0
BBX 4 15 0 -3
BITMAP
10
10
00
00
30
10
10
10
10
10
10
10
90
90
60
ENDCHAR
STARTCHAR k
ENCODING 107
SWIDTH 659 0
DWIDTH 11 0
BBX 8 12 1 0
BITMAP
C0
40
40
40
4E
44
48
50
68
44
42
E7
ENDCHAR
STARTCHAR l
ENCODING 108
SWIDTH 356 0
DWIDTH 6 0
BBX 3 12 2 0
BITMAP
C0
40
40
40
40
40
40
40
40
40
40
E0
ENDCHAR
STARTCHAR m
ENCODING 109
SWIDTH 947 0
DWIDTH 15 0
BBX 13 8 1 0
BITMAP
BDE0
4210
4210
4210
4210
4210
4210
E738
ENDCHAR
STARTCHAR n
ENCODING 110
SWIDTH 673 0
DWIDTH 11 0
BBX 8 8 1 0
BITMAP
BC
42
42
42
42
42
42
E7
ENDCHAR
STARTCHAR o
ENCODING 111
SWIDTH 563 0
DWIDTH 9 0
BBX 7 8 1 0
BITMAP
7C
82
82
82
82
82
82
7C
ENDCHAR
STARTCHAR p
ENCODING 112
SWIDTH 640 0
DWIDTH 10 0
BBX 8 11 1 -3
BITMAP
BC
42
41
41
41
41
42
7C
40
40
E0
ENDCHAR
STARTCHAR q
ENCODING 113
SWIDTH 612 0
DWIDTH 10 0
BBX 8 11 1 -3
BITMAP
3D
42
82
82
82
82
42
3E
02
02
07
ENDCHAR
STARTCHAR r
ENCODING 114
SWIDTH 483 0
DWIDTH 8 0
BBX 6 8 1 0
BITMAP
DC
64
40
40
40
40
40
E0
ENDCHAR
STARTCHAR s
ENCODING 115
SWIDTH 528 0
DWIDTH 8 0
BBX 6 8 1 0
BITMAP
7C
84
80
60
18
04
84
F8
ENDCHAR
STARTCHAR t
ENCODING 116
SWIDTH 456 0
DWIDTH 7 0
BBX 7 12 0 0
BITMAP
20
20
20
20
FC
20
20
20
20
20
22
1C
ENDCHAR
STARTCHAR u
ENCODING 117
SWIDTH 673 0
DWIDTH 11 0
BBX 8 8 1 0
BITMAP
C6
42
42
42
42
42
42
3D
ENDCHAR
STARTCHAR v
ENCODING 118
SWIDTH 603 0
DWIDTH 10 0
BBX 9 8 1 0
BITMAP
E380
4100
2200
2200
1400
1400
0800
0800
ENDCHAR
STARTCHAR w
ENCODING 119
SWIDTH 835 0
DWIDTH 13 0
BBX 11 8 1 0
BITMAP
EEE0
4440
4440
2A80
2A80
1100
1100
1100
ENDCHAR
STARTCHAR x
ENCODING 120
SWIDTH 600 0
DWIDTH 10 0
BBX 8 8 1 0
BITMAP
E7
42
24
18
18
24
42
E7
ENDCHAR
STARTCHAR y
ENCODING 121
SWIDTH 600 0
DWIDTH 10 0
BBX 9 11 1 -3
BITMAP
E380
4100
4100
2200
2200
1400
1400
0800
0800
5000
6000
ENDCHAR
STARTCHAR z
ENCODING 122
SWIDTH 548 0
DWIDTH 9 0
BBX 6 8 1 0
BITMAP
FC
84
08
10
20
40
84
FC
ENDCHAR
STARTCHAR braceleft
ENCODING 123
SWIDTH 500 0
DWIDTH 8 0
BBX 4 15 3 -2
BITMAP
10
20
20
20
20
20
20
C0
20
20
20
20
20
20
10
ENDCHAR
STARTCHAR bar
ENCODING 124
SWIDTH 500 0
DWIDTH 8 0
BBX 1 16 3 -3
BITMAP
80
80
80
80
80
80
80
80
80
80
80
80
80
80
80
80
ENDCHAR
STARTCHAR braceright
ENCODING 125
SWIDTH 500 0
DWIDTH 8 0
BBX 4 15 1 -2
BITMAP
80
40
40
40
40
40
40
30
40
40
40
40
40
40
80
ENDCHAR
STARTCHAR asciitilde
ENCODING 126
SWIDTH 1000 0
DWIDTH 16 0
BBX 12 2 2 5
BITMAP
7C10
83E0
ENDCHAR
STARTCHAR char007f
ENCODING 127
SWIDTH 400 0
DWIDTH 6 0
BBX 0 0 0 -3
BITMAP
ENDCHAR
STARTCHAR Adieresis
ENCODING 128
SWIDTH 400 0
DWIDTH 6 0
BBX 0 0 0 -3
BITMAP
ENDCHAR
STARTCHAR Aring
ENCODING 129
SWIDTH 1000 0
DWIDTH 16 0
BBX 13 12 2 0
BITMAP
EE38
4410
4410
2220
2220
FFF8
1540
1540
1540
0880
0880
0880
ENDCHAR
STARTCHAR Ccedilla
ENCODING 130
SWIDTH 542 0
DWIDTH 9 0
BBX 9 1 0 4
BITMAP
FF80
ENDCHAR
STARTCHAR Eacute
ENCODING 131
SWIDTH 1000 0
DWIDTH 16 0
BBX 12 12 2 0
BITMAP
1F80
6060
4F20
9090
A010
A010
A010
A010
9090
4F20
6060
1F80
ENDCHAR
STARTCHAR Ntilde
ENCODING 132
SWIDTH 1000 0
DWIDTH 16 0
BBX 16 1 0 -3
BITMAP
FFFF
ENDCHAR
STARTCHAR Odieresis
ENCODING 133
SWIDTH 1000 0
DWIDTH 16 0
BBX 16 16 0 -3
BITMAP
FFFF
FFFF
FFFF
FFFF
FFFF
FFFF
FFFF
FFFF
FFFF
FFFF
FFFF
FFFF
FFFF
FFFF
FFFF
FFFF
ENDCHAR
STARTCHAR Udieresis
ENCODING 134
SWIDTH 1000 0
DWIDTH 16 0
BBX 16 16 0 -3
BITMAP
FFFF
FFFF
FFFF
FFFF
FFFF
FFFF
FFFF
FFFF
FFFF
FFFF
FFFF
FFFF
FFFF
FFFF
FFFF
FFFF
ENDCHAR
STARTCHAR aacute
ENCODING 135
SWIDTH 1000 0
DWIDTH 16 0
BBX 16 16 0 -3
BITMAP
FFFF
FFFF
FFFF
FFFF
FFFF
FFFF
FFFF
FFFF
FFFF
FFFF
FFFF
FFFF
FFFF
FFFF
FFFF
FFFF
ENDCHAR
STARTCHAR agrave
ENCODING 136
SWIDTH 1000 0
DWIDTH 16 0
BBX 16 16 0 -3
BITMAP
FFFF
FFFF
FFFF
FFFF
FFFF
FFFF
FFFF
FFFF
FFFF
FFFF
FFFF
FFFF
FFFF
FFFF
FFFF
FFFF
ENDCHAR
STARTCHAR acircumflex
ENCODING 137
SWIDTH 1000 0
DWIDTH 16 0
BBX 16 16 0 -3
BITMAP
FFFF
FFFF
FFFF
FFFF
FFFF
FFFF
FFFF
FFFF
FFFF
FFFF
FFFF
FFFF
FFFF
FFFF
FFFF
FFFF
ENDCHAR
STARTCHAR adieresis
ENCODING 138
SWIDTH 1000 0
DWIDTH 16 0
BBX 16 16 0 -3
BITMAP
FFFF
FFFF
FFFF
FFFF
FFFF
FFFF
FFFF
FFFF
FFFF
FFFF
FFFF
FFFF
FFFF
FFFF
FFFF
FFFF
ENDCHAR
STARTCHAR atilde
ENCODING 139
SWIDTH 1000 0
DWIDTH 16 0
BBX 16 16 0 -3
BITMAP
FFFF
FFFF
FFFF
FFFF
FFFF
FFFF
FFFF
FFFF
FFFF
FFFF
FFFF
FFFF
FFFF
FFFF
FFFF
FFFF
ENDCHAR
STARTCHAR aring
ENCODING 140
SWIDTH 1000 0
DWIDTH 16 0
BBX 16 16 0 -3
BITMAP
FFFF
FFFF
FFFF
FFFF
FFFF
FFFF
FFFF
FFFF
FFFF
FFFF
FFFF
FFFF
FFFF
FFFF
FFFF
FFFF
ENDCHAR
STARTCHAR ccedilla
ENCODING 141
SWIDTH 1000 0
DWIDTH 16 0
BBX 16 16 0 -3
BITMAP
FFFF
FFFF
FFFF
FFFF
FFFF
FFFF
FFFF
FFFF
FFFF
FFFF
FFFF
FFFF
FFFF
FFFF
FFFF
FFFF
ENDCHAR
STARTCHAR eacute
ENCODING 142
SWIDTH 1000 0
DWIDTH 16 0
BBX 16 16 0 -3
BITMAP
FFFF
FFFF
FFFF
FFFF
FFFF
FFFF
FFFF
FFFF
FFFF
FFFF
FFFF
FFFF
FFFF
FFFF
FFFF
FFFF
ENDCHAR
STARTCHAR egrave
ENCODING 143
SWIDTH 1000 0
DWIDTH 16 0
BBX 16 16 0 -3
BITMAP
FFFF
FFFF
FFFF
FFFF
FFFF
FFFF
FFFF
FFFF
FFFF
FFFF
FFFF
FFFF
FFFF
FFFF
FFFF
FFFF
ENDCHAR
STARTCHAR ecircumflex
ENCODING 144
SWIDTH 1000 0
DWIDTH 16 0
BBX 16 16 0 -3
BITMAP
FFFF
FFFF
FFFF
FFFF
FFFF
FFFF
FFFF
FFFF
FFFF
FFFF
FFFF
FFFF
FFFF
FFFF
FFFF
FFFF
ENDCHAR
STARTCHAR edieresis
ENCODING 145
SWIDTH 1000 0
DWIDTH 16 0
BBX 16 16 0 -3
BITMAP
FFFF
FFFF
FFFF
FFFF
FFFF
FFFF
FFFF
FFFF
FFFF
FFFF
FFFF
FFFF
FFFF
FFFF
FFFF
FFFF
ENDCHAR
STARTCHAR iacute
ENCODING 146
SWIDTH 1000 0
DWIDTH 16 0
BBX 16 16 0 -3
BITMAP
FFFF
FFFF
FFFF
FFFF
FFFF
FFFF
FFFF
FFFF
FFFF
FFFF
FFFF
FFFF
FFFF
FFFF
FFFF
FFFF
ENDCHAR
STARTCHAR igrave
ENCODING 147
SWIDTH 1000 0
DWIDTH 16 0
BBX 16 16 0 -3
BITMAP
FFFF
FFFF
FFFF
FFFF
FFFF
FFFF
FFFF
FFFF
FFFF
FFFF
FFFF
FFFF
FFFF
FFFF
FFFF
FFFF
ENDCHAR
STARTCHAR icircumflex
ENCODING 148
SWIDTH 1000 0
DWIDTH 16 0
BBX 16 16 0 -3
BITMAP
FFFF
FFFF
FFFF
FFFF
FFFF
FFFF
FFFF
FFFF
FFFF
FFFF
FFFF
FFFF
FFFF
FFFF
FFFF
FFFF
ENDCHAR
STARTCHAR idieresis
ENCODING 149
SWIDTH 1000 0
DWIDTH 16 0
BBX 16 16 0 -3
BITMAP
FFFF
FFFF
FFFF
FFFF
FFFF
FFFF
FFFF
FFFF
FFFF
FFFF
FFFF
FFFF
FFFF
FFFF
FFFF
FFFF
ENDCHAR
STARTCHAR ntilde
ENCODING 150
SWIDTH 1000 0
DWIDTH 16 0
BBX 16 16 0 -3
BITMAP
FFFF
FFFF
FFFF
FFFF
FFFF
FFFF
FFFF
FFFF
FFFF
FFFF
FFFF
FFFF
FFFF
FFFF
FFFF
FFFF
ENDCHAR
STARTCHAR oacute
ENCODING 151
SWIDTH 1000 0
DWIDTH 16 0
BBX 16 16 0 -3
BITMAP
FFFF
FFFF
FFFF
FFFF
FFFF
FFFF
FFFF
FFFF
FFFF
FFFF
FFFF
FFFF
FFFF
FFFF
FFFF
FFFF
ENDCHAR
STARTCHAR ograve
ENCODING 152
SWIDTH 1000 0
DWIDTH 16 0
BBX 16 16 0 -3
BITMAP
FFFF
FFFF
FFFF
FFFF
FFFF
FFFF
FFFF
FFFF
FFFF
FFFF
FFFF
FFFF
FFFF
FFFF
FFFF
FFFF
ENDCHAR
STARTCHAR ocircumflex
ENCODING 153
SWIDTH 1000 0
DWIDTH 16 0
BBX 16 16 0 -3
BITMAP
FFFF
FFFF
FFFF
FFFF
FFFF
FFFF
FFFF
FFFF
FFFF
FFFF
FFFF
FFFF
FFFF
FFFF
FFFF
FFFF
ENDCHAR
STARTCHAR odieresis
ENCODING 154
SWIDTH 1000 0
DWIDTH 16 0
BBX 16 16 0 -3
BITMAP
FFFF
FFFF
FFFF
FFFF
FFFF
FFFF
FFFF
FFFF
FFFF
FFFF
FFFF
FFFF
FFFF
FFFF
FFFF
FFFF
ENDCHAR
STARTCHAR otilde
ENCODING 155
SWIDTH 1000 0
DWIDTH 16 0
BBX 16 16 0 -3
BITMAP
FFFF
FFFF
FFFF
FFFF
FFFF
FFFF
FFFF
FFFF
FFFF
FFFF
FFFF
FFFF
FFFF
FFFF
FFFF
FFFF
ENDCHAR
STARTCHAR uacute
ENCODING 156
SWIDTH 1000 0
DWIDTH 16 0
BBX 16 16 0 -3
BITMAP
FFFF
FFFF
FFFF
FFFF
FFFF
FFFF
FFFF
FFFF
FFFF
FFFF
FFFF
FFFF
FFFF
FFFF
FFFF
FFFF
ENDCHAR
STARTCHAR ugrave
ENCODING 157
SWIDTH 1000 0
DWIDTH 16 0
BBX 16 16 0 -3
BITMAP
FFFF
FFFF
FFFF
FFFF
FFFF
FFFF
FFFF
FFFF
FFFF
FFFF
FFFF
FFFF
FFFF
FFFF
FFFF
FFFF
ENDCHAR
STARTCHAR ucircumflex
ENCODING 158
SWIDTH 1000 0
DWIDTH 16 0
BBX 16 16 0 -3
BITMAP
FFFF
FFFF
FFFF
FFFF
FFFF
FFFF
FFFF
FFFF
FFFF
FFFF
FFFF
FFFF
FFFF
FFFF
FFFF
FFFF
ENDCHAR
STARTCHAR udieresis
ENCODING 159
SWIDTH 1000 0
DWIDTH 16 0
BBX 16 16 0 -3
BITMAP
FFFF
FFFF
FFFF
FFFF
FFFF
FFFF
FFFF
FFFF
FFFF
FFFF
FFFF
FFFF
FFFF
FFFF
FFFF
FFFF
ENDCHAR
STARTCHAR dagger
ENCODING 160
SWIDTH 1000 0
DWIDTH 16 0
BBX 16 16 0 -3
BITMAP
FFFF
FFFF
FFFF
FFFF
FFFF
FFFF
FFFF
FFFF
FFFF
FFFF
FFFF
FFFF
FFFF
FFFF
FFFF
FFFF
ENDCHAR
STARTCHAR degree
ENCODING 161
SWIDTH 500 0
DWIDTH 8 0
BBX 0 0 0 -3
BITMAP
ENDCHAR
STARTCHAR cent
ENCODING 162
SWIDTH 500 0
DWIDTH 8 0
BBX 0 0 0 -3
BITMAP
ENDCHAR
STARTCHAR sterling
ENCODING 163
SWIDTH 500 0
DWIDTH 8 0
BBX 0 0 0 -3
BITMAP
ENDCHAR
STARTCHAR section
ENCODING 164
SWIDTH 500 0
DWIDTH 8 0
BBX 0 0 0 -3
BITMAP
ENDCHAR
STARTCHAR bullet
ENCODING 165
SWIDTH 500 0
DWIDTH 8 0
BBX 0 0 0 -3
BITMAP
ENDCHAR
STARTCHAR paragraph
ENCODING 166
SWIDTH 500 0
DWIDTH 8 0
BBX 0 0 0 -3
BITMAP
ENDCHAR
STARTCHAR germandbls
ENCODING 167
SWIDTH 500 0
DWIDTH 8 0
BBX 0 0 0 -3
BITMAP
ENDCHAR
STARTCHAR registered
ENCODING 168
SWIDTH 500 0
DWIDTH 8 0
BBX 0 0 0 -3
BITMAP
ENDCHAR
STARTCHAR copyright
ENCODING 169
SWIDTH 500 0
DWIDTH 8 0
BBX 0 0 0 -3
BITMAP
ENDCHAR
STARTCHAR trademark
ENCODING 170
SWIDTH 500 0
DWIDTH 8 0
BBX 0 0 0 -3
BITMAP
ENDCHAR
STARTCHAR acute
ENCODING 171
SWIDTH 500 0
DWIDTH 8 0
BBX 0 0 0 -3
BITMAP
ENDCHAR
STARTCHAR dieresis
ENCODING 172
SWIDTH 500 0
DWIDTH 8 0
BBX 0 0 0 -3
BITMAP
ENDCHAR
STARTCHAR notequal
ENCODING 173
SWIDTH 500 0
DWIDTH 8 0
BBX 0 0 0 -3
BITMAP
ENDCHAR
STARTCHAR AE
ENCODING 174
SWIDTH 500 0
DWIDTH 8 0
BBX 0 0 0 -3
BITMAP
ENDCHAR
STARTCHAR Oslash
ENCODING 175
SWIDTH 500 0
DWIDTH 8 0
BBX 0 0 0 -3
BITMAP
ENDCHAR
STARTCHAR infinity
ENCODING 176
SWIDTH 500 0
DWIDTH 8 0
BBX 0 0 0 -3
BITMAP
ENDCHAR
STARTCHAR plusminus
ENCODING 177
SWIDTH 500 0
DWIDTH 8 0
BBX 0 0 0 -3
BITMAP
ENDCHAR
STARTCHAR lessequal
ENCODING 178
SWIDTH 500 0
DWIDTH 8 0
BBX 0 0 0 -3
BITMAP
ENDCHAR
STARTCHAR greaterequal
ENCODING 179
SWIDTH 500 0
DWIDTH 8 0
BBX 0 0 0 -3
BITMAP
ENDCHAR
STARTCHAR yen
ENCODING 180
SWIDTH 500 0
DWIDTH 8 0
BBX 0 0 0 -3
BITMAP
ENDCHAR
STARTCHAR mu
ENCODING 181
SWIDTH 500 0
DWIDTH 8 0
BBX 0 0 0 -3
BITMAP
ENDCHAR
STARTCHAR partialdiff
ENCODING 182
SWIDTH 500 0
DWIDTH 8 0
BBX 0 0 0 -3
BITMAP
ENDCHAR
STARTCHAR summation
ENCODING 183
SWIDTH 500 0
DWIDTH 8 0
BBX 0 0 0 -3
BITMAP
ENDCHAR
STARTCHAR product
ENCODING 184
SWIDTH 500 0
DWIDTH 8 0
BBX 0 0 0 -3
BITMAP
ENDCHAR
STARTCHAR pi
ENCODING 185
SWIDTH 500 0
DWIDTH 8 0
BBX 0 0 0 -3
BITMAP
ENDCHAR
STARTCHAR integral
ENCODING 186
SWIDTH 500 0
DWIDTH 8 0
BBX 0 0 0 -3
BITMAP
ENDCHAR
STARTCHAR ordfeminine
ENCODING 187
SWIDTH 500 0
DWIDTH 8 0
BBX 0 0 0 -3
BITMAP
ENDCHAR
STARTCHAR ordmasculine
ENCODING 188
SWIDTH 500 0
DWIDTH 8 0
BBX 0 0 0 -3
BITMAP
ENDCHAR
STARTCHAR Omega
ENCODING 189
SWIDTH 500 0
DWIDTH 8 0
BBX 0 0 0 -3
BITMAP
ENDCHAR
STARTCHAR ae
ENCODING 190
SWIDTH 500 0
DWIDTH 8 0
BBX 0 0 0 -3
BITMAP
ENDCHAR
STARTCHAR oslash
ENCODING 191
SWIDTH 500 0
DWIDTH 8 0
BBX 0 0 0 -3
BITMAP
ENDCHAR
STARTCHAR questiondown
ENCODING 192
SWIDTH 500 0
DWIDTH 8 0
BBX 0 0 0 -3
BITMAP
ENDCHAR
STARTCHAR exclamdown
ENCODING 193
SWIDTH 500 0
DWIDTH 8 0
BBX 0 0 0 -3
BITMAP
ENDCHAR
STARTCHAR logicalnot
ENCODING 194
SWIDTH 500 0
DWIDTH 8 0
BBX 0 0 0 -3
BITMAP
ENDCHAR
STARTCHAR radical
ENCODING 195
SWIDTH 500 0
DWIDTH 8 0
BBX 0 0 0 -3
BITMAP
ENDCHAR
STARTCHAR florin
ENCODING 196
SWIDTH 500 0
DWIDTH 8 0
BBX 0 0 0 -3
BITMAP
ENDCHAR
STARTCHAR approxequal
ENCODING 197
SWIDTH 500 0
DWIDTH 8 0
BBX 0 0 0 -3
BITMAP
ENDCHAR
STARTCHAR Delta
ENCODING 198
SWIDTH 500 0
DWIDTH 8 0
BBX 0 0 0 -3
BITMAP
ENDCHAR
STARTCHAR guillemotleft
ENCODING 199
SWIDTH 500 0
DWIDTH 8 0
BBX 0 0 0 -3
BITMAP
ENDCHAR
STARTCHAR guillemotright
ENCODING 200
SWIDTH 500 0
DWIDTH 8 0
BBX 0 0 0 -3
BITMAP
ENDCHAR
STARTCHAR ellipsis
ENCODING 201
SWIDTH 500 0
DWIDTH 8 0
BBX 0 0 0 -3
BITMAP
ENDCHAR
STARTCHAR nbspace
ENCODING 202
SWIDTH 500 0
DWIDTH 8 0
BBX 0 0 0 -3
BITMAP
ENDCHAR
STARTCHAR Agrave
ENCODING 203
SWIDTH 500 0
DWIDTH 8 0
BBX 0 0 0 -3
BITMAP
ENDCHAR
STARTCHAR Atilde
ENCODING 204
SWIDTH 500 0
DWIDTH 8 0
BBX 0 0 0 -3
BITMAP
ENDCHAR
STARTCHAR Otilde
ENCODING 205
SWIDTH 500 0
DWIDTH 8 0
BBX 0 0 0 -3
BITMAP
ENDCHAR
STARTCHAR OE
ENCODING 206
SWIDTH 500 0
DWIDTH 8 0
BBX 0 0 0 -3
BITMAP
ENDCHAR
STARTCHAR oe
ENCODING 207
SWIDTH 500 0
DWIDTH 8 0
BBX 0 0 0 -3
BITMAP
ENDCHAR
STARTCHAR endash
ENCODING 208
SWIDTH 500 0
DWIDTH 8 0
BBX 0 0 0 -3
BITMAP
ENDCHAR
STARTCHAR emdash
ENCODING 209
SWIDTH 500 0
DWIDTH 8 0
BBX 0 0 0 -3
BITMAP
ENDCHAR
STARTCHAR quotedblleft
ENCODING 210
SWIDTH 500 0
DWIDTH 8 0
BBX 0 0 0 -3
BITMAP
ENDCHAR
STARTCHAR quotedblright
ENCODING 211
SWIDTH 500 0
DWIDTH 8 0
BBX 0 0 0 -3
BITMAP
ENDCHAR
STARTCHAR quoteleft
ENCODING 212
SWIDTH 500 0
DWIDTH 8 0
BBX 0 0 0 -3
BITMAP
ENDCHAR
STARTCHAR quoteright
ENCODING 213
SWIDTH 500 0
DWIDTH 8 0
BBX 0 0 0 -3
BITMAP
ENDCHAR
STARTCHAR divide
ENCODING 214
SWIDTH 500 0
DWIDTH 8 0
BBX 0 0 0 -3
BITMAP
ENDCHAR
STARTCHAR lozenge
ENCODING 215
SWIDTH 500 0
DWIDTH 8 0
BBX 0 0 0 -3
BITMAP
ENDCHAR
STARTCHAR ydieresis
ENCODING 216
SWIDTH 500 0
DWIDTH 8 0
BBX 0 0 0 -3
BITMAP
ENDCHAR
STARTCHAR Ydieresis
ENCODING 217
SWIDTH 500 0
DWIDTH 8 0
BBX 0 0 0 -3
BITMAP
ENDCHAR
STARTCHAR fraction
ENCODING 218
SWIDTH 500 0
DWIDTH 8 0
BBX 0 0 0 -3
BITMAP
ENDCHAR
STARTCHAR currency
ENCODING 219
SWIDTH 500 0
DWIDTH 8 0
BBX 0 0 0 -3
BITMAP
ENDCHAR
STARTCHAR guilsinglleft
ENCODING 220
SWIDTH 500 0
DWIDTH 8 0
BBX 0 0 0 -3
BITMAP
ENDCHAR
STARTCHAR guilsinglright
ENCODING 221
SWIDTH 500 0
DWIDTH 8 0
BBX 0 0 0 -3
BITMAP
ENDCHAR
STARTCHAR fi
ENCODING 222
SWIDTH 500 0
DWIDTH 8 0
BBX 0 0 0 -3
BITMAP
ENDCHAR
STARTCHAR fl
ENCODING 223
SWIDTH 500 0
DWIDTH 8 0
BBX 0 0 0 -3
BITMAP
ENDCHAR
STARTCHAR daggerdbl
ENCODING 224
SWIDTH 500 0
DWIDTH 8 0
BBX 0 0 0 -3
BITMAP
ENDCHAR
STARTCHAR periodcentered
ENCODING 225
SWIDTH 500 0
DWIDTH 8 0
BBX 0 0 0 -3
BITMAP
ENDCHAR
STARTCHAR quotesinglbase
ENCODING 226
SWIDTH 500 0
DWIDTH 8 0
BBX 0 0 0 -3
BITMAP
ENDCHAR
STARTCHAR quotedblbase
ENCODING 227
SWIDTH 500 0
DWIDTH 8 0
BBX 0 0 0 -3
BITMAP
ENDCHAR
STARTCHAR perthousand
ENCODING 228
SWIDTH 500 0
DWIDTH 8 0
BBX 0 0 0 -3
BITMAP
ENDCHAR
STARTCHAR Acircumflex
ENCODING 229
SWIDTH 500 0
DWIDTH 8 0
BBX 0 0 0 -3
BITMAP
ENDCHAR
STARTCHAR Ecircumflex
ENCODING 230
SWIDTH 500 0
DWIDTH 8 0
BBX 0 0 0 -3
BITMAP
ENDCHAR
STARTCHAR Aacute
ENCODING 231
SWIDTH 500 0
DWIDTH 8 0
BBX 0 0 0 -3
BITMAP
ENDCHAR
STARTCHAR Edieresis
ENCODING 232
SWIDTH 500 0
DWIDTH 8 0
BBX 0 0 0 -3
BITMAP
ENDCHAR
STARTCHAR Egrave
ENCODING 233
SWIDTH 500 0
DWIDTH 8 0
BBX 0 0 0 -3
BITMAP
ENDCHAR
STARTCHAR Iacute
ENCODING 234
SWIDTH 500 0
DWIDTH 8 0
BBX 0 0 0 -3
BITMAP
ENDCHAR
STARTCHAR Icircumflex
ENCODING 235
SWIDTH 500 0
DWIDTH 8 0
BBX 0 0 0 -3
BITMAP
ENDCHAR
STARTCHAR Idieresis
ENCODING 236
SWIDTH 500 0
DWIDTH 8 0
BBX 0 0 0 -3
BITMAP
ENDCHAR
STARTCHAR Igrave
ENCODING 237
SWIDTH 500 0
DWIDTH 8 0
BBX 0 0 0 -3
BITMAP
ENDCHAR
STARTCHAR Oacute
ENCODING 238
SWIDTH 500 0
DWIDTH 8 0
BBX 0 0 0 -3
BITMAP
ENDCHAR
STARTCHAR Ocircumflex
ENCODING 239
SWIDTH 500 0
DWIDTH 8 0
BBX 0 0 0 -3
BITMAP
ENDCHAR
STARTCHAR apple
ENCODING 240
SWIDTH 500 0
DWIDTH 8 0
BBX 0 0 0 -3
BITMAP
ENDCHAR
STARTCHAR Ograve
ENCODING 241
SWIDTH 500 0
DWIDTH 8 0
BBX 0 0 0 -3
BITMAP
ENDCHAR
STARTCHAR Uacute
ENCODING 242
SWIDTH 500 0
DWIDTH 8 0
BBX 0 0 0 -3
BITMAP
ENDCHAR
STARTCHAR Ucircumflex
ENCODING 243
SWIDTH 500 0
DWIDTH 8 0
BBX 0 0 0 -3
BITMAP
ENDCHAR
STARTCHAR Ugrave
ENCODING 244
SWIDTH 500 0
DWIDTH 8 0
BBX 0 0 0 -3
BITMAP
ENDCHAR
STARTCHAR dotlessi
ENCODING 245
SWIDTH 500 0
DWIDTH 8 0
BBX 0 0 0 -3
BITMAP
ENDCHAR
STARTCHAR circumflex
ENCODING 246
SWIDTH 500 0
DWIDTH 8 0
BBX 0 0 0 -3
BITMAP
ENDCHAR
STARTCHAR tilde
ENCODING 247
SWIDTH 500 0
DWIDTH 8 0
BBX 0 0 0 -3
BITMAP
ENDCHAR
STARTCHAR macron
ENCODING 248
SWIDTH 500 0
DWIDTH 8 0
BBX 0 0 0 -3
BITMAP
ENDCHAR
STARTCHAR breve
ENCODING 249
SWIDTH 500 0
DWIDTH 8 0
BBX 0 0 0 -3
BITMAP
ENDCHAR
STARTCHAR dotaccent
ENCODING 250
SWIDTH 500 0
DWIDTH 8 0
BBX 0 0 0 -3
BITMAP
ENDCHAR
STARTCHAR ring
ENCODING 251
SWIDTH 500 0
DWIDTH 8 0
BBX 0 0 0 -3
BITMAP
ENDCHAR
STARTCHAR cedilla
ENCODING 252
SWIDTH 500 0
DWIDTH 8 0
BBX 0 0 0 -3
BITMAP
ENDCHAR
STARTCHAR hungarumlaut
ENCODING 253
SWIDTH 500 0
DWIDTH 8 0
BBX 0 0 0 -3
BITMAP
ENDCHAR
STARTCHAR ogonek
ENCODING 254
SWIDTH 500 0
DWIDTH 8 0
BBX 0 0 0 -3
BITMAP
ENDCHAR
STARTCHAR caron
ENCODING 255
SWIDTH 1000 0
DWIDTH 16 0
BBX 13 3 2 2
BITMAP
4210
E738
4210
ENDCHAR
ENDFONT
