STARTFONT 2.1
FONT -Fondu-AppleMyungjo-Medium-R-Normal--18-170-75-75-P-114-MacRoman-1
SIZE 17 75 75
FONTBOUNDINGBOX 18 20 0 -4
COMMENT Created by Fondu from a mac NFNT/FONT resource
STARTPROPERTIES 17
FOUNDRY "Fondu"
FAMILY_NAME "AppleMyungjo"
WEIGHT_NAME "Medium"
SLANT "R"
SETWIDTH_NAME "Normal"
ADD_STYLE_NAME ""
PIXEL_SIZE 18
POINT_SIZE 170
RESOLUTION_X 75
RESOLUTION_Y 75
SPACING "P"
AVERAGE_WIDTH 114
CHARSET_REGISTRY "MacRoman"
CHARSET_ENCODING "1"
FONT_ASCENT 16
FONT_DESCENT 4
FACE_NAME "AppleMyungjo"
ENDPROPERTIES
CHARS 229
STARTCHAR char0011
ENCODING 17
SWIDTH 992 0
DWIDTH 18 0
BBX 15 15 1 -1
BITMAP
3C78
66CC
C6C6
C6C6
C6C6
66CC
3FF8
06C0
3FF8
66CC
C6C6
C6C6
C6C6
66CC
3C78
ENDCHAR
STARTCHAR char0012
ENCODING 18
SWIDTH 594 0
DWIDTH 11 0
BBX 10 14 0 0
BITMAP
0040
0040
00C0
0080
0180
0100
0300
0200
0600
0400
CC00
6800
3800
1000
ENDCHAR
STARTCHAR char0013
ENCODING 19
SWIDTH 815 0
DWIDTH 15 0
BBX 13 13 1 0
BITMAP
0200
0700
0F80
1FC0
3FE0
7FF0
FFF8
7FF0
3FE0
1FC0
0F80
0700
0200
ENDCHAR
STARTCHAR char0014
ENCODING 20
SWIDTH 855 0
DWIDTH 15 0
BBX 13 15 1 0
BITMAP
0060
00E0
01C0
0300
1CE0
3FF0
7FF8
7FF0
FFE0
FFE0
FFE0
7FF0
7FF8
3FF0
1CE0
ENDCHAR
STARTCHAR onehalf
ENCODING 21
SWIDTH 500 0
DWIDTH 9 0
BBX 7 16 1 -2
BITMAP
3E
7A
FA
FA
FA
FA
7A
3A
0A
0A
0A
0A
0A
0A
0A
0A
ENDCHAR
STARTCHAR space
ENCODING 32
SWIDTH 400 0
DWIDTH 7 0
BBX 0 0 0 -4
BITMAP
ENDCHAR
STARTCHAR exclam
ENCODING 33
SWIDTH 500 0
DWIDTH 9 0
BBX 3 15 3 -1
BITMAP
40
E0
E0
E0
E0
E0
E0
40
40
40
00
00
40
E0
40
ENDCHAR
STARTCHAR quotedbl
ENCODING 34
SWIDTH 400 0
DWIDTH 7 0
BBX 7 5 0 10
BITMAP
44
EE
66
44
88
ENDCHAR
STARTCHAR numbersign
ENCODING 35
SWIDTH 640 0
DWIDTH 12 0
BBX 10 14 1 0
BITMAP
1980
1980
1980
1980
7FC0
3300
3300
3300
3300
FF80
6600
6600
6600
6600
ENDCHAR
STARTCHAR dollar
ENCODING 36
SWIDTH 640 0
DWIDTH 12 0
BBX 11 17 1 -2
BITMAP
0400
0400
1F20
64E0
C460
C420
E400
7C00
1F00
07C0
84E0
8460
C460
E4C0
9F00
0400
0400
ENDCHAR
STARTCHAR percent
ENCODING 37
SWIDTH 1000 0
DWIDTH 18 0
BBX 16 13 1 1
BITMAP
3C06
660C
C618
C630
C660
CCC0
799E
0333
0663
0C63
1863
3066
603C
ENDCHAR
STARTCHAR ampersand
ENCODING 38
SWIDTH 1000 0
DWIDTH 18 0
BBX 13 14 1 0
BITMAP
0C00
3300
6180
6180
6180
3300
1C70
6420
C620
C260
C340
C1C0
6188
1E70
ENDCHAR
STARTCHAR quotesingle
ENCODING 39
SWIDTH 400 0
DWIDTH 7 0
BBX 3 5 1 10
BITMAP
40
E0
60
40
80
ENDCHAR
STARTCHAR parenleft
ENCODING 40
SWIDTH 500 0
DWIDTH 9 0
BBX 5 16 3 -1
BITMAP
18
30
60
60
C0
C0
C0
C0
C0
C0
C0
C0
60
60
30
18
ENDCHAR
STARTCHAR parenright
ENCODING 41
SWIDTH 500 0
DWIDTH 9 0
BBX 5 16 1 -1
BITMAP
C0
60
30
30
18
18
18
18
18
18
18
18
30
30
60
C0
ENDCHAR
STARTCHAR asterisk
ENCODING 42
SWIDTH 500 0
DWIDTH 9 0
BBX 8 5 1 9
BITMAP
DB
7E
18
7E
DB
ENDCHAR
STARTCHAR plus
ENCODING 43
SWIDTH 1000 0
DWIDTH 18 0
BBX 14 13 2 0
BITMAP
0300
0300
0300
0300
0300
0300
FFFC
0300
0300
0300
0300
0300
0300
ENDCHAR
STARTCHAR comma
ENCODING 44
SWIDTH 400 0
DWIDTH 7 0
BBX 3 5 1 -2
BITMAP
40
E0
60
40
80
ENDCHAR
STARTCHAR hyphen
ENCODING 45
SWIDTH 500 0
DWIDTH 9 0
BBX 7 1 1 6
BITMAP
FE
ENDCHAR
STARTCHAR period
ENCODING 46
SWIDTH 400 0
DWIDTH 7 0
BBX 3 4 1 -1
BITMAP
40
E0
E0
40
ENDCHAR
STARTCHAR slash
ENCODING 47
SWIDTH 500 0
DWIDTH 9 0
BBX 9 15 0 -1
BITMAP
0180
0100
0300
0200
0600
0400
0C00
0800
1800
1000
3000
2000
6000
4000
C000
ENDCHAR
STARTCHAR zero
ENCODING 48
SWIDTH 640 0
DWIDTH 12 0
BBX 9 14 1 0
BITMAP
1C00
6300
C180
C180
C180
C180
C180
C180
C180
C180
C180
C180
6300
1C00
ENDCHAR
STARTCHAR one
ENCODING 49
SWIDTH 640 0
DWIDTH 12 0
BBX 6 14 3 0
BITMAP
10
30
F0
30
30
30
30
30
30
30
30
30
30
FC
ENDCHAR
STARTCHAR two
ENCODING 50
SWIDTH 640 0
DWIDTH 12 0
BBX 10 14 1 0
BITMAP
0E00
3180
60C0
60C0
20C0
00C0
0180
0300
0E00
1800
3000
60C0
60C0
FFC0
ENDCHAR
STARTCHAR three
ENCODING 51
SWIDTH 640 0
DWIDTH 12 0
BBX 9 14 2 0
BITMAP
1C00
6300
C180
C180
4180
0100
1E00
0100
0180
4180
C180
C180
6300
1C00
ENDCHAR
STARTCHAR four
ENCODING 52
SWIDTH 640 0
DWIDTH 12 0
BBX 10 14 2 0
BITMAP
0100
0300
0700
0700
0B00
1300
1300
2300
4300
8300
FFC0
0300
0300
0780
ENDCHAR
STARTCHAR five
ENCODING 53
SWIDTH 640 0
DWIDTH 12 0
BBX 9 14 2 0
BITMAP
0080
7F00
6000
6000
6000
7C00
4300
0180
0180
4180
C180
C180
6300
1C00
ENDCHAR
STARTCHAR six
ENCODING 54
SWIDTH 640 0
DWIDTH 12 0
BBX 9 14 2 0
BITMAP
1C00
6300
C180
C180
C100
DE00
E100
C180
C180
C180
C180
C180
6300
1C00
ENDCHAR
STARTCHAR seven
ENCODING 55
SWIDTH 640 0
DWIDTH 12 0
BBX 9 14 2 0
BITMAP
7F80
7F80
C080
8100
0300
0200
0600
0400
0400
0C00
0C00
0C00
0C00
0C00
ENDCHAR
STARTCHAR eight
ENCODING 56
SWIDTH 640 0
DWIDTH 12 0
BBX 9 14 2 0
BITMAP
1C00
6300
C180
C180
C180
6300
1C00
6300
C180
C180
C180
C180
6300
1C00
ENDCHAR
STARTCHAR nine
ENCODING 57
SWIDTH 640 0
DWIDTH 12 0
BBX 9 14 2 0
BITMAP
1C00
6300
C180
C180
C180
C180
C180
6380
1D80
4180
C180
C180
6300
1C00
ENDCHAR
STARTCHAR colon
ENCODING 58
SWIDTH 500 0
DWIDTH 9 0
BBX 3 12 3 0
BITMAP
40
E0
E0
40
00
00
00
00
40
E0
E0
40
ENDCHAR
STARTCHAR semicolon
ENCODING 59
SWIDTH 500 0
DWIDTH 9 0
BBX 3 14 3 -2
BITMAP
40
E0
E0
40
00
00
00
00
00
40
E0
60
40
80
ENDCHAR
STARTCHAR less
ENCODING 60
SWIDTH 500 0
DWIDTH 9 0
BBX 9 15 0 -1
BITMAP
0180
0300
0600
0C00
1800
3000
6000
C000
6000
3000
1800
0C00
0600
0300
0180
ENDCHAR
STARTCHAR equal
ENCODING 61
SWIDTH 1000 0
DWIDTH 18 0
BBX 11 5 3 4
BITMAP
FFE0
0000
0000
0000
FFE0
ENDCHAR
STARTCHAR greater
ENCODING 62
SWIDTH 500 0
DWIDTH 9 0
BBX 9 15 0 -1
BITMAP
C000
6000
3000
1800
0C00
0600
0300
0180
0300
0600
0C00
1800
3000
6000
C000
ENDCHAR
STARTCHAR question
ENCODING 63
SWIDTH 640 0
DWIDTH 12 0
BBX 8 15 1 -1
BITMAP
3C
66
C3
C3
43
06
0C
18
18
18
00
00
18
3C
18
ENDCHAR
STARTCHAR at
ENCODING 64
SWIDTH 1000 0
DWIDTH 18 0
BBX 15 14 1 -1
BITMAP
07E0
1818
300C
61F6
6736
CC36
D836
D836
D866
6C66
63BC
3000
1818
07E0
ENDCHAR
STARTCHAR A
ENCODING 65
SWIDTH 778 0
DWIDTH 14 0
BBX 14 14 0 0
BITMAP
0100
0100
0380
0380
04C0
04C0
0860
0860
1030
1FF0
2030
2018
6018
F03C
ENDCHAR
STARTCHAR B
ENCODING 66
SWIDTH 780 0
DWIDTH 14 0
BBX 11 13 2 0
BITMAP
FF00
60C0
6060
6060
6060
6040
7F80
6040
6060
6060
6060
60C0
FF00
ENDCHAR
STARTCHAR C
ENCODING 67
SWIDTH 783 0
DWIDTH 14 0
BBX 11 13 2 0
BITMAP
0F20
30E0
6060
6020
C020
C000
C000
C000
C000
6020
6020
30C0
0F00
ENDCHAR
STARTCHAR D
ENCODING 68
SWIDTH 836 0
DWIDTH 15 0
BBX 12 13 2 0
BITMAP
FF00
60C0
6060
6060
6030
6030
6030
6030
6030
6060
6060
60C0
FF00
ENDCHAR
STARTCHAR E
ENCODING 69
SWIDTH 781 0
DWIDTH 14 0
BBX 10 13 2 0
BITMAP
FFC0
60C0
6040
6000
6100
6300
7F00
6300
6100
6000
6040
60C0
FFC0
ENDCHAR
STARTCHAR F
ENCODING 70
SWIDTH 751 0
DWIDTH 14 0
BBX 10 13 2 0
BITMAP
FFC0
60C0
6040
6000
6100
6300
7F00
6300
6100
6000
6000
6000
F000
ENDCHAR
STARTCHAR G
ENCODING 71
SWIDTH 836 0
DWIDTH 15 0
BBX 13 13 1 0
BITMAP
0FA0
30E0
6060
6020
C000
C000
C1F8
C060
C060
6060
6060
30E0
1FA0
ENDCHAR
STARTCHAR H
ENCODING 72
SWIDTH 894 0
DWIDTH 16 0
BBX 12 13 2 0
BITMAP
F0F0
6060
6060
6060
6060
6060
7FE0
6060
6060
6060
6060
6060
F0F0
ENDCHAR
STARTCHAR I
ENCODING 73
SWIDTH 434 0
DWIDTH 8 0
BBX 4 13 2 0
BITMAP
F0
60
60
60
60
60
60
60
60
60
60
60
F0
ENDCHAR
STARTCHAR J
ENCODING 74
SWIDTH 611 0
DWIDTH 11 0
BBX 9 13 1 0
BITMAP
1F80
0600
0600
0600
0600
0600
0600
0600
0600
4600
C600
CC00
7800
ENDCHAR
STARTCHAR K
ENCODING 75
SWIDTH 818 0
DWIDTH 15 0
BBX 13 13 1 0
BITMAP
F1F0
60C0
6080
6100
6200
6400
6E00
7700
6380
61C0
60E0
6070
F0F8
ENDCHAR
STARTCHAR L
ENCODING 76
SWIDTH 729 0
DWIDTH 13 0
BBX 10 13 2 0
BITMAP
F000
6000
6000
6000
6000
6000
6000
6000
6000
6040
6040
60C0
FFC0
ENDCHAR
STARTCHAR M
ENCODING 77
SWIDTH 1008 0
DWIDTH 18 0
BBX 16 13 1 0
BITMAP
F01F
301C
382C
382C
382C
2C4C
2C4C
268C
268C
268C
230C
230C
F33F
ENDCHAR
STARTCHAR N
ENCODING 78
SWIDTH 876 0
DWIDTH 16 0
BBX 13 13 1 0
BITMAP
F8F8
3820
2C20
2C20
2620
2620
2320
2320
21A0
21A0
20E0
20E0
F860
ENDCHAR
STARTCHAR O
ENCODING 79
SWIDTH 840 0
DWIDTH 15 0
BBX 12 13 2 0
BITMAP
0F00
30C0
6060
C030
C030
C030
C030
C030
C030
C030
6060
30C0
0F00
ENDCHAR
STARTCHAR P
ENCODING 80
SWIDTH 731 0
DWIDTH 13 0
BBX 11 13 1 0
BITMAP
FF00
60C0
6060
6060
6060
6060
60C0
7F00
6000
6000
6000
6000
F000
ENDCHAR
STARTCHAR Q
ENCODING 81
SWIDTH 842 0
DWIDTH 15 0
BBX 13 15 1 -2
BITMAP
0F00
30C0
6060
C030
C030
C030
C030
C030
CF30
F1B0
60E0
30C0
0FC8
0078
0030
ENDCHAR
STARTCHAR R
ENCODING 82
SWIDTH 788 0
DWIDTH 14 0
BBX 12 13 1 0
BITMAP
FF00
60C0
6060
6060
6060
6060
60C0
7F00
6180
6180
60C0
60C0
F070
ENDCHAR
STARTCHAR S
ENCODING 83
SWIDTH 691 0
DWIDTH 12 0
BBX 10 13 1 0
BITMAP
1E40
61C0
C0C0
C040
E000
7800
1E00
0780
81C0
80C0
C0C0
E180
9E00
ENDCHAR
STARTCHAR T
ENCODING 84
SWIDTH 726 0
DWIDTH 13 0
BBX 12 13 1 0
BITMAP
FFF0
C630
8610
8610
0600
0600
0600
0600
0600
0600
0600
0600
0F00
ENDCHAR
STARTCHAR U
ENCODING 85
SWIDTH 874 0
DWIDTH 16 0
BBX 12 13 2 0
BITMAP
F0F0
6060
6060
6060
6060
6060
6060
6060
6060
6060
6060
30C0
0F00
ENDCHAR
STARTCHAR V
ENCODING 86
SWIDTH 779 0
DWIDTH 14 0
BBX 10 13 2 0
BITMAP
F1C0
6080
6080
6080
3100
3100
3100
1A00
1A00
1A00
0C00
0C00
0C00
ENDCHAR
STARTCHAR W
ENCODING 87
SWIDTH 1034 0
DWIDTH 19 0
BBX 16 13 1 0
BITMAP
F3C7
6182
6182
6182
30C4
31C4
31C4
1A68
1A68
1A68
0C30
0C30
0C30
ENDCHAR
STARTCHAR X
ENCODING 88
SWIDTH 764 0
DWIDTH 14 0
BBX 12 13 1 0
BITMAP
F0F0
6060
3040
1880
1900
0E00
0600
0700
0980
1180
20C0
6060
F0F0
ENDCHAR
STARTCHAR Y
ENCODING 89
SWIDTH 763 0
DWIDTH 14 0
BBX 12 13 1 0
BITMAP
F070
6020
3040
3040
1880
0D00
0D00
0600
0600
0600
0600
0600
0F00
ENDCHAR
STARTCHAR Z
ENCODING 90
SWIDTH 670 0
DWIDTH 12 0
BBX 9 13 2 0
BITMAP
FF80
8180
8300
0600
0600
0C00
1800
3000
3000
6000
C080
C080
FF80
ENDCHAR
STARTCHAR bracketleft
ENCODING 91
SWIDTH 500 0
DWIDTH 9 0
BBX 4 16 5 -1
BITMAP
F0
C0
C0
C0
C0
C0
C0
C0
C0
C0
C0
C0
C0
C0
C0
F0
ENDCHAR
STARTCHAR backslash
ENCODING 92
SWIDTH 500 0
DWIDTH 9 0
BBX 9 15 0 -1
BITMAP
C000
4000
6000
2000
3000
1000
1800
0800
0C00
0400
0600
0200
0300
0100
0180
ENDCHAR
STARTCHAR bracketright
ENCODING 93
SWIDTH 500 0
DWIDTH 9 0
BBX 4 16 0 -1
BITMAP
F0
30
30
30
30
30
30
30
30
30
30
30
30
30
30
F0
ENDCHAR
STARTCHAR asciicircum
ENCODING 94
SWIDTH 500 0
DWIDTH 9 0
BBX 7 4 1 10
BITMAP
10
38
6C
82
ENDCHAR
STARTCHAR underscore
ENCODING 95
SWIDTH 500 0
DWIDTH 9 0
BBX 9 1 0 -3
BITMAP
FF80
ENDCHAR
STARTCHAR grave
ENCODING 96
SWIDTH 250 0
DWIDTH 5 0
BBX 3 5 1 10
BITMAP
20
40
C0
E0
40
ENDCHAR
STARTCHAR a
ENCODING 97
SWIDTH 618 0
DWIDTH 11 0
BBX 10 9 1 0
BITMAP
1E00
6300
4300
1F00
6300
C300
C300
6340
1D80
ENDCHAR
STARTCHAR b
ENCODING 98
SWIDTH 619 0
DWIDTH 11 0
BBX 9 13 1 0
BITMAP
E000
6000
6000
6000
7C00
6300
6100
6180
6180
6180
6100
6300
5C00
ENDCHAR
STARTCHAR c
ENCODING 99
SWIDTH 508 0
DWIDTH 9 0
BBX 8 9 1 0
BITMAP
1C
63
41
C0
C0
C0
41
63
1C
ENDCHAR
STARTCHAR d
ENCODING 100
SWIDTH 639 0
DWIDTH 12 0
BBX 9 13 1 0
BITMAP
0700
0300
0300
0300
1F00
6300
4300
C300
C300
C300
4300
6300
1D80
ENDCHAR
STARTCHAR e
ENCODING 101
SWIDTH 561 0
DWIDTH 10 0
BBX 9 9 0 0
BITMAP
1C00
6300
4100
C180
FF80
C000
4080
6180
1E00
ENDCHAR
STARTCHAR f
ENCODING 102
SWIDTH 374 0
DWIDTH 7 0
BBX 6 13 1 0
BITMAP
38
6C
68
60
F0
60
60
60
60
60
60
60
F0
ENDCHAR
STARTCHAR g
ENCODING 103
SWIDTH 581 0
DWIDTH 10 0
BBX 10 12 0 -3
BITMAP
0DC0
3300
6180
6300
3C00
6000
3C00
6300
C180
C180
6300
1C00
ENDCHAR
STARTCHAR h
ENCODING 104
SWIDTH 672 0
DWIDTH 12 0
BBX 10 13 1 0
BITMAP
E000
6000
6000
6000
6F00
7180
6180
6180
6180
6180
6180
6180
F3C0
ENDCHAR
STARTCHAR i
ENCODING 105
SWIDTH 354 0
DWIDTH 6 0
BBX 4 13 1 0
BITMAP
60
F0
60
00
00
E0
60
60
60
60
60
60
F0
ENDCHAR
STARTCHAR j
ENCODING 106
SWIDTH 337 0
DWIDTH 6 0
BBX 6 16 0 -3
BITMAP
18
3C
18
00
00
38
18
18
18
18
18
18
58
D8
D8
70
ENDCHAR
STARTCHAR k
ENCODING 107
SWIDTH 659 0
DWIDTH 12 0
BBX 10 13 1 0
BITMAP
E000
6000
6000
6000
6780
6200
6400
6800
7C00
6600
6300
6180
F3C0
ENDCHAR
STARTCHAR l
ENCODING 108
SWIDTH 356 0
DWIDTH 6 0
BBX 4 13 1 0
BITMAP
E0
60
60
60
60
60
60
60
60
60
60
60
F0
ENDCHAR
STARTCHAR m
ENCODING 109
SWIDTH 947 0
DWIDTH 17 0
BBX 14 9 2 0
BITMAP
DDF0
6318
6318
6318
6318
6318
6318
6318
F7BC
ENDCHAR
STARTCHAR n
ENCODING 110
SWIDTH 673 0
DWIDTH 12 0
BBX 10 9 1 0
BITMAP
DF00
6180
6180
6180
6180
6180
6180
6180
F3C0
ENDCHAR
STARTCHAR o
ENCODING 111
SWIDTH 563 0
DWIDTH 10 0
BBX 9 9 1 0
BITMAP
1C00
6300
4100
C180
C180
C180
4100
6300
1C00
ENDCHAR
STARTCHAR p
ENCODING 112
SWIDTH 640 0
DWIDTH 12 0
BBX 9 12 1 -3
BITMAP
5C00
E300
6100
6180
6180
6180
6100
6300
7C00
6000
6000
F000
ENDCHAR
STARTCHAR q
ENCODING 113
SWIDTH 612 0
DWIDTH 11 0
BBX 9 12 1 -3
BITMAP
1D00
6300
4300
C300
C300
C300
4300
6300
1F00
0300
0300
0780
ENDCHAR
STARTCHAR r
ENCODING 114
SWIDTH 483 0
DWIDTH 9 0
BBX 8 9 1 0
BITMAP
DE
73
63
62
60
60
60
60
F0
ENDCHAR
STARTCHAR s
ENCODING 115
SWIDTH 528 0
DWIDTH 10 0
BBX 7 9 1 0
BITMAP
78
C6
C2
70
1C
06
86
C6
3C
ENDCHAR
STARTCHAR t
ENCODING 116
SWIDTH 456 0
DWIDTH 8 0
BBX 7 13 0 0
BITMAP
10
30
30
30
FC
30
30
30
30
34
36
36
1C
ENDCHAR
STARTCHAR u
ENCODING 117
SWIDTH 673 0
DWIDTH 12 0
BBX 10 9 1 0
BITMAP
E380
6180
6180
6180
6180
6180
6180
3180
0EC0
ENDCHAR
STARTCHAR v
ENCODING 118
SWIDTH 603 0
DWIDTH 11 0
BBX 10 9 1 0
BITMAP
F1C0
6080
6080
3100
3100
1A00
1A00
0C00
0C00
ENDCHAR
STARTCHAR w
ENCODING 119
SWIDTH 835 0
DWIDTH 15 0
BBX 12 9 2 0
BITMAP
F770
6220
6220
3740
3740
3740
1980
1980
1980
ENDCHAR
STARTCHAR x
ENCODING 120
SWIDTH 600 0
DWIDTH 11 0
BBX 10 9 1 0
BITMAP
F3C0
6180
3100
1A00
0C00
1600
2300
6180
F3C0
ENDCHAR
STARTCHAR y
ENCODING 121
SWIDTH 600 0
DWIDTH 11 0
BBX 10 12 1 -3
BITMAP
F3C0
6080
6080
3100
3100
1A00
1A00
0C00
0C00
C800
D000
6000
ENDCHAR
STARTCHAR z
ENCODING 122
SWIDTH 548 0
DWIDTH 10 0
BBX 8 9 1 0
BITMAP
FF
C3
86
0C
18
30
61
C3
FF
ENDCHAR
STARTCHAR braceleft
ENCODING 123
SWIDTH 500 0
DWIDTH 9 0
BBX 6 15 3 -1
BITMAP
0C
10
30
30
30
10
20
C0
20
10
30
30
30
10
0C
ENDCHAR
STARTCHAR bar
ENCODING 124
SWIDTH 500 0
DWIDTH 9 0
BBX 2 20 3 -4
BITMAP
C0
C0
C0
C0
C0
C0
C0
C0
C0
C0
C0
C0
C0
C0
C0
C0
C0
C0
C0
C0
ENDCHAR
STARTCHAR braceright
ENCODING 125
SWIDTH 500 0
DWIDTH 9 0
BBX 6 15 0 -1
BITMAP
C0
20
30
30
30
20
10
0C
10
20
30
30
30
20
C0
ENDCHAR
STARTCHAR asciitilde
ENCODING 126
SWIDTH 1000 0
DWIDTH 18 0
BBX 16 4 1 5
BITMAP
1E00
7F81
81FE
0078
ENDCHAR
STARTCHAR char007f
ENCODING 127
SWIDTH 400 0
DWIDTH 7 0
BBX 0 0 0 -4
BITMAP
ENDCHAR
STARTCHAR Adieresis
ENCODING 128
SWIDTH 400 0
DWIDTH 7 0
BBX 0 0 0 -4
BITMAP
ENDCHAR
STARTCHAR Aring
ENCODING 129
SWIDTH 1000 0
DWIDTH 18 0
BBX 16 13 1 0
BITMAP
F3C7
6182
6182
6182
30C4
FFFF
31C4
1A68
1A68
1A68
0C30
0C30
0C30
ENDCHAR
STARTCHAR Ccedilla
ENCODING 130
SWIDTH 542 0
DWIDTH 10 0
BBX 10 1 0 4
BITMAP
FFC0
ENDCHAR
STARTCHAR Eacute
ENCODING 131
SWIDTH 1000 0
DWIDTH 18 0
BBX 16 15 1 -1
BITMAP
07E0
1818
300C
61C6
6636
CC13
CC03
CC03
CC03
CC13
6636
61C6
300C
1818
07E0
ENDCHAR
STARTCHAR Ntilde
ENCODING 132
SWIDTH 1000 0
DWIDTH 18 0
BBX 18 1 0 -3
BITMAP
FFFFC0
ENDCHAR
STARTCHAR Odieresis
ENCODING 133
SWIDTH 1000 0
DWIDTH 18 0
BBX 18 18 0 -3
BITMAP
FFFFC0
FFFFC0
FFFFC0
FFFFC0
FFFFC0
FFFFC0
FFFFC0
FFFFC0
FFFFC0
FFFFC0
FFFFC0
FFFFC0
FFFFC0
FFFFC0
FFFFC0
FFFFC0
FFFFC0
FFFFC0
ENDCHAR
STARTCHAR Udieresis
ENCODING 134
SWIDTH 1000 0
DWIDTH 18 0
BBX 18 18 0 -3
BITMAP
FFFFC0
FFFFC0
FFFFC0
FFFFC0
FFFFC0
FFFFC0
FFFFC0
FFFFC0
FFFFC0
FFFFC0
FFFFC0
FFFFC0
FFFFC0
FFFFC0
FFFFC0
FFFFC0
FFFFC0
FFFFC0
ENDCHAR
STARTCHAR aacute
ENCODING 135
SWIDTH 1000 0
DWIDTH 18 0
BBX 18 18 0 -3
BITMAP
FFFFC0
FFFFC0
FFFFC0
FFFFC0
FFFFC0
FFFFC0
FFFFC0
FFFFC0
FFFFC0
FFFFC0
FFFFC0
FFFFC0
FFFFC0
FFFFC0
FFFFC0
FFFFC0
FFFFC0
FFFFC0
ENDCHAR
STARTCHAR agrave
ENCODING 136
SWIDTH 1000 0
DWIDTH 18 0
BBX 18 18 0 -3
BITMAP
FFFFC0
FFFFC0
FFFFC0
FFFFC0
FFFFC0
FFFFC0
FFFFC0
FFFFC0
FFFFC0
FFFFC0
FFFFC0
FFFFC0
FFFFC0
FFFFC0
FFFFC0
FFFFC0
FFFFC0
FFFFC0
ENDCHAR
STARTCHAR acircumflex
ENCODING 137
SWIDTH 1000 0
DWIDTH 18 0
BBX 18 18 0 -3
BITMAP
FFFFC0
FFFFC0
FFFFC0
FFFFC0
FFFFC0
FFFFC0
FFFFC0
FFFFC0
FFFFC0
FFFFC0
FFFFC0
FFFFC0
FFFFC0
FFFFC0
FFFFC0
FFFFC0
FFFFC0
FFFFC0
ENDCHAR
STARTCHAR adieresis
ENCODING 138
SWIDTH 1000 0
DWIDTH 18 0
BBX 18 18 0 -3
BITMAP
FFFFC0
FFFFC0
FFFFC0
FFFFC0
FFFFC0
FFFFC0
FFFFC0
FFFFC0
FFFFC0
FFFFC0
FFFFC0
FFFFC0
FFFFC0
FFFFC0
FFFFC0
FFFFC0
FFFFC0
FFFFC0
ENDCHAR
STARTCHAR atilde
ENCODING 139
SWIDTH 1000 0
DWIDTH 18 0
BBX 18 18 0 -3
BITMAP
FFFFC0
FFFFC0
FFFFC0
FFFFC0
FFFFC0
FFFFC0
FFFFC0
FFFFC0
FFFFC0
FFFFC0
FFFFC0
FFFFC0
FFFFC0
FFFFC0
FFFFC0
FFFFC0
FFFFC0
FFFFC0
ENDCHAR
STARTCHAR aring
ENCODING 140
SWIDTH 1000 0
DWIDTH 18 0
BBX 18 18 0 -3
BITMAP
FFFFC0
FFFFC0
FFFFC0
FFFFC0
FFFFC0
FFFFC0
FFFFC0
FFFFC0
FFFFC0
FFFFC0
FFFFC0
FFFFC0
FFFFC0
FFFFC0
FFFFC0
FFFFC0
FFFFC0
FFFFC0
ENDCHAR
STARTCHAR ccedilla
ENCODING 141
SWIDTH 1000 0
DWIDTH 18 0
BBX 18 18 0 -3
BITMAP
FFFFC0
FFFFC0
FFFFC0
FFFFC0
FFFFC0
FFFFC0
FFFFC0
FFFFC0
FFFFC0
FFFFC0
FFFFC0
FFFFC0
FFFFC0
FFFFC0
FFFFC0
FFFFC0
FFFFC0
FFFFC0
ENDCHAR
STARTCHAR eacute
ENCODING 142
SWIDTH 1000 0
DWIDTH 18 0
BBX 18 18 0 -3
BITMAP
FFFFC0
FFFFC0
FFFFC0
FFFFC0
FFFFC0
FFFFC0
FFFFC0
FFFFC0
FFFFC0
FFFFC0
FFFFC0
FFFFC0
FFFFC0
FFFFC0
FFFFC0
FFFFC0
FFFFC0
FFFFC0
ENDCHAR
STARTCHAR egrave
ENCODING 143
SWIDTH 1000 0
DWIDTH 18 0
BBX 18 18 0 -3
BITMAP
FFFFC0
FFFFC0
FFFFC0
FFFFC0
FFFFC0
FFFFC0
FFFFC0
FFFFC0
FFFFC0
FFFFC0
FFFFC0
FFFFC0
FFFFC0
FFFFC0
FFFFC0
FFFFC0
FFFFC0
FFFFC0
ENDCHAR
STARTCHAR ecircumflex
ENCODING 144
SWIDTH 1000 0
DWIDTH 18 0
BBX 18 18 0 -3
BITMAP
FFFFC0
FFFFC0
FFFFC0
FFFFC0
FFFFC0
FFFFC0
FFFFC0
FFFFC0
FFFFC0
FFFFC0
FFFFC0
FFFFC0
FFFFC0
FFFFC0
FFFFC0
FFFFC0
FFFFC0
FFFFC0
ENDCHAR
STARTCHAR edieresis
ENCODING 145
SWIDTH 1000 0
DWIDTH 18 0
BBX 18 18 0 -3
BITMAP
FFFFC0
FFFFC0
FFFFC0
FFFFC0
FFFFC0
FFFFC0
FFFFC0
FFFFC0
FFFFC0
FFFFC0
FFFFC0
FFFFC0
FFFFC0
FFFFC0
FFFFC0
FFFFC0
FFFFC0
FFFFC0
ENDCHAR
STARTCHAR iacute
ENCODING 146
SWIDTH 1000 0
DWIDTH 18 0
BBX 18 18 0 -3
BITMAP
FFFFC0
FFFFC0
FFFFC0
FFFFC0
FFFFC0
FFFFC0
FFFFC0
FFFFC0
FFFFC0
FFFFC0
FFFFC0
FFFFC0
FFFFC0
FFFFC0
FFFFC0
FFFFC0
FFFFC0
FFFFC0
ENDCHAR
STARTCHAR igrave
ENCODING 147
SWIDTH 1000 0
DWIDTH 18 0
BBX 18 18 0 -3
BITMAP
FFFFC0
FFFFC0
FFFFC0
FFFFC0
FFFFC0
FFFFC0
FFFFC0
FFFFC0
FFFFC0
FFFFC0
FFFFC0
FFFFC0
FFFFC0
FFFFC0
FFFFC0
FFFFC0
FFFFC0
FFFFC0
ENDCHAR
STARTCHAR icircumflex
ENCODING 148
SWIDTH 1000 0
DWIDTH 18 0
BBX 18 18 0 -3
BITMAP
FFFFC0
FFFFC0
FFFFC0
FFFFC0
FFFFC0
FFFFC0
FFFFC0
FFFFC0
FFFFC0
FFFFC0
FFFFC0
FFFFC0
FFFFC0
FFFFC0
FFFFC0
FFFFC0
FFFFC0
FFFFC0
ENDCHAR
STARTCHAR idieresis
ENCODING 149
SWIDTH 1000 0
DWIDTH 18 0
BBX 18 18 0 -3
BITMAP
FFFFC0
FFFFC0
FFFFC0
FFFFC0
FFFFC0
FFFFC0
FFFFC0
FFFFC0
FFFFC0
FFFFC0
FFFFC0
FFFFC0
FFFFC0
FFFFC0
FFFFC0
FFFFC0
FFFFC0
FFFFC0
ENDCHAR
STARTCHAR ntilde
ENCODING 150
SWIDTH 1000 0
DWIDTH 18 0
BBX 18 18 0 -3
BITMAP
FFFFC0
FFFFC0
FFFFC0
FFFFC0
FFFFC0
FFFFC0
FFFFC0
FFFFC0
FFFFC0
FFFFC0
FFFFC0
FFFFC0
FFFFC0
FFFFC0
FFFFC0
FFFFC0
FFFFC0
FFFFC0
ENDCHAR
STARTCHAR oacute
ENCODING 151
SWIDTH 1000 0
DWIDTH 18 0
BBX 18 18 0 -3
BITMAP
FFFFC0
FFFFC0
FFFFC0
FFFFC0
FFFFC0
FFFFC0
FFFFC0
FFFFC0
FFFFC0
FFFFC0
FFFFC0
FFFFC0
FFFFC0
FFFFC0
FFFFC0
FFFFC0
FFFFC0
FFFFC0
ENDCHAR
STARTCHAR ograve
ENCODING 152
SWIDTH 1000 0
DWIDTH 18 0
BBX 18 18 0 -3
BITMAP
FFFFC0
FFFFC0
FFFFC0
FFFFC0
FFFFC0
FFFFC0
FFFFC0
FFFFC0
FFFFC0
FFFFC0
FFFFC0
FFFFC0
FFFFC0
FFFFC0
FFFFC0
FFFFC0
FFFFC0
FFFFC0
ENDCHAR
STARTCHAR ocircumflex
ENCODING 153
SWIDTH 1000 0
DWIDTH 18 0
BBX 18 18 0 -3
BITMAP
FFFFC0
FFFFC0
FFFFC0
FFFFC0
FFFFC0
FFFFC0
FFFFC0
FFFFC0
FFFFC0
FFFFC0
FFFFC0
FFFFC0
FFFFC0
FFFFC0
FFFFC0
FFFFC0
FFFFC0
FFFFC0
ENDCHAR
STARTCHAR odieresis
ENCODING 154
SWIDTH 1000 0
DWIDTH 18 0
BBX 18 18 0 -3
BITMAP
FFFFC0
FFFFC0
FFFFC0
FFFFC0
FFFFC0
FFFFC0
FFFFC0
FFFFC0
FFFFC0
FFFFC0
FFFFC0
FFFFC0
FFFFC0
FFFFC0
FFFFC0
FFFFC0
FFFFC0
FFFFC0
ENDCHAR
STARTCHAR otilde
ENCODING 155
SWIDTH 1000 0
DWIDTH 18 0
BBX 18 18 0 -3
BITMAP
FFFFC0
FFFFC0
FFFFC0
FFFFC0
FFFFC0
FFFFC0
FFFFC0
FFFFC0
FFFFC0
FFFFC0
FFFFC0
FFFFC0
FFFFC0
FFFFC0
FFFFC0
FFFFC0
FFFFC0
FFFFC0
ENDCHAR
STARTCHAR uacute
ENCODING 156
SWIDTH 1000 0
DWIDTH 18 0
BBX 18 18 0 -3
BITMAP
FFFFC0
FFFFC0
FFFFC0
FFFFC0
FFFFC0
FFFFC0
FFFFC0
FFFFC0
FFFFC0
FFFFC0
FFFFC0
FFFFC0
FFFFC0
FFFFC0
FFFFC0
FFFFC0
FFFFC0
FFFFC0
ENDCHAR
STARTCHAR ugrave
ENCODING 157
SWIDTH 1000 0
DWIDTH 18 0
BBX 18 18 0 -3
BITMAP
FFFFC0
FFFFC0
FFFFC0
FFFFC0
FFFFC0
FFFFC0
FFFFC0
FFFFC0
FFFFC0
FFFFC0
FFFFC0
FFFFC0
FFFFC0
FFFFC0
FFFFC0
FFFFC0
FFFFC0
FFFFC0
ENDCHAR
STARTCHAR ucircumflex
ENCODING 158
SWIDTH 1000 0
DWIDTH 18 0
BBX 18 18 0 -3
BITMAP
FFFFC0
FFFFC0
FFFFC0
FFFFC0
FFFFC0
FFFFC0
FFFFC0
FFFFC0
FFFFC0
FFFFC0
FFFFC0
FFFFC0
FFFFC0
FFFFC0
FFFFC0
FFFFC0
FFFFC0
FFFFC0
ENDCHAR
STARTCHAR udieresis
ENCODING 159
SWIDTH 1000 0
DWIDTH 18 0
BBX 18 18 0 -3
BITMAP
FFFFC0
FFFFC0
FFFFC0
FFFFC0
FFFFC0
FFFFC0
FFFFC0
FFFFC0
FFFFC0
FFFFC0
FFFFC0
FFFFC0
FFFFC0
FFFFC0
FFFFC0
FFFFC0
FFFFC0
FFFFC0
ENDCHAR
STARTCHAR dagger
ENCODING 160
SWIDTH 1000 0
DWIDTH 18 0
BBX 18 18 0 -3
BITMAP
FFFFC0
FFFFC0
FFFFC0
FFFFC0
FFFFC0
FFFFC0
FFFFC0
FFFFC0
FFFFC0
FFFFC0
FFFFC0
FFFFC0
FFFFC0
FFFFC0
FFFFC0
FFFFC0
FFFFC0
FFFFC0
ENDCHAR
STARTCHAR degree
ENCODING 161
SWIDTH 500 0
DWIDTH 9 0
BBX 0 0 0 -4
BITMAP
ENDCHAR
STARTCHAR cent
ENCODING 162
SWIDTH 500 0
DWIDTH 9 0
BBX 0 0 0 -4
BITMAP
ENDCHAR
STARTCHAR sterling
ENCODING 163
SWIDTH 500 0
DWIDTH 9 0
BBX 0 0 0 -4
BITMAP
ENDCHAR
STARTCHAR section
ENCODING 164
SWIDTH 500 0
DWIDTH 9 0
BBX 0 0 0 -4
BITMAP
ENDCHAR
STARTCHAR bullet
ENCODING 165
SWIDTH 500 0
DWIDTH 9 0
BBX 0 0 0 -4
BITMAP
ENDCHAR
STARTCHAR paragraph
ENCODING 166
SWIDTH 500 0
DWIDTH 9 0
BBX 0 0 0 -4
BITMAP
ENDCHAR
STARTCHAR germandbls
ENCODING 167
SWIDTH 500 0
DWIDTH 9 0
BBX 0 0 0 -4
BITMAP
ENDCHAR
STARTCHAR registered
ENCODING 168
SWIDTH 500 0
DWIDTH 9 0
BBX 0 0 0 -4
BITMAP
ENDCHAR
STARTCHAR copyright
ENCODING 169
SWIDTH 500 0
DWIDTH 9 0
BBX 0 0 0 -4
BITMAP
ENDCHAR
STARTCHAR trademark
ENCODING 170
SWIDTH 500 0
DWIDTH 9 0
BBX 0 0 0 -4
BITMAP
ENDCHAR
STARTCHAR acute
ENCODING 171
SWIDTH 500 0
DWIDTH 9 0
BBX 0 0 0 -4
BITMAP
ENDCHAR
STARTCHAR dieresis
ENCODING 172
SWIDTH 500 0
DWIDTH 9 0
BBX 0 0 0 -4
BITMAP
ENDCHAR
STARTCHAR notequal
ENCODING 173
SWIDTH 500 0
DWIDTH 9 0
BBX 0 0 0 -4
BITMAP
ENDCHAR
STARTCHAR AE
ENCODING 174
SWIDTH 500 0
DWIDTH 9 0
BBX 0 0 0 -4
BITMAP
ENDCHAR
STARTCHAR Oslash
ENCODING 175
SWIDTH 500 0
DWIDTH 9 0
BBX 0 0 0 -4
BITMAP
ENDCHAR
STARTCHAR infinity
ENCODING 176
SWIDTH 500 0
DWIDTH 9 0
BBX 0 0 0 -4
BITMAP
ENDCHAR
STARTCHAR plusminus
ENCODING 177
SWIDTH 500 0
DWIDTH 9 0
BBX 0 0 0 -4
BITMAP
ENDCHAR
STARTCHAR lessequal
ENCODING 178
SWIDTH 500 0
DWIDTH 9 0
BBX 0 0 0 -4
BITMAP
ENDCHAR
STARTCHAR greaterequal
ENCODING 179
SWIDTH 500 0
DWIDTH 9 0
BBX 0 0 0 -4
BITMAP
ENDCHAR
STARTCHAR yen
ENCODING 180
SWIDTH 500 0
DWIDTH 9 0
BBX 0 0 0 -4
BITMAP
ENDCHAR
STARTCHAR mu
ENCODING 181
SWIDTH 500 0
DWIDTH 9 0
BBX 0 0 0 -4
BITMAP
ENDCHAR
STARTCHAR partialdiff
ENCODING 182
SWIDTH 500 0
DWIDTH 9 0
BBX 0 0 0 -4
BITMAP
ENDCHAR
STARTCHAR summation
ENCODING 183
SWIDTH 500 0
DWIDTH 9 0
BBX 0 0 0 -4
BITMAP
ENDCHAR
STARTCHAR product
ENCODING 184
SWIDTH 500 0
DWIDTH 9 0
BBX 0 0 0 -4
BITMAP
ENDCHAR
STARTCHAR pi
ENCODING 185
SWIDTH 500 0
DWIDTH 9 0
BBX 0 0 0 -4
BITMAP
ENDCHAR
STARTCHAR integral
ENCODING 186
SWIDTH 500 0
DWIDTH 9 0
BBX 0 0 0 -4
BITMAP
ENDCHAR
STARTCHAR ordfeminine
ENCODING 187
SWIDTH 500 0
DWIDTH 9 0
BBX 0 0 0 -4
BITMAP
ENDCHAR
STARTCHAR ordmasculine
ENCODING 188
SWIDTH 500 0
DWIDTH 9 0
BBX 0 0 0 -4
BITMAP
ENDCHAR
STARTCHAR Omega
ENCODING 189
SWIDTH 500 0
DWIDTH 9 0
BBX 0 0 0 -4
BITMAP
ENDCHAR
STARTCHAR ae
ENCODING 190
SWIDTH 500 0
DWIDTH 9 0
BBX 0 0 0 -4
BITMAP
ENDCHAR
STARTCHAR oslash
ENCODING 191
SWIDTH 500 0
DWIDTH 9 0
BBX 0 0 0 -4
BITMAP
ENDCHAR
STARTCHAR questiondown
ENCODING 192
SWIDTH 500 0
DWIDTH 9 0
BBX 0 0 0 -4
BITMAP
ENDCHAR
STARTCHAR exclamdown
ENCODING 193
SWIDTH 500 0
DWIDTH 9 0
BBX 0 0 0 -4
BITMAP
ENDCHAR
STARTCHAR logicalnot
ENCODING 194
SWIDTH 500 0
DWIDTH 9 0
BBX 0 0 0 -4
BITMAP
ENDCHAR
STARTCHAR radical
ENCODING 195
SWIDTH 500 0
DWIDTH 9 0
BBX 0 0 0 -4
BITMAP
ENDCHAR
STARTCHAR florin
ENCODING 196
SWIDTH 500 0
DWIDTH 9 0
BBX 0 0 0 -4
BITMAP
ENDCHAR
STARTCHAR approxequal
ENCODING 197
SWIDTH 500 0
DWIDTH 9 0
BBX 0 0 0 -4
BITMAP
ENDCHAR
STARTCHAR Delta
ENCODING 198
SWIDTH 500 0
DWIDTH 9 0
BBX 0 0 0 -4
BITMAP
ENDCHAR
STARTCHAR guillemotleft
ENCODING 199
SWIDTH 500 0
DWIDTH 9 0
BBX 0 0 0 -4
BITMAP
ENDCHAR
STARTCHAR guillemotright
ENCODING 200
SWIDTH 500 0
DWIDTH 9 0
BBX 0 0 0 -4
BITMAP
ENDCHAR
STARTCHAR ellipsis
ENCODING 201
SWIDTH 500 0
DWIDTH 9 0
BBX 0 0 0 -4
BITMAP
ENDCHAR
STARTCHAR nbspace
ENCODING 202
SWIDTH 500 0
DWIDTH 9 0
BBX 0 0 0 -4
BITMAP
ENDCHAR
STARTCHAR Agrave
ENCODING 203
SWIDTH 500 0
DWIDTH 9 0
BBX 0 0 0 -4
BITMAP
ENDCHAR
STARTCHAR Atilde
ENCODING 204
SWIDTH 500 0
DWIDTH 9 0
BBX 0 0 0 -4
BITMAP
ENDCHAR
STARTCHAR Otilde
ENCODING 205
SWIDTH 500 0
DWIDTH 9 0
BBX 0 0 0 -4
BITMAP
ENDCHAR
STARTCHAR OE
ENCODING 206
SWIDTH 500 0
DWIDTH 9 0
BBX 0 0 0 -4
BITMAP
ENDCHAR
STARTCHAR oe
ENCODING 207
SWIDTH 500 0
DWIDTH 9 0
BBX 0 0 0 -4
BITMAP
ENDCHAR
STARTCHAR endash
ENCODING 208
SWIDTH 500 0
DWIDTH 9 0
BBX 0 0 0 -4
BITMAP
ENDCHAR
STARTCHAR emdash
ENCODING 209
SWIDTH 500 0
DWIDTH 9 0
BBX 0 0 0 -4
BITMAP
ENDCHAR
STARTCHAR quotedblleft
ENCODING 210
SWIDTH 500 0
DWIDTH 9 0
BBX 0 0 0 -4
BITMAP
ENDCHAR
STARTCHAR quotedblright
ENCODING 211
SWIDTH 500 0
DWIDTH 9 0
BBX 0 0 0 -4
BITMAP
ENDCHAR
STARTCHAR quoteleft
ENCODING 212
SWIDTH 500 0
DWIDTH 9 0
BBX 0 0 0 -4
BITMAP
ENDCHAR
STARTCHAR quoteright
ENCODING 213
SWIDTH 500 0
DWIDTH 9 0
BBX 0 0 0 -4
BITMAP
ENDCHAR
STARTCHAR divide
ENCODING 214
SWIDTH 500 0
DWIDTH 9 0
BBX 0 0 0 -4
BITMAP
ENDCHAR
STARTCHAR lozenge
ENCODING 215
SWIDTH 500 0
DWIDTH 9 0
BBX 0 0 0 -4
BITMAP
ENDCHAR
STARTCHAR ydieresis
ENCODING 216
SWIDTH 500 0
DWIDTH 9 0
BBX 0 0 0 -4
BITMAP
ENDCHAR
STARTCHAR Ydieresis
ENCODING 217
SWIDTH 500 0
DWIDTH 9 0
BBX 0 0 0 -4
BITMAP
ENDCHAR
STARTCHAR fraction
ENCODING 218
SWIDTH 500 0
DWIDTH 9 0
BBX 0 0 0 -4
BITMAP
ENDCHAR
STARTCHAR currency
ENCODING 219
SWIDTH 500 0
DWIDTH 9 0
BBX 0 0 0 -4
BITMAP
ENDCHAR
STARTCHAR guilsinglleft
ENCODING 220
SWIDTH 500 0
DWIDTH 9 0
BBX 0 0 0 -4
BITMAP
ENDCHAR
STARTCHAR guilsinglright
ENCODING 221
SWIDTH 500 0
DWIDTH 9 0
BBX 0 0 0 -4
BITMAP
ENDCHAR
STARTCHAR fi
ENCODING 222
SWIDTH 500 0
DWIDTH 9 0
BBX 0 0 0 -4
BITMAP
ENDCHAR
STARTCHAR fl
ENCODING 223
SWIDTH 500 0
DWIDTH 9 0
BBX 0 0 0 -4
BITMAP
ENDCHAR
STARTCHAR daggerdbl
ENCODING 224
SWIDTH 500 0
DWIDTH 9 0
BBX 0 0 0 -4
BITMAP
ENDCHAR
STARTCHAR periodcentered
ENCODING 225
SWIDTH 500 0
DWIDTH 9 0
BBX 0 0 0 -4
BITMAP
ENDCHAR
STARTCHAR quotesinglbase
ENCODING 226
SWIDTH 500 0
DWIDTH 9 0
BBX 0 0 0 -4
BITMAP
ENDCHAR
STARTCHAR quotedblbase
ENCODING 227
SWIDTH 500 0
DWIDTH 9 0
BBX 0 0 0 -4
BITMAP
ENDCHAR
STARTCHAR perthousand
ENCODING 228
SWIDTH 500 0
DWIDTH 9 0
BBX 0 0 0 -4
BITMAP
ENDCHAR
STARTCHAR Acircumflex
ENCODING 229
SWIDTH 500 0
DWIDTH 9 0
BBX 0 0 0 -4
BITMAP
ENDCHAR
STARTCHAR Ecircumflex
ENCODING 230
SWIDTH 500 0
DWIDTH 9 0
BBX 0 0 0 -4
BITMAP
ENDCHAR
STARTCHAR Aacute
ENCODING 231
SWIDTH 500 0
DWIDTH 9 0
BBX 0 0 0 -4
BITMAP
ENDCHAR
STARTCHAR Edieresis
ENCODING 232
SWIDTH 500 0
DWIDTH 9 0
BBX 0 0 0 -4
BITMAP
ENDCHAR
STARTCHAR Egrave
ENCODING 233
SWIDTH 500 0
DWIDTH 9 0
BBX 0 0 0 -4
BITMAP
ENDCHAR
STARTCHAR Iacute
ENCODING 234
SWIDTH 500 0
DWIDTH 9 0
BBX 0 0 0 -4
BITMAP
ENDCHAR
STARTCHAR Icircumflex
ENCODING 235
SWIDTH 500 0
DWIDTH 9 0
BBX 0 0 0 -4
BITMAP
ENDCHAR
STARTCHAR Idieresis
ENCODING 236
SWIDTH 500 0
DWIDTH 9 0
BBX 0 0 0 -4
BITMAP
ENDCHAR
STARTCHAR Igrave
ENCODING 237
SWIDTH 500 0
DWIDTH 9 0
BBX 0 0 0 -4
BITMAP
ENDCHAR
STARTCHAR Oacute
ENCODING 238
SWIDTH 500 0
DWIDTH 9 0
BBX 0 0 0 -4
BITMAP
ENDCHAR
STARTCHAR Ocircumflex
ENCODING 239
SWIDTH 500 0
DWIDTH 9 0
BBX 0 0 0 -4
BITMAP
ENDCHAR
STARTCHAR apple
ENCODING 240
SWIDTH 500 0
DWIDTH 9 0
BBX 0 0 0 -4
BITMAP
ENDCHAR
STARTCHAR Ograve
ENCODING 241
SWIDTH 500 0
DWIDTH 9 0
BBX 0 0 0 -4
BITMAP
ENDCHAR
STARTCHAR Uacute
ENCODING 242
SWIDTH 500 0
DWIDTH 9 0
BBX 0 0 0 -4
BITMAP
ENDCHAR
STARTCHAR Ucircumflex
ENCODING 243
SWIDTH 500 0
DWIDTH 9 0
BBX 0 0 0 -4
BITMAP
ENDCHAR
STARTCHAR Ugrave
ENCODING 244
SWIDTH 500 0
DWIDTH 9 0
BBX 0 0 0 -4
BITMAP
ENDCHAR
STARTCHAR dotlessi
ENCODING 245
SWIDTH 500 0
DWIDTH 9 0
BBX 0 0 0 -4
BITMAP
ENDCHAR
STARTCHAR circumflex
ENCODING 246
SWIDTH 500 0
DWIDTH 9 0
BBX 0 0 0 -4
BITMAP
ENDCHAR
STARTCHAR tilde
ENCODING 247
SWIDTH 500 0
DWIDTH 9 0
BBX 0 0 0 -4
BITMAP
ENDCHAR
STARTCHAR macron
ENCODING 248
SWIDTH 500 0
DWIDTH 9 0
BBX 0 0 0 -4
BITMAP
ENDCHAR
STARTCHAR breve
ENCODING 249
SWIDTH 500 0
DWIDTH 9 0
BBX 0 0 0 -4
BITMAP
ENDCHAR
STARTCHAR dotaccent
ENCODING 250
SWIDTH 500 0
DWIDTH 9 0
BBX 0 0 0 -4
BITMAP
ENDCHAR
STARTCHAR ring
ENCODING 251
SWIDTH 500 0
DWIDTH 9 0
BBX 0 0 0 -4
BITMAP
ENDCHAR
STARTCHAR cedilla
ENCODING 252
SWIDTH 500 0
DWIDTH 9 0
BBX 0 0 0 -4
BITMAP
ENDCHAR
STARTCHAR hungarumlaut
ENCODING 253
SWIDTH 500 0
DWIDTH 9 0
BBX 0 0 0 -4
BITMAP
ENDCHAR
STARTCHAR ogonek
ENCODING 254
SWIDTH 500 0
DWIDTH 9 0
BBX 0 0 0 -4
BITMAP
ENDCHAR
STARTCHAR caron
ENCODING 255
SWIDTH 1000 0
DWIDTH 18 0
BBX 15 4 2 3
BITMAP
4104
E38E
E38E
4104
ENDCHAR
ENDFONT
