STARTFONT 2.1
FONT -Fondu-AppleGothic-Medium-R-Normal--18-170-75-75-P-114-MacRoman-1
SIZE 17 75 75
FONTBOUNDINGBOX 18 20 0 -4
COMMENT Created by Fondu from a mac NFNT/FONT resource
STARTPROPERTIES 17
FOUNDRY "Fondu"
FAMILY_NAME "AppleGothic"
WEIGHT_NAME "Medium"
SLANT "R"
SETWIDTH_NAME "Normal"
ADD_STYLE_NAME ""
PIXEL_SIZE 18
POINT_SIZE 170
RESOLUTION_X 75
RESOLUTION_Y 75
SPACING "P"
AVERAGE_WIDTH 114
CHARSET_REGISTRY "MacRoman"
CHARSET_ENCODING "1"
FONT_ASCENT 16
FONT_DESCENT 4
FACE_NAME "AppleGothic"
ENDPROPERTIES
CHARS 229
STARTCHAR char0011
ENCODING 17
SWIDTH 913 0
DWIDTH 16 0
BBX 13 13 2 0
BITMAP
78F0
CD98
CD98
CD98
CD98
7FF0
0D80
7FF0
CD98
CD98
CD98
CD98
78F0
ENDCHAR
STARTCHAR char0012
ENCODING 18
SWIDTH 581 0
DWIDTH 10 0
BBX 10 14 0 0
BITMAP
0040
0040
00C0
0080
0180
0100
0300
0200
0600
0400
CC00
6800
3800
1000
ENDCHAR
STARTCHAR char0013
ENCODING 19
SWIDTH 744 0
DWIDTH 13 0
BBX 9 9 2 1
BITMAP
0800
1C00
3E00
7F00
FF80
7F00
3E00
1C00
0800
ENDCHAR
STARTCHAR char0014
ENCODING 20
SWIDTH 744 0
DWIDTH 13 0
BBX 12 14 0 0
BITMAP
00C0
01C0
0300
1CC0
3FE0
7FF0
7FE0
FFC0
FFC0
FFC0
7FE0
7FF0
3FE0
1CC0
ENDCHAR
STARTCHAR onehalf
ENCODING 21
SWIDTH 500 0
DWIDTH 9 0
BBX 9 15 0 -1
BITMAP
3F80
7D80
FD80
FD80
FD80
FD80
7D80
3D80
0D80
0D80
0D80
0D80
0D80
0D80
0D80
ENDCHAR
STARTCHAR space
ENCODING 32
SWIDTH 400 0
DWIDTH 7 0
BBX 0 0 0 -4
BITMAP
ENDCHAR
STARTCHAR exclam
ENCODING 33
SWIDTH 500 0
DWIDTH 9 0
BBX 2 15 4 -1
BITMAP
C0
C0
C0
C0
C0
C0
C0
C0
C0
C0
C0
00
00
C0
C0
ENDCHAR
STARTCHAR quotedbl
ENCODING 34
SWIDTH 400 0
DWIDTH 7 0
BBX 5 4 1 10
BITMAP
D8
D8
48
90
ENDCHAR
STARTCHAR numbersign
ENCODING 35
SWIDTH 680 0
DWIDTH 12 0
BBX 8 14 2 0
BITMAP
12
12
12
7F
7F
24
24
24
FE
FE
48
48
48
48
ENDCHAR
STARTCHAR dollar
ENCODING 36
SWIDTH 680 0
DWIDTH 12 0
BBX 10 17 1 -2
BITMAP
0C00
1E00
6D80
CCC0
CCC0
EC00
7C00
1E00
0F80
0DC0
0CC0
CCC0
CCC0
6D80
1E00
0C00
0C00
ENDCHAR
STARTCHAR percent
ENCODING 37
SWIDTH 1000 0
DWIDTH 18 0
BBX 13 14 2 -1
BITMAP
3800
6C18
CC30
CC60
CCC0
D980
7300
0670
0CD8
1998
3198
6198
C1B0
00E0
ENDCHAR
STARTCHAR ampersand
ENCODING 38
SWIDTH 1000 0
DWIDTH 18 0
BBX 12 14 3 0
BITMAP
0E00
1B00
3180
3180
3300
1E00
3C00
6630
C630
C360
C1E0
C1C0
6360
3E30
ENDCHAR
STARTCHAR quotesingle
ENCODING 39
SWIDTH 400 0
DWIDTH 7 0
BBX 2 4 3 10
BITMAP
C0
C0
40
80
ENDCHAR
STARTCHAR parenleft
ENCODING 40
SWIDTH 500 0
DWIDTH 9 0
BBX 5 17 4 -2
BITMAP
18
30
60
60
C0
C0
C0
C0
C0
C0
C0
C0
C0
60
60
30
18
ENDCHAR
STARTCHAR parenright
ENCODING 41
SWIDTH 500 0
DWIDTH 9 0
BBX 5 17 0 -2
BITMAP
C0
60
30
30
18
18
18
18
18
18
18
18
18
30
30
60
C0
ENDCHAR
STARTCHAR asterisk
ENCODING 42
SWIDTH 500 0
DWIDTH 9 0
BBX 5 7 2 7
BITMAP
20
A8
F8
70
F8
A8
20
ENDCHAR
STARTCHAR plus
ENCODING 43
SWIDTH 1000 0
DWIDTH 18 0
BBX 12 12 3 0
BITMAP
0600
0600
0600
0600
0600
FFF0
FFF0
0600
0600
0600
0600
0600
ENDCHAR
STARTCHAR comma
ENCODING 44
SWIDTH 400 0
DWIDTH 7 0
BBX 2 4 2 -2
BITMAP
C0
C0
40
80
ENDCHAR
STARTCHAR hyphen
ENCODING 45
SWIDTH 500 0
DWIDTH 9 0
BBX 7 2 1 5
BITMAP
FE
FE
ENDCHAR
STARTCHAR period
ENCODING 46
SWIDTH 400 0
DWIDTH 7 0
BBX 2 2 2 0
BITMAP
C0
C0
ENDCHAR
STARTCHAR slash
ENCODING 47
SWIDTH 500 0
DWIDTH 9 0
BBX 8 14 1 0
BITMAP
03
03
06
06
0C
0C
18
18
30
30
60
60
C0
C0
ENDCHAR
STARTCHAR zero
ENCODING 48
SWIDTH 680 0
DWIDTH 12 0
BBX 9 14 2 0
BITMAP
3E00
6300
C180
C180
C180
C180
C180
C180
C180
C180
C180
C180
6300
3E00
ENDCHAR
STARTCHAR one
ENCODING 49
SWIDTH 680 0
DWIDTH 12 0
BBX 5 14 3 0
BITMAP
18
38
F8
18
18
18
18
18
18
18
18
18
18
18
ENDCHAR
STARTCHAR two
ENCODING 50
SWIDTH 680 0
DWIDTH 12 0
BBX 9 14 2 0
BITMAP
3E00
6300
C180
C180
C180
0300
0300
0600
0C00
1800
3000
6000
C000
FF80
ENDCHAR
STARTCHAR three
ENCODING 51
SWIDTH 680 0
DWIDTH 12 0
BBX 9 14 2 0
BITMAP
3E00
6300
C180
C180
0180
0300
1E00
0300
0180
0180
C180
C180
6300
3E00
ENDCHAR
STARTCHAR four
ENCODING 52
SWIDTH 680 0
DWIDTH 12 0
BBX 11 14 1 0
BITMAP
0180
0180
0380
0780
0D80
0980
1980
3180
6180
C180
FFE0
0180
0180
0180
ENDCHAR
STARTCHAR five
ENCODING 53
SWIDTH 680 0
DWIDTH 12 0
BBX 9 14 2 0
BITMAP
FF80
C000
C000
C000
DE00
E300
C180
0180
0180
0180
C180
C180
6300
3E00
ENDCHAR
STARTCHAR six
ENCODING 54
SWIDTH 680 0
DWIDTH 12 0
BBX 9 14 2 0
BITMAP
3E00
6300
C180
C180
C000
FE00
E300
C180
C180
C180
C180
C180
6300
3E00
ENDCHAR
STARTCHAR seven
ENCODING 55
SWIDTH 680 0
DWIDTH 12 0
BBX 9 14 2 0
BITMAP
FF80
0180
0300
0300
0600
0600
0C00
0C00
0C00
1800
1800
1800
1800
1800
ENDCHAR
STARTCHAR eight
ENCODING 56
SWIDTH 680 0
DWIDTH 12 0
BBX 9 14 2 0
BITMAP
3E00
6300
C180
C180
C180
6300
3E00
6300
C180
C180
C180
C180
6300
3E00
ENDCHAR
STARTCHAR nine
ENCODING 57
SWIDTH 680 0
DWIDTH 12 0
BBX 9 14 2 0
BITMAP
3E00
6300
C180
C180
C180
C180
C180
6380
3D80
0180
C180
C180
6300
3E00
ENDCHAR
STARTCHAR colon
ENCODING 58
SWIDTH 500 0
DWIDTH 9 0
BBX 2 10 3 2
BITMAP
C0
C0
00
00
00
00
00
00
C0
C0
ENDCHAR
STARTCHAR semicolon
ENCODING 59
SWIDTH 500 0
DWIDTH 9 0
BBX 2 11 3 1
BITMAP
C0
C0
00
00
00
00
00
C0
C0
40
80
ENDCHAR
STARTCHAR less
ENCODING 60
SWIDTH 500 0
DWIDTH 9 0
BBX 9 16 0 -1
BITMAP
0180
0300
0600
0C00
1800
3000
6000
C000
C000
6000
3000
1800
0C00
0600
0300
0180
ENDCHAR
STARTCHAR equal
ENCODING 61
SWIDTH 1000 0
DWIDTH 18 0
BBX 12 6 3 4
BITMAP
FFF0
FFF0
0000
0000
FFF0
FFF0
ENDCHAR
STARTCHAR greater
ENCODING 62
SWIDTH 500 0
DWIDTH 9 0
BBX 9 16 0 -1
BITMAP
C000
6000
3000
1800
0C00
0600
0300
0180
0180
0300
0600
0C00
1800
3000
6000
C000
ENDCHAR
STARTCHAR question
ENCODING 63
SWIDTH 680 0
DWIDTH 12 0
BBX 8 15 2 -1
BITMAP
3C
66
C3
C3
C3
06
0C
0C
18
18
18
00
00
18
18
ENDCHAR
STARTCHAR at
ENCODING 64
SWIDTH 1000 0
DWIDTH 18 0
BBX 15 13 2 0
BITMAP
07E0
1818
300C
63E6
6666
CC66
CC66
CCC6
CCCC
C7B8
6000
3018
0FE0
ENDCHAR
STARTCHAR A
ENCODING 65
SWIDTH 816 0
DWIDTH 15 0
BBX 13 14 2 0
BITMAP
0600
0600
0F00
0F00
0F00
1980
1980
1980
30C0
30C0
3FC0
6060
6060
6060
ENDCHAR
STARTCHAR B
ENCODING 66
SWIDTH 772 0
DWIDTH 14 0
BBX 10 14 2 0
BITMAP
FE00
C180
C0C0
C0C0
C0C0
C180
FF00
C180
C0C0
C0C0
C0C0
C0C0
C180
FE00
ENDCHAR
STARTCHAR C
ENCODING 67
SWIDTH 775 0
DWIDTH 14 0
BBX 12 14 1 0
BITMAP
0F80
3060
6030
6030
C000
C000
C000
C000
C000
C000
6030
6030
3060
0F80
ENDCHAR
STARTCHAR D
ENCODING 68
SWIDTH 785 0
DWIDTH 14 0
BBX 11 14 2 0
BITMAP
FE00
C180
C0C0
C0C0
C060
C060
C060
C060
C060
C060
C0C0
C0C0
C180
FE00
ENDCHAR
STARTCHAR E
ENCODING 69
SWIDTH 714 0
DWIDTH 13 0
BBX 9 14 2 0
BITMAP
FF80
C000
C000
C000
C000
C000
FF00
C000
C000
C000
C000
C000
C000
FF80
ENDCHAR
STARTCHAR F
ENCODING 70
SWIDTH 678 0
DWIDTH 12 0
BBX 9 14 2 0
BITMAP
FF80
C000
C000
C000
C000
C000
FF00
C000
C000
C000
C000
C000
C000
C000
ENDCHAR
STARTCHAR G
ENCODING 71
SWIDTH 889 0
DWIDTH 16 0
BBX 12 14 2 0
BITMAP
0F80
3060
6030
6030
C000
C000
C000
C1F0
C030
C030
6030
6030
3030
0FE0
ENDCHAR
STARTCHAR H
ENCODING 72
SWIDTH 831 0
DWIDTH 15 0
BBX 11 14 2 0
BITMAP
C060
C060
C060
C060
C060
C060
FFE0
C060
C060
C060
C060
C060
C060
C060
ENDCHAR
STARTCHAR I
ENCODING 73
SWIDTH 319 0
DWIDTH 6 0
BBX 2 14 2 0
BITMAP
C0
C0
C0
C0
C0
C0
C0
C0
C0
C0
C0
C0
C0
C0
ENDCHAR
STARTCHAR J
ENCODING 74
SWIDTH 653 0
DWIDTH 12 0
BBX 8 14 2 0
BITMAP
03
03
03
03
03
03
03
03
03
03
C3
C3
66
3C
ENDCHAR
STARTCHAR K
ENCODING 75
SWIDTH 786 0
DWIDTH 14 0
BBX 11 14 2 0
BITMAP
C0C0
C180
C300
C600
CC00
D800
F000
F800
DC00
CE00
C700
C380
C1C0
C0E0
ENDCHAR
STARTCHAR L
ENCODING 76
SWIDTH 653 0
DWIDTH 12 0
BBX 9 14 2 0
BITMAP
C000
C000
C000
C000
C000
C000
C000
C000
C000
C000
C000
C000
C000
FF80
ENDCHAR
STARTCHAR M
ENCODING 77
SWIDTH 1066 0
DWIDTH 19 0
BBX 14 14 3 0
BITMAP
C00C
C00C
E01C
E01C
F03C
F03C
D86C
D86C
CCCC
CCCC
C78C
C78C
C30C
C30C
ENDCHAR
STARTCHAR N
ENCODING 78
SWIDTH 895 0
DWIDTH 16 0
BBX 10 14 2 0
BITMAP
E0C0
E0C0
F0C0
F0C0
D8C0
D8C0
CCC0
CCC0
C6C0
C6C0
C3C0
C3C0
C1C0
C1C0
ENDCHAR
STARTCHAR O
ENCODING 79
SWIDTH 888 0
DWIDTH 16 0
BBX 13 14 2 0
BITMAP
0F80
3060
6030
6030
C018
C018
C018
C018
C018
C018
6030
6030
3060
0F80
ENDCHAR
STARTCHAR P
ENCODING 80
SWIDTH 714 0
DWIDTH 13 0
BBX 10 14 2 0
BITMAP
FE00
C180
C0C0
C0C0
C0C0
C0C0
C0C0
C180
FE00
C000
C000
C000
C000
C000
ENDCHAR
STARTCHAR Q
ENCODING 81
SWIDTH 854 0
DWIDTH 15 0
BBX 13 15 1 -1
BITMAP
0F80
3060
6030
6030
C018
C018
C018
C018
C018
C318
61B0
60F0
3060
0FB0
0018
ENDCHAR
STARTCHAR R
ENCODING 82
SWIDTH 775 0
DWIDTH 14 0
BBX 10 14 2 0
BITMAP
FE00
C180
C0C0
C0C0
C0C0
C0C0
C180
FF00
C180
C0C0
C0C0
C0C0
C0C0
C0C0
ENDCHAR
STARTCHAR S
ENCODING 83
SWIDTH 769 0
DWIDTH 14 0
BBX 11 14 2 0
BITMAP
1F00
60C0
C060
C060
E000
7800
1F00
03C0
00E0
0060
C060
C060
60C0
1F00
ENDCHAR
STARTCHAR T
ENCODING 84
SWIDTH 719 0
DWIDTH 13 0
BBX 12 14 1 0
BITMAP
FFF0
0600
0600
0600
0600
0600
0600
0600
0600
0600
0600
0600
0600
0600
ENDCHAR
STARTCHAR U
ENCODING 85
SWIDTH 889 0
DWIDTH 16 0
BBX 11 14 2 0
BITMAP
C060
C060
C060
C060
C060
C060
C060
C060
C060
C060
C060
C060
60C0
1F00
ENDCHAR
STARTCHAR V
ENCODING 86
SWIDTH 779 0
DWIDTH 14 0
BBX 10 14 2 0
BITMAP
C0C0
C0C0
C0C0
6180
6180
6180
3300
3300
3300
1E00
1E00
1E00
0C00
0C00
ENDCHAR
STARTCHAR W
ENCODING 87
SWIDTH 1149 0
DWIDTH 21 0
BBX 18 14 2 0
BITMAP
C0C0C0
C0C0C0
C0C0C0
61E180
61E180
61E180
333300
333300
333300
1E1E00
1E1E00
1E1E00
0C0C00
0C0C00
ENDCHAR
STARTCHAR X
ENCODING 88
SWIDTH 847 0
DWIDTH 15 0
BBX 15 14 0 0
BITMAP
C00E
601C
3038
1870
0CE0
07C0
0380
0380
07C0
0E60
1C30
3818
700C
E006
ENDCHAR
STARTCHAR Y
ENCODING 89
SWIDTH 731 0
DWIDTH 13 0
BBX 12 14 0 0
BITMAP
C030
6060
30C0
1980
0F00
0600
0600
0600
0600
0600
0600
0600
0600
0600
ENDCHAR
STARTCHAR Z
ENCODING 90
SWIDTH 697 0
DWIDTH 13 0
BBX 11 14 1 0
BITMAP
FFE0
00E0
01C0
0380
0300
0700
0E00
0C00
1800
3800
7000
E000
C000
FFE0
ENDCHAR
STARTCHAR bracketleft
ENCODING 91
SWIDTH 500 0
DWIDTH 9 0
BBX 4 16 5 -1
BITMAP
F0
C0
C0
C0
C0
C0
C0
C0
C0
C0
C0
C0
C0
C0
C0
F0
ENDCHAR
STARTCHAR backslash
ENCODING 92
SWIDTH 500 0
DWIDTH 9 0
BBX 8 14 0 0
BITMAP
C0
C0
60
60
30
30
18
18
0C
0C
06
06
03
03
ENDCHAR
STARTCHAR bracketright
ENCODING 93
SWIDTH 500 0
DWIDTH 9 0
BBX 4 16 0 -1
BITMAP
F0
30
30
30
30
30
30
30
30
30
30
30
30
30
30
F0
ENDCHAR
STARTCHAR asciicircum
ENCODING 94
SWIDTH 500 0
DWIDTH 9 0
BBX 9 4 0 11
BITMAP
1C00
3600
6300
C180
ENDCHAR
STARTCHAR underscore
ENCODING 95
SWIDTH 500 0
DWIDTH 9 0
BBX 9 1 0 -4
BITMAP
FF80
ENDCHAR
STARTCHAR grave
ENCODING 96
SWIDTH 250 0
DWIDTH 5 0
BBX 2 4 2 11
BITMAP
40
80
C0
C0
ENDCHAR
STARTCHAR a
ENCODING 97
SWIDTH 644 0
DWIDTH 12 0
BBX 8 9 2 0
BITMAP
7E
C3
C3
1F
63
C3
C3
C3
7F
ENDCHAR
STARTCHAR b
ENCODING 98
SWIDTH 694 0
DWIDTH 12 0
BBX 9 14 2 0
BITMAP
C000
C000
C000
C000
C000
FC00
C300
C180
C180
C180
C180
C180
C300
FC00
ENDCHAR
STARTCHAR c
ENCODING 99
SWIDTH 584 0
DWIDTH 11 0
BBX 8 9 1 0
BITMAP
1C
63
C1
C0
C0
C0
C1
63
1C
ENDCHAR
STARTCHAR d
ENCODING 100
SWIDTH 696 0
DWIDTH 13 0
BBX 9 14 2 0
BITMAP
0180
0180
0180
0180
0180
1F80
6180
C180
C180
C180
C180
C180
6180
1F80
ENDCHAR
STARTCHAR e
ENCODING 101
SWIDTH 643 0
DWIDTH 12 0
BBX 9 9 2 0
BITMAP
1C00
6300
C180
C180
FF80
C000
C080
6180
1E00
ENDCHAR
STARTCHAR f
ENCODING 102
SWIDTH 457 0
DWIDTH 8 0
BBX 6 14 1 0
BITMAP
1C
30
30
30
30
FC
30
30
30
30
30
30
30
30
ENDCHAR
STARTCHAR g
ENCODING 103
SWIDTH 699 0
DWIDTH 13 0
BBX 9 13 2 -4
BITMAP
1F80
6180
C180
C180
C180
C180
C180
6180
1F80
0180
C180
C300
7C00
ENDCHAR
STARTCHAR h
ENCODING 104
SWIDTH 703 0
DWIDTH 13 0
BBX 8 14 2 0
BITMAP
C0
C0
C0
C0
C0
FE
C3
C3
C3
C3
C3
C3
C3
C3
ENDCHAR
STARTCHAR i
ENCODING 105
SWIDTH 323 0
DWIDTH 6 0
BBX 2 14 2 0
BITMAP
C0
C0
00
00
00
C0
C0
C0
C0
C0
C0
C0
C0
C0
ENDCHAR
STARTCHAR j
ENCODING 106
SWIDTH 322 0
DWIDTH 6 0
BBX 4 18 0 -4
BITMAP
30
30
00
00
00
30
30
30
30
30
30
30
30
30
30
30
30
E0
ENDCHAR
STARTCHAR k
ENCODING 107
SWIDTH 598 0
DWIDTH 11 0
BBX 9 14 1 0
BITMAP
C000
C000
C000
C000
C000
C300
C600
CC00
D800
F800
DC00
CE00
C700
C380
ENDCHAR
STARTCHAR l
ENCODING 108
SWIDTH 323 0
DWIDTH 6 0
BBX 2 14 2 0
BITMAP
C0
C0
C0
C0
C0
C0
C0
C0
C0
C0
C0
C0
C0
C0
ENDCHAR
STARTCHAR m
ENCODING 109
SWIDTH 1050 0
DWIDTH 19 0
BBX 14 9 2 0
BITMAP
FCF8
C30C
C30C
C30C
C30C
C30C
C30C
C30C
C30C
ENDCHAR
STARTCHAR n
ENCODING 110
SWIDTH 700 0
DWIDTH 13 0
BBX 8 9 2 0
BITMAP
FE
C3
C3
C3
C3
C3
C3
C3
C3
ENDCHAR
STARTCHAR o
ENCODING 111
SWIDTH 697 0
DWIDTH 13 0
BBX 10 9 2 0
BITMAP
1E00
6180
C0C0
C0C0
C0C0
C0C0
C0C0
6180
1E00
ENDCHAR
STARTCHAR p
ENCODING 112
SWIDTH 693 0
DWIDTH 12 0
BBX 9 13 2 -4
BITMAP
FC00
C300
C180
C180
C180
C180
C180
C300
FC00
C000
C000
C000
C000
ENDCHAR
STARTCHAR q
ENCODING 113
SWIDTH 694 0
DWIDTH 12 0
BBX 9 13 1 -4
BITMAP
1F80
6180
C180
C180
C180
C180
C180
6180
1F80
0180
0180
0180
0180
ENDCHAR
STARTCHAR r
ENCODING 114
SWIDTH 458 0
DWIDTH 8 0
BBX 6 9 1 0
BITMAP
DC
E0
C0
C0
C0
C0
C0
C0
C0
ENDCHAR
STARTCHAR s
ENCODING 115
SWIDTH 583 0
DWIDTH 10 0
BBX 8 9 1 0
BITMAP
7E
C3
C3
C0
7E
03
C3
C3
7E
ENDCHAR
STARTCHAR t
ENCODING 116
SWIDTH 382 0
DWIDTH 7 0
BBX 6 14 0 0
BITMAP
30
30
30
30
30
FC
30
30
30
30
30
30
30
1C
ENDCHAR
STARTCHAR u
ENCODING 117
SWIDTH 705 0
DWIDTH 13 0
BBX 8 9 2 0
BITMAP
C3
C3
C3
C3
C3
C3
C3
C3
7F
ENDCHAR
STARTCHAR v
ENCODING 118
SWIDTH 634 0
DWIDTH 11 0
BBX 8 9 2 0
BITMAP
C3
C3
66
66
66
3C
3C
18
18
ENDCHAR
STARTCHAR w
ENCODING 119
SWIDTH 929 0
DWIDTH 17 0
BBX 14 9 1 0
BITMAP
C30C
C30C
C30C
6798
6798
3CF0
3CF0
1860
1860
ENDCHAR
STARTCHAR x
ENCODING 120
SWIDTH 651 0
DWIDTH 12 0
BBX 11 9 1 0
BITMAP
E0E0
71C0
3B80
1F00
0E00
1F00
3B80
71C0
E0E0
ENDCHAR
STARTCHAR y
ENCODING 121
SWIDTH 635 0
DWIDTH 11 0
BBX 9 13 1 -4
BITMAP
C180
C180
C180
6300
6300
3600
3600
3C00
1C00
1800
3000
6000
C000
ENDCHAR
STARTCHAR z
ENCODING 122
SWIDTH 527 0
DWIDTH 9 0
BBX 7 9 1 0
BITMAP
FE
06
0C
18
18
30
60
C0
FE
ENDCHAR
STARTCHAR braceleft
ENCODING 123
SWIDTH 500 0
DWIDTH 9 0
BBX 6 17 3 -2
BITMAP
1C
30
30
30
30
30
30
20
C0
20
30
30
30
30
30
30
1C
ENDCHAR
STARTCHAR bar
ENCODING 124
SWIDTH 500 0
DWIDTH 9 0
BBX 2 19 4 -4
BITMAP
C0
C0
C0
C0
C0
C0
C0
C0
C0
C0
C0
C0
C0
C0
C0
C0
C0
C0
C0
ENDCHAR
STARTCHAR braceright
ENCODING 125
SWIDTH 500 0
DWIDTH 9 0
BBX 6 17 0 -2
BITMAP
E0
30
30
30
30
30
30
10
0C
10
30
30
30
30
30
30
E0
ENDCHAR
STARTCHAR asciitilde
ENCODING 126
SWIDTH 1000 0
DWIDTH 18 0
BBX 18 4 0 5
BITMAP
1F00C0
7FC1C0
E0FF80
C03E00
ENDCHAR
STARTCHAR char007f
ENCODING 127
SWIDTH 400 0
DWIDTH 7 0
BBX 0 0 0 -4
BITMAP
ENDCHAR
STARTCHAR Adieresis
ENCODING 128
SWIDTH 400 0
DWIDTH 7 0
BBX 0 0 0 -4
BITMAP
ENDCHAR
STARTCHAR Aring
ENCODING 129
SWIDTH 913 0
DWIDTH 16 0
BBX 15 12 0 0
BITMAP
6304
6304
6304
3188
FFFE
3188
1AD0
1AD0
1AD0
0C60
0C60
0C60
ENDCHAR
STARTCHAR Ccedilla
ENCODING 130
SWIDTH 498 0
DWIDTH 9 0
BBX 9 1 0 4
BITMAP
FF80
ENDCHAR
STARTCHAR Eacute
ENCODING 131
SWIDTH 1000 0
DWIDTH 18 0
BBX 13 12 3 0
BITMAP
0F80
3060
6030
CF98
D8D8
D818
D818
D8D8
CF98
6030
3060
0F80
ENDCHAR
STARTCHAR Ntilde
ENCODING 132
SWIDTH 747 0
DWIDTH 13 0
BBX 13 1 0 -4
BITMAP
FFF8
ENDCHAR
STARTCHAR Odieresis
ENCODING 133
SWIDTH 1000 0
DWIDTH 18 0
BBX 18 18 0 -4
BITMAP
FFFFC0
FFFFC0
FFFFC0
FFFFC0
FFFFC0
FFFFC0
FFFFC0
FFFFC0
FFFFC0
FFFFC0
FFFFC0
FFFFC0
FFFFC0
FFFFC0
FFFFC0
FFFFC0
FFFFC0
FFFFC0
ENDCHAR
STARTCHAR Udieresis
ENCODING 134
SWIDTH 1000 0
DWIDTH 18 0
BBX 18 18 0 -4
BITMAP
FFFFC0
FFFFC0
FFFFC0
FFFFC0
FFFFC0
FFFFC0
FFFFC0
FFFFC0
FFFFC0
FFFFC0
FFFFC0
FFFFC0
FFFFC0
FFFFC0
FFFFC0
FFFFC0
FFFFC0
FFFFC0
ENDCHAR
STARTCHAR aacute
ENCODING 135
SWIDTH 1000 0
DWIDTH 18 0
BBX 18 18 0 -4
BITMAP
FFFFC0
FFFFC0
FFFFC0
FFFFC0
FFFFC0
FFFFC0
FFFFC0
FFFFC0
FFFFC0
FFFFC0
FFFFC0
FFFFC0
FFFFC0
FFFFC0
FFFFC0
FFFFC0
FFFFC0
FFFFC0
ENDCHAR
STARTCHAR agrave
ENCODING 136
SWIDTH 1000 0
DWIDTH 18 0
BBX 18 18 0 -4
BITMAP
FFFFC0
FFFFC0
FFFFC0
FFFFC0
FFFFC0
FFFFC0
FFFFC0
FFFFC0
FFFFC0
FFFFC0
FFFFC0
FFFFC0
FFFFC0
FFFFC0
FFFFC0
FFFFC0
FFFFC0
FFFFC0
ENDCHAR
STARTCHAR acircumflex
ENCODING 137
SWIDTH 1000 0
DWIDTH 18 0
BBX 18 18 0 -4
BITMAP
FFFFC0
FFFFC0
FFFFC0
FFFFC0
FFFFC0
FFFFC0
FFFFC0
FFFFC0
FFFFC0
FFFFC0
FFFFC0
FFFFC0
FFFFC0
FFFFC0
FFFFC0
FFFFC0
FFFFC0
FFFFC0
ENDCHAR
STARTCHAR adieresis
ENCODING 138
SWIDTH 1000 0
DWIDTH 18 0
BBX 18 18 0 -4
BITMAP
FFFFC0
FFFFC0
FFFFC0
FFFFC0
FFFFC0
FFFFC0
FFFFC0
FFFFC0
FFFFC0
FFFFC0
FFFFC0
FFFFC0
FFFFC0
FFFFC0
FFFFC0
FFFFC0
FFFFC0
FFFFC0
ENDCHAR
STARTCHAR atilde
ENCODING 139
SWIDTH 1000 0
DWIDTH 18 0
BBX 18 18 0 -4
BITMAP
FFFFC0
FFFFC0
FFFFC0
FFFFC0
FFFFC0
FFFFC0
FFFFC0
FFFFC0
FFFFC0
FFFFC0
FFFFC0
FFFFC0
FFFFC0
FFFFC0
FFFFC0
FFFFC0
FFFFC0
FFFFC0
ENDCHAR
STARTCHAR aring
ENCODING 140
SWIDTH 1000 0
DWIDTH 18 0
BBX 18 18 0 -4
BITMAP
FFFFC0
FFFFC0
FFFFC0
FFFFC0
FFFFC0
FFFFC0
FFFFC0
FFFFC0
FFFFC0
FFFFC0
FFFFC0
FFFFC0
FFFFC0
FFFFC0
FFFFC0
FFFFC0
FFFFC0
FFFFC0
ENDCHAR
STARTCHAR ccedilla
ENCODING 141
SWIDTH 1000 0
DWIDTH 18 0
BBX 18 18 0 -4
BITMAP
FFFFC0
FFFFC0
FFFFC0
FFFFC0
FFFFC0
FFFFC0
FFFFC0
FFFFC0
FFFFC0
FFFFC0
FFFFC0
FFFFC0
FFFFC0
FFFFC0
FFFFC0
FFFFC0
FFFFC0
FFFFC0
ENDCHAR
STARTCHAR eacute
ENCODING 142
SWIDTH 1000 0
DWIDTH 18 0
BBX 18 18 0 -4
BITMAP
FFFFC0
FFFFC0
FFFFC0
FFFFC0
FFFFC0
FFFFC0
FFFFC0
FFFFC0
FFFFC0
FFFFC0
FFFFC0
FFFFC0
FFFFC0
FFFFC0
FFFFC0
FFFFC0
FFFFC0
FFFFC0
ENDCHAR
STARTCHAR egrave
ENCODING 143
SWIDTH 1000 0
DWIDTH 18 0
BBX 18 18 0 -4
BITMAP
FFFFC0
FFFFC0
FFFFC0
FFFFC0
FFFFC0
FFFFC0
FFFFC0
FFFFC0
FFFFC0
FFFFC0
FFFFC0
FFFFC0
FFFFC0
FFFFC0
FFFFC0
FFFFC0
FFFFC0
FFFFC0
ENDCHAR
STARTCHAR ecircumflex
ENCODING 144
SWIDTH 1000 0
DWIDTH 18 0
BBX 18 18 0 -4
BITMAP
FFFFC0
FFFFC0
FFFFC0
FFFFC0
FFFFC0
FFFFC0
FFFFC0
FFFFC0
FFFFC0
FFFFC0
FFFFC0
FFFFC0
FFFFC0
FFFFC0
FFFFC0
FFFFC0
FFFFC0
FFFFC0
ENDCHAR
STARTCHAR edieresis
ENCODING 145
SWIDTH 1000 0
DWIDTH 18 0
BBX 18 18 0 -4
BITMAP
FFFFC0
FFFFC0
FFFFC0
FFFFC0
FFFFC0
FFFFC0
FFFFC0
FFFFC0
FFFFC0
FFFFC0
FFFFC0
FFFFC0
FFFFC0
FFFFC0
FFFFC0
FFFFC0
FFFFC0
FFFFC0
ENDCHAR
STARTCHAR iacute
ENCODING 146
SWIDTH 1000 0
DWIDTH 18 0
BBX 18 18 0 -4
BITMAP
FFFFC0
FFFFC0
FFFFC0
FFFFC0
FFFFC0
FFFFC0
FFFFC0
FFFFC0
FFFFC0
FFFFC0
FFFFC0
FFFFC0
FFFFC0
FFFFC0
FFFFC0
FFFFC0
FFFFC0
FFFFC0
ENDCHAR
STARTCHAR igrave
ENCODING 147
SWIDTH 1000 0
DWIDTH 18 0
BBX 18 18 0 -4
BITMAP
FFFFC0
FFFFC0
FFFFC0
FFFFC0
FFFFC0
FFFFC0
FFFFC0
FFFFC0
FFFFC0
FFFFC0
FFFFC0
FFFFC0
FFFFC0
FFFFC0
FFFFC0
FFFFC0
FFFFC0
FFFFC0
ENDCHAR
STARTCHAR icircumflex
ENCODING 148
SWIDTH 1000 0
DWIDTH 18 0
BBX 18 18 0 -4
BITMAP
FFFFC0
FFFFC0
FFFFC0
FFFFC0
FFFFC0
FFFFC0
FFFFC0
FFFFC0
FFFFC0
FFFFC0
FFFFC0
FFFFC0
FFFFC0
FFFFC0
FFFFC0
FFFFC0
FFFFC0
FFFFC0
ENDCHAR
STARTCHAR idieresis
ENCODING 149
SWIDTH 1000 0
DWIDTH 18 0
BBX 18 18 0 -4
BITMAP
FFFFC0
FFFFC0
FFFFC0
FFFFC0
FFFFC0
FFFFC0
FFFFC0
FFFFC0
FFFFC0
FFFFC0
FFFFC0
FFFFC0
FFFFC0
FFFFC0
FFFFC0
FFFFC0
FFFFC0
FFFFC0
ENDCHAR
STARTCHAR ntilde
ENCODING 150
SWIDTH 1000 0
DWIDTH 18 0
BBX 18 18 0 -4
BITMAP
FFFFC0
FFFFC0
FFFFC0
FFFFC0
FFFFC0
FFFFC0
FFFFC0
FFFFC0
FFFFC0
FFFFC0
FFFFC0
FFFFC0
FFFFC0
FFFFC0
FFFFC0
FFFFC0
FFFFC0
FFFFC0
ENDCHAR
STARTCHAR oacute
ENCODING 151
SWIDTH 1000 0
DWIDTH 18 0
BBX 18 18 0 -4
BITMAP
FFFFC0
FFFFC0
FFFFC0
FFFFC0
FFFFC0
FFFFC0
FFFFC0
FFFFC0
FFFFC0
FFFFC0
FFFFC0
FFFFC0
FFFFC0
FFFFC0
FFFFC0
FFFFC0
FFFFC0
FFFFC0
ENDCHAR
STARTCHAR ograve
ENCODING 152
SWIDTH 1000 0
DWIDTH 18 0
BBX 18 18 0 -4
BITMAP
FFFFC0
FFFFC0
FFFFC0
FFFFC0
FFFFC0
FFFFC0
FFFFC0
FFFFC0
FFFFC0
FFFFC0
FFFFC0
FFFFC0
FFFFC0
FFFFC0
FFFFC0
FFFFC0
FFFFC0
FFFFC0
ENDCHAR
STARTCHAR ocircumflex
ENCODING 153
SWIDTH 1000 0
DWIDTH 18 0
BBX 18 18 0 -4
BITMAP
FFFFC0
FFFFC0
FFFFC0
FFFFC0
FFFFC0
FFFFC0
FFFFC0
FFFFC0
FFFFC0
FFFFC0
FFFFC0
FFFFC0
FFFFC0
FFFFC0
FFFFC0
FFFFC0
FFFFC0
FFFFC0
ENDCHAR
STARTCHAR odieresis
ENCODING 154
SWIDTH 1000 0
DWIDTH 18 0
BBX 18 18 0 -4
BITMAP
FFFFC0
FFFFC0
FFFFC0
FFFFC0
FFFFC0
FFFFC0
FFFFC0
FFFFC0
FFFFC0
FFFFC0
FFFFC0
FFFFC0
FFFFC0
FFFFC0
FFFFC0
FFFFC0
FFFFC0
FFFFC0
ENDCHAR
STARTCHAR otilde
ENCODING 155
SWIDTH 1000 0
DWIDTH 18 0
BBX 18 18 0 -4
BITMAP
FFFFC0
FFFFC0
FFFFC0
FFFFC0
FFFFC0
FFFFC0
FFFFC0
FFFFC0
FFFFC0
FFFFC0
FFFFC0
FFFFC0
FFFFC0
FFFFC0
FFFFC0
FFFFC0
FFFFC0
FFFFC0
ENDCHAR
STARTCHAR uacute
ENCODING 156
SWIDTH 1000 0
DWIDTH 18 0
BBX 18 18 0 -4
BITMAP
FFFFC0
FFFFC0
FFFFC0
FFFFC0
FFFFC0
FFFFC0
FFFFC0
FFFFC0
FFFFC0
FFFFC0
FFFFC0
FFFFC0
FFFFC0
FFFFC0
FFFFC0
FFFFC0
FFFFC0
FFFFC0
ENDCHAR
STARTCHAR ugrave
ENCODING 157
SWIDTH 1000 0
DWIDTH 18 0
BBX 18 18 0 -4
BITMAP
FFFFC0
FFFFC0
FFFFC0
FFFFC0
FFFFC0
FFFFC0
FFFFC0
FFFFC0
FFFFC0
FFFFC0
FFFFC0
FFFFC0
FFFFC0
FFFFC0
FFFFC0
FFFFC0
FFFFC0
FFFFC0
ENDCHAR
STARTCHAR ucircumflex
ENCODING 158
SWIDTH 1000 0
DWIDTH 18 0
BBX 18 18 0 -4
BITMAP
FFFFC0
FFFFC0
FFFFC0
FFFFC0
FFFFC0
FFFFC0
FFFFC0
FFFFC0
FFFFC0
FFFFC0
FFFFC0
FFFFC0
FFFFC0
FFFFC0
FFFFC0
FFFFC0
FFFFC0
FFFFC0
ENDCHAR
STARTCHAR udieresis
ENCODING 159
SWIDTH 1000 0
DWIDTH 18 0
BBX 18 18 0 -4
BITMAP
FFFFC0
FFFFC0
FFFFC0
FFFFC0
FFFFC0
FFFFC0
FFFFC0
FFFFC0
FFFFC0
FFFFC0
FFFFC0
FFFFC0
FFFFC0
FFFFC0
FFFFC0
FFFFC0
FFFFC0
FFFFC0
ENDCHAR
STARTCHAR dagger
ENCODING 160
SWIDTH 1000 0
DWIDTH 18 0
BBX 18 18 0 -4
BITMAP
FFFFC0
FFFFC0
FFFFC0
FFFFC0
FFFFC0
FFFFC0
FFFFC0
FFFFC0
FFFFC0
FFFFC0
FFFFC0
FFFFC0
FFFFC0
FFFFC0
FFFFC0
FFFFC0
FFFFC0
FFFFC0
ENDCHAR
STARTCHAR degree
ENCODING 161
SWIDTH 500 0
DWIDTH 9 0
BBX 0 0 0 -4
BITMAP
ENDCHAR
STARTCHAR cent
ENCODING 162
SWIDTH 500 0
DWIDTH 9 0
BBX 0 0 0 -4
BITMAP
ENDCHAR
STARTCHAR sterling
ENCODING 163
SWIDTH 500 0
DWIDTH 9 0
BBX 0 0 0 -4
BITMAP
ENDCHAR
STARTCHAR section
ENCODING 164
SWIDTH 500 0
DWIDTH 9 0
BBX 0 0 0 -4
BITMAP
ENDCHAR
STARTCHAR bullet
ENCODING 165
SWIDTH 500 0
DWIDTH 9 0
BBX 0 0 0 -4
BITMAP
ENDCHAR
STARTCHAR paragraph
ENCODING 166
SWIDTH 500 0
DWIDTH 9 0
BBX 0 0 0 -4
BITMAP
ENDCHAR
STARTCHAR germandbls
ENCODING 167
SWIDTH 500 0
DWIDTH 9 0
BBX 0 0 0 -4
BITMAP
ENDCHAR
STARTCHAR registered
ENCODING 168
SWIDTH 500 0
DWIDTH 9 0
BBX 0 0 0 -4
BITMAP
ENDCHAR
STARTCHAR copyright
ENCODING 169
SWIDTH 500 0
DWIDTH 9 0
BBX 0 0 0 -4
BITMAP
ENDCHAR
STARTCHAR trademark
ENCODING 170
SWIDTH 500 0
DWIDTH 9 0
BBX 0 0 0 -4
BITMAP
ENDCHAR
STARTCHAR acute
ENCODING 171
SWIDTH 500 0
DWIDTH 9 0
BBX 0 0 0 -4
BITMAP
ENDCHAR
STARTCHAR dieresis
ENCODING 172
SWIDTH 500 0
DWIDTH 9 0
BBX 0 0 0 -4
BITMAP
ENDCHAR
STARTCHAR notequal
ENCODING 173
SWIDTH 500 0
DWIDTH 9 0
BBX 0 0 0 -4
BITMAP
ENDCHAR
STARTCHAR AE
ENCODING 174
SWIDTH 500 0
DWIDTH 9 0
BBX 0 0 0 -4
BITMAP
ENDCHAR
STARTCHAR Oslash
ENCODING 175
SWIDTH 500 0
DWIDTH 9 0
BBX 0 0 0 -4
BITMAP
ENDCHAR
STARTCHAR infinity
ENCODING 176
SWIDTH 500 0
DWIDTH 9 0
BBX 0 0 0 -4
BITMAP
ENDCHAR
STARTCHAR plusminus
ENCODING 177
SWIDTH 500 0
DWIDTH 9 0
BBX 0 0 0 -4
BITMAP
ENDCHAR
STARTCHAR lessequal
ENCODING 178
SWIDTH 500 0
DWIDTH 9 0
BBX 0 0 0 -4
BITMAP
ENDCHAR
STARTCHAR greaterequal
ENCODING 179
SWIDTH 500 0
DWIDTH 9 0
BBX 0 0 0 -4
BITMAP
ENDCHAR
STARTCHAR yen
ENCODING 180
SWIDTH 500 0
DWIDTH 9 0
BBX 0 0 0 -4
BITMAP
ENDCHAR
STARTCHAR mu
ENCODING 181
SWIDTH 500 0
DWIDTH 9 0
BBX 0 0 0 -4
BITMAP
ENDCHAR
STARTCHAR partialdiff
ENCODING 182
SWIDTH 500 0
DWIDTH 9 0
BBX 0 0 0 -4
BITMAP
ENDCHAR
STARTCHAR summation
ENCODING 183
SWIDTH 500 0
DWIDTH 9 0
BBX 0 0 0 -4
BITMAP
ENDCHAR
STARTCHAR product
ENCODING 184
SWIDTH 500 0
DWIDTH 9 0
BBX 0 0 0 -4
BITMAP
ENDCHAR
STARTCHAR pi
ENCODING 185
SWIDTH 500 0
DWIDTH 9 0
BBX 0 0 0 -4
BITMAP
ENDCHAR
STARTCHAR integral
ENCODING 186
SWIDTH 500 0
DWIDTH 9 0
BBX 0 0 0 -4
BITMAP
ENDCHAR
STARTCHAR ordfeminine
ENCODING 187
SWIDTH 500 0
DWIDTH 9 0
BBX 0 0 0 -4
BITMAP
ENDCHAR
STARTCHAR ordmasculine
ENCODING 188
SWIDTH 500 0
DWIDTH 9 0
BBX 0 0 0 -4
BITMAP
ENDCHAR
STARTCHAR Omega
ENCODING 189
SWIDTH 500 0
DWIDTH 9 0
BBX 0 0 0 -4
BITMAP
ENDCHAR
STARTCHAR ae
ENCODING 190
SWIDTH 500 0
DWIDTH 9 0
BBX 0 0 0 -4
BITMAP
ENDCHAR
STARTCHAR oslash
ENCODING 191
SWIDTH 500 0
DWIDTH 9 0
BBX 0 0 0 -4
BITMAP
ENDCHAR
STARTCHAR questiondown
ENCODING 192
SWIDTH 500 0
DWIDTH 9 0
BBX 0 0 0 -4
BITMAP
ENDCHAR
STARTCHAR exclamdown
ENCODING 193
SWIDTH 500 0
DWIDTH 9 0
BBX 0 0 0 -4
BITMAP
ENDCHAR
STARTCHAR logicalnot
ENCODING 194
SWIDTH 500 0
DWIDTH 9 0
BBX 0 0 0 -4
BITMAP
ENDCHAR
STARTCHAR radical
ENCODING 195
SWIDTH 500 0
DWIDTH 9 0
BBX 0 0 0 -4
BITMAP
ENDCHAR
STARTCHAR florin
ENCODING 196
SWIDTH 500 0
DWIDTH 9 0
BBX 0 0 0 -4
BITMAP
ENDCHAR
STARTCHAR approxequal
ENCODING 197
SWIDTH 500 0
DWIDTH 9 0
BBX 0 0 0 -4
BITMAP
ENDCHAR
STARTCHAR Delta
ENCODING 198
SWIDTH 500 0
DWIDTH 9 0
BBX 0 0 0 -4
BITMAP
ENDCHAR
STARTCHAR guillemotleft
ENCODING 199
SWIDTH 500 0
DWIDTH 9 0
BBX 0 0 0 -4
BITMAP
ENDCHAR
STARTCHAR guillemotright
ENCODING 200
SWIDTH 500 0
DWIDTH 9 0
BBX 0 0 0 -4
BITMAP
ENDCHAR
STARTCHAR ellipsis
ENCODING 201
SWIDTH 500 0
DWIDTH 9 0
BBX 0 0 0 -4
BITMAP
ENDCHAR
STARTCHAR nbspace
ENCODING 202
SWIDTH 500 0
DWIDTH 9 0
BBX 0 0 0 -4
BITMAP
ENDCHAR
STARTCHAR Agrave
ENCODING 203
SWIDTH 500 0
DWIDTH 9 0
BBX 0 0 0 -4
BITMAP
ENDCHAR
STARTCHAR Atilde
ENCODING 204
SWIDTH 500 0
DWIDTH 9 0
BBX 0 0 0 -4
BITMAP
ENDCHAR
STARTCHAR Otilde
ENCODING 205
SWIDTH 500 0
DWIDTH 9 0
BBX 0 0 0 -4
BITMAP
ENDCHAR
STARTCHAR OE
ENCODING 206
SWIDTH 500 0
DWIDTH 9 0
BBX 0 0 0 -4
BITMAP
ENDCHAR
STARTCHAR oe
ENCODING 207
SWIDTH 500 0
DWIDTH 9 0
BBX 0 0 0 -4
BITMAP
ENDCHAR
STARTCHAR endash
ENCODING 208
SWIDTH 500 0
DWIDTH 9 0
BBX 0 0 0 -4
BITMAP
ENDCHAR
STARTCHAR emdash
ENCODING 209
SWIDTH 500 0
DWIDTH 9 0
BBX 0 0 0 -4
BITMAP
ENDCHAR
STARTCHAR quotedblleft
ENCODING 210
SWIDTH 500 0
DWIDTH 9 0
BBX 0 0 0 -4
BITMAP
ENDCHAR
STARTCHAR quotedblright
ENCODING 211
SWIDTH 500 0
DWIDTH 9 0
BBX 0 0 0 -4
BITMAP
ENDCHAR
STARTCHAR quoteleft
ENCODING 212
SWIDTH 500 0
DWIDTH 9 0
BBX 0 0 0 -4
BITMAP
ENDCHAR
STARTCHAR quoteright
ENCODING 213
SWIDTH 500 0
DWIDTH 9 0
BBX 0 0 0 -4
BITMAP
ENDCHAR
STARTCHAR divide
ENCODING 214
SWIDTH 500 0
DWIDTH 9 0
BBX 0 0 0 -4
BITMAP
ENDCHAR
STARTCHAR lozenge
ENCODING 215
SWIDTH 500 0
DWIDTH 9 0
BBX 0 0 0 -4
BITMAP
ENDCHAR
STARTCHAR ydieresis
ENCODING 216
SWIDTH 500 0
DWIDTH 9 0
BBX 0 0 0 -4
BITMAP
ENDCHAR
STARTCHAR Ydieresis
ENCODING 217
SWIDTH 500 0
DWIDTH 9 0
BBX 0 0 0 -4
BITMAP
ENDCHAR
STARTCHAR fraction
ENCODING 218
SWIDTH 500 0
DWIDTH 9 0
BBX 0 0 0 -4
BITMAP
ENDCHAR
STARTCHAR currency
ENCODING 219
SWIDTH 500 0
DWIDTH 9 0
BBX 0 0 0 -4
BITMAP
ENDCHAR
STARTCHAR guilsinglleft
ENCODING 220
SWIDTH 500 0
DWIDTH 9 0
BBX 0 0 0 -4
BITMAP
ENDCHAR
STARTCHAR guilsinglright
ENCODING 221
SWIDTH 500 0
DWIDTH 9 0
BBX 0 0 0 -4
BITMAP
ENDCHAR
STARTCHAR fi
ENCODING 222
SWIDTH 500 0
DWIDTH 9 0
BBX 0 0 0 -4
BITMAP
ENDCHAR
STARTCHAR fl
ENCODING 223
SWIDTH 500 0
DWIDTH 9 0
BBX 0 0 0 -4
BITMAP
ENDCHAR
STARTCHAR daggerdbl
ENCODING 224
SWIDTH 500 0
DWIDTH 9 0
BBX 0 0 0 -4
BITMAP
ENDCHAR
STARTCHAR periodcentered
ENCODING 225
SWIDTH 500 0
DWIDTH 9 0
BBX 0 0 0 -4
BITMAP
ENDCHAR
STARTCHAR quotesinglbase
ENCODING 226
SWIDTH 500 0
DWIDTH 9 0
BBX 0 0 0 -4
BITMAP
ENDCHAR
STARTCHAR quotedblbase
ENCODING 227
SWIDTH 500 0
DWIDTH 9 0
BBX 0 0 0 -4
BITMAP
ENDCHAR
STARTCHAR perthousand
ENCODING 228
SWIDTH 500 0
DWIDTH 9 0
BBX 0 0 0 -4
BITMAP
ENDCHAR
STARTCHAR Acircumflex
ENCODING 229
SWIDTH 500 0
DWIDTH 9 0
BBX 0 0 0 -4
BITMAP
ENDCHAR
STARTCHAR Ecircumflex
ENCODING 230
SWIDTH 500 0
DWIDTH 9 0
BBX 0 0 0 -4
BITMAP
ENDCHAR
STARTCHAR Aacute
ENCODING 231
SWIDTH 500 0
DWIDTH 9 0
BBX 0 0 0 -4
BITMAP
ENDCHAR
STARTCHAR Edieresis
ENCODING 232
SWIDTH 500 0
DWIDTH 9 0
BBX 0 0 0 -4
BITMAP
ENDCHAR
STARTCHAR Egrave
ENCODING 233
SWIDTH 500 0
DWIDTH 9 0
BBX 0 0 0 -4
BITMAP
ENDCHAR
STARTCHAR Iacute
ENCODING 234
SWIDTH 500 0
DWIDTH 9 0
BBX 0 0 0 -4
BITMAP
ENDCHAR
STARTCHAR Icircumflex
ENCODING 235
SWIDTH 500 0
DWIDTH 9 0
BBX 0 0 0 -4
BITMAP
ENDCHAR
STARTCHAR Idieresis
ENCODING 236
SWIDTH 500 0
DWIDTH 9 0
BBX 0 0 0 -4
BITMAP
ENDCHAR
STARTCHAR Igrave
ENCODING 237
SWIDTH 500 0
DWIDTH 9 0
BBX 0 0 0 -4
BITMAP
ENDCHAR
STARTCHAR Oacute
ENCODING 238
SWIDTH 500 0
DWIDTH 9 0
BBX 0 0 0 -4
BITMAP
ENDCHAR
STARTCHAR Ocircumflex
ENCODING 239
SWIDTH 500 0
DWIDTH 9 0
BBX 0 0 0 -4
BITMAP
ENDCHAR
STARTCHAR apple
ENCODING 240
SWIDTH 500 0
DWIDTH 9 0
BBX 0 0 0 -4
BITMAP
ENDCHAR
STARTCHAR Ograve
ENCODING 241
SWIDTH 500 0
DWIDTH 9 0
BBX 0 0 0 -4
BITMAP
ENDCHAR
STARTCHAR Uacute
ENCODING 242
SWIDTH 500 0
DWIDTH 9 0
BBX 0 0 0 -4
BITMAP
ENDCHAR
STARTCHAR Ucircumflex
ENCODING 243
SWIDTH 500 0
DWIDTH 9 0
BBX 0 0 0 -4
BITMAP
ENDCHAR
STARTCHAR Ugrave
ENCODING 244
SWIDTH 500 0
DWIDTH 9 0
BBX 0 0 0 -4
BITMAP
ENDCHAR
STARTCHAR dotlessi
ENCODING 245
SWIDTH 500 0
DWIDTH 9 0
BBX 0 0 0 -4
BITMAP
ENDCHAR
STARTCHAR circumflex
ENCODING 246
SWIDTH 500 0
DWIDTH 9 0
BBX 0 0 0 -4
BITMAP
ENDCHAR
STARTCHAR tilde
ENCODING 247
SWIDTH 500 0
DWIDTH 9 0
BBX 0 0 0 -4
BITMAP
ENDCHAR
STARTCHAR macron
ENCODING 248
SWIDTH 500 0
DWIDTH 9 0
BBX 0 0 0 -4
BITMAP
ENDCHAR
STARTCHAR breve
ENCODING 249
SWIDTH 500 0
DWIDTH 9 0
BBX 0 0 0 -4
BITMAP
ENDCHAR
STARTCHAR dotaccent
ENCODING 250
SWIDTH 500 0
DWIDTH 9 0
BBX 0 0 0 -4
BITMAP
ENDCHAR
STARTCHAR ring
ENCODING 251
SWIDTH 500 0
DWIDTH 9 0
BBX 0 0 0 -4
BITMAP
ENDCHAR
STARTCHAR cedilla
ENCODING 252
SWIDTH 500 0
DWIDTH 9 0
BBX 0 0 0 -4
BITMAP
ENDCHAR
STARTCHAR hungarumlaut
ENCODING 253
SWIDTH 500 0
DWIDTH 9 0
BBX 0 0 0 -4
BITMAP
ENDCHAR
STARTCHAR ogonek
ENCODING 254
SWIDTH 500 0
DWIDTH 9 0
BBX 0 0 0 -4
BITMAP
ENDCHAR
STARTCHAR caron
ENCODING 255
SWIDTH 1000 0
DWIDTH 18 0
BBX 14 2 2 4
BITMAP
C30C
C30C
ENDCHAR
ENDFONT
