STARTFONT 2.1
FONT -Fondu-AppleMyungjo-Medium-R-Normal--24-230-75-75-P-152-MacRoman-1
SIZE 23 75 75
FONTBOUNDINGBOX 24 29 0 -8
COMMENT Created by Fondu from a mac NFNT/FONT resource
STARTPROPERTIES 17
FOUNDRY "Fondu"
FAMILY_NAME "AppleMyungjo"
WEIGHT_NAME "Medium"
SLANT "R"
SETWIDTH_NAME "Normal"
ADD_STYLE_NAME ""
PIXEL_SIZE 24
POINT_SIZE 230
RESOLUTION_X 75
RESOLUTION_Y 75
SPACING "P"
AVERAGE_WIDTH 152
CHARSET_REGISTRY "MacRoman"
CHARSET_ENCODING "1"
FONT_ASCENT 21
FONT_DESCENT 8
FACE_NAME "AppleMyungjo"
ENDPROPERTIES
CHARS 229
STARTCHAR char0011
ENCODING 17
SWIDTH 992 0
DWIDTH 24 0
BBX 17 17 4 0
BITMAP
3E3E00
636300
C36180
C36180
C36180
C36180
636300
3FFE00
036000
3FFE00
636300
C36180
C36180
C36180
C36180
636300
3E3E00
ENDCHAR
STARTCHAR char0012
ENCODING 18
SWIDTH 594 0
DWIDTH 14 0
BBX 14 16 0 0
BITMAP
000C
0008
0018
0010
0030
0020
0060
0040
00C0
0080
0180
C100
6300
3200
1E00
0C00
ENDCHAR
STARTCHAR char0013
ENCODING 19
SWIDTH 815 0
DWIDTH 20 0
BBX 13 13 3 2
BITMAP
0200
0700
0F80
1FC0
3FE0
7FF0
FFF8
7FF0
3FE0
1FC0
0F80
0700
0200
ENDCHAR
STARTCHAR char0014
ENCODING 20
SWIDTH 855 0
DWIDTH 21 0
BBX 17 19 2 0
BITMAP
001800
003800
007000
006000
0C9800
3F7E00
7FFF00
7FFE00
FFFC00
FFFC00
FFFC00
FFFC00
FFFC00
FFFE00
7FFF80
7FFF00
3FFF00
1FFE00
0E3C00
ENDCHAR
STARTCHAR onehalf
ENCODING 21
SWIDTH 500 0
DWIDTH 12 0
BBX 9 18 1 0
BITMAP
3F80
7D80
FD80
FD80
FD80
FD80
FD80
7D80
3D80
0D80
0D80
0D80
0D80
0D80
0D80
0D80
0D80
0D80
ENDCHAR
STARTCHAR space
ENCODING 32
SWIDTH 400 0
DWIDTH 10 0
BBX 0 0 2 -8
BITMAP
ENDCHAR
STARTCHAR exclam
ENCODING 33
SWIDTH 500 0
DWIDTH 12 0
BBX 3 19 4 0
BITMAP
40
E0
E0
E0
E0
E0
E0
E0
E0
40
40
40
40
00
00
40
E0
E0
40
ENDCHAR
STARTCHAR quotedbl
ENCODING 34
SWIDTH 400 0
DWIDTH 10 0
BBX 7 6 1 13
BITMAP
44
EE
EE
66
44
88
ENDCHAR
STARTCHAR numbersign
ENCODING 35
SWIDTH 640 0
DWIDTH 15 0
BBX 13 15 1 2
BITMAP
0C60
0C60
0C60
0C60
7FF8
18C0
18C0
18C0
18C0
18C0
FFF0
3180
3180
3180
3180
ENDCHAR
STARTCHAR dollar
ENCODING 36
SWIDTH 640 0
DWIDTH 15 0
BBX 13 22 1 -2
BITMAP
0300
0300
0F88
3368
6338
6318
6318
7308
3F08
1F00
07C0
03E0
0370
8338
8318
C318
C318
E330
B360
8F80
0300
0300
ENDCHAR
STARTCHAR percent
ENCODING 37
SWIDTH 1000 0
DWIDTH 24 0
BBX 21 18 1 0
BITMAP
0F0030
318060
6180C0
618180
C18300
C30600
C30C00
C61800
783000
0060F0
00C318
018618
030618
060C18
0C0C30
180C30
300C60
600780
ENDCHAR
STARTCHAR ampersand
ENCODING 38
SWIDTH 1000 0
DWIDTH 24 0
BBX 18 18 3 0
BITMAP
03C000
0C6000
183000
183000
183000
186000
0CC000
070000
0E0780
330300
618300
C18300
C0C600
C06600
C06C00
603800
305C40
0F8780
ENDCHAR
STARTCHAR quotesingle
ENCODING 39
SWIDTH 400 0
DWIDTH 10 0
BBX 4 6 1 13
BITMAP
60
F0
F0
70
20
C0
ENDCHAR
STARTCHAR parenleft
ENCODING 40
SWIDTH 500 0
DWIDTH 12 0
BBX 6 22 5 -2
BITMAP
04
08
10
30
20
60
60
40
C0
C0
C0
C0
C0
C0
40
60
60
20
30
10
08
04
ENDCHAR
STARTCHAR parenright
ENCODING 41
SWIDTH 500 0
DWIDTH 12 0
BBX 6 22 1 -2
BITMAP
80
40
20
30
10
18
18
08
0C
0C
0C
0C
0C
0C
08
18
18
10
30
20
40
80
ENDCHAR
STARTCHAR asterisk
ENCODING 42
SWIDTH 500 0
DWIDTH 12 0
BBX 10 8 1 12
BITMAP
0C00
CCC0
6D80
1E00
1E00
6D80
CCC0
0C00
ENDCHAR
STARTCHAR plus
ENCODING 43
SWIDTH 1000 0
DWIDTH 24 0
BBX 14 14 5 2
BITMAP
0300
0300
0300
0300
0300
0300
FFFC
FFFC
0300
0300
0300
0300
0300
0300
ENDCHAR
STARTCHAR comma
ENCODING 44
SWIDTH 400 0
DWIDTH 10 0
BBX 4 6 1 -4
BITMAP
60
F0
F0
70
20
C0
ENDCHAR
STARTCHAR hyphen
ENCODING 45
SWIDTH 500 0
DWIDTH 12 0
BBX 10 2 1 8
BITMAP
FFC0
FFC0
ENDCHAR
STARTCHAR period
ENCODING 46
SWIDTH 400 0
DWIDTH 10 0
BBX 4 4 3 -1
BITMAP
60
F0
F0
60
ENDCHAR
STARTCHAR slash
ENCODING 47
SWIDTH 500 0
DWIDTH 12 0
BBX 12 22 0 -2
BITMAP
0030
0030
0060
0060
00C0
00C0
0180
0180
0300
0300
0600
0600
0C00
0C00
1800
1800
3000
3000
6000
6000
C000
C000
ENDCHAR
STARTCHAR zero
ENCODING 48
SWIDTH 640 0
DWIDTH 15 0
BBX 12 18 2 0
BITMAP
0F00
30C0
6060
6060
C030
C030
C030
C030
C030
C030
C030
C030
C030
C030
6060
6060
30C0
0F00
ENDCHAR
STARTCHAR one
ENCODING 49
SWIDTH 640 0
DWIDTH 15 0
BBX 8 18 4 0
BITMAP
08
18
78
18
18
18
18
18
18
18
18
18
18
18
18
18
3C
FF
ENDCHAR
STARTCHAR two
ENCODING 50
SWIDTH 640 0
DWIDTH 15 0
BBX 12 18 2 0
BITMAP
0F80
30E0
6070
E030
E030
E030
4060
0060
00C0
0180
0300
0600
0C00
1810
3010
6030
FFF0
FFF0
ENDCHAR
STARTCHAR three
ENCODING 51
SWIDTH 640 0
DWIDTH 15 0
BBX 12 18 1 0
BITMAP
0F00
30C0
7060
7060
2060
0060
00C0
0180
1F00
00C0
0060
0030
0030
4030
E030
E060
60C0
1F00
ENDCHAR
STARTCHAR four
ENCODING 52
SWIDTH 640 0
DWIDTH 15 0
BBX 13 18 1 0
BITMAP
0040
00C0
00C0
01C0
03C0
06C0
06C0
0CC0
18C0
10C0
30C0
60C0
C0C0
FFF8
00C0
00C0
00C0
03F0
ENDCHAR
STARTCHAR five
ENCODING 53
SWIDTH 640 0
DWIDTH 15 0
BBX 12 19 2 0
BITMAP
2010
3FE0
3FC0
2000
2000
2000
4000
4000
5F00
60C0
4060
0030
0030
4030
E030
E030
E060
60C0
1F00
ENDCHAR
STARTCHAR six
ENCODING 54
SWIDTH 640 0
DWIDTH 15 0
BBX 12 18 2 0
BITMAP
0F00
30C0
6060
6070
C070
C020
CF00
F0C0
E060
C020
C030
C030
C030
C030
4020
6060
30C0
0F00
ENDCHAR
STARTCHAR seven
ENCODING 55
SWIDTH 640 0
DWIDTH 15 0
BBX 11 18 2 0
BITMAP
7FE0
7FE0
4040
8040
8080
0080
0180
0100
0100
0300
0300
0600
0600
0600
0E00
0E00
0E00
0400
ENDCHAR
STARTCHAR eight
ENCODING 56
SWIDTH 640 0
DWIDTH 15 0
BBX 12 18 2 0
BITMAP
0F00
30C0
2040
6020
6020
6020
3040
1CC0
1F80
63C0
40E0
8070
8030
8030
8030
4060
60C0
1F00
ENDCHAR
STARTCHAR nine
ENCODING 57
SWIDTH 640 0
DWIDTH 15 0
BBX 12 18 2 0
BITMAP
0F00
30C0
6060
4020
C030
C030
C030
C030
4030
6070
30F0
0F30
4030
E030
E060
6060
30C0
0F00
ENDCHAR
STARTCHAR colon
ENCODING 58
SWIDTH 500 0
DWIDTH 12 0
BBX 4 14 4 2
BITMAP
60
F0
F0
60
00
00
00
00
00
00
60
F0
F0
60
ENDCHAR
STARTCHAR semicolon
ENCODING 59
SWIDTH 500 0
DWIDTH 12 0
BBX 4 16 4 0
BITMAP
60
F0
F0
60
00
00
00
00
00
00
60
F0
F0
70
20
C0
ENDCHAR
STARTCHAR less
ENCODING 60
SWIDTH 500 0
DWIDTH 12 0
BBX 9 22 2 -2
BITMAP
0180
0300
0300
0600
0C00
0C00
1800
3000
3000
6000
C000
C000
6000
3000
3000
1800
0C00
0C00
0600
0300
0300
0180
ENDCHAR
STARTCHAR equal
ENCODING 61
SWIDTH 1000 0
DWIDTH 24 0
BBX 14 8 5 5
BITMAP
FFFC
FFFC
0000
0000
0000
0000
FFFC
FFFC
ENDCHAR
STARTCHAR greater
ENCODING 62
SWIDTH 500 0
DWIDTH 12 0
BBX 9 22 1 -2
BITMAP
C000
6000
6000
3000
1800
1800
0C00
0600
0600
0300
0180
0180
0300
0600
0600
0C00
1800
1800
3000
6000
6000
C000
ENDCHAR
STARTCHAR question
ENCODING 63
SWIDTH 640 0
DWIDTH 15 0
BBX 10 19 3 -1
BITMAP
1E00
6180
E0C0
E0C0
40C0
00C0
0180
0300
0200
0400
0400
0800
0800
0800
0000
0800
1C00
1C00
0800
ENDCHAR
STARTCHAR at
ENCODING 64
SWIDTH 1000 0
DWIDTH 24 0
BBX 18 17 2 0
BITMAP
03F800
0E0600
180300
300180
60ED80
631CC0
C618C0
CC18C0
CC18C0
CC18C0
CC30C0
C63180
61DE00
600000
300180
1C0700
07F800
ENDCHAR
STARTCHAR A
ENCODING 65
SWIDTH 778 0
DWIDTH 19 0
BBX 16 19 1 0
BITMAP
0180
0180
0180
02C0
02C0
02C0
0460
0460
0460
0830
0830
0830
1FF8
1018
1018
200C
200C
600E
F01F
ENDCHAR
STARTCHAR B
ENCODING 66
SWIDTH 780 0
DWIDTH 19 0
BBX 15 18 2 0
BITMAP
FFC0
3030
3018
300C
300C
300C
300C
3018
3FE0
3018
300C
3006
3006
3006
3006
300C
3018
FFE0
ENDCHAR
STARTCHAR C
ENCODING 67
SWIDTH 783 0
DWIDTH 19 0
BBX 16 18 1 0
BITMAP
07E2
1C3A
300E
6006
6006
C002
C002
C000
C000
C000
C000
C000
C001
6001
6002
3006
1C18
07E0
ENDCHAR
STARTCHAR D
ENCODING 68
SWIDTH 836 0
DWIDTH 20 0
BBX 16 18 2 0
BITMAP
FFE0
3018
300C
3006
3006
3003
3003
3003
3003
3003
3003
3003
3003
3006
3006
300C
3018
FFE0
ENDCHAR
STARTCHAR E
ENCODING 69
SWIDTH 781 0
DWIDTH 19 0
BBX 15 18 2 0
BITMAP
FFF8
3018
300C
3004
3004
3040
3040
30C0
3FC0
30C0
3040
3040
3000
3000
3002
3006
301C
FFFC
ENDCHAR
STARTCHAR F
ENCODING 70
SWIDTH 751 0
DWIDTH 18 0
BBX 14 18 2 0
BITMAP
FFF8
3018
300C
3004
3004
3020
3020
3060
3FE0
3060
3020
3020
3000
3000
3000
3000
3000
FC00
ENDCHAR
STARTCHAR G
ENCODING 71
SWIDTH 836 0
DWIDTH 20 0
BBX 17 18 2 0
BITMAP
07C200
183200
300E00
600600
600200
C00200
C00000
C00000
C00000
C00000
C01F80
C00600
C00600
600600
600600
300E00
181E00
07E600
ENDCHAR
STARTCHAR H
ENCODING 72
SWIDTH 894 0
DWIDTH 21 0
BBX 18 18 2 0
BITMAP
FC0FC0
300300
300300
300300
300300
300300
300300
300300
3FFF00
300300
300300
300300
300300
300300
300300
300300
300300
FC0FC0
ENDCHAR
STARTCHAR I
ENCODING 73
SWIDTH 434 0
DWIDTH 10 0
BBX 6 18 2 0
BITMAP
FC
30
30
30
30
30
30
30
30
30
30
30
30
30
30
30
30
FC
ENDCHAR
STARTCHAR J
ENCODING 74
SWIDTH 611 0
DWIDTH 15 0
BBX 11 18 2 0
BITMAP
07E0
0180
0180
0180
0180
0180
0180
0180
0180
0180
0180
0180
4180
E180
E180
E180
6300
1C00
ENDCHAR
STARTCHAR K
ENCODING 75
SWIDTH 818 0
DWIDTH 20 0
BBX 17 18 2 0
BITMAP
FC3F00
300C00
300800
301000
302000
304000
308000
318000
33C000
34C000
386000
307000
303000
301800
301C00
300C00
300E00
FC1F80
ENDCHAR
STARTCHAR L
ENCODING 76
SWIDTH 729 0
DWIDTH 17 0
BBX 14 18 2 0
BITMAP
FC00
3000
3000
3000
3000
3000
3000
3000
3000
3000
3000
3000
3004
3004
300C
300C
3038
FFF8
ENDCHAR
STARTCHAR M
ENCODING 77
SWIDTH 1008 0
DWIDTH 24 0
BBX 20 18 2 0
BITMAP
F800F0
3800C0
3800C0
2C01C0
2C01C0
2602C0
2602C0
2602C0
2304C0
2304C0
2188C0
2188C0
2188C0
20D0C0
20D0C0
2060C0
2060C0
F863F0
ENDCHAR
STARTCHAR N
ENCODING 78
SWIDTH 876 0
DWIDTH 21 0
BBX 16 18 2 0
BITMAP
E01F
3004
3004
3804
2C04
2C04
2604
2304
2304
2184
20C4
20C4
2064
2034
2034
201C
200C
F80C
ENDCHAR
STARTCHAR O
ENCODING 79
SWIDTH 840 0
DWIDTH 20 0
BBX 16 18 2 0
BITMAP
07E0
1C38
300C
6006
6006
C003
C003
C003
C003
C003
C003
C003
C003
6006
6006
300C
1C38
07E0
ENDCHAR
STARTCHAR P
ENCODING 80
SWIDTH 731 0
DWIDTH 18 0
BBX 14 18 2 0
BITMAP
FFC0
3030
3018
300C
300C
300C
300C
300C
3018
3030
3FC0
3000
3000
3000
3000
3000
3000
FC00
ENDCHAR
STARTCHAR Q
ENCODING 81
SWIDTH 842 0
DWIDTH 20 0
BBX 17 22 2 -4
BITMAP
07E000
1C3800
300C00
600600
600600
C00300
C00300
C00300
C00300
C00300
C00300
C38300
C46300
683600
683600
381C00
1C1800
07F800
001880
001880
000F80
000700
ENDCHAR
STARTCHAR R
ENCODING 82
SWIDTH 788 0
DWIDTH 19 0
BBX 16 18 2 0
BITMAP
FFC0
3030
3018
300C
300C
300C
300C
3018
3030
3FE0
3030
3018
3018
3018
3018
3019
301D
FC0E
ENDCHAR
STARTCHAR S
ENCODING 83
SWIDTH 691 0
DWIDTH 17 0
BBX 13 18 2 0
BITMAP
0F88
3068
6038
6018
6018
7008
3C08
1F00
07C0
01E0
0070
8038
8018
C018
C018
E030
B060
8F80
ENDCHAR
STARTCHAR T
ENCODING 84
SWIDTH 726 0
DWIDTH 17 0
BBX 14 18 2 0
BITMAP
FFFC
E31C
C30C
8304
8304
0300
0300
0300
0300
0300
0300
0300
0300
0300
0300
0300
0300
0FC0
ENDCHAR
STARTCHAR U
ENCODING 85
SWIDTH 874 0
DWIDTH 21 0
BBX 17 18 2 0
BITMAP
FC0F80
300200
300200
300200
300200
300200
300200
300200
300200
300200
300200
300200
300200
300200
300200
180400
0C1800
03E000
ENDCHAR
STARTCHAR V
ENCODING 86
SWIDTH 779 0
DWIDTH 19 0
BBX 16 18 2 0
BITMAP
F80F
7006
3004
3004
1808
1808
1808
0C10
0C10
0C10
0620
0620
0620
0340
0340
0340
0180
0180
ENDCHAR
STARTCHAR W
ENCODING 87
SWIDTH 1034 0
DWIDTH 25 0
BBX 21 18 2 0
BITMAP
F9F078
70E030
306020
306020
183040
183040
183040
183040
0C5880
0C5880
0C5880
068D00
068D00
068D00
068D00
030600
030600
030600
ENDCHAR
STARTCHAR X
ENCODING 88
SWIDTH 764 0
DWIDTH 18 0
BBX 18 18 0 0
BITMAP
FE1F80
380600
180400
0C0800
060800
061000
032000
01A000
00C000
00C000
016000
013000
021800
041800
040C00
080600
180700
7E1FC0
ENDCHAR
STARTCHAR Y
ENCODING 89
SWIDTH 763 0
DWIDTH 18 0
BBX 16 18 1 0
BITMAP
F80F
7006
3004
1808
1808
0C10
0C10
0620
0620
0340
0340
0180
0180
0180
0180
0180
0180
07E0
ENDCHAR
STARTCHAR Z
ENCODING 90
SWIDTH 670 0
DWIDTH 16 0
BBX 13 18 2 0
BITMAP
7FF0
6030
C060
C060
80C0
8180
0180
0300
0600
0600
0C00
1800
1808
3008
6018
6018
C030
FFF0
ENDCHAR
STARTCHAR bracketleft
ENCODING 91
SWIDTH 500 0
DWIDTH 12 0
BBX 6 22 6 -2
BITMAP
0C
30
C0
C0
C0
C0
C0
C0
C0
C0
C0
C0
C0
C0
C0
C0
C0
C0
C0
C0
30
0C
ENDCHAR
STARTCHAR backslash
ENCODING 92
SWIDTH 500 0
DWIDTH 12 0
BBX 12 22 0 -2
BITMAP
C000
C000
6000
6000
3000
3000
1800
1800
0C00
0C00
0600
0600
0300
0300
0180
0180
00C0
00C0
0060
0060
0030
0030
ENDCHAR
STARTCHAR bracketright
ENCODING 93
SWIDTH 500 0
DWIDTH 12 0
BBX 6 22 0 -2
BITMAP
C0
30
0C
0C
0C
0C
0C
0C
0C
0C
0C
0C
0C
0C
0C
0C
0C
0C
0C
0C
30
C0
ENDCHAR
STARTCHAR asciicircum
ENCODING 94
SWIDTH 500 0
DWIDTH 12 0
BBX 12 6 0 14
BITMAP
0600
0F00
1F80
30C0
6060
8010
ENDCHAR
STARTCHAR underscore
ENCODING 95
SWIDTH 500 0
DWIDTH 12 0
BBX 12 1 0 -5
BITMAP
FFF0
ENDCHAR
STARTCHAR grave
ENCODING 96
SWIDTH 250 0
DWIDTH 6 0
BBX 4 6 1 14
BITMAP
30
40
E0
F0
F0
60
ENDCHAR
STARTCHAR a
ENCODING 97
SWIDTH 618 0
DWIDTH 15 0
BBX 12 12 2 0
BITMAP
1E00
6180
E0C0
E0C0
40C0
1EC0
61C0
C0C0
C0C0
C0C0
60D0
1F60
ENDCHAR
STARTCHAR b
ENCODING 98
SWIDTH 619 0
DWIDTH 15 0
BBX 13 18 1 0
BITMAP
3000
F000
3000
3000
3000
3000
3780
3860
3030
3030
3018
3018
3018
3018
3030
3030
3860
2780
ENDCHAR
STARTCHAR c
ENCODING 99
SWIDTH 508 0
DWIDTH 12 0
BBX 11 12 1 0
BITMAP
0F00
30C0
60E0
60E0
C040
C000
C000
C000
6000
6040
30C0
0F00
ENDCHAR
STARTCHAR d
ENCODING 100
SWIDTH 639 0
DWIDTH 15 0
BBX 13 18 1 0
BITMAP
01E0
0060
0060
0060
0060
0060
0F60
30E0
6060
6060
C060
C060
C060
C060
6060
6060
30E0
0F78
ENDCHAR
STARTCHAR e
ENCODING 101
SWIDTH 561 0
DWIDTH 13 0
BBX 11 12 1 0
BITMAP
0E00
3180
60C0
6060
C060
FFE0
C000
C000
6000
6020
3060
0F80
ENDCHAR
STARTCHAR f
ENCODING 102
SWIDTH 374 0
DWIDTH 9 0
BBX 9 18 0 0
BITMAP
0700
1980
3380
3380
3100
3000
FC00
3000
3000
3000
3000
3000
3000
3000
3000
3000
3000
FC00
ENDCHAR
STARTCHAR g
ENCODING 103
SWIDTH 581 0
DWIDTH 14 0
BBX 13 17 1 -5
BITMAP
0F70
3198
60D0
60C0
60C0
60C0
3180
3E00
6000
6000
3F00
60C0
C060
C060
C060
60C0
1F00
ENDCHAR
STARTCHAR h
ENCODING 104
SWIDTH 672 0
DWIDTH 16 0
BBX 14 18 1 0
BITMAP
3000
F000
3000
3000
3000
3000
3780
3860
3030
3030
3030
3030
3030
3030
3030
3030
3030
FCFC
ENDCHAR
STARTCHAR i
ENCODING 105
SWIDTH 354 0
DWIDTH 8 0
BBX 6 18 1 0
BITMAP
30
78
30
00
00
00
30
F0
30
30
30
30
30
30
30
30
30
FC
ENDCHAR
STARTCHAR j
ENCODING 106
SWIDTH 337 0
DWIDTH 8 0
BBX 8 22 0 -4
BITMAP
06
0F
06
00
00
00
06
1E
06
06
06
06
06
06
06
06
06
46
E6
E6
64
38
ENDCHAR
STARTCHAR k
ENCODING 107
SWIDTH 659 0
DWIDTH 16 0
BBX 14 18 1 0
BITMAP
3000
F000
3000
3000
3000
3000
33F0
30C0
3080
3100
3200
3600
3B00
3180
30C0
3060
3070
FCFC
ENDCHAR
STARTCHAR l
ENCODING 108
SWIDTH 356 0
DWIDTH 9 0
BBX 6 18 1 0
BITMAP
F0
30
30
30
30
30
30
30
30
30
30
30
30
30
30
30
30
FC
ENDCHAR
STARTCHAR m
ENCODING 109
SWIDTH 947 0
DWIDTH 23 0
BBX 20 12 1 0
BITMAP
E71E00
38E180
3060C0
3060C0
3060C0
3060C0
3060C0
3060C0
3060C0
3060C0
3060C0
FCFBF0
ENDCHAR
STARTCHAR n
ENCODING 110
SWIDTH 673 0
DWIDTH 16 0
BBX 14 12 1 0
BITMAP
E780
3860
3030
3030
3030
3030
3030
3030
3030
3030
3030
FCFC
ENDCHAR
STARTCHAR o
ENCODING 111
SWIDTH 563 0
DWIDTH 14 0
BBX 10 12 2 0
BITMAP
1E00
6180
4080
C0C0
C0C0
C0C0
C0C0
C0C0
C0C0
4080
6180
1E00
ENDCHAR
STARTCHAR p
ENCODING 112
SWIDTH 640 0
DWIDTH 15 0
BBX 13 16 1 -4
BITMAP
F780
3860
3030
3018
3018
3018
3018
3018
3018
3030
3860
3780
3000
3000
3000
FC00
ENDCHAR
STARTCHAR q
ENCODING 113
SWIDTH 612 0
DWIDTH 15 0
BBX 13 16 1 -4
BITMAP
0F30
30E0
6060
C060
C060
C060
C060
C060
C060
6060
30E0
0F60
0060
0060
0060
01F8
ENDCHAR
STARTCHAR r
ENCODING 114
SWIDTH 483 0
DWIDTH 12 0
BBX 11 12 1 0
BITMAP
E3C0
3CE0
38E0
3040
3000
3000
3000
3000
3000
3000
3000
FC00
ENDCHAR
STARTCHAR s
ENCODING 115
SWIDTH 528 0
DWIDTH 13 0
BBX 9 12 2 0
BITMAP
1C80
6380
C180
C080
7000
3C00
0F00
8380
8180
C180
E300
BC00
ENDCHAR
STARTCHAR t
ENCODING 116
SWIDTH 456 0
DWIDTH 11 0
BBX 8 18 1 0
BITMAP
10
10
10
30
30
30
FE
30
30
30
30
30
30
30
32
33
33
1E
ENDCHAR
STARTCHAR u
ENCODING 117
SWIDTH 673 0
DWIDTH 16 0
BBX 14 12 1 0
BITMAP
F0F0
3030
3030
3030
3030
3030
3030
3030
3030
3030
1870
07BC
ENDCHAR
STARTCHAR v
ENCODING 118
SWIDTH 603 0
DWIDTH 14 0
BBX 14 12 0 0
BITMAP
FC7C
7018
3010
3010
1820
1820
0C40
0C40
0680
0680
0300
0300
ENDCHAR
STARTCHAR w
ENCODING 119
SWIDTH 835 0
DWIDTH 20 0
BBX 19 12 0 0
BITMAP
F9F3E0
306080
306080
18B100
18B100
18B100
0D1A00
0D1A00
0D1A00
060C00
060C00
060C00
ENDCHAR
STARTCHAR x
ENCODING 120
SWIDTH 600 0
DWIDTH 14 0
BBX 12 12 1 0
BITMAP
F8F0
7060
3040
1880
0D00
0600
0600
0B00
1180
20C0
60E0
F1F0
ENDCHAR
STARTCHAR y
ENCODING 121
SWIDTH 600 0
DWIDTH 14 0
BBX 13 16 1 -4
BITMAP
F878
7030
3020
3020
1820
1840
0C40
0C40
0680
0680
0300
4300
E200
E600
CC00
7000
ENDCHAR
STARTCHAR z
ENCODING 122
SWIDTH 548 0
DWIDTH 13 0
BBX 11 12 1 0
BITMAP
7FE0
6060
C0C0
8180
0300
0600
0C00
1800
3020
6060
C0C0
FFC0
ENDCHAR
STARTCHAR braceleft
ENCODING 123
SWIDTH 500 0
DWIDTH 12 0
BBX 7 21 4 -2
BITMAP
06
08
18
18
18
18
18
18
10
30
E0
30
10
18
18
18
18
18
18
08
06
ENDCHAR
STARTCHAR bar
ENCODING 124
SWIDTH 500 0
DWIDTH 12 0
BBX 2 24 5 -5
BITMAP
C0
C0
C0
C0
C0
C0
C0
C0
C0
C0
C0
C0
C0
C0
C0
C0
C0
C0
C0
C0
C0
C0
C0
C0
ENDCHAR
STARTCHAR braceright
ENCODING 125
SWIDTH 500 0
DWIDTH 12 0
BBX 6 21 1 -2
BITMAP
C0
20
30
30
30
30
30
30
10
18
0C
18
10
30
30
30
30
30
30
20
C0
ENDCHAR
STARTCHAR asciitilde
ENCODING 126
SWIDTH 1000 0
DWIDTH 24 0
BBX 20 4 2 7
BITMAP
0F8010
3FE060
607FC0
801F00
ENDCHAR
STARTCHAR char007f
ENCODING 127
SWIDTH 400 0
DWIDTH 10 0
BBX 0 0 2 -8
BITMAP
ENDCHAR
STARTCHAR Adieresis
ENCODING 128
SWIDTH 400 0
DWIDTH 10 0
BBX 0 0 2 -8
BITMAP
ENDCHAR
STARTCHAR Aring
ENCODING 129
SWIDTH 1000 0
DWIDTH 24 0
BBX 21 18 2 0
BITMAP
FDF8F8
306020
306020
306020
183040
183040
183040
FFFFF8
0C5880
0C5880
0C5880
068D00
068D00
068D00
068D00
030600
030600
030600
ENDCHAR
STARTCHAR Ccedilla
ENCODING 130
SWIDTH 542 0
DWIDTH 13 0
BBX 13 1 0 6
BITMAP
FFF8
ENDCHAR
STARTCHAR Eacute
ENCODING 131
SWIDTH 1000 0
DWIDTH 24 0
BBX 17 17 3 0
BITMAP
03E000
0C1800
300600
600300
61D300
C63180
C41180
CC0180
CC0180
CC0180
C41180
C63180
61C300
600300
300600
0C1800
03E000
ENDCHAR
STARTCHAR Ntilde
ENCODING 132
SWIDTH 1000 0
DWIDTH 24 0
BBX 24 1 0 -5
BITMAP
FFFFFF
ENDCHAR
STARTCHAR Odieresis
ENCODING 133
SWIDTH 1000 0
DWIDTH 24 0
BBX 24 24 0 -5
BITMAP
FFFFFF
FFFFFF
FFFFFF
FFFFFF
FFFFFF
FFFFFF
FFFFFF
FFFFFF
FFFFFF
FFFFFF
FFFFFF
FFFFFF
FFFFFF
FFFFFF
FFFFFF
FFFFFF
FFFFFF
FFFFFF
FFFFFF
FFFFFF
FFFFFF
FFFFFF
FFFFFF
FFFFFF
ENDCHAR
STARTCHAR Udieresis
ENCODING 134
SWIDTH 1000 0
DWIDTH 24 0
BBX 24 24 0 -5
BITMAP
FFFFFF
FFFFFF
FFFFFF
FFFFFF
FFFFFF
FFFFFF
FFFFFF
FFFFFF
FFFFFF
FFFFFF
FFFFFF
FFFFFF
FFFFFF
FFFFFF
FFFFFF
FFFFFF
FFFFFF
FFFFFF
FFFFFF
FFFFFF
FFFFFF
FFFFFF
FFFFFF
FFFFFF
ENDCHAR
STARTCHAR aacute
ENCODING 135
SWIDTH 1000 0
DWIDTH 24 0
BBX 24 24 0 -5
BITMAP
FFFFFF
FFFFFF
FFFFFF
FFFFFF
FFFFFF
FFFFFF
FFFFFF
FFFFFF
FFFFFF
FFFFFF
FFFFFF
FFFFFF
FFFFFF
FFFFFF
FFFFFF
FFFFFF
FFFFFF
FFFFFF
FFFFFF
FFFFFF
FFFFFF
FFFFFF
FFFFFF
FFFFFF
ENDCHAR
STARTCHAR agrave
ENCODING 136
SWIDTH 1000 0
DWIDTH 24 0
BBX 24 24 0 -5
BITMAP
FFFFFF
FFFFFF
FFFFFF
FFFFFF
FFFFFF
FFFFFF
FFFFFF
FFFFFF
FFFFFF
FFFFFF
FFFFFF
FFFFFF
FFFFFF
FFFFFF
FFFFFF
FFFFFF
FFFFFF
FFFFFF
FFFFFF
FFFFFF
FFFFFF
FFFFFF
FFFFFF
FFFFFF
ENDCHAR
STARTCHAR acircumflex
ENCODING 137
SWIDTH 1000 0
DWIDTH 24 0
BBX 24 24 0 -5
BITMAP
FFFFFF
FFFFFF
FFFFFF
FFFFFF
FFFFFF
FFFFFF
FFFFFF
FFFFFF
FFFFFF
FFFFFF
FFFFFF
FFFFFF
FFFFFF
FFFFFF
FFFFFF
FFFFFF
FFFFFF
FFFFFF
FFFFFF
FFFFFF
FFFFFF
FFFFFF
FFFFFF
FFFFFF
ENDCHAR
STARTCHAR adieresis
ENCODING 138
SWIDTH 1000 0
DWIDTH 24 0
BBX 24 24 0 -5
BITMAP
FFFFFF
FFFFFF
FFFFFF
FFFFFF
FFFFFF
FFFFFF
FFFFFF
FFFFFF
FFFFFF
FFFFFF
FFFFFF
FFFFFF
FFFFFF
FFFFFF
FFFFFF
FFFFFF
FFFFFF
FFFFFF
FFFFFF
FFFFFF
FFFFFF
FFFFFF
FFFFFF
FFFFFF
ENDCHAR
STARTCHAR atilde
ENCODING 139
SWIDTH 1000 0
DWIDTH 24 0
BBX 24 24 0 -5
BITMAP
FFFFFF
FFFFFF
FFFFFF
FFFFFF
FFFFFF
FFFFFF
FFFFFF
FFFFFF
FFFFFF
FFFFFF
FFFFFF
FFFFFF
FFFFFF
FFFFFF
FFFFFF
FFFFFF
FFFFFF
FFFFFF
FFFFFF
FFFFFF
FFFFFF
FFFFFF
FFFFFF
FFFFFF
ENDCHAR
STARTCHAR aring
ENCODING 140
SWIDTH 1000 0
DWIDTH 24 0
BBX 24 24 0 -5
BITMAP
FFFFFF
FFFFFF
FFFFFF
FFFFFF
FFFFFF
FFFFFF
FFFFFF
FFFFFF
FFFFFF
FFFFFF
FFFFFF
FFFFFF
FFFFFF
FFFFFF
FFFFFF
FFFFFF
FFFFFF
FFFFFF
FFFFFF
FFFFFF
FFFFFF
FFFFFF
FFFFFF
FFFFFF
ENDCHAR
STARTCHAR ccedilla
ENCODING 141
SWIDTH 1000 0
DWIDTH 24 0
BBX 24 24 0 -5
BITMAP
FFFFFF
FFFFFF
FFFFFF
FFFFFF
FFFFFF
FFFFFF
FFFFFF
FFFFFF
FFFFFF
FFFFFF
FFFFFF
FFFFFF
FFFFFF
FFFFFF
FFFFFF
FFFFFF
FFFFFF
FFFFFF
FFFFFF
FFFFFF
FFFFFF
FFFFFF
FFFFFF
FFFFFF
ENDCHAR
STARTCHAR eacute
ENCODING 142
SWIDTH 1000 0
DWIDTH 24 0
BBX 24 24 0 -5
BITMAP
FFFFFF
FFFFFF
FFFFFF
FFFFFF
FFFFFF
FFFFFF
FFFFFF
FFFFFF
FFFFFF
FFFFFF
FFFFFF
FFFFFF
FFFFFF
FFFFFF
FFFFFF
FFFFFF
FFFFFF
FFFFFF
FFFFFF
FFFFFF
FFFFFF
FFFFFF
FFFFFF
FFFFFF
ENDCHAR
STARTCHAR egrave
ENCODING 143
SWIDTH 1000 0
DWIDTH 24 0
BBX 24 24 0 -5
BITMAP
FFFFFF
FFFFFF
FFFFFF
FFFFFF
FFFFFF
FFFFFF
FFFFFF
FFFFFF
FFFFFF
FFFFFF
FFFFFF
FFFFFF
FFFFFF
FFFFFF
FFFFFF
FFFFFF
FFFFFF
FFFFFF
FFFFFF
FFFFFF
FFFFFF
FFFFFF
FFFFFF
FFFFFF
ENDCHAR
STARTCHAR ecircumflex
ENCODING 144
SWIDTH 1000 0
DWIDTH 24 0
BBX 24 24 0 -5
BITMAP
FFFFFF
FFFFFF
FFFFFF
FFFFFF
FFFFFF
FFFFFF
FFFFFF
FFFFFF
FFFFFF
FFFFFF
FFFFFF
FFFFFF
FFFFFF
FFFFFF
FFFFFF
FFFFFF
FFFFFF
FFFFFF
FFFFFF
FFFFFF
FFFFFF
FFFFFF
FFFFFF
FFFFFF
ENDCHAR
STARTCHAR edieresis
ENCODING 145
SWIDTH 1000 0
DWIDTH 24 0
BBX 24 24 0 -5
BITMAP
FFFFFF
FFFFFF
FFFFFF
FFFFFF
FFFFFF
FFFFFF
FFFFFF
FFFFFF
FFFFFF
FFFFFF
FFFFFF
FFFFFF
FFFFFF
FFFFFF
FFFFFF
FFFFFF
FFFFFF
FFFFFF
FFFFFF
FFFFFF
FFFFFF
FFFFFF
FFFFFF
FFFFFF
ENDCHAR
STARTCHAR iacute
ENCODING 146
SWIDTH 1000 0
DWIDTH 24 0
BBX 24 24 0 -5
BITMAP
FFFFFF
FFFFFF
FFFFFF
FFFFFF
FFFFFF
FFFFFF
FFFFFF
FFFFFF
FFFFFF
FFFFFF
FFFFFF
FFFFFF
FFFFFF
FFFFFF
FFFFFF
FFFFFF
FFFFFF
FFFFFF
FFFFFF
FFFFFF
FFFFFF
FFFFFF
FFFFFF
FFFFFF
ENDCHAR
STARTCHAR igrave
ENCODING 147
SWIDTH 1000 0
DWIDTH 24 0
BBX 24 24 0 -5
BITMAP
FFFFFF
FFFFFF
FFFFFF
FFFFFF
FFFFFF
FFFFFF
FFFFFF
FFFFFF
FFFFFF
FFFFFF
FFFFFF
FFFFFF
FFFFFF
FFFFFF
FFFFFF
FFFFFF
FFFFFF
FFFFFF
FFFFFF
FFFFFF
FFFFFF
FFFFFF
FFFFFF
FFFFFF
ENDCHAR
STARTCHAR icircumflex
ENCODING 148
SWIDTH 1000 0
DWIDTH 24 0
BBX 24 24 0 -5
BITMAP
FFFFFF
FFFFFF
FFFFFF
FFFFFF
FFFFFF
FFFFFF
FFFFFF
FFFFFF
FFFFFF
FFFFFF
FFFFFF
FFFFFF
FFFFFF
FFFFFF
FFFFFF
FFFFFF
FFFFFF
FFFFFF
FFFFFF
FFFFFF
FFFFFF
FFFFFF
FFFFFF
FFFFFF
ENDCHAR
STARTCHAR idieresis
ENCODING 149
SWIDTH 1000 0
DWIDTH 24 0
BBX 24 24 0 -5
BITMAP
FFFFFF
FFFFFF
FFFFFF
FFFFFF
FFFFFF
FFFFFF
FFFFFF
FFFFFF
FFFFFF
FFFFFF
FFFFFF
FFFFFF
FFFFFF
FFFFFF
FFFFFF
FFFFFF
FFFFFF
FFFFFF
FFFFFF
FFFFFF
FFFFFF
FFFFFF
FFFFFF
FFFFFF
ENDCHAR
STARTCHAR ntilde
ENCODING 150
SWIDTH 1000 0
DWIDTH 24 0
BBX 24 24 0 -5
BITMAP
FFFFFF
FFFFFF
FFFFFF
FFFFFF
FFFFFF
FFFFFF
FFFFFF
FFFFFF
FFFFFF
FFFFFF
FFFFFF
FFFFFF
FFFFFF
FFFFFF
FFFFFF
FFFFFF
FFFFFF
FFFFFF
FFFFFF
FFFFFF
FFFFFF
FFFFFF
FFFFFF
FFFFFF
ENDCHAR
STARTCHAR oacute
ENCODING 151
SWIDTH 1000 0
DWIDTH 24 0
BBX 24 24 0 -5
BITMAP
FFFFFF
FFFFFF
FFFFFF
FFFFFF
FFFFFF
FFFFFF
FFFFFF
FFFFFF
FFFFFF
FFFFFF
FFFFFF
FFFFFF
FFFFFF
FFFFFF
FFFFFF
FFFFFF
FFFFFF
FFFFFF
FFFFFF
FFFFFF
FFFFFF
FFFFFF
FFFFFF
FFFFFF
ENDCHAR
STARTCHAR ograve
ENCODING 152
SWIDTH 1000 0
DWIDTH 24 0
BBX 24 24 0 -5
BITMAP
FFFFFF
FFFFFF
FFFFFF
FFFFFF
FFFFFF
FFFFFF
FFFFFF
FFFFFF
FFFFFF
FFFFFF
FFFFFF
FFFFFF
FFFFFF
FFFFFF
FFFFFF
FFFFFF
FFFFFF
FFFFFF
FFFFFF
FFFFFF
FFFFFF
FFFFFF
FFFFFF
FFFFFF
ENDCHAR
STARTCHAR ocircumflex
ENCODING 153
SWIDTH 1000 0
DWIDTH 24 0
BBX 24 24 0 -5
BITMAP
FFFFFF
FFFFFF
FFFFFF
FFFFFF
FFFFFF
FFFFFF
FFFFFF
FFFFFF
FFFFFF
FFFFFF
FFFFFF
FFFFFF
FFFFFF
FFFFFF
FFFFFF
FFFFFF
FFFFFF
FFFFFF
FFFFFF
FFFFFF
FFFFFF
FFFFFF
FFFFFF
FFFFFF
ENDCHAR
STARTCHAR odieresis
ENCODING 154
SWIDTH 1000 0
DWIDTH 24 0
BBX 24 24 0 -5
BITMAP
FFFFFF
FFFFFF
FFFFFF
FFFFFF
FFFFFF
FFFFFF
FFFFFF
FFFFFF
FFFFFF
FFFFFF
FFFFFF
FFFFFF
FFFFFF
FFFFFF
FFFFFF
FFFFFF
FFFFFF
FFFFFF
FFFFFF
FFFFFF
FFFFFF
FFFFFF
FFFFFF
FFFFFF
ENDCHAR
STARTCHAR otilde
ENCODING 155
SWIDTH 1000 0
DWIDTH 24 0
BBX 24 24 0 -5
BITMAP
FFFFFF
FFFFFF
FFFFFF
FFFFFF
FFFFFF
FFFFFF
FFFFFF
FFFFFF
FFFFFF
FFFFFF
FFFFFF
FFFFFF
FFFFFF
FFFFFF
FFFFFF
FFFFFF
FFFFFF
FFFFFF
FFFFFF
FFFFFF
FFFFFF
FFFFFF
FFFFFF
FFFFFF
ENDCHAR
STARTCHAR uacute
ENCODING 156
SWIDTH 1000 0
DWIDTH 24 0
BBX 24 24 0 -5
BITMAP
FFFFFF
FFFFFF
FFFFFF
FFFFFF
FFFFFF
FFFFFF
FFFFFF
FFFFFF
FFFFFF
FFFFFF
FFFFFF
FFFFFF
FFFFFF
FFFFFF
FFFFFF
FFFFFF
FFFFFF
FFFFFF
FFFFFF
FFFFFF
FFFFFF
FFFFFF
FFFFFF
FFFFFF
ENDCHAR
STARTCHAR ugrave
ENCODING 157
SWIDTH 1000 0
DWIDTH 24 0
BBX 24 24 0 -5
BITMAP
FFFFFF
FFFFFF
FFFFFF
FFFFFF
FFFFFF
FFFFFF
FFFFFF
FFFFFF
FFFFFF
FFFFFF
FFFFFF
FFFFFF
FFFFFF
FFFFFF
FFFFFF
FFFFFF
FFFFFF
FFFFFF
FFFFFF
FFFFFF
FFFFFF
FFFFFF
FFFFFF
FFFFFF
ENDCHAR
STARTCHAR ucircumflex
ENCODING 158
SWIDTH 1000 0
DWIDTH 24 0
BBX 24 24 0 -5
BITMAP
FFFFFF
FFFFFF
FFFFFF
FFFFFF
FFFFFF
FFFFFF
FFFFFF
FFFFFF
FFFFFF
FFFFFF
FFFFFF
FFFFFF
FFFFFF
FFFFFF
FFFFFF
FFFFFF
FFFFFF
FFFFFF
FFFFFF
FFFFFF
FFFFFF
FFFFFF
FFFFFF
FFFFFF
ENDCHAR
STARTCHAR udieresis
ENCODING 159
SWIDTH 1000 0
DWIDTH 24 0
BBX 24 24 0 -5
BITMAP
FFFFFF
FFFFFF
FFFFFF
FFFFFF
FFFFFF
FFFFFF
FFFFFF
FFFFFF
FFFFFF
FFFFFF
FFFFFF
FFFFFF
FFFFFF
FFFFFF
FFFFFF
FFFFFF
FFFFFF
FFFFFF
FFFFFF
FFFFFF
FFFFFF
FFFFFF
FFFFFF
FFFFFF
ENDCHAR
STARTCHAR dagger
ENCODING 160
SWIDTH 1000 0
DWIDTH 24 0
BBX 24 24 0 -5
BITMAP
FFFFFF
FFFFFF
FFFFFF
FFFFFF
FFFFFF
FFFFFF
FFFFFF
FFFFFF
FFFFFF
FFFFFF
FFFFFF
FFFFFF
FFFFFF
FFFFFF
FFFFFF
FFFFFF
FFFFFF
FFFFFF
FFFFFF
FFFFFF
FFFFFF
FFFFFF
FFFFFF
FFFFFF
ENDCHAR
STARTCHAR degree
ENCODING 161
SWIDTH 500 0
DWIDTH 12 0
BBX 0 0 0 -8
BITMAP
ENDCHAR
STARTCHAR cent
ENCODING 162
SWIDTH 500 0
DWIDTH 12 0
BBX 0 0 0 -8
BITMAP
ENDCHAR
STARTCHAR sterling
ENCODING 163
SWIDTH 500 0
DWIDTH 12 0
BBX 0 0 0 -8
BITMAP
ENDCHAR
STARTCHAR section
ENCODING 164
SWIDTH 500 0
DWIDTH 12 0
BBX 0 0 0 -8
BITMAP
ENDCHAR
STARTCHAR bullet
ENCODING 165
SWIDTH 500 0
DWIDTH 12 0
BBX 0 0 7 -8
BITMAP
ENDCHAR
STARTCHAR paragraph
ENCODING 166
SWIDTH 500 0
DWIDTH 12 0
BBX 0 0 7 -8
BITMAP
ENDCHAR
STARTCHAR germandbls
ENCODING 167
SWIDTH 500 0
DWIDTH 12 0
BBX 0 0 7 -8
BITMAP
ENDCHAR
STARTCHAR registered
ENCODING 168
SWIDTH 500 0
DWIDTH 12 0
BBX 0 0 7 -8
BITMAP
ENDCHAR
STARTCHAR copyright
ENCODING 169
SWIDTH 500 0
DWIDTH 12 0
BBX 0 0 7 -8
BITMAP
ENDCHAR
STARTCHAR trademark
ENCODING 170
SWIDTH 500 0
DWIDTH 12 0
BBX 0 0 7 -8
BITMAP
ENDCHAR
STARTCHAR acute
ENCODING 171
SWIDTH 500 0
DWIDTH 12 0
BBX 0 0 7 -8
BITMAP
ENDCHAR
STARTCHAR dieresis
ENCODING 172
SWIDTH 500 0
DWIDTH 12 0
BBX 0 0 7 -8
BITMAP
ENDCHAR
STARTCHAR notequal
ENCODING 173
SWIDTH 500 0
DWIDTH 12 0
BBX 0 0 7 -8
BITMAP
ENDCHAR
STARTCHAR AE
ENCODING 174
SWIDTH 500 0
DWIDTH 12 0
BBX 0 0 7 -8
BITMAP
ENDCHAR
STARTCHAR Oslash
ENCODING 175
SWIDTH 500 0
DWIDTH 12 0
BBX 0 0 7 -8
BITMAP
ENDCHAR
STARTCHAR infinity
ENCODING 176
SWIDTH 500 0
DWIDTH 12 0
BBX 0 0 7 -8
BITMAP
ENDCHAR
STARTCHAR plusminus
ENCODING 177
SWIDTH 500 0
DWIDTH 12 0
BBX 0 0 7 -8
BITMAP
ENDCHAR
STARTCHAR lessequal
ENCODING 178
SWIDTH 500 0
DWIDTH 12 0
BBX 0 0 7 -8
BITMAP
ENDCHAR
STARTCHAR greaterequal
ENCODING 179
SWIDTH 500 0
DWIDTH 12 0
BBX 0 0 7 -8
BITMAP
ENDCHAR
STARTCHAR yen
ENCODING 180
SWIDTH 500 0
DWIDTH 12 0
BBX 0 0 7 -8
BITMAP
ENDCHAR
STARTCHAR mu
ENCODING 181
SWIDTH 500 0
DWIDTH 12 0
BBX 0 0 7 -8
BITMAP
ENDCHAR
STARTCHAR partialdiff
ENCODING 182
SWIDTH 500 0
DWIDTH 12 0
BBX 0 0 7 -8
BITMAP
ENDCHAR
STARTCHAR summation
ENCODING 183
SWIDTH 500 0
DWIDTH 12 0
BBX 0 0 7 -8
BITMAP
ENDCHAR
STARTCHAR product
ENCODING 184
SWIDTH 500 0
DWIDTH 12 0
BBX 0 0 7 -8
BITMAP
ENDCHAR
STARTCHAR pi
ENCODING 185
SWIDTH 500 0
DWIDTH 12 0
BBX 0 0 7 -8
BITMAP
ENDCHAR
STARTCHAR integral
ENCODING 186
SWIDTH 500 0
DWIDTH 12 0
BBX 0 0 7 -8
BITMAP
ENDCHAR
STARTCHAR ordfeminine
ENCODING 187
SWIDTH 500 0
DWIDTH 12 0
BBX 0 0 7 -8
BITMAP
ENDCHAR
STARTCHAR ordmasculine
ENCODING 188
SWIDTH 500 0
DWIDTH 12 0
BBX 0 0 7 -8
BITMAP
ENDCHAR
STARTCHAR Omega
ENCODING 189
SWIDTH 500 0
DWIDTH 12 0
BBX 0 0 7 -8
BITMAP
ENDCHAR
STARTCHAR ae
ENCODING 190
SWIDTH 500 0
DWIDTH 12 0
BBX 0 0 7 -8
BITMAP
ENDCHAR
STARTCHAR oslash
ENCODING 191
SWIDTH 500 0
DWIDTH 12 0
BBX 0 0 7 -8
BITMAP
ENDCHAR
STARTCHAR questiondown
ENCODING 192
SWIDTH 500 0
DWIDTH 12 0
BBX 0 0 7 -8
BITMAP
ENDCHAR
STARTCHAR exclamdown
ENCODING 193
SWIDTH 500 0
DWIDTH 12 0
BBX 0 0 7 -8
BITMAP
ENDCHAR
STARTCHAR logicalnot
ENCODING 194
SWIDTH 500 0
DWIDTH 12 0
BBX 0 0 7 -8
BITMAP
ENDCHAR
STARTCHAR radical
ENCODING 195
SWIDTH 500 0
DWIDTH 12 0
BBX 0 0 7 -8
BITMAP
ENDCHAR
STARTCHAR florin
ENCODING 196
SWIDTH 500 0
DWIDTH 12 0
BBX 0 0 7 -8
BITMAP
ENDCHAR
STARTCHAR approxequal
ENCODING 197
SWIDTH 500 0
DWIDTH 12 0
BBX 0 0 7 -8
BITMAP
ENDCHAR
STARTCHAR Delta
ENCODING 198
SWIDTH 500 0
DWIDTH 12 0
BBX 0 0 7 -8
BITMAP
ENDCHAR
STARTCHAR guillemotleft
ENCODING 199
SWIDTH 500 0
DWIDTH 12 0
BBX 0 0 7 -8
BITMAP
ENDCHAR
STARTCHAR guillemotright
ENCODING 200
SWIDTH 500 0
DWIDTH 12 0
BBX 0 0 7 -8
BITMAP
ENDCHAR
STARTCHAR ellipsis
ENCODING 201
SWIDTH 500 0
DWIDTH 12 0
BBX 0 0 7 -8
BITMAP
ENDCHAR
STARTCHAR nbspace
ENCODING 202
SWIDTH 500 0
DWIDTH 12 0
BBX 0 0 7 -8
BITMAP
ENDCHAR
STARTCHAR Agrave
ENCODING 203
SWIDTH 500 0
DWIDTH 12 0
BBX 0 0 7 -8
BITMAP
ENDCHAR
STARTCHAR Atilde
ENCODING 204
SWIDTH 500 0
DWIDTH 12 0
BBX 0 0 7 -8
BITMAP
ENDCHAR
STARTCHAR Otilde
ENCODING 205
SWIDTH 500 0
DWIDTH 12 0
BBX 0 0 7 -8
BITMAP
ENDCHAR
STARTCHAR OE
ENCODING 206
SWIDTH 500 0
DWIDTH 12 0
BBX 0 0 7 -8
BITMAP
ENDCHAR
STARTCHAR oe
ENCODING 207
SWIDTH 500 0
DWIDTH 12 0
BBX 0 0 7 -8
BITMAP
ENDCHAR
STARTCHAR endash
ENCODING 208
SWIDTH 500 0
DWIDTH 12 0
BBX 0 0 7 -8
BITMAP
ENDCHAR
STARTCHAR emdash
ENCODING 209
SWIDTH 500 0
DWIDTH 12 0
BBX 0 0 7 -8
BITMAP
ENDCHAR
STARTCHAR quotedblleft
ENCODING 210
SWIDTH 500 0
DWIDTH 12 0
BBX 0 0 7 -8
BITMAP
ENDCHAR
STARTCHAR quotedblright
ENCODING 211
SWIDTH 500 0
DWIDTH 12 0
BBX 0 0 7 -8
BITMAP
ENDCHAR
STARTCHAR quoteleft
ENCODING 212
SWIDTH 500 0
DWIDTH 12 0
BBX 0 0 7 -8
BITMAP
ENDCHAR
STARTCHAR quoteright
ENCODING 213
SWIDTH 500 0
DWIDTH 12 0
BBX 0 0 7 -8
BITMAP
ENDCHAR
STARTCHAR divide
ENCODING 214
SWIDTH 500 0
DWIDTH 12 0
BBX 0 0 7 -8
BITMAP
ENDCHAR
STARTCHAR lozenge
ENCODING 215
SWIDTH 500 0
DWIDTH 12 0
BBX 0 0 7 -8
BITMAP
ENDCHAR
STARTCHAR ydieresis
ENCODING 216
SWIDTH 500 0
DWIDTH 12 0
BBX 0 0 7 -8
BITMAP
ENDCHAR
STARTCHAR Ydieresis
ENCODING 217
SWIDTH 500 0
DWIDTH 12 0
BBX 0 0 7 -8
BITMAP
ENDCHAR
STARTCHAR fraction
ENCODING 218
SWIDTH 500 0
DWIDTH 12 0
BBX 0 0 7 -8
BITMAP
ENDCHAR
STARTCHAR currency
ENCODING 219
SWIDTH 500 0
DWIDTH 12 0
BBX 0 0 7 -8
BITMAP
ENDCHAR
STARTCHAR guilsinglleft
ENCODING 220
SWIDTH 500 0
DWIDTH 12 0
BBX 0 0 7 -8
BITMAP
ENDCHAR
STARTCHAR guilsinglright
ENCODING 221
SWIDTH 500 0
DWIDTH 12 0
BBX 0 0 7 -8
BITMAP
ENDCHAR
STARTCHAR fi
ENCODING 222
SWIDTH 500 0
DWIDTH 12 0
BBX 0 0 7 -8
BITMAP
ENDCHAR
STARTCHAR fl
ENCODING 223
SWIDTH 500 0
DWIDTH 12 0
BBX 0 0 7 -8
BITMAP
ENDCHAR
STARTCHAR daggerdbl
ENCODING 224
SWIDTH 500 0
DWIDTH 12 0
BBX 0 0 7 -8
BITMAP
ENDCHAR
STARTCHAR periodcentered
ENCODING 225
SWIDTH 500 0
DWIDTH 12 0
BBX 0 0 7 -8
BITMAP
ENDCHAR
STARTCHAR quotesinglbase
ENCODING 226
SWIDTH 500 0
DWIDTH 12 0
BBX 0 0 7 -8
BITMAP
ENDCHAR
STARTCHAR quotedblbase
ENCODING 227
SWIDTH 500 0
DWIDTH 12 0
BBX 0 0 7 -8
BITMAP
ENDCHAR
STARTCHAR perthousand
ENCODING 228
SWIDTH 500 0
DWIDTH 12 0
BBX 0 0 7 -8
BITMAP
ENDCHAR
STARTCHAR Acircumflex
ENCODING 229
SWIDTH 500 0
DWIDTH 12 0
BBX 0 0 7 -8
BITMAP
ENDCHAR
STARTCHAR Ecircumflex
ENCODING 230
SWIDTH 500 0
DWIDTH 12 0
BBX 0 0 7 -8
BITMAP
ENDCHAR
STARTCHAR Aacute
ENCODING 231
SWIDTH 500 0
DWIDTH 12 0
BBX 0 0 7 -8
BITMAP
ENDCHAR
STARTCHAR Edieresis
ENCODING 232
SWIDTH 500 0
DWIDTH 12 0
BBX 0 0 7 -8
BITMAP
ENDCHAR
STARTCHAR Egrave
ENCODING 233
SWIDTH 500 0
DWIDTH 12 0
BBX 0 0 7 -8
BITMAP
ENDCHAR
STARTCHAR Iacute
ENCODING 234
SWIDTH 500 0
DWIDTH 12 0
BBX 0 0 7 -8
BITMAP
ENDCHAR
STARTCHAR Icircumflex
ENCODING 235
SWIDTH 500 0
DWIDTH 12 0
BBX 0 0 7 -8
BITMAP
ENDCHAR
STARTCHAR Idieresis
ENCODING 236
SWIDTH 500 0
DWIDTH 12 0
BBX 0 0 7 -8
BITMAP
ENDCHAR
STARTCHAR Igrave
ENCODING 237
SWIDTH 500 0
DWIDTH 12 0
BBX 0 0 7 -8
BITMAP
ENDCHAR
STARTCHAR Oacute
ENCODING 238
SWIDTH 500 0
DWIDTH 12 0
BBX 0 0 7 -8
BITMAP
ENDCHAR
STARTCHAR Ocircumflex
ENCODING 239
SWIDTH 500 0
DWIDTH 12 0
BBX 0 0 7 -8
BITMAP
ENDCHAR
STARTCHAR apple
ENCODING 240
SWIDTH 500 0
DWIDTH 12 0
BBX 0 0 7 -8
BITMAP
ENDCHAR
STARTCHAR Ograve
ENCODING 241
SWIDTH 500 0
DWIDTH 12 0
BBX 0 0 7 -8
BITMAP
ENDCHAR
STARTCHAR Uacute
ENCODING 242
SWIDTH 500 0
DWIDTH 12 0
BBX 0 0 7 -8
BITMAP
ENDCHAR
STARTCHAR Ucircumflex
ENCODING 243
SWIDTH 500 0
DWIDTH 12 0
BBX 0 0 7 -8
BITMAP
ENDCHAR
STARTCHAR Ugrave
ENCODING 244
SWIDTH 500 0
DWIDTH 12 0
BBX 0 0 7 -8
BITMAP
ENDCHAR
STARTCHAR dotlessi
ENCODING 245
SWIDTH 500 0
DWIDTH 12 0
BBX 0 0 7 -8
BITMAP
ENDCHAR
STARTCHAR circumflex
ENCODING 246
SWIDTH 500 0
DWIDTH 12 0
BBX 0 0 7 -8
BITMAP
ENDCHAR
STARTCHAR tilde
ENCODING 247
SWIDTH 500 0
DWIDTH 12 0
BBX 0 0 7 -8
BITMAP
ENDCHAR
STARTCHAR macron
ENCODING 248
SWIDTH 500 0
DWIDTH 12 0
BBX 0 0 7 -8
BITMAP
ENDCHAR
STARTCHAR breve
ENCODING 249
SWIDTH 500 0
DWIDTH 12 0
BBX 0 0 7 -8
BITMAP
ENDCHAR
STARTCHAR dotaccent
ENCODING 250
SWIDTH 500 0
DWIDTH 12 0
BBX 0 0 7 -8
BITMAP
ENDCHAR
STARTCHAR ring
ENCODING 251
SWIDTH 500 0
DWIDTH 12 0
BBX 0 0 7 -8
BITMAP
ENDCHAR
STARTCHAR cedilla
ENCODING 252
SWIDTH 500 0
DWIDTH 12 0
BBX 0 0 7 -8
BITMAP
ENDCHAR
STARTCHAR hungarumlaut
ENCODING 253
SWIDTH 500 0
DWIDTH 12 0
BBX 0 0 7 -8
BITMAP
ENDCHAR
STARTCHAR ogonek
ENCODING 254
SWIDTH 500 0
DWIDTH 12 0
BBX 0 0 7 -8
BITMAP
ENDCHAR
STARTCHAR caron
ENCODING 255
SWIDTH 1000 0
DWIDTH 24 0
BBX 20 4 2 7
BITMAP
606060
F0F0F0
F0F0F0
606060
ENDCHAR
ENDFONT
