STARTFONT 2.1
FONT -Fondu-AppleGothic-Medium-R-Normal--20-190-75-75-P-127-MacRoman-1
SIZE 19 75 75
FONTBOUNDINGBOX 20 22 0 -5
COMMENT Created by Fondu from a mac NFNT/FONT resource
STARTPROPERTIES 17
FOUNDRY "Fondu"
FAMILY_NAME "AppleGothic"
WEIGHT_NAME "Medium"
SLANT "R"
SETWIDTH_NAME "Normal"
ADD_STYLE_NAME ""
PIXEL_SIZE 20
POINT_SIZE 190
RESOLUTION_X 75
RESOLUTION_Y 75
SPACING "P"
AVERAGE_WIDTH 127
CHARSET_REGISTRY "MacRoman"
CHARSET_ENCODING "1"
FONT_ASCENT 17
FONT_DESCENT 5
FACE_NAME "AppleGothic"
ENDPROPERTIES
CHARS 229
STARTCHAR char0011
ENCODING 17
SWIDTH 913 0
DWIDTH 18 0
BBX 15 15 2 0
BITMAP
7C7C
FEFE
C6C6
C6C6
C6C6
FFFE
7FFC
06C0
7FFC
FFFE
C6C6
C6C6
C6C6
FEFE
7C7C
ENDCHAR
STARTCHAR char0012
ENCODING 18
SWIDTH 581 0
DWIDTH 12 0
BBX 12 16 0 0
BITMAP
0030
0030
0060
0060
00C0
00C0
0180
0180
0300
0300
0600
4600
EC00
7C00
3800
1800
ENDCHAR
STARTCHAR char0013
ENCODING 19
SWIDTH 744 0
DWIDTH 15 0
BBX 11 11 2 1
BITMAP
0400
0E00
1F00
3F80
7FC0
FFE0
7FC0
3F80
1F00
0E00
0400
ENDCHAR
STARTCHAR char0014
ENCODING 20
SWIDTH 744 0
DWIDTH 15 0
BBX 13 16 1 0
BITMAP
0060
01C0
0380
0200
1CE0
3FF0
7FF8
7FF0
FFE0
FFE0
FFE0
FFE0
7FF0
7FF8
3FF0
1CE0
ENDCHAR
STARTCHAR onehalf
ENCODING 21
SWIDTH 500 0
DWIDTH 10 0
BBX 9 16 0 0
BITMAP
3F80
7D80
FD80
FD80
FD80
FD80
7D80
3D80
0D80
0D80
0D80
0D80
0D80
0D80
0D80
0D80
ENDCHAR
STARTCHAR space
ENCODING 32
SWIDTH 400 0
DWIDTH 8 0
BBX 0 0 0 -5
BITMAP
ENDCHAR
STARTCHAR exclam
ENCODING 33
SWIDTH 500 0
DWIDTH 10 0
BBX 2 16 4 0
BITMAP
C0
C0
C0
C0
C0
C0
C0
C0
C0
C0
C0
C0
00
00
C0
C0
ENDCHAR
STARTCHAR quotedbl
ENCODING 34
SWIDTH 400 0
DWIDTH 8 0
BBX 7 5 1 12
BITMAP
EE
EE
EE
22
CC
ENDCHAR
STARTCHAR numbersign
ENCODING 35
SWIDTH 680 0
DWIDTH 14 0
BBX 12 15 1 0
BITMAP
0CC0
0CC0
0CC0
0CC0
7FF0
7FF0
1980
1980
1980
FFE0
FFE0
3300
3300
3300
3300
ENDCHAR
STARTCHAR dollar
ENCODING 36
SWIDTH 680 0
DWIDTH 14 0
BBX 12 19 1 -2
BITMAP
0600
0600
1F80
7FE0
E670
C630
C630
E600
7E00
1F80
07E0
0670
C630
C630
E670
7FE0
1F80
0600
0600
ENDCHAR
STARTCHAR percent
ENCODING 37
SWIDTH 1000 0
DWIDTH 20 0
BBX 17 15 2 0
BITMAP
1E0380
3F0700
630E00
631C00
633800
7E7000
3CE000
01C000
039E00
073F00
0E6300
1C6300
386300
707E00
E03C00
ENDCHAR
STARTCHAR ampersand
ENCODING 38
SWIDTH 1000 0
DWIDTH 20 0
BBX 14 16 4 0
BITMAP
1E00
3F00
7380
6180
6180
3300
1E00
3C18
7E18
E718
C3B0
C1F0
C0E0
E1F0
7FB8
3E1C
ENDCHAR
STARTCHAR quotesingle
ENCODING 39
SWIDTH 400 0
DWIDTH 8 0
BBX 3 5 2 12
BITMAP
E0
E0
E0
20
C0
ENDCHAR
STARTCHAR parenleft
ENCODING 40
SWIDTH 500 0
DWIDTH 10 0
BBX 6 19 4 -2
BITMAP
18
30
30
60
60
E0
C0
C0
C0
C0
C0
C0
E0
60
60
30
30
18
0C
ENDCHAR
STARTCHAR parenright
ENCODING 41
SWIDTH 500 0
DWIDTH 10 0
BBX 6 19 0 -2
BITMAP
60
30
30
18
18
1C
0C
0C
0C
0C
0C
0C
1C
18
18
30
30
60
C0
ENDCHAR
STARTCHAR asterisk
ENCODING 42
SWIDTH 500 0
DWIDTH 10 0
BBX 7 6 1 11
BITMAP
D6
7C
38
7C
D6
10
ENDCHAR
STARTCHAR plus
ENCODING 43
SWIDTH 1000 0
DWIDTH 20 0
BBX 12 12 4 2
BITMAP
0600
0600
0600
0600
0600
FFF0
FFF0
0600
0600
0600
0600
0600
ENDCHAR
STARTCHAR comma
ENCODING 44
SWIDTH 400 0
DWIDTH 8 0
BBX 3 5 3 -3
BITMAP
E0
E0
E0
20
C0
ENDCHAR
STARTCHAR hyphen
ENCODING 45
SWIDTH 500 0
DWIDTH 10 0
BBX 8 2 1 7
BITMAP
FF
FF
ENDCHAR
STARTCHAR period
ENCODING 46
SWIDTH 400 0
DWIDTH 8 0
BBX 3 3 3 -1
BITMAP
E0
E0
E0
ENDCHAR
STARTCHAR slash
ENCODING 47
SWIDTH 500 0
DWIDTH 10 0
BBX 10 18 0 -1
BITMAP
00C0
00C0
0180
0180
0300
0300
0600
0600
0C00
0C00
1800
1800
3000
3000
6000
6000
C000
C000
ENDCHAR
STARTCHAR zero
ENCODING 48
SWIDTH 680 0
DWIDTH 14 0
BBX 10 16 2 0
BITMAP
1E00
7F80
E1C0
C0C0
C0C0
C0C0
C0C0
C0C0
C0C0
C0C0
C0C0
C0C0
C0C0
E1C0
7F80
1E00
ENDCHAR
STARTCHAR one
ENCODING 49
SWIDTH 680 0
DWIDTH 14 0
BBX 4 16 5 0
BITMAP
30
F0
F0
30
30
30
30
30
30
30
30
30
30
30
30
30
ENDCHAR
STARTCHAR two
ENCODING 50
SWIDTH 680 0
DWIDTH 14 0
BBX 10 16 2 0
BITMAP
1E00
7F80
E1C0
C0C0
C0C0
01C0
0180
0380
0700
0E00
1C00
3800
7000
E000
FFC0
FFC0
ENDCHAR
STARTCHAR three
ENCODING 51
SWIDTH 680 0
DWIDTH 14 0
BBX 10 16 2 0
BITMAP
1E00
7F80
E1C0
C0C0
C0C0
01C0
0F80
0F80
01C0
00C0
00C0
C0C0
C0C0
E1C0
7F80
1E00
ENDCHAR
STARTCHAR four
ENCODING 52
SWIDTH 680 0
DWIDTH 14 0
BBX 12 16 1 0
BITMAP
01C0
01C0
03C0
06C0
06C0
0CC0
18C0
18C0
30C0
60C0
60C0
FFF0
FFF0
00C0
00C0
00C0
ENDCHAR
STARTCHAR five
ENCODING 53
SWIDTH 680 0
DWIDTH 14 0
BBX 10 16 2 0
BITMAP
FFC0
FFC0
C000
C000
C000
DE00
FF80
E1C0
C0C0
00C0
00C0
C0C0
C0C0
E1C0
7F80
1E00
ENDCHAR
STARTCHAR six
ENCODING 54
SWIDTH 680 0
DWIDTH 14 0
BBX 10 16 2 0
BITMAP
1E00
7F80
E1C0
C0C0
C0C0
C000
DE00
FF80
E1C0
C0C0
C0C0
C0C0
C0C0
E1C0
7F80
1E00
ENDCHAR
STARTCHAR seven
ENCODING 55
SWIDTH 680 0
DWIDTH 14 0
BBX 10 16 2 0
BITMAP
FFC0
FFC0
00C0
0180
0180
0300
0300
0600
0600
0C00
0C00
0C00
1800
1800
1800
1800
ENDCHAR
STARTCHAR eight
ENCODING 56
SWIDTH 680 0
DWIDTH 14 0
BBX 10 16 2 0
BITMAP
1E00
7F80
E1C0
C0C0
C0C0
E1C0
7F80
7F80
E1C0
C0C0
C0C0
C0C0
C0C0
E1C0
7F80
1E00
ENDCHAR
STARTCHAR nine
ENCODING 57
SWIDTH 680 0
DWIDTH 14 0
BBX 10 16 2 0
BITMAP
1E00
7F80
E1C0
C0C0
C0C0
C0C0
C0C0
E1C0
7FC0
1EC0
00C0
C0C0
C0C0
E1C0
7F80
1E00
ENDCHAR
STARTCHAR colon
ENCODING 58
SWIDTH 500 0
DWIDTH 10 0
BBX 3 12 3 2
BITMAP
E0
E0
E0
00
00
00
00
00
00
E0
E0
E0
ENDCHAR
STARTCHAR semicolon
ENCODING 59
SWIDTH 500 0
DWIDTH 10 0
BBX 3 13 3 0
BITMAP
E0
E0
E0
00
00
00
00
00
E0
E0
E0
20
C0
ENDCHAR
STARTCHAR less
ENCODING 60
SWIDTH 500 0
DWIDTH 10 0
BBX 10 18 0 -1
BITMAP
00C0
01C0
0380
0700
0E00
1C00
3800
7000
E000
E000
7000
3800
1C00
0E00
0700
0380
01C0
00C0
ENDCHAR
STARTCHAR equal
ENCODING 61
SWIDTH 1000 0
DWIDTH 20 0
BBX 12 6 4 5
BITMAP
FFF0
FFF0
0000
0000
FFF0
FFF0
ENDCHAR
STARTCHAR greater
ENCODING 62
SWIDTH 500 0
DWIDTH 10 0
BBX 10 18 0 -1
BITMAP
C000
E000
7000
3800
1C00
0E00
0700
0380
01C0
01C0
0380
0700
0E00
1C00
3800
7000
E000
C000
ENDCHAR
STARTCHAR question
ENCODING 63
SWIDTH 680 0
DWIDTH 14 0
BBX 8 17 3 -1
BITMAP
3C
7E
E7
C3
C3
03
06
0C
0C
18
18
18
18
00
00
18
18
ENDCHAR
STARTCHAR at
ENCODING 64
SWIDTH 1000 0
DWIDTH 20 0
BBX 15 14 2 0
BITMAP
07E0
1818
3004
63F2
6632
CC32
CC62
CC62
CC64
67B8
6000
3004
1818
07E0
ENDCHAR
STARTCHAR A
ENCODING 65
SWIDTH 816 0
DWIDTH 16 0
BBX 12 16 2 0
BITMAP
0600
0600
0F00
0F00
1980
1980
1980
30C0
30C0
30C0
7FE0
7FE0
6060
C030
C030
C030
ENDCHAR
STARTCHAR B
ENCODING 66
SWIDTH 772 0
DWIDTH 15 0
BBX 11 16 2 0
BITMAP
FF00
FFC0
C0E0
C060
C060
C060
C0E0
FFC0
FFC0
C060
C060
C060
C060
C0E0
FFC0
FF00
ENDCHAR
STARTCHAR C
ENCODING 67
SWIDTH 775 0
DWIDTH 15 0
BBX 13 16 2 0
BITMAP
0FC0
3FF0
7038
6018
E018
C000
C000
C000
C000
C000
C000
E018
6018
7038
3FF0
0FC0
ENDCHAR
STARTCHAR D
ENCODING 68
SWIDTH 785 0
DWIDTH 16 0
BBX 12 16 3 0
BITMAP
FF00
FFC0
C0E0
C060
C070
C030
C030
C030
C030
C030
C030
C070
C060
C0E0
FFC0
FF00
ENDCHAR
STARTCHAR E
ENCODING 69
SWIDTH 714 0
DWIDTH 14 0
BBX 10 16 2 0
BITMAP
FFC0
FFC0
C000
C000
C000
C000
C000
FFC0
FFC0
C000
C000
C000
C000
C000
FFC0
FFC0
ENDCHAR
STARTCHAR F
ENCODING 70
SWIDTH 678 0
DWIDTH 14 0
BBX 10 16 3 0
BITMAP
FFC0
FFC0
C000
C000
C000
C000
C000
FFC0
FFC0
C000
C000
C000
C000
C000
C000
C000
ENDCHAR
STARTCHAR G
ENCODING 71
SWIDTH 889 0
DWIDTH 18 0
BBX 13 16 3 0
BITMAP
0FC0
3FF0
7038
6018
E018
C000
C000
C1F8
C1F8
C018
C018
E018
6018
7038
3FF0
0FC0
ENDCHAR
STARTCHAR H
ENCODING 72
SWIDTH 831 0
DWIDTH 17 0
BBX 12 16 3 0
BITMAP
C030
C030
C030
C030
C030
C030
C030
FFF0
FFF0
C030
C030
C030
C030
C030
C030
C030
ENDCHAR
STARTCHAR I
ENCODING 73
SWIDTH 319 0
DWIDTH 6 0
BBX 2 16 2 0
BITMAP
C0
C0
C0
C0
C0
C0
C0
C0
C0
C0
C0
C0
C0
C0
C0
C0
ENDCHAR
STARTCHAR J
ENCODING 74
SWIDTH 653 0
DWIDTH 13 0
BBX 10 16 1 0
BITMAP
00C0
00C0
00C0
00C0
00C0
00C0
00C0
00C0
00C0
00C0
00C0
C0C0
C0C0
E1C0
7F80
3F00
ENDCHAR
STARTCHAR K
ENCODING 75
SWIDTH 786 0
DWIDTH 16 0
BBX 12 16 3 0
BITMAP
C0E0
C1C0
C380
C700
CE00
DC00
F800
F000
F800
DC00
CE00
C700
C380
C1C0
C0E0
C070
ENDCHAR
STARTCHAR L
ENCODING 76
SWIDTH 653 0
DWIDTH 13 0
BBX 10 16 2 0
BITMAP
C000
C000
C000
C000
C000
C000
C000
C000
C000
C000
C000
C000
C000
C000
FFC0
FFC0
ENDCHAR
STARTCHAR M
ENCODING 77
SWIDTH 1066 0
DWIDTH 21 0
BBX 16 16 3 0
BITMAP
C003
C003
E007
E007
F00F
F00F
D81B
D81B
CC33
CC33
C663
C663
C3C3
C3C3
C183
C183
ENDCHAR
STARTCHAR N
ENCODING 78
SWIDTH 895 0
DWIDTH 18 0
BBX 13 16 3 0
BITMAP
E018
E018
F018
D818
D818
CC18
C618
C618
C318
C198
C198
C0D8
C078
C078
C038
C018
ENDCHAR
STARTCHAR O
ENCODING 79
SWIDTH 888 0
DWIDTH 18 0
BBX 15 17 2 0
BITMAP
07C0
1FF0
3C78
701C
600C
E00E
C006
C006
C006
C006
C006
E00E
600C
701C
3C78
1FF0
07C0
ENDCHAR
STARTCHAR P
ENCODING 80
SWIDTH 714 0
DWIDTH 14 0
BBX 11 16 2 0
BITMAP
FF80
FFC0
C0E0
C060
C060
C060
C0E0
FFC0
FF80
C000
C000
C000
C000
C000
C000
C000
ENDCHAR
STARTCHAR Q
ENCODING 81
SWIDTH 854 0
DWIDTH 17 0
BBX 15 18 1 -1
BITMAP
07C0
1FF0
3C78
701C
600C
E00E
C006
C006
C006
C006
C006
E04E
60EC
707C
3C38
1FFC
07CE
0004
ENDCHAR
STARTCHAR R
ENCODING 82
SWIDTH 775 0
DWIDTH 15 0
BBX 12 16 3 0
BITMAP
FF80
FFC0
C0E0
C060
C060
C060
C0E0
FFC0
FF80
C0C0
C0C0
C060
C060
C060
C060
C030
ENDCHAR
STARTCHAR S
ENCODING 83
SWIDTH 769 0
DWIDTH 15 0
BBX 12 16 2 0
BITMAP
1F80
7FE0
E070
C030
C030
E000
7C00
1F80
03E0
0070
0030
C030
C030
E070
7FE0
1F80
ENDCHAR
STARTCHAR T
ENCODING 84
SWIDTH 719 0
DWIDTH 14 0
BBX 12 16 1 0
BITMAP
FFF0
FFF0
0600
0600
0600
0600
0600
0600
0600
0600
0600
0600
0600
0600
0600
0600
ENDCHAR
STARTCHAR U
ENCODING 85
SWIDTH 889 0
DWIDTH 18 0
BBX 12 16 3 0
BITMAP
C030
C030
C030
C030
C030
C030
C030
C030
C030
C030
C030
C030
C030
6060
7FE0
1F80
ENDCHAR
STARTCHAR V
ENCODING 86
SWIDTH 779 0
DWIDTH 16 0
BBX 11 16 3 0
BITMAP
C060
C060
C060
C060
60C0
60C0
60C0
3180
3180
3180
1B00
1B00
1B00
0E00
0E00
0E00
ENDCHAR
STARTCHAR W
ENCODING 87
SWIDTH 1149 0
DWIDTH 23 0
BBX 18 16 2 0
BITMAP
C0C0C0
C0C0C0
C0C0C0
C0C0C0
61E180
61E180
61E180
333300
333300
333300
1E1E00
1E1E00
1E1E00
0C0C00
0C0C00
0C0C00
ENDCHAR
STARTCHAR X
ENCODING 88
SWIDTH 847 0
DWIDTH 17 0
BBX 15 16 2 0
BITMAP
4004
E00E
701C
3838
1C70
0EE0
07C0
0380
0380
07C0
0EE0
1C70
3838
701C
E00E
4004
ENDCHAR
STARTCHAR Y
ENCODING 89
SWIDTH 731 0
DWIDTH 15 0
BBX 14 16 1 0
BITMAP
4008
E01C
7038
3870
1CE0
0FC0
0780
0300
0300
0300
0300
0300
0300
0300
0300
0300
ENDCHAR
STARTCHAR Z
ENCODING 90
SWIDTH 697 0
DWIDTH 14 0
BBX 11 16 2 0
BITMAP
FFE0
FFE0
00E0
01C0
0180
0380
0700
0600
0E00
1C00
1800
3800
7000
E000
FFE0
FFE0
ENDCHAR
STARTCHAR bracketleft
ENCODING 91
SWIDTH 500 0
DWIDTH 10 0
BBX 5 19 5 -2
BITMAP
F8
F8
C0
C0
C0
C0
C0
C0
C0
C0
C0
C0
C0
C0
C0
C0
C0
F8
F8
ENDCHAR
STARTCHAR backslash
ENCODING 92
SWIDTH 500 0
DWIDTH 10 0
BBX 10 18 0 -1
BITMAP
C000
C000
6000
6000
3000
3000
1800
1800
0C00
0C00
0600
0600
0300
0300
0180
0180
00C0
00C0
ENDCHAR
STARTCHAR bracketright
ENCODING 93
SWIDTH 500 0
DWIDTH 10 0
BBX 5 19 0 -2
BITMAP
F8
F8
18
18
18
18
18
18
18
18
18
18
18
18
18
18
18
F8
F8
ENDCHAR
STARTCHAR asciicircum
ENCODING 94
SWIDTH 500 0
DWIDTH 10 0
BBX 9 4 1 13
BITMAP
1C00
3E00
7700
E380
ENDCHAR
STARTCHAR underscore
ENCODING 95
SWIDTH 500 0
DWIDTH 10 0
BBX 10 2 0 -4
BITMAP
FFC0
FFC0
ENDCHAR
STARTCHAR grave
ENCODING 96
SWIDTH 250 0
DWIDTH 5 0
BBX 3 5 1 12
BITMAP
60
80
E0
E0
E0
ENDCHAR
STARTCHAR a
ENCODING 97
SWIDTH 644 0
DWIDTH 13 0
BBX 9 11 2 0
BITMAP
3F00
7F80
C180
C180
1F80
7F80
E180
C180
C380
FF80
7D80
ENDCHAR
STARTCHAR b
ENCODING 98
SWIDTH 694 0
DWIDTH 14 0
BBX 10 16 2 0
BITMAP
C000
C000
C000
C000
C000
DE00
FF80
E180
C0C0
C0C0
C0C0
C0C0
C0C0
E180
FF80
DE00
ENDCHAR
STARTCHAR c
ENCODING 99
SWIDTH 584 0
DWIDTH 12 0
BBX 10 11 1 0
BITMAP
1E00
7F80
61C0
C0C0
C000
C000
C000
C0C0
61C0
7F80
1F00
ENDCHAR
STARTCHAR d
ENCODING 100
SWIDTH 696 0
DWIDTH 14 0
BBX 10 16 2 0
BITMAP
00C0
00C0
00C0
00C0
00C0
1EC0
7FC0
61C0
C0C0
C0C0
C0C0
C0C0
C0C0
61C0
7FC0
1EC0
ENDCHAR
STARTCHAR e
ENCODING 101
SWIDTH 643 0
DWIDTH 13 0
BBX 10 11 1 0
BITMAP
1E00
7F80
6180
C0C0
FFC0
FFC0
C000
C0C0
61C0
7F80
1E00
ENDCHAR
STARTCHAR f
ENCODING 102
SWIDTH 457 0
DWIDTH 9 0
BBX 7 16 1 0
BITMAP
1E
3E
30
30
30
FC
FC
30
30
30
30
30
30
30
30
30
ENDCHAR
STARTCHAR g
ENCODING 103
SWIDTH 699 0
DWIDTH 14 0
BBX 10 15 2 -4
BITMAP
1EC0
7FC0
61C0
C0C0
C0C0
C0C0
C0C0
C0C0
61C0
7FC0
1EC0
C0C0
E180
7F80
1E00
ENDCHAR
STARTCHAR h
ENCODING 104
SWIDTH 703 0
DWIDTH 14 0
BBX 10 16 2 0
BITMAP
C000
C000
C000
C000
C000
DE00
FF80
E180
C0C0
C0C0
C0C0
C0C0
C0C0
C0C0
C0C0
C0C0
ENDCHAR
STARTCHAR i
ENCODING 105
SWIDTH 323 0
DWIDTH 6 0
BBX 2 16 2 0
BITMAP
C0
C0
C0
00
00
C0
C0
C0
C0
C0
C0
C0
C0
C0
C0
C0
ENDCHAR
STARTCHAR j
ENCODING 106
SWIDTH 322 0
DWIDTH 6 0
BBX 4 20 1 -4
BITMAP
30
30
30
00
00
30
30
30
30
30
30
30
30
30
30
30
30
30
F0
E0
ENDCHAR
STARTCHAR k
ENCODING 107
SWIDTH 598 0
DWIDTH 12 0
BBX 9 16 2 0
BITMAP
C000
C000
C000
C000
C000
C380
C700
CE00
DC00
F800
F000
F800
DC00
CE00
C700
C380
ENDCHAR
STARTCHAR l
ENCODING 108
SWIDTH 323 0
DWIDTH 6 0
BBX 3 16 1 0
BITMAP
E0
60
60
60
60
60
60
60
60
60
60
60
60
60
60
60
ENDCHAR
STARTCHAR m
ENCODING 109
SWIDTH 1050 0
DWIDTH 21 0
BBX 16 11 3 0
BITMAP
DE3C
FFFE
E3C7
C183
C183
C183
C183
C183
C183
C183
C183
ENDCHAR
STARTCHAR n
ENCODING 110
SWIDTH 700 0
DWIDTH 14 0
BBX 10 11 2 0
BITMAP
DF00
FF80
E1C0
C0C0
C0C0
C0C0
C0C0
C0C0
C0C0
C0C0
C0C0
ENDCHAR
STARTCHAR o
ENCODING 111
SWIDTH 697 0
DWIDTH 14 0
BBX 10 11 2 0
BITMAP
1E00
7F80
6180
C0C0
C0C0
C0C0
C0C0
C0C0
6180
7F80
1E00
ENDCHAR
STARTCHAR p
ENCODING 112
SWIDTH 693 0
DWIDTH 14 0
BBX 10 15 3 -4
BITMAP
DE00
FF80
E180
C0C0
C0C0
C0C0
C0C0
C0C0
E180
FF80
DE00
C000
C000
C000
C000
ENDCHAR
STARTCHAR q
ENCODING 113
SWIDTH 694 0
DWIDTH 14 0
BBX 10 15 2 -4
BITMAP
1EC0
7FC0
61C0
C0C0
C0C0
C0C0
C0C0
C0C0
61C0
7FC0
1EC0
00C0
00C0
00C0
00C0
ENDCHAR
STARTCHAR r
ENCODING 114
SWIDTH 458 0
DWIDTH 9 0
BBX 6 11 2 0
BITMAP
DC
FC
E0
C0
C0
C0
C0
C0
C0
C0
C0
ENDCHAR
STARTCHAR s
ENCODING 115
SWIDTH 583 0
DWIDTH 12 0
BBX 8 11 2 0
BITMAP
7E
FF
C3
C0
FE
7F
03
03
C3
FF
7E
ENDCHAR
STARTCHAR t
ENCODING 116
SWIDTH 382 0
DWIDTH 8 0
BBX 7 16 0 0
BITMAP
30
30
30
30
30
FE
FE
30
30
30
30
30
30
30
3E
1E
ENDCHAR
STARTCHAR u
ENCODING 117
SWIDTH 705 0
DWIDTH 14 0
BBX 9 11 2 0
BITMAP
C180
C180
C180
C180
C180
C180
C180
C180
6380
7F80
1D80
ENDCHAR
STARTCHAR v
ENCODING 118
SWIDTH 634 0
DWIDTH 13 0
BBX 10 11 1 0
BITMAP
C0C0
C0C0
C0C0
6180
6180
3300
3300
1E00
1E00
0C00
0C00
ENDCHAR
STARTCHAR w
ENCODING 119
SWIDTH 929 0
DWIDTH 19 0
BBX 14 11 2 0
BITMAP
C30C
C30C
C30C
6798
6798
6798
3CF0
3CF0
3CF0
1860
1860
ENDCHAR
STARTCHAR x
ENCODING 120
SWIDTH 651 0
DWIDTH 13 0
BBX 12 11 1 0
BITMAP
E070
70E0
39C0
1F80
0F00
0600
0F00
1F80
39C0
70E0
E070
ENDCHAR
STARTCHAR y
ENCODING 121
SWIDTH 635 0
DWIDTH 13 0
BBX 10 15 2 -4
BITMAP
C0C0
C0C0
60C0
6180
3180
3180
1B00
1B00
0E00
0E00
0600
0C00
0C00
1800
1800
ENDCHAR
STARTCHAR z
ENCODING 122
SWIDTH 527 0
DWIDTH 11 0
BBX 9 11 1 0
BITMAP
FF80
FF80
0380
0700
0E00
1C00
3800
7000
E000
FF80
FF80
ENDCHAR
STARTCHAR braceleft
ENCODING 123
SWIDTH 500 0
DWIDTH 10 0
BBX 6 19 4 -2
BITMAP
1C
30
30
30
30
30
30
30
20
C0
20
30
30
30
30
30
30
30
1C
ENDCHAR
STARTCHAR bar
ENCODING 124
SWIDTH 500 0
DWIDTH 10 0
BBX 2 21 4 -4
BITMAP
C0
C0
C0
C0
C0
C0
C0
C0
C0
C0
C0
C0
C0
C0
C0
C0
C0
C0
C0
C0
C0
ENDCHAR
STARTCHAR braceright
ENCODING 125
SWIDTH 500 0
DWIDTH 10 0
BBX 6 19 0 -2
BITMAP
E0
30
30
30
30
30
30
30
10
0C
10
30
30
30
30
30
30
30
E0
ENDCHAR
STARTCHAR asciitilde
ENCODING 126
SWIDTH 1000 0
DWIDTH 20 0
BBX 17 4 2 6
BITMAP
1F0100
7FC780
F1FF00
407C00
ENDCHAR
STARTCHAR char007f
ENCODING 127
SWIDTH 400 0
DWIDTH 8 0
BBX 0 0 0 -5
BITMAP
ENDCHAR
STARTCHAR Adieresis
ENCODING 128
SWIDTH 400 0
DWIDTH 8 0
BBX 0 0 0 -5
BITMAP
ENDCHAR
STARTCHAR Aring
ENCODING 129
SWIDTH 913 0
DWIDTH 18 0
BBX 18 16 0 0
BITMAP
C0C0C0
C0C0C0
C0C0C0
C0C0C0
61E180
61E180
FFFFC0
FFFFC0
333300
333300
1E1E00
1E1E00
1E1E00
0C0C00
0C0C00
0C0C00
ENDCHAR
STARTCHAR Ccedilla
ENCODING 130
SWIDTH 498 0
DWIDTH 10 0
BBX 10 2 0 5
BITMAP
FFC0
FFC0
ENDCHAR
STARTCHAR Eacute
ENCODING 131
SWIDTH 1000 0
DWIDTH 20 0
BBX 17 16 2 0
BITMAP
07F000
1FFC00
380E00
73E700
67F300
EE3380
CC0180
CC0180
CC0180
CC0180
EE3380
67F300
73E700
380E00
1FFC00
07F000
ENDCHAR
STARTCHAR Ntilde
ENCODING 132
SWIDTH 747 0
DWIDTH 15 0
BBX 15 2 0 -4
BITMAP
FFFE
FFFE
ENDCHAR
STARTCHAR Odieresis
ENCODING 133
SWIDTH 1000 0
DWIDTH 20 0
BBX 20 20 0 -4
BITMAP
FFFFF0
FFFFF0
FFFFF0
FFFFF0
FFFFF0
FFFFF0
FFFFF0
FFFFF0
FFFFF0
FFFFF0
FFFFF0
FFFFF0
FFFFF0
FFFFF0
FFFFF0
FFFFF0
FFFFF0
FFFFF0
FFFFF0
FFFFF0
ENDCHAR
STARTCHAR Udieresis
ENCODING 134
SWIDTH 1000 0
DWIDTH 20 0
BBX 20 20 0 -4
BITMAP
FFFFF0
FFFFF0
FFFFF0
FFFFF0
FFFFF0
FFFFF0
FFFFF0
FFFFF0
FFFFF0
FFFFF0
FFFFF0
FFFFF0
FFFFF0
FFFFF0
FFFFF0
FFFFF0
FFFFF0
FFFFF0
FFFFF0
FFFFF0
ENDCHAR
STARTCHAR aacute
ENCODING 135
SWIDTH 1000 0
DWIDTH 20 0
BBX 20 20 0 -4
BITMAP
FFFFF0
FFFFF0
FFFFF0
FFFFF0
FFFFF0
FFFFF0
FFFFF0
FFFFF0
FFFFF0
FFFFF0
FFFFF0
FFFFF0
FFFFF0
FFFFF0
FFFFF0
FFFFF0
FFFFF0
FFFFF0
FFFFF0
FFFFF0
ENDCHAR
STARTCHAR agrave
ENCODING 136
SWIDTH 1000 0
DWIDTH 20 0
BBX 20 20 0 -4
BITMAP
FFFFF0
FFFFF0
FFFFF0
FFFFF0
FFFFF0
FFFFF0
FFFFF0
FFFFF0
FFFFF0
FFFFF0
FFFFF0
FFFFF0
FFFFF0
FFFFF0
FFFFF0
FFFFF0
FFFFF0
FFFFF0
FFFFF0
FFFFF0
ENDCHAR
STARTCHAR acircumflex
ENCODING 137
SWIDTH 1000 0
DWIDTH 20 0
BBX 20 20 0 -4
BITMAP
FFFFF0
FFFFF0
FFFFF0
FFFFF0
FFFFF0
FFFFF0
FFFFF0
FFFFF0
FFFFF0
FFFFF0
FFFFF0
FFFFF0
FFFFF0
FFFFF0
FFFFF0
FFFFF0
FFFFF0
FFFFF0
FFFFF0
FFFFF0
ENDCHAR
STARTCHAR adieresis
ENCODING 138
SWIDTH 1000 0
DWIDTH 20 0
BBX 20 20 0 -4
BITMAP
FFFFF0
FFFFF0
FFFFF0
FFFFF0
FFFFF0
FFFFF0
FFFFF0
FFFFF0
FFFFF0
FFFFF0
FFFFF0
FFFFF0
FFFFF0
FFFFF0
FFFFF0
FFFFF0
FFFFF0
FFFFF0
FFFFF0
FFFFF0
ENDCHAR
STARTCHAR atilde
ENCODING 139
SWIDTH 1000 0
DWIDTH 20 0
BBX 20 20 0 -4
BITMAP
FFFFF0
FFFFF0
FFFFF0
FFFFF0
FFFFF0
FFFFF0
FFFFF0
FFFFF0
FFFFF0
FFFFF0
FFFFF0
FFFFF0
FFFFF0
FFFFF0
FFFFF0
FFFFF0
FFFFF0
FFFFF0
FFFFF0
FFFFF0
ENDCHAR
STARTCHAR aring
ENCODING 140
SWIDTH 1000 0
DWIDTH 20 0
BBX 20 20 0 -4
BITMAP
FFFFF0
FFFFF0
FFFFF0
FFFFF0
FFFFF0
FFFFF0
FFFFF0
FFFFF0
FFFFF0
FFFFF0
FFFFF0
FFFFF0
FFFFF0
FFFFF0
FFFFF0
FFFFF0
FFFFF0
FFFFF0
FFFFF0
FFFFF0
ENDCHAR
STARTCHAR ccedilla
ENCODING 141
SWIDTH 1000 0
DWIDTH 20 0
BBX 20 20 0 -4
BITMAP
FFFFF0
FFFFF0
FFFFF0
FFFFF0
FFFFF0
FFFFF0
FFFFF0
FFFFF0
FFFFF0
FFFFF0
FFFFF0
FFFFF0
FFFFF0
FFFFF0
FFFFF0
FFFFF0
FFFFF0
FFFFF0
FFFFF0
FFFFF0
ENDCHAR
STARTCHAR eacute
ENCODING 142
SWIDTH 1000 0
DWIDTH 20 0
BBX 20 20 0 -4
BITMAP
FFFFF0
FFFFF0
FFFFF0
FFFFF0
FFFFF0
FFFFF0
FFFFF0
FFFFF0
FFFFF0
FFFFF0
FFFFF0
FFFFF0
FFFFF0
FFFFF0
FFFFF0
FFFFF0
FFFFF0
FFFFF0
FFFFF0
FFFFF0
ENDCHAR
STARTCHAR egrave
ENCODING 143
SWIDTH 1000 0
DWIDTH 20 0
BBX 20 20 0 -4
BITMAP
FFFFF0
FFFFF0
FFFFF0
FFFFF0
FFFFF0
FFFFF0
FFFFF0
FFFFF0
FFFFF0
FFFFF0
FFFFF0
FFFFF0
FFFFF0
FFFFF0
FFFFF0
FFFFF0
FFFFF0
FFFFF0
FFFFF0
FFFFF0
ENDCHAR
STARTCHAR ecircumflex
ENCODING 144
SWIDTH 1000 0
DWIDTH 20 0
BBX 20 20 0 -4
BITMAP
FFFFF0
FFFFF0
FFFFF0
FFFFF0
FFFFF0
FFFFF0
FFFFF0
FFFFF0
FFFFF0
FFFFF0
FFFFF0
FFFFF0
FFFFF0
FFFFF0
FFFFF0
FFFFF0
FFFFF0
FFFFF0
FFFFF0
FFFFF0
ENDCHAR
STARTCHAR edieresis
ENCODING 145
SWIDTH 1000 0
DWIDTH 20 0
BBX 20 20 0 -4
BITMAP
FFFFF0
FFFFF0
FFFFF0
FFFFF0
FFFFF0
FFFFF0
FFFFF0
FFFFF0
FFFFF0
FFFFF0
FFFFF0
FFFFF0
FFFFF0
FFFFF0
FFFFF0
FFFFF0
FFFFF0
FFFFF0
FFFFF0
FFFFF0
ENDCHAR
STARTCHAR iacute
ENCODING 146
SWIDTH 1000 0
DWIDTH 20 0
BBX 20 20 0 -4
BITMAP
FFFFF0
FFFFF0
FFFFF0
FFFFF0
FFFFF0
FFFFF0
FFFFF0
FFFFF0
FFFFF0
FFFFF0
FFFFF0
FFFFF0
FFFFF0
FFFFF0
FFFFF0
FFFFF0
FFFFF0
FFFFF0
FFFFF0
FFFFF0
ENDCHAR
STARTCHAR igrave
ENCODING 147
SWIDTH 1000 0
DWIDTH 20 0
BBX 20 20 0 -4
BITMAP
FFFFF0
FFFFF0
FFFFF0
FFFFF0
FFFFF0
FFFFF0
FFFFF0
FFFFF0
FFFFF0
FFFFF0
FFFFF0
FFFFF0
FFFFF0
FFFFF0
FFFFF0
FFFFF0
FFFFF0
FFFFF0
FFFFF0
FFFFF0
ENDCHAR
STARTCHAR icircumflex
ENCODING 148
SWIDTH 1000 0
DWIDTH 20 0
BBX 20 20 0 -4
BITMAP
FFFFF0
FFFFF0
FFFFF0
FFFFF0
FFFFF0
FFFFF0
FFFFF0
FFFFF0
FFFFF0
FFFFF0
FFFFF0
FFFFF0
FFFFF0
FFFFF0
FFFFF0
FFFFF0
FFFFF0
FFFFF0
FFFFF0
FFFFF0
ENDCHAR
STARTCHAR idieresis
ENCODING 149
SWIDTH 1000 0
DWIDTH 20 0
BBX 20 20 0 -4
BITMAP
FFFFF0
FFFFF0
FFFFF0
FFFFF0
FFFFF0
FFFFF0
FFFFF0
FFFFF0
FFFFF0
FFFFF0
FFFFF0
FFFFF0
FFFFF0
FFFFF0
FFFFF0
FFFFF0
FFFFF0
FFFFF0
FFFFF0
FFFFF0
ENDCHAR
STARTCHAR ntilde
ENCODING 150
SWIDTH 1000 0
DWIDTH 20 0
BBX 20 20 0 -4
BITMAP
FFFFF0
FFFFF0
FFFFF0
FFFFF0
FFFFF0
FFFFF0
FFFFF0
FFFFF0
FFFFF0
FFFFF0
FFFFF0
FFFFF0
FFFFF0
FFFFF0
FFFFF0
FFFFF0
FFFFF0
FFFFF0
FFFFF0
FFFFF0
ENDCHAR
STARTCHAR oacute
ENCODING 151
SWIDTH 1000 0
DWIDTH 20 0
BBX 20 20 0 -4
BITMAP
FFFFF0
FFFFF0
FFFFF0
FFFFF0
FFFFF0
FFFFF0
FFFFF0
FFFFF0
FFFFF0
FFFFF0
FFFFF0
FFFFF0
FFFFF0
FFFFF0
FFFFF0
FFFFF0
FFFFF0
FFFFF0
FFFFF0
FFFFF0
ENDCHAR
STARTCHAR ograve
ENCODING 152
SWIDTH 1000 0
DWIDTH 20 0
BBX 20 20 0 -4
BITMAP
FFFFF0
FFFFF0
FFFFF0
FFFFF0
FFFFF0
FFFFF0
FFFFF0
FFFFF0
FFFFF0
FFFFF0
FFFFF0
FFFFF0
FFFFF0
FFFFF0
FFFFF0
FFFFF0
FFFFF0
FFFFF0
FFFFF0
FFFFF0
ENDCHAR
STARTCHAR ocircumflex
ENCODING 153
SWIDTH 1000 0
DWIDTH 20 0
BBX 20 20 0 -4
BITMAP
FFFFF0
FFFFF0
FFFFF0
FFFFF0
FFFFF0
FFFFF0
FFFFF0
FFFFF0
FFFFF0
FFFFF0
FFFFF0
FFFFF0
FFFFF0
FFFFF0
FFFFF0
FFFFF0
FFFFF0
FFFFF0
FFFFF0
FFFFF0
ENDCHAR
STARTCHAR odieresis
ENCODING 154
SWIDTH 1000 0
DWIDTH 20 0
BBX 20 20 0 -4
BITMAP
FFFFF0
FFFFF0
FFFFF0
FFFFF0
FFFFF0
FFFFF0
FFFFF0
FFFFF0
FFFFF0
FFFFF0
FFFFF0
FFFFF0
FFFFF0
FFFFF0
FFFFF0
FFFFF0
FFFFF0
FFFFF0
FFFFF0
FFFFF0
ENDCHAR
STARTCHAR otilde
ENCODING 155
SWIDTH 1000 0
DWIDTH 20 0
BBX 20 20 0 -4
BITMAP
FFFFF0
FFFFF0
FFFFF0
FFFFF0
FFFFF0
FFFFF0
FFFFF0
FFFFF0
FFFFF0
FFFFF0
FFFFF0
FFFFF0
FFFFF0
FFFFF0
FFFFF0
FFFFF0
FFFFF0
FFFFF0
FFFFF0
FFFFF0
ENDCHAR
STARTCHAR uacute
ENCODING 156
SWIDTH 1000 0
DWIDTH 20 0
BBX 20 20 0 -4
BITMAP
FFFFF0
FFFFF0
FFFFF0
FFFFF0
FFFFF0
FFFFF0
FFFFF0
FFFFF0
FFFFF0
FFFFF0
FFFFF0
FFFFF0
FFFFF0
FFFFF0
FFFFF0
FFFFF0
FFFFF0
FFFFF0
FFFFF0
FFFFF0
ENDCHAR
STARTCHAR ugrave
ENCODING 157
SWIDTH 1000 0
DWIDTH 20 0
BBX 20 20 0 -4
BITMAP
FFFFF0
FFFFF0
FFFFF0
FFFFF0
FFFFF0
FFFFF0
FFFFF0
FFFFF0
FFFFF0
FFFFF0
FFFFF0
FFFFF0
FFFFF0
FFFFF0
FFFFF0
FFFFF0
FFFFF0
FFFFF0
FFFFF0
FFFFF0
ENDCHAR
STARTCHAR ucircumflex
ENCODING 158
SWIDTH 1000 0
DWIDTH 20 0
BBX 20 20 0 -4
BITMAP
FFFFF0
FFFFF0
FFFFF0
FFFFF0
FFFFF0
FFFFF0
FFFFF0
FFFFF0
FFFFF0
FFFFF0
FFFFF0
FFFFF0
FFFFF0
FFFFF0
FFFFF0
FFFFF0
FFFFF0
FFFFF0
FFFFF0
FFFFF0
ENDCHAR
STARTCHAR udieresis
ENCODING 159
SWIDTH 1000 0
DWIDTH 20 0
BBX 20 20 0 -4
BITMAP
FFFFF0
FFFFF0
FFFFF0
FFFFF0
FFFFF0
FFFFF0
FFFFF0
FFFFF0
FFFFF0
FFFFF0
FFFFF0
FFFFF0
FFFFF0
FFFFF0
FFFFF0
FFFFF0
FFFFF0
FFFFF0
FFFFF0
FFFFF0
ENDCHAR
STARTCHAR dagger
ENCODING 160
SWIDTH 1000 0
DWIDTH 20 0
BBX 20 20 0 -4
BITMAP
FFFFF0
FFFFF0
FFFFF0
FFFFF0
FFFFF0
FFFFF0
FFFFF0
FFFFF0
FFFFF0
FFFFF0
FFFFF0
FFFFF0
FFFFF0
FFFFF0
FFFFF0
FFFFF0
FFFFF0
FFFFF0
FFFFF0
FFFFF0
ENDCHAR
STARTCHAR degree
ENCODING 161
SWIDTH 500 0
DWIDTH 10 0
BBX 0 0 0 -5
BITMAP
ENDCHAR
STARTCHAR cent
ENCODING 162
SWIDTH 500 0
DWIDTH 10 0
BBX 0 0 0 -5
BITMAP
ENDCHAR
STARTCHAR sterling
ENCODING 163
SWIDTH 500 0
DWIDTH 10 0
BBX 0 0 0 -5
BITMAP
ENDCHAR
STARTCHAR section
ENCODING 164
SWIDTH 500 0
DWIDTH 10 0
BBX 0 0 0 -5
BITMAP
ENDCHAR
STARTCHAR bullet
ENCODING 165
SWIDTH 500 0
DWIDTH 10 0
BBX 0 0 0 -5
BITMAP
ENDCHAR
STARTCHAR paragraph
ENCODING 166
SWIDTH 500 0
DWIDTH 10 0
BBX 0 0 0 -5
BITMAP
ENDCHAR
STARTCHAR germandbls
ENCODING 167
SWIDTH 500 0
DWIDTH 10 0
BBX 0 0 0 -5
BITMAP
ENDCHAR
STARTCHAR registered
ENCODING 168
SWIDTH 500 0
DWIDTH 10 0
BBX 0 0 0 -5
BITMAP
ENDCHAR
STARTCHAR copyright
ENCODING 169
SWIDTH 500 0
DWIDTH 10 0
BBX 0 0 0 -5
BITMAP
ENDCHAR
STARTCHAR trademark
ENCODING 170
SWIDTH 500 0
DWIDTH 10 0
BBX 0 0 0 -5
BITMAP
ENDCHAR
STARTCHAR acute
ENCODING 171
SWIDTH 500 0
DWIDTH 10 0
BBX 0 0 0 -5
BITMAP
ENDCHAR
STARTCHAR dieresis
ENCODING 172
SWIDTH 500 0
DWIDTH 10 0
BBX 0 0 0 -5
BITMAP
ENDCHAR
STARTCHAR notequal
ENCODING 173
SWIDTH 500 0
DWIDTH 10 0
BBX 0 0 0 -5
BITMAP
ENDCHAR
STARTCHAR AE
ENCODING 174
SWIDTH 500 0
DWIDTH 10 0
BBX 0 0 0 -5
BITMAP
ENDCHAR
STARTCHAR Oslash
ENCODING 175
SWIDTH 500 0
DWIDTH 10 0
BBX 0 0 0 -5
BITMAP
ENDCHAR
STARTCHAR infinity
ENCODING 176
SWIDTH 500 0
DWIDTH 10 0
BBX 0 0 0 -5
BITMAP
ENDCHAR
STARTCHAR plusminus
ENCODING 177
SWIDTH 500 0
DWIDTH 10 0
BBX 0 0 0 -5
BITMAP
ENDCHAR
STARTCHAR lessequal
ENCODING 178
SWIDTH 500 0
DWIDTH 10 0
BBX 0 0 0 -5
BITMAP
ENDCHAR
STARTCHAR greaterequal
ENCODING 179
SWIDTH 500 0
DWIDTH 10 0
BBX 0 0 0 -5
BITMAP
ENDCHAR
STARTCHAR yen
ENCODING 180
SWIDTH 500 0
DWIDTH 10 0
BBX 0 0 0 -5
BITMAP
ENDCHAR
STARTCHAR mu
ENCODING 181
SWIDTH 500 0
DWIDTH 10 0
BBX 0 0 0 -5
BITMAP
ENDCHAR
STARTCHAR partialdiff
ENCODING 182
SWIDTH 500 0
DWIDTH 10 0
BBX 0 0 0 -5
BITMAP
ENDCHAR
STARTCHAR summation
ENCODING 183
SWIDTH 500 0
DWIDTH 10 0
BBX 0 0 0 -5
BITMAP
ENDCHAR
STARTCHAR product
ENCODING 184
SWIDTH 500 0
DWIDTH 10 0
BBX 0 0 0 -5
BITMAP
ENDCHAR
STARTCHAR pi
ENCODING 185
SWIDTH 500 0
DWIDTH 10 0
BBX 0 0 0 -5
BITMAP
ENDCHAR
STARTCHAR integral
ENCODING 186
SWIDTH 500 0
DWIDTH 10 0
BBX 0 0 0 -5
BITMAP
ENDCHAR
STARTCHAR ordfeminine
ENCODING 187
SWIDTH 500 0
DWIDTH 10 0
BBX 0 0 0 -5
BITMAP
ENDCHAR
STARTCHAR ordmasculine
ENCODING 188
SWIDTH 500 0
DWIDTH 10 0
BBX 0 0 0 -5
BITMAP
ENDCHAR
STARTCHAR Omega
ENCODING 189
SWIDTH 500 0
DWIDTH 10 0
BBX 0 0 0 -5
BITMAP
ENDCHAR
STARTCHAR ae
ENCODING 190
SWIDTH 500 0
DWIDTH 10 0
BBX 0 0 0 -5
BITMAP
ENDCHAR
STARTCHAR oslash
ENCODING 191
SWIDTH 500 0
DWIDTH 10 0
BBX 0 0 0 -5
BITMAP
ENDCHAR
STARTCHAR questiondown
ENCODING 192
SWIDTH 500 0
DWIDTH 10 0
BBX 0 0 0 -5
BITMAP
ENDCHAR
STARTCHAR exclamdown
ENCODING 193
SWIDTH 500 0
DWIDTH 10 0
BBX 0 0 0 -5
BITMAP
ENDCHAR
STARTCHAR logicalnot
ENCODING 194
SWIDTH 500 0
DWIDTH 10 0
BBX 0 0 0 -5
BITMAP
ENDCHAR
STARTCHAR radical
ENCODING 195
SWIDTH 500 0
DWIDTH 10 0
BBX 0 0 0 -5
BITMAP
ENDCHAR
STARTCHAR florin
ENCODING 196
SWIDTH 500 0
DWIDTH 10 0
BBX 0 0 0 -5
BITMAP
ENDCHAR
STARTCHAR approxequal
ENCODING 197
SWIDTH 500 0
DWIDTH 10 0
BBX 0 0 0 -5
BITMAP
ENDCHAR
STARTCHAR Delta
ENCODING 198
SWIDTH 500 0
DWIDTH 10 0
BBX 0 0 0 -5
BITMAP
ENDCHAR
STARTCHAR guillemotleft
ENCODING 199
SWIDTH 500 0
DWIDTH 10 0
BBX 0 0 0 -5
BITMAP
ENDCHAR
STARTCHAR guillemotright
ENCODING 200
SWIDTH 500 0
DWIDTH 10 0
BBX 0 0 0 -5
BITMAP
ENDCHAR
STARTCHAR ellipsis
ENCODING 201
SWIDTH 500 0
DWIDTH 10 0
BBX 0 0 0 -5
BITMAP
ENDCHAR
STARTCHAR nbspace
ENCODING 202
SWIDTH 500 0
DWIDTH 10 0
BBX 0 0 0 -5
BITMAP
ENDCHAR
STARTCHAR Agrave
ENCODING 203
SWIDTH 500 0
DWIDTH 10 0
BBX 0 0 0 -5
BITMAP
ENDCHAR
STARTCHAR Atilde
ENCODING 204
SWIDTH 500 0
DWIDTH 10 0
BBX 0 0 0 -5
BITMAP
ENDCHAR
STARTCHAR Otilde
ENCODING 205
SWIDTH 500 0
DWIDTH 10 0
BBX 0 0 0 -5
BITMAP
ENDCHAR
STARTCHAR OE
ENCODING 206
SWIDTH 500 0
DWIDTH 10 0
BBX 0 0 0 -5
BITMAP
ENDCHAR
STARTCHAR oe
ENCODING 207
SWIDTH 500 0
DWIDTH 10 0
BBX 0 0 0 -5
BITMAP
ENDCHAR
STARTCHAR endash
ENCODING 208
SWIDTH 500 0
DWIDTH 10 0
BBX 0 0 0 -5
BITMAP
ENDCHAR
STARTCHAR emdash
ENCODING 209
SWIDTH 500 0
DWIDTH 10 0
BBX 0 0 0 -5
BITMAP
ENDCHAR
STARTCHAR quotedblleft
ENCODING 210
SWIDTH 500 0
DWIDTH 10 0
BBX 0 0 0 -5
BITMAP
ENDCHAR
STARTCHAR quotedblright
ENCODING 211
SWIDTH 500 0
DWIDTH 10 0
BBX 0 0 0 -5
BITMAP
ENDCHAR
STARTCHAR quoteleft
ENCODING 212
SWIDTH 500 0
DWIDTH 10 0
BBX 0 0 0 -5
BITMAP
ENDCHAR
STARTCHAR quoteright
ENCODING 213
SWIDTH 500 0
DWIDTH 10 0
BBX 0 0 0 -5
BITMAP
ENDCHAR
STARTCHAR divide
ENCODING 214
SWIDTH 500 0
DWIDTH 10 0
BBX 0 0 0 -5
BITMAP
ENDCHAR
STARTCHAR lozenge
ENCODING 215
SWIDTH 500 0
DWIDTH 10 0
BBX 0 0 0 -5
BITMAP
ENDCHAR
STARTCHAR ydieresis
ENCODING 216
SWIDTH 500 0
DWIDTH 10 0
BBX 0 0 0 -5
BITMAP
ENDCHAR
STARTCHAR Ydieresis
ENCODING 217
SWIDTH 500 0
DWIDTH 10 0
BBX 0 0 0 -5
BITMAP
ENDCHAR
STARTCHAR fraction
ENCODING 218
SWIDTH 500 0
DWIDTH 10 0
BBX 0 0 0 -5
BITMAP
ENDCHAR
STARTCHAR currency
ENCODING 219
SWIDTH 500 0
DWIDTH 10 0
BBX 0 0 0 -5
BITMAP
ENDCHAR
STARTCHAR guilsinglleft
ENCODING 220
SWIDTH 500 0
DWIDTH 10 0
BBX 0 0 0 -5
BITMAP
ENDCHAR
STARTCHAR guilsinglright
ENCODING 221
SWIDTH 500 0
DWIDTH 10 0
BBX 0 0 0 -5
BITMAP
ENDCHAR
STARTCHAR fi
ENCODING 222
SWIDTH 500 0
DWIDTH 10 0
BBX 0 0 0 -5
BITMAP
ENDCHAR
STARTCHAR fl
ENCODING 223
SWIDTH 500 0
DWIDTH 10 0
BBX 0 0 0 -5
BITMAP
ENDCHAR
STARTCHAR daggerdbl
ENCODING 224
SWIDTH 500 0
DWIDTH 10 0
BBX 0 0 0 -5
BITMAP
ENDCHAR
STARTCHAR periodcentered
ENCODING 225
SWIDTH 500 0
DWIDTH 10 0
BBX 0 0 0 -5
BITMAP
ENDCHAR
STARTCHAR quotesinglbase
ENCODING 226
SWIDTH 500 0
DWIDTH 10 0
BBX 0 0 0 -5
BITMAP
ENDCHAR
STARTCHAR quotedblbase
ENCODING 227
SWIDTH 500 0
DWIDTH 10 0
BBX 0 0 0 -5
BITMAP
ENDCHAR
STARTCHAR perthousand
ENCODING 228
SWIDTH 500 0
DWIDTH 10 0
BBX 0 0 0 -5
BITMAP
ENDCHAR
STARTCHAR Acircumflex
ENCODING 229
SWIDTH 500 0
DWIDTH 10 0
BBX 0 0 0 -5
BITMAP
ENDCHAR
STARTCHAR Ecircumflex
ENCODING 230
SWIDTH 500 0
DWIDTH 10 0
BBX 0 0 0 -5
BITMAP
ENDCHAR
STARTCHAR Aacute
ENCODING 231
SWIDTH 500 0
DWIDTH 10 0
BBX 0 0 0 -5
BITMAP
ENDCHAR
STARTCHAR Edieresis
ENCODING 232
SWIDTH 500 0
DWIDTH 10 0
BBX 0 0 0 -5
BITMAP
ENDCHAR
STARTCHAR Egrave
ENCODING 233
SWIDTH 500 0
DWIDTH 10 0
BBX 0 0 0 -5
BITMAP
ENDCHAR
STARTCHAR Iacute
ENCODING 234
SWIDTH 500 0
DWIDTH 10 0
BBX 0 0 0 -5
BITMAP
ENDCHAR
STARTCHAR Icircumflex
ENCODING 235
SWIDTH 500 0
DWIDTH 10 0
BBX 0 0 0 -5
BITMAP
ENDCHAR
STARTCHAR Idieresis
ENCODING 236
SWIDTH 500 0
DWIDTH 10 0
BBX 0 0 0 -5
BITMAP
ENDCHAR
STARTCHAR Igrave
ENCODING 237
SWIDTH 500 0
DWIDTH 10 0
BBX 0 0 0 -5
BITMAP
ENDCHAR
STARTCHAR Oacute
ENCODING 238
SWIDTH 500 0
DWIDTH 10 0
BBX 0 0 0 -5
BITMAP
ENDCHAR
STARTCHAR Ocircumflex
ENCODING 239
SWIDTH 500 0
DWIDTH 10 0
BBX 0 0 0 -5
BITMAP
ENDCHAR
STARTCHAR apple
ENCODING 240
SWIDTH 500 0
DWIDTH 10 0
BBX 0 0 0 -5
BITMAP
ENDCHAR
STARTCHAR Ograve
ENCODING 241
SWIDTH 500 0
DWIDTH 10 0
BBX 0 0 0 -5
BITMAP
ENDCHAR
STARTCHAR Uacute
ENCODING 242
SWIDTH 500 0
DWIDTH 10 0
BBX 0 0 0 -5
BITMAP
ENDCHAR
STARTCHAR Ucircumflex
ENCODING 243
SWIDTH 500 0
DWIDTH 10 0
BBX 0 0 0 -5
BITMAP
ENDCHAR
STARTCHAR Ugrave
ENCODING 244
SWIDTH 500 0
DWIDTH 10 0
BBX 0 0 0 -5
BITMAP
ENDCHAR
STARTCHAR dotlessi
ENCODING 245
SWIDTH 500 0
DWIDTH 10 0
BBX 0 0 0 -5
BITMAP
ENDCHAR
STARTCHAR circumflex
ENCODING 246
SWIDTH 500 0
DWIDTH 10 0
BBX 0 0 0 -5
BITMAP
ENDCHAR
STARTCHAR tilde
ENCODING 247
SWIDTH 500 0
DWIDTH 10 0
BBX 0 0 0 -5
BITMAP
ENDCHAR
STARTCHAR macron
ENCODING 248
SWIDTH 500 0
DWIDTH 10 0
BBX 0 0 0 -5
BITMAP
ENDCHAR
STARTCHAR breve
ENCODING 249
SWIDTH 500 0
DWIDTH 10 0
BBX 0 0 0 -5
BITMAP
ENDCHAR
STARTCHAR dotaccent
ENCODING 250
SWIDTH 500 0
DWIDTH 10 0
BBX 0 0 0 -5
BITMAP
ENDCHAR
STARTCHAR ring
ENCODING 251
SWIDTH 500 0
DWIDTH 10 0
BBX 0 0 0 -5
BITMAP
ENDCHAR
STARTCHAR cedilla
ENCODING 252
SWIDTH 500 0
DWIDTH 10 0
BBX 0 0 0 -5
BITMAP
ENDCHAR
STARTCHAR hungarumlaut
ENCODING 253
SWIDTH 500 0
DWIDTH 10 0
BBX 0 0 0 -5
BITMAP
ENDCHAR
STARTCHAR ogonek
ENCODING 254
SWIDTH 500 0
DWIDTH 10 0
BBX 0 0 0 -5
BITMAP
ENDCHAR
STARTCHAR caron
ENCODING 255
SWIDTH 1000 0
DWIDTH 20 0
BBX 15 3 3 4
BITMAP
E38E
E38E
E38E
ENDCHAR
ENDFONT
